<svg width="500" height="500" style="background: rgb(231, 127, 70);" version="1.1" xmlns="http://www.w3.org/2000/svg"><filter id="blur" x="-100" y="-100" width="700" height="300" filterUnits="userSpaceOnUse"><feGaussianBlur stdDeviation="20"></feGaussianBlur></filter><g transform="translate(0,0)"><path fill="#e77f46" d="M0,0L74.07336735244219,0C148.14673470488438,0,296.29346940976876,0,378.7001700955443,-16.666666666666664C461.1068707813198,-33.33333333333333,477.7735374479864,-66.66666666666666,494.4402041146531,-66.66666666666666C511.1068707813198,-66.66666666666666,527.7735374479864,-33.33333333333333,528.7001700955443,-16.666666666666664C529.6268027431021,0,514.813401371551,0,507.4067006857755,0L500,0L500,500L507.4067006857755,499.99999999999994C514.813401371551,500,529.6268027431021,500,528.7001700955443,499.99999999999994C527.7735374479864,500,511.1068707813198,500,494.4402041146531,499.99999999999994C477.7735374479864,500,461.1068707813198,500,378.7001700955443,499.99999999999994C296.29346940976876,500,148.14673470488438,500,74.07336735244219,499.99999999999994L0,500Z"></path><g filter="url(#blur)"><ellipse cy="20" ry="20" rx="60" fill-opacity="0.2" style="fill: rgb(255, 174, 88);" cx="358.88731598388404"></ellipse><ellipse cy="20" ry="20" rx="60" fill-opacity="0.2" style="fill: rgb(255, 174, 88);" cx="-62.63767418265343"></ellipse><ellipse cy="20" ry="20" rx="60" fill-opacity="0.2" style="fill: rgb(255, 174, 88);" cx="17.389469960704446"></ellipse><ellipse cy="20" ry="20" rx="60" fill-opacity="0.2" style="fill: rgb(255, 174, 88);" cx="318.18007639981806"></ellipse><ellipse cy="20" ry="20" rx="60" fill-opacity="0.2" style="fill: rgb(255, 174, 88);" cx="310.6099200146273"></ellipse><ellipse cy="20" ry="20" rx="60" fill-opacity="0.2" style="fill: rgb(255, 174, 88);" cx="-85.79886223282665"></ellipse><ellipse cy="20" ry="20" rx="60" fill-opacity="0.2" style="fill: rgb(255, 174, 88);" cx="-80.65584630798548"></ellipse></g></g><g transform="translate(0,50)"><path fill="#d37642" d="M0,0L74.1289063085181,0C148.2578126170362,0,296.5156252340724,0,378.97786487592384,-16.666666666666664C461.44010451777524,-33.33333333333333,478.10677118444187,-66.66666666666666,494.77343785110855,-66.66666666666666C511.44010451777524,-66.66666666666666,528.1067711844419,-33.33333333333333,528.9778648759238,-16.666666666666664C529.8489585674057,0,514.9244792837028,0,507.4622396418514,0L500,0L500,500L507.4622396418514,499.99999999999994C514.9244792837028,500,529.8489585674057,500,528.9778648759238,499.99999999999994C528.1067711844419,500,511.44010451777524,500,494.77343785110855,499.99999999999994C478.10677118444187,500,461.44010451777524,500,378.97786487592384,499.99999999999994C296.5156252340724,500,148.2578126170362,500,74.1289063085181,499.99999999999994L0,500Z"></path><g filter="url(#blur)"><ellipse cy="20" ry="20" rx="60" fill-opacity="0.2" style="fill: rgb(255, 164, 84);" cx="79.98020285554227"></ellipse><ellipse cy="20" ry="20" rx="60" fill-opacity="0.2" style="fill: rgb(255, 164, 84);" cx="-61.9777176110074"></ellipse><ellipse cy="20" ry="20" rx="60" fill-opacity="0.2" style="fill: rgb(255, 164, 84);" cx="548.804421505891"></ellipse><ellipse cy="20" ry="20" rx="60" fill-opacity="0.2" style="fill: rgb(255, 164, 84);" cx="252.7684668935836"></ellipse><ellipse cy="20" ry="20" rx="60" fill-opacity="0.2" style="fill: rgb(255, 164, 84);" cx="0.08453928586095438"></ellipse><ellipse cy="20" ry="20" rx="60" fill-opacity="0.2" style="fill: rgb(255, 164, 84);" cx="522.4336662022399"></ellipse><ellipse cy="20" ry="20" rx="60" fill-opacity="0.2" style="fill: rgb(255, 164, 84);" cx="173.15050148591405"></ellipse></g></g><g transform="translate(0,100)"><path fill="#c06c3f" d="M0,0L-8.12023465987295,0C-16.2404693197459,0,-32.4809386394918,0,-32.26783996603141,-16.666666666666664C-32.05474129257103,-33.33333333333333,-15.38807462590436,-66.66666666666666,1.2785920407623044,-66.66666666666666C17.94525870742897,-66.66666666666666,34.611925374095634,-33.33333333333333,117.73216003396858,-16.666666666666664C200.85239469384152,0,350.42619734692073,0,425.21309867346037,0L500,0L500,500L425.21309867346037,499.99999999999994C350.42619734692073,500,200.85239469384152,500,117.73216003396858,499.99999999999994C34.611925374095634,500,17.94525870742897,500,1.2785920407623053,499.99999999999994C-15.38807462590436,500,-32.05474129257103,500,-32.26783996603141,499.99999999999994C-32.4809386394918,500,-16.2404693197459,500,-8.12023465987295,499.99999999999994L0,500Z"></path><g filter="url(#blur)"><ellipse cy="20" ry="20" rx="60" fill-opacity="0.2" style="fill: rgb(255, 155, 81);" cx="441.6439182320611"></ellipse><ellipse cy="20" ry="20" rx="60" fill-opacity="0.2" style="fill: rgb(255, 155, 81);" cx="399.9596885107459"></ellipse><ellipse cy="20" ry="20" rx="60" fill-opacity="0.2" style="fill: rgb(255, 155, 81);" cx="254.81537409592414"></ellipse><ellipse cy="20" ry="20" rx="60" fill-opacity="0.2" style="fill: rgb(255, 155, 81);" cx="41.57478324137627"></ellipse><ellipse cy="20" ry="20" rx="60" fill-opacity="0.2" style="fill: rgb(255, 155, 81);" cx="392.6995703857393"></ellipse><ellipse cy="20" ry="20" rx="60" fill-opacity="0.2" style="fill: rgb(255, 155, 81);" cx="176.78539987187827"></ellipse><ellipse cy="20" ry="20" rx="60" fill-opacity="0.2" style="fill: rgb(255, 155, 81);" cx="172.94764240738"></ellipse></g></g><g transform="translate(0,150)"><path fill="#ac633b" d="M0,0L61.6245361433054,0C123.2490722866108,0,246.4981445732216,0,316.4560140498603,-16.666666666666664C386.41388352649903,-33.33333333333333,403.0805501931657,-66.66666666666666,419.7472168598324,-66.66666666666666C436.41388352649903,-66.66666666666666,453.0805501931657,-33.33333333333333,466.4560140498603,-16.666666666666664C479.83147790655494,0,489.91573895327747,0,494.9578694766387,0L500,0L500,500L494.9578694766387,499.99999999999994C489.91573895327747,500,479.83147790655494,500,466.4560140498603,499.99999999999994C453.0805501931657,500,436.41388352649903,500,419.7472168598324,499.99999999999994C403.0805501931657,500,386.41388352649903,500,316.4560140498603,499.99999999999994C246.4981445732216,500,123.2490722866108,500,61.6245361433054,499.99999999999994L0,500Z"></path><g filter="url(#blur)"><ellipse cy="20" ry="20" rx="60" fill-opacity="0.2" style="fill: rgb(255, 146, 77);" cx="545.1354363644496"></ellipse><ellipse cy="20" ry="20" rx="60" fill-opacity="0.2" style="fill: rgb(255, 146, 77);" cx="-29.685440830886364"></ellipse><ellipse cy="20" ry="20" rx="60" fill-opacity="0.2" style="fill: rgb(255, 146, 77);" cx="404.44950050488114"></ellipse><ellipse cy="20" ry="20" rx="60" fill-opacity="0.2" style="fill: rgb(255, 146, 77);" cx="555.524158326909"></ellipse><ellipse cy="20" ry="20" rx="60" fill-opacity="0.2" style="fill: rgb(255, 146, 77);" cx="454.92628003749996"></ellipse><ellipse cy="20" ry="20" rx="60" fill-opacity="0.2" style="fill: rgb(255, 146, 77);" cx="522.9219933860004"></ellipse><ellipse cy="20" ry="20" rx="60" fill-opacity="0.2" style="fill: rgb(255, 146, 77);" cx="489.7327252551913"></ellipse></g></g><g transform="translate(0,200)"><path fill="#985a38" d="M0,0L-3.94933910574764,0C-7.89867821149528,0,-15.79735642299056,0,-11.413362195404869,-16.666666666666664C-7.029367967819175,-33.33333333333333,9.637298698847491,-66.66666666666666,26.30396536551416,-66.66666666666666C42.97063203218082,-66.66666666666666,59.63729869884749,-33.33333333333333,138.5866378045951,-16.666666666666664C217.53597691034275,0,358.76798845517135,0,429.3839942275857,0L500,0L500,500L429.3839942275857,499.99999999999994C358.76798845517135,500,217.53597691034275,500,138.58663780459514,499.99999999999994C59.63729869884749,500,42.97063203218082,500,26.30396536551416,499.99999999999994C9.637298698847491,500,-7.029367967819175,500,-11.413362195404869,499.99999999999994C-15.79735642299056,500,-7.89867821149528,500,-3.94933910574764,499.99999999999994L0,500Z"></path><g filter="url(#blur)"><ellipse cy="20" ry="20" rx="60" fill-opacity="0.2" style="fill: rgb(251, 136, 74);" cx="95.51222677528855"></ellipse><ellipse cy="20" ry="20" rx="60" fill-opacity="0.2" style="fill: rgb(251, 136, 74);" cx="599.0024132318797"></ellipse><ellipse cy="20" ry="20" rx="60" fill-opacity="0.2" style="fill: rgb(251, 136, 74);" cx="387.67616398259986"></ellipse><ellipse cy="20" ry="20" rx="60" fill-opacity="0.2" style="fill: rgb(251, 136, 74);" cx="-90.66666666666669"></ellipse><ellipse cy="20" ry="20" rx="60" fill-opacity="0.2" style="fill: rgb(251, 136, 74);" cx="-78.33331214636567"></ellipse><ellipse cy="20" ry="20" rx="60" fill-opacity="0.2" style="fill: rgb(251, 136, 74);" cx="50.21225075330587"></ellipse><ellipse cy="20" ry="20" rx="60" fill-opacity="0.2" style="fill: rgb(251, 136, 74);" cx="309.3832628671079"></ellipse></g></g><g transform="translate(0,250)"><path fill="#855134" d="M0,0L19.9918582298172,0C39.9837164596344,0,79.9674329192688,0,108.29262448241934,-16.666666666666664C136.61781604556987,-33.33333333333333,153.28448271223652,-66.66666666666666,169.9511493789032,-66.66666666666666C186.61781604556987,-66.66666666666666,203.28448271223652,-33.33333333333333,258.29262448241934,-16.666666666666664C313.3007662526021,0,406.65038312630105,0,453.3251915631505,0L500,0L500,500L453.3251915631505,499.99999999999994C406.65038312630105,500,313.3007662526021,500,258.29262448241934,499.99999999999994C203.28448271223652,500,186.61781604556987,500,169.9511493789032,499.99999999999994C153.28448271223652,500,136.61781604556987,500,108.29262448241934,499.99999999999994C79.9674329192688,500,39.9837164596344,500,19.9918582298172,499.99999999999994L0,500Z"></path><g filter="url(#blur)"><ellipse cy="20" ry="20" rx="60" fill-opacity="0.2" style="fill: rgb(231, 127, 70);" cx="-91.66666666666664"></ellipse><ellipse cy="20" ry="20" rx="60" fill-opacity="0.2" style="fill: rgb(231, 127, 70);" cx="-35.26797302812339"></ellipse><ellipse cy="20" ry="20" rx="60" fill-opacity="0.2" style="fill: rgb(231, 127, 70);" cx="351.5261639226229"></ellipse><ellipse cy="20" ry="20" rx="60" fill-opacity="0.2" style="fill: rgb(231, 127, 70);" cx="-39.76458272989841"></ellipse><ellipse cy="20" ry="20" rx="60" fill-opacity="0.2" style="fill: rgb(231, 127, 70);" cx="464.14497199840855"></ellipse><ellipse cy="20" ry="20" rx="60" fill-opacity="0.2" style="fill: rgb(231, 127, 70);" cx="406.05617641378205"></ellipse><ellipse cy="20" ry="20" rx="60" fill-opacity="0.2" style="fill: rgb(231, 127, 70);" cx="375.68401543796074"></ellipse></g></g><g transform="translate(0,300)"><path fill="#714730" d="M0,0L59.6653687612464,0C119.3307375224928,0,238.6614750449856,0,306.66017713956535,-16.666666666666664C374.65887923414505,-33.33333333333333,391.3255459008117,-66.66666666666666,407.99221256747836,-66.66666666666666C424.65887923414505,-66.66666666666666,441.32554590081173,-33.33333333333333,456.6601771395653,-16.666666666666664C471.9948083783189,0,485.99740418915945,0,492.9987020945797,0L500,0L500,500L492.9987020945797,499.99999999999994C485.99740418915945,500,471.9948083783189,500,456.66017713956535,499.99999999999994C441.32554590081173,500,424.65887923414505,500,407.99221256747836,499.99999999999994C391.3255459008117,500,374.65887923414505,500,306.66017713956535,499.99999999999994C238.6614750449856,500,119.3307375224928,500,59.6653687612464,499.99999999999994L0,500Z"></path><g filter="url(#blur)"><ellipse cy="20" ry="20" rx="60" fill-opacity="0.2" style="fill: rgb(211, 118, 66);" cx="372.9558586264029"></ellipse><ellipse cy="20" ry="20" rx="60" fill-opacity="0.2" style="fill: rgb(211, 118, 66);" cx="-11.300740195438266"></ellipse><ellipse cy="20" ry="20" rx="60" fill-opacity="0.2" style="fill: rgb(211, 118, 66);" cx="470.55823945626616"></ellipse><ellipse cy="20" ry="20" rx="60" fill-opacity="0.2" style="fill: rgb(211, 118, 66);" cx="19.420689653605223"></ellipse><ellipse cy="20" ry="20" rx="60" fill-opacity="0.2" style="fill: rgb(211, 118, 66);" cx="374.8034413503483"></ellipse><ellipse cy="20" ry="20" rx="60" fill-opacity="0.2" style="fill: rgb(211, 118, 66);" cx="268.0737385125831"></ellipse><ellipse cy="20" ry="20" rx="60" fill-opacity="0.2" style="fill: rgb(211, 118, 66);" cx="166.42975889332592"></ellipse></g></g><g transform="translate(0,350)"><path fill="#5d3e2d" d="M0,0L31.591322804645944,0C63.18264560929189,0,126.36529121858378,0,166.28994735656306,-16.666666666666664C206.21460349454233,-33.33333333333333,222.881270161209,-66.66666666666666,239.54793682787567,-66.66666666666666C256.2146034945423,-66.66666666666666,272.881270161209,-33.33333333333333,316.28994735656306,-16.666666666666664C359.6986245519171,0,429.84931227595854,0,464.92465613797924,0L500,0L500,500L464.92465613797924,499.99999999999994C429.84931227595854,500,359.6986245519171,500,316.28994735656306,499.99999999999994C272.881270161209,500,256.2146034945423,500,239.54793682787567,499.99999999999994C222.881270161209,500,206.21460349454233,500,166.28994735656306,499.99999999999994C126.36529121858378,500,63.18264560929189,500,31.591322804645944,499.99999999999994L0,500Z"></path><g filter="url(#blur)"><ellipse cy="20" ry="20" rx="60" fill-opacity="0.2" style="fill: rgb(192, 108, 63);" cx="-68.778921793215"></ellipse><ellipse cy="20" ry="20" rx="60" fill-opacity="0.2" style="fill: rgb(192, 108, 63);" cx="311.10965295974154"></ellipse><ellipse cy="20" ry="20" rx="60" fill-opacity="0.2" style="fill: rgb(192, 108, 63);" cx="459.38357718288887"></ellipse><ellipse cy="20" ry="20" rx="60" fill-opacity="0.2" style="fill: rgb(192, 108, 63);" cx="62.718311189673855"></ellipse><ellipse cy="20" ry="20" rx="60" fill-opacity="0.2" style="fill: rgb(192, 108, 63);" cx="326.2363215256481"></ellipse><ellipse cy="20" ry="20" rx="60" fill-opacity="0.2" style="fill: rgb(192, 108, 63);" cx="315.1043998124077"></ellipse><ellipse cy="20" ry="20" rx="60" fill-opacity="0.2" style="fill: rgb(192, 108, 63);" cx="519.2872253293172"></ellipse></g></g><g transform="translate(0,400)"><path fill="#493529" d="M0,0L53.23698221084972,0C106.47396442169943,0,212.94792884339887,0,274.51824438758194,-16.666666666666664C336.08855993176496,-33.33333333333333,352.75522659843165,-66.66666666666666,369.42189326509833,-66.66666666666666C386.08855993176496,-66.66666666666666,402.75522659843165,-33.33333333333333,424.51824438758194,-16.666666666666664C446.2812621767322,0,473.1406310883661,0,486.570315544183,0L500,0L500,500L486.570315544183,499.99999999999994C473.1406310883661,500,446.2812621767322,500,424.51824438758194,499.99999999999994C402.75522659843165,500,386.08855993176496,500,369.4218932650983,499.99999999999994C352.75522659843165,500,336.08855993176496,500,274.51824438758194,499.99999999999994C212.94792884339887,500,106.47396442169943,500,53.23698221084972,499.99999999999994L0,500Z"></path><g filter="url(#blur)"><ellipse cy="20" ry="20" rx="60" fill-opacity="0.2" style="fill: rgb(172, 99, 59);" cx="509.90977704897534"></ellipse><ellipse cy="20" ry="20" rx="60" fill-opacity="0.2" style="fill: rgb(172, 99, 59);" cx="395.9666059408338"></ellipse><ellipse cy="20" ry="20" rx="60" fill-opacity="0.2" style="fill: rgb(172, 99, 59);" cx="507.8099058503286"></ellipse><ellipse cy="20" ry="20" rx="60" fill-opacity="0.2" style="fill: rgb(172, 99, 59);" cx="120.9170949906111"></ellipse><ellipse cy="20" ry="20" rx="60" fill-opacity="0.2" style="fill: rgb(172, 99, 59);" cx="460.96797578781855"></ellipse><ellipse cy="20" ry="20" rx="60" fill-opacity="0.2" style="fill: rgb(172, 99, 59);" cx="98.4034450054169"></ellipse><ellipse cy="20" ry="20" rx="60" fill-opacity="0.2" style="fill: rgb(172, 99, 59);" cx="-85.33333333333331"></ellipse></g></g><g transform="translate(0,450)"><path fill="#362b26" d="M0,0L57.04388516023755,0C114.0877703204751,0,228.1755406409502,0,293.55275913452107,-16.666666666666664C358.92997762809193,-33.33333333333333,375.5966442947586,-66.66666666666666,392.2633109614253,-66.66666666666666C408.92997762809193,-66.66666666666666,425.59664429475856,-33.33333333333333,443.552759134521,-16.666666666666664C461.50887397428346,0,480.75443698714173,0,490.37721849357087,0L500,0L500,500L490.3772184935708,499.99999999999994C480.75443698714173,500,461.50887397428346,500,443.552759134521,499.99999999999994C425.59664429475856,500,408.92997762809193,500,392.2633109614253,499.99999999999994C375.5966442947586,500,358.92997762809193,500,293.55275913452107,499.99999999999994C228.1755406409502,500,114.0877703204751,500,57.04388516023755,499.99999999999994L0,500Z"></path></g></svg>