<svg width="500" height="500" style="background: rgb(146, 210, 67);" version="1.1" xmlns="http://www.w3.org/2000/svg"><g transform="translate(425,250)rotate(0)"><path fill="#75d7d" d="M0,25A25,25,0,0,0,0,-25A3.8022221443032342,25,0,0,0,0,25"></path></g><g transform="translate(411.67891818947516,316.9696006638907)rotate(22.5)"><path fill="#75d7d" d="M0,25A25,25,0,0,0,0,-25A-5.942994960398062,25,0,0,1,0,25"></path></g><g transform="translate(373.7436867076458,373.7436867076458)rotate(45)"><path fill="#75d7d" d="M0,25A25,25,0,0,0,0,-25A-14.783444955762223,25,0,0,1,0,25"></path></g><g transform="translate(316.9696006638907,411.67891818947516)rotate(67.5)"><path fill="#75d7d" d="M0,25A25,25,0,0,0,0,-25A-21.37324946887383,25,0,0,1,0,25"></path></g><g transform="translate(250,425)rotate(90)"><path fill="#75d7d" d="M0,25A25,25,0,0,0,0,-25A-24.709170499338303,25,0,0,1,0,25"></path></g><g transform="translate(183.03039933610933,411.67891818947516)rotate(112.5)"><path fill="#75d7d" d="M0,25A-25,25,0,0,1,0,-25A-24.28334431046686,25,0,0,0,0,25"></path></g><g transform="translate(126.2563132923542,373.7436867076458)rotate(135)"><path fill="#75d7d" d="M0,25A-25,25,0,0,1,0,-25A-20.16059907939118,25,0,0,0,0,25"></path></g><g transform="translate(88.32108181052483,316.9696006638907)rotate(157.5)"><path fill="#75d7d" d="M0,25A-25,25,0,0,1,0,-25A-12.968585394763931,25,0,0,0,0,25"></path></g><g transform="translate(75.00000000000001,250)rotate(180)"><path fill="#75d7d" d="M0,25A-25,25,0,0,1,0,-25A-3.8022221443032445,25,0,0,0,0,25"></path></g><g transform="translate(88.32108181052483,183.03039933610933)rotate(202.49999999999997)"><path fill="#75d7d" d="M0,25A-25,25,0,0,1,0,-25A5.942994960398047,25,0,0,1,0,25"></path></g><g transform="translate(126.25631329235418,126.2563132923542)rotate(225)"><path fill="#75d7d" d="M0,25A-25,25,0,0,1,0,-25A14.783444955762223,25,0,0,1,0,25"></path></g><g transform="translate(183.03039933610933,88.32108181052482)rotate(247.5)"><path fill="#75d7d" d="M0,25A-25,25,0,0,1,0,-25A21.37324946887383,25,0,0,1,0,25"></path></g><g transform="translate(249.99999999999997,75.00000000000001)rotate(270)"><path fill="#75d7d" d="M0,25A-25,25,0,0,1,0,-25A24.7091704993383,25,0,0,1,0,25"></path></g><g transform="translate(316.9696006638906,88.32108181052479)rotate(292.49999999999994)"><path fill="#75d7d" d="M0,25A25,25,0,0,0,0,-25A24.283344310466862,25,0,0,0,0,25"></path></g><g transform="translate(373.7436867076458,126.25631329235418)rotate(315)"><path fill="#75d7d" d="M0,25A25,25,0,0,0,0,-25A20.16059907939118,25,0,0,0,0,25"></path></g><g transform="translate(411.6789181894752,183.03039933610933)rotate(337.50000000000006)"><path fill="#75d7d" d="M0,25A25,25,0,0,0,0,-25A12.968585394763926,25,0,0,0,0,25"></path></g></svg>