<svg width="500" height="500" style="background: rgb(188, 16, 90);" version="1.1" xmlns="http://www.w3.org/2000/svg"><path fill="#D1D1D1" fill-opacity="0.14886" d="M0,7L9.25925925925926,6.333333333333332C18.51851851851852,5.666666666666666,37.03703703703704,4.333333333333333,55.55555555555556,4.166666666666666C74.07407407407408,4,92.5925925925926,5,111.11111111111111,5C129.62962962962962,5,148.14814814814815,4,166.66666666666666,3.1666666666666665C185.1851851851852,2.3333333333333335,203.7037037037037,1.6666666666666665,222.22222222222223,1.6666666666666665C240.74074074074073,1.6666666666666665,259.25925925925924,2.3333333333333335,277.77777777777777,3C296.2962962962963,3.6666666666666665,314.8148148148148,4.333333333333333,333.33333333333337,4.666666666666666C351.85185185185185,5,370.3703703703703,5,388.88888888888886,4.499999999999999C407.4074074074074,3.9999999999999996,425.9259259259259,3,444.4444444444444,2.833333333333333C462.96296296296293,2.6666666666666665,481.48148148148147,3.333333333333333,490.7407407407407,3.6666666666666665L500,4L500,0L490.7407407407407,0C481.48148148148147,0,462.96296296296293,0,444.44444444444446,0C425.9259259259259,0,407.4074074074074,0,388.88888888888886,0C370.3703703703703,0,351.85185185185185,0,333.33333333333337,0C314.8148148148148,0,296.2962962962963,0,277.7777777777777,0C259.25925925925924,0,240.74074074074073,0,222.22222222222223,0C203.7037037037037,0,185.1851851851852,0,166.66666666666669,0C148.14814814814815,0,129.62962962962962,0,111.11111111111111,0C92.5925925925926,0,74.07407407407408,0,55.55555555555556,0C37.03703703703704,0,18.51851851851852,0,9.25925925925926,0L0,0Z"></path><path fill="#D1D1D1" fill-opacity="0.13385999999999998" d="M0,57L9.25925925925926,56.33333333333333C18.51851851851852,55.666666666666664,37.03703703703704,54.33333333333333,55.55555555555556,53.49999999999999C74.07407407407408,52.66666666666666,92.5925925925926,52.33333333333333,111.11111111111111,52.83333333333333C129.62962962962962,53.33333333333333,148.14814814814815,54.66666666666666,166.66666666666666,54.83333333333333C185.1851851851852,54.99999999999999,203.7037037037037,53.99999999999999,222.22222222222223,52.999999999999986C240.74074074074073,51.99999999999999,259.25925925925924,50.99999999999999,277.77777777777777,51.499999999999986C296.2962962962963,51.99999999999999,314.8148148148148,53.99999999999999,333.33333333333337,55.16666666666666C351.85185185185185,56.33333333333333,370.3703703703703,56.666666666666664,388.88888888888886,55.83333333333333C407.4074074074074,55,425.9259259259259,53,444.4444444444444,52.5C462.96296296296293,52,481.48148148148147,53,490.7407407407407,53.5L500,54L500,0L490.7407407407407,0C481.48148148148147,0,462.96296296296293,0,444.44444444444446,0C425.9259259259259,0,407.4074074074074,0,388.88888888888886,0C370.3703703703703,0,351.85185185185185,0,333.33333333333337,0C314.8148148148148,0,296.2962962962963,0,277.7777777777777,0C259.25925925925924,0,240.74074074074073,0,222.22222222222223,0C203.7037037037037,0,185.1851851851852,0,166.66666666666669,0C148.14814814814815,0,129.62962962962962,0,111.11111111111111,0C92.5925925925926,0,74.07407407407408,0,55.55555555555556,0C37.03703703703704,0,18.51851851851852,0,9.25925925925926,0L0,0Z"></path><path fill="#D1D1D1" fill-opacity="0.11886" d="M0,104L9.25925925925926,103.83333333333331C18.51851851851852,103.66666666666666,37.03703703703704,103.33333333333331,55.55555555555556,103.83333333333331C74.07407407407408,104.33333333333331,92.5925925925926,105.66666666666666,111.11111111111111,106.16666666666666C129.62962962962962,106.66666666666666,148.14814814814815,106.33333333333331,166.66666666666666,105.83333333333331C185.1851851851852,105.33333333333331,203.7037037037037,104.66666666666666,222.22222222222223,104C240.74074074074073,103.33333333333333,259.25925925925924,102.66666666666666,277.77777777777777,102.66666666666666C296.2962962962963,102.66666666666666,314.8148148148148,103.33333333333333,333.33333333333337,103.16666666666666C351.85185185185185,103,370.3703703703703,102,388.88888888888886,101.83333333333331C407.4074074074074,101.66666666666666,425.9259259259259,102.33333333333331,444.4444444444444,102.99999999999999C462.96296296296293,103.66666666666666,481.48148148148147,104.33333333333333,490.7407407407407,104.66666666666666L500,105L500,0L490.7407407407407,0C481.48148148148147,0,462.96296296296293,0,444.44444444444446,0C425.9259259259259,0,407.4074074074074,0,388.88888888888886,0C370.3703703703703,0,351.85185185185185,0,333.33333333333337,0C314.8148148148148,0,296.2962962962963,0,277.7777777777777,0C259.25925925925924,0,240.74074074074073,0,222.22222222222223,0C203.7037037037037,0,185.1851851851852,0,166.66666666666669,0C148.14814814814815,0,129.62962962962962,0,111.11111111111111,0C92.5925925925926,0,74.07407407407408,0,55.55555555555556,0C37.03703703703704,0,18.51851851851852,0,9.25925925925926,0L0,0Z"></path><path fill="#D1D1D1" fill-opacity="0.10385999999999998" d="M0,155L9.25925925925926,155C18.51851851851852,155,37.03703703703704,155,55.55555555555556,154.5C74.07407407407408,154,92.5925925925926,153,111.11111111111111,152.33333333333331C129.62962962962962,151.66666666666666,148.14814814814815,151.33333333333331,166.66666666666666,151.83333333333331C185.1851851851852,152.33333333333331,203.7037037037037,153.66666666666666,222.22222222222223,154.16666666666666C240.74074074074073,154.66666666666666,259.25925925925924,154.33333333333331,277.77777777777777,153.83333333333334C296.2962962962963,153.33333333333331,314.8148148148148,152.66666666666666,333.33333333333337,152.66666666666666C351.85185185185185,152.66666666666666,370.3703703703703,153.33333333333331,388.88888888888886,153.66666666666666C407.4074074074074,154,425.9259259259259,154,444.4444444444444,154.49999999999997C462.96296296296293,155,481.48148148148147,156,490.7407407407407,156.49999999999997L500,157L500,0L490.7407407407407,0C481.48148148148147,0,462.96296296296293,0,444.44444444444446,0C425.9259259259259,0,407.4074074074074,0,388.88888888888886,0C370.3703703703703,0,351.85185185185185,0,333.33333333333337,0C314.8148148148148,0,296.2962962962963,0,277.7777777777777,0C259.25925925925924,0,240.74074074074073,0,222.22222222222223,0C203.7037037037037,0,185.1851851851852,0,166.66666666666669,0C148.14814814814815,0,129.62962962962962,0,111.11111111111111,0C92.5925925925926,0,74.07407407407408,0,55.55555555555556,0C37.03703703703704,0,18.51851851851852,0,9.25925925925926,0L0,0Z"></path><path fill="#D1D1D1" fill-opacity="0.08886000000000001" d="M0,203L9.25925925925926,203.8333333333333C18.51851851851852,204.66666666666663,37.03703703703704,206.33333333333331,55.55555555555556,206C74.07407407407408,205.66666666666666,92.5925925925926,203.33333333333331,111.11111111111111,202.83333333333331C129.62962962962962,202.33333333333331,148.14814814814815,203.66666666666666,166.66666666666666,204.16666666666666C185.1851851851852,204.66666666666666,203.7037037037037,204.33333333333331,222.22222222222223,203.83333333333331C240.74074074074073,203.33333333333331,259.25925925925924,202.66666666666666,277.77777777777777,202.16666666666666C296.2962962962963,201.66666666666666,314.8148148148148,201.33333333333331,333.33333333333337,202.16666666666666C351.85185185185185,203,370.3703703703703,205,388.88888888888886,205.66666666666666C407.4074074074074,206.33333333333331,425.9259259259259,205.66666666666666,444.4444444444444,205C462.96296296296293,204.33333333333331,481.48148148148147,203.66666666666663,490.7407407407407,203.33333333333331L500,203L500,0L490.7407407407407,0C481.48148148148147,0,462.96296296296293,0,444.44444444444446,0C425.9259259259259,0,407.4074074074074,0,388.88888888888886,0C370.3703703703703,0,351.85185185185185,0,333.33333333333337,0C314.8148148148148,0,296.2962962962963,0,277.7777777777777,0C259.25925925925924,0,240.74074074074073,0,222.22222222222223,0C203.7037037037037,0,185.1851851851852,0,166.66666666666669,0C148.14814814814815,0,129.62962962962962,0,111.11111111111111,0C92.5925925925926,0,74.07407407407408,0,55.55555555555556,0C37.03703703703704,0,18.51851851851852,0,9.25925925925926,0L0,0Z"></path><path fill="#D1D1D1" fill-opacity="0.07386" d="M0,256L9.25925925925926,255.83333333333331C18.51851851851852,255.66666666666666,37.03703703703704,255.33333333333331,55.55555555555556,254.5C74.07407407407408,253.66666666666666,92.5925925925926,252.33333333333331,111.11111111111111,251.99999999999997C129.62962962962962,251.66666666666663,148.14814814814815,252.33333333333331,166.66666666666666,253C185.1851851851852,253.66666666666666,203.7037037037037,254.33333333333331,222.22222222222223,254.33333333333331C240.74074074074073,254.33333333333331,259.25925925925924,253.66666666666666,277.77777777777777,253C296.2962962962963,252.33333333333331,314.8148148148148,251.66666666666663,333.33333333333337,251.66666666666663C351.85185185185185,251.66666666666663,370.3703703703703,252.33333333333331,388.88888888888886,253.5C407.4074074074074,254.66666666666666,425.9259259259259,256.3333333333333,444.4444444444444,256.5C462.96296296296293,256.66666666666663,481.48148148148147,255.33333333333331,490.7407407407407,254.66666666666663L500,254L500,0L490.7407407407407,0C481.48148148148147,0,462.96296296296293,0,444.44444444444446,0C425.9259259259259,0,407.4074074074074,0,388.88888888888886,0C370.3703703703703,0,351.85185185185185,0,333.33333333333337,0C314.8148148148148,0,296.2962962962963,0,277.7777777777777,0C259.25925925925924,0,240.74074074074073,0,222.22222222222223,0C203.7037037037037,0,185.1851851851852,0,166.66666666666669,0C148.14814814814815,0,129.62962962962962,0,111.11111111111111,0C92.5925925925926,0,74.07407407407408,0,55.55555555555556,0C37.03703703703704,0,18.51851851851852,0,9.25925925925926,0L0,0Z"></path><path fill="#D1D1D1" fill-opacity="0.058859999999999996" d="M0,305L9.25925925925926,304.8333333333333C18.51851851851852,304.66666666666663,37.03703703703704,304.3333333333333,55.55555555555556,304.6666666666667C74.07407407407408,305,92.5925925925926,306,111.11111111111111,305.8333333333333C129.62962962962962,305.66666666666663,148.14814814814815,304.3333333333333,166.66666666666666,303.8333333333333C185.1851851851852,303.3333333333333,203.7037037037037,303.66666666666663,222.22222222222223,303.5C240.74074074074073,303.3333333333333,259.25925925925924,302.66666666666663,277.77777777777777,302.66666666666663C296.2962962962963,302.66666666666663,314.8148148148148,303.3333333333333,333.33333333333337,303.3333333333333C351.85185185185185,303.3333333333333,370.3703703703703,302.66666666666663,388.88888888888886,303C407.4074074074074,303.3333333333333,425.9259259259259,304.66666666666663,444.4444444444444,304.66666666666663C462.96296296296293,304.66666666666663,481.48148148148147,303.3333333333333,490.7407407407407,302.66666666666663L500,302L500,0L490.7407407407407,0C481.48148148148147,0,462.96296296296293,0,444.44444444444446,0C425.9259259259259,0,407.4074074074074,0,388.88888888888886,0C370.3703703703703,0,351.85185185185185,0,333.33333333333337,0C314.8148148148148,0,296.2962962962963,0,277.7777777777777,0C259.25925925925924,0,240.74074074074073,0,222.22222222222223,0C203.7037037037037,0,185.1851851851852,0,166.66666666666669,0C148.14814814814815,0,129.62962962962962,0,111.11111111111111,0C92.5925925925926,0,74.07407407407408,0,55.55555555555556,0C37.03703703703704,0,18.51851851851852,0,9.25925925925926,0L0,0Z"></path><path fill="#D1D1D1" fill-opacity="0.043859999999999996" d="M0,355L9.25925925925926,355C18.51851851851852,355,37.03703703703704,355,55.55555555555556,354.8333333333333C74.07407407407408,354.66666666666663,92.5925925925926,354.3333333333333,111.11111111111111,354C129.62962962962962,353.66666666666663,148.14814814814815,353.3333333333333,166.66666666666666,353.66666666666663C185.1851851851852,354,203.7037037037037,355,222.22222222222223,354.99999999999994C240.74074074074073,355,259.25925925925924,354,277.77777777777777,353.8333333333333C296.2962962962963,353.66666666666663,314.8148148148148,354.3333333333333,333.33333333333337,354.3333333333333C351.85185185185185,354.3333333333333,370.3703703703703,353.66666666666663,388.88888888888886,353C407.4074074074074,352.3333333333333,425.9259259259259,351.66666666666663,444.4444444444444,351.8333333333333C462.96296296296293,352,481.48148148148147,353,490.7407407407407,353.5L500,354L500,0L490.7407407407407,0C481.48148148148147,0,462.96296296296293,0,444.44444444444446,0C425.9259259259259,0,407.4074074074074,0,388.88888888888886,0C370.3703703703703,0,351.85185185185185,0,333.33333333333337,0C314.8148148148148,0,296.2962962962963,0,277.7777777777777,0C259.25925925925924,0,240.74074074074073,0,222.22222222222223,0C203.7037037037037,0,185.1851851851852,0,166.66666666666669,0C148.14814814814815,0,129.62962962962962,0,111.11111111111111,0C92.5925925925926,0,74.07407407407408,0,55.55555555555556,0C37.03703703703704,0,18.51851851851852,0,9.25925925925926,0L0,0Z"></path><path fill="#D1D1D1" fill-opacity="0.02886" d="M0,404L9.25925925925926,404.33333333333326C18.51851851851852,404.66666666666663,37.03703703703704,405.33333333333326,55.55555555555556,405.33333333333326C74.07407407407408,405.33333333333326,92.5925925925926,404.66666666666663,111.11111111111111,404C129.62962962962962,403.3333333333333,148.14814814814815,402.66666666666663,166.66666666666666,402.66666666666663C185.1851851851852,402.66666666666663,203.7037037037037,403.3333333333333,222.22222222222223,404C240.74074074074073,404.66666666666663,259.25925925925924,405.33333333333326,277.77777777777777,405.66666666666663C296.2962962962963,405.99999999999994,314.8148148148148,405.99999999999994,333.33333333333337,405.1666666666666C351.85185185185185,404.33333333333326,370.3703703703703,402.66666666666663,388.88888888888886,402.3333333333333C407.4074074074074,402,425.9259259259259,403,444.4444444444444,403.16666666666663C462.96296296296293,403.3333333333333,481.48148148148147,402.66666666666663,490.7407407407407,402.3333333333333L500,402L500,0L490.7407407407407,0C481.48148148148147,0,462.96296296296293,0,444.44444444444446,0C425.9259259259259,0,407.4074074074074,0,388.88888888888886,0C370.3703703703703,0,351.85185185185185,0,333.33333333333337,0C314.8148148148148,0,296.2962962962963,0,277.7777777777777,0C259.25925925925924,0,240.74074074074073,0,222.22222222222223,0C203.7037037037037,0,185.1851851851852,0,166.66666666666669,0C148.14814814814815,0,129.62962962962962,0,111.11111111111111,0C92.5925925925926,0,74.07407407407408,0,55.55555555555556,0C37.03703703703704,0,18.51851851851852,0,9.25925925925926,0L0,0Z"></path><path fill="#D1D1D1" fill-opacity="0.013859999999999989" d="M0,454L9.25925925925926,453.83333333333326C18.51851851851852,453.66666666666663,37.03703703703704,453.3333333333333,55.55555555555556,453.49999999999994C74.07407407407408,453.66666666666663,92.5925925925926,454.3333333333333,111.11111111111111,454.5C129.62962962962962,454.66666666666663,148.14814814814815,454.33333333333326,166.66666666666666,454.33333333333326C185.1851851851852,454.33333333333326,203.7037037037037,454.66666666666663,222.22222222222223,454.8333333333333C240.74074074074073,455,259.25925925925924,455,277.77777777777777,454.66666666666663C296.2962962962963,454.3333333333333,314.8148148148148,453.66666666666663,333.33333333333337,453.3333333333333C351.85185185185185,453,370.3703703703703,453,388.88888888888886,453C407.4074074074074,453,425.9259259259259,453,444.4444444444444,453.16666666666663C462.96296296296293,453.3333333333333,481.48148148148147,453.66666666666663,490.7407407407407,453.83333333333326L500,454L500,0L490.7407407407407,0C481.48148148148147,0,462.96296296296293,0,444.44444444444446,0C425.9259259259259,0,407.4074074074074,0,388.88888888888886,0C370.3703703703703,0,351.85185185185185,0,333.33333333333337,0C314.8148148148148,0,296.2962962962963,0,277.7777777777777,0C259.25925925925924,0,240.74074074074073,0,222.22222222222223,0C203.7037037037037,0,185.1851851851852,0,166.66666666666669,0C148.14814814814815,0,129.62962962962962,0,111.11111111111111,0C92.5925925925926,0,74.07407407407408,0,55.55555555555556,0C37.03703703703704,0,18.51851851851852,0,9.25925925925926,0L0,0Z"></path></svg>