<svg width="500" height="500" style="background: rgb(190, 1, 4);" version="1.1" xmlns="http://www.w3.org/2000/svg"><g transform="translate(0,307.4684564302295)"><path stroke="black" fill="none" d="M0,0 Q250,68.394226225424 500,125.87989972597995" stroke-width="0.8908134234137023"></path></g><g transform="translate(0,225.99307763085824)"><path stroke="black" fill="none" d="M0,0 Q250,82.03896955379383 500,128.21371526042196" stroke-width="1.0029413100931222"></path></g><g transform="translate(0,96.90381975542101)"><path stroke="black" fill="none" d="M0,0 Q250,67.77566259080925 500,103.94420844142157" stroke-width="1.1320531050599474"></path></g><g transform="translate(0,230.6357676655835)"><path stroke="black" fill="none" d="M0,0 Q250,24.61381040762706 500,43.499801396719484" stroke-width="1.0277278265409682"></path></g><g transform="translate(0,208.03459622273556)"><path stroke="black" fill="none" d="M0,0 Q250,26.961924330982747 500,45.387797858006124" stroke-width="1.1342030865018118"></path></g><g transform="translate(0,979.0244232999892)"><path stroke="black" fill="none" d="M0,0 Q250,-16.599413231118522 500,-40.80360651036899" stroke-width="1.8920379012129838"></path></g><g transform="translate(0,909.3615583738917)"><path stroke="black" fill="none" d="M0,0 Q250,9.783733968872063 500,7.202812409526571" stroke-width="1.1454209422696389"></path></g><g transform="translate(0,940.2662905985824)"><path stroke="black" fill="none" d="M0,0 Q250,13.447325951492248 500,15.675409212853427" stroke-width="1.6825971180529948"></path></g><g transform="translate(0,920.2784814486569)"><path stroke="black" fill="none" d="M0,0 Q250,-101.1616693698754 500,-226.26592827606004" stroke-width="1.2119186634168821"></path></g><g transform="translate(0,785.9990087059123)"><path stroke="black" fill="none" d="M0,0 Q250,61.16447908142103 500,88.413404883621" stroke-width="1.8116200005080194"></path></g></svg>