<svg width="500" height="500" style="background: rgb(136, 136, 136);" version="1.1" xmlns="http://www.w3.org/2000/svg"><g transform="rotate(-25,250,250)"><linearGradient id="gradient0" x1="0%" x2="100%" y1="5%" y2="0%"><stop offset="0.9" stop-color="#4ebd20"></stop><stop offset="1" stop-color="#444"></stop></linearGradient><linearGradient id="gradient1" x1="0%" x2="100%" y1="5%" y2="0%"><stop offset="0.9" stop-color="#333"></stop><stop offset="1" stop-color="#4ebd20"></stop></linearGradient><linearGradient id="gradient2" x1="0%" x2="100%" y1="5%" y2="0%"><stop offset="0.9" stop-color="#333"></stop><stop offset="1" stop-color="#444"></stop></linearGradient><linearGradient id="gradient3" x1="0%" x2="100%" y1="5%" y2="0%"><stop offset="0.9" stop-color="#d1d1d1"></stop><stop offset="1" stop-color="#eee"></stop></linearGradient><g transform="translate(171.97247129460692,-83)"><path fill="url(#gradient3)" transform="translate(500)scale(-1 1)" d="M-300,0 L180,0 Q220,0 250,12.5 L250,12.5 Q220,25 180,25 L-300,25 Z"></path><path fill="url(#gradient1)" transform="" d="M-300,0 L180,0 Q220,0 250,12.5 L250,12.5 Q220,25 180,25 L-300,25 Z"></path></g><g transform="translate(199.5879304136129,-63)"><path fill="url(#gradient2)" transform="translate(500)scale(-1 1)" d="M-300,0 L180,0 Q220,0 250,12.5 L250,12.5 Q220,25 180,25 L-300,25 Z"></path><path fill="url(#gradient0)" transform="" d="M-300,0 L180,0 Q220,0 250,12.5 L250,12.5 Q220,25 180,25 L-300,25 Z"></path></g><g transform="translate(157.48158325833214,-43)"><path fill="url(#gradient3)" transform="translate(500)scale(-1 1)" d="M-300,0 L180,0 Q220,0 250,12.5 L250,12.5 Q220,25 180,25 L-300,25 Z"></path><path fill="url(#gradient1)" transform="" d="M-300,0 L180,0 Q220,0 250,12.5 L250,12.5 Q220,25 180,25 L-300,25 Z"></path></g><g transform="translate(60.36238829731722,-23)"><path fill="url(#gradient2)" transform="translate(500)scale(-1 1)" d="M-300,0 L180,0 Q220,0 250,12.5 L250,12.5 Q220,25 180,25 L-300,25 Z"></path><path fill="url(#gradient0)" transform="" d="M-300,0 L180,0 Q220,0 250,12.5 L250,12.5 Q220,25 180,25 L-300,25 Z"></path></g><g transform="translate(-57.843125532765725,-3)"><path fill="url(#gradient3)" transform="translate(500)scale(-1 1)" d="M-300,0 L180,0 Q220,0 250,12.5 L250,12.5 Q220,25 180,25 L-300,25 Z"></path><path fill="url(#gradient1)" transform="" d="M-300,0 L180,0 Q220,0 250,12.5 L250,12.5 Q220,25 180,25 L-300,25 Z"></path></g><g transform="translate(-155.84237145708323,17)"><path fill="url(#gradient2)" transform="translate(500)scale(-1 1)" d="M-300,0 L180,0 Q220,0 250,12.5 L250,12.5 Q220,25 180,25 L-300,25 Z"></path><path fill="url(#gradient0)" transform="" d="M-300,0 L180,0 Q220,0 250,12.5 L250,12.5 Q220,25 180,25 L-300,25 Z"></path></g><g transform="translate(-199.40139341826261,37)"><path fill="url(#gradient3)" transform="translate(500)scale(-1 1)" d="M-300,0 L180,0 Q220,0 250,12.5 L250,12.5 Q220,25 180,25 L-300,25 Z"></path><path fill="url(#gradient1)" transform="" d="M-300,0 L180,0 Q220,0 250,12.5 L250,12.5 Q220,25 180,25 L-300,25 Z"></path></g><g transform="translate(-173.30377184433394,57)"><path fill="url(#gradient2)" transform="translate(500)scale(-1 1)" d="M-300,0 L180,0 Q220,0 250,12.5 L250,12.5 Q220,25 180,25 L-300,25 Z"></path><path fill="url(#gradient0)" transform="" d="M-300,0 L180,0 Q220,0 250,12.5 L250,12.5 Q220,25 180,25 L-300,25 Z"></path></g><g transform="translate(-86.66615678435703,77)"><path fill="url(#gradient3)" transform="translate(500)scale(-1 1)" d="M-300,0 L180,0 Q220,0 250,12.5 L250,12.5 Q220,25 180,25 L-300,25 Z"></path><path fill="url(#gradient1)" transform="" d="M-300,0 L180,0 Q220,0 250,12.5 L250,12.5 Q220,25 180,25 L-300,25 Z"></path></g><g transform="translate(30.24644024138195,97)"><path fill="url(#gradient2)" transform="translate(500)scale(-1 1)" d="M-300,0 L180,0 Q220,0 250,12.5 L250,12.5 Q220,25 180,25 L-300,25 Z"></path><path fill="url(#gradient0)" transform="" d="M-300,0 L180,0 Q220,0 250,12.5 L250,12.5 Q220,25 180,25 L-300,25 Z"></path></g><g transform="translate(136.59308549525676,117)"><path fill="url(#gradient3)" transform="translate(500)scale(-1 1)" d="M-300,0 L180,0 Q220,0 250,12.5 L250,12.5 Q220,25 180,25 L-300,25 Z"></path><path fill="url(#gradient1)" transform="" d="M-300,0 L180,0 Q220,0 250,12.5 L250,12.5 Q220,25 180,25 L-300,25 Z"></path></g><g transform="translate(195.22383617789416,137)"><path fill="url(#gradient2)" transform="translate(500)scale(-1 1)" d="M-300,0 L180,0 Q220,0 250,12.5 L250,12.5 Q220,25 180,25 L-300,25 Z"></path><path fill="url(#gradient0)" transform="" d="M-300,0 L180,0 Q220,0 250,12.5 L250,12.5 Q220,25 180,25 L-300,25 Z"></path></g><g transform="translate(185.65728425856008,157)"><path fill="url(#gradient3)" transform="translate(500)scale(-1 1)" d="M-300,0 L180,0 Q220,0 250,12.5 L250,12.5 Q220,25 180,25 L-300,25 Z"></path><path fill="url(#gradient1)" transform="" d="M-300,0 L180,0 Q220,0 250,12.5 L250,12.5 Q220,25 180,25 L-300,25 Z"></path></g><g transform="translate(111.23530155410555,177)"><path fill="url(#gradient2)" transform="translate(500)scale(-1 1)" d="M-300,0 L180,0 Q220,0 250,12.5 L250,12.5 Q220,25 180,25 L-300,25 Z"></path><path fill="url(#gradient0)" transform="" d="M-300,0 L180,0 Q220,0 250,12.5 L250,12.5 Q220,25 180,25 L-300,25 Z"></path></g><g transform="translate(-2.0443722429182096,197)"><path fill="url(#gradient3)" transform="translate(500)scale(-1 1)" d="M-300,0 L180,0 Q220,0 250,12.5 L250,12.5 Q220,25 180,25 L-300,25 Z"></path><path fill="url(#gradient1)" transform="" d="M-300,0 L180,0 Q220,0 250,12.5 L250,12.5 Q220,25 180,25 L-300,25 Z"></path></g><g transform="translate(-114.60988799853156,217)"><path fill="url(#gradient2)" transform="translate(500)scale(-1 1)" d="M-300,0 L180,0 Q220,0 250,12.5 L250,12.5 Q220,25 180,25 L-300,25 Z"></path><path fill="url(#gradient0)" transform="" d="M-300,0 L180,0 Q220,0 250,12.5 L250,12.5 Q220,25 180,25 L-300,25 Z"></path></g><g transform="translate(-187.13887252907668,237)"><path fill="url(#gradient3)" transform="translate(500)scale(-1 1)" d="M-300,0 L180,0 Q220,0 250,12.5 L250,12.5 Q220,25 180,25 L-300,25 Z"></path><path fill="url(#gradient1)" transform="" d="M-300,0 L180,0 Q220,0 250,12.5 L250,12.5 Q220,25 180,25 L-300,25 Z"></path></g><g transform="translate(-194.29486486604716,257)"><path fill="url(#gradient2)" transform="translate(500)scale(-1 1)" d="M-300,0 L180,0 Q220,0 250,12.5 L250,12.5 Q220,25 180,25 L-300,25 Z"></path><path fill="url(#gradient0)" transform="" d="M-300,0 L180,0 Q220,0 250,12.5 L250,12.5 Q220,25 180,25 L-300,25 Z"></path></g><g transform="translate(-133.57807100694743,277)"><path fill="url(#gradient3)" transform="translate(500)scale(-1 1)" d="M-300,0 L180,0 Q220,0 250,12.5 L250,12.5 Q220,25 180,25 L-300,25 Z"></path><path fill="url(#gradient1)" transform="" d="M-300,0 L180,0 Q220,0 250,12.5 L250,12.5 Q220,25 180,25 L-300,25 Z"></path></g><g transform="translate(-26.198613879887557,297)"><path fill="url(#gradient2)" transform="translate(500)scale(-1 1)" d="M-300,0 L180,0 Q220,0 250,12.5 L250,12.5 Q220,25 180,25 L-300,25 Z"></path><path fill="url(#gradient0)" transform="" d="M-300,0 L180,0 Q220,0 250,12.5 L250,12.5 Q220,25 180,25 L-300,25 Z"></path></g><g transform="translate(90.33277281427064,317)"><path fill="url(#gradient3)" transform="translate(500)scale(-1 1)" d="M-300,0 L180,0 Q220,0 250,12.5 L250,12.5 Q220,25 180,25 L-300,25 Z"></path><path fill="url(#gradient1)" transform="" d="M-300,0 L180,0 Q220,0 250,12.5 L250,12.5 Q220,25 180,25 L-300,25 Z"></path></g><g transform="translate(175.3083230742121,337)"><path fill="url(#gradient2)" transform="translate(500)scale(-1 1)" d="M-300,0 L180,0 Q220,0 250,12.5 L250,12.5 Q220,25 180,25 L-300,25 Z"></path><path fill="url(#gradient0)" transform="" d="M-300,0 L180,0 Q220,0 250,12.5 L250,12.5 Q220,25 180,25 L-300,25 Z"></path></g><g transform="translate(199.04363243220854,357)"><path fill="url(#gradient3)" transform="translate(500)scale(-1 1)" d="M-300,0 L180,0 Q220,0 250,12.5 L250,12.5 Q220,25 180,25 L-300,25 Z"></path><path fill="url(#gradient1)" transform="" d="M-300,0 L180,0 Q220,0 250,12.5 L250,12.5 Q220,25 180,25 L-300,25 Z"></path></g><g transform="translate(153.24727446037326,377)"><path fill="url(#gradient2)" transform="translate(500)scale(-1 1)" d="M-300,0 L180,0 Q220,0 250,12.5 L250,12.5 Q220,25 180,25 L-300,25 Z"></path><path fill="url(#gradient0)" transform="" d="M-300,0 L180,0 Q220,0 250,12.5 L250,12.5 Q220,25 180,25 L-300,25 Z"></path></g><g transform="translate(53.91723456776053,397)"><path fill="url(#gradient3)" transform="translate(500)scale(-1 1)" d="M-300,0 L180,0 Q220,0 250,12.5 L250,12.5 Q220,25 180,25 L-300,25 Z"></path><path fill="url(#gradient1)" transform="" d="M-300,0 L180,0 Q220,0 250,12.5 L250,12.5 Q220,25 180,25 L-300,25 Z"></path></g><g transform="translate(-64.24764656794959,417)"><path fill="url(#gradient2)" transform="translate(500)scale(-1 1)" d="M-300,0 L180,0 Q220,0 250,12.5 L250,12.5 Q220,25 180,25 L-300,25 Z"></path><path fill="url(#gradient0)" transform="" d="M-300,0 L180,0 Q220,0 250,12.5 L250,12.5 Q220,25 180,25 L-300,25 Z"></path></g><g transform="translate(-159.96897634107668,437)"><path fill="url(#gradient3)" transform="translate(500)scale(-1 1)" d="M-300,0 L180,0 Q220,0 250,12.5 L250,12.5 Q220,25 180,25 L-300,25 Z"></path><path fill="url(#gradient1)" transform="" d="M-300,0 L180,0 Q220,0 250,12.5 L250,12.5 Q220,25 180,25 L-300,25 Z"></path></g><g transform="translate(-199.8085403419196,457)"><path fill="url(#gradient2)" transform="translate(500)scale(-1 1)" d="M-300,0 L180,0 Q220,0 250,12.5 L250,12.5 Q220,25 180,25 L-300,25 Z"></path><path fill="url(#gradient0)" transform="" d="M-300,0 L180,0 Q220,0 250,12.5 L250,12.5 Q220,25 180,25 L-300,25 Z"></path></g><g transform="translate(-169.84923267352968,477)"><path fill="url(#gradient3)" transform="translate(500)scale(-1 1)" d="M-300,0 L180,0 Q220,0 250,12.5 L250,12.5 Q220,25 180,25 L-300,25 Z"></path><path fill="url(#gradient1)" transform="" d="M-300,0 L180,0 Q220,0 250,12.5 L250,12.5 Q220,25 180,25 L-300,25 Z"></path></g><g transform="translate(-80.55670143917033,497)"><path fill="url(#gradient2)" transform="translate(500)scale(-1 1)" d="M-300,0 L180,0 Q220,0 250,12.5 L250,12.5 Q220,25 180,25 L-300,25 Z"></path><path fill="url(#gradient0)" transform="" d="M-300,0 L180,0 Q220,0 250,12.5 L250,12.5 Q220,25 180,25 L-300,25 Z"></path></g><g transform="translate(36.8766032387443,517)"><path fill="url(#gradient3)" transform="translate(500)scale(-1 1)" d="M-300,0 L180,0 Q220,0 250,12.5 L250,12.5 Q220,25 180,25 L-300,25 Z"></path><path fill="url(#gradient1)" transform="" d="M-300,0 L180,0 Q220,0 250,12.5 L250,12.5 Q220,25 180,25 L-300,25 Z"></path></g><g transform="translate(141.42784945882838,537)"><path fill="url(#gradient2)" transform="translate(500)scale(-1 1)" d="M-300,0 L180,0 Q220,0 250,12.5 L250,12.5 Q220,25 180,25 L-300,25 Z"></path><path fill="url(#gradient0)" transform="" d="M-300,0 L180,0 Q220,0 250,12.5 L250,12.5 Q220,25 180,25 L-300,25 Z"></path></g><g transform="translate(196.57427895816696,557)"><path fill="url(#gradient3)" transform="translate(500)scale(-1 1)" d="M-300,0 L180,0 Q220,0 250,12.5 L250,12.5 Q220,25 180,25 L-300,25 Z"></path><path fill="url(#gradient1)" transform="" d="M-300,0 L180,0 Q220,0 250,12.5 L250,12.5 Q220,25 180,25 L-300,25 Z"></path></g></g></svg>