<svg width="500" height="500" style="background: rgb(136, 136, 136);" version="1.1" xmlns="http://www.w3.org/2000/svg"><g transform="rotate(-25,250,250)"><linearGradient id="gradient0" x1="0%" x2="100%" y1="5%" y2="0%"><stop offset="0.9" stop-color="#82c519"></stop><stop offset="1" stop-color="#444"></stop></linearGradient><linearGradient id="gradient1" x1="0%" x2="100%" y1="5%" y2="0%"><stop offset="0.9" stop-color="#333"></stop><stop offset="1" stop-color="#82c519"></stop></linearGradient><linearGradient id="gradient2" x1="0%" x2="100%" y1="5%" y2="0%"><stop offset="0.9" stop-color="#333"></stop><stop offset="1" stop-color="#444"></stop></linearGradient><linearGradient id="gradient3" x1="0%" x2="100%" y1="5%" y2="0%"><stop offset="0.9" stop-color="#d1d1d1"></stop><stop offset="1" stop-color="#eee"></stop></linearGradient><g transform="translate(116.79107757068688,-83)"><path fill="url(#gradient3)" transform="translate(500)scale(-1 1)" d="M-300,0 L180,0 Q220,0 250,12.5 L250,12.5 Q220,25 180,25 L-300,25 Z"></path><path fill="url(#gradient1)" transform="" d="M-300,0 L180,0 Q220,0 250,12.5 L250,12.5 Q220,25 180,25 L-300,25 Z"></path></g><g transform="translate(4.71809299731254,-63)"><path fill="url(#gradient2)" transform="translate(500)scale(-1 1)" d="M-300,0 L180,0 Q220,0 250,12.5 L250,12.5 Q220,25 180,25 L-300,25 Z"></path><path fill="url(#gradient0)" transform="" d="M-300,0 L180,0 Q220,0 250,12.5 L250,12.5 Q220,25 180,25 L-300,25 Z"></path></g><g transform="translate(-109.00305720041088,-43)"><path fill="url(#gradient3)" transform="translate(500)scale(-1 1)" d="M-300,0 L180,0 Q220,0 250,12.5 L250,12.5 Q220,25 180,25 L-300,25 Z"></path><path fill="url(#gradient1)" transform="" d="M-300,0 L180,0 Q220,0 250,12.5 L250,12.5 Q220,25 180,25 L-300,25 Z"></path></g><g transform="translate(-184.64630348038463,-23)"><path fill="url(#gradient2)" transform="translate(500)scale(-1 1)" d="M-300,0 L180,0 Q220,0 250,12.5 L250,12.5 Q220,25 180,25 L-300,25 Z"></path><path fill="url(#gradient0)" transform="" d="M-300,0 L180,0 Q220,0 250,12.5 L250,12.5 Q220,25 180,25 L-300,25 Z"></path></g><g transform="translate(-195.78728364715346,-3)"><path fill="url(#gradient3)" transform="translate(500)scale(-1 1)" d="M-300,0 L180,0 Q220,0 250,12.5 L250,12.5 Q220,25 180,25 L-300,25 Z"></path><path fill="url(#gradient1)" transform="" d="M-300,0 L180,0 Q220,0 250,12.5 L250,12.5 Q220,25 180,25 L-300,25 Z"></path></g><g transform="translate(-138.53413280045368,17)"><path fill="url(#gradient2)" transform="translate(500)scale(-1 1)" d="M-300,0 L180,0 Q220,0 250,12.5 L250,12.5 Q220,25 180,25 L-300,25 Z"></path><path fill="url(#gradient0)" transform="" d="M-300,0 L180,0 Q220,0 250,12.5 L250,12.5 Q220,25 180,25 L-300,25 Z"></path></g><g transform="translate(-32.88702371452937,37)"><path fill="url(#gradient3)" transform="translate(500)scale(-1 1)" d="M-300,0 L180,0 Q220,0 250,12.5 L250,12.5 Q220,25 180,25 L-300,25 Z"></path><path fill="url(#gradient1)" transform="" d="M-300,0 L180,0 Q220,0 250,12.5 L250,12.5 Q220,25 180,25 L-300,25 Z"></path></g><g transform="translate(84.24846892049322,57)"><path fill="url(#gradient2)" transform="translate(500)scale(-1 1)" d="M-300,0 L180,0 Q220,0 250,12.5 L250,12.5 Q220,25 180,25 L-300,25 Z"></path><path fill="url(#gradient0)" transform="" d="M-300,0 L180,0 Q220,0 250,12.5 L250,12.5 Q220,25 180,25 L-300,25 Z"></path></g><g transform="translate(171.95354751791768,77)"><path fill="url(#gradient3)" transform="translate(500)scale(-1 1)" d="M-300,0 L180,0 Q220,0 250,12.5 L250,12.5 Q220,25 180,25 L-300,25 Z"></path><path fill="url(#gradient1)" transform="" d="M-300,0 L180,0 Q220,0 250,12.5 L250,12.5 Q220,25 180,25 L-300,25 Z"></path></g><g transform="translate(199.59030483270902,97)"><path fill="url(#gradient2)" transform="translate(500)scale(-1 1)" d="M-300,0 L180,0 Q220,0 250,12.5 L250,12.5 Q220,25 180,25 L-300,25 Z"></path><path fill="url(#gradient0)" transform="" d="M-300,0 L180,0 Q220,0 250,12.5 L250,12.5 Q220,25 180,25 L-300,25 Z"></path></g><g transform="translate(157.50442642031055,117)"><path fill="url(#gradient3)" transform="translate(500)scale(-1 1)" d="M-300,0 L180,0 Q220,0 250,12.5 L250,12.5 Q220,25 180,25 L-300,25 Z"></path><path fill="url(#gradient1)" transform="" d="M-300,0 L180,0 Q220,0 250,12.5 L250,12.5 Q220,25 180,25 L-300,25 Z"></path></g><g transform="translate(60.39772042849745,137)"><path fill="url(#gradient2)" transform="translate(500)scale(-1 1)" d="M-300,0 L180,0 Q220,0 250,12.5 L250,12.5 Q220,25 180,25 L-300,25 Z"></path><path fill="url(#gradient0)" transform="" d="M-300,0 L180,0 Q220,0 250,12.5 L250,12.5 Q220,25 180,25 L-300,25 Z"></path></g><g transform="translate(-57.807646962317335,157)"><path fill="url(#gradient3)" transform="translate(500)scale(-1 1)" d="M-300,0 L180,0 Q220,0 250,12.5 L250,12.5 Q220,25 180,25 L-300,25 Z"></path><path fill="url(#gradient1)" transform="" d="M-300,0 L180,0 Q220,0 250,12.5 L250,12.5 Q220,25 180,25 L-300,25 Z"></path></g><g transform="translate(-155.8191401327486,177)"><path fill="url(#gradient2)" transform="translate(500)scale(-1 1)" d="M-300,0 L180,0 Q220,0 250,12.5 L250,12.5 Q220,25 180,25 L-300,25 Z"></path><path fill="url(#gradient0)" transform="" d="M-300,0 L180,0 Q220,0 250,12.5 L250,12.5 Q220,25 180,25 L-300,25 Z"></path></g><g transform="translate(-199.39852471000182,197)"><path fill="url(#gradient3)" transform="translate(500)scale(-1 1)" d="M-300,0 L180,0 Q220,0 250,12.5 L250,12.5 Q220,25 180,25 L-300,25 Z"></path><path fill="url(#gradient1)" transform="" d="M-300,0 L180,0 Q220,0 250,12.5 L250,12.5 Q220,25 180,25 L-300,25 Z"></path></g><g transform="translate(-173.32226787447507,217)"><path fill="url(#gradient2)" transform="translate(500)scale(-1 1)" d="M-300,0 L180,0 Q220,0 250,12.5 L250,12.5 Q220,25 180,25 L-300,25 Z"></path><path fill="url(#gradient0)" transform="" d="M-300,0 L180,0 Q220,0 250,12.5 L250,12.5 Q220,25 180,25 L-300,25 Z"></path></g><g transform="translate(-86.69955635743844,237)"><path fill="url(#gradient3)" transform="translate(500)scale(-1 1)" d="M-300,0 L180,0 Q220,0 250,12.5 L250,12.5 Q220,25 180,25 L-300,25 Z"></path><path fill="url(#gradient1)" transform="" d="M-300,0 L180,0 Q220,0 250,12.5 L250,12.5 Q220,25 180,25 L-300,25 Z"></path></g><g transform="translate(30.209804557150093,257)"><path fill="url(#gradient2)" transform="translate(500)scale(-1 1)" d="M-300,0 L180,0 Q220,0 250,12.5 L250,12.5 Q220,25 180,25 L-300,25 Z"></path><path fill="url(#gradient0)" transform="" d="M-300,0 L180,0 Q220,0 250,12.5 L250,12.5 Q220,25 180,25 L-300,25 Z"></path></g><g transform="translate(136.56601159839119,277)"><path fill="url(#gradient3)" transform="translate(500)scale(-1 1)" d="M-300,0 L180,0 Q220,0 250,12.5 L250,12.5 Q220,25 180,25 L-300,25 Z"></path><path fill="url(#gradient1)" transform="" d="M-300,0 L180,0 Q220,0 250,12.5 L250,12.5 Q220,25 180,25 L-300,25 Z"></path></g><g transform="translate(195.2157817594914,297)"><path fill="url(#gradient2)" transform="translate(500)scale(-1 1)" d="M-300,0 L180,0 Q220,0 250,12.5 L250,12.5 Q220,25 180,25 L-300,25 Z"></path><path fill="url(#gradient0)" transform="" d="M-300,0 L180,0 Q220,0 250,12.5 L250,12.5 Q220,25 180,25 L-300,25 Z"></path></g><g transform="translate(185.67106295869502,317)"><path fill="url(#gradient3)" transform="translate(500)scale(-1 1)" d="M-300,0 L180,0 Q220,0 250,12.5 L250,12.5 Q220,25 180,25 L-300,25 Z"></path><path fill="url(#gradient1)" transform="" d="M-300,0 L180,0 Q220,0 250,12.5 L250,12.5 Q220,25 180,25 L-300,25 Z"></path></g><g transform="translate(111.26610007640556,337)"><path fill="url(#gradient2)" transform="translate(500)scale(-1 1)" d="M-300,0 L180,0 Q220,0 250,12.5 L250,12.5 Q220,25 180,25 L-300,25 Z"></path><path fill="url(#gradient0)" transform="" d="M-300,0 L180,0 Q220,0 250,12.5 L250,12.5 Q220,25 180,25 L-300,25 Z"></path></g><g transform="translate(-2.0073127083717637,357)"><path fill="url(#gradient3)" transform="translate(500)scale(-1 1)" d="M-300,0 L180,0 Q220,0 250,12.5 L250,12.5 Q220,25 180,25 L-300,25 Z"></path><path fill="url(#gradient1)" transform="" d="M-300,0 L180,0 Q220,0 250,12.5 L250,12.5 Q220,25 180,25 L-300,25 Z"></path></g><g transform="translate(-114.579513413365,377)"><path fill="url(#gradient2)" transform="translate(500)scale(-1 1)" d="M-300,0 L180,0 Q220,0 250,12.5 L250,12.5 Q220,25 180,25 L-300,25 Z"></path><path fill="url(#gradient0)" transform="" d="M-300,0 L180,0 Q220,0 250,12.5 L250,12.5 Q220,25 180,25 L-300,25 Z"></path></g><g transform="translate(-187.1257936097712,397)"><path fill="url(#gradient3)" transform="translate(500)scale(-1 1)" d="M-300,0 L180,0 Q220,0 250,12.5 L250,12.5 Q220,25 180,25 L-300,25 Z"></path><path fill="url(#gradient1)" transform="" d="M-300,0 L180,0 Q220,0 250,12.5 L250,12.5 Q220,25 180,25 L-300,25 Z"></path></g><g transform="translate(-194.30365045539918,417)"><path fill="url(#gradient2)" transform="translate(500)scale(-1 1)" d="M-300,0 L180,0 Q220,0 250,12.5 L250,12.5 Q220,25 180,25 L-300,25 Z"></path><path fill="url(#gradient0)" transform="" d="M-300,0 L180,0 Q220,0 250,12.5 L250,12.5 Q220,25 180,25 L-300,25 Z"></path></g><g transform="translate(-133.60565204583287,437)"><path fill="url(#gradient3)" transform="translate(500)scale(-1 1)" d="M-300,0 L180,0 Q220,0 250,12.5 L250,12.5 Q220,25 180,25 L-300,25 Z"></path><path fill="url(#gradient1)" transform="" d="M-300,0 L180,0 Q220,0 250,12.5 L250,12.5 Q220,25 180,25 L-300,25 Z"></path></g><g transform="translate(-26.235355517912545,457)"><path fill="url(#gradient2)" transform="translate(500)scale(-1 1)" d="M-300,0 L180,0 Q220,0 250,12.5 L250,12.5 Q220,25 180,25 L-300,25 Z"></path><path fill="url(#gradient0)" transform="" d="M-300,0 L180,0 Q220,0 250,12.5 L250,12.5 Q220,25 180,25 L-300,25 Z"></path></g><g transform="translate(90.2997054883322,477)"><path fill="url(#gradient3)" transform="translate(500)scale(-1 1)" d="M-300,0 L180,0 Q220,0 250,12.5 L250,12.5 Q220,25 180,25 L-300,25 Z"></path><path fill="url(#gradient1)" transform="" d="M-300,0 L180,0 Q220,0 250,12.5 L250,12.5 Q220,25 180,25 L-300,25 Z"></path></g><g transform="translate(175.29048142866299,497)"><path fill="url(#gradient2)" transform="translate(500)scale(-1 1)" d="M-300,0 L180,0 Q220,0 250,12.5 L250,12.5 Q220,25 180,25 L-300,25 Z"></path><path fill="url(#gradient0)" transform="" d="M-300,0 L180,0 Q220,0 250,12.5 L250,12.5 Q220,25 180,25 L-300,25 Z"></path></g><g transform="translate(199.04724906714662,517)"><path fill="url(#gradient3)" transform="translate(500)scale(-1 1)" d="M-300,0 L180,0 Q220,0 250,12.5 L250,12.5 Q220,25 180,25 L-300,25 Z"></path><path fill="url(#gradient1)" transform="" d="M-300,0 L180,0 Q220,0 250,12.5 L250,12.5 Q220,25 180,25 L-300,25 Z"></path></g><g transform="translate(153.27108598116348,537)"><path fill="url(#gradient2)" transform="translate(500)scale(-1 1)" d="M-300,0 L180,0 Q220,0 250,12.5 L250,12.5 Q220,25 180,25 L-300,25 Z"></path><path fill="url(#gradient0)" transform="" d="M-300,0 L180,0 Q220,0 250,12.5 L250,12.5 Q220,25 180,25 L-300,25 Z"></path></g><g transform="translate(53.952922925128846,557)"><path fill="url(#gradient3)" transform="translate(500)scale(-1 1)" d="M-300,0 L180,0 Q220,0 250,12.5 L250,12.5 Q220,25 180,25 L-300,25 Z"></path><path fill="url(#gradient1)" transform="" d="M-300,0 L180,0 Q220,0 250,12.5 L250,12.5 Q220,25 180,25 L-300,25 Z"></path></g></g></svg>