<svg width="500" height="500" style="background: rgb(236, 218, 34);" version="1.1" xmlns="http://www.w3.org/2000/svg"><g transform="translate(250,250)"><path fill="#000" fill-opacity="0.05" transform="rotate(0)" d="M0,225A225,225,0,0,0,0,-225A225,225,0,0,0,0,225"></path><path fill="#000" fill-opacity="0.05" transform="rotate(16.026)" d="M0,225A225,225,0,0,0,0,-225A224.596165672152,225,0,0,0,0,225"></path><path fill="#000" fill-opacity="0.05" transform="rotate(32.052)" d="M0,225A225,225,0,0,0,0,-225A223.38845812811832,225,0,0,0,0,225"></path><path fill="#000" fill-opacity="0.05" transform="rotate(48.078)" d="M0,225A225,225,0,0,0,0,-225A221.3882028724265,225,0,0,0,0,225"></path><path fill="#000" fill-opacity="0.05" transform="rotate(64.104)" d="M0,225A225,225,0,0,0,0,-225A218.61407457266867,225,0,0,0,0,225"></path><path fill="#000" fill-opacity="0.05" transform="rotate(80.13)" d="M0,225A225,225,0,0,0,0,-225A215.09180063653864,225,0,0,0,0,225"></path><path fill="#000" fill-opacity="0.05" transform="rotate(96.156)" d="M0,225A225,225,0,0,0,0,-225A210.8537567045487,225,0,0,0,0,225"></path><path fill="#000" fill-opacity="0.05" transform="rotate(112.182)" d="M0,225A225,225,0,0,0,0,-225A205.9384641106682,225,0,0,0,0,225"></path><path fill="#000" fill-opacity="0.05" transform="rotate(128.208)" d="M0,225A225,225,0,0,0,0,-225A200.39000163874255,225,0,0,0,0,225"></path><path fill="#000" fill-opacity="0.05" transform="rotate(144.234)" d="M0,225A225,225,0,0,0,0,-225A194.25734576727035,225,0,0,0,0,225"></path><path fill="#000" fill-opacity="0.05" transform="rotate(160.26)" d="M0,225A225,225,0,0,0,0,-225A187.59365499559684,225,0,0,0,0,225"></path><path fill="#000" fill-opacity="0.05" transform="rotate(176.286)" d="M0,225A225,225,0,0,0,0,-225A180.45551474699946,225,0,0,0,0,225"></path><path fill="#000" fill-opacity="0.05" transform="rotate(192.312)" d="M0,225A225,225,0,0,0,0,-225A172.90215973493284,225,0,0,0,0,225"></path><path fill="#000" fill-opacity="0.05" transform="rotate(208.338)" d="M0,225A225,225,0,0,0,0,-225A164.99469056445483,225,0,0,0,0,225"></path><path fill="#000" fill-opacity="0.05" transform="rotate(224.364)" d="M0,225A225,225,0,0,0,0,-225A156.7953007470886,225,0,0,0,0,225"></path><path fill="#000" fill-opacity="0.05" transform="rotate(240.39)" d="M0,225A225,225,0,0,0,0,-225A148.36652927650613,225,0,0,0,0,225"></path><path fill="#000" fill-opacity="0.05" transform="rotate(256.416)" d="M0,225A225,225,0,0,0,0,-225A139.7705525010308,225,0,0,0,0,225"></path><path fill="#000" fill-opacity="0.05" transform="rotate(272.442)" d="M0,225A225,225,0,0,0,0,-225A131.0685273045287,225,0,0,0,0,225"></path><path fill="#000" fill-opacity="0.05" transform="rotate(288.468)" d="M0,225A225,225,0,0,0,0,-225A122.31999564451753,225,0,0,0,0,225"></path><path fill="#000" fill-opacity="0.05" transform="rotate(304.494)" d="M0,225A225,225,0,0,0,0,-225A113.58235837368535,225,0,0,0,0,225"></path><path fill="#000" fill-opacity="0.05" transform="rotate(320.52)" d="M0,225A225,225,0,0,0,0,-225A104.91042406688055,225,0,0,0,0,225"></path><path fill="#000" fill-opacity="0.05" transform="rotate(336.546)" d="M0,225A225,225,0,0,0,0,-225A96.3560363651573,225,0,0,0,0,225"></path><path fill="#000" fill-opacity="0.05" transform="rotate(352.572)" d="M0,225A225,225,0,0,0,0,-225A87.9677812006924,225,0,0,0,0,225"></path><path fill="#000" fill-opacity="0.05" transform="rotate(368.598)" d="M0,225A225,225,0,0,0,0,-225A79.79077324193855,225,0,0,0,0,225"></path><path fill="#000" fill-opacity="0.05" transform="rotate(384.624)" d="M0,225A225,225,0,0,0,0,-225A71.86651904776853,225,0,0,0,0,225"></path><path fill="#000" fill-opacity="0.05" transform="rotate(400.65)" d="M0,225A225,225,0,0,0,0,-225A64.23285278192516,225,0,0,0,0,225"></path><path fill="#000" fill-opacity="0.05" transform="rotate(416.676)" d="M0,225A225,225,0,0,0,0,-225A56.92393894261546,225,0,0,0,0,225"></path><path fill="#000" fill-opacity="0.05" transform="rotate(432.702)" d="M0,225A225,225,0,0,0,0,-225A49.97033542299238,225,0,0,0,0,225"></path><path fill="#000" fill-opacity="0.05" transform="rotate(448.728)" d="M0,225A225,225,0,0,0,0,-225A43.39910934226567,225,0,0,0,0,225"></path><path fill="#000" fill-opacity="0.05" transform="rotate(464.754)" d="M0,225A225,225,0,0,0,0,-225A37.23399747042955,225,0,0,0,0,225"></path><path fill="#000" fill-opacity="0.05" transform="rotate(480.78)" d="M0,225A225,225,0,0,0,0,-225A31.495602700109036,225,0,0,0,0,225"></path><path fill="#000" fill-opacity="0.05" transform="rotate(496.806)" d="M0,225A225,225,0,0,0,0,-225A26.201617878353172,225,0,0,0,0,225"></path></g></svg>