<svg width="500" height="500" version="1.1" xmlns="http://www.w3.org/2000/svg"><g transform="translate(0,-25)"><path transform="scale(0.0006292632576)" fill="#e140c6" fill-opacity="1" d="M-21.65063509461097,-18.75l43.30127018922194,0l0,37.5l-43.30127018922194,0Z"></path></g><g transform="translate(43.30127018922194,-25)"><path transform="scale(0.0001402469376)" fill="#e140c6" fill-opacity="1" d="M-21.65063509461097,-18.75l43.30127018922194,0l0,37.5l-43.30127018922194,0Z"></path></g><g transform="translate(86.60254037844388,-25)"><path transform="scale(0.0000060466176)" fill="#e140c6" fill-opacity="1" d="M-21.65063509461097,-18.75l43.30127018922194,0l0,37.5l-43.30127018922194,0Z"></path></g><g transform="translate(129.9038105676658,-25)"><path transform="scale(0.0000037377023998530487)" fill="#e140c6" fill-opacity="1" d="M0,-25l21.65063509461097,12.5l3.552713678800501e-15,24.999999999999993l-21.650635094610962,12.500000000000007l-21.65063509461097,-12.499999999999986l-2.1316282072803006e-14,-25l21.65063509461095,-12.500000000000016Z"></path></g><g transform="translate(173.20508075688775,-25)"><path transform="scale(0.00011950602239956253)" fill="#e140c6" fill-opacity="1" d="M0,-25l21.65063509461097,12.5l3.552713678800501e-15,24.999999999999993l-21.650635094610962,12.500000000000007l-21.65063509461097,-12.499999999999986l-2.1316282072803006e-14,-25l21.65063509461095,-12.500000000000016Z"></path></g><g transform="translate(216.5063509461097,-25)"><path transform="scale(0.0005716583423996724)" fill="#e140c6" fill-opacity="1" d="M0,-25l21.65063509461097,12.5l3.552713678800501e-15,24.999999999999993l-21.650635094610962,12.500000000000007l-21.65063509461097,-12.499999999999986l-2.1316282072803006e-14,-25l21.65063509461095,-12.500000000000016Z"></path></g><g transform="translate(259.80762113533166,-25)"><path transform="scale(0.00159059466239988)" fill="#e140c6" fill-opacity="1" d="M0,-25l21.65063509461097,12.5l3.552713678800501e-15,24.999999999999993l-21.650635094610962,12.500000000000007l-21.65063509461097,-12.499999999999986l-2.1316282072803006e-14,-25l21.65063509461095,-12.500000000000016Z"></path></g><g transform="translate(303.1088913245536,-25)"><path transform="scale(0.003406714982399883)" fill="#e140c6" fill-opacity="1" d="M0,-25l21.65063509461097,12.5l3.552713678800501e-15,24.999999999999993l-21.650635094610962,12.500000000000007l-21.65063509461097,-12.499999999999986l-2.1316282072803006e-14,-25l21.65063509461095,-12.500000000000016Z"></path></g><g transform="translate(346.41016151377556,-25)"><path transform="scale(0.006250419302400445)" fill="#e140c6" fill-opacity="1" d="M0,-25l21.65063509461097,12.5l3.552713678800501e-15,24.999999999999993l-21.650635094610962,12.500000000000007l-21.65063509461097,-12.499999999999986l-2.1316282072803006e-14,-25l21.65063509461095,-12.500000000000016Z"></path></g><g transform="translate(389.7114317029975,-25)"><path transform="scale(0.010352107622400197)" fill="#e140c6" fill-opacity="1" d="M0,-25l21.65063509461097,12.5l3.552713678800501e-15,24.999999999999993l-21.650635094610962,12.500000000000007l-21.65063509461097,-12.499999999999986l-2.1316282072803006e-14,-25l21.65063509461095,-12.500000000000016Z"></path></g><g transform="translate(433.01270189221947,-25)"><path transform="scale(0.015942179942400436)" fill="#e140c6" fill-opacity="1" d="M0,-25l21.65063509461097,12.5l3.552713678800501e-15,24.999999999999993l-21.650635094610962,12.500000000000007l-21.65063509461097,-12.499999999999986l-2.1316282072803006e-14,-25l21.65063509461095,-12.500000000000016Z"></path></g><g transform="translate(476.3139720814414,-25)"><path transform="scale(0.023251036262399792)" fill="#e140c6" fill-opacity="1" d="M0,-25l21.65063509461097,12.5l3.552713678800501e-15,24.999999999999993l-21.650635094610962,12.500000000000007l-21.65063509461097,-12.499999999999986l-2.1316282072803006e-14,-25l21.65063509461095,-12.500000000000016Z"></path></g><g transform="translate(519.6152422706633,-25)"><path transform="scale(0.03250907658240063)" fill="#e140c6" fill-opacity="1" d="M0,-25l21.65063509461097,12.5l3.552713678800501e-15,24.999999999999993l-21.650635094610962,12.500000000000007l-21.65063509461097,-12.499999999999986l-2.1316282072803006e-14,-25l21.65063509461095,-12.500000000000016Z"></path></g><g transform="translate(-21.65063509461097,12.5)"><path transform="scale(0.04394670090239998)" fill="#e140c6" fill-opacity="1" d="M0,-25l21.65063509461097,12.5l3.552713678800501e-15,24.999999999999993l-21.650635094610962,12.500000000000007l-21.65063509461097,-12.499999999999986l-2.1316282072803006e-14,-25l21.65063509461095,-12.500000000000016Z"></path></g><g transform="translate(21.65063509461097,12.5)"><path transform="scale(0.05779430922240074)" fill="#e140c6" fill-opacity="1" d="M0,-25l21.65063509461097,12.5l3.552713678800501e-15,24.999999999999993l-21.650635094610962,12.500000000000007l-21.65063509461097,-12.499999999999986l-2.1316282072803006e-14,-25l21.65063509461095,-12.500000000000016Z"></path></g><g transform="translate(64.9519052838329,12.5)"><path transform="scale(0.07428230154240047)" fill="#e140c6" fill-opacity="1" d="M0,-25l21.65063509461097,12.5l3.552713678800501e-15,24.999999999999993l-21.650635094610962,12.500000000000007l-21.65063509461097,-12.499999999999986l-2.1316282072803006e-14,-25l21.65063509461095,-12.500000000000016Z"></path></g><g transform="translate(108.25317547305484,12.5)"><path transform="scale(0.0936410778623994)" fill="#e140c6" fill-opacity="1" d="M0,-25l21.65063509461097,12.5l3.552713678800501e-15,24.999999999999993l-21.650635094610962,12.500000000000007l-21.65063509461097,-12.499999999999986l-2.1316282072803006e-14,-25l21.65063509461095,-12.500000000000016Z"></path></g><g transform="translate(151.55444566227678,12.5)"><path transform="scale(0.11610103818240045)" fill="#e140c6" fill-opacity="1" d="M0,-25l21.65063509461097,12.5l3.552713678800501e-15,24.999999999999993l-21.650635094610962,12.500000000000007l-21.65063509461097,-12.499999999999986l-2.1316282072803006e-14,-25l21.65063509461095,-12.500000000000016Z"></path></g><g transform="translate(194.8557158514987,12.5)"><path transform="scale(0.14189258250240008)" fill="#e140c6" fill-opacity="1" d="M0,-25l21.65063509461097,12.5l3.552713678800501e-15,24.999999999999993l-21.650635094610962,12.500000000000007l-21.65063509461097,-12.499999999999986l-2.1316282072803006e-14,-25l21.65063509461095,-12.500000000000016Z"></path></g><g transform="translate(238.15698604072065,12.5)"><path transform="scale(0.17124611082240015)" fill="#e140c6" fill-opacity="1" d="M0,-25l21.65063509461097,12.5l3.552713678800501e-15,24.999999999999993l-21.650635094610962,12.500000000000007l-21.65063509461097,-12.499999999999986l-2.1316282072803006e-14,-25l21.65063509461095,-12.500000000000016Z"></path></g><g transform="translate(281.4582562299426,12.5)"><path transform="scale(0.20439202314239982)" fill="#e140c6" fill-opacity="1" d="M0,-25l21.65063509461097,12.5l3.552713678800501e-15,24.999999999999993l-21.650635094610962,12.500000000000007l-21.65063509461097,-12.499999999999986l-2.1316282072803006e-14,-25l21.65063509461095,-12.500000000000016Z"></path></g><g transform="translate(324.75952641916456,12.5)"><path transform="scale(0.24156071946239982)" fill="#e140c6" fill-opacity="1" d="M0,-25l21.65063509461097,12.5l3.552713678800501e-15,24.999999999999993l-21.650635094610962,12.500000000000007l-21.65063509461097,-12.499999999999986l-2.1316282072803006e-14,-25l21.65063509461095,-12.500000000000016Z"></path></g><g transform="translate(368.0607966083865,12.5)"><path transform="scale(0.28298259978239987)" fill="#e140c6" fill-opacity="1" d="M0,-25l21.65063509461097,12.5l3.552713678800501e-15,24.999999999999993l-21.650635094610962,12.500000000000007l-21.65063509461097,-12.499999999999986l-2.1316282072803006e-14,-25l21.65063509461095,-12.500000000000016Z"></path></g><g transform="translate(411.36206679760846,12.5)"><path transform="scale(0.32888806410240023)" fill="#e140c6" fill-opacity="1" d="M0,-25l21.65063509461097,12.5l3.552713678800501e-15,24.999999999999993l-21.650635094610962,12.500000000000007l-21.65063509461097,-12.499999999999986l-2.1316282072803006e-14,-25l21.65063509461095,-12.500000000000016Z"></path></g><g transform="translate(454.6633369868304,12.5)"><path transform="scale(0.37950751242240005)" fill="#e140c6" fill-opacity="1" d="M0,-25l21.65063509461097,12.5l3.552713678800501e-15,24.999999999999993l-21.650635094610962,12.500000000000007l-21.65063509461097,-12.499999999999986l-2.1316282072803006e-14,-25l21.65063509461095,-12.500000000000016Z"></path></g><g transform="translate(497.96460717605237,12.5)"><path transform="scale(0.4350713447424006)" fill="#e140c6" fill-opacity="1" d="M0,-25l21.65063509461097,12.5l3.552713678800501e-15,24.999999999999993l-21.650635094610962,12.500000000000007l-21.65063509461097,-12.499999999999986l-2.1316282072803006e-14,-25l21.65063509461095,-12.500000000000016Z"></path></g><g transform="translate(541.2658773652743,12.5)"><path transform="scale(0.49580996106239944)" fill="#e140c6" fill-opacity="1" d="M0,-25l21.65063509461097,12.5l3.552713678800501e-15,24.999999999999993l-21.650635094610962,12.500000000000007l-21.65063509461097,-12.499999999999986l-2.1316282072803006e-14,-25l21.65063509461095,-12.500000000000016Z"></path></g><g transform="translate(0,50)"><path transform="scale(0.5619537613824)" fill="#e140c6" fill-opacity="1" d="M0,-25l21.65063509461097,12.5l3.552713678800501e-15,24.999999999999993l-21.650635094610962,12.500000000000007l-21.65063509461097,-12.499999999999986l-2.1316282072803006e-14,-25l21.65063509461095,-12.500000000000016Z"></path></g><g transform="translate(43.30127018922194,50)"><path transform="scale(0.6325143297023998)" fill="#e140c6" fill-opacity="1" d="M0,-25l21.65063509461097,12.5l3.552713678800501e-15,24.999999999999993l-21.650635094610962,12.500000000000007l-21.65063509461097,-12.499999999999986l-2.1316282072803006e-14,-25l21.65063509461095,-12.500000000000016Z"></path></g><g transform="translate(86.60254037844388,50)"><path transform="scale(0.6991004980223999)" fill="#e140c6" fill-opacity="1" d="M0,-25l21.65063509461097,12.5l3.552713678800501e-15,24.999999999999993l-21.650635094610962,12.500000000000007l-21.65063509461097,-12.499999999999986l-2.1316282072803006e-14,-25l21.65063509461095,-12.500000000000016Z"></path></g><g transform="translate(129.9038105676658,50)"><path transform="scale(0.7602630503424)" fill="#e140c6" fill-opacity="1" d="M0,-25l21.65063509461097,12.5l3.552713678800501e-15,24.999999999999993l-21.650635094610962,12.500000000000007l-21.65063509461097,-12.499999999999986l-2.1316282072803006e-14,-25l21.65063509461095,-12.500000000000016Z"></path></g><g transform="translate(173.20508075688775,50)"><path transform="scale(0.8162323866624)" fill="#e140c6" fill-opacity="1" d="M0,-25l21.65063509461097,12.5l3.552713678800501e-15,24.999999999999993l-21.650635094610962,12.500000000000007l-21.65063509461097,-12.499999999999986l-2.1316282072803006e-14,-25l21.65063509461095,-12.500000000000016Z"></path></g><g transform="translate(216.5063509461097,50)"><path transform="scale(0.8672389069823999)" fill="#e140c6" fill-opacity="1" d="M0,-25l21.65063509461097,12.5l3.552713678800501e-15,24.999999999999993l-21.650635094610962,12.500000000000007l-21.65063509461097,-12.499999999999986l-2.1316282072803006e-14,-25l21.65063509461095,-12.500000000000016Z"></path></g><g transform="translate(259.80762113533166,50)"><path transform="scale(0.9135130113023999)" fill="#e140c6" fill-opacity="1" d="M0,-25l21.65063509461097,12.5l3.552713678800501e-15,24.999999999999993l-21.650635094610962,12.500000000000007l-21.65063509461097,-12.499999999999986l-2.1316282072803006e-14,-25l21.65063509461095,-12.500000000000016Z"></path></g><g transform="translate(303.1088913245536,50)"><path transform="scale(0.9552850996223998)" fill="#e140c6" fill-opacity="1" d="M0,-25l21.65063509461097,12.5l3.552713678800501e-15,24.999999999999993l-21.650635094610962,12.500000000000007l-21.65063509461097,-12.499999999999986l-2.1316282072803006e-14,-25l21.65063509461095,-12.500000000000016Z"></path></g><g transform="translate(346.41016151377556,50)"><path transform="scale(0.9927855719424)" fill="#e140c6" fill-opacity="1" d="M0,-25l21.65063509461097,12.5l3.552713678800501e-15,24.999999999999993l-21.650635094610962,12.500000000000007l-21.65063509461097,-12.499999999999986l-2.1316282072803006e-14,-25l21.65063509461095,-12.500000000000016Z"></path></g><g transform="translate(389.7114317029975,50)"><path transform="scale(1.0262448282624)" fill="#e140c6" fill-opacity="1" d="M0,-25l21.65063509461097,12.5l3.552713678800501e-15,24.999999999999993l-21.650635094610962,12.500000000000007l-21.65063509461097,-12.499999999999986l-2.1316282072803006e-14,-25l21.65063509461095,-12.500000000000016Z"></path></g><g transform="translate(433.01270189221947,50)"><path transform="scale(1.0558932685824)" fill="#e140c6" fill-opacity="1" d="M0,-25l21.65063509461097,12.5l3.552713678800501e-15,24.999999999999993l-21.650635094610962,12.500000000000007l-21.65063509461097,-12.499999999999986l-2.1316282072803006e-14,-25l21.65063509461095,-12.500000000000016Z"></path></g><g transform="translate(476.3139720814414,50)"><path transform="scale(1.0819612929024)" fill="#e140c6" fill-opacity="1" d="M0,-25l21.65063509461097,12.5l3.552713678800501e-15,24.999999999999993l-21.650635094610962,12.500000000000007l-21.65063509461097,-12.499999999999986l-2.1316282072803006e-14,-25l21.65063509461095,-12.500000000000016Z"></path></g><g transform="translate(519.6152422706633,50)"><path transform="scale(1.1046793012224)" fill="#e140c6" fill-opacity="1" d="M0,-25l21.65063509461097,12.5l3.552713678800501e-15,24.999999999999993l-21.650635094610962,12.500000000000007l-21.65063509461097,-12.499999999999986l-2.1316282072803006e-14,-25l21.65063509461095,-12.500000000000016Z"></path></g><g transform="translate(-21.65063509461097,87.5)"><path transform="scale(1.1242776935424)" fill="#e140c6" fill-opacity="1" d="M0,-25l21.65063509461097,12.5l3.552713678800501e-15,24.999999999999993l-21.650635094610962,12.500000000000007l-21.65063509461097,-12.499999999999986l-2.1316282072803006e-14,-25l21.65063509461095,-12.500000000000016Z"></path></g><g transform="translate(21.65063509461097,87.5)"><path transform="scale(1.1409868698624)" fill="#e140c6" fill-opacity="1" d="M0,-25l21.65063509461097,12.5l3.552713678800501e-15,24.999999999999993l-21.650635094610962,12.500000000000007l-21.65063509461097,-12.499999999999986l-2.1316282072803006e-14,-25l21.65063509461095,-12.500000000000016Z"></path></g><g transform="translate(64.9519052838329,87.5)"><path transform="scale(1.1550372301824001)" fill="#e140c6" fill-opacity="1" d="M0,-25l21.65063509461097,12.5l3.552713678800501e-15,24.999999999999993l-21.650635094610962,12.500000000000007l-21.65063509461097,-12.499999999999986l-2.1316282072803006e-14,-25l21.65063509461095,-12.500000000000016Z"></path></g><g transform="translate(108.25317547305484,87.5)"><path transform="scale(1.1666591745024)" fill="#e140c6" fill-opacity="1" d="M0,-25l21.65063509461097,12.5l3.552713678800501e-15,24.999999999999993l-21.650635094610962,12.500000000000007l-21.65063509461097,-12.499999999999986l-2.1316282072803006e-14,-25l21.65063509461095,-12.500000000000016Z"></path></g><g transform="translate(151.55444566227678,87.5)"><path transform="scale(1.1760831028224)" fill="#e140c6" fill-opacity="1" d="M0,-25l21.65063509461097,12.5l3.552713678800501e-15,24.999999999999993l-21.650635094610962,12.500000000000007l-21.65063509461097,-12.499999999999986l-2.1316282072803006e-14,-25l21.65063509461095,-12.500000000000016Z"></path></g><g transform="translate(194.8557158514987,87.5)"><path transform="scale(1.1835394151424)" fill="#e140c6" fill-opacity="1" d="M0,-25l21.65063509461097,12.5l3.552713678800501e-15,24.999999999999993l-21.650635094610962,12.500000000000007l-21.65063509461097,-12.499999999999986l-2.1316282072803006e-14,-25l21.65063509461095,-12.500000000000016Z"></path></g><g transform="translate(238.15698604072065,87.5)"><path transform="scale(1.1892585114624)" fill="#e140c6" fill-opacity="1" d="M0,-25l21.65063509461097,12.5l3.552713678800501e-15,24.999999999999993l-21.650635094610962,12.500000000000007l-21.65063509461097,-12.499999999999986l-2.1316282072803006e-14,-25l21.65063509461095,-12.500000000000016Z"></path></g><g transform="translate(281.4582562299426,87.5)"><path transform="scale(1.1934707917824)" fill="#e140c6" fill-opacity="1" d="M0,-25l21.65063509461097,12.5l3.552713678800501e-15,24.999999999999993l-21.650635094610962,12.500000000000007l-21.65063509461097,-12.499999999999986l-2.1316282072803006e-14,-25l21.65063509461095,-12.500000000000016Z"></path></g><g transform="translate(324.75952641916456,87.5)"><path transform="scale(1.1964066561024)" fill="#e140c6" fill-opacity="1" d="M0,-25l21.65063509461097,12.5l3.552713678800501e-15,24.999999999999993l-21.650635094610962,12.500000000000007l-21.65063509461097,-12.499999999999986l-2.1316282072803006e-14,-25l21.65063509461095,-12.500000000000016Z"></path></g><g transform="translate(368.0607966083865,87.5)"><path transform="scale(1.1982965044223999)" fill="#e140c6" fill-opacity="1" d="M0,-25l21.65063509461097,12.5l3.552713678800501e-15,24.999999999999993l-21.650635094610962,12.500000000000007l-21.65063509461097,-12.499999999999986l-2.1316282072803006e-14,-25l21.65063509461095,-12.500000000000016Z"></path></g><g transform="translate(411.36206679760846,87.5)"><path transform="scale(1.1993707367424)" fill="#e140c6" fill-opacity="1" d="M0,-25l21.65063509461097,12.5l3.552713678800501e-15,24.999999999999993l-21.650635094610962,12.500000000000007l-21.65063509461097,-12.499999999999986l-2.1316282072803006e-14,-25l21.65063509461095,-12.500000000000016Z"></path></g><g transform="translate(454.6633369868304,87.5)"><path transform="scale(1.1998597530624)" fill="#e140c6" fill-opacity="1" d="M0,-25l21.65063509461097,12.5l3.552713678800501e-15,24.999999999999993l-21.650635094610962,12.500000000000007l-21.65063509461097,-12.499999999999986l-2.1316282072803006e-14,-25l21.65063509461095,-12.500000000000016Z"></path></g><g transform="translate(497.96460717605237,87.5)"><path transform="scale(1.1999939533824)" fill="#e140c6" fill-opacity="1" d="M0,-25l21.65063509461097,12.5l3.552713678800501e-15,24.999999999999993l-21.650635094610962,12.500000000000007l-21.65063509461097,-12.499999999999986l-2.1316282072803006e-14,-25l21.65063509461095,-12.500000000000016Z"></path></g><g transform="translate(541.2658773652743,87.5)"><path transform="scale(1.02)" fill="#e140c6" fill-opacity="1" d="M0,-25l21.65063509461097,12.5l3.552713678800501e-15,24.999999999999993l-21.650635094610962,12.500000000000007l-21.65063509461097,-12.499999999999986l-2.1316282072803006e-14,-25l21.65063509461095,-12.500000000000016Z"></path></g><g transform="translate(0,125)"><path transform="scale(1.02)" fill="#e140c6" fill-opacity="1" d="M0,-25l21.65063509461097,12.5l3.552713678800501e-15,24.999999999999993l-21.650635094610962,12.500000000000007l-21.65063509461097,-12.499999999999986l-2.1316282072803006e-14,-25l21.65063509461095,-12.500000000000016Z"></path></g><g transform="translate(43.30127018922194,125)"><path transform="scale(1.02)" fill="#e140c6" fill-opacity="1" d="M0,-25l21.65063509461097,12.5l3.552713678800501e-15,24.999999999999993l-21.650635094610962,12.500000000000007l-21.65063509461097,-12.499999999999986l-2.1316282072803006e-14,-25l21.65063509461095,-12.500000000000016Z"></path></g><g transform="translate(86.60254037844388,125)"><path transform="scale(1.02)" fill="#e140c6" fill-opacity="1" d="M0,-25l21.65063509461097,12.5l3.552713678800501e-15,24.999999999999993l-21.650635094610962,12.500000000000007l-21.65063509461097,-12.499999999999986l-2.1316282072803006e-14,-25l21.65063509461095,-12.500000000000016Z"></path></g><g transform="translate(129.9038105676658,125)"><path transform="scale(1.02)" fill="#e140c6" fill-opacity="1" d="M0,-25l21.65063509461097,12.5l3.552713678800501e-15,24.999999999999993l-21.650635094610962,12.500000000000007l-21.65063509461097,-12.499999999999986l-2.1316282072803006e-14,-25l21.65063509461095,-12.500000000000016Z"></path></g><g transform="translate(173.20508075688775,125)"><path transform="scale(1.02)" fill="#e140c6" fill-opacity="1" d="M0,-25l21.65063509461097,12.5l3.552713678800501e-15,24.999999999999993l-21.650635094610962,12.500000000000007l-21.65063509461097,-12.499999999999986l-2.1316282072803006e-14,-25l21.65063509461095,-12.500000000000016Z"></path></g><g transform="translate(216.5063509461097,125)"><path transform="scale(1.02)" fill="#e140c6" fill-opacity="1" d="M0,-25l21.65063509461097,12.5l3.552713678800501e-15,24.999999999999993l-21.650635094610962,12.500000000000007l-21.65063509461097,-12.499999999999986l-2.1316282072803006e-14,-25l21.65063509461095,-12.500000000000016Z"></path></g><g transform="translate(259.80762113533166,125)"><path transform="scale(1.02)" fill="#e140c6" fill-opacity="1" d="M0,-25l21.65063509461097,12.5l3.552713678800501e-15,24.999999999999993l-21.650635094610962,12.500000000000007l-21.65063509461097,-12.499999999999986l-2.1316282072803006e-14,-25l21.65063509461095,-12.500000000000016Z"></path></g><g transform="translate(303.1088913245536,125)"><path transform="scale(1.02)" fill="#e140c6" fill-opacity="1" d="M0,-25l21.65063509461097,12.5l3.552713678800501e-15,24.999999999999993l-21.650635094610962,12.500000000000007l-21.65063509461097,-12.499999999999986l-2.1316282072803006e-14,-25l21.65063509461095,-12.500000000000016Z"></path></g><g transform="translate(346.41016151377556,125)"><path transform="scale(1.02)" fill="#e140c6" fill-opacity="1" d="M0,-25l21.65063509461097,12.5l3.552713678800501e-15,24.999999999999993l-21.650635094610962,12.500000000000007l-21.65063509461097,-12.499999999999986l-2.1316282072803006e-14,-25l21.65063509461095,-12.500000000000016Z"></path></g><g transform="translate(389.7114317029975,125)"><path transform="scale(1.02)" fill="#e140c6" fill-opacity="1" d="M0,-25l21.65063509461097,12.5l3.552713678800501e-15,24.999999999999993l-21.650635094610962,12.500000000000007l-21.65063509461097,-12.499999999999986l-2.1316282072803006e-14,-25l21.65063509461095,-12.500000000000016Z"></path></g><g transform="translate(433.01270189221947,125)"><path transform="scale(1.02)" fill="#e140c6" fill-opacity="1" d="M0,-25l21.65063509461097,12.5l3.552713678800501e-15,24.999999999999993l-21.650635094610962,12.500000000000007l-21.65063509461097,-12.499999999999986l-2.1316282072803006e-14,-25l21.65063509461095,-12.500000000000016Z"></path></g><g transform="translate(476.3139720814414,125)"><path transform="scale(1.02)" fill="#e140c6" fill-opacity="1" d="M0,-25l21.65063509461097,12.5l3.552713678800501e-15,24.999999999999993l-21.650635094610962,12.500000000000007l-21.65063509461097,-12.499999999999986l-2.1316282072803006e-14,-25l21.65063509461095,-12.500000000000016Z"></path></g><g transform="translate(519.6152422706633,125)"><path transform="scale(1.02)" fill="#e140c6" fill-opacity="1" d="M0,-25l21.65063509461097,12.5l3.552713678800501e-15,24.999999999999993l-21.650635094610962,12.500000000000007l-21.65063509461097,-12.499999999999986l-2.1316282072803006e-14,-25l21.65063509461095,-12.500000000000016Z"></path></g><g transform="translate(-21.65063509461097,162.5)"><path transform="scale(1.02)" fill="#e140c6" fill-opacity="1" d="M0,-25l21.65063509461097,12.5l3.552713678800501e-15,24.999999999999993l-21.650635094610962,12.500000000000007l-21.65063509461097,-12.499999999999986l-2.1316282072803006e-14,-25l21.65063509461095,-12.500000000000016Z"></path></g><g transform="translate(21.65063509461097,162.5)"><path transform="scale(1.02)" fill="#e140c6" fill-opacity="1" d="M0,-25l21.65063509461097,12.5l3.552713678800501e-15,24.999999999999993l-21.650635094610962,12.500000000000007l-21.65063509461097,-12.499999999999986l-2.1316282072803006e-14,-25l21.65063509461095,-12.500000000000016Z"></path></g><g transform="translate(64.9519052838329,162.5)"><path transform="scale(1.02)" fill="#e140c6" fill-opacity="1" d="M0,-25l21.65063509461097,12.5l3.552713678800501e-15,24.999999999999993l-21.650635094610962,12.500000000000007l-21.65063509461097,-12.499999999999986l-2.1316282072803006e-14,-25l21.65063509461095,-12.500000000000016Z"></path></g><g transform="translate(108.25317547305484,162.5)"><path transform="scale(1.02)" fill="#e140c6" fill-opacity="1" d="M0,-25l21.65063509461097,12.5l3.552713678800501e-15,24.999999999999993l-21.650635094610962,12.500000000000007l-21.65063509461097,-12.499999999999986l-2.1316282072803006e-14,-25l21.65063509461095,-12.500000000000016Z"></path></g><g transform="translate(151.55444566227678,162.5)"><path transform="scale(1.02)" fill="#e140c6" fill-opacity="1" d="M0,-25l21.65063509461097,12.5l3.552713678800501e-15,24.999999999999993l-21.650635094610962,12.500000000000007l-21.65063509461097,-12.499999999999986l-2.1316282072803006e-14,-25l21.65063509461095,-12.500000000000016Z"></path></g><g transform="translate(194.8557158514987,162.5)"><path transform="scale(1.02)" fill="#e140c6" fill-opacity="1" d="M0,-25l21.65063509461097,12.5l3.552713678800501e-15,24.999999999999993l-21.650635094610962,12.500000000000007l-21.65063509461097,-12.499999999999986l-2.1316282072803006e-14,-25l21.65063509461095,-12.500000000000016Z"></path></g><g transform="translate(238.15698604072065,162.5)"><path transform="scale(1.02)" fill="#e140c6" fill-opacity="1" d="M0,-25l21.65063509461097,12.5l3.552713678800501e-15,24.999999999999993l-21.650635094610962,12.500000000000007l-21.65063509461097,-12.499999999999986l-2.1316282072803006e-14,-25l21.65063509461095,-12.500000000000016Z"></path></g><g transform="translate(281.4582562299426,162.5)"><path transform="scale(1.02)" fill="#e140c6" fill-opacity="1" d="M0,-25l21.65063509461097,12.5l3.552713678800501e-15,24.999999999999993l-21.650635094610962,12.500000000000007l-21.65063509461097,-12.499999999999986l-2.1316282072803006e-14,-25l21.65063509461095,-12.500000000000016Z"></path></g><g transform="translate(324.75952641916456,162.5)"><path transform="scale(1.02)" fill="#e140c6" fill-opacity="1" d="M0,-25l21.65063509461097,12.5l3.552713678800501e-15,24.999999999999993l-21.650635094610962,12.500000000000007l-21.65063509461097,-12.499999999999986l-2.1316282072803006e-14,-25l21.65063509461095,-12.500000000000016Z"></path></g><g transform="translate(368.0607966083865,162.5)"><path transform="scale(1.02)" fill="#e140c6" fill-opacity="1" d="M0,-25l21.65063509461097,12.5l3.552713678800501e-15,24.999999999999993l-21.650635094610962,12.500000000000007l-21.65063509461097,-12.499999999999986l-2.1316282072803006e-14,-25l21.65063509461095,-12.500000000000016Z"></path></g><g transform="translate(411.36206679760846,162.5)"><path transform="scale(1.02)" fill="#e140c6" fill-opacity="1" d="M0,-25l21.65063509461097,12.5l3.552713678800501e-15,24.999999999999993l-21.650635094610962,12.500000000000007l-21.65063509461097,-12.499999999999986l-2.1316282072803006e-14,-25l21.65063509461095,-12.500000000000016Z"></path></g><g transform="translate(454.6633369868304,162.5)"><path transform="scale(1.02)" fill="#e140c6" fill-opacity="1" d="M0,-25l21.65063509461097,12.5l3.552713678800501e-15,24.999999999999993l-21.650635094610962,12.500000000000007l-21.65063509461097,-12.499999999999986l-2.1316282072803006e-14,-25l21.65063509461095,-12.500000000000016Z"></path></g><g transform="translate(497.96460717605237,162.5)"><path transform="scale(1.02)" fill="#e140c6" fill-opacity="1" d="M0,-25l21.65063509461097,12.5l3.552713678800501e-15,24.999999999999993l-21.650635094610962,12.500000000000007l-21.65063509461097,-12.499999999999986l-2.1316282072803006e-14,-25l21.65063509461095,-12.500000000000016Z"></path></g><g transform="translate(541.2658773652743,162.5)"><path transform="scale(1.02)" fill="#e140c6" fill-opacity="1" d="M0,-25l21.65063509461097,12.5l3.552713678800501e-15,24.999999999999993l-21.650635094610962,12.500000000000007l-21.65063509461097,-12.499999999999986l-2.1316282072803006e-14,-25l21.65063509461095,-12.500000000000016Z"></path></g><g transform="translate(0,200)"><path transform="scale(1.02)" fill="#e140c6" fill-opacity="1" d="M0,-25l21.65063509461097,12.5l3.552713678800501e-15,24.999999999999993l-21.650635094610962,12.500000000000007l-21.65063509461097,-12.499999999999986l-2.1316282072803006e-14,-25l21.65063509461095,-12.500000000000016Z"></path></g><g transform="translate(43.30127018922194,200)"><path transform="scale(1.02)" fill="#e140c6" fill-opacity="1" d="M0,-25l21.65063509461097,12.5l3.552713678800501e-15,24.999999999999993l-21.650635094610962,12.500000000000007l-21.65063509461097,-12.499999999999986l-2.1316282072803006e-14,-25l21.65063509461095,-12.500000000000016Z"></path></g><g transform="translate(86.60254037844388,200)"><path transform="scale(1.02)" fill="#e140c6" fill-opacity="1" d="M0,-25l21.65063509461097,12.5l3.552713678800501e-15,24.999999999999993l-21.650635094610962,12.500000000000007l-21.65063509461097,-12.499999999999986l-2.1316282072803006e-14,-25l21.65063509461095,-12.500000000000016Z"></path></g><g transform="translate(129.9038105676658,200)"><path transform="scale(1.02)" fill="#e140c6" fill-opacity="1" d="M0,-25l21.65063509461097,12.5l3.552713678800501e-15,24.999999999999993l-21.650635094610962,12.500000000000007l-21.65063509461097,-12.499999999999986l-2.1316282072803006e-14,-25l21.65063509461095,-12.500000000000016Z"></path></g><g transform="translate(173.20508075688775,200)"><path transform="scale(1.02)" fill="#e140c6" fill-opacity="1" d="M0,-25l21.65063509461097,12.5l3.552713678800501e-15,24.999999999999993l-21.650635094610962,12.500000000000007l-21.65063509461097,-12.499999999999986l-2.1316282072803006e-14,-25l21.65063509461095,-12.500000000000016Z"></path></g><g transform="translate(216.5063509461097,200)"><path transform="scale(1.02)" fill="#e140c6" fill-opacity="1" d="M0,-25l21.65063509461097,12.5l3.552713678800501e-15,24.999999999999993l-21.650635094610962,12.500000000000007l-21.65063509461097,-12.499999999999986l-2.1316282072803006e-14,-25l21.65063509461095,-12.500000000000016Z"></path></g><g transform="translate(259.80762113533166,200)"><path transform="scale(1.02)" fill="#e140c6" fill-opacity="1" d="M0,-25l21.65063509461097,12.5l3.552713678800501e-15,24.999999999999993l-21.650635094610962,12.500000000000007l-21.65063509461097,-12.499999999999986l-2.1316282072803006e-14,-25l21.65063509461095,-12.500000000000016Z"></path></g><g transform="translate(303.1088913245536,200)"><path transform="scale(1.02)" fill="#e140c6" fill-opacity="1" d="M0,-25l21.65063509461097,12.5l3.552713678800501e-15,24.999999999999993l-21.650635094610962,12.500000000000007l-21.65063509461097,-12.499999999999986l-2.1316282072803006e-14,-25l21.65063509461095,-12.500000000000016Z"></path></g><g transform="translate(346.41016151377556,200)"><path transform="scale(1.02)" fill="#e140c6" fill-opacity="1" d="M0,-25l21.65063509461097,12.5l3.552713678800501e-15,24.999999999999993l-21.650635094610962,12.500000000000007l-21.65063509461097,-12.499999999999986l-2.1316282072803006e-14,-25l21.65063509461095,-12.500000000000016Z"></path></g><g transform="translate(389.7114317029975,200)"><path transform="scale(1.02)" fill="#e140c6" fill-opacity="1" d="M0,-25l21.65063509461097,12.5l3.552713678800501e-15,24.999999999999993l-21.650635094610962,12.500000000000007l-21.65063509461097,-12.499999999999986l-2.1316282072803006e-14,-25l21.65063509461095,-12.500000000000016Z"></path></g><g transform="translate(433.01270189221947,200)"><path transform="scale(1.02)" fill="#e140c6" fill-opacity="1" d="M0,-25l21.65063509461097,12.5l3.552713678800501e-15,24.999999999999993l-21.650635094610962,12.500000000000007l-21.65063509461097,-12.499999999999986l-2.1316282072803006e-14,-25l21.65063509461095,-12.500000000000016Z"></path></g><g transform="translate(476.3139720814414,200)"><path transform="scale(1.02)" fill="#e140c6" fill-opacity="1" d="M0,-25l21.65063509461097,12.5l3.552713678800501e-15,24.999999999999993l-21.650635094610962,12.500000000000007l-21.65063509461097,-12.499999999999986l-2.1316282072803006e-14,-25l21.65063509461095,-12.500000000000016Z"></path></g><g transform="translate(519.6152422706633,200)"><path transform="scale(1.02)" fill="#e140c6" fill-opacity="1" d="M0,-25l21.65063509461097,12.5l3.552713678800501e-15,24.999999999999993l-21.650635094610962,12.500000000000007l-21.65063509461097,-12.499999999999986l-2.1316282072803006e-14,-25l21.65063509461095,-12.500000000000016Z"></path></g><g transform="translate(-21.65063509461097,237.5)"><path transform="scale(1.02)" fill="#e140c6" fill-opacity="1" d="M0,-25l21.65063509461097,12.5l3.552713678800501e-15,24.999999999999993l-21.650635094610962,12.500000000000007l-21.65063509461097,-12.499999999999986l-2.1316282072803006e-14,-25l21.65063509461095,-12.500000000000016Z"></path></g><g transform="translate(21.65063509461097,237.5)"><path transform="scale(1.02)" fill="#e140c6" fill-opacity="1" d="M0,-25l21.65063509461097,12.5l3.552713678800501e-15,24.999999999999993l-21.650635094610962,12.500000000000007l-21.65063509461097,-12.499999999999986l-2.1316282072803006e-14,-25l21.65063509461095,-12.500000000000016Z"></path></g><g transform="translate(64.9519052838329,237.5)"><path transform="scale(1.02)" fill="#e140c6" fill-opacity="1" d="M0,-25l21.65063509461097,12.5l3.552713678800501e-15,24.999999999999993l-21.650635094610962,12.500000000000007l-21.65063509461097,-12.499999999999986l-2.1316282072803006e-14,-25l21.65063509461095,-12.500000000000016Z"></path></g><g transform="translate(108.25317547305484,237.5)"><path transform="scale(1.02)" fill="#e140c6" fill-opacity="1" d="M0,-25l21.65063509461097,12.5l3.552713678800501e-15,24.999999999999993l-21.650635094610962,12.500000000000007l-21.65063509461097,-12.499999999999986l-2.1316282072803006e-14,-25l21.65063509461095,-12.500000000000016Z"></path></g><g transform="translate(151.55444566227678,237.5)"><path transform="scale(1.02)" fill="#e140c6" fill-opacity="1" d="M0,-25l21.65063509461097,12.5l3.552713678800501e-15,24.999999999999993l-21.650635094610962,12.500000000000007l-21.65063509461097,-12.499999999999986l-2.1316282072803006e-14,-25l21.65063509461095,-12.500000000000016Z"></path></g><g transform="translate(194.8557158514987,237.5)"><path transform="scale(1.02)" fill="#e140c6" fill-opacity="1" d="M0,-25l21.65063509461097,12.5l3.552713678800501e-15,24.999999999999993l-21.650635094610962,12.500000000000007l-21.65063509461097,-12.499999999999986l-2.1316282072803006e-14,-25l21.65063509461095,-12.500000000000016Z"></path></g><g transform="translate(238.15698604072065,237.5)"><path transform="scale(1.02)" fill="#e140c6" fill-opacity="1" d="M0,-25l21.65063509461097,12.5l3.552713678800501e-15,24.999999999999993l-21.650635094610962,12.500000000000007l-21.65063509461097,-12.499999999999986l-2.1316282072803006e-14,-25l21.65063509461095,-12.500000000000016Z"></path></g><g transform="translate(281.4582562299426,237.5)"><path transform="scale(1.02)" fill="#e140c6" fill-opacity="1" d="M0,-25l21.65063509461097,12.5l3.552713678800501e-15,24.999999999999993l-21.650635094610962,12.500000000000007l-21.65063509461097,-12.499999999999986l-2.1316282072803006e-14,-25l21.65063509461095,-12.500000000000016Z"></path></g><g transform="translate(324.75952641916456,237.5)"><path transform="scale(1.02)" fill="#e140c6" fill-opacity="1" d="M0,-25l21.65063509461097,12.5l3.552713678800501e-15,24.999999999999993l-21.650635094610962,12.500000000000007l-21.65063509461097,-12.499999999999986l-2.1316282072803006e-14,-25l21.65063509461095,-12.500000000000016Z"></path></g><g transform="translate(368.0607966083865,237.5)"><path transform="scale(1.02)" fill="#e140c6" fill-opacity="1" d="M0,-25l21.65063509461097,12.5l3.552713678800501e-15,24.999999999999993l-21.650635094610962,12.500000000000007l-21.65063509461097,-12.499999999999986l-2.1316282072803006e-14,-25l21.65063509461095,-12.500000000000016Z"></path></g><g transform="translate(411.36206679760846,237.5)"><path transform="scale(1.02)" fill="#e140c6" fill-opacity="1" d="M0,-25l21.65063509461097,12.5l3.552713678800501e-15,24.999999999999993l-21.650635094610962,12.500000000000007l-21.65063509461097,-12.499999999999986l-2.1316282072803006e-14,-25l21.65063509461095,-12.500000000000016Z"></path></g><g transform="translate(454.6633369868304,237.5)"><path transform="scale(1.02)" fill="#e140c6" fill-opacity="1" d="M0,-25l21.65063509461097,12.5l3.552713678800501e-15,24.999999999999993l-21.650635094610962,12.500000000000007l-21.65063509461097,-12.499999999999986l-2.1316282072803006e-14,-25l21.65063509461095,-12.500000000000016Z"></path></g><g transform="translate(497.96460717605237,237.5)"><path transform="scale(1.02)" fill="#e140c6" fill-opacity="1" d="M0,-25l21.65063509461097,12.5l3.552713678800501e-15,24.999999999999993l-21.650635094610962,12.500000000000007l-21.65063509461097,-12.499999999999986l-2.1316282072803006e-14,-25l21.65063509461095,-12.500000000000016Z"></path></g><g transform="translate(541.2658773652743,237.5)"><path transform="scale(1.02)" fill="#e140c6" fill-opacity="1" d="M0,-25l21.65063509461097,12.5l3.552713678800501e-15,24.999999999999993l-21.650635094610962,12.500000000000007l-21.65063509461097,-12.499999999999986l-2.1316282072803006e-14,-25l21.65063509461095,-12.500000000000016Z"></path></g><g transform="translate(0,275)"><path transform="scale(1.02)" fill="#e140c6" fill-opacity="1" d="M0,-25l21.65063509461097,12.5l3.552713678800501e-15,24.999999999999993l-21.650635094610962,12.500000000000007l-21.65063509461097,-12.499999999999986l-2.1316282072803006e-14,-25l21.65063509461095,-12.500000000000016Z"></path></g><g transform="translate(43.30127018922194,275)"><path transform="scale(1.02)" fill="#e140c6" fill-opacity="1" d="M0,-25l21.65063509461097,12.5l3.552713678800501e-15,24.999999999999993l-21.650635094610962,12.500000000000007l-21.65063509461097,-12.499999999999986l-2.1316282072803006e-14,-25l21.65063509461095,-12.500000000000016Z"></path></g><g transform="translate(86.60254037844388,275)"><path transform="scale(1.02)" fill="#e140c6" fill-opacity="1" d="M0,-25l21.65063509461097,12.5l3.552713678800501e-15,24.999999999999993l-21.650635094610962,12.500000000000007l-21.65063509461097,-12.499999999999986l-2.1316282072803006e-14,-25l21.65063509461095,-12.500000000000016Z"></path></g><g transform="translate(129.9038105676658,275)"><path transform="scale(1.02)" fill="#e140c6" fill-opacity="1" d="M0,-25l21.65063509461097,12.5l3.552713678800501e-15,24.999999999999993l-21.650635094610962,12.500000000000007l-21.65063509461097,-12.499999999999986l-2.1316282072803006e-14,-25l21.65063509461095,-12.500000000000016Z"></path></g><g transform="translate(173.20508075688775,275)"><path transform="scale(1.02)" fill="#e140c6" fill-opacity="1" d="M0,-25l21.65063509461097,12.5l3.552713678800501e-15,24.999999999999993l-21.650635094610962,12.500000000000007l-21.65063509461097,-12.499999999999986l-2.1316282072803006e-14,-25l21.65063509461095,-12.500000000000016Z"></path></g><g transform="translate(216.5063509461097,275)"><path transform="scale(1.02)" fill="#e140c6" fill-opacity="1" d="M0,-25l21.65063509461097,12.5l3.552713678800501e-15,24.999999999999993l-21.650635094610962,12.500000000000007l-21.65063509461097,-12.499999999999986l-2.1316282072803006e-14,-25l21.65063509461095,-12.500000000000016Z"></path></g><g transform="translate(259.80762113533166,275)"><path transform="scale(1.02)" fill="#e140c6" fill-opacity="1" d="M0,-25l21.65063509461097,12.5l3.552713678800501e-15,24.999999999999993l-21.650635094610962,12.500000000000007l-21.65063509461097,-12.499999999999986l-2.1316282072803006e-14,-25l21.65063509461095,-12.500000000000016Z"></path></g><g transform="translate(303.1088913245536,275)"><path transform="scale(1.02)" fill="#e140c6" fill-opacity="1" d="M0,-25l21.65063509461097,12.5l3.552713678800501e-15,24.999999999999993l-21.650635094610962,12.500000000000007l-21.65063509461097,-12.499999999999986l-2.1316282072803006e-14,-25l21.65063509461095,-12.500000000000016Z"></path></g><g transform="translate(346.41016151377556,275)"><path transform="scale(1.02)" fill="#e140c6" fill-opacity="1" d="M0,-25l21.65063509461097,12.5l3.552713678800501e-15,24.999999999999993l-21.650635094610962,12.500000000000007l-21.65063509461097,-12.499999999999986l-2.1316282072803006e-14,-25l21.65063509461095,-12.500000000000016Z"></path></g><g transform="translate(389.7114317029975,275)"><path transform="scale(1.02)" fill="#e140c6" fill-opacity="1" d="M0,-25l21.65063509461097,12.5l3.552713678800501e-15,24.999999999999993l-21.650635094610962,12.500000000000007l-21.65063509461097,-12.499999999999986l-2.1316282072803006e-14,-25l21.65063509461095,-12.500000000000016Z"></path></g><g transform="translate(433.01270189221947,275)"><path transform="scale(1.02)" fill="#e140c6" fill-opacity="1" d="M0,-25l21.65063509461097,12.5l3.552713678800501e-15,24.999999999999993l-21.650635094610962,12.500000000000007l-21.65063509461097,-12.499999999999986l-2.1316282072803006e-14,-25l21.65063509461095,-12.500000000000016Z"></path></g><g transform="translate(476.3139720814414,275)"><path transform="scale(1.02)" fill="#e140c6" fill-opacity="1" d="M0,-25l21.65063509461097,12.5l3.552713678800501e-15,24.999999999999993l-21.650635094610962,12.500000000000007l-21.65063509461097,-12.499999999999986l-2.1316282072803006e-14,-25l21.65063509461095,-12.500000000000016Z"></path></g><g transform="translate(519.6152422706633,275)"><path transform="scale(1.02)" fill="#e140c6" fill-opacity="1" d="M0,-25l21.65063509461097,12.5l3.552713678800501e-15,24.999999999999993l-21.650635094610962,12.500000000000007l-21.65063509461097,-12.499999999999986l-2.1316282072803006e-14,-25l21.65063509461095,-12.500000000000016Z"></path></g><g transform="translate(-21.65063509461097,312.5)"><path transform="scale(1.02)" fill="#e140c6" fill-opacity="1" d="M0,-25l21.65063509461097,12.5l3.552713678800501e-15,24.999999999999993l-21.650635094610962,12.500000000000007l-21.65063509461097,-12.499999999999986l-2.1316282072803006e-14,-25l21.65063509461095,-12.500000000000016Z"></path></g><g transform="translate(21.65063509461097,312.5)"><path transform="scale(1.02)" fill="#e140c6" fill-opacity="1" d="M0,-25l21.65063509461097,12.5l3.552713678800501e-15,24.999999999999993l-21.650635094610962,12.500000000000007l-21.65063509461097,-12.499999999999986l-2.1316282072803006e-14,-25l21.65063509461095,-12.500000000000016Z"></path></g><g transform="translate(64.9519052838329,312.5)"><path transform="scale(1.02)" fill="#e140c6" fill-opacity="1" d="M0,-25l21.65063509461097,12.5l3.552713678800501e-15,24.999999999999993l-21.650635094610962,12.500000000000007l-21.65063509461097,-12.499999999999986l-2.1316282072803006e-14,-25l21.65063509461095,-12.500000000000016Z"></path></g><g transform="translate(108.25317547305484,312.5)"><path transform="scale(1.02)" fill="#e140c6" fill-opacity="1" d="M0,-25l21.65063509461097,12.5l3.552713678800501e-15,24.999999999999993l-21.650635094610962,12.500000000000007l-21.65063509461097,-12.499999999999986l-2.1316282072803006e-14,-25l21.65063509461095,-12.500000000000016Z"></path></g><g transform="translate(151.55444566227678,312.5)"><path transform="scale(1.02)" fill="#e140c6" fill-opacity="1" d="M0,-25l21.65063509461097,12.5l3.552713678800501e-15,24.999999999999993l-21.650635094610962,12.500000000000007l-21.65063509461097,-12.499999999999986l-2.1316282072803006e-14,-25l21.65063509461095,-12.500000000000016Z"></path></g><g transform="translate(194.8557158514987,312.5)"><path transform="scale(1.02)" fill="#e140c6" fill-opacity="1" d="M0,-25l21.65063509461097,12.5l3.552713678800501e-15,24.999999999999993l-21.650635094610962,12.500000000000007l-21.65063509461097,-12.499999999999986l-2.1316282072803006e-14,-25l21.65063509461095,-12.500000000000016Z"></path></g><g transform="translate(238.15698604072065,312.5)"><path transform="scale(1.02)" fill="#e140c6" fill-opacity="1" d="M0,-25l21.65063509461097,12.5l3.552713678800501e-15,24.999999999999993l-21.650635094610962,12.500000000000007l-21.65063509461097,-12.499999999999986l-2.1316282072803006e-14,-25l21.65063509461095,-12.500000000000016Z"></path></g><g transform="translate(281.4582562299426,312.5)"><path transform="scale(1.02)" fill="#e140c6" fill-opacity="1" d="M0,-25l21.65063509461097,12.5l3.552713678800501e-15,24.999999999999993l-21.650635094610962,12.500000000000007l-21.65063509461097,-12.499999999999986l-2.1316282072803006e-14,-25l21.65063509461095,-12.500000000000016Z"></path></g><g transform="translate(324.75952641916456,312.5)"><path transform="scale(1.02)" fill="#e140c6" fill-opacity="1" d="M0,-25l21.65063509461097,12.5l3.552713678800501e-15,24.999999999999993l-21.650635094610962,12.500000000000007l-21.65063509461097,-12.499999999999986l-2.1316282072803006e-14,-25l21.65063509461095,-12.500000000000016Z"></path></g><g transform="translate(368.0607966083865,312.5)"><path transform="scale(1.02)" fill="#e140c6" fill-opacity="1" d="M0,-25l21.65063509461097,12.5l3.552713678800501e-15,24.999999999999993l-21.650635094610962,12.500000000000007l-21.65063509461097,-12.499999999999986l-2.1316282072803006e-14,-25l21.65063509461095,-12.500000000000016Z"></path></g><g transform="translate(411.36206679760846,312.5)"><path transform="scale(1.02)" fill="#e140c6" fill-opacity="1" d="M0,-25l21.65063509461097,12.5l3.552713678800501e-15,24.999999999999993l-21.650635094610962,12.500000000000007l-21.65063509461097,-12.499999999999986l-2.1316282072803006e-14,-25l21.65063509461095,-12.500000000000016Z"></path></g><g transform="translate(454.6633369868304,312.5)"><path transform="scale(1.02)" fill="#e140c6" fill-opacity="1" d="M0,-25l21.65063509461097,12.5l3.552713678800501e-15,24.999999999999993l-21.650635094610962,12.500000000000007l-21.65063509461097,-12.499999999999986l-2.1316282072803006e-14,-25l21.65063509461095,-12.500000000000016Z"></path></g><g transform="translate(497.96460717605237,312.5)"><path transform="scale(1.02)" fill="#e140c6" fill-opacity="1" d="M0,-25l21.65063509461097,12.5l3.552713678800501e-15,24.999999999999993l-21.650635094610962,12.500000000000007l-21.65063509461097,-12.499999999999986l-2.1316282072803006e-14,-25l21.65063509461095,-12.500000000000016Z"></path></g><g transform="translate(541.2658773652743,312.5)"><path transform="scale(1.02)" fill="#e140c6" fill-opacity="1" d="M0,-25l21.65063509461097,12.5l3.552713678800501e-15,24.999999999999993l-21.650635094610962,12.500000000000007l-21.65063509461097,-12.499999999999986l-2.1316282072803006e-14,-25l21.65063509461095,-12.500000000000016Z"></path></g><g transform="translate(0,350)"><path transform="scale(1.02)" fill="#e140c6" fill-opacity="1" d="M0,-25l21.65063509461097,12.5l3.552713678800501e-15,24.999999999999993l-21.650635094610962,12.500000000000007l-21.65063509461097,-12.499999999999986l-2.1316282072803006e-14,-25l21.65063509461095,-12.500000000000016Z"></path></g><g transform="translate(43.30127018922194,350)"><path transform="scale(1.02)" fill="#e140c6" fill-opacity="1" d="M0,-25l21.65063509461097,12.5l3.552713678800501e-15,24.999999999999993l-21.650635094610962,12.500000000000007l-21.65063509461097,-12.499999999999986l-2.1316282072803006e-14,-25l21.65063509461095,-12.500000000000016Z"></path></g><g transform="translate(86.60254037844388,350)"><path transform="scale(1.02)" fill="#e140c6" fill-opacity="1" d="M0,-25l21.65063509461097,12.5l3.552713678800501e-15,24.999999999999993l-21.650635094610962,12.500000000000007l-21.65063509461097,-12.499999999999986l-2.1316282072803006e-14,-25l21.65063509461095,-12.500000000000016Z"></path></g><g transform="translate(129.9038105676658,350)"><path transform="scale(1.02)" fill="#e140c6" fill-opacity="1" d="M0,-25l21.65063509461097,12.5l3.552713678800501e-15,24.999999999999993l-21.650635094610962,12.500000000000007l-21.65063509461097,-12.499999999999986l-2.1316282072803006e-14,-25l21.65063509461095,-12.500000000000016Z"></path></g><g transform="translate(173.20508075688775,350)"><path transform="scale(1.02)" fill="#e140c6" fill-opacity="1" d="M0,-25l21.65063509461097,12.5l3.552713678800501e-15,24.999999999999993l-21.650635094610962,12.500000000000007l-21.65063509461097,-12.499999999999986l-2.1316282072803006e-14,-25l21.65063509461095,-12.500000000000016Z"></path></g><g transform="translate(216.5063509461097,350)"><path transform="scale(1.02)" fill="#e140c6" fill-opacity="1" d="M0,-25l21.65063509461097,12.5l3.552713678800501e-15,24.999999999999993l-21.650635094610962,12.500000000000007l-21.65063509461097,-12.499999999999986l-2.1316282072803006e-14,-25l21.65063509461095,-12.500000000000016Z"></path></g><g transform="translate(259.80762113533166,350)"><path transform="scale(1.02)" fill="#e140c6" fill-opacity="1" d="M0,-25l21.65063509461097,12.5l3.552713678800501e-15,24.999999999999993l-21.650635094610962,12.500000000000007l-21.65063509461097,-12.499999999999986l-2.1316282072803006e-14,-25l21.65063509461095,-12.500000000000016Z"></path></g><g transform="translate(303.1088913245536,350)"><path transform="scale(1.02)" fill="#e140c6" fill-opacity="1" d="M0,-25l21.65063509461097,12.5l3.552713678800501e-15,24.999999999999993l-21.650635094610962,12.500000000000007l-21.65063509461097,-12.499999999999986l-2.1316282072803006e-14,-25l21.65063509461095,-12.500000000000016Z"></path></g><g transform="translate(346.41016151377556,350)"><path transform="scale(1.02)" fill="#e140c6" fill-opacity="1" d="M0,-25l21.65063509461097,12.5l3.552713678800501e-15,24.999999999999993l-21.650635094610962,12.500000000000007l-21.65063509461097,-12.499999999999986l-2.1316282072803006e-14,-25l21.65063509461095,-12.500000000000016Z"></path></g><g transform="translate(389.7114317029975,350)"><path transform="scale(1.02)" fill="#e140c6" fill-opacity="1" d="M0,-25l21.65063509461097,12.5l3.552713678800501e-15,24.999999999999993l-21.650635094610962,12.500000000000007l-21.65063509461097,-12.499999999999986l-2.1316282072803006e-14,-25l21.65063509461095,-12.500000000000016Z"></path></g><g transform="translate(433.01270189221947,350)"><path transform="scale(1.02)" fill="#e140c6" fill-opacity="1" d="M0,-25l21.65063509461097,12.5l3.552713678800501e-15,24.999999999999993l-21.650635094610962,12.500000000000007l-21.65063509461097,-12.499999999999986l-2.1316282072803006e-14,-25l21.65063509461095,-12.500000000000016Z"></path></g><g transform="translate(476.3139720814414,350)"><path transform="scale(1.02)" fill="#e140c6" fill-opacity="1" d="M0,-25l21.65063509461097,12.5l3.552713678800501e-15,24.999999999999993l-21.650635094610962,12.500000000000007l-21.65063509461097,-12.499999999999986l-2.1316282072803006e-14,-25l21.65063509461095,-12.500000000000016Z"></path></g><g transform="translate(519.6152422706633,350)"><path transform="scale(1.02)" fill="#e140c6" fill-opacity="1" d="M0,-25l21.65063509461097,12.5l3.552713678800501e-15,24.999999999999993l-21.650635094610962,12.500000000000007l-21.65063509461097,-12.499999999999986l-2.1316282072803006e-14,-25l21.65063509461095,-12.500000000000016Z"></path></g><g transform="translate(-21.65063509461097,387.5)"><path transform="scale(1.02)" fill="#e140c6" fill-opacity="1" d="M0,-25l21.65063509461097,12.5l3.552713678800501e-15,24.999999999999993l-21.650635094610962,12.500000000000007l-21.65063509461097,-12.499999999999986l-2.1316282072803006e-14,-25l21.65063509461095,-12.500000000000016Z"></path></g><g transform="translate(21.65063509461097,387.5)"><path transform="scale(1.02)" fill="#e140c6" fill-opacity="1" d="M0,-25l21.65063509461097,12.5l3.552713678800501e-15,24.999999999999993l-21.650635094610962,12.500000000000007l-21.65063509461097,-12.499999999999986l-2.1316282072803006e-14,-25l21.65063509461095,-12.500000000000016Z"></path></g><g transform="translate(64.9519052838329,387.5)"><path transform="scale(1.02)" fill="#e140c6" fill-opacity="1" d="M0,-25l21.65063509461097,12.5l3.552713678800501e-15,24.999999999999993l-21.650635094610962,12.500000000000007l-21.65063509461097,-12.499999999999986l-2.1316282072803006e-14,-25l21.65063509461095,-12.500000000000016Z"></path></g><g transform="translate(108.25317547305484,387.5)"><path transform="scale(1.02)" fill="#e140c6" fill-opacity="1" d="M0,-25l21.65063509461097,12.5l3.552713678800501e-15,24.999999999999993l-21.650635094610962,12.500000000000007l-21.65063509461097,-12.499999999999986l-2.1316282072803006e-14,-25l21.65063509461095,-12.500000000000016Z"></path></g><g transform="translate(151.55444566227678,387.5)"><path transform="scale(1.02)" fill="#e140c6" fill-opacity="1" d="M0,-25l21.65063509461097,12.5l3.552713678800501e-15,24.999999999999993l-21.650635094610962,12.500000000000007l-21.65063509461097,-12.499999999999986l-2.1316282072803006e-14,-25l21.65063509461095,-12.500000000000016Z"></path></g><g transform="translate(194.8557158514987,387.5)"><path transform="scale(1.02)" fill="#e140c6" fill-opacity="1" d="M0,-25l21.65063509461097,12.5l3.552713678800501e-15,24.999999999999993l-21.650635094610962,12.500000000000007l-21.65063509461097,-12.499999999999986l-2.1316282072803006e-14,-25l21.65063509461095,-12.500000000000016Z"></path></g><g transform="translate(238.15698604072065,387.5)"><path transform="scale(1.02)" fill="#e140c6" fill-opacity="1" d="M0,-25l21.65063509461097,12.5l3.552713678800501e-15,24.999999999999993l-21.650635094610962,12.500000000000007l-21.65063509461097,-12.499999999999986l-2.1316282072803006e-14,-25l21.65063509461095,-12.500000000000016Z"></path></g><g transform="translate(281.4582562299426,387.5)"><path transform="scale(1.02)" fill="#e140c6" fill-opacity="1" d="M0,-25l21.65063509461097,12.5l3.552713678800501e-15,24.999999999999993l-21.650635094610962,12.500000000000007l-21.65063509461097,-12.499999999999986l-2.1316282072803006e-14,-25l21.65063509461095,-12.500000000000016Z"></path></g><g transform="translate(324.75952641916456,387.5)"><path transform="scale(1.02)" fill="#e140c6" fill-opacity="1" d="M0,-25l21.65063509461097,12.5l3.552713678800501e-15,24.999999999999993l-21.650635094610962,12.500000000000007l-21.65063509461097,-12.499999999999986l-2.1316282072803006e-14,-25l21.65063509461095,-12.500000000000016Z"></path></g><g transform="translate(368.0607966083865,387.5)"><path transform="scale(1.02)" fill="#e140c6" fill-opacity="1" d="M0,-25l21.65063509461097,12.5l3.552713678800501e-15,24.999999999999993l-21.650635094610962,12.500000000000007l-21.65063509461097,-12.499999999999986l-2.1316282072803006e-14,-25l21.65063509461095,-12.500000000000016Z"></path></g><g transform="translate(411.36206679760846,387.5)"><path transform="scale(1.02)" fill="#e140c6" fill-opacity="1" d="M0,-25l21.65063509461097,12.5l3.552713678800501e-15,24.999999999999993l-21.650635094610962,12.500000000000007l-21.65063509461097,-12.499999999999986l-2.1316282072803006e-14,-25l21.65063509461095,-12.500000000000016Z"></path></g><g transform="translate(454.6633369868304,387.5)"><path transform="scale(1.02)" fill="#e140c6" fill-opacity="1" d="M0,-25l21.65063509461097,12.5l3.552713678800501e-15,24.999999999999993l-21.650635094610962,12.500000000000007l-21.65063509461097,-12.499999999999986l-2.1316282072803006e-14,-25l21.65063509461095,-12.500000000000016Z"></path></g><g transform="translate(497.96460717605237,387.5)"><path transform="scale(1.02)" fill="#e140c6" fill-opacity="1" d="M0,-25l21.65063509461097,12.5l3.552713678800501e-15,24.999999999999993l-21.650635094610962,12.500000000000007l-21.65063509461097,-12.499999999999986l-2.1316282072803006e-14,-25l21.65063509461095,-12.500000000000016Z"></path></g><g transform="translate(541.2658773652743,387.5)"><path transform="scale(1.02)" fill="#e140c6" fill-opacity="1" d="M0,-25l21.65063509461097,12.5l3.552713678800501e-15,24.999999999999993l-21.650635094610962,12.500000000000007l-21.65063509461097,-12.499999999999986l-2.1316282072803006e-14,-25l21.65063509461095,-12.500000000000016Z"></path></g><g transform="translate(0,425)"><path transform="scale(1.02)" fill="#e140c6" fill-opacity="1" d="M0,-25l21.65063509461097,12.5l3.552713678800501e-15,24.999999999999993l-21.650635094610962,12.500000000000007l-21.65063509461097,-12.499999999999986l-2.1316282072803006e-14,-25l21.65063509461095,-12.500000000000016Z"></path></g><g transform="translate(43.30127018922194,425)"><path transform="scale(1.02)" fill="#e140c6" fill-opacity="1" d="M0,-25l21.65063509461097,12.5l3.552713678800501e-15,24.999999999999993l-21.650635094610962,12.500000000000007l-21.65063509461097,-12.499999999999986l-2.1316282072803006e-14,-25l21.65063509461095,-12.500000000000016Z"></path></g><g transform="translate(86.60254037844388,425)"><path transform="scale(1.02)" fill="#e140c6" fill-opacity="1" d="M0,-25l21.65063509461097,12.5l3.552713678800501e-15,24.999999999999993l-21.650635094610962,12.500000000000007l-21.65063509461097,-12.499999999999986l-2.1316282072803006e-14,-25l21.65063509461095,-12.500000000000016Z"></path></g><g transform="translate(129.9038105676658,425)"><path transform="scale(1.02)" fill="#e140c6" fill-opacity="1" d="M0,-25l21.65063509461097,12.5l3.552713678800501e-15,24.999999999999993l-21.650635094610962,12.500000000000007l-21.65063509461097,-12.499999999999986l-2.1316282072803006e-14,-25l21.65063509461095,-12.500000000000016Z"></path></g><g transform="translate(173.20508075688775,425)"><path transform="scale(1.02)" fill="#e140c6" fill-opacity="1" d="M0,-25l21.65063509461097,12.5l3.552713678800501e-15,24.999999999999993l-21.650635094610962,12.500000000000007l-21.65063509461097,-12.499999999999986l-2.1316282072803006e-14,-25l21.65063509461095,-12.500000000000016Z"></path></g><g transform="translate(216.5063509461097,425)"><path transform="scale(1.02)" fill="#e140c6" fill-opacity="1" d="M0,-25l21.65063509461097,12.5l3.552713678800501e-15,24.999999999999993l-21.650635094610962,12.500000000000007l-21.65063509461097,-12.499999999999986l-2.1316282072803006e-14,-25l21.65063509461095,-12.500000000000016Z"></path></g><g transform="translate(259.80762113533166,425)"><path transform="scale(1.02)" fill="#e140c6" fill-opacity="1" d="M0,-25l21.65063509461097,12.5l3.552713678800501e-15,24.999999999999993l-21.650635094610962,12.500000000000007l-21.65063509461097,-12.499999999999986l-2.1316282072803006e-14,-25l21.65063509461095,-12.500000000000016Z"></path></g><g transform="translate(303.1088913245536,425)"><path transform="scale(1.02)" fill="#e140c6" fill-opacity="1" d="M0,-25l21.65063509461097,12.5l3.552713678800501e-15,24.999999999999993l-21.650635094610962,12.500000000000007l-21.65063509461097,-12.499999999999986l-2.1316282072803006e-14,-25l21.65063509461095,-12.500000000000016Z"></path></g><g transform="translate(346.41016151377556,425)"><path transform="scale(1.02)" fill="#e140c6" fill-opacity="1" d="M0,-25l21.65063509461097,12.5l3.552713678800501e-15,24.999999999999993l-21.650635094610962,12.500000000000007l-21.65063509461097,-12.499999999999986l-2.1316282072803006e-14,-25l21.65063509461095,-12.500000000000016Z"></path></g><g transform="translate(389.7114317029975,425)"><path transform="scale(1.02)" fill="#e140c6" fill-opacity="1" d="M0,-25l21.65063509461097,12.5l3.552713678800501e-15,24.999999999999993l-21.650635094610962,12.500000000000007l-21.65063509461097,-12.499999999999986l-2.1316282072803006e-14,-25l21.65063509461095,-12.500000000000016Z"></path></g><g transform="translate(433.01270189221947,425)"><path transform="scale(1.02)" fill="#e140c6" fill-opacity="1" d="M0,-25l21.65063509461097,12.5l3.552713678800501e-15,24.999999999999993l-21.650635094610962,12.500000000000007l-21.65063509461097,-12.499999999999986l-2.1316282072803006e-14,-25l21.65063509461095,-12.500000000000016Z"></path></g><g transform="translate(476.3139720814414,425)"><path transform="scale(1.02)" fill="#e140c6" fill-opacity="1" d="M0,-25l21.65063509461097,12.5l3.552713678800501e-15,24.999999999999993l-21.650635094610962,12.500000000000007l-21.65063509461097,-12.499999999999986l-2.1316282072803006e-14,-25l21.65063509461095,-12.500000000000016Z"></path></g><g transform="translate(519.6152422706633,425)"><path transform="scale(1.02)" fill="#e140c6" fill-opacity="1" d="M0,-25l21.65063509461097,12.5l3.552713678800501e-15,24.999999999999993l-21.650635094610962,12.500000000000007l-21.65063509461097,-12.499999999999986l-2.1316282072803006e-14,-25l21.65063509461095,-12.500000000000016Z"></path></g><g transform="translate(-21.65063509461097,462.5)"><path transform="scale(1.02)" fill="#e140c6" fill-opacity="1" d="M0,-25l21.65063509461097,12.5l3.552713678800501e-15,24.999999999999993l-21.650635094610962,12.500000000000007l-21.65063509461097,-12.499999999999986l-2.1316282072803006e-14,-25l21.65063509461095,-12.500000000000016Z"></path></g><g transform="translate(21.65063509461097,462.5)"><path transform="scale(1.02)" fill="#e140c6" fill-opacity="1" d="M0,-25l21.65063509461097,12.5l3.552713678800501e-15,24.999999999999993l-21.650635094610962,12.500000000000007l-21.65063509461097,-12.499999999999986l-2.1316282072803006e-14,-25l21.65063509461095,-12.500000000000016Z"></path></g><g transform="translate(64.9519052838329,462.5)"><path transform="scale(1.02)" fill="#e140c6" fill-opacity="1" d="M0,-25l21.65063509461097,12.5l3.552713678800501e-15,24.999999999999993l-21.650635094610962,12.500000000000007l-21.65063509461097,-12.499999999999986l-2.1316282072803006e-14,-25l21.65063509461095,-12.500000000000016Z"></path></g><g transform="translate(108.25317547305484,462.5)"><path transform="scale(1.02)" fill="#e140c6" fill-opacity="1" d="M0,-25l21.65063509461097,12.5l3.552713678800501e-15,24.999999999999993l-21.650635094610962,12.500000000000007l-21.65063509461097,-12.499999999999986l-2.1316282072803006e-14,-25l21.65063509461095,-12.500000000000016Z"></path></g><g transform="translate(151.55444566227678,462.5)"><path transform="scale(1.02)" fill="#e140c6" fill-opacity="1" d="M0,-25l21.65063509461097,12.5l3.552713678800501e-15,24.999999999999993l-21.650635094610962,12.500000000000007l-21.65063509461097,-12.499999999999986l-2.1316282072803006e-14,-25l21.65063509461095,-12.500000000000016Z"></path></g><g transform="translate(194.8557158514987,462.5)"><path transform="scale(1.02)" fill="#e140c6" fill-opacity="1" d="M0,-25l21.65063509461097,12.5l3.552713678800501e-15,24.999999999999993l-21.650635094610962,12.500000000000007l-21.65063509461097,-12.499999999999986l-2.1316282072803006e-14,-25l21.65063509461095,-12.500000000000016Z"></path></g><g transform="translate(238.15698604072065,462.5)"><path transform="scale(1.02)" fill="#e140c6" fill-opacity="1" d="M0,-25l21.65063509461097,12.5l3.552713678800501e-15,24.999999999999993l-21.650635094610962,12.500000000000007l-21.65063509461097,-12.499999999999986l-2.1316282072803006e-14,-25l21.65063509461095,-12.500000000000016Z"></path></g><g transform="translate(281.4582562299426,462.5)"><path transform="scale(1.02)" fill="#e140c6" fill-opacity="1" d="M0,-25l21.65063509461097,12.5l3.552713678800501e-15,24.999999999999993l-21.650635094610962,12.500000000000007l-21.65063509461097,-12.499999999999986l-2.1316282072803006e-14,-25l21.65063509461095,-12.500000000000016Z"></path></g><g transform="translate(324.75952641916456,462.5)"><path transform="scale(1.02)" fill="#e140c6" fill-opacity="1" d="M0,-25l21.65063509461097,12.5l3.552713678800501e-15,24.999999999999993l-21.650635094610962,12.500000000000007l-21.65063509461097,-12.499999999999986l-2.1316282072803006e-14,-25l21.65063509461095,-12.500000000000016Z"></path></g><g transform="translate(368.0607966083865,462.5)"><path transform="scale(1.02)" fill="#e140c6" fill-opacity="1" d="M0,-25l21.65063509461097,12.5l3.552713678800501e-15,24.999999999999993l-21.650635094610962,12.500000000000007l-21.65063509461097,-12.499999999999986l-2.1316282072803006e-14,-25l21.65063509461095,-12.500000000000016Z"></path></g><g transform="translate(411.36206679760846,462.5)"><path transform="scale(1.02)" fill="#e140c6" fill-opacity="1" d="M0,-25l21.65063509461097,12.5l3.552713678800501e-15,24.999999999999993l-21.650635094610962,12.500000000000007l-21.65063509461097,-12.499999999999986l-2.1316282072803006e-14,-25l21.65063509461095,-12.500000000000016Z"></path></g><g transform="translate(454.6633369868304,462.5)"><path transform="scale(1.02)" fill="#e140c6" fill-opacity="1" d="M0,-25l21.65063509461097,12.5l3.552713678800501e-15,24.999999999999993l-21.650635094610962,12.500000000000007l-21.65063509461097,-12.499999999999986l-2.1316282072803006e-14,-25l21.65063509461095,-12.500000000000016Z"></path></g><g transform="translate(497.96460717605237,462.5)"><path transform="scale(1.02)" fill="#e140c6" fill-opacity="1" d="M0,-25l21.65063509461097,12.5l3.552713678800501e-15,24.999999999999993l-21.650635094610962,12.500000000000007l-21.65063509461097,-12.499999999999986l-2.1316282072803006e-14,-25l21.65063509461095,-12.500000000000016Z"></path></g><g transform="translate(541.2658773652743,462.5)"><path transform="scale(1.02)" fill="#e140c6" fill-opacity="1" d="M0,-25l21.65063509461097,12.5l3.552713678800501e-15,24.999999999999993l-21.650635094610962,12.500000000000007l-21.65063509461097,-12.499999999999986l-2.1316282072803006e-14,-25l21.65063509461095,-12.500000000000016Z"></path></g><g transform="translate(0,500)"><path transform="scale(1.02)" fill="#e140c6" fill-opacity="1" d="M0,-25l21.65063509461097,12.5l3.552713678800501e-15,24.999999999999993l-21.650635094610962,12.500000000000007l-21.65063509461097,-12.499999999999986l-2.1316282072803006e-14,-25l21.65063509461095,-12.500000000000016Z"></path></g><g transform="translate(43.30127018922194,500)"><path transform="scale(1.02)" fill="#e140c6" fill-opacity="1" d="M0,-25l21.65063509461097,12.5l3.552713678800501e-15,24.999999999999993l-21.650635094610962,12.500000000000007l-21.65063509461097,-12.499999999999986l-2.1316282072803006e-14,-25l21.65063509461095,-12.500000000000016Z"></path></g><g transform="translate(86.60254037844388,500)"><path transform="scale(1.02)" fill="#e140c6" fill-opacity="1" d="M0,-25l21.65063509461097,12.5l3.552713678800501e-15,24.999999999999993l-21.650635094610962,12.500000000000007l-21.65063509461097,-12.499999999999986l-2.1316282072803006e-14,-25l21.65063509461095,-12.500000000000016Z"></path></g><g transform="translate(129.9038105676658,500)"><path transform="scale(1.02)" fill="#e140c6" fill-opacity="1" d="M0,-25l21.65063509461097,12.5l3.552713678800501e-15,24.999999999999993l-21.650635094610962,12.500000000000007l-21.65063509461097,-12.499999999999986l-2.1316282072803006e-14,-25l21.65063509461095,-12.500000000000016Z"></path></g><g transform="translate(173.20508075688775,500)"><path transform="scale(1.02)" fill="#e140c6" fill-opacity="1" d="M0,-25l21.65063509461097,12.5l3.552713678800501e-15,24.999999999999993l-21.650635094610962,12.500000000000007l-21.65063509461097,-12.499999999999986l-2.1316282072803006e-14,-25l21.65063509461095,-12.500000000000016Z"></path></g><g transform="translate(216.5063509461097,500)"><path transform="scale(1.02)" fill="#e140c6" fill-opacity="1" d="M0,-25l21.65063509461097,12.5l3.552713678800501e-15,24.999999999999993l-21.650635094610962,12.500000000000007l-21.65063509461097,-12.499999999999986l-2.1316282072803006e-14,-25l21.65063509461095,-12.500000000000016Z"></path></g><g transform="translate(259.80762113533166,500)"><path transform="scale(1.02)" fill="#e140c6" fill-opacity="1" d="M0,-25l21.65063509461097,12.5l3.552713678800501e-15,24.999999999999993l-21.650635094610962,12.500000000000007l-21.65063509461097,-12.499999999999986l-2.1316282072803006e-14,-25l21.65063509461095,-12.500000000000016Z"></path></g><g transform="translate(303.1088913245536,500)"><path transform="scale(1.02)" fill="#e140c6" fill-opacity="1" d="M0,-25l21.65063509461097,12.5l3.552713678800501e-15,24.999999999999993l-21.650635094610962,12.500000000000007l-21.65063509461097,-12.499999999999986l-2.1316282072803006e-14,-25l21.65063509461095,-12.500000000000016Z"></path></g><g transform="translate(346.41016151377556,500)"><path transform="scale(1.02)" fill="#e140c6" fill-opacity="1" d="M0,-25l21.65063509461097,12.5l3.552713678800501e-15,24.999999999999993l-21.650635094610962,12.500000000000007l-21.65063509461097,-12.499999999999986l-2.1316282072803006e-14,-25l21.65063509461095,-12.500000000000016Z"></path></g><g transform="translate(389.7114317029975,500)"><path transform="scale(1.02)" fill="#e140c6" fill-opacity="1" d="M0,-25l21.65063509461097,12.5l3.552713678800501e-15,24.999999999999993l-21.650635094610962,12.500000000000007l-21.65063509461097,-12.499999999999986l-2.1316282072803006e-14,-25l21.65063509461095,-12.500000000000016Z"></path></g><g transform="translate(433.01270189221947,500)"><path transform="scale(1.02)" fill="#e140c6" fill-opacity="1" d="M0,-25l21.65063509461097,12.5l3.552713678800501e-15,24.999999999999993l-21.650635094610962,12.500000000000007l-21.65063509461097,-12.499999999999986l-2.1316282072803006e-14,-25l21.65063509461095,-12.500000000000016Z"></path></g><g transform="translate(476.3139720814414,500)"><path transform="scale(1.02)" fill="#e140c6" fill-opacity="1" d="M0,-25l21.65063509461097,12.5l3.552713678800501e-15,24.999999999999993l-21.650635094610962,12.500000000000007l-21.65063509461097,-12.499999999999986l-2.1316282072803006e-14,-25l21.65063509461095,-12.500000000000016Z"></path></g><g transform="translate(519.6152422706633,500)"><path transform="scale(1.02)" fill="#e140c6" fill-opacity="1" d="M0,-25l21.65063509461097,12.5l3.552713678800501e-15,24.999999999999993l-21.650635094610962,12.500000000000007l-21.65063509461097,-12.499999999999986l-2.1316282072803006e-14,-25l21.65063509461095,-12.500000000000016Z"></path></g><g transform="translate(-21.65063509461097,537.5)"><path transform="scale(1.02)" fill="#e140c6" fill-opacity="1" d="M0,-25l21.65063509461097,12.5l3.552713678800501e-15,24.999999999999993l-21.650635094610962,12.500000000000007l-21.65063509461097,-12.499999999999986l-2.1316282072803006e-14,-25l21.65063509461095,-12.500000000000016Z"></path></g><g transform="translate(21.65063509461097,537.5)"><path transform="scale(1.02)" fill="#e140c6" fill-opacity="1" d="M0,-25l21.65063509461097,12.5l3.552713678800501e-15,24.999999999999993l-21.650635094610962,12.500000000000007l-21.65063509461097,-12.499999999999986l-2.1316282072803006e-14,-25l21.65063509461095,-12.500000000000016Z"></path></g><g transform="translate(64.9519052838329,537.5)"><path transform="scale(1.02)" fill="#e140c6" fill-opacity="1" d="M0,-25l21.65063509461097,12.5l3.552713678800501e-15,24.999999999999993l-21.650635094610962,12.500000000000007l-21.65063509461097,-12.499999999999986l-2.1316282072803006e-14,-25l21.65063509461095,-12.500000000000016Z"></path></g><g transform="translate(108.25317547305484,537.5)"><path transform="scale(1.02)" fill="#e140c6" fill-opacity="1" d="M0,-25l21.65063509461097,12.5l3.552713678800501e-15,24.999999999999993l-21.650635094610962,12.500000000000007l-21.65063509461097,-12.499999999999986l-2.1316282072803006e-14,-25l21.65063509461095,-12.500000000000016Z"></path></g><g transform="translate(151.55444566227678,537.5)"><path transform="scale(1.02)" fill="#e140c6" fill-opacity="1" d="M0,-25l21.65063509461097,12.5l3.552713678800501e-15,24.999999999999993l-21.650635094610962,12.500000000000007l-21.65063509461097,-12.499999999999986l-2.1316282072803006e-14,-25l21.65063509461095,-12.500000000000016Z"></path></g><g transform="translate(194.8557158514987,537.5)"><path transform="scale(1.02)" fill="#e140c6" fill-opacity="1" d="M0,-25l21.65063509461097,12.5l3.552713678800501e-15,24.999999999999993l-21.650635094610962,12.500000000000007l-21.65063509461097,-12.499999999999986l-2.1316282072803006e-14,-25l21.65063509461095,-12.500000000000016Z"></path></g><g transform="translate(238.15698604072065,537.5)"><path transform="scale(1.02)" fill="#e140c6" fill-opacity="1" d="M0,-25l21.65063509461097,12.5l3.552713678800501e-15,24.999999999999993l-21.650635094610962,12.500000000000007l-21.65063509461097,-12.499999999999986l-2.1316282072803006e-14,-25l21.65063509461095,-12.500000000000016Z"></path></g><g transform="translate(281.4582562299426,537.5)"><path transform="scale(1.02)" fill="#e140c6" fill-opacity="1" d="M0,-25l21.65063509461097,12.5l3.552713678800501e-15,24.999999999999993l-21.650635094610962,12.500000000000007l-21.65063509461097,-12.499999999999986l-2.1316282072803006e-14,-25l21.65063509461095,-12.500000000000016Z"></path></g><g transform="translate(324.75952641916456,537.5)"><path transform="scale(1.02)" fill="#e140c6" fill-opacity="1" d="M0,-25l21.65063509461097,12.5l3.552713678800501e-15,24.999999999999993l-21.650635094610962,12.500000000000007l-21.65063509461097,-12.499999999999986l-2.1316282072803006e-14,-25l21.65063509461095,-12.500000000000016Z"></path></g><g transform="translate(368.0607966083865,537.5)"><path transform="scale(1.02)" fill="#e140c6" fill-opacity="1" d="M0,-25l21.65063509461097,12.5l3.552713678800501e-15,24.999999999999993l-21.650635094610962,12.500000000000007l-21.65063509461097,-12.499999999999986l-2.1316282072803006e-14,-25l21.65063509461095,-12.500000000000016Z"></path></g><g transform="translate(411.36206679760846,537.5)"><path transform="scale(1.02)" fill="#e140c6" fill-opacity="1" d="M0,-25l21.65063509461097,12.5l3.552713678800501e-15,24.999999999999993l-21.650635094610962,12.500000000000007l-21.65063509461097,-12.499999999999986l-2.1316282072803006e-14,-25l21.65063509461095,-12.500000000000016Z"></path></g><g transform="translate(454.6633369868304,537.5)"><path transform="scale(1.02)" fill="#e140c6" fill-opacity="1" d="M0,-25l21.65063509461097,12.5l3.552713678800501e-15,24.999999999999993l-21.650635094610962,12.500000000000007l-21.65063509461097,-12.499999999999986l-2.1316282072803006e-14,-25l21.65063509461095,-12.500000000000016Z"></path></g><g transform="translate(497.96460717605237,537.5)"><path transform="scale(1.02)" fill="#e140c6" fill-opacity="1" d="M0,-25l21.65063509461097,12.5l3.552713678800501e-15,24.999999999999993l-21.650635094610962,12.500000000000007l-21.65063509461097,-12.499999999999986l-2.1316282072803006e-14,-25l21.65063509461095,-12.500000000000016Z"></path></g><g transform="translate(541.2658773652743,537.5)"><path transform="scale(1.02)" fill="#e140c6" fill-opacity="1" d="M0,-25l21.65063509461097,12.5l3.552713678800501e-15,24.999999999999993l-21.650635094610962,12.500000000000007l-21.65063509461097,-12.499999999999986l-2.1316282072803006e-14,-25l21.65063509461095,-12.500000000000016Z"></path></g></svg>