<svg width="500" height="500" style="background: rgb(212, 181, 143);" version="1.1" xmlns="http://www.w3.org/2000/svg"><g transform="translate(0,0)"><path fill="#fff" fill-opacity="0.05" d="M-730.59,-169.71301001921614L-688.9233333333334,-119.71301001921613C-647.2566666666667,-69.71301001921614,-563.9233333333333,30.286989980783858,-480.59,30.286989980783858C-397.25666666666666,30.286989980783858,-313.9233333333333,-69.71301001921614,-230.58999999999997,-69.71301001921614C-147.25666666666666,-69.71301001921614,-63.92333333333333,30.286989980783858,19.410000000000004,30.286989980783858C102.74333333333334,30.286989980783858,186.07666666666668,-69.71301001921614,269.41,-69.71301001921614C352.74333333333334,-69.71301001921614,436.07666666666665,30.286989980783858,519.41,30.286989980783858C602.7433333333333,30.286989980783858,686.0766666666666,-69.71301001921614,769.4099999999999,-69.71301001921614C852.7433333333332,-69.71301001921614,936.0766666666666,30.286989980783858,977.7433333333332,80.28698998078386L1019.41,130.28698998078386L1019.41,500L977.7433333333332,499.99999999999994C936.0766666666666,500,852.7433333333332,500,769.4099999999999,499.99999999999994C686.0766666666666,500,602.7433333333333,500,519.41,499.99999999999994C436.07666666666665,500,352.74333333333334,500,269.41,499.99999999999994C186.07666666666668,500,102.74333333333334,500,19.410000000000004,499.99999999999994C-63.92333333333333,500,-147.25666666666666,500,-230.58999999999997,499.99999999999994C-313.9233333333333,500,-397.25666666666666,500,-480.59,499.99999999999994C-563.9233333333333,500,-647.2566666666667,500,-688.9233333333333,499.99999999999994L-730.59,500Z"></path></g><g transform="translate(0,31.25)"><path fill="#fff" fill-opacity="0.05" d="M-711.18,-157.8101961740963L-669.5133333333333,-107.81019617409629C-627.8466666666666,-57.81019617409629,-544.5133333333333,42.18980382590371,-461.17999999999995,42.18980382590371C-377.84666666666664,42.18980382590371,-294.5133333333333,-57.81019617409629,-211.17999999999998,-57.81019617409629C-127.84666666666666,-57.81019617409629,-44.513333333333335,42.18980382590371,38.81999999999999,42.18980382590371C122.15333333333332,42.18980382590371,205.48666666666665,-57.81019617409629,288.82,-57.81019617409629C372.1533333333333,-57.81019617409629,455.4866666666667,42.18980382590371,538.82,42.18980382590371C622.1533333333334,42.18980382590371,705.4866666666667,-57.81019617409629,788.82,-57.81019617409629C872.1533333333333,-57.81019617409629,955.4866666666667,42.18980382590371,997.1533333333333,92.18980382590371L1038.82,142.1898038259037L1038.82,500L997.1533333333333,499.99999999999994C955.4866666666667,500,872.1533333333333,500,788.8199999999999,499.99999999999994C705.4866666666667,500,622.1533333333334,500,538.82,499.99999999999994C455.4866666666667,500,372.1533333333333,500,288.82000000000005,499.99999999999994C205.48666666666665,500,122.15333333333332,500,38.82,499.99999999999994C-44.513333333333335,500,-127.84666666666666,500,-211.18,499.99999999999994C-294.5133333333333,500,-377.84666666666664,500,-461.17999999999995,499.99999999999994C-544.5133333333333,500,-627.8466666666666,500,-669.5133333333332,499.99999999999994L-711.18,500Z"></path></g><g transform="translate(0,62.5)"><path fill="#fff" fill-opacity="0.05" d="M-691.77,-138.72672398507734L-650.1033333333332,-88.72672398507734C-608.4366666666666,-38.72672398507734,-525.1033333333332,61.27327601492266,-441.7699999999999,61.27327601492266C-358.43666666666667,61.27327601492266,-275.10333333333335,-38.72672398507734,-191.76999999999998,-38.72672398507734C-108.43666666666667,-38.72672398507734,-25.10333333333334,61.27327601492266,58.23,61.27327601492266C141.56333333333333,61.27327601492266,224.89666666666668,-38.72672398507734,308.23,-38.72672398507734C391.56333333333333,-38.72672398507734,474.89666666666665,61.27327601492266,558.23,61.27327601492266C641.5633333333333,61.27327601492266,724.8966666666665,-38.72672398507734,808.2299999999999,-38.72672398507734C891.5633333333333,-38.72672398507734,974.8966666666666,61.27327601492266,1016.5633333333333,111.27327601492266L1058.23,161.27327601492266L1058.23,500L1016.5633333333333,499.99999999999994C974.8966666666666,500,891.5633333333333,500,808.2299999999999,499.99999999999994C724.8966666666665,500,641.5633333333333,500,558.23,499.99999999999994C474.89666666666665,500,391.56333333333333,500,308.22999999999996,499.99999999999994C224.89666666666668,500,141.56333333333333,500,58.23,499.99999999999994C-25.10333333333334,500,-108.43666666666667,500,-191.76999999999998,499.99999999999994C-275.10333333333335,500,-358.43666666666667,500,-441.77,499.99999999999994C-525.1033333333332,500,-608.4366666666666,500,-650.1033333333332,499.99999999999994L-691.77,500Z"></path></g><g transform="translate(0,93.75)"><path fill="#fff" fill-opacity="0.05" d="M-672.36,-130.00784977480228L-630.6933333333333,-80.00784977480228C-589.0266666666666,-30.00784977480228,-505.6933333333333,69.99215022519772,-422.36,69.99215022519772C-339.02666666666664,69.99215022519772,-255.69333333333333,-30.00784977480228,-172.36,-30.00784977480228C-89.02666666666667,-30.00784977480228,-5.693333333333335,69.99215022519772,77.63999999999999,69.99215022519772C160.97333333333333,69.99215022519772,244.30666666666664,-30.00784977480228,327.64,-30.00784977480228C410.9733333333333,-30.00784977480228,494.3066666666666,69.99215022519772,577.64,69.99215022519772C660.9733333333334,69.99215022519772,744.3066666666666,-30.00784977480228,827.64,-30.00784977480228C910.9733333333334,-30.00784977480228,994.3066666666667,69.99215022519772,1035.9733333333334,119.99215022519772L1077.64,169.99215022519772L1077.64,500L1035.9733333333334,499.99999999999994C994.3066666666667,500,910.9733333333334,500,827.64,499.99999999999994C744.3066666666666,500,660.9733333333334,500,577.64,499.99999999999994C494.3066666666666,500,410.9733333333333,500,327.64,499.99999999999994C244.30666666666664,500,160.97333333333333,500,77.63999999999999,499.99999999999994C-5.693333333333335,500,-89.02666666666667,500,-172.36,499.99999999999994C-255.69333333333333,500,-339.02666666666664,500,-422.36,499.99999999999994C-505.6933333333333,500,-589.0266666666666,500,-630.6933333333334,499.99999999999994L-672.36,500Z"></path></g><g transform="translate(0,125)"><path fill="#fff" fill-opacity="0.05" d="M-652.95,-139.6696662830495L-611.2833333333333,-89.66966628304951C-569.6166666666667,-39.6696662830495,-486.2833333333333,60.33033371695049,-402.95,60.3303337169505C-319.6166666666667,60.33033371695049,-236.2833333333333,-39.6696662830495,-152.95,-39.66966628304951C-69.61666666666666,-39.6696662830495,13.716666666666661,60.33033371695049,97.05,60.3303337169505C180.38333333333333,60.33033371695049,263.7166666666667,-39.6696662830495,347.05,-39.66966628304951C430.3833333333333,-39.6696662830495,513.7166666666667,60.33033371695049,597.05,60.3303337169505C680.3833333333332,60.33033371695049,763.7166666666666,-39.6696662830495,847.05,-39.66966628304951C930.3833333333332,-39.6696662830495,1013.7166666666665,60.33033371695049,1055.3833333333332,110.33033371695049L1097.05,160.3303337169505L1097.05,500L1055.3833333333332,499.99999999999994C1013.7166666666665,500,930.3833333333332,500,847.0499999999998,499.99999999999994C763.7166666666666,500,680.3833333333332,500,597.05,499.99999999999994C513.7166666666667,500,430.3833333333333,500,347.05,499.99999999999994C263.7166666666667,500,180.38333333333333,500,97.05,499.99999999999994C13.716666666666661,500,-69.61666666666666,500,-152.95,499.99999999999994C-236.2833333333333,500,-319.6166666666667,500,-402.95,499.99999999999994C-486.2833333333333,500,-569.6166666666667,500,-611.2833333333334,499.99999999999994L-652.95,500Z"></path></g><g transform="translate(0,156.25)"><path fill="#fff" fill-opacity="0.05" d="M-633.54,-158.82914396988625L-591.8733333333332,-108.82914396988626C-550.2066666666666,-58.829143969886246,-466.87333333333333,41.170856030113754,-383.53999999999996,41.170856030113754C-300.20666666666665,41.170856030113754,-216.87333333333333,-58.829143969886246,-133.54,-58.829143969886246C-50.20666666666668,-58.829143969886246,33.12666666666665,41.170856030113754,116.45999999999998,41.170856030113754C199.7933333333333,41.170856030113754,283.12666666666667,-58.829143969886246,366.46,-58.829143969886246C449.7933333333333,-58.829143969886246,533.1266666666667,41.170856030113754,616.46,41.170856030113754C699.7933333333333,41.170856030113754,783.1266666666667,-58.829143969886246,866.46,-58.829143969886246C949.7933333333333,-58.829143969886246,1033.1266666666666,41.170856030113754,1074.7933333333333,91.17085603011375L1116.46,141.17085603011375L1116.46,500L1074.7933333333333,499.99999999999994C1033.1266666666666,500,949.7933333333333,500,866.46,499.99999999999994C783.1266666666667,500,699.7933333333333,500,616.46,499.99999999999994C533.1266666666667,500,449.7933333333333,500,366.4599999999999,499.99999999999994C283.12666666666667,500,199.7933333333333,500,116.45999999999998,499.99999999999994C33.12666666666665,500,-50.20666666666668,500,-133.54000000000002,499.99999999999994C-216.87333333333333,500,-300.20666666666665,500,-383.53999999999996,499.99999999999994C-466.87333333333333,500,-550.2066666666666,500,-591.8733333333333,499.99999999999994L-633.54,500Z"></path></g><g transform="translate(0,187.5)"><path fill="#fff" fill-opacity="0.05" d="M-614.13,-169.87114740849313L-572.4633333333334,-119.87114740849313C-530.7966666666666,-69.87114740849313,-447.4633333333333,30.12885259150687,-364.13,30.12885259150687C-280.7966666666667,30.12885259150687,-197.4633333333333,-69.87114740849313,-114.12999999999998,-69.87114740849313C-30.79666666666666,-69.87114740849313,52.53666666666667,30.12885259150687,135.87,30.12885259150687C219.20333333333332,30.12885259150687,302.5366666666667,-69.87114740849313,385.87,-69.87114740849313C469.2033333333333,-69.87114740849313,552.5366666666666,30.12885259150687,635.8699999999999,30.12885259150687C719.2033333333333,30.12885259150687,802.5366666666666,-69.87114740849313,885.8699999999999,-69.87114740849313C969.2033333333331,-69.87114740849313,1052.5366666666664,30.12885259150687,1094.2033333333331,80.12885259150687L1135.87,130.12885259150687L1135.87,500L1094.2033333333331,499.99999999999994C1052.5366666666664,500,969.2033333333331,500,885.8699999999999,499.99999999999994C802.5366666666666,500,719.2033333333333,500,635.8699999999999,499.99999999999994C552.5366666666666,500,469.2033333333333,500,385.87,499.99999999999994C302.5366666666667,500,219.20333333333332,500,135.86999999999998,499.99999999999994C52.53666666666667,500,-30.79666666666666,500,-114.13,499.99999999999994C-197.4633333333333,500,-280.7966666666667,500,-364.13,499.99999999999994C-447.4633333333333,500,-530.7966666666666,500,-572.4633333333333,499.99999999999994L-614.13,500Z"></path></g><g transform="translate(0,218.75)"><path fill="#fff" fill-opacity="0.05" d="M-594.72,-162.64370956022285L-553.0533333333334,-112.64370956022285C-511.38666666666666,-62.64370956022284,-428.05333333333334,37.356290439777155,-344.72,37.35629043977716C-261.38666666666666,37.356290439777155,-178.05333333333334,-62.64370956022284,-94.72,-62.643709560222845C-11.386666666666663,-62.64370956022284,71.94666666666666,37.356290439777155,155.27999999999997,37.35629043977716C238.6133333333333,37.356290439777155,321.9466666666666,-62.64370956022284,405.2799999999999,-62.643709560222845C488.61333333333323,-62.64370956022284,571.9466666666666,37.356290439777155,655.28,37.35629043977716C738.6133333333332,37.356290439777155,821.9466666666666,-62.64370956022284,905.28,-62.643709560222845C988.6133333333332,-62.64370956022284,1071.9466666666667,37.356290439777155,1113.6133333333332,87.35629043977715L1155.28,137.35629043977715L1155.28,500L1113.6133333333332,499.99999999999994C1071.9466666666667,500,988.6133333333332,500,905.28,499.99999999999994C821.9466666666666,500,738.6133333333332,500,655.28,499.99999999999994C571.9466666666666,500,488.61333333333323,500,405.2799999999999,499.99999999999994C321.9466666666666,500,238.6133333333333,500,155.28,499.99999999999994C71.94666666666666,500,-11.386666666666663,500,-94.72,499.99999999999994C-178.05333333333334,500,-261.38666666666666,500,-344.72,499.99999999999994C-428.05333333333334,500,-511.38666666666666,500,-553.0533333333333,499.99999999999994L-594.72,500Z"></path></g><g transform="translate(0,250)"><path fill="#fff" fill-opacity="0.05" d="M-575.31,-143.7917034517378L-533.6433333333333,-93.79170345173779C-491.97666666666663,-43.79170345173779,-408.6433333333333,56.20829654826221,-325.31,56.20829654826221C-241.97666666666666,56.20829654826221,-158.64333333333332,-43.79170345173779,-75.31,-43.79170345173779C8.023333333333333,-43.79170345173779,91.35666666666665,56.20829654826221,174.69,56.20829654826221C258.0233333333333,56.20829654826221,341.3566666666667,-43.79170345173779,424.69,-43.79170345173779C508.0233333333333,-43.79170345173779,591.3566666666667,56.20829654826221,674.69,56.20829654826221C758.0233333333333,56.20829654826221,841.3566666666667,-43.79170345173779,924.69,-43.79170345173779C1008.0233333333333,-43.79170345173779,1091.3566666666666,56.20829654826221,1133.0233333333333,106.20829654826221L1174.69,156.2082965482622L1174.69,500L1133.0233333333333,499.99999999999994C1091.3566666666666,500,1008.0233333333333,500,924.69,499.99999999999994C841.3566666666667,500,758.0233333333333,500,674.6899999999999,499.99999999999994C591.3566666666667,500,508.0233333333333,500,424.69,499.99999999999994C341.3566666666667,500,258.0233333333333,500,174.69,499.99999999999994C91.35666666666665,500,8.023333333333333,500,-75.31,499.99999999999994C-158.64333333333332,500,-241.97666666666666,500,-325.31,499.99999999999994C-408.6433333333333,500,-491.97666666666663,500,-533.6433333333333,499.99999999999994L-575.31,500Z"></path></g><g transform="translate(0,281.25)"><path fill="#fff" fill-opacity="0.05" d="M-555.9,-130.64757655869857L-514.2333333333332,-80.64757655869857C-472.5666666666666,-30.647576558698574,-389.2333333333333,69.35242344130143,-305.9,69.35242344130143C-222.56666666666663,69.35242344130143,-139.23333333333332,-30.647576558698574,-55.900000000000006,-30.647576558698574C27.433333333333323,-30.647576558698574,110.76666666666665,69.35242344130143,194.09999999999997,69.35242344130143C277.4333333333333,69.35242344130143,360.76666666666665,-30.647576558698574,444.09999999999997,-30.647576558698574C527.4333333333334,-30.647576558698574,610.7666666666667,69.35242344130143,694.1,69.35242344130143C777.4333333333334,69.35242344130143,860.7666666666667,-30.647576558698574,944.0999999999999,-30.647576558698574C1027.4333333333334,-30.647576558698574,1110.7666666666667,69.35242344130143,1152.4333333333334,119.35242344130143L1194.1,169.35242344130143L1194.1,500L1152.4333333333332,499.99999999999994C1110.7666666666667,500,1027.4333333333334,500,944.0999999999999,499.99999999999994C860.7666666666667,500,777.4333333333334,500,694.1,499.99999999999994C610.7666666666667,500,527.4333333333334,500,444.1,499.99999999999994C360.76666666666665,500,277.4333333333333,500,194.09999999999997,499.99999999999994C110.76666666666665,500,27.433333333333323,500,-55.9,499.99999999999994C-139.23333333333332,500,-222.56666666666663,500,-305.9,499.99999999999994C-389.2333333333333,500,-472.5666666666666,500,-514.2333333333333,499.99999999999994L-555.9,500Z"></path></g><g transform="translate(0,312.5)"><path fill="#fff" fill-opacity="0.05" d="M-536.49,-135.29597852931863L-494.82333333333327,-85.29597852931862C-453.15666666666664,-35.295978529318624,-369.8233333333333,64.70402147068137,-286.48999999999995,64.70402147068137C-203.15666666666667,64.70402147068137,-119.82333333333334,-35.295978529318624,-36.49000000000001,-35.29597852931863C46.84333333333332,-35.295978529318624,130.17666666666665,64.70402147068137,213.50999999999996,64.70402147068137C296.8433333333333,64.70402147068137,380.1766666666666,-35.295978529318624,463.51,-35.29597852931863C546.8433333333332,-35.295978529318624,630.1766666666666,64.70402147068137,713.51,64.70402147068137C796.8433333333332,64.70402147068137,880.1766666666665,-35.295978529318624,963.5099999999999,-35.29597852931863C1046.8433333333332,-35.295978529318624,1130.1766666666667,64.70402147068137,1171.8433333333332,114.70402147068135L1213.51,164.70402147068137L1213.51,500L1171.8433333333332,499.99999999999994C1130.1766666666667,500,1046.8433333333332,500,963.5099999999999,499.99999999999994C880.1766666666665,500,796.8433333333332,500,713.5099999999999,499.99999999999994C630.1766666666666,500,546.8433333333332,500,463.50999999999993,499.99999999999994C380.1766666666666,500,296.8433333333333,500,213.50999999999996,499.99999999999994C130.17666666666665,500,46.84333333333332,500,-36.49000000000001,499.99999999999994C-119.82333333333334,500,-203.15666666666667,500,-286.49,499.99999999999994C-369.8233333333333,500,-453.15666666666664,500,-494.82333333333327,499.99999999999994L-536.49,500Z"></path></g><g transform="translate(0,343.75)"><path fill="#fff" fill-opacity="0.05" d="M-517.08,-153.46319002901384L-475.41333333333336,-103.46319002901384C-433.74666666666667,-53.463190029013845,-350.41333333333336,46.53680997098615,-267.08000000000004,46.536809970986155C-183.74666666666667,46.53680997098615,-100.41333333333334,-53.463190029013845,-17.080000000000013,-53.46319002901384C66.25333333333332,-53.463190029013845,149.58666666666664,46.53680997098615,232.91999999999996,46.536809970986155C316.2533333333333,46.53680997098615,399.5866666666666,-53.463190029013845,482.9199999999999,-53.46319002901384C566.2533333333332,-53.463190029013845,649.5866666666666,46.53680997098615,732.9199999999998,46.536809970986155C816.2533333333333,46.53680997098615,899.5866666666666,-53.463190029013845,982.92,-53.46319002901384C1066.2533333333333,-53.463190029013845,1149.5866666666666,46.53680997098615,1191.2533333333333,96.53680997098616L1232.92,146.53680997098616L1232.92,500L1191.2533333333333,499.99999999999994C1149.5866666666666,500,1066.2533333333333,500,982.92,499.99999999999994C899.5866666666666,500,816.2533333333333,500,732.92,499.99999999999994C649.5866666666666,500,566.2533333333332,500,482.9199999999999,499.99999999999994C399.5866666666666,500,316.2533333333333,500,232.91999999999996,499.99999999999994C149.58666666666664,500,66.25333333333332,500,-17.080000000000016,499.99999999999994C-100.41333333333334,500,-183.74666666666667,500,-267.08000000000004,499.99999999999994C-350.41333333333336,500,-433.74666666666667,500,-475.41333333333336,499.99999999999994L-517.08,500Z"></path></g><g transform="translate(0,375)"><path fill="#fff" fill-opacity="0.05" d="M-497.66999999999996,-168.44636058735284L-456.0033333333333,-118.44636058735284C-414.33666666666664,-68.44636058735284,-331.00333333333333,31.553639412647158,-247.66999999999996,31.553639412647158C-164.33666666666664,31.553639412647158,-81.00333333333332,-68.44636058735284,2.3300000000000125,-68.44636058735284C85.66333333333334,-68.44636058735284,168.99666666666667,31.553639412647158,252.33,31.553639412647158C335.6633333333333,31.553639412647158,418.99666666666667,-68.44636058735284,502.33,-68.44636058735284C585.6633333333333,-68.44636058735284,668.9966666666667,31.553639412647158,752.3299999999999,31.553639412647158C835.6633333333334,31.553639412647158,918.9966666666667,-68.44636058735284,1002.3299999999999,-68.44636058735284C1085.6633333333334,-68.44636058735284,1168.9966666666664,31.553639412647158,1210.6633333333332,81.55363941264716L1252.33,131.55363941264716L1252.33,500L1210.6633333333332,499.99999999999994C1168.9966666666664,500,1085.6633333333334,500,1002.3299999999999,499.99999999999994C918.9966666666667,500,835.6633333333334,500,752.33,499.99999999999994C668.9966666666667,500,585.6633333333333,500,502.33,499.99999999999994C418.99666666666667,500,335.6633333333333,500,252.32999999999998,499.99999999999994C168.99666666666667,500,85.66333333333334,500,2.3300000000000125,499.99999999999994C-81.00333333333332,500,-164.33666666666664,500,-247.66999999999996,499.99999999999994C-331.00333333333333,500,-414.33666666666664,500,-456.0033333333333,499.99999999999994L-497.66999999999996,500Z"></path></g><g transform="translate(0,406.25)"><path fill="#fff" fill-opacity="0.05" d="M-478.26,-166.47003229142996L-436.5933333333333,-116.47003229142996C-394.9266666666666,-66.47003229142996,-311.5933333333333,33.529967708570034,-228.26,33.52996770857004C-144.92666666666665,33.529967708570034,-61.59333333333332,-66.47003229142996,21.74000000000001,-66.47003229142996C105.07333333333334,-66.47003229142996,188.40666666666667,33.529967708570034,271.74,33.52996770857004C355.0733333333333,33.529967708570034,438.40666666666664,-66.47003229142996,521.74,-66.47003229142996C605.0733333333333,-66.47003229142996,688.4066666666666,33.529967708570034,771.74,33.52996770857004C855.0733333333333,33.529967708570034,938.4066666666666,-66.47003229142996,1021.74,-66.47003229142996C1105.0733333333333,-66.47003229142996,1188.4066666666665,33.529967708570034,1230.0733333333333,83.52996770857004L1271.74,133.52996770857004L1271.74,500L1230.0733333333333,499.99999999999994C1188.4066666666665,500,1105.0733333333333,500,1021.7399999999999,499.99999999999994C938.4066666666666,500,855.0733333333333,500,771.74,499.99999999999994C688.4066666666666,500,605.0733333333333,500,521.74,499.99999999999994C438.40666666666664,500,355.0733333333333,500,271.74,499.99999999999994C188.40666666666667,500,105.07333333333334,500,21.74000000000001,499.99999999999994C-61.59333333333332,500,-144.92666666666665,500,-228.26,499.99999999999994C-311.5933333333333,500,-394.9266666666666,500,-436.5933333333333,499.99999999999994L-478.26,500Z"></path></g><g transform="translate(0,437.5)"><path fill="#fff" fill-opacity="0.05" d="M-458.85,-149.3512322622118L-417.18333333333334,-99.3512322622118C-375.51666666666665,-49.351232262211795,-292.18333333333334,50.648767737788205,-208.85000000000002,50.648767737788205C-125.5166666666667,50.648767737788205,-42.18333333333336,-49.351232262211795,41.14999999999997,-49.351232262211795C124.48333333333329,-49.351232262211795,207.81666666666663,50.648767737788205,291.15,50.648767737788205C374.4833333333333,50.648767737788205,457.8166666666666,-49.351232262211795,541.15,-49.351232262211795C624.4833333333333,-49.351232262211795,707.8166666666666,50.648767737788205,791.15,50.648767737788205C874.4833333333333,50.648767737788205,957.8166666666666,-49.351232262211795,1041.15,-49.351232262211795C1124.4833333333333,-49.351232262211795,1207.8166666666666,50.648767737788205,1249.4833333333333,100.6487677377882L1291.15,150.6487677377882L1291.15,500L1249.4833333333333,499.99999999999994C1207.8166666666666,500,1124.4833333333333,500,1041.15,499.99999999999994C957.8166666666666,500,874.4833333333333,500,791.1499999999999,499.99999999999994C707.8166666666666,500,624.4833333333333,500,541.15,499.99999999999994C457.8166666666666,500,374.4833333333333,500,291.15,499.99999999999994C207.81666666666663,500,124.48333333333329,500,41.14999999999998,499.99999999999994C-42.18333333333336,500,-125.5166666666667,500,-208.85000000000002,499.99999999999994C-292.18333333333334,500,-375.51666666666665,500,-417.1833333333333,499.99999999999994L-458.85,500Z"></path></g></svg>