<svg width="500" height="500" style="background: rgb(131, 163, 200);" version="1.1" xmlns="http://www.w3.org/2000/svg"><g transform="translate(250,250)"><path fill="none" stroke="#111" stroke-opacity="0.8" stroke-width="1" d="M162.2308803478669,0L167.9098564975732,19.966298649708886L173.1635927366164,39.7331083495496L177.97878372143037,59.102933300303285L182.34323474571858,77.88224408991674L186.2458926241445,95.88341130072021L189.6768736850638,112.92658016812793L192.62748880140373,128.84146756057785L195.0902653963024,143.46906332656926L197.05896636777598,156.66321901016417L198.52860588448164,168.29210806164045L199.49546201258005,178.23954295391937L199.95708614171568,186.40613604508795L199.91230918623998,192.71029258850035L199.3612445459787,197.08902596902584L198.30528781904266,199.49858702017323L196.7471132674053,199.91490113441623L194.69066704420413,198.33380879942334L192.14115719991693,194.77110715692146L189.1050404927175,189.26239216897864L185.59000603642062,181.86270296865288L181.6049558274276,172.64597194841326L177.15998219998366,161.70428608064827L172.26634226684908,149.14696685061782L166.93642941011265,135.09947799450683L161.18374189434525,119.70217195566717L155.02284868158532,103.10888758357109L148.46935253473256,85.48541308625511L141.53985050278808,67.00782959333525L134.25189188801647,47.860751879526646L126.6239338014832,28.235483826093443L118.67529441951761,8.328107049540987L110.42610405948821,-11.662478205400479L101.89725419879237,-31.536540334505002L93.11034456616825,-51.09551194912929L84.08762843932742,-70.14397381928167L74.85195628744276,-88.49160736254773L65.42671790121948,-105.95509617099783L55.8357831571073,-122.35995757738563L46.10344156567358,-137.54228596094003L36.25434075723173,-151.35039037488423L26.31342406051303,-163.64631013368898L16.305867332469525,-174.30719321738852L6.257015199186751,-183.22652372093978L-3.807683130619651,-190.31518608482475L-13.86273831696751,-195.50235547386652L-23.882685441606498,-198.73620540823816L-33.84214849916683,-199.9844255765107L-43.71590466313182,-199.2345446571371L-53.47894816387846,-196.49405492295963L-63.1065536170087,-191.79033738378766L-72.57433864159403,-185.17038821496874L-81.85832560974556,-176.70034920527493L-90.93500237112656,-166.46484691554494L-99.78138179862239,-154.5661471507217L-108.37506000436206,-141.1231331932064L-116.6942730786577,-126.27011800628307L-124.71795220816927,-110.15550227522574L-132.42577703370313,-92.94029169398566L-139.79822711251347,-74.79648831165807L-146.81663135477655,-55.90537201125313L-153.463215309039,-36.45568929099366L-159.72114617688183,-16.64176744454579L-165.57457544280547,3.338427018059076L-171.00867901137016,23.285266309947293L-176.0096947499395,42.999455905210645L-180.56495734195425,62.28402574701217L-184.66293036246606,80.94629823126036L-188.29323549469527,98.79981330317233L-191.4466788136251,115.66619143253867L-194.11527407006767,131.37691585417755L-196.29226291622774,145.77501626670625L-197.97213202154884,158.71663716732053L-199.1506270354939,170.07247515290385L-199.82476336189396,179.72907082698134L-199.9928337175834,187.58994240471617L-199.65441245618024,193.57654968977002L-198.81035664605423,197.62907879167065L-197.4628038997592,199.70703974334793L-195.6151669604272,199.78967104787117L-193.27212505882775,197.8761471124534L-190.4396120629874,193.9855864971796L-187.1248014503809,188.1568608960559L-183.33608814074788,180.44820675889412L-179.08306723554844,170.93664343443209L-174.37650971790134,159.7172036481897L-169.22833517454274,146.90198400356383L-163.65158160888996,132.61902499289155L-157.66037242166243,117.01103170858983L-151.26988064267974,100.23394803612673L-144.49629050442084,82.45539857445175L-137.3567564546673,63.853013851111015L-129.86935971202578,44.61265556529097L-122.05306247435799,24.92655959089423L-113.92765989609057,4.991415293428035L-105.51372995601871,-14.993599649204015L-96.83258134256972,-34.82880928734608L-87.90619948851003,-54.31603441860548L-78.75719089176248,-73.2605726524448L-69.40872586334734,-91.47314373696007L-59.8844798474367,-108.77178071153466L-50.208573462137515,-124.98364799032721L-40.40551141284753,-139.94676821160496L-30.50012043289243,-153.51164059948252L-20.51748640861229,-165.54273466855344L-10.482890848128067,-175.91984434739217L-0.421746854688569,-184.53928899148696L9.640465233254416,-191.31494928595424L19.678262372247897,-196.17912768802233L29.666223350888863,-199.08322481237659L39.57905317028401,-199.9982250013921L49.391647104869804,-198.9149862287952L59.079154281355194,-195.84433144024092L68.61704061477253,-190.81694041819185L77.9811509422446,-183.88304325151816L87.147770197115,-175.11191847243728L96.09368346851258,-164.59120087506074L104.79623479424627,-152.42600593132437L113.23338453813551,-138.7378795525068L121.38376520646574,-123.66358368957928L129.22673556220937,-107.35372990577783L136.74243289996576,-89.9712745737849L143.91182334923377,-71.68989073241136L150.7167500786177,-52.69223287003458L157.13997927888826,-33.168111971826L163.16524380844834,-13.312599064389788L168.77728439066172,6.675923794163009L173.96188825871585,26.59774560559291L178.70592515014982,46.25382180073226L182.99738055988365,65.44776295019763L186.82538616753857,83.98779694685388L190.18024736199118,101.68868505530088L193.05346779344808,118.3735726845873L195.43777089086575,133.8757563925673L197.32711829022406,148.04034946724488L198.71672512697734,160.72582944382333L199.6030721539559,171.805452095769L199.98391465403353,181.16851777230772L199.85828812498278,188.72147743001742L199.22651072212201,194.38886730784043L198.09018245257403,198.1140629069113L196.45218112316925,199.8598447419801L194.31665505225774,199.60877021183634L191.68901256389245,197.36334787328593L188.5759082909842,193.1460123774472L184.98522632211746,186.99890031879139L180.92606023471194,178.9834292364845L176.40869006509507,169.17968397434004L171.44455627380506,157.68561653044415L166.0462307720682,144.6160673909748L160.22738508282023,130.10161812634766L154.0027557169041,114.28728671373183L147.3881068521395,97.33107862132626L140.4001904097716,79.40240813093962L133.05670362941243,60.680405671871775L125.37624424991742,41.352128078016925L117.37826340970481,21.610689650006883L109.08301638579513,1.6533326954920053L100.51151129633563,-18.320543174672032L91.6854558965149,-38.11137330445805L82.62720260261088,-57.521421899723414L73.3596918834074,-76.35675766258L63.90639416233641,-94.42919141396669L54.29125037748288,-111.55815634509054L44.53861134999244,-127.57251211159361L34.67317611442569,-142.31225474525363L24.719929367248803,-155.63011529898588L14.704078191868911,-167.393031252642L4.650988220463794,-177.48347597837187L-5.41388060571825,-185.8006329824727L-15.465038514905471,-192.2614031915656L-25.477030458891768,-196.80123521898727L-35.42450057919082,-199.37477031599747L-45.28225642198525,-199.95629556389505L-55.02533273924609,-198.54000077907625L-64.62905471444365,-195.14003656422935L-74.06910045272289,-189.79037292564777L-83.32156257729149,-182.54445986927178L-92.36300877601961,-173.47469336652304L-101.17054114491178,-162.67169202563323L-109.72185417817046,-150.24339169544172L-117.9952912579759,-136.31396704772908L-125.96989950092869,-121.02259091287384L-133.62548282225205,-104.52204376464643L-140.94265308336034,-86.97718724719246L-147.90287919326798,-68.56331699560343L-154.4885340394818,-49.46441120753866L-160.68293912952464,-29.871292464896992L-166.47040683003155,-9.97972117130558L-171.83628009644698,10.011560345565233L-176.7669695927076,29.902813524940836L-181.24998810689655,49.495299217520866L-185.2739821757195,68.59326334465871L-188.82876083770532,87.00589273285901L-191.905321442311,104.54922158227986L-194.49587244957624,121.04796952119293L-196.59385316257826,136.33729288186458L-198.19395034271594,150.26443170037146L-199.2921116657473,162.69023598470451L-199.88555598449898,173.49055600178283L-199.97278037225522,182.5574826926354L-199.55356392899446,189.80042582239494L-198.62896834083057,195.1470190930188L-197.20133519123834,198.5438431754835L-195.27428003088053,199.95695943744818L-192.85268322105,199.37224903374812L-189.9426775739146,196.79555397178038L-186.5516328208717,192.25261874235332L-182.68813694834444,185.78883309917686L-178.36197444828565,177.46877855697122L-173.5841015384736,167.37558313924112L-168.3666184153579,155.6100908226308L-162.72273860971907,142.28985397616543L-156.66675552275612,127.5479588622051L-150.21400622735302,111.531695933878L-143.3808326261894,94.40108821439908L-136.1845400650755,76.32729246169006L-128.64335350632015,57.49088909268721L-120.77637137312058,38.080077953205695L-112.6035171818766,18.28879795992989L-104.14548908490981,-1.6852105982843015L-95.42370745138378,-21.64238173968716L-86.46026061917233,-41.38331770993137L-77.27784895506511,-60.71078122156723L-67.89972736498183,-79.43166610768796L-58.34964639978456,-97.35892670038764L-48.65179210585117,-114.3134466570539L-38.83072477273024,-130.1258285625208L-28.911316733007375,-144.63808642666848L-18.91868937191124,-157.70522416723043L-8.878149506175832,-169.19668430676109L1.1848747067063592,-178.99765240940036L11.244898166535727,-187.01020422444935L21.276443372667366,-193.1542840753211L31.254104947022977,-197.36850471849792L41.152613974454354,-199.61076068088354L50.94690199750247,-199.8586489475224L60.61216450349078,-198.10969279647003L70.12392374316624,-194.3813665444275L79.45809072179215,-188.71092095588725L88.59102620570582,-181.15501106018485L97.49960058983038,-171.78913009504382L106.16125247452948,-160.706855232232L114.55404580345498,-148.01891262151358L122.65672541767839,-133.85207109429956L130.44877088542162,-118.34787558031215L137.91044847104942,-101.66123289207154L145.0228611117201,-83.95886400701538L151.76799627512113,-65.41763831095358L158.1287715770837,-46.22280644589413L164.0890780435575,-26.566149418362755L169.63382090737304,-6.644062461002982L174.74895783647614,13.344407207866244L179.42153449682024,33.19954912144147L183.63971735985024,52.722984928314446L187.39282367149062,71.71965044682497L190.6713485067413,89.9997446065888L193.4669888413664,107.38062580480296L195.77266457970663,123.68863673027519L197.5825364853672,138.76083942284083L198.8920209693713,152.44664323272326L199.69780169832057,164.60930941439676L199.9978379931718,175.12731732215985L199.79136999735817,183.89557855735498L199.07892060116092,190.82648693634806L197.86229411746433,195.85079378874775L196.1445717122472,198.91829984049713L193.93010360137777,199.99835676905454L191.22449803347897,199.08017341947217L188.03460708676772,196.17292362188218L184.36850931582973,191.3056545331618L180.23548929228588,184.52699641855256L175.64601409116284,175.9046767728965L170.61170678251264,165.52484363603298L165.14531699542076,153.49120486331503L159.26068862894823,139.92399195102396L152.97272479178156,124.95875876940818L146.29735005938096,108.7450272055396L139.25147014421634,91.44479324775145L131.85292908122588,73.23090843779772L124.12046403692327,54.285352862097355L116.07365785661194,34.79741693710477L107.73288946987178,14.96181015510129L99.11928227992321,-5.023284313545921L90.25465066758017,-24.95818972461196L81.16144474526283,-44.64373078697748L71.86269350099286,-63.88322367941646L62.38194647635784,-82.48444117441728L52.74321412614427,-100.26153323490352L42.970907010691406,-117.03688389463707L33.08977397495276,-132.64288586968968L23.124839470840232,-146.92361517032882L13.101340181576088,-159.7363889818023L3.0446611085598208,-170.9531912487857L-7.019728717385082,-180.46195172008376L-17.066340737578393,-188.1676656742788L-27.06973141649981,-193.9933431388332L-37.00456667878649,-197.88077811873217L-46.84568606901669,-199.79113014907853L-56.56816647178944,-199.70531236119L-66.1473852307339,-197.62418218491254L-75.55908250658788,-193.56853278179744L-84.77942271642308,-187.57888529473004L-93.78505489842742,-179.7150839897014L-102.55317184935251,-170.05569833478648L-111.0615678848709,-158.6972379903117L-119.28869507655465,-145.75318855348237L-127.21371782305854,-131.35287769160948L-134.8165656172963,-115.64018299272256L-142.07798387597924,-98.7720944438042L-148.9795827027913,-80.91714589932121L-155.50388346169527,-62.253731211713884L-161.6343630424368,-42.96832184784461L-167.35549570612528,-23.25360379970577L-172.65279240492396,-3.3065524040585057L-177.51283747627576,16.673535694002652L-181.9233226187206,36.48703377031993L-185.8730780632688,55.935979548869874L-189.3521008613902,74.82605309898085L-192.35158021796727,92.96851834084326L-194.86391980506346,110.18210876118776L-196.8827569999965,126.2948384984062L-198.40297899899014,141.1457207020457L-199.4207357655984,154.58637599807204L-199.93344978111296,166.48251498925936L-199.93982257225392,176.71527997862003L-199.43983799961583,185.1824325103555L-198.43476229854343,191.7993748632467L-196.92714087232855,196.49999529047136L-194.9207918458495,199.23732856080625L-192.420796395987,199.98402520156586L-189.43348588329337,198.7326247549394L-185.96642581751294,195.49563031753578L-182.0283966975597,190.30538361840556L-177.62937177447546,183.2137418836532L-172.78049179368256,174.29155971619366L-167.49403678050513,163.62798116732773L-161.78339494040281,151.32954907325583L-155.66302875268866,137.51914055539817L-149.14843834359024,122.33473932023762L-142.2561222314297,105.92805702499928L-135.0035355433134,88.46301748347187L-127.40904580917551,70.11411885671473L-119.4918864451087,51.06469019246565L-111.2721080437986,31.505059732652906L-102.77052759542138,11.630653289976975L-94.0086757675963,-8.359958306784037L-85.00874237792186,-28.267043190215684L-75.79352019717575,-47.891704031973305L-66.38634722551281,-67.03786528237828L-56.81104758783765,-85.51423221681065L-47.09187119804834,-103.1362022155376L-37.253432344940784,-119.72770918081181L-27.320647355326155,-135.12298266317316L-17.318671492208235,-149.16820412099898L-7.2728352478617335,-161.7230437651555L2.7914198068851537,-172.66206263370353L12.848605454664638,-181.87596588812752L22.87325138172938,-189.2726948090499L32.83996968276301,-194.77834658099138L42.72351915699125,-198.33791267635388L52.498869232752966,-199.91582846120983L62.14126335864982,-199.49632853164454L71.62628170071507,-197.08360423037476L80.9299029868443,-192.7017617698541L90.02856534183024,-186.39458138027413L98.89922595896972,-178.22507988886912L107.51941945709275,-168.27488110093688L115.86731477523793,-156.64340027325642L123.92177046088409,-143.4468508280748L131.6623882117046,-128.81708323186632L139.0695645352705,-112.90026763993978L146.12454039584634,-95.85543346898355L152.8094487225697,-77.85288048907985L159.10735965867758,-59.07247731042594L165.00232343719549,-39.70186426506046L170.47941077450108,-19.93457863911311L175.52475067946617,0.031879013084508745L180.12556558241448,19.99801815302393L184.27020369494676,39.76435142454707L187.94816851865878,59.133387788564185L191.1501454280385,77.91160571201674L193.86802526020907,95.91138669636817L196.09492485178154,112.95288982721439L197.82520447079958,128.86584861584157L199.054482099638,143.49127217997585L199.77964453267634,156.68303376676312L199.9988552606426,168.3093307465817L199.71155912166395,178.25400149047533L198.91848370724162,186.4176859739209L197.6216375195884,192.7188185109976L195.82430488499966,197.09444270027825L193.5310376361372,199.50084044008375L190.74764358428973,199.9139687284275L187.48117181080633,198.32969988346792L183.7398948149573,194.76386278434376L179.53328756342145,189.2520847203578L174.87200349447315,181.84943542863087L169.76784753762914,172.62987687674385L164.23374621708726,161.68552428775456L158.2837149146725,149.12572579089144L151.93282237520117,135.07596989339658L145.1971525441444,119.67663168927567L138.09376383425484,103.08157033193974L130.6406459242991,85.45659178378902L122.85667419932341,66.9777922018376L114.76156194781308,47.829798511090885L106.37581043683322,28.203923744598363L97.72065699156317,8.296255580708783L88.81802121073622,-11.694302824516809L79.690449454185,-31.56802013511427L70.36105774308608,-51.126332407620936L60.85347321750284,-70.17382699971662L51.19177429950581,-88.52019499333599L41.40042971338742,-105.98213262501763L31.504236517425166,-122.38517272576053L21.528257304123034,-137.5654278719745L11.497756727967037,-151.37122783118505L1.438137521460347,-163.66463494232283L-8.625123838545498,-174.32282228999802L-18.66654165126245,-183.2393009030296L-28.66068553575609,-190.32498371594664L-38.58224483462082,-195.50907566311068L-48.40609271446074,-198.73978101228823L-58.10734980081891,-199.98482087049382L-67.66144718640983,-199.23175569155848L-77.04418865307424,-196.48810956316504L-86.23181194988716,-191.78129503155216L-95.20104897221341,-185.15833921499723L-103.92918468932655,-176.68541394254183L-112.3941146713236,-166.44717461249348L-120.57440106968164,-154.54591437634187L-128.44932690965038,-141.10054209888233L-135.99894855700575,-126.24539430604231L-143.2041462262756,-110.12889299056641L-150.0466724025318,-92.91206268581347L-156.50919805410973,-74.76692162399652L-162.5753565192293,-55.87476305325987L-168.2297849553665,-36.42434388544647L-173.4581632463993,-16.60999877227615L-178.24725026900254,3.3703015472409135L-182.58491742643906,23.31692822858572L-186.46017936482363,43.0305888700997L-189.86322179406585,62.31431869987274L-192.785426343044,80.97544850661419L-195.2193923860449,98.82752965235483L-197.15895578521315,115.69219693364825L-198.59920450153146,131.40095067888035L-199.53649103479805,145.79684027625555L-199.9684416610989,158.73603231184984L-199.8939624443813,170.089247650026L-199.31324200689838,179.74305309792328L-198.22775105151402,187.60099474864484L-196.64023863707857,193.58456167958414L-194.55472521629974,197.6339703773088L-191.9764924537516,199.70876205159146L-188.9120698498013,199.78820687065024L-185.36921820433045,197.87151107877722L-181.35690996212867,193.97782492697573L-176.8853064897417,188.14605133737174L-171.9657323413137,180.4344572130951L-166.61064657859828,170.92009127712808L-160.833611217781,159.69801425667595L-154.64925688300715,146.88034910449247L-148.07324575361258,132.59516074666962L-141.12223189889076,116.98517654966814L-133.81381910084974,100.20636029072682L-126.1665162717708,82.42635387955876L-118.19969057949027,63.82280240050642L-109.93351839909408,44.58157921014094L-101.38893421526983,24.894928823872746L-92.58757760469616,4.959546146493632L-83.5517384327635,-15.02538876236895L-74.30430040339621,-34.860200752698596L-64.86868310495858,-54.34671459511772L-55.26878269900215,-73.2902350057761L-45.52891140207181,-91.50149190212944L-35.673735913826185,-108.7985314539881L-25.728214947422302,-125.00853403581222L-15.717536020347064,-139.9695409165886L-5.667051665809559,-153.53207243541252L4.397784773795934,-165.5606214951649L14.451483608716813,-175.93500745233L24.4685833557274,-184.5515768758708L34.42371522058365,-191.3242391780481L44.291667345723944,-196.18532676988127L54.047448660537945,-199.08627114721602L63.66635217246731,-199.99808815241724L73.12401753867508,-198.9116675633028L82.39649275980089,-195.83786411595867L91.46029483957068,-190.80738905199033L100.29246925662825,-183.87050327380425L108.87064809798592,-175.09651517368346L117.17310670685191,-164.57308815399196L125.17881870139016,-152.40536475726975L132.8675092250514,-138.7149161572891L140.2197062936453,-123.63852750698898L147.21679010908468,-107.32683127923875L153.84104021493766,-89.94280225510073L160.07568037434777,-71.66012919658858L165.90492105667255,-52.661479473014474L171.31399942523925,-33.13667397951465L176.28921672495412,-13.280790582681611L180.81797297506375,6.707784957708523L184.88879887922414,26.629341117060495L188.49138487205423,46.2848359804094L191.61660722861168,65.47788592662357L194.25655117067274,84.01672775283234L196.40453091129493,101.71613463494617L198.05510658689968,118.39926678137083L199.20409803398923,133.89943828948225L199.84859537561894,148.06178255174643L199.98696639080035,160.74479957188825L199.61886064818015,171.82176973146923L198.7452103935266,181.18201988152035L197.36822818877044,188.73202910934125L195.49140130858314,194.39636313245674L193.1194829086847,198.11842798391106L190.2584799882453,199.86103545864117L186.91563817686296,199.60677467137162L183.0994233846577,197.35818601370545L178.81950036193751,193.13773577235358L174.0867082227473,186.98759166209226L168.91303299428267,178.96920151617525L163.3115772616923,169.16267934360653L157.29652698513848,157.66600488737305L150.88311557316354,144.59404468105146L144.08758530333782,130.07740438470995L136.92714618789634,114.2611238667375L129.41993238854496,97.30322806939562L121.58495629080981,79.37314813683184L113.44206035424295,60.65002858048154L105.01186686042246,41.32093739547642L96.31572568602203,21.578997011269138L87.37566023319809,1.621454750693149L78.21431165425743,-18.35228792394803L68.8548815118263,-38.14266768742291L59.32107301976498,-57.5519532453251L49.63703101361731,-76.38622092348804L39.8272808026384,-94.45729221439265L29.916666058249437,-111.58461392196921L19.930285896229858,-127.5970621197745L9.89343131197627,-142.33465189864515L-0.1684788701723568,-155.65013582127887L-10.22996237135682,-167.4104751131239L-20.265537993303344,-177.4981688904868L-30.249790150710982,-185.8124281451721L-40.157433237455884,-192.2701827560337L-49.96337566362888,-196.806911466107L-59.64278340120962,-199.37728653277463L-69.17114287745305,-199.9556266100947L-78.52432305671483,-198.53615333840554L-87.67863655347143,-195.1330490775583L-96.61089962178515,-189.78031520693776L-105.29849086927095,-182.5314324080397L-113.71940854687786,-173.4588263238281L-121.85232626939013,-162.65314393359702L-129.6766470255444,-150.22234787330956L-137.1725553409606,-136.29063775029482L-144.32106746180438,-120.9972092297596L-151.1040794320647,-104.49486329144489L-157.50441294271184,-86.9484795517139L-163.5058588365986,-68.53336890457317L-169.09321815894728,-49.433521940825486L-174.25234064944206,-29.839770645919593L-178.9701605784543,-9.94788174349335L-183.23472983664087,10.043399265463998L-187.03524819411632,29.934333825250924L-190.36209065255875,49.52618596998448L-193.2068318209926,68.62320795098016L-195.56226725349913,87.034596007986L-197.4224316948288,104.57639674365353L-198.78261418770143,121.07334505407248L-199.63937000353627,136.36061525210656L-199.99052936639373,150.28546788756472L-199.83520294804003,162.7087758103389L-199.1737841202149,173.50641422920506L-198.00794795839658,182.57050087780038L-196.3406469995928,189.810473896923L-194.1761037648972,195.15399666374927L-191.5198000657461,198.5476805275297L-188.3784631209658,199.95761823073744L-184.76004851976148,199.3697226860903L-180.6737200737994,196.78986772463122L-176.1298266094038,192.2438294086193L-171.13987575865443,185.7770284955836L-165.71650481574045,177.45407662665906L-159.87344873239988,167.3581307733641L-153.6255053334819,155.59006239272423L-146.98849784073283,142.2674495919491L-139.97923479971405,127.523402372234L-132.61546751134256,111.50523268900336L-124.91584507584976,94.37298261640187L-116.89986716302938,76.2978253215695L-108.58783462836618,57.46035482499252L-100.00079810013398,38.04878163446123L-91.16050466764814,18.257052280527397L-82.08934280569935,-1.717088458261863L-72.81028567465212,-21.674073279501908L-63.34683293978684,-41.41450629042934L-53.72295125725965,-60.74115522879714L-43.9630135773669,-79.46092206633308L-34.09173741886447,-97.38677230587184L-24.134122270640216,-114.33960369603768L-14.115386279290016,-130.15003569261472L-4.060902382928723,-144.6601017875722L6.003865947011543,-157.7248277972333L16.05342919327138,-169.21368034043888L26.062336346204617,-179.0118710345607L36.005239359711695,-187.02150337877887L45.85695734639431,-193.16255086576527L55.592540349390404,-197.3736565492103L65.18733252935252,-199.61274607846292L74.61703460656943,-199.8574480752985L83.85776540007555,-198.10531765269803L92.88612230790967,-194.3738608424086L101.67924057534461,-188.70035968721825L110.2148512009987,-181.1414997454952L118.4713373341652,-171.77280372970915L126.42778902054637,-160.68787693759592L134.06405615773048,-147.9974720150982L141.3607995263116,-133.82838239528104L148.2995397674083,-118.32217546919668L154.86270418253625,-101.63377814595714L161.03367123733668,-83.92992893405233L166.79681265641113,-65.38751200965815L172.1375330027006,-46.19178991668238L177.04230664113916,-26.534552556171082L181.4987119929867,-6.612200959040846L185.49546299408172,13.376215012304888L189.02243767735183,33.23098542756339L192.07070380718815,52.75373564707441L194.6325415007695,71.74940833907306L196.70146277904118,90.02821235278736L198.2722279978408,107.40751897563152L199.34085911755056,123.71368662843898L199.90464977767772,138.78379576770757L199.96217215084627,152.46727666094372L199.51328055883712,164.6274137715389L198.5591118415258,175.1427117224599L197.1020824777822,183.90810919099556L195.14588246561686,190.8360286062163L192.69546597708145,195.85725116131553L189.75703881158938,198.9216083983239L186.33804267941986,199.99848345540144L182.4471363552288,199.07711696858007L178.0941737492763,196.16671457161837L173.29017895191834,191.29635491990757L168.0473183145589,184.51469915738056L162.3788696377721,175.8895047292269L156.29918854462548,165.50694839805877L149.82367212435938,153.47076522742952L142.96871993850698,139.9012121354238L135.75169248821103,124.93386637368901L128.19086724789622,108.71827093668315L120.30539237668438,91.41644043522498L112.1152382247335,73.20124236258798L103.64114675736027,54.25466992637203L94.90457902500059,34.766023702773566L85.92766081204452,14.930020280866296L76.73312660221139,-5.055153206038637L67.34426200235926,-24.989819224221204L57.78484477054675,-44.6748048744105L48.07908459770482,-63.913431884654784L38.25156179540475,-82.51348167871942L28.327165045023996,-100.28911588635813L18.33102836594371,-117.06273310715179L8.288467462416275,-132.6667433764592L-1.7750843896849495,-146.94524260423566L-11.834140753894292,-159.755570257027L-21.86322657877873,-170.96973471976696L-31.836942714765303,-180.47569209631482L-41.73003023872039,-188.17846567176656L-51.51743442340743,-194.00109485173888L-61.174368189808646,-197.88540409749623L-70.67637488160722,-199.79258417423526L-79.99939020287059,-199.7035799051617L-89.11980316205653,-197.61928055715904L-98.01451586798966,-193.5605109558708L-106.66100202641337,-187.5678234189659L-115.03736398891797,-179.7010925864388L-123.12238820981696,-170.03891719610033L-130.8955989704766,-158.6778347813161L-138.33731023507582,-145.73135713713853L-145.4286755064573,-131.328836191787L-152.1517355557976,-115.61417161486149L-158.48946390523352,-98.7443730749537L-164.42580994824795,-80.88799151153677L-169.9457395986113,-62.223435094749014L-175.03527336494597,-42.93718669879108L-179.68152175446534,-23.22194069866456L-183.87271791624482,-3.2746777060501673L-187.59824744134858,16.705303519838736L-190.84867524433426,36.51837732262806L-193.61576945807278,55.966585665334435L-195.89252228134916,74.85561598521522L-197.67316772646458,92.99674262566803L-198.95319622187913,110.20871244777739L-199.72936603292467,126.31955578178078L-199.99971147165428,141.16830462482554L-199.76354787504258,154.60660091787904L-199.02147333893063,166.5001788331875L-197.77536720331665,176.73020626219878L-196.02838529283645,185.19447210085124L-193.78495192448383,191.8084074697005L-191.05074870281305,196.5059306655494L-187.832700130993,199.24010740249474L-184.13895607417018,199.98361974566973L-179.97887111953634,198.7290390524831L-175.3629808853754,195.48890019428902L-170.30297533910272,190.2955763169377L-164.81166919184403,183.20095539149355L-158.9029694445585,174.27592178680987L-152.59184016788117,163.6096480437061L-145.8942646048791,151.3087039268311L-138.82720469270936,137.49599165593608L-131.40855810568607,122.30951795495626L-123.65711292854459,105.90101518770871L-115.59250007470412,88.4344253568343L-107.23514357000963,70.08426211277286L-98.60620882790494,51.033867138411814L-89.72754904697628,31.473578330360848L-80.62164986666606,11.598828079055735L-71.31157242129213,-8.391809351627465L-61.820894936596936,-28.29860183616316L-52.17365301674539,-47.92265496764824L-42.394278772977124,-67.06789926820441L-32.507538948089646,-85.54304917472665L-22.538472193465722,-103.16351422714175L-12.51232565745091,-119.75324336405977L-2.4544910457312263,-135.14648389879804L7.609559684416571,-149.18943760149503L17.654338833088225,-161.741797340801L27.65440750659765,-172.6781489322051L37.58444004272591,-181.88922418671913L47.41928814918506,-189.28299264030954L57.13404459291145,-194.78558105636924L66.70410627883699,-198.34201151415505L76.10523655843087,-199.91675070878458L85.3136266102018,-199.49406497455507L94.3059557366952,-197.07817748446212L103.05945042530074,-192.69322605527506L111.55194202328526,-186.3830219797724L119.76192288098233,-178.2106122956931L127.66860082097928,-168.25764986491023L135.25195179530456,-156.62357755654259L142.4927705973193,-143.42463468505636L149.3727194998367,-128.79269563032594L155.87437469631155,-112.87395224331813L161.98127042748155,-95.82745320186793L167.6779406817047,-77.82351491025106L172.94995836339285,-59.042019819709246L177.7839718303345,-39.670619171874336L182.1677387073767,-19.90285812204368L186.09015689084444,0.06375802535907416L189.5412926651535,20.029737148256327L192.5124058604362,39.795593489259964L194.99597198744664,59.16384077443807L196.9857012936933,77.94096535463028L198.47655469254977,95.93935965521551L199.4647565249847,112.97919661653036L199.94780412160313,128.89022639703757L199.92447414077915,143.51347738773154L199.39482566682904,156.70284454254917L198.36020006037535,168.32654915532447L196.8232175612874,178.26845549816937L194.7877706527961,186.429231166479L192.25901420358764,192.7273395371285L189.2433524128505,197.09985442399403L185.7484225913243,199.50308879131876L181.78307581944125,199.91303124326723L177.35735453152947,198.32558592859183L172.48246708286032,194.75661346344185L167.17075936393928,189.24177246345027L161.43568353393547,181.8361632683996L155.29176395243587,172.61377741910354L148.75456039578972,161.66675838695065L141.8406286512145,149.10448094235906L134.5674785884658,135.05245836043957L126.95352981522517,119.65108838228502L119.01806502855375,103.05425046133672L110.78118118051525,85.42776831014778L102.26373858166042,66.94775310864937L93.48730807128304,47.79884392745629L84.47411638820397,28.172362946532147L75.24698988048098,8.264403901092612L65.82929669655374,-11.726127146518293L56.244887604279214,-31.599499133684063L46.51803558769551,-51.15715156715357L36.673374374497854,-70.20367839725961L26.73583604992625,-88.54878037511003L16.730587915040243,-106.0091663863713L6.682968749298966,-122.41038476472306L-3.3815753611282355,-137.58856628791273L-13.437555466832999,-151.3920614416305L-23.459504307157175,-163.6829555927636L-33.42204080728967,-174.338446933624L-43.299934357070654,-183.25207342959715L-53.06816870874501,-190.33477651152174L-62.7020053318331,-195.51579088509774L-72.17704606466155,-198.7433515669992L-81.46929490390683,-199.98521108350505L-90.55521877564071,-199.22896166414108L-99.41180713399015,-196.482159211239L-108.01663023646893,-191.77224780677082L-116.3478959483919,-185.14628551074694L-124.38450493252613,-176.67047419079964L-132.10610408419248,-166.42949808055388L-139.49313807648835,-154.52567767544642L-146.52689888511986,-141.07794741964662L-153.18957316737547,-126.22066739831143L-159.46428737529808,-110.1022809078878L-165.33515048876052,-92.88383131704423L-170.78729426024998,-74.73735303675014L-175.80691086943634,-55.84415267566843L-180.38128789214815,-36.3929975544711L-184.49884049520696,-16.578229678000007L-188.14914077558464,3.402175990796706L-191.32294416957518,23.348589554812722L-194.01221286510705,43.061720741719256L-196.21013615788954,62.344610069525984L-197.91114769985958,81.00459672464143L-199.11093959622605,98.85524349064903L-199.80647331542477,115.71819949539002L-199.99598738434952,131.42498216510856L-199.67900184936633,145.81866058157448L-198.8563194918207,158.75542342340594L-197.53002379495567,170.10601582572627L-195.7034736673866,179.75703080217127L-193.38129493650166,187.61204232623555L-190.56936863333073,193.59256875103665L-187.27481609854385,197.6388569417031L-183.50598094730714,199.71047928587697L-179.27240793867645,199.78673761745304L-174.58481880302136,197.8668700178221L-169.45508508872572,193.9700584284182L-163.8961980969057,188.1352369985009L-157.92223598030978,180.42070308303585L-151.54832808970968,170.90353477729337L-144.79061665807745,159.67882080774865L-137.66621591959478,146.8587104736611L-130.19316876701757,132.57129313163287L-122.39040105716997,116.95931841852858L-114.27767368029184,100.1787699994078L-105.8755325146067,82.39730709047696L-97.20525639289927,63.79258932836712L-88.28880321281856,44.550501722316596L-79.1487543274343,24.86329742434864L-69.80825735686378,4.927676873556313L-60.290967565778764,-15.05717749378631L-50.620987955310746,-34.891591332364726L-40.822808221009645,-54.377393390853854L-30.92124273150037,-73.31989549703991L-20.941367684881016,-91.52983774253933L-10.908457602025779,-108.82527943222186L-0.8479213176319796,-125.03341690523351L9.214762368901496,-139.992310065395L19.254109219779306,-153.55250037058502L29.244694098873385,-165.5785041154123L39.1612153621373,-175.9501660873251L48.97855893524123,-184.56386007139253L58.67186191620718,-191.3335242092081L68.21657554190904,-196.19152086730156L77.58852735901614,-199.0893124239129L86.76398244191834,-199.99794622213338L95.71970350257811,-198.9083438441041L104.43300974009897,-195.83139181606532L112.8818342809629,-190.79783283798594L121.04478006445805,-183.85795862453148L128.90117403179332,-175.08110742628946L136.43111948161376,-164.5549712516481L143.61554645937935,-152.3847197110863L150.436260052952,-138.69194923777087L156.87598647209654,-123.61346818314323L162.91841679520638,-107.2999299258696L168.54824827243166,-89.9143276512567L173.7512230806517,-71.63036584011239L178.51416443210186,-52.63072473803291L182.8250099452334,-33.10523514531002L186.67284219328576,-13.248981763551848L190.04791635319893,6.739645950830066L192.94168488485673,26.660935951960994L195.346819178151,46.31584898413968L197.25722811303962,65.50800723946614L198.66807348560891,84.0456564242173L199.57578226106116,101.74358163031295L199.9780556225994,118.42495787000813L199.87387479329152,133.923116784442L199.26350361617554,148.08321187447277L198.1484878860622,160.76376561594515L196.5316514347339,171.83808300173098L194.41708897945463,181.19551738748032L191.81015575289683,188.74257599359117L188.7174539407541,194.4038540180855L185.14681596138323,198.1227880273579L181.10728462982243,199.86222109747547L176.60909025641953,199.60477405953995L171.66362473807294,197.35301913988758L166.2834127076987,193.12945426025036L160.48207981497725,186.97627825463917L154.27431821874268,178.95496924883219L147.67584937836358,169.1456704149943L140.70338423838277,157.64638923851518L133.37458090723467,144.57201829745983L125.70799993722201,130.0531873382234L117.72305731901436,114.23495811673301L109.4399753096993,97.2753750453029L100.87973121892733,79.34388612610518L92.06400428286052,60.61964994817196L83.01512076043625,41.28974566310439L73.7559973910386,21.54730382427911L64.31008335672192,1.5895767646994092L54.70130089602448,-18.384032206953478L44.95398471973031,-38.17396110130405L35.09282038201842,-57.58248312871833L25.142781763097254,-76.41568224366954L15.12906782163246,-94.4853906149611L5.077038777151543,-111.61106866384023L-4.987848115944215,-127.62160888612289L-15.04010304012843,-142.35704543577162L-25.054268168951317,-155.67015238900274L-35.00498214022973,-167.42791472024402L-44.8670442849369,-177.51285729294415L-54.61547844912007,-185.8242185869739L-64.2255962472452,-192.27895743553375L-73.67305958672002,-196.81258271299535L-82.93394230531653,-199.37979768401553L-91.98479076533826,-199.95495257606422L-100.80268325110522,-198.53230085356913L-109.36528801931833,-195.1260566331835L-117.65091985528504,-189.77025266651842L-125.6385949917917,-182.51840030927175L-133.30808425151815,-173.44295487410164L-140.6399642784072,-162.63459170906876L-147.61566672827556,-150.2013002345102L-154.21752529404074,-136.26730499015113L-160.4288204465168,-120.97182447249573L-166.23382177743113,-104.46768016336203L-171.61782783745204,-86.91976964715703L-176.5672033683309,-68.50341907233081L-181.06941383485488,-49.402631418165974L-185.1130571691757,-29.80824806881018L-188.68789264709608,-9.916042062935174L-191.78486682320735,10.075237930190841L-194.39613645918342,29.96585336502717L-196.5150883871614,49.55707146414892L-198.13635625791508,68.6531508138051L-199.25583413139535,87.0632970718422L-199.87068687522216,104.60356924807583L-199.9793573447989,121.0987175108684L-199.58157032685534,136.3839341578645L-198.67833323643777,150.30650025648754L-197.27193356558317,162.72731150206675L-195.36593309013338,173.5222680483873L-192.96515884936198,182.5835144244345L-190.07569092126485,189.8205171489771L-186.70484702446424,195.1609692762433L-182.86116398572585,198.5515128351173L-178.55437612003487,199.9582719437462L-173.79539057796202,199.36719127308828L-168.59625972277692,196.78417647768336L-162.97015060724286,192.23503519058795L-156.93131162741983,185.76521917199292L-150.49503643790356,177.43937018781037L-143.67762521989465,167.34067415545448L-136.49634340020208,155.5700300097724L-128.96937792569491,142.24504159317436L-121.11579120398068,127.4988426423008L-112.95547282692755,111.47876661113972L-104.50908919929454,94.34487462069102L-95.79803120005764,76.26835624296712L-86.8443600089635,57.42981909741549L-77.6707512355123,38.01748434901742L-68.30043749187628,18.22530613727332L-58.75714955516108,-1.7489662746151446L-49.06505626807162,-21.70576426865022L-39.248703330123476,-41.44569381871633L-29.33295113446724,-60.771527692788126L-19.342911807727248,-79.49017600613018L-9.303885612313213,-97.4146154370723L0.7587031277237631,-114.3657578300207L10.819370415040702,-130.17423951601484L20.852637118471637,-144.6821134731286L30.83309350015884,-157.74442741995534L40.73546356697021,-169.23067207493966L50.53466908317327,-179.02608511160494L60.20589308230058,-187.03279778149192L69.72464271733007,-193.17081274856994L79.06681129000367,-197.3788033652921L88.2087393022333,-199.61472640452382L97.12727437492151,-199.85624212533887L105.79982988250582,-198.10093747570673L114.20444215468011,-194.3663502019745L122.31982610046353,-188.68979362428038L130.12542911373782,-181.1279838285821L137.6014831237224,-171.75647300017795L144.7290546585795,-160.66889456039758L151.4900927953565,-147.9760276485407L157.86747487482592,-133.80469029611365L163.84504986546628,-118.29647235189553L169.4076792667241,-101.60632081765549L174.54127544801696,-83.90099172870008L179.23283732634138,-65.35738404707413L183.47048329214977,-46.16077221388693L187.24348130010878,-26.502955019820227L190.5422760485263,-6.580339289081784L193.35851317862097,13.408022476895468L195.68506043234316,33.26242088939135L197.51602571516747,52.78448502552931L198.8467720181084,71.77916440840058L199.67392916117234,90.05667781165945L199.99540232850518,107.4344094175808L199.81037737361257,123.73873338343664L199.11932288122733,138.80674858652452L197.92398898059628,152.48790621545925L196.22740291319147,164.64551394602768L194.0338613660724,175.15810167294546L191.34891959031876,183.92063515212217L188.17937733208473,190.84556542755513L184.53326161190793,195.8637035577794L180.41980639589127,198.92491190219192L175.8494292102302,199.99860506042958L170.83370475831885,199.0740554597777L165.38533560725378,196.16050053738888L159.51812001795219,191.2870504464268L153.24691700039347,184.50239720828162L146.5876086824439,175.87432821677328L139.55706008759452,165.48904895508304L132.17307642346472,153.4503216923455L124.45435798924522,139.8784287653818L116.42045281627993,124.90897080380215L108.09170716171562,108.69151190564541L99.48921398061768,91.38808530009857L90.63475950702929,73.17157442757122L81.55076807926854,54.22398561220856L72.26024534920276,34.73462958515015L62.786720019304646,14.898230027308927L53.15418425506272,-5.087021970094722L43.38703292366325,-25.021448088922977L33.51000181278301,-44.705877826798876L23.548104986012362,-63.9436384660568L13.526571433503046,-82.54252008661716L3.4707811783309124,-100.31669598978661L-6.593798999653082,-117.08857934548149L-16.64168005969351,-132.69059751259135L-26.647415252365146,-146.96686630473857L-36.585664564709816,-159.774747473373L-46.431258895058,-170.9862738469584L-56.159263795001124,-180.48942788723974L-65.74504261711436,-188.18926088824293L-75.16431890845047,-194.00884163570103L-84.39323789185747,-197.8900250486272L-93.40842687936039,-199.79403312330447L-102.18705446463048,-199.70184237530722L-110.70688834465061,-197.614373908534L-118.94635162408996,-193.55248421219292L-126.88457745985929,-187.55675677770824L-134.5014619074042,-179.6870966175479L-141.7777148349266,-170.02213173727196L-148.69490877658689,-158.65842754082507L-155.235525600958,-145.70952201822968L-161.383000876552,-131.30479135532113L-167.12176582205285,-115.58815729961411L-172.43728673500874,-98.71664919732717L-177.31610179915054,-80.85883506864701L-181.74585517709207,-62.193137396887266L-185.71532830210035,-42.906050458842884L-189.2144682896555,-23.190277007629845L-192.23441339687355,-3.242802924839218L-194.76751546530699,16.737070921245305L-196.80735929027534,36.54971994712019L-198.34877886768513,55.99719035986577L-199.38787047718952,74.88517696960697L-199.92200256854787,93.02496454774749L-199.9498224261567,110.23531333431593L-199.47125959486866,126.34426985578465L-198.48752605842245,141.19088496096904L-197.0011131700341,154.62682190963093L-195.01578534292682,166.51783844688254L-192.53657051676575,176.74512805562946L-189.56974742415915,185.2065069861516L-186.12282968946005,191.8174352029172L-182.2045468001456,196.51186104804384L-177.82482199896316,199.24288118213212L-172.9947471528345,199.98320920883242L-167.72655466216298,198.72544830096018L-162.0335864816779,195.4821651042985L-155.93026033128342,190.28576418067036L-149.43203318248516,183.18816424478663L-142.55536211284527,174.26027942963424L-135.31766262764046,163.59131076328893L-127.73726455423311,151.28785493613842L-119.83336562089642,137.47283926314168L-111.62598283763086,122.28429348218404L-103.13590180210288,105.87397065981247L-94.38462405910755,88.4058309833634L-85.39431264685629,70.05440358821645L-76.18773596799882,51.003042787752825L-66.78821012753627,31.442096128422147L-57.21953988363969,11.567002573447013L-47.50595836094258,-8.423660183260555L-37.67206567896785,-28.330159763132706L-27.742766651122725,-47.953604685759736L-17.743207712049884,-67.09793155005332L-7.698713233037879,-85.57186395926611L2.365278613165585,-103.19082361769595L12.423280275784025,-119.77877450475923L22.44981937447199,-135.16998170078713L32.419503209363434,-149.21066729156865L42.30708306932567,-161.76054680710553L52.0875181755474,-172.69423084351092L61.73603909854077,-181.90247786408776L71.22821048793277,-189.2932856624974L80.53999295617037,-194.7928105828713L89.6478039594584,-198.3461053127235L98.52857752169068,-199.91766787711686L107.15982265017409,-199.49179634896296L115.51968029515432,-197.07274573142584L123.58697870892948,-192.6846854449807L131.3412870643395,-186.37145784387639L138.76296719682892,-178.19614017475791L145.8332233390601,-168.24041435399747L152.53414972211135,-156.6037508605258L158.84877592270706,-143.40241489807985L164.7611098416509,-128.7683047565759L170.25617820459232,-112.8476339789332L175.320064482576,-95.79947050008593L179.9399441363331,-77.79414735417808L184.10411709504888,-59.01156082892049L187.80203738736935,-39.63937307078661L191.02433984958262,-19.871137099307994L193.76286384335808,0.09563703601233198L196.01067392295786,20.06145563459461L197.7620773995947,39.8268345428975L199.0126387584429,59.19429225714609L199.75919089179496,77.97032301701825L199.99984311991935,95.96733017654823L199.73398597929761,113.00550053541019L198.96229276611953,128.91460090354934L197.68671783112956,143.53567894926883L195.91049163013827,156.72265133702126L193.63811254273196,168.34376328742744L190.87533547991032,178.28290497663605L187.62915730949342,186.44077162246947L183.90779913620793,192.73585566667745L179.72068548134445,197.10526114003642L175.0784204146906,199.50533207382088L169.99276069920998,199.91208867895904L164.47658601646762,198.32146693490014L158.54386634820358,194.74935919439963L152.20962659667373,189.23145539851745L145.48990853335116,181.82288648829555L138.40173017235637,172.59767357590258L130.96304267150896,161.64798837871476L123.19268487013353,149.08323230555985L115.11033557879438,135.02894339623467L106.73646374173376,119.6255420353457L98.0922765982772,103.02692797245744L89.19966597446384,85.39894266605754L80.08115284092554,66.91771231453507L70.75983027743482,47.76788812940247L61.259304988546695,28.140801432698055L51.60363751846434,8.23255201150731L41.817281316548446,-11.757951170599393L31.925020807748115,-31.630977329409284L21.95190862484779,-51.187969426951504L11.923202161436059,-70.23352801114861L1.864299606335974,-88.57736350714663L-8.199324378549978,-106.03619745437504L-18.242183174073475,-122.4355936936288L-28.238842749935184,-137.61170120816968L-38.16398607762398,-151.41289120568624L-47.992477247014925,-163.70127208454812L-57.69942512429108,-174.3540671478701L-67.26024638996186,-183.26484130031952L-76.65072779731426,-190.34456447130262L-85.84708749364466,-195.52250113965545L-94.8260352489628,-198.74691707228052L-103.5648314396298,-199.98559621553443L-112.04134463758028,-199.22616257495588L-120.23410765922655,-196.47620386733269L-128.12237193216225,-191.76319570967274L-135.6861600419304,-185.1342271025251L-142.90631632580155,-176.65552995042881L-149.76455538542498,-166.41181732017478L-156.2435083954909,-154.50543704855082L-162.32676709113287,-141.0553491560746L-167.99892532265886,-126.19593728372014L-173.24561807237237,-110.0756660278603L-178.05355783468912,-92.85559758839658L-182.4105682673862,-74.70778255066378L-186.30561502878913,-55.81354087925791L-189.72883372278054,-36.36165029886945L-192.67155488085908,-16.546460162521456L-195.1263259179989,3.4340503479112985L-197.08693000668103,23.3802502878313L-198.5484018213144,43.0928515192747L-199.5070401131641,62.374899855205676L-199.9604170839458,81.03374288460469L-199.9073845343422,98.88295481734673L-199.34807677187462,115.74419911710636L-198.2839102707632,131.44901031224606L-196.71758008463493,145.84047718211175L-194.653053021171,158.77481050149677L-192.0955575959705,170.12277967958073L-189.05157079108162,179.77100393937164L-185.52880165172567,187.62308513720524L-181.53617176276657,193.60057090392425L-177.08379265435897,197.64373848472883L-172.1829401940046,199.71219144616103L-166.8460260298713,199.78526328831657L-161.0865661576827,197.86222392970566L-154.91914669079802,193.96228700170494L-148.359386920177,188.12441787971866L-141.42389975775157,180.40694436906563L-134.13024966342385,170.88697393534963L-126.49690816220915,159.6596233018965L-118.54320706419408,146.83706811162352L-110.28928950579355,132.54742214838242L-101.75605893626332,116.93345731582964L-92.96512617870424,100.15117716286439L-83.93875469958442,82.36825820794564L-74.69980422543507,63.762374635465655L-65.27167284947494,44.51942310260435L-55.678237774790304,24.831665393130784L-45.943794844158,4.895807475418232L-36.09299700963524,-15.088965842644939L-26.150791897753496,-34.92298102555038L-16.142358628443436,-54.40807080503791L-6.09304404766838,-73.34955412547806L3.9717014646809545,-91.55818125747267L14.026388449131733,-108.85202464555022L24.045552919922855,-125.05829659795842L34.00382085379353,-140.0150756574467L43.87597245093776,-153.5729244044836L53.63700600537331,-165.59638252884358L63.262201222990974,-175.9653202519891L72.72718182690134,-184.57613857774004L82.00797729154768,-191.34280437919767L91.08108354923309,-196.1977099801257L99.92352251531526,-199.0923486423902L108.51290028133434,-199.99779921054426L116.82746382867957,-198.90501507128363L124.84615611916132,-195.82491454072593L132.5486694230018,-190.78827177642097L139.91549674913966,-183.84540930401934L146.9279812476504,-175.06569523064766L153.56836345912046,-164.53685016849283L159.81982629134538,-152.36407079329402L165.6665376094428,-138.66897879453674L171.09369033150375,-123.58840571867316L176.08753992824992,-107.27302584635518L180.63543923172688,-89.88585076298111L184.7258704648723,-71.60060066373617L188.34847441085333,-52.5999686658765L191.4940766482825,-33.073795470003596L194.1547107858929,-13.217172607812328L196.32363863781288,6.771506772721706L197.99536728834636,26.692530109495593L199.16566300305664,46.34686081113028L199.83156195089956,65.53812688796343L199.9913777102732,84.07458296026691L199.6447055399639,101.77102604070348L198.79242340417113,118.45064594984771L197.43668974901985,133.94679187684784L195.58093803619346,148.10463743488248L193.22986804752225,160.78272757550778L190.38943398255387,171.85439190614L187.06682937925925,181.2090102898436L183.27046889603807,188.75311808249913L179.0099670011929,194.411339964537L174.29611362381198,198.12714303714114L169.140846827755,199.863401658453L163.55722257791254,199.6027683763922L157.559381675349,197.3478472519635L151.16251394502828,193.12116784134858L144.38281976683604,186.96496009672012L137.23746904733102,178.94073243481975L129.74455773612178,169.12865718893158L121.92306199698444,157.62676958437004L113.7927901498065,144.54998824075474L105.37433250504242,130.02896698750433L96.68900921775021,114.20878946439001L87.75881629326399,97.24751954975285L78.60636988122896,79.31462209950534L69.25484899910231,60.58926977570771L59.72793683015289,41.258552881696744L50.04976074464753,21.515610089844138L40.24483119611317,1.5576987383139151L30.33797964741165,-18.415776022876926L20.35429568383873,-38.20525354530746L10.319063472543643,-57.61301154912298L0.2576977291188885,-76.44514162237279L-9.804320646388293,-94.51348661496183L-19.841509101108105,-111.63752057003262L-29.828447965166,-127.64615241001829L-39.73984482821836,-142.37943535605908L-49.550598593736126,-155.69016500164545L-59.23586304875179,-167.44535007356106L-68.77110978808824,-177.52754118537092L-78.13219033377753,-185.83600430757912L-87.29539729222823,-192.28772722984263L-96.2375243943792,-196.81824895950797L-104.93592526670254,-199.38230376965697L-113.36857078423381,-199.95427346182095L-121.5141048604392,-198.5284433246645L-129.35189853251742,-195.11905923128302L-136.86210220527443,-189.76018530464836L-144.0256959211881,-182.505363573296L-150.8245375293646,-173.42707901774622L-157.24140863144558,-162.6160353525155L-163.26005818802977,-150.1802487795813L-168.86524367521946,-136.24396876789507L-174.0427696870696,-120.94643664172193L-178.77952388613002,-104.44049438109356L-183.06351021109765,-86.89105753424681L-186.8838792574167,-68.47346749963816L-190.23095575392622,-49.371739640344295L-193.09626306596212,-29.776724734366233L-195.47254466284124,-9.884202130442267L-197.35378249538513,10.107076338941102L-198.73521223692276,29.99737214346175L-199.6133353491766,49.58795569922321L-199.98592794248685,68.68309193237945L-199.8520464079172,87.0919959237022L-199.21202980699084,104.63073909485755L-198.06749901300188,121.12408689093274L-196.42135260607483,136.40724959854376L-194.27775953236534,150.32752880660624L-191.6421485460055,162.74584305941548L-188.52119446051722,173.53811745892702L-184.92280124451764,182.59652333220814L-180.85608200453586,189.83055557830036L-176.33133590562744,195.16793693032642L-171.36002208823183,198.5553400981489L-165.95473064734387,199.95892057645784L-160.12915074747843,199.36465479480674L-153.8980359541944,196.77848023108234L-147.27716686997417,192.22623608848016L-140.28331116907492,185.7534051287052L-132.93418113256664,177.42465924079687L-125.24838879113081,167.32321328595668L-117.24539878916747,155.54999367428962L-108.94547908964655,142.22262998040824L-100.36964964449675,127.47427967303157L-91.5396291605434,111.45229770095642L-82.47778009583912,94.31676422798363L-73.20705202563025,76.23888522663343L-63.75092352144151,57.39928191072582L-54.13334269046558,37.98618609767424L-44.37866652577775,18.19355953097275L-34.51159922109422,-1.7808440465299682L-24.55712960617277,-21.737454706323412L-14.54046786138681,-41.476880294004175L-4.486981671732708,-60.80189861276987L5.577868018108431,-79.51942792633996L15.628591484822078,-97.44245609327533L25.639734780452173,-114.39190905833388L35.585944195761385,-130.19844003210892L45.442030469718055,-144.70412148277836L55.18303258256384,-157.7640230348976L64.78428097079501,-169.2476595098311L74.22146000403123,-179.0402946401711L83.47066956555896,-187.04408743230493L92.50848558051192,-193.1790697235246L101.31201933851825,-197.38394516661293L109.85897546045955,-199.61670165901572L118.1277083626022,-199.8550310976746L126.0972770751113,-198.09655226560622L133.7474982760642,-194.3588346233158L141.05899740670534,-188.67922276733964L148.01325773846753,-181.11446330979072L154.59266726747862,-171.74013790686823L160.780563317836,-160.64990810111536L166.56127474063305,-147.95457952238988L171.92016160191667,-133.780994797399L176.84365225903832,-118.2707662290623L181.31927773148988,-101.57886090786381L185.33570327921925,-83.87205239169053L188.88275710840273,-65.32725442396908L191.95145613201296,-46.1297533382918L194.53402871992847,-26.471356810120163L196.62393438096362,-6.548477451941688L198.21588032697986,13.439829600836942L199.30583487713375,33.293855506130896L199.8910376683048,52.81523306290001L199.97000664584849,71.80891865404753L199.5425418169729,90.08514098247946L198.60972575723096,107.46129712996802L197.17392086884354,123.76377699462955L195.23876339780023,138.82969787870874L192.80915422489247,152.50853189574713L189.89124645398732,164.66360993740042L186.4924298289971,175.17348717323128L182.6213120189916,183.93315644041706L178.28769681884978,190.85509740012023L173.5025593206798,195.8701509779754L168.27801811885317,198.9282103520167L162.62730461908023,199.9987215841359L156.56472952922647,199.0709888931435L150.10564661674124,196.15428151935114L143.2664138245026,191.27774111295767L136.06435184351622,184.49009057157164L128.51770024742376,175.85914723591546L120.64557129990578,165.47114530756227L112.46790155191302,153.42987425857996L104.00540135140513,139.85564184148254L95.27950239336369,124.88407206038177L86.31230344298248,108.66475011310084L77.12651436948438,91.35972784309702L67.74539863223764,73.14190463349985L58.19271436492617,54.193299920390594L48.492654206922644,34.70323458503135L38.66978403422543,14.8664393952326L28.748980745211234,-5.118890604905923L18.755369258639462,-25.05307631791015L8.714258883587796,-44.73694964335454L-1.3489207776033383,-63.973843422853705L-11.408684231062708,-82.57155639737996L-21.439554634612186,-100.34427354449251L-31.416128319150367,-117.11442260896436L-41.31313912466522,-132.71444827747965L-51.105522388012645,-146.9884862712835L-60.768478420418894,-159.79392063036127L-70.27753531388447,-171.00280862993628L-79.60861091749445,-180.50315909250833L-88.73807382664883,-188.20005132343485L-97.64280323073096,-194.01658349052045L-106.30024746771001,-197.89464097200937L-114.68848113730763,-199.79547699624902L-122.78626062815374,-199.70009977167052L-130.5730779182737,-197.60946223916338L-138.02921251264974,-193.544452550969L-145.1357813863342,-187.54568537123308L-151.87478680663932,-179.6730960833863L-158.22916191326863,-170.00534195872768L-164.18281394098057,-158.63901626933486L-169.7206649752987,-145.68768319731006L-174.8286901380616,-131.28074318282032L-179.49395310611703,-115.56214004764291L-183.70463887319553,-98.68892281162539L-187.4500836719804,-80.82967657139918L-190.72080198062935,-62.16283811890051L-193.50851054531532,-42.87491312878426L-195.80614935797277,-23.158612727401934L-197.60789953611518,-3.2109280612419266L-198.90919805943628,16.768837897419488L-199.70674932588338,36.58106164300139L-199.9985334979287,56.027793631691125L-199.7838116179095,74.91473605140698L-199.0631274794714,93.05318410636156L-197.83830625038624,110.26191142012924L-196.11244985022546,126.36898071978229L-193.8899290945951,141.21346170990984L-191.17637262583685,154.64703897281214L-187.97865265821022,166.5354938298928L-184.30486757368044,176.76004535853292L-180.16432141236453,185.21853716594876L-175.5675003095979,191.82645806267143L-170.52604593929252,196.5177864378028L-165.05272603081357,199.24564989964807L-159.16140203409185,199.98279359106422L-152.86699401482736,198.72185250046286L-146.18544286868033,195.47542504773287L-139.1336699501984,190.27594720985326L-131.72953421863397,183.17536844385586L-123.99178700927038,174.24463264506755L-115.94002454475627,163.5729693265439L-107.59463830669603,151.26700210170347L-98.97676339325385,137.44968337760628L-90.10822499345676,122.25906590256076L-81.01148311385289,105.84692344200124L-71.70957569745347,88.37723436378441L-62.226060279000016,70.02454328379997L-52.584954324375076,50.972217141270434L-42.810674405189076,31.41061312764075L-32.92797436261256,11.535176773957929L-22.961882617083898,-8.455510800872666L-12.937638782589792,-28.36171697032952L-2.880629746130437,-47.98455318552702L7.183674625820065,-67.12796212715665L17.229785990999943,-85.60067656969693L27.232262081825404,-103.21813038650052L37.165771139170104,-119.80430260227166L47.00515606629036,-135.19347606853924L56.725498140395715,-149.23189319067853L66.30218012053955,-161.77929216359442L75.71094859197775,-172.71030836720828L84.92797538912093,-181.91572691990118L93.92991794153576,-189.30357387535113L102.69397839013831,-194.8000351603144L111.19796132389364,-198.35019407195406L119.42032999077283,-199.91857996618333L127.34026084062397,-199.4895226549247L134.93769626183513,-197.0673089714048L142.1933953782221,-192.6761399391874L149.08898277747068,-186.35988897288166L155.60699504778228,-178.18166352643112L161.73092500480476,-168.2231745686349L167.44526349688718,-156.5839201857109L172.7355386827683,-143.3801914677067L177.58835268221202,-128.7439106112414L181.99141550680207,-112.82131284745466L185.93357618493397,-95.77148536434224L189.40485100218967,-77.76477782160305L192.3964487855945,-58.981100338840264L194.90079316767898,-39.608125962586946L196.91154177400935,-19.839415571710504L198.42360228555546,0.12751604423860222L199.43314533523505,20.09317361123574L199.9376142059802,39.858074584663136L199.93573130574228,59.22474223591737L199.42750140305762,77.99967869842551L198.4142116149715,95.99529825966451L196.89842814735286,113.03180158318327L194.88398979584844,128.93897213475321L192.37599822394859,143.55787686402374L189.38080504277679,156.74245414967248L185.90599572531698,168.36097314246098L181.96037039584576,178.2973499255054L177.55392154317445,186.4523073415991L172.69780871418845,192.7443668994268L167.40433025175543,197.11066284826637L161.68689214856082,199.50757028753407L155.5599740957858,199.9111410355268L149.03909281258026,198.31734290249693L142.14076274920689,194.7420999774031L134.88245426340183,189.2211335258223L127.28254937582658,181.80960508865388L119.36029521671658,172.58156534754764L111.13575528157764,161.62921426352295L102.6297586193997,149.06197988103648L93.86384708207758,135.00542500137817L84.86022076862344,119.5999926491035L75.64168180232555,102.99960286599499L66.23157658326271,85.37011485225467L56.65373666239735,66.88766982025666L46.93241838701467,47.73693111772572L37.09224147034453,28.10923920389103L27.158126640926728,8.200699912756534L17.15523252965504,-11.789774895945907L7.1088919543074685,-31.662454721490164L-2.9554522370462877,-51.2187859862249L-13.012311601294199,-70.26337584063727L-23.036216651014378,-88.60594438871449L-33.001781357204166,-106.0632258283398L-42.88376744061823,-122.46079951183937L-52.65714828896603,-137.63483263215144L-62.29717233800955,-151.43371712283056L-71.77942575611681,-163.71958441720935L-81.07989427349108,-174.369682932341L-90.17502399946248,-183.27760451486864L-99.04178107388482,-190.35434759503894L-107.65771000150612,-195.52920642661618L-116.00099052158939,-198.750477528041L-124.05049286881969,-199.9859762665724L-131.78583128543917,-199.22335842407418L-139.18741564919156,-196.4702435315974L-146.23650108625762,-191.75413874048698L-152.9152354435518,-185.1221639906353L-159.20670450019585,-176.64058122180717L-165.09497480358553,-166.39413233180923L-170.56513402165393,-154.48519249617044L-175.60332870907502,-141.0327473087352L-180.19679939178016,-126.1712039628934L-184.33391288096828,-110.04904835116616L-188.0041917347131,-92.82736150058906L-191.1983407925939,-74.67821016649529L-193.90827071615334,-55.782927664801804L-196.12711847553078,-36.33030211943505L-197.84926473042964,-16.514690226650504L-199.070348061367,3.4659246177777057L-199.7872760151813,23.411910426827195L-199.99823293682144,43.123981201984776L-199.70268456758205,62.40518805613966L-198.90137939814088,81.06288698575823L-197.59634677296637,98.91066363174386L-195.79089175090763,115.77019579813215L-193.4895867349684,131.47303511969298L-190.69825989247485,145.8622900773092L-187.42398039495768,158.7941935456297L-183.67504051512705,170.13953921116064L-179.46093462629207,179.78497250916584L-174.7923351573895,187.63412318127715L-169.681065564545,193.60856813804347L-164.14007038758845,197.64861500626247L-158.18338246737198,199.71389853239984L-151.82608740691904,199.7837838832785L-145.0842853663999,197.8575728145451L-137.97505028868596,193.95451064703252L-130.51638665875993,188.1135939812993L-122.727183906471,180.393181071536L-114.62716856813555,170.87040875171675L-106.23685432812641,159.6404217396047L-97.57749006696004,146.8154220189279L-88.6710060474617,132.52354779752778L-79.53995837532214,116.90759324222742L-70.2074718746373,100.12358178180617L-60.69718152318029,82.33920723269645L-51.0331725956592,63.73215832256442L-41.23991966657354,44.48834335179943L-31.34222462717875,24.800032731022974L-21.36515387346376,4.863937952896306L-11.333974824298151,-15.120753808149932L-1.2740919304517515,-34.95436983145247L8.789017663425536,-54.43874683688773L18.829868640897356,-73.37921089033975L28.823032056568593,-91.58652244620168L38.74319973612589,-108.87876709330322L48.565248370505216,-125.08317311335367L58.26430314193498,-140.0378376921673L67.8158007205937,-153.59334453658388L77.1955514724642,-165.61425673500113L86.37980072075649,-175.98046994594392L95.34528890576975,-184.58841239459963L104.06931049089367,-191.35207968778153L112.52977146546968,-196.2038941081958L120.70524529894846,-199.09537980257056L128.5750272046432,-199.99764711765374L136.119186575585,-198.901681244925L143.3186174597882,-195.81843229010417L150.15508694699068,-190.77870586754065L156.6112813443852,-183.8328553125872L162.67085002440803,-175.0502785871463L168.31844683348024,-164.5187249049831L173.53976895691233,-152.34341800442215L178.32159314146932,-138.6460048281713L182.65180918390402,-123.56334011422109L186.51945060064534,-107.24611904137538L189.91472240094592,-89.85737159099475L192.82902589317942,-71.57083366821874L195.25498046144673,-52.5692112573238L197.18644225734207,-33.04235495440384L198.61851975955537,-13.185363116261176L199.54758616188252,6.803367422571112L199.97128855829268,26.724123588855953L199.88855390177847,46.37787146059323L199.29959172189692,65.56824487134486L198.20589359412733,84.10350736025919L196.6102293623845,101.79846786541677L194.5166401242525,118.47633102023703L191.93042799670644,133.97046356609374L188.85814268824467,148.12605923242555L185.3075649114318,160.80168545010116L181.2876866778639,171.87069644428112L176.8086885254576,181.2224985882694L171.88191373574696,188.76365537579485L166.51983960645939,194.41882097162048L160.73604585216063,198.13149301315087L154.54518021295956,199.8645771415439L147.96292135838485,199.60075762197945L141.0059391804035,197.34267035006502L133.69185257608856,193.1128765158586L126.03918482691576,186.95363718862092L118.06731668764432,178.9264910744983L109.79643730360095,169.11163966585306L101.24749308069924,157.60714592543516L92.44213463762891,144.52795451150294L83.4026619746099,130.00474333316254L74.15196799757106,114.18261791036176L64.71348054071552,97.21966158345823L55.11110303441703,79.28535605778364L45.36915396859402,60.558888063867535L35.51230530495224,41.2273590520335L25.565519994055975,21.48391580875821L15.553988755403655,1.525820672358014L5.503066280720051,-18.44751937091468L-4.5617929780328135,-38.23654501863813L-14.615099273320928,-57.64353850576609L-24.631392116034494,-76.47459905885587L-34.585304755456875,-94.5415802136759L-44.45162842177924,-111.66396963987444L-54.20537616853582,-127.67069269083287L-63.82184615328828,-142.40182165894848L-73.2766841962144,-155.7101736587068L-82.54594545829367,-167.46278117262335L-91.60615508276216,-177.54222056739206L-100.4343676463282,-185.8477853066885L-109.00822526959544,-192.29649213874055L-117.30601423946707,-196.82391020550133L-125.30672000019119,-199.38480478963405L-132.99008037375648,-199.95358926738223L-140.33663687483252,-198.52458075179084L-147.32778399034993,-195.11205687203295L-153.9458162988567,-189.750113121579L-160.1739733103701,-182.49232220044638L-165.99648191313761,-173.41119875517037L-171.39859631980917,-162.5974748644127L-176.3666354118621,-150.1591935090493L-180.888017387705,-136.22062908411746L-184.95129162670207,-120.92104573809235L-188.54616768843442,-104.41330594532774L-191.66354137373762,-86.86234321371388L-194.29551778152978,-68.4435141872547L-196.43543130303874,-49.34084660813982L-198.0778625027783,-29.745200643394178L-199.2186518435348,-9.852361946832106L-199.8549102205984,10.138914490900177L-199.98502627856038,30.028890159767936L-199.60867049214966,49.6188386744351L-198.72679600077325,68.71303130592646L-197.34163619464354,87.12069256283192L-195.45669905860558,104.6579062833083L-193.0767582879993,121.14945319362327L-190.2078411990405,136.4305615735571L-186.8572134643446,150.3485535373835L-183.03336071226408,162.76437048191525L-178.74596703661277,173.55396246041644L-174.00589047122529,182.60952760079329L-168.8251354914684,189.84058918464163L-163.21682261230205,195.17489962581632L-157.1951551599508,198.5591623165268L-150.77538330127595,199.95956412885576L-143.9737654219852,199.3621132513093L-136.80752695148982,196.77277898497215L-129.29481673863984,192.21743210252308L-121.45466108890155,185.7415863660202L-113.30691557929231,177.40994378599288L-104.87221477316695,167.3057481653106L-96.17191996219549,155.5299533867757L-87.22806506781944,142.20021475422413L-78.06330083928697,127.44971346505696L-68.70083748953013,111.42582595913075L-59.1643859141455,94.28865143898284L-49.478097642426,76.20941227330678L-39.66650367239854,57.36874326571033L-29.75445234489208,37.95488688122411L-19.76704641390716,18.161812462432376L-9.729579472646115,-1.8127217731992666L0.3325281037273395,-21.769144591723368L10.393793536437848,-41.50806571549501L20.42873617948848,-60.83226798797065L30.411942050621153,-79.54867782621403L40.31812819349019,-97.470294273786L50.12220670796438,-114.4180573803232L59.79934828646729,-130.22263724027042L69.32504509541661,-144.72612581595922L78.67517284250425,-157.78361464156302L87.82605187263876,-169.26464264468774L96.75450713783614,-179.05449961989865L105.43792688915646,-187.05537233092667L113.8543199420682,-193.18732179041973L121.98237137019217,-197.38908195304066L129.80149648638965,-199.61867184188876L137.29189297449403,-199.8538149923359L144.4345910396386,-198.09216202250929L151.21150145019618,-194.3513141066255L157.6054613496356,-188.6686471166672L163.60027772229014,-181.1009381894589L169.18076840296663,-171.7237984501935L174.33280052652262,-160.63091756023837L179.0433263200266,-147.93312763718856L183.30041614689344,-133.75729589973912L187.0932887192606,-118.24505710134878L190.41233840213005,-101.55139841727478L193.24915954011203,-83.84311092376416L195.5965677451507,-65.29712314111646L197.44861809134233,-46.098733290690646L198.80062017075016,-26.439757927859493L199.64914997208817,-6.516615448417336L199.99205855220086,13.471636383304169L199.82847747836482,33.32528927697776L199.1588210276379,52.84597975840535L197.98478513767955,71.83867107526058L196.30934311171112,90.11360186453061L194.13673808847486,107.48818211210644L191.47247229628172,123.78881746138264L188.32329311834667,138.8526436436703L184.69717600471142,152.52915370128687L180.60330427403417,164.68170174520486L176.05204585637563,175.1888682229145L171.05492703591682,183.94567305556043L165.6246032600835,190.8646245236704L159.77482708899723,195.87659342174197L153.52041336646465,198.93150374771488L146.87720170063903,199.99883302651708L139.86201634945178,199.06791726875525L132.4926236123625,196.14805751766318L124.78768683632293,191.26842691973414L116.76671914995423,184.47777924755798L108.45003404559091,175.84396178704296L99.85869393436101,165.4532374559563L91.01445680461808,153.40942292665594L81.93972111875505,139.83285136429473L72.65746908802045,124.85917014405175L63.19120846893947,108.6379855597389L53.564913028764884,91.33136806493835L43.802961830758804,73.11223298112758L33.93007749300325,54.162612851694966L23.97126357718203,34.67183870320923L13.951741265831291,14.834648385450588L3.8968854884575963,-5.150759109662563L-6.167839341704411,-25.084703910376316L-16.216943817556327,-44.76802032329365L-26.224978091312583,-64.0040467542888L-36.16659632747716,-82.60059061025447L-46.01662089241801,-100.37184854977043L-55.750106117947674,-117.14026289694597L-65.34240147744119,-132.7382956705267L-74.76921401450375,-147.0101025033232L-84.00666986607655,-159.81308972749605L-93.03137472414299,-171.01933906828228L-101.82047308297659,-180.51688571176788L-110.35170612180659,-188.2108369770702L-118.60346807637774,-194.0243204160037L-126.55486095660919,-197.89925186752427L-134.18574747175828,-199.79691579303196L-141.47680202911158,-199.69835209429613L-148.40955967697664,-197.60454554917007L-154.96646286807956,-193.53641597240218L-161.13090592491733,-187.53460919982678L-166.88727709443404,-179.65909098430842L-172.22099808555913,-169.98854786089396L-177.11856098943824,-158.61960096733694L-181.5675624888629,-145.66584067493054L-185.5567352702934,-131.25669167489986L-189.07597655886607,-115.53611985961592L-192.11637370417395,-98.66119391855773L-194.67022675198388,-80.80051602052114L-196.731067944744,-62.13253726154764L-198.29367810150444,-42.84377470942303L-199.35409983574027,-23.12694785879085L-199.90964757762814,-3.1790531160652704L-199.95891437538492,16.80060444754855L-199.50177545843937,36.61240240948093L-198.53938855342048,56.05839548002758L-197.0741909521592,74.94429322986417L-195.10989333912715,93.08140130078569L-192.65147039394498,110.28850670454638L-189.70514819276804,126.39368837315676L-186.27838844044126,141.23603487106834L-182.37986957336457,154.66725210690709L-178.01946478093748,166.55314498177137L-173.2082170012139,176.77495817053537L-167.95831095413115,185.23056263993809L-162.28304228311003,191.8354760487301L-156.19678388318147,196.52370683467612L-149.7149495009399,199.2484135549724L-142.8539546984648,199.9823728923755L-135.63117528011952,198.71825165108095L-128.06490328747284,195.4686800247653L-120.17430067380776,190.2661254047383L-111.97935077554119,183.16256798902876L-103.50080770345396,174.2289814335003L-94.76014378188583,163.5546237339305L-85.77949516902981,151.24614542406368L-76.58160579602263,137.4265239999161L-67.18976976683437,122.2338352167275L-57.627772364817446,105.81987353495961L-47.919829815309754,88.34863549881878L-38.09052795685412,69.99468120028742L-28.16475997638004,50.94139019974776L-18.167663365970206,31.37912932882503L-8.124556260954236,11.503350681391352L1.9391266795139548,-8.487361203665944L11.997898686981078,-28.39327345693495L22.026285430159998,-48.01550046615822L31.99888952994056,-67.15799099875414L41.89045487947225,-85.62948700529726L51.67593060649685,-103.24543453286405L61.33053451591394,-119.82982765593701L70.8298158518805,-135.2169670014596L80.14971722056349,-149.2531152982797L89.2666355166588,-161.79803340979467L98.15748169938946,-172.726381502896L106.79973926666295,-181.92897135381915L115.17152127918192,-189.3138572786067L123.25162579020545,-194.80725478851372L131.01958954051,-198.35427779174466L138.45573978257778,-199.91948697596112L145.54124410281585,-199.48724389249895L152.25815811554773,-197.06186720453678L158.58947090804423,-192.6675895381123L164.51914812150363,-186.34831536708103L170.03217255882808,-178.16718235107825L175.11458221643167,-168.20593050926342L179.7535056436822,-156.5640855326071L183.93719454047718,-143.35796439450536L187.6550535103989,-128.71951319493132L190.89766689405755,-112.79498884954202L193.65682261472315,-95.74349779536279L195.925532975804,-77.7354063132776L197.6980523575276,-58.95063835023975L198.96989176800744,-39.576877848074936L199.7378302118324,-19.807693540051584L199.99992284739488,0.15939504922225733L199.75550591229666,20.12489107737391L199.0051984043616,39.88931361375479L197.75090051399098,59.255190709983715L195.99578881183925,78.02903239811936L193.74430820399598,96.02326390384624L191.00216067504067,113.05809975917909L187.77629084748847,128.963340090032L184.07486839419894,143.58007113144026L179.90726734827675,156.76225298000136L175.28404236287633,168.3781787199802L170.21690198102596,178.31179034441192L164.71867898317103,186.4638383235746L158.8032978875341,192.7528732351627L152.48573968558975,197.11605954854895L145.78200390197475,199.5098034324008L138.70906807490397,199.91018831299496L131.28484475973096,198.31321383148762L123.52813616453027,194.7348358126337L115.45858653258341,189.21080684562318L107.09663239236701,181.79631906981678L98.46345080106268,172.56545273445093L89.58090571260563,161.6104360418522L80.47149260617195,149.04072366932718L71.15828151527157,134.98190317646333L61.664858601753366,119.57444022421208L52.015266422717445,102.97227514264338L42.23394304154692,85.34128486947918L32.3456601373234,66.8576256265721L22.37546026936054,47.705972893198584L12.34859345566309,28.077676260929774L2.2904532260569153,8.168847605655088L-7.773487688187701,-11.821598321752127L-17.817741865286187,-31.693931309138208L-27.81687174106013,-51.2496012441935L-37.745554030844595,-70.29322188495402L-47.57864386192338,-88.63452301908991L-57.291238454141336,-106.09025150757161L-66.85874018743311,-122.48600221871891L-76.25691889646492,-137.65796055928055L-85.46197323474603,-151.45453919252884L-94.45059095268171,-163.73789259027694L-103.20000793698001,-174.38529428663722L-111.68806586189905,-183.290363072926L-119.89326830625996,-190.364125882483L-127.79483519421547,-195.5359067458069L-135.37275542178827,-198.75403293419026L-142.60783753596553,-199.98635123660938L-149.48175833800664,-199.22054921156678L-155.97710928782297,-196.4642782041835L-162.0774405919622,-191.74507689944548L-167.76730286351977,-185.11009617539042L-173.03228624845238,-176.62562800531737L-177.85905691924938,-166.3764431158985L-182.23539084349358,-154.46494401881233L-186.15020474182333,-141.01014187821477L-189.59358415688038,-126.14646743646398L-192.5568085621562,-110.02242787847933L-195.03237344714856,-92.79912305432894L-197.01400932290306,-74.64863588498822L-198.49669759980065,-55.7523130330835L-199.4766832973809,-36.29895301696446L-199.95148455401107,-16.48291987120284L-199.9198989123242,3.497798799591787L-199.38200636450043,23.443569971010152L-198.33916914968228,43.15510978905023L-196.79402830403853,62.435474671555625L-194.75049697221013,81.09202902736425L-192.21375049708084,98.93836993314622L-189.19021331297006,115.7961895378093L-185.68754267543542,131.49705658682802L-181.71460926890413,145.88409926661464L-177.28147474122557,158.81357255531228L-172.39936622206372,170.15629442004453L-167.08064788963904,179.7989365112054L-161.3387896578398,187.64515645816772L-155.1883330630183,193.61656045318907L-148.6448544368273,197.65348650617926L-141.72492545840333,199.71560054455063L-134.4460711857945,199.78229940237603L-126.82672567286819,197.85291667246088L-118.88618528419474,193.9467293646L-110.64455982604551,188.1027653035177L-102.12272161732878,180.37941319079528L-93.34225262944132,170.85383922681288L-84.32538982884049,159.62121612136437L-75.0949688608696,146.79377219612414L-65.67436621735125,132.49967007968186L-56.08744003448551,116.8817261983743L-46.35846967097326,100.09598385692198L-36.51209421932288,82.31015416548286L-26.57325010616411,63.70194039043654L-16.567107939535468,44.457262470688555L-6.519008763067956,24.768399438817493L3.545600121411216,4.832068306797301L13.601229600450374,-15.152541389479488L23.62241330137754,-34.98575774927634L33.58377208712747,-54.469421485615676L43.46007833016512,-73.4088657908768L53.22631980266436,-91.61486130801897L62.85776302120536,-108.90550677479422L72.33001588553675,-125.10804645078078L81.61908945274138,-140.06059616897423L90.70145869042781,-153.6137607663764L99.55412205500458,-165.63212673343241L108.15465974422025,-175.99561516879777L116.48129047641544,-184.60068152166073L124.51292665266469,-191.3613501347238L132.2292277621689,-196.2100732513555L139.61065189557712,-199.09840590437733L146.63850523583295,-199.99748994346572L153.2949894011818,-198.89834236511476L159.56324652043904,-195.81194506436586L165.42740192636788,-190.76913511158392L170.87260435905392,-183.82029665054938L175.8850635774446,-175.03485749618545L180.45208528381173,-164.50059546158263L184.56210327267542,-152.32276134499364L188.20470872278437,-138.62302733925023L191.3706765579666,-123.538271370417L194.05198881008553,-107.2192095116188L196.24185492493206,-89.82889013602126L197.93472895964038,-71.5410648543244L199.1263236280529,-52.5384525131509L199.81362115848574,-33.01091359929566L199.99488093638317,-13.153553289715209"></path></g></svg>