<svg width="500" height="500" style="background: rgb(142, 221, 176);" version="1.1" xmlns="http://www.w3.org/2000/svg"><text fill="#d1d1d1" font-size="14" dy=".35em" text-anchor="middle" transform="translate(183.2266387939453,54.80794143676758)scale(0.984814336,0.984814336)">✶</text><text fill="#d1d1d1" font-size="14" dy=".35em" text-anchor="middle" transform="translate(446.9554748535156,184.15597534179688)scale(0.993756416,0.993756416)">✦</text><text fill="#d1d1d1" font-size="14" dy=".35em" text-anchor="middle" transform="translate(110.28309631347656,250.744384765625)scale(0.998244096,0.998244096)">✹</text><text fill="#d1d1d1" font-size="14" dy=".35em" text-anchor="middle" transform="translate(303.7060546875,140.45758056640625)scale(0.999813376,0.999813376)">✹</text><text fill="#d1d1d1" font-size="14" dy=".35em" text-anchor="middle" transform="translate(158.24652099609375,81.92806243896484)scale(0.9999997439999997,0.9999997439999997)">★</text><text fill="#d1d1d1" font-size="14" dy=".35em" text-anchor="middle" transform="translate(49.38520050048828,436.247314453125)scale(0.9996592639999995,0.9996592639999995)">✹</text><text fill="#d1d1d1" font-size="14" dy=".35em" text-anchor="middle" transform="translate(448.29571533203125,327.0047912597656)scale(0.9976291840000004,0.9976291840000004)">★</text><text fill="#d1d1d1" font-size="14" dy=".35em" text-anchor="middle" transform="translate(459.5687255859375,207.96286010742188)scale(0.9923735040000006,0.9923735040000006)">✸</text><text fill="#d1d1d1" font-size="14" dy=".35em" text-anchor="middle" transform="translate(218.42388916015625,282.0237121582031)scale(0.9823562239999997,0.9823562239999997)">✶</text><text fill="#d1d1d1" font-size="14" dy=".35em" text-anchor="middle" transform="translate(422.75732421875,32.880428314208984)scale(0.9660413440000002,0.9660413440000002)">✦</text><text fill="#d1d1d1" font-size="14" dy=".35em" text-anchor="middle" transform="translate(343.8672790527344,444.0920104980469)scale(0.9418928639999997,0.9418928639999997)">★</text><text fill="#d1d1d1" font-size="14" dy=".35em" text-anchor="middle" transform="translate(485.27960205078125,58.80582046508789)scale(0.9083747839999994,0.9083747839999994)">✦</text><text fill="#d1d1d1" font-size="14" dy=".35em" text-anchor="middle" transform="translate(83.0282974243164,96.97935485839844)scale(0.8639511039999999,0.8639511039999999)">✹</text><text fill="#d1d1d1" font-size="14" dy=".35em" text-anchor="middle" transform="translate(88.14567565917969,153.0244598388672)scale(0.8070858240000001,0.8070858240000001)">★</text><text fill="#d1d1d1" font-size="14" dy=".35em" text-anchor="middle" transform="translate(209.58226013183594,188.27947998046875)scale(0.7362429439999998,0.7362429439999998)">✸</text><text fill="#d1d1d1" font-size="14" dy=".35em" text-anchor="middle" transform="translate(465.9560546875,357.0648498535156)scale(0.6498864639999997,0.6498864639999997)">✦</text><text fill="#d1d1d1" font-size="14" dy=".35em" text-anchor="middle" transform="translate(247.47569274902344,204.21136474609375)scale(0.5464803840000005,0.5464803840000005)">★</text><text fill="#d1d1d1" font-size="14" dy=".35em" text-anchor="middle" transform="translate(68.62024688720703,427.8076171875)scale(0.4314007039999999,0.4314007039999999)">✹</text><text fill="#d1d1d1" font-size="14" dy=".35em" text-anchor="middle" transform="translate(264.0751953125,444.87103271484375)scale(0.33152742399999996,0.33152742399999996)">✸</text><text fill="#d1d1d1" font-size="14" dy=".35em" text-anchor="middle" transform="translate(183.05007934570312,394.9775390625)scale(0.24839654400000002,0.24839654400000002)">★</text><text fill="#d1d1d1" font-size="14" dy=".35em" text-anchor="middle" transform="translate(406.46240234375,280.49920654296875)scale(0.18047206399999996,0.18047206399999996)">✸</text><text fill="#d1d1d1" font-size="14" dy=".35em" text-anchor="middle" transform="translate(92.79728698730469,245.4726104736328)scale(0.126217984,0.126217984)">★</text><text fill="#d1d1d1" font-size="14" dy=".35em" text-anchor="middle" transform="translate(465.1919860839844,431.8188781738281)scale(0.08409830400000001,0.08409830400000001)">✹</text><text fill="#d1d1d1" font-size="14" dy=".35em" text-anchor="middle" transform="translate(205.31793212890625,334.7499694824219)scale(0.05257702399999999,0.05257702399999999)">✦</text><text fill="#d1d1d1" font-size="14" dy=".35em" text-anchor="middle" transform="translate(394.9223327636719,472.8728942871094)scale(0.030118144000000006,0.030118144000000006)">★</text><text fill="#d1d1d1" font-size="14" dy=".35em" text-anchor="middle" transform="translate(361.3002014160156,123.02816772460938)scale(0.015185664,0.015185664)">✹</text><text fill="#d1d1d1" font-size="14" dy=".35em" text-anchor="middle" transform="translate(118.05724334716797,155.0386962890625)scale(0.006243584000000001,0.006243584000000001)">✹</text><text fill="#d1d1d1" font-size="14" dy=".35em" text-anchor="middle" transform="translate(22.667274475097656,236.06756591796875)scale(0.001755904,0.001755904)">✦</text><text fill="#d1d1d1" font-size="14" dy=".35em" text-anchor="middle" transform="translate(50.728065490722656,15.718826293945312)scale(0.00018662399999999995,0.00018662399999999995)">✸</text><text fill="#d1d1d1" font-size="14" dy=".35em" text-anchor="middle" transform="translate(202.71386275999248,179.26210118457675)scale(0)">✶</text><text fill="#d1d1d1" font-size="14" dy=".35em" text-anchor="middle" transform="translate(179.13998512085527,442.01368489302695)scale(0)">✦</text><text fill="#d1d1d1" font-size="14" dy=".35em" text-anchor="middle" transform="translate(379.8913372447714,361.2888966454193)scale(0)">✦</text><text fill="#d1d1d1" font-size="14" dy=".35em" text-anchor="middle" transform="translate(318.2763756485656,448.06490396149457)scale(0)">✶</text><text fill="#d1d1d1" font-size="14" dy=".35em" text-anchor="middle" transform="translate(472.3496855003759,256.6929293097928)scale(0)">★</text><text fill="#d1d1d1" font-size="14" dy=".35em" text-anchor="middle" transform="translate(145.96454717684537,161.133156507276)scale(0)">✦</text><text fill="#d1d1d1" font-size="14" dy=".35em" text-anchor="middle" transform="translate(420.5811305437237,266.7708924273029)scale(0)">✸</text><text fill="#d1d1d1" font-size="14" dy=".35em" text-anchor="middle" transform="translate(294.68122124671936,220.61994893010706)scale(0)">★</text><text fill="#d1d1d1" font-size="14" dy=".35em" text-anchor="middle" transform="translate(456.8346379091963,268.83206982165575)scale(0)">✸</text><text fill="#d1d1d1" font-size="14" dy=".35em" text-anchor="middle" transform="translate(446.00769341923296,456.7563442979008)scale(0)">✹</text><text fill="#d1d1d1" font-size="14" dy=".35em" text-anchor="middle" transform="translate(298.1474814005196,66.60764629486948)scale(0)">✦</text><text fill="#d1d1d1" font-size="14" dy=".35em" text-anchor="middle" transform="translate(149.24991503357887,194.67265950515866)scale(0)">★</text><text fill="#d1d1d1" font-size="14" dy=".35em" text-anchor="middle" transform="translate(276.32660150993615,275.4255022155121)scale(0)">✸</text><text fill="#d1d1d1" font-size="14" dy=".35em" text-anchor="middle" transform="translate(347.5833589909598,405.33136716112494)scale(0)">✦</text><text fill="#d1d1d1" font-size="14" dy=".35em" text-anchor="middle" transform="translate(134.31748992297798,459.981240099296)scale(0)">✹</text><text fill="#d1d1d1" font-size="14" dy=".35em" text-anchor="middle" transform="translate(182.48320429120213,82.70441798958927)scale(0)">✦</text><text fill="#d1d1d1" font-size="14" dy=".35em" text-anchor="middle" transform="translate(276.1655787471682,316.55581772793084)scale(0)">★</text><text fill="#d1d1d1" font-size="14" dy=".35em" text-anchor="middle" transform="translate(417.2349665313959,108.27332898043096)scale(0)">✶</text><text fill="#d1d1d1" font-size="14" dy=".35em" text-anchor="middle" transform="translate(10.982703533954918,143.9515557140112)scale(0)">★</text><text fill="#d1d1d1" font-size="14" dy=".35em" text-anchor="middle" transform="translate(427.2859094198793,305.0678319996223)scale(0)">✸</text><text fill="#d1d1d1" font-size="14" dy=".35em" text-anchor="middle" transform="translate(5.006048828363419,39.28777575492859)scale(0)">✶</text></svg>