<svg width="500" height="500" style="background: rgb(126, 186, 36);" version="1.1" xmlns="http://www.w3.org/2000/svg"><g transform="translate(250,250)"><path fill="none" stroke="#fff" stroke-width="250" stroke-opacity="0.02" d="M0,0L62.5,0"></path><path fill="none" stroke="#fff" stroke-width="250" stroke-opacity="0.02" d="M1.3722798329869639,0.08633652907126889L62.37572708200345,3.9243481140687164"></path><path fill="none" stroke="#fff" stroke-width="250" stroke-opacity="0.02" d="M2.7282604079198762,0.3446594415716435L62.003417436267235,7.832853186258226"></path><path fill="none" stroke="#fff" stroke-width="250" stroke-opacity="0.02" d="M4.051751055212062,0.7729128506315442L61.38459624439304,11.70973799268549"></path><path fill="none" stroke="#fff" stroke-width="250" stroke-opacity="0.02" d="M5.326777668544279,1.3676840466635147L60.521798341093884,15.539356664968793"></path><path fill="none" stroke="#fff" stroke-width="250" stroke-opacity="0.02" d="M6.537689455545537,2.1242240719609304L59.418557544549884,19.30625966797261"></path><path fill="none" stroke="#fff" stroke-width="250" stroke-opacity="0.02" d="M7.669263860317147,3.0364763691596934L58.07939178333821,22.99525794095983"></path><path fill="none" stroke="#fff" stroke-width="250" stroke-opacity="0.02" d="M8.706809063343874,4.097113348544727L56.50978408403108,26.591485928961614"></path><path fill="none" stroke="#fff" stroke-width="250" stroke-opacity="0.02" d="M9.636263477036383,5.297580676256031L54.71615950138419,30.0804632360076"></path><path fill="none" stroke="#fff" stroke-width="250" stroke-opacity="0.02" d="M10.44429167090404,6.62814904353532L52.705858090503995,33.4481546378572"></path><path fill="none" stroke="#fff" stroke-width="250" stroke-opacity="0.02" d="M11.11837617908783,8.077973136469057L50.48710403741571,36.681028199013674"></path><path fill="none" stroke="#fff" stroke-width="250" stroke-opacity="0.02" d="M11.646904664595565,9.635157486435876L48.068971080974904,39.76611124705276"></path><path fill="none" stroke="#fff" stroke-width="250" stroke-opacity="0.02" d="M12.019251938966399,11.28682884385754L45.461344375000756,42.69104396662017"></path><path fill="none" stroke="#fff" stroke-width="250" stroke-opacity="0.02" d="M12.225856363126148,13.01921468207597L42.674878954791104,45.44413038580523"></path><path fill="none" stroke="#fff" stroke-width="250" stroke-opacity="0.02" d="M12.258290184744293,14.817727404420097L39.72095498674366,48.014386538940165"></path><path fill="none" stroke="#fff" stroke-width="250" stroke-opacity="0.02" d="M12.1093233993172,16.667053795958722L36.611629993583996,50.39158560214914"></path><path fill="none" stroke="#fff" stroke-width="250" stroke-opacity="0.02" d="M11.77298075631945,18.551249232222485L33.35958826063243,52.56629981112688"></path><path fill="none" stroke="#fff" stroke-width="250" stroke-opacity="0.02" d="M11.244591567916357,20.453836130473476L29.978087640576202,54.52993898460812"></path><path fill="none" stroke="#fff" stroke-width="250" stroke-opacity="0.02" d="M10.520832015730136,22.357906105042083L26.480903985289807,56.27478549173051"></path><path fill="none" stroke="#fff" stroke-width="250" stroke-opacity="0.02" d="M9.599759690810114,24.24622526696415L22.882273443322305,57.79402551692878"></path><path fill="none" stroke="#fff" stroke-width="250" stroke-opacity="0.02" d="M8.480840143073133,26.1013420897512L19.196832870701826,59.081776492063774"></path><path fill="none" stroke="#fff" stroke-width="250" stroke-opacity="0.02" d="M7.16496525884556,27.905697247709412L15.439558610653327,60.13311058211283"></path><path fill="none" stroke="#fff" stroke-width="250" stroke-opacity="0.02" d="M5.6544633285386805,29.64173482087203L11.625703904652262,60.94407412785143"></path><path fill="none" stroke="#fff" stroke-width="250" stroke-opacity="0.02" d="M3.9531007107053386,31.29201425139376L7.770735202915574,61.51170296646824"></path><path fill="none" stroke="#fff" stroke-width="250" stroke-opacity="0.02" d="M2.066075043533062,32.83932243022722L3.890267646938456,61.834033568901646"></path><path fill="none" stroke="#fff" stroke-width="250" stroke-opacity="0.02" d="M0,34.26678529009631L0,61.91010995077977"></path><path fill="none" stroke="#fff" stroke-width="250" stroke-opacity="0.02" d="M-2.237118371775335,35.55797828121798L-3.8843506963297068,61.7399863321119"></path><path fill="none" stroke="#fff" stroke-width="250" stroke-opacity="0.02" d="M-4.635913636250123,36.69703510991148L-7.747114460750474,61.324725539240895"></path><path fill="none" stroke="#fff" stroke-width="250" stroke-opacity="0.02" d="M-7.185699154617704,37.66875412715576L-11.572733427251164,60.66639316093567"></path><path fill="none" stroke="#fff" stroke-width="250" stroke-opacity="0.02" d="M-9.874516289465268,38.45870176428335L-15.345826339509923,59.76804748880069"></path><path fill="none" stroke="#fff" stroke-width="250" stroke-opacity="0.02" d="M-12.68919041043935,39.05331242629133L-19.05125221033793,58.633725290330766"></path><path fill="none" stroke="#fff" stroke-width="250" stroke-opacity="0.02" d="M-15.615394438893986,39.439984269645L-22.674172875761393,57.268423480859596"></path><path fill="none" stroke="#fff" stroke-width="250" stroke-opacity="0.02" d="M-18.63771962818492,39.60717031086819L-26.20011417844228,55.67807677825959"></path><path fill="none" stroke="#fff" stroke-width="250" stroke-opacity="0.02" d="M-21.739753236400794,39.544464334569724L-29.615025521395776,53.869531441475324"></path><path fill="none" stroke="#fff" stroke-width="250" stroke-opacity="0.02" d="M-24.904162710093154,39.24268109474034L-32.90533754034126,51.85051521073882"></path><path fill="none" stroke="#fff" stroke-width="250" stroke-opacity="0.02" d="M-28.11278596118103,38.6939303310454L-36.05801765149088,49.629603583542504"></path><path fill="none" stroke="#fff" stroke-width="250" stroke-opacity="0.02" d="M-31.346727284850715,37.891684152303725L-39.06062324109576,47.216182576068356"></path><path fill="none" stroke="#fff" stroke-width="250" stroke-opacity="0.02" d="M-34.58645843412949,36.83083737223706L-41.90135227359402,44.62040813472493"></path><path fill="none" stroke="#fff" stroke-width="250" stroke-opacity="0.02" d="M-37.81192433705054,35.50776041773212L-44.56909110668801,41.85316237665458"></path><path fill="none" stroke="#fff" stroke-width="250" stroke-opacity="0.02" d="M-41.0026529151022,33.92034446711061L-47.053459314066046,38.92600685148414"></path><path fill="none" stroke="#fff" stroke-width="250" stroke-opacity="0.02" d="M-44.137868437115614,32.068038515070015L-49.34485132972649,35.85113302914819"></path><path fill="none" stroke="#fff" stroke-width="250" stroke-opacity="0.02" d="M-47.19660782102285,29.951878101844198L-51.434474741896686,32.64131023025474"></path><path fill="none" stroke="#fff" stroke-width="250" stroke-opacity="0.02" d="M-50.15783927712747,27.574505486538065L-53.31438507930073,29.309831226142368"></path><path fill="none" stroke="#fff" stroke-width="250" stroke-opacity="0.02" d="M-53.00058267077969,24.94018108830597L-54.97751694795586,25.870455745449238"></path><path fill="none" stroke="#fff" stroke-width="250" stroke-opacity="0.02" d="M-55.70403096972922,22.054786063851484L-56.41771139270143,22.33735213263679"></path><path fill="none" stroke="#fff" stroke-width="250" stroke-opacity="0.02" d="M-58.24767213200676,18.92581593540556L-57.629739374204185,18.725037411447982"></path><path fill="none" stroke="#fff" stroke-width="250" stroke-opacity="0.02" d="M-60.611410784028,15.56236522966024L-58.60932126917852,15.0483160126971"></path><path fill="none" stroke="#fff" stroke-width="250" stroke-opacity="0.02" d="M-62.77568903575762,11.975103134870976L-59.35314231892741,11.322217431065953"></path><path fill="none" stroke="#fff" stroke-width="250" stroke-opacity="0.02" d="M-64.72160578024484,8.176240230252386L-59.85886396897294,7.561933079690504"></path><path fill="none" stroke="#fff" stroke-width="250" stroke-opacity="0.02" d="M-66.43103382865029,4.179486388645484L-60.125131060425815,3.7827526142487717"></path><path fill="none" stroke="#fff" stroke-width="250" stroke-opacity="0.02" d="M-67.88673423902819,8.313727176806324e-15L-60.15157485176485,7.366443358610088e-15"></path><path fill="none" stroke="#fff" stroke-width="250" stroke-opacity="0.02" d="M-69.07246720757767,-4.345671290753381L-59.938811867778625,-3.7710304042404026"></path><path fill="none" stroke="#fff" stroke-width="250" stroke-opacity="0.02" d="M-69.97309890479205,-8.839658092590438L-59.48843859047834,-7.515137471864609"></path><path fill="none" stroke="#fff" stroke-width="250" stroke-opacity="0.02" d="M-70.57470365586344,-13.462844740907947L-58.80302202475168,-11.217276372504475"></path><path fill="none" stroke="#fff" stroke-width="250" stroke-opacity="0.02" d="M-70.86466088476878,-18.19495240746643L-57.88608618930875,-14.86262080589944"></path><path fill="none" stroke="#fff" stroke-width="250" stroke-opacity="0.02" d="M-70.83174626457769,-23.014629479932868L-56.742094600992345,-18.436624141373258"></path><path fill="none" stroke="#fff" stroke-width="250" stroke-opacity="0.02" d="M-70.46621654258692,-27.899548803215488L-55.37642883771282,-21.925079204044348"></path><path fill="none" stroke="#fff" stroke-width="250" stroke-opacity="0.02" d="M-69.75988753777979,-32.82651133666281L-53.795363282049465,-25.314176455369527"></path><path fill="none" stroke="#fff" stroke-width="250" stroke-opacity="0.02" d="M-68.70620483969645,-37.77155574513256L-52.00603616385503,-28.59056032318476"></path><path fill="none" stroke="#fff" stroke-width="250" stroke-opacity="0.02" d="M-67.30030677193652,-42.71007340811202L-50.01641703594164,-31.74138344502444"></path><path fill="none" stroke="#fff" stroke-width="250" stroke-opacity="0.02" d="M-65.53907922004304,-47.616928299673624L-47.83527083204795,-34.75435859813718"></path><path fill="none" stroke="#fff" stroke-width="250" stroke-opacity="0.02" d="M-63.42120196226342,-52.46658116323504L-45.47211867072061,-37.617808100218376"></path><path fill="none" stroke="#fff" stroke-width="250" stroke-opacity="0.02" d="M-60.94718618245725,-57.23321737902351L-42.93719558242299,-40.320710476405864"></path><path fill="none" stroke="#fff" stroke-width="250" stroke-opacity="0.02" d="M-58.119402887041744,-61.89087789895992L-40.241405350057875,-42.85274420047907"></path><path fill="none" stroke="#fff" stroke-width="250" stroke-opacity="0.02" d="M-54.9421019921243,-66.41359260350443L-37.39627266510247,-45.20432833140785"></path><path fill="none" stroke="#fff" stroke-width="250" stroke-opacity="0.02" d="M-51.42142189264524,-70.77551541795748L-34.41389281264312,-47.36665988035484"></path><path fill="none" stroke="#fff" stroke-width="250" stroke-opacity="0.02" d="M-47.56538937224152,-74.95106051188526L-31.306879108730353,-49.331747757879164"></path><path fill="none" stroke="#fff" stroke-width="250" stroke-opacity="0.02" d="M-43.383909760402204,-78.91503889482274L-28.08830832260063,-51.09244316635911"></path><path fill="none" stroke="#fff" stroke-width="250" stroke-opacity="0.02" d="M-38.88874729209002,-82.64279471426562L-24.771664324391587,-52.642466318471314"></path><path fill="none" stroke="#fff" stroke-width="250" stroke-opacity="0.02" d="M-34.093495674117044,-86.11034055823859L-21.370780205984293,-53.97642937886365"></path><path fill="none" stroke="#fff" stroke-width="250" stroke-opacity="0.02" d="M-29.013538911940675,-89.29449106447336L-17.899779128504974,-55.08985554287293"></path><path fill="none" stroke="#fff" stroke-width="250" stroke-opacity="0.02" d="M-23.666002499953006,-92.1729941414443L-14.373014154791647,-55.97919418318059"></path><path fill="none" stroke="#fff" stroke-width="250" stroke-opacity="0.02" d="M-18.06969512751865,-94.72465911319902L-10.8050073287535,-56.64183201259914"></path><path fill="none" stroke="#fff" stroke-width="250" stroke-opacity="0.02" d="M-12.245041101739982,-96.92948111007803L-7.210388266014973,-57.07610022866441"></path><path fill="none" stroke="#fff" stroke-width="250" stroke-opacity="0.02" d="M-6.214003735949465,-98.76876104099563L-3.6038325215332523,-57.28127762329064"></path><path fill="none" stroke="#fff" stroke-width="250" stroke-opacity="0.02" d="M-1.8411074296186245e-14,-100.22522049990702L-1.0518048570633134e-14,-57.25758965835058"></path><path fill="none" stroke="#fff" stroke-width="250" stroke-opacity="0.02" d="M6.372193225680285,-101.28311097935088L3.5865263262065095,-57.006203525593335"></path><path fill="none" stroke="#fff" stroke-width="250" stroke-opacity="0.02" d="M12.876540905816267,-101.9283167874476L7.1413011289571555,-56.52921922673449"></path><path fill="none" stroke="#fff" stroke-width="250" stroke-opacity="0.02" d="M19.48585918649866,-102.14845109134684L10.650076606989956,-55.82965672676038"></path><path fill="none" stroke="#fff" stroke-width="250" stroke-opacity="0.02" d="M26.171931841589327,-101.9329445397412L14.098861284489589,-54.91143925041299"></path><path fill="none" stroke="#fff" stroke-width="250" stroke-opacity="0.02" d="M32.905633320091994,-101.27312594957264L17.473977476497968,-53.77937280838899"></path><path fill="none" stroke="#fff" stroke-width="250" stroke-opacity="0.02" d="M39.657057848600914,-100.16229457729949L20.76211717870067,-52.43912205591908"></path><path fill="none" stroke="#fff" stroke-width="250" stroke-opacity="0.02" d="M46.39565400872118,-98.59578353290735L23.95039614684956,-50.8971826020229"></path><path fill="none" stroke="#fff" stroke-width="250" stroke-opacity="0.02" d="M53.09036417778071,-96.57101393507561L27.026405939813053,-49.16084990279679"></path><path fill="none" stroke="#fff" stroke-width="250" stroke-opacity="0.02" d="M59.70976819237381,-94.08753944835725L29.978263709941178,-47.23818488651568"></path><path fill="none" stroke="#fff" stroke-width="250" stroke-opacity="0.02" d="M66.22223056845722,-91.14708088769805L32.79465953505323,-45.137976472054866"></path><path fill="none" stroke="#fff" stroke-width="250" stroke-opacity="0.02" d="M72.59605058898612,-87.75355062191552L35.46490109784376,-42.86970115510694"></path><path fill="none" stroke="#fff" stroke-width="250" stroke-opacity="0.02" d="M78.79961455058182,-83.91306655565349L37.97895553081714,-40.443479848825376"></path><path fill="none" stroke="#fff" stroke-width="250" stroke-opacity="0.02" d="M84.80154944454608,-79.6339555186015L40.32748825792955,-37.87003217681686"></path><path fill="none" stroke="#fff" stroke-width="250" stroke-opacity="0.02" d="M90.5708773347942,-74.92674594118955L42.50189867788964,-35.160628426782736"></path><path fill="none" stroke="#fff" stroke-width="250" stroke-opacity="0.02" d="M96.07716968604812,-69.80414974730145L44.49435254848034,-32.32703938253469"></path><path fill="none" stroke="#fff" stroke-width="250" stroke-opacity="0.02" d="M101.29070088996471,-64.28103344654392L46.29781094624511,-29.381484260537885"></path><path fill="none" stroke="#fff" stroke-width="250" stroke-opacity="0.02" d="M106.18260023482598,-58.37437846102085L47.90605569136372,-26.3365769845332"></path><path fill="none" stroke="#fff" stroke-width="250" stroke-opacity="0.02" d="M110.72500156601768,-52.103230774138574L49.31371114346135,-23.205271038131503"></path><path fill="none" stroke="#fff" stroke-width="250" stroke-opacity="0.02" d="M114.89118988977937,-45.4886400414612L50.51626229036895,-20.000803140529182"></path><path fill="none" stroke="#fff" stroke-width="250" stroke-opacity="0.02" d="M118.65574418160841,-38.55358835577767L51.51006906841473,-16.736635994645347"></path><path fill="none" stroke="#fff" stroke-width="250" stroke-opacity="0.02" d="M121.99467567323319,-31.322908910100693L52.292376869598165,-13.426400360015561"></path><path fill="none" stroke="#fff" stroke-width="250" stroke-opacity="0.02" d="M124.88556090818767,-23.82319485302502L52.86132320790826,-10.083836704681595"></path><path fill="none" stroke="#fff" stroke-width="250" stroke-opacity="0.02" d="M127.307668875658,-16.08269868048488L53.21594053401397,-6.7227366910870625"></path><path fill="none" stroke="#fff" stroke-width="250" stroke-opacity="0.02" d="M129.24208155536084,-8.131222556224564L53.356155204504574,-3.3568847506254866"></path></g></svg>