<svg width="500" height="500" style="background: rgb(208, 235, 176);" version="1.1" xmlns="http://www.w3.org/2000/svg"><text fill="#000" dy=".35em" text-anchor="middle" font-size="14.941107097547501" transform="translate(51.000267028808594,363.2359284004054)">❆</text><text fill="#000" dy=".35em" text-anchor="middle" font-size="14.764782637357712" transform="translate(488.8071594238281,333.473189799313)">❆</text><text fill="#000" dy=".35em" text-anchor="middle" font-size="14.918391068931669" transform="translate(187.7499542236328,420.61968760077326)">❅</text><text fill="#000" dy=".35em" text-anchor="middle" font-size="14.683005810948089" transform="translate(180.30596923828125,31.584402463744397)">❄</text><text fill="#000" dy=".35em" text-anchor="middle" font-size="11.26517785829492" transform="translate(240.35015869140625,-8.243696531276116)">❆</text><text fill="#000" dy=".35em" text-anchor="middle" font-size="10.261355354450643" transform="translate(339.33197021484375,102.14515414426458)">❄</text><text fill="#000" dy=".35em" text-anchor="middle" font-size="14.112316581886262" transform="translate(367.8674011230469,102.29167490418561)">❅</text><text fill="#000" dy=".35em" text-anchor="middle" font-size="14.62289329385385" transform="translate(338.65765380859375,372.04438038906676)">❆</text><text fill="#000" dy=".35em" text-anchor="middle" font-size="10.654367718379945" transform="translate(13.594385147094725,55.15111765888528)">❅</text><text fill="#000" dy=".35em" text-anchor="middle" font-size="12.800090677337721" transform="translate(310.4464111328125,21.651346739107424)">❆</text><text fill="#000" dy=".35em" text-anchor="middle" font-size="11.090688966214657" transform="translate(141.26637268066406,-5.01344264030564)">❆</text><text fill="#000" dy=".35em" text-anchor="middle" font-size="11.341420725220814" transform="translate(21.907365798950195,343.86654589407743)">❅</text><text fill="#000" dy=".35em" text-anchor="middle" font-size="12.635102357016876" transform="translate(246.30548095703125,452.89408459072223)">❆</text><text fill="#000" dy=".35em" text-anchor="middle" font-size="14.664902000222355" transform="translate(57.24291229248047,314.16863903568634)">❄</text><text fill="#000" dy=".35em" text-anchor="middle" font-size="10.903360610827804" transform="translate(186.57473754882812,365.5897269731363)">❆</text><text fill="#000" dy=".35em" text-anchor="middle" font-size="10.431202455656603" transform="translate(223.4507293701172,479.3367384988434)">❄</text><text fill="#000" dy=".35em" text-anchor="middle" font-size="13.689740968402475" transform="translate(350.7257385253906,374.1649693511994)">❅</text><text fill="#000" dy=".35em" text-anchor="middle" font-size="14.240029024658725" transform="translate(317.1635437011719,492.1854255717288)">❅</text><text fill="#000" dy=".35em" text-anchor="middle" font-size="10.146303710062057" transform="translate(205.17723083496094,421.39954396998)">❅</text><text fill="#000" dy=".35em" text-anchor="middle" font-size="14.94042646838352" transform="translate(13.186217308044434,-6.238834412693476)">❅</text><text fill="#000" dy=".35em" text-anchor="middle" font-size="14.907269913237542" transform="translate(132.5597381591797,436.32340113903075)">❄</text><text fill="#000" dy=".35em" text-anchor="middle" font-size="13.09840123867616" transform="translate(16.93414878845215,275.8424733350696)">❄</text><text fill="#000" dy=".35em" text-anchor="middle" font-size="11.927384824957699" transform="translate(294.8885498046875,271.7374420754059)">❅</text><text fill="#000" dy=".35em" text-anchor="middle" font-size="13.799192850710824" transform="translate(462.5873107910156,308.04206264564715)">❆</text><text fill="#000" dy=".35em" text-anchor="middle" font-size="11.713880276074633" transform="translate(261.5741271972656,318.00826068435)">❄</text><text fill="#000" dy=".35em" text-anchor="middle" font-size="10.663614412769675" transform="translate(345.3778076171875,463.8868075577076)">❆</text><text fill="#000" dy=".35em" text-anchor="middle" font-size="12.042154483497143" transform="translate(128.9964599609375,486.0580240904774)">❆</text><text fill="#000" dy=".35em" text-anchor="middle" font-size="13.481264527654275" transform="translate(15.219844818115234,492.1566336659018)">❄</text><text fill="#000" dy=".35em" text-anchor="middle" font-size="12.558984203496948" transform="translate(239.14295959472656,312.93495017185825)">❆</text><text fill="#000" dy=".35em" text-anchor="middle" font-size="12.424012477276847" transform="translate(105.89070129394531,260.60523810745957)">❅</text><text fill="#000" dy=".35em" text-anchor="middle" font-size="12.927883343072608" transform="translate(26.62049102783203,256.06936829687737)">❄</text><text fill="#000" dy=".35em" text-anchor="middle" font-size="14.831142692128196" transform="translate(204.749755859375,297.1795477656436)">❅</text><text fill="#000" dy=".35em" text-anchor="middle" font-size="12.052712932927534" transform="translate(436.8158874511719,485.4310889794994)">❆</text><text fill="#000" dy=".35em" text-anchor="middle" font-size="12.078637039521709" transform="translate(384.8869934082031,249.26385582578826)">❄</text><text fill="#000" dy=".35em" text-anchor="middle" font-size="11.10500842682086" transform="translate(409.17108154296875,339.25727908439285)">❆</text><text fill="#000" dy=".35em" text-anchor="middle" font-size="13.706008946755901" transform="translate(164.148193359375,241.70841647563745)">❅</text><text fill="#000" dy=".35em" text-anchor="middle" font-size="11.323000602424145" transform="translate(67.7042007446289,319.80065399171934)">❆</text><text fill="#000" dy=".35em" text-anchor="middle" font-size="12.300857612863183" transform="translate(471.05145263671875,238.80725591948485)">❅</text><text fill="#000" dy=".35em" text-anchor="middle" font-size="13.522715581348166" transform="translate(376.12701416015625,245.78844384878175)">❄</text><text fill="#000" dy=".35em" text-anchor="middle" font-size="11.841517080320045" transform="translate(48.109439849853516,396.0349933039951)">❆</text><text fill="#000" dy=".35em" text-anchor="middle" font-size="13.78726706490852" transform="translate(10.872739791870117,319.7485501332528)">❆</text><text fill="#000" dy=".35em" text-anchor="middle" font-size="13.030527386581525" transform="translate(467.5062255859375,317.1869199286638)">❅</text><text fill="#000" dy=".35em" text-anchor="middle" font-size="11.503553604707122" transform="translate(139.89425659179688,261.59737753287015)">❆</text><text fill="#000" dy=".35em" text-anchor="middle" font-size="13.055995053146034" transform="translate(486.0704345703125,220.5348122422916)">❅</text><text fill="#000" dy=".35em" text-anchor="middle" font-size="10.312036705436185" transform="translate(277.3528137207031,349.78637769951)">❄</text><text fill="#000" dy=".35em" text-anchor="middle" font-size="11.643233761424199" transform="translate(90.77079772949219,367.1307649018563)">❆</text><text fill="#000" dy=".35em" text-anchor="middle" font-size="14.327606805600226" transform="translate(179.8249053955078,210.2053428227832)">❄</text><text fill="#000" dy=".35em" text-anchor="middle" font-size="12.858828206080943" transform="translate(358.4861145019531,314.2711781218511)">❅</text><text fill="#000" dy=".35em" text-anchor="middle" font-size="14.91634179954417" transform="translate(451.3663635253906,246.54604358753966)">❅</text><text fill="#000" dy=".35em" text-anchor="middle" font-size="13.065276347333565" transform="translate(156.75442504882812,199.98116888283064)">❄</text><text fill="#000" dy=".35em" text-anchor="middle" font-size="10.345519338734448" transform="translate(290.8428649902344,335.0223411106804)">❆</text><text fill="#000" dy=".35em" text-anchor="middle" font-size="11.971901591168717" transform="translate(287.1844787597656,326.8379700359846)">❆</text><text fill="#000" dy=".35em" text-anchor="middle" font-size="14.184799824142829" transform="translate(272.4202575683594,214.46175137759934)">❄</text><text fill="#000" dy=".35em" text-anchor="middle" font-size="14.385186575818807" transform="translate(494.3192138671875,254.70371573907005)">❄</text><text fill="#000" dy=".35em" text-anchor="middle" font-size="10.826217588037252" transform="translate(50.32647705078125,279.4879888407368)">❄</text><text fill="#000" dy=".35em" text-anchor="middle" font-size="13.919632845791057" transform="translate(242.8737030029297,199.3581617147522)">❄</text><text fill="#000" dy=".35em" text-anchor="middle" font-size="11.030894960276783" transform="translate(405.61798095703125,191.64259293674505)">❅</text><text fill="#000" dy=".35em" text-anchor="middle" font-size="13.240031965542585" transform="translate(357.8457336425781,207.25418484953335)">❅</text><text fill="#000" dy=".35em" text-anchor="middle" font-size="12.688161893747747" transform="translate(8.408548355102539,248.40316910228137)">❆</text><text fill="#000" dy=".35em" text-anchor="middle" font-size="14.62439042981714" transform="translate(101.78901672363281,178.02200704398746)">❄</text><text fill="#000" dy=".35em" text-anchor="middle" font-size="12.862853007391095" transform="translate(166.56607055664062,224.835576185627)">❆</text><text fill="#000" dy=".35em" text-anchor="middle" font-size="14.874404658330604" transform="translate(229.02352905273438,176.9579682407333)">❄</text><text fill="#000" dy=".35em" text-anchor="middle" font-size="12.563006798736751" transform="translate(13.19798469543457,249.548721197674)">❄</text><text fill="#000" dy=".35em" text-anchor="middle" font-size="13.968642462277785" transform="translate(314.78570556640625,297.8117176690152)">❅</text><text fill="#000" dy=".35em" text-anchor="middle" font-size="11.214855470461771" transform="translate(309.1614685058594,186.93016155771767)">❅</text><text fill="#000" dy=".35em" text-anchor="middle" font-size="13.739826085511595" transform="translate(456.68212890625,164.55688853003085)">❄</text><text fill="#000" dy=".35em" text-anchor="middle" font-size="10.026249449001625" transform="translate(320.0929260253906,252.724678571889)">❆</text><text fill="#000" dy=".35em" text-anchor="middle" font-size="13.456288129091263" transform="translate(494.4107055664063,189.26585337330226)">❆</text><text fill="#000" dy=".35em" text-anchor="middle" font-size="10.643561219330877" transform="translate(226.01824951171875,292.15126163381353)">❆</text><text fill="#000" dy=".35em" text-anchor="middle" font-size="13.575698861386627" transform="translate(449.4333190917969,146.15686451134508)">❄</text><text fill="#000" dy=".35em" text-anchor="middle" font-size="12.888002754189074" transform="translate(456.96240234375,280.6290030898605)">❆</text><text fill="#000" dy=".35em" text-anchor="middle" font-size="14.97300231596455" transform="translate(170.13462829589844,172.50366771316945)">❄</text><text fill="#000" dy=".35em" text-anchor="middle" font-size="10.536518592853099" transform="translate(239.3666534423828,264.68402251549475)">❄</text><text fill="#000" dy=".35em" text-anchor="middle" font-size="12.942779454169795" transform="translate(358.1697998046875,161.7002875763554)">❆</text><text fill="#000" dy=".35em" text-anchor="middle" font-size="11.571049820631742" transform="translate(354.2289733886719,160.37649127410748)">❄</text><text fill="#000" dy=".35em" text-anchor="middle" font-size="11.63305847439915" transform="translate(364.7310485839844,172.43753702065698)">❄</text><text fill="#000" dy=".35em" text-anchor="middle" font-size="14.138735635206103" transform="translate(48.24848175048828,191.61536744006753)">❄</text><text fill="#000" dy=".35em" text-anchor="middle" font-size="11.15351083688438" transform="translate(230.7773895263672,240.3716565528281)">❅</text><text fill="#000" dy=".35em" text-anchor="middle" font-size="10.577305504120886" transform="translate(282.1192626953125,226.51337636778013)">❅</text><text fill="#000" dy=".35em" text-anchor="middle" font-size="12.585599611047655" transform="translate(309.30706787109375,131.10217573173998)">❄</text><text fill="#000" dy=".35em" text-anchor="middle" font-size="11.414891445310786" transform="translate(146.4775848388672,189.42820009518343)">❅</text><text fill="#000" dy=".35em" text-anchor="middle" font-size="13.05452951346524" transform="translate(433.6733703613281,114.46716138340263)">❆</text><text fill="#000" dy=".35em" text-anchor="middle" font-size="14.421519412426278" transform="translate(133.1028594970703,149.0254880604715)">❅</text><text fill="#000" dy=".35em" text-anchor="middle" font-size="13.204283255618066" transform="translate(413.4239807128906,198.7571700788242)">❆</text><text fill="#000" dy=".35em" text-anchor="middle" font-size="14.04267189791426" transform="translate(182.89036560058597,114.03752339413079)">❄</text><text fill="#000" dy=".35em" text-anchor="middle" font-size="10.500809904187918" transform="translate(279.7745361328125,123.62324781587142)">❅</text><text fill="#000" dy=".35em" text-anchor="middle" font-size="13.893430194584653" transform="translate(196.9313201904297,209.3198655238992)">❄</text><text fill="#000" dy=".35em" text-anchor="middle" font-size="12.945635055657476" transform="translate(334.0777587890625,150.4642619945889)">❆</text><text fill="#000" dy=".35em" text-anchor="middle" font-size="13.18782428279519" transform="translate(104.68997955322266,100.0867876424364)">❆</text><text fill="#000" dy=".35em" text-anchor="middle" font-size="12.280291682109237" transform="translate(174.87136840820312,102.48929192401081)">❆</text><text fill="#000" dy=".35em" text-anchor="middle" font-size="12.321313807042316" transform="translate(358.0333557128906,102.5772239297019)">❅</text><text fill="#000" dy=".35em" text-anchor="middle" font-size="10.692040274152532" transform="translate(215.6121826171875,104.99131613173101)">❅</text><text fill="#000" dy=".35em" text-anchor="middle" font-size="13.939966802718118" transform="translate(62.57990264892578,86.51764312464441)">❆</text><text fill="#000" dy=".35em" text-anchor="middle" font-size="14.145022800657898" transform="translate(3.9789671897888184,114.12419722912138)">❆</text><text fill="#000" dy=".35em" text-anchor="middle" font-size="13.359287942294031" transform="translate(178.42843627929688,88.6234530388272)">❄</text><text fill="#000" dy=".35em" text-anchor="middle" font-size="12.125761749921367" transform="translate(419.4473571777343,152.08288649675498)">❅</text><text fill="#000" dy=".35em" text-anchor="middle" font-size="11.150927448179573" transform="translate(307.1203308105469,78.26973240681441)">❄</text><text fill="#000" dy=".35em" text-anchor="middle" font-size="13.016650188947096" transform="translate(153.5324249267578,78.19092954755976)">❆</text><text fill="#000" dy=".35em" text-anchor="middle" font-size="11.532501351321116" transform="translate(324.7817687988281,101.14714923016125)">❄</text><text fill="#000" dy=".35em" text-anchor="middle" font-size="13.804432936012745" transform="translate(286.6182861328125,81.33961446587408)">❆</text><path fill="#d0ebb0" d="M0,500L0.8333333333333333,499.99999999999994C1.6666666666666665,500,3.333333333333333,500,5,499.99999999999994C6.666666666666666,500,8.333333333333332,500,10,499.99999999999994C11.666666666666666,500,13.333333333333332,500,15,499.99999999999994C16.666666666666664,500,18.333333333333332,500,20,499.99999999999994C21.666666666666664,500,23.33333333333333,500,24.999999999999996,499.99999999999994C26.666666666666664,500,28.333333333333332,500,29.999999999999996,499.99999999999994C31.666666666666664,500,33.33333333333333,500,35,499.99999999999994C36.666666666666664,500,38.33333333333333,500,40,499.99999999999994C41.666666666666664,500,43.33333333333333,500,45,499.99999999999994C46.666666666666664,500,48.33333333333333,500,49.99999999999999,499.99999999999994C51.66666666666666,500,53.33333333333333,500,55,499.99999999999994C56.666666666666664,500,58.33333333333333,500,60,499.99999999999994C61.666666666666664,500,63.33333333333333,500,65,499.99999999999994C66.66666666666666,500,68.33333333333333,500,70,499.99999999999994C71.66666666666666,500,73.33333333333333,500,75,499.99999999999994C76.66666666666666,500,78.33333333333333,500,80,499.99999999999994C81.66666666666666,500,83.33333333333333,500,85,499.99999999999994C86.66666666666666,500,88.33333333333333,500,90,499.99999999999994C91.66666666666666,500,93.33333333333333,500,95,499.99999999999994C96.66666666666666,500,98.33333333333331,500,99.99999999999999,499.99999999999994C101.66666666666666,500,103.33333333333333,500,104.99999999999999,499.99999999999994C106.66666666666666,500,108.33333333333333,500,110,499.99999999999994C111.66666666666666,500,113.33333333333331,500,114.99999999999999,499.99999999999994C116.66666666666666,500,118.33333333333333,500,119.99999999999999,499.99999999999994C121.66666666666666,500,123.33333333333333,500,125,499.99999999999994C126.66666666666666,500,128.33333333333331,500,130,499.99999999999994C131.66666666666666,500,133.33333333333331,500,135,499.99999999999994C136.66666666666666,500,138.33333333333331,500,140,499.99999999999994C141.66666666666666,500,143.33333333333331,500,145,499.99999999999994C146.66666666666666,500,148.33333333333331,500,150,499.99999999999994C151.66666666666666,500,153.33333333333331,500,154.99999999999997,499.99999999999994C156.66666666666666,500,158.33333333333331,500,160,499.99999999999994C161.66666666666666,500,163.33333333333331,500,165,499.99999999999994C166.66666666666666,500,168.33333333333331,500,169.99999999999997,499.99999999999994C171.66666666666666,500,173.33333333333331,500,175,499.99999999999994C176.66666666666666,500,178.33333333333331,500,180,499.99999999999994C181.66666666666666,500,183.33333333333331,500,184.99999999999997,499.99999999999994C186.66666666666666,500,188.33333333333331,500,190,499.99999999999994C191.66666666666666,500,193.33333333333331,500,195,499.99999999999994C196.66666666666666,500,198.33333333333331,500,199.99999999999997,499.99999999999994C201.66666666666663,500,203.33333333333331,500,205,499.99999999999994C206.66666666666666,500,208.33333333333331,500,210,499.99999999999994C211.66666666666666,500,213.33333333333331,500,214.99999999999997,499.99999999999994C216.66666666666663,500,218.33333333333331,500,220,499.99999999999994C221.66666666666666,500,223.33333333333331,500,225,499.99999999999994C226.66666666666666,500,228.33333333333331,500,229.99999999999997,499.99999999999994C231.66666666666663,500,233.33333333333331,500,235,499.99999999999994C236.66666666666666,500,238.33333333333331,500,240,499.99999999999994C241.66666666666666,500,243.33333333333331,500,244.99999999999997,499.99999999999994C246.66666666666663,500,248.33333333333331,500,250,499.99999999999994C251.66666666666666,500,253.33333333333331,500,255,499.99999999999994C256.66666666666663,500,258.3333333333333,500,260,499.99999999999994C261.66666666666663,500,263.3333333333333,500,265,499.99999999999994C266.66666666666663,500,268.3333333333333,500,270,499.99999999999994C271.66666666666663,500,273.3333333333333,500,275,499.99999999999994C276.66666666666663,500,278.3333333333333,500,280,499.99999999999994C281.66666666666663,500,283.3333333333333,500,285,499.99999999999994C286.66666666666663,500,288.3333333333333,500,290,499.99999999999994C291.66666666666663,500,293.3333333333333,500,295,499.98765199999997C296.66666666666663,499.975304,298.3333333333333,499.950608,300,499.95060799999993C301.66666666666663,499.950608,303.3333333333333,499.975304,305,499.98765199999997C306.66666666666663,500,308.3333333333333,500,310,499.99999999999994C311.66666666666663,500,313.3333333333333,500,315,499.99999999999994C316.66666666666663,500,318.3333333333333,500,320,499.99999999999994C321.66666666666663,500,323.3333333333333,500,325,499.99999999999994C326.66666666666663,500,328.3333333333333,500,330,499.99999999999994C331.66666666666663,500,333.3333333333333,500,335,499.99999999999994C336.66666666666663,500,338.3333333333333,500,340,499.99999999999994C341.66666666666663,500,343.3333333333333,500,345,499.99999999999994C346.66666666666663,500,348.3333333333333,500,350,499.66666666666663C351.66666666666663,499.3333333333333,353.3333333333333,498.66666666666663,355,498.66666666666663C356.66666666666663,498.66666666666663,358.3333333333333,499.3333333333333,360,499.66666666666663C361.66666666666663,500,363.3333333333333,500,365,499.98765199999997C366.66666666666663,499.975304,368.3333333333333,499.950608,370,499.6172746666667C371.66666666666663,499.2839413333333,373.3333333333333,498.6419706666666,375,498.65431866666665C376.66666666666663,498.66666666666663,378.3333333333333,499.3333333333333,380,499.66666666666663C381.66666666666663,500,383.33333333333326,500,384.99999999999994,499.99999999999994C386.66666666666663,500,388.3333333333333,500,389.99999999999994,499.99999999999994C391.66666666666663,500,393.3333333333333,500,395,499.99999999999994C396.66666666666663,500,398.33333333333326,500,399.99999999999994,499.66666666666663C401.66666666666663,499.3333333333333,403.3333333333333,498.66666666666663,404.99999999999994,498.66666666666663C406.66666666666663,498.66666666666663,408.3333333333333,499.3333333333333,410,499.66666666666663C411.66666666666663,500,413.33333333333326,500,414.99999999999994,499.99999999999994C416.66666666666663,500,418.3333333333333,500,419.99999999999994,499.99999999999994C421.66666666666663,500,423.3333333333333,500,425,499.99999999999994C426.66666666666663,500,428.33333333333326,500,429.99999999999994,499.99999999999994C431.66666666666663,500,433.3333333333333,500,434.99999999999994,499.99999999999994C436.66666666666663,500,438.3333333333333,500,440,499.99999999999994C441.66666666666663,500,443.33333333333326,500,444.99999999999994,499.99999999999994C446.66666666666663,500,448.3333333333333,500,449.99999999999994,499.99999999999994C451.66666666666663,500,453.3333333333333,500,455,499.99999999999994C456.66666666666663,500,458.33333333333326,500,459.99999999999994,499.99999999999994C461.66666666666663,500,463.3333333333333,500,464.99999999999994,499.66666666666663C466.66666666666663,499.3333333333333,468.3333333333333,498.66666666666663,470,498.66666666666663C471.66666666666663,498.66666666666663,473.33333333333326,499.3333333333333,474.99999999999994,499.3333333333333C476.66666666666663,499.3333333333333,478.3333333333333,498.66666666666663,479.99999999999994,498.66666666666663C481.66666666666663,498.66666666666663,483.3333333333333,499.3333333333333,485,499.66666666666663C486.66666666666663,500,488.33333333333326,500,490.83333333333326,499.99999999999994C493.33333333333326,500,496.66666666666663,500,498.3333333333333,499.99999999999994L500,500L500,500L498.33333333333326,499.99999999999994C496.66666666666663,500,493.33333333333326,500,490.83333333333326,499.99999999999994C488.33333333333326,500,486.66666666666663,500,485,499.99999999999994C483.3333333333333,500,481.66666666666663,500,480,499.99999999999994C478.3333333333333,500,476.66666666666663,500,474.99999999999994,499.99999999999994C473.33333333333326,500,471.66666666666663,500,470,499.99999999999994C468.3333333333333,500,466.66666666666663,500,465,499.99999999999994C463.3333333333333,500,461.66666666666663,500,459.99999999999994,499.99999999999994C458.33333333333326,500,456.66666666666663,500,455,499.99999999999994C453.3333333333333,500,451.66666666666663,500,450,499.99999999999994C448.3333333333333,500,446.66666666666663,500,444.99999999999994,499.99999999999994C443.33333333333326,500,441.66666666666663,500,440,499.99999999999994C438.3333333333333,500,436.66666666666663,500,435,499.99999999999994C433.3333333333333,500,431.66666666666663,500,429.99999999999994,499.99999999999994C428.33333333333326,500,426.66666666666663,500,425,499.99999999999994C423.3333333333333,500,421.66666666666663,500,420,499.99999999999994C418.3333333333333,500,416.66666666666663,500,414.99999999999994,499.99999999999994C413.33333333333326,500,411.66666666666663,500,410,499.99999999999994C408.3333333333333,500,406.66666666666663,500,405,499.99999999999994C403.3333333333333,500,401.66666666666663,500,399.99999999999994,499.99999999999994C398.33333333333326,500,396.66666666666663,500,395,499.99999999999994C393.3333333333333,500,391.66666666666663,500,390,499.99999999999994C388.3333333333333,500,386.66666666666663,500,384.99999999999994,499.99999999999994C383.33333333333326,500,381.66666666666663,500,380,499.99999999999994C378.3333333333333,500,376.66666666666663,500,375,499.99999999999994C373.3333333333333,500,371.66666666666663,500,369.99999999999994,499.99999999999994C368.3333333333333,500,366.66666666666663,500,365,499.99999999999994C363.3333333333333,500,361.66666666666663,500,360,499.99999999999994C358.3333333333333,500,356.66666666666663,500,354.99999999999994,499.99999999999994C353.3333333333333,500,351.66666666666663,500,350,499.99999999999994C348.3333333333333,500,346.66666666666663,500,345,499.99999999999994C343.3333333333333,500,341.66666666666663,500,339.99999999999994,499.99999999999994C338.3333333333333,500,336.66666666666663,500,335,499.99999999999994C333.3333333333333,500,331.66666666666663,500,330,499.99999999999994C328.3333333333333,500,326.66666666666663,500,324.99999999999994,499.99999999999994C323.3333333333333,500,321.66666666666663,500,320,499.99999999999994C318.3333333333333,500,316.66666666666663,500,315,499.99999999999994C313.3333333333333,500,311.66666666666663,500,309.99999999999994,499.99999999999994C308.3333333333333,500,306.66666666666663,500,305,499.99999999999994C303.3333333333333,500,301.66666666666663,500,300,499.99999999999994C298.3333333333333,500,296.66666666666663,500,295,499.99999999999994C293.3333333333333,500,291.66666666666663,500,290,499.99999999999994C288.3333333333333,500,286.66666666666663,500,285,499.99999999999994C283.3333333333333,500,281.66666666666663,500,280,499.99999999999994C278.3333333333333,500,276.66666666666663,500,275,499.99999999999994C273.3333333333333,500,271.66666666666663,500,270,499.99999999999994C268.3333333333333,500,266.66666666666663,500,265,499.99999999999994C263.3333333333333,500,261.66666666666663,500,260,499.99999999999994C258.3333333333333,500,256.66666666666663,500,254.99999999999997,499.99999999999994C253.33333333333331,500,251.66666666666666,500,250,499.99999999999994C248.33333333333331,500,246.66666666666663,500,244.99999999999997,499.99999999999994C243.33333333333331,500,241.66666666666666,500,239.99999999999997,499.99999999999994C238.33333333333331,500,236.66666666666666,500,235,499.99999999999994C233.33333333333331,500,231.66666666666663,500,229.99999999999997,499.99999999999994C228.33333333333331,500,226.66666666666666,500,224.99999999999997,499.99999999999994C223.33333333333331,500,221.66666666666666,500,220,499.99999999999994C218.33333333333331,500,216.66666666666663,500,214.99999999999997,499.99999999999994C213.33333333333331,500,211.66666666666666,500,209.99999999999997,499.99999999999994C208.33333333333331,500,206.66666666666666,500,205,499.99999999999994C203.33333333333331,500,201.66666666666663,500,199.99999999999997,499.99999999999994C198.33333333333331,500,196.66666666666666,500,194.99999999999997,499.99999999999994C193.33333333333331,500,191.66666666666666,500,190,499.99999999999994C188.33333333333331,500,186.66666666666666,500,185,499.99999999999994C183.33333333333331,500,181.66666666666666,500,180,499.99999999999994C178.33333333333331,500,176.66666666666666,500,175,499.99999999999994C173.33333333333331,500,171.66666666666666,500,170,499.99999999999994C168.33333333333331,500,166.66666666666666,500,165,499.99999999999994C163.33333333333331,500,161.66666666666666,500,160,499.99999999999994C158.33333333333331,500,156.66666666666666,500,155,499.99999999999994C153.33333333333331,500,151.66666666666666,500,150,499.99999999999994C148.33333333333331,500,146.66666666666666,500,145,499.99999999999994C143.33333333333331,500,141.66666666666666,500,140,499.99999999999994C138.33333333333331,500,136.66666666666666,500,135,499.99999999999994C133.33333333333331,500,131.66666666666666,500,130,499.99999999999994C128.33333333333331,500,126.66666666666666,500,125,499.99999999999994C123.33333333333333,500,121.66666666666666,500,120,499.99999999999994C118.33333333333333,500,116.66666666666666,500,114.99999999999999,499.99999999999994C113.33333333333331,500,111.66666666666666,500,110,499.99999999999994C108.33333333333333,500,106.66666666666666,500,105,499.99999999999994C103.33333333333333,500,101.66666666666666,500,99.99999999999999,499.99999999999994C98.33333333333331,500,96.66666666666666,500,95,499.99999999999994C93.33333333333333,500,91.66666666666666,500,90,499.99999999999994C88.33333333333333,500,86.66666666666666,500,84.99999999999999,499.99999999999994C83.33333333333333,500,81.66666666666666,500,80,499.99999999999994C78.33333333333333,500,76.66666666666666,500,75,499.99999999999994C73.33333333333333,500,71.66666666666666,500,70,499.99999999999994C68.33333333333333,500,66.66666666666666,500,65,499.99999999999994C63.33333333333333,500,61.666666666666664,500,59.99999999999999,499.99999999999994C58.33333333333333,500,56.666666666666664,500,55,499.99999999999994C53.33333333333333,500,51.66666666666666,500,49.99999999999999,499.99999999999994C48.33333333333333,500,46.666666666666664,500,44.99999999999999,499.99999999999994C43.33333333333333,500,41.666666666666664,500,40,499.99999999999994C38.33333333333333,500,36.666666666666664,500,35,499.99999999999994C33.33333333333333,500,31.666666666666664,500,30,499.99999999999994C28.333333333333332,500,26.666666666666664,500,24.999999999999996,499.99999999999994C23.33333333333333,500,21.666666666666664,500,20,499.99999999999994C18.333333333333332,500,16.666666666666664,500,14.999999999999998,499.99999999999994C13.333333333333332,500,11.666666666666666,500,10,499.99999999999994C8.333333333333332,500,6.666666666666666,500,5,499.99999999999994C3.333333333333333,500,1.6666666666666665,500,0.8333333333333333,499.99999999999994L0,500Z"></path></svg>