<svg width="500" height="500" style="background: rgb(233, 63, 114);" version="1.1" xmlns="http://www.w3.org/2000/svg"><g transform="translate(10,0)"><g transform="translate(0,0)"><path fill="#fff" fill-opacity="0.33" d="M0,-28.867513459481287L-25,14.433756729740644L25,14.433756729740644Z" transform=""></path></g><g transform="translate(50,0)"><path fill="#fff" fill-opacity="0.33" d="M0,-28.867513459481287L-25,14.433756729740644L25,14.433756729740644Z" transform=""></path></g><g transform="translate(100,0)"><path fill="#fff" fill-opacity="0.33" d="M0,-28.867513459481287L-25,14.433756729740644L25,14.433756729740644Z" transform=""></path></g><g transform="translate(150,0)"><path fill="#fff" fill-opacity="0.33" d="M0,-28.867513459481287L-25,14.433756729740644L25,14.433756729740644Z" transform=""></path></g><g transform="translate(200,0)"><path fill="#fff" fill-opacity="0.33" d="M0,-28.867513459481287L-25,14.433756729740644L25,14.433756729740644Z" transform=""></path></g><g transform="translate(250,0)"><path fill="#fff" fill-opacity="0.33" d="M0,-28.867513459481287L-25,14.433756729740644L25,14.433756729740644Z" transform=""></path></g><g transform="translate(300,0)"><path fill="#fff" fill-opacity="0.33" d="M0,-28.867513459481287L-25,14.433756729740644L25,14.433756729740644Z" transform=""></path></g><g transform="translate(350,0)"><path fill="#fff" fill-opacity="0.33" d="M0,-28.867513459481287L-25,14.433756729740644L25,14.433756729740644Z" transform=""></path></g><g transform="translate(400,0)"><path fill="#fff" fill-opacity="0.33" d="M0,-28.867513459481287L-25,14.433756729740644L25,14.433756729740644Z" transform=""></path></g><g transform="translate(450,0)"><path fill="#fff" fill-opacity="0.33" d="M0,-28.867513459481287L-25,14.433756729740644L25,14.433756729740644Z" transform=""></path></g><g transform="translate(500,0)"><path fill="#fff" fill-opacity="0.33" d="M0,-28.867513459481287L-25,14.433756729740644L25,14.433756729740644Z" transform=""></path></g></g><g transform="translate(22.5,21.650635094610966)"><g transform="translate(0,0)"><path fill="#fff" fill-opacity="0.33" d="M0,-28.867513459481287L-25,14.433756729740644L25,14.433756729740644Z" transform=""></path></g><g transform="translate(50,0)"><path fill="#fff" fill-opacity="0.33" d="M0,-28.867513459481287L-25,14.433756729740644L25,14.433756729740644Z" transform=""></path></g><g transform="translate(100,0)"><path fill="#fff" fill-opacity="0.33" d="M0,-28.867513459481287L-25,14.433756729740644L25,14.433756729740644Z" transform=""></path></g><g transform="translate(150,0)"><path fill="#fff" fill-opacity="0.33" d="M0,-28.867513459481287L-25,14.433756729740644L25,14.433756729740644Z" transform=""></path></g><g transform="translate(200,0)"><path fill="#fff" fill-opacity="0.33" d="M0,-28.867513459481287L-25,14.433756729740644L25,14.433756729740644Z" transform=""></path></g><g transform="translate(250,0)"><path fill="#fff" fill-opacity="0.33" d="M0,-28.867513459481287L-25,14.433756729740644L25,14.433756729740644Z" transform=""></path></g><g transform="translate(300,0)"><path fill="#fff" fill-opacity="0.33" d="M0,-28.867513459481287L-25,14.433756729740644L25,14.433756729740644Z" transform=""></path></g><g transform="translate(350,0)"><path fill="#fff" fill-opacity="0.33" d="M0,-28.867513459481287L-25,14.433756729740644L25,14.433756729740644Z" transform=""></path></g><g transform="translate(400,0)"><path fill="#fff" fill-opacity="0.33" d="M0,-28.867513459481287L-25,14.433756729740644L25,14.433756729740644Z" transform=""></path></g><g transform="translate(450,0)"><path fill="#fff" fill-opacity="0.33" d="M0,-28.867513459481287L-25,14.433756729740644L25,14.433756729740644Z" transform=""></path></g><g transform="translate(500,0)"><path fill="#fff" fill-opacity="0.33" d="M0,-28.867513459481287L-25,14.433756729740644L25,14.433756729740644Z" transform=""></path></g></g><g transform="translate(10,43.30127018922193)"><g transform="translate(0,0)"><path fill="#fff" fill-opacity="0.33" d="M0,-28.867513459481287L-25,14.433756729740644L25,14.433756729740644Z" transform=""></path></g><g transform="translate(50,0)"><path fill="#fff" fill-opacity="0.33" d="M0,-28.867513459481287L-25,14.433756729740644L25,14.433756729740644Z" transform=""></path></g><g transform="translate(100,0)"><path fill="#fff" fill-opacity="0.33" d="M0,-28.867513459481287L-25,14.433756729740644L25,14.433756729740644Z" transform=""></path></g><g transform="translate(150,0)"><path fill="#fff" fill-opacity="0.33" d="M0,-28.867513459481287L-25,14.433756729740644L25,14.433756729740644Z" transform=""></path></g><g transform="translate(200,0)"><path fill="#fff" fill-opacity="0.33" d="M0,-28.867513459481287L-25,14.433756729740644L25,14.433756729740644Z" transform=""></path></g><g transform="translate(250,0)"><path fill="#fff" fill-opacity="0.33" d="M0,-28.867513459481287L-25,14.433756729740644L25,14.433756729740644Z" transform=""></path></g><g transform="translate(300,0)"><path fill="#fff" fill-opacity="0.33" d="M0,-28.867513459481287L-25,14.433756729740644L25,14.433756729740644Z" transform=""></path></g><g transform="translate(350,0)"><path fill="#fff" fill-opacity="0.33" d="M0,-28.867513459481287L-25,14.433756729740644L25,14.433756729740644Z" transform=""></path></g><g transform="translate(400,0)"><path fill="#fff" fill-opacity="0.33" d="M0,-28.867513459481287L-25,14.433756729740644L25,14.433756729740644Z" transform=""></path></g><g transform="translate(450,0)"><path fill="#fff" fill-opacity="0.33" d="M0,-28.867513459481287L-25,14.433756729740644L25,14.433756729740644Z" transform=""></path></g><g transform="translate(500,0)"><path fill="#fff" fill-opacity="0.33" d="M0,-28.867513459481287L-25,14.433756729740644L25,14.433756729740644Z" transform=""></path></g></g><g transform="translate(22.5,64.9519052838329)"><g transform="translate(0,0)"><path fill="#fff" fill-opacity="0.33" d="M0,-28.867513459481287L-25,14.433756729740644L25,14.433756729740644Z" transform=""></path></g><g transform="translate(50,0)"><path fill="#fff" fill-opacity="0.33" d="M0,-28.867513459481287L-25,14.433756729740644L25,14.433756729740644Z" transform=""></path></g><g transform="translate(100,0)"><path fill="#fff" fill-opacity="0.33" d="M0,-28.867513459481287L-25,14.433756729740644L25,14.433756729740644Z" transform=""></path></g><g transform="translate(150,0)"><path fill="#fff" fill-opacity="0.33" d="M0,-28.867513459481287L-25,14.433756729740644L25,14.433756729740644Z" transform=""></path></g><g transform="translate(200,0)"><path fill="#fff" fill-opacity="0.33" d="M0,-28.867513459481287L-25,14.433756729740644L25,14.433756729740644Z" transform=""></path></g><g transform="translate(250,0)"><path fill="#fff" fill-opacity="0.33" d="M0,-28.867513459481287L-25,14.433756729740644L25,14.433756729740644Z" transform=""></path></g><g transform="translate(300,0)"><path fill="#fff" fill-opacity="0.33" d="M0,-28.867513459481287L-25,14.433756729740644L25,14.433756729740644Z" transform=""></path></g><g transform="translate(350,0)"><path fill="#fff" fill-opacity="0.33" d="M0,-28.867513459481287L-25,14.433756729740644L25,14.433756729740644Z" transform=""></path></g><g transform="translate(400,0)"><path fill="#fff" fill-opacity="0.33" d="M0,-28.867513459481287L-25,14.433756729740644L25,14.433756729740644Z" transform=""></path></g><g transform="translate(450,0)"><path fill="#fff" fill-opacity="0.33" d="M0,-28.867513459481287L-25,14.433756729740644L25,14.433756729740644Z" transform=""></path></g><g transform="translate(500,0)"><path fill="#fff" fill-opacity="0.33" d="M0,-28.867513459481287L-25,14.433756729740644L25,14.433756729740644Z" transform=""></path></g></g><g transform="translate(10,86.60254037844386)"><g transform="translate(0,0)"><path fill="#fff" fill-opacity="0.33" d="M0,-28.867513459481287L-25,14.433756729740644L25,14.433756729740644Z" transform=""></path></g><g transform="translate(50,0)"><path fill="#fff" fill-opacity="0.33" d="M0,-28.867513459481287L-25,14.433756729740644L25,14.433756729740644Z" transform=""></path></g><g transform="translate(100,0)"><path fill="#fff" fill-opacity="0.33" d="M0,-28.867513459481287L-25,14.433756729740644L25,14.433756729740644Z" transform=""></path></g><g transform="translate(150,0)"><path fill="#fff" fill-opacity="0.33" d="M0,-28.867513459481287L-25,14.433756729740644L25,14.433756729740644Z" transform=""></path></g><g transform="translate(200,0)"><path fill="#fff" fill-opacity="0.33" d="M0,-28.867513459481287L-25,14.433756729740644L25,14.433756729740644Z" transform=""></path></g><g transform="translate(250,0)"><path fill="#fff" fill-opacity="0.33" d="M0,-28.867513459481287L-25,14.433756729740644L25,14.433756729740644Z" transform=""></path></g><g transform="translate(300,0)"><path fill="#fff" fill-opacity="0.33" d="M0,-28.867513459481287L-25,14.433756729740644L25,14.433756729740644Z" transform=""></path></g><g transform="translate(350,0)"><path fill="#fff" fill-opacity="0.33" d="M0,-28.867513459481287L-25,14.433756729740644L25,14.433756729740644Z" transform=""></path></g><g transform="translate(400,0)"><path fill="#fff" fill-opacity="0.33" d="M0,-28.867513459481287L-25,14.433756729740644L25,14.433756729740644Z" transform=""></path></g><g transform="translate(450,0)"><path fill="#fff" fill-opacity="0.33" d="M0,-28.867513459481287L-25,14.433756729740644L25,14.433756729740644Z" transform=""></path></g><g transform="translate(500,0)"><path fill="#fff" fill-opacity="0.33" d="M0,-28.867513459481287L-25,14.433756729740644L25,14.433756729740644Z" transform=""></path></g></g><g transform="translate(22.5,108.25317547305482)"><g transform="translate(0,0)"><path fill="#fff" fill-opacity="0.33" d="M0,-28.867513459481287L-25,14.433756729740644L25,14.433756729740644Z" transform=""></path></g><g transform="translate(50,0)"><path fill="#fff" fill-opacity="0.33" d="M0,-28.867513459481287L-25,14.433756729740644L25,14.433756729740644Z" transform=""></path></g><g transform="translate(100,0)"><path fill="#fff" fill-opacity="0.33" d="M0,-28.867513459481287L-25,14.433756729740644L25,14.433756729740644Z" transform=""></path></g><g transform="translate(150,0)"><path fill="#fff" fill-opacity="0.33" d="M0,-28.867513459481287L-25,14.433756729740644L25,14.433756729740644Z" transform=""></path></g><g transform="translate(200,0)"><path fill="#fff" fill-opacity="0.33" d="M0,-28.867513459481287L-25,14.433756729740644L25,14.433756729740644Z" transform=""></path></g><g transform="translate(250,0)"><path fill="#fff" fill-opacity="0.33" d="M0,-28.867513459481287L-25,14.433756729740644L25,14.433756729740644Z" transform=""></path></g><g transform="translate(300,0)"><path fill="#fff" fill-opacity="0.33" d="M0,-28.867513459481287L-25,14.433756729740644L25,14.433756729740644Z" transform=""></path></g><g transform="translate(350,0)"><path fill="#fff" fill-opacity="0.33" d="M0,-28.867513459481287L-25,14.433756729740644L25,14.433756729740644Z" transform=""></path></g><g transform="translate(400,0)"><path fill="#fff" fill-opacity="0.33" d="M0,-28.867513459481287L-25,14.433756729740644L25,14.433756729740644Z" transform=""></path></g><g transform="translate(450,0)"><path fill="#fff" fill-opacity="0.33" d="M0,-28.867513459481287L-25,14.433756729740644L25,14.433756729740644Z" transform=""></path></g><g transform="translate(500,0)"><path fill="#fff" fill-opacity="0.33" d="M0,-28.867513459481287L-25,14.433756729740644L25,14.433756729740644Z" transform=""></path></g></g><g transform="translate(10,129.9038105676658)"><g transform="translate(0,0)"><path fill="#fff" fill-opacity="0.33" d="M0,-28.867513459481287L-25,14.433756729740644L25,14.433756729740644Z" transform=""></path></g><g transform="translate(50,0)"><path fill="#fff" fill-opacity="0.33" d="M0,-28.867513459481287L-25,14.433756729740644L25,14.433756729740644Z" transform=""></path></g><g transform="translate(100,0)"><path fill="#fff" fill-opacity="0.33" d="M0,-28.867513459481287L-25,14.433756729740644L25,14.433756729740644Z" transform=""></path></g><g transform="translate(150,0)"><path fill="#fff" fill-opacity="0.33" d="M0,-28.867513459481287L-25,14.433756729740644L25,14.433756729740644Z" transform=""></path></g><g transform="translate(200,0)"><path fill="#fff" fill-opacity="0.33" d="M0,-28.867513459481287L-25,14.433756729740644L25,14.433756729740644Z" transform=""></path></g><g transform="translate(250,0)"><path fill="#fff" fill-opacity="0.33" d="M0,-28.867513459481287L-25,14.433756729740644L25,14.433756729740644Z" transform=""></path></g><g transform="translate(300,0)"><path fill="#fff" fill-opacity="0.33" d="M0,-28.867513459481287L-25,14.433756729740644L25,14.433756729740644Z" transform=""></path></g><g transform="translate(350,0)"><path fill="#fff" fill-opacity="0.33" d="M0,-28.867513459481287L-25,14.433756729740644L25,14.433756729740644Z" transform=""></path></g><g transform="translate(400,0)"><path fill="#fff" fill-opacity="0.33" d="M0,-28.867513459481287L-25,14.433756729740644L25,14.433756729740644Z" transform=""></path></g><g transform="translate(450,0)"><path fill="#fff" fill-opacity="0.33" d="M0,-28.867513459481287L-25,14.433756729740644L25,14.433756729740644Z" transform=""></path></g><g transform="translate(500,0)"><path fill="#fff" fill-opacity="0.33" d="M0,-28.867513459481287L-25,14.433756729740644L25,14.433756729740644Z" transform=""></path></g></g><g transform="translate(22.5,151.55444566227675)"><g transform="translate(0,0)"><path fill="#fff" fill-opacity="0.33" d="M0,-28.867513459481287L-25,14.433756729740644L25,14.433756729740644Z" transform=""></path></g><g transform="translate(50,0)"><path fill="#fff" fill-opacity="0.33" d="M0,-28.867513459481287L-25,14.433756729740644L25,14.433756729740644Z" transform=""></path></g><g transform="translate(100,0)"><path fill="#fff" fill-opacity="0.33" d="M0,-28.867513459481287L-25,14.433756729740644L25,14.433756729740644Z" transform=""></path></g><g transform="translate(150,0)"><path fill="#fff" fill-opacity="0.33" d="M0,-28.867513459481287L-25,14.433756729740644L25,14.433756729740644Z" transform=""></path></g><g transform="translate(200,0)"><path fill="#fff" fill-opacity="0.33" d="M0,-28.867513459481287L-25,14.433756729740644L25,14.433756729740644Z" transform=""></path></g><g transform="translate(250,0)"><path fill="#fff" fill-opacity="0.33" d="M0,-28.867513459481287L-25,14.433756729740644L25,14.433756729740644Z" transform=""></path></g><g transform="translate(300,0)"><path fill="#fff" fill-opacity="0.33" d="M0,-28.867513459481287L-25,14.433756729740644L25,14.433756729740644Z" transform=""></path></g><g transform="translate(350,0)"><path fill="#fff" fill-opacity="0.33" d="M0,-28.867513459481287L-25,14.433756729740644L25,14.433756729740644Z" transform=""></path></g><g transform="translate(400,0)"><path fill="#fff" fill-opacity="0.33" d="M0,-28.867513459481287L-25,14.433756729740644L25,14.433756729740644Z" transform=""></path></g><g transform="translate(450,0)"><path fill="#fff" fill-opacity="0.33" d="M0,-28.867513459481287L-25,14.433756729740644L25,14.433756729740644Z" transform=""></path></g><g transform="translate(500,0)"><path fill="#fff" fill-opacity="0.33" d="M0,-28.867513459481287L-25,14.433756729740644L25,14.433756729740644Z" transform=""></path></g></g><g transform="translate(10,173.20508075688772)"><g transform="translate(0,0)"><path fill="#fff" fill-opacity="0.33" d="M0,-28.867513459481287L-25,14.433756729740644L25,14.433756729740644Z" transform=""></path></g><g transform="translate(50,0)"><path fill="#fff" fill-opacity="0.33" d="M0,-28.867513459481287L-25,14.433756729740644L25,14.433756729740644Z" transform=""></path></g><g transform="translate(100,0)"><path fill="#fff" fill-opacity="0.33" d="M0,-28.867513459481287L-25,14.433756729740644L25,14.433756729740644Z" transform=""></path></g><g transform="translate(150,0)"><path fill="#fff" fill-opacity="0.33" d="M0,-28.867513459481287L-25,14.433756729740644L25,14.433756729740644Z" transform=""></path></g><g transform="translate(200,0)"><path fill="#fff" fill-opacity="0.33" d="M0,-28.867513459481287L-25,14.433756729740644L25,14.433756729740644Z" transform=""></path></g><g transform="translate(250,0)"><path fill="#fff" fill-opacity="0.33" d="M0,-28.867513459481287L-25,14.433756729740644L25,14.433756729740644Z" transform=""></path></g><g transform="translate(300,0)"><path fill="#fff" fill-opacity="0.33" d="M0,-28.867513459481287L-25,14.433756729740644L25,14.433756729740644Z" transform=""></path></g><g transform="translate(350,0)"><path fill="#fff" fill-opacity="0.33" d="M0,-28.867513459481287L-25,14.433756729740644L25,14.433756729740644Z" transform=""></path></g><g transform="translate(400,0)"><path fill="#fff" fill-opacity="0.33" d="M0,-28.867513459481287L-25,14.433756729740644L25,14.433756729740644Z" transform=""></path></g><g transform="translate(450,0)"><path fill="#fff" fill-opacity="0.33" d="M0,-28.867513459481287L-25,14.433756729740644L25,14.433756729740644Z" transform=""></path></g><g transform="translate(500,0)"><path fill="#fff" fill-opacity="0.33" d="M0,-28.867513459481287L-25,14.433756729740644L25,14.433756729740644Z" transform=""></path></g></g><g transform="translate(22.5,194.8557158514987)"><g transform="translate(0,0)"><path fill="#fff" fill-opacity="0.33" d="M0,-28.867513459481287L-25,14.433756729740644L25,14.433756729740644Z" transform=""></path></g><g transform="translate(50,0)"><path fill="#fff" fill-opacity="0.33" d="M0,-28.867513459481287L-25,14.433756729740644L25,14.433756729740644Z" transform=""></path></g><g transform="translate(100,0)"><path fill="#fff" fill-opacity="0.33" d="M0,-28.867513459481287L-25,14.433756729740644L25,14.433756729740644Z" transform=""></path></g><g transform="translate(150,0)"><path fill="#fff" fill-opacity="0.33" d="M0,-28.867513459481287L-25,14.433756729740644L25,14.433756729740644Z" transform=""></path></g><g transform="translate(200,0)"><path fill="#fff" fill-opacity="0.33" d="M0,-28.867513459481287L-25,14.433756729740644L25,14.433756729740644Z" transform=""></path></g><g transform="translate(250,0)"><path fill="#fff" fill-opacity="0.33" d="M0,-28.867513459481287L-25,14.433756729740644L25,14.433756729740644Z" transform=""></path></g><g transform="translate(300,0)"><path fill="#fff" fill-opacity="0.33" d="M0,-28.867513459481287L-25,14.433756729740644L25,14.433756729740644Z" transform=""></path></g><g transform="translate(350,0)"><path fill="#fff" fill-opacity="0.33" d="M0,-28.867513459481287L-25,14.433756729740644L25,14.433756729740644Z" transform=""></path></g><g transform="translate(400,0)"><path fill="#fff" fill-opacity="0.33" d="M0,-28.867513459481287L-25,14.433756729740644L25,14.433756729740644Z" transform=""></path></g><g transform="translate(450,0)"><path fill="#fff" fill-opacity="0.33" d="M0,-28.867513459481287L-25,14.433756729740644L25,14.433756729740644Z" transform=""></path></g><g transform="translate(500,0)"><path fill="#fff" fill-opacity="0.33" d="M0,-28.867513459481287L-25,14.433756729740644L25,14.433756729740644Z" transform=""></path></g></g><g transform="translate(10,216.50635094610965)"><g transform="translate(0,0)"><path fill="#fff" fill-opacity="0.33" d="M0,-28.867513459481287L-25,14.433756729740644L25,14.433756729740644Z" transform=""></path></g><g transform="translate(50,0)"><path fill="#fff" fill-opacity="0.33" d="M0,-28.867513459481287L-25,14.433756729740644L25,14.433756729740644Z" transform=""></path></g><g transform="translate(100,0)"><path fill="#fff" fill-opacity="0.33" d="M0,-28.867513459481287L-25,14.433756729740644L25,14.433756729740644Z" transform=""></path></g><g transform="translate(150,0)"><path fill="#fff" fill-opacity="0.33" d="M0,-28.867513459481287L-25,14.433756729740644L25,14.433756729740644Z" transform=""></path></g><g transform="translate(200,0)"><path fill="#fff" fill-opacity="0.33" d="M0,-28.867513459481287L-25,14.433756729740644L25,14.433756729740644Z" transform=""></path></g><g transform="translate(250,0)"><path fill="#fff" fill-opacity="0.33" d="M0,-28.867513459481287L-25,14.433756729740644L25,14.433756729740644Z" transform=""></path></g><g transform="translate(300,0)"><path fill="#fff" fill-opacity="0.33" d="M0,-28.867513459481287L-25,14.433756729740644L25,14.433756729740644Z" transform=""></path></g><g transform="translate(350,0)"><path fill="#fff" fill-opacity="0.33" d="M0,-28.867513459481287L-25,14.433756729740644L25,14.433756729740644Z" transform=""></path></g><g transform="translate(400,0)"><path fill="#fff" fill-opacity="0.33" d="M0,-28.867513459481287L-25,14.433756729740644L25,14.433756729740644Z" transform=""></path></g><g transform="translate(450,0)"><path fill="#fff" fill-opacity="0.33" d="M0,-28.867513459481287L-25,14.433756729740644L25,14.433756729740644Z" transform=""></path></g><g transform="translate(500,0)"><path fill="#fff" fill-opacity="0.33" d="M0,-28.867513459481287L-25,14.433756729740644L25,14.433756729740644Z" transform=""></path></g></g><g transform="translate(22.5,238.15698604072062)"><g transform="translate(0,0)"><path fill="#fff" fill-opacity="0.33" d="M0,-28.867513459481287L-25,14.433756729740644L25,14.433756729740644Z" transform=""></path></g><g transform="translate(50,0)"><path fill="#fff" fill-opacity="0.33" d="M0,-28.867513459481287L-25,14.433756729740644L25,14.433756729740644Z" transform=""></path></g><g transform="translate(100,0)"><path fill="#fff" fill-opacity="0.33" d="M0,-28.867513459481287L-25,14.433756729740644L25,14.433756729740644Z" transform=""></path></g><g transform="translate(150,0)"><path fill="#fff" fill-opacity="0.33" d="M0,-28.867513459481287L-25,14.433756729740644L25,14.433756729740644Z" transform=""></path></g><g transform="translate(200,0)"><path fill="#fff" fill-opacity="0.33" d="M0,-28.867513459481287L-25,14.433756729740644L25,14.433756729740644Z" transform=""></path></g><g transform="translate(250,0)"><path fill="#fff" fill-opacity="0.33" d="M0,-28.867513459481287L-25,14.433756729740644L25,14.433756729740644Z" transform=""></path></g><g transform="translate(300,0)"><path fill="#fff" fill-opacity="0.33" d="M0,-28.867513459481287L-25,14.433756729740644L25,14.433756729740644Z" transform=""></path></g><g transform="translate(350,0)"><path fill="#fff" fill-opacity="0.33" d="M0,-28.867513459481287L-25,14.433756729740644L25,14.433756729740644Z" transform=""></path></g><g transform="translate(400,0)"><path fill="#fff" fill-opacity="0.33" d="M0,-28.867513459481287L-25,14.433756729740644L25,14.433756729740644Z" transform=""></path></g><g transform="translate(450,0)"><path fill="#fff" fill-opacity="0.33" d="M0,-28.867513459481287L-25,14.433756729740644L25,14.433756729740644Z" transform=""></path></g><g transform="translate(500,0)"><path fill="#fff" fill-opacity="0.33" d="M0,-28.867513459481287L-25,14.433756729740644L25,14.433756729740644Z" transform=""></path></g></g><g transform="translate(10,259.8076211353316)"><g transform="translate(0,0)"><path fill="#fff" fill-opacity="0.33" d="M0,-28.867513459481287L-25,14.433756729740644L25,14.433756729740644Z" transform=""></path></g><g transform="translate(50,0)"><path fill="#fff" fill-opacity="0.33" d="M0,-28.867513459481287L-25,14.433756729740644L25,14.433756729740644Z" transform=""></path></g><g transform="translate(100,0)"><path fill="#fff" fill-opacity="0.33" d="M0,-28.867513459481287L-25,14.433756729740644L25,14.433756729740644Z" transform=""></path></g><g transform="translate(150,0)"><path fill="#fff" fill-opacity="0.33" d="M0,-28.867513459481287L-25,14.433756729740644L25,14.433756729740644Z" transform=""></path></g><g transform="translate(200,0)"><path fill="#fff" fill-opacity="0.33" d="M0,-28.867513459481287L-25,14.433756729740644L25,14.433756729740644Z" transform=""></path></g><g transform="translate(250,0)"><path fill="#fff" fill-opacity="0.33" d="M0,-28.867513459481287L-25,14.433756729740644L25,14.433756729740644Z" transform=""></path></g><g transform="translate(300,0)"><path fill="#fff" fill-opacity="0.33" d="M0,-28.867513459481287L-25,14.433756729740644L25,14.433756729740644Z" transform=""></path></g><g transform="translate(350,0)"><path fill="#fff" fill-opacity="0.33" d="M0,-28.867513459481287L-25,14.433756729740644L25,14.433756729740644Z" transform=""></path></g><g transform="translate(400,0)"><path fill="#fff" fill-opacity="0.33" d="M0,-28.867513459481287L-25,14.433756729740644L25,14.433756729740644Z" transform=""></path></g><g transform="translate(450,0)"><path fill="#fff" fill-opacity="0.33" d="M0,-28.867513459481287L-25,14.433756729740644L25,14.433756729740644Z" transform=""></path></g><g transform="translate(500,0)"><path fill="#fff" fill-opacity="0.33" d="M0,-28.867513459481287L-25,14.433756729740644L25,14.433756729740644Z" transform=""></path></g></g><g transform="translate(22.5,281.45825622994255)"><g transform="translate(0,0)"><path fill="#fff" fill-opacity="0.33" d="M0,-28.867513459481287L-25,14.433756729740644L25,14.433756729740644Z" transform=""></path></g><g transform="translate(50,0)"><path fill="#fff" fill-opacity="0.33" d="M0,-28.867513459481287L-25,14.433756729740644L25,14.433756729740644Z" transform=""></path></g><g transform="translate(100,0)"><path fill="#fff" fill-opacity="0.33" d="M0,-28.867513459481287L-25,14.433756729740644L25,14.433756729740644Z" transform=""></path></g><g transform="translate(150,0)"><path fill="#fff" fill-opacity="0.33" d="M0,-28.867513459481287L-25,14.433756729740644L25,14.433756729740644Z" transform=""></path></g><g transform="translate(200,0)"><path fill="#fff" fill-opacity="0.33" d="M0,-28.867513459481287L-25,14.433756729740644L25,14.433756729740644Z" transform=""></path></g><g transform="translate(250,0)"><path fill="#fff" fill-opacity="0.33" d="M0,-28.867513459481287L-25,14.433756729740644L25,14.433756729740644Z" transform=""></path></g><g transform="translate(300,0)"><path fill="#fff" fill-opacity="0.33" d="M0,-28.867513459481287L-25,14.433756729740644L25,14.433756729740644Z" transform=""></path></g><g transform="translate(350,0)"><path fill="#fff" fill-opacity="0.33" d="M0,-28.867513459481287L-25,14.433756729740644L25,14.433756729740644Z" transform=""></path></g><g transform="translate(400,0)"><path fill="#fff" fill-opacity="0.33" d="M0,-28.867513459481287L-25,14.433756729740644L25,14.433756729740644Z" transform=""></path></g><g transform="translate(450,0)"><path fill="#fff" fill-opacity="0.33" d="M0,-28.867513459481287L-25,14.433756729740644L25,14.433756729740644Z" transform=""></path></g><g transform="translate(500,0)"><path fill="#fff" fill-opacity="0.33" d="M0,-28.867513459481287L-25,14.433756729740644L25,14.433756729740644Z" transform=""></path></g></g><g transform="translate(10,303.1088913245535)"><g transform="translate(0,0)"><path fill="#fff" fill-opacity="0.33" d="M0,-28.867513459481287L-25,14.433756729740644L25,14.433756729740644Z" transform=""></path></g><g transform="translate(50,0)"><path fill="#fff" fill-opacity="0.33" d="M0,-28.867513459481287L-25,14.433756729740644L25,14.433756729740644Z" transform=""></path></g><g transform="translate(100,0)"><path fill="#fff" fill-opacity="0.33" d="M0,-28.867513459481287L-25,14.433756729740644L25,14.433756729740644Z" transform=""></path></g><g transform="translate(150,0)"><path fill="#fff" fill-opacity="0.33" d="M0,-28.867513459481287L-25,14.433756729740644L25,14.433756729740644Z" transform=""></path></g><g transform="translate(200,0)"><path fill="#fff" fill-opacity="0.33" d="M0,-28.867513459481287L-25,14.433756729740644L25,14.433756729740644Z" transform=""></path></g><g transform="translate(250,0)"><path fill="#fff" fill-opacity="0.33" d="M0,-28.867513459481287L-25,14.433756729740644L25,14.433756729740644Z" transform=""></path></g><g transform="translate(300,0)"><path fill="#fff" fill-opacity="0.33" d="M0,-28.867513459481287L-25,14.433756729740644L25,14.433756729740644Z" transform=""></path></g><g transform="translate(350,0)"><path fill="#fff" fill-opacity="0.33" d="M0,-28.867513459481287L-25,14.433756729740644L25,14.433756729740644Z" transform=""></path></g><g transform="translate(400,0)"><path fill="#fff" fill-opacity="0.33" d="M0,-28.867513459481287L-25,14.433756729740644L25,14.433756729740644Z" transform=""></path></g><g transform="translate(450,0)"><path fill="#fff" fill-opacity="0.33" d="M0,-28.867513459481287L-25,14.433756729740644L25,14.433756729740644Z" transform=""></path></g><g transform="translate(500,0)"><path fill="#fff" fill-opacity="0.33" d="M0,-28.867513459481287L-25,14.433756729740644L25,14.433756729740644Z" transform=""></path></g></g><g transform="translate(22.5,324.7595264191645)"><g transform="translate(0,0)"><path fill="#fff" fill-opacity="0.33" d="M0,-28.867513459481287L-25,14.433756729740644L25,14.433756729740644Z" transform=""></path></g><g transform="translate(50,0)"><path fill="#fff" fill-opacity="0.33" d="M0,-28.867513459481287L-25,14.433756729740644L25,14.433756729740644Z" transform=""></path></g><g transform="translate(100,0)"><path fill="#fff" fill-opacity="0.33" d="M0,-28.867513459481287L-25,14.433756729740644L25,14.433756729740644Z" transform=""></path></g><g transform="translate(150,0)"><path fill="#fff" fill-opacity="0.33" d="M0,-28.867513459481287L-25,14.433756729740644L25,14.433756729740644Z" transform=""></path></g><g transform="translate(200,0)"><path fill="#fff" fill-opacity="0.33" d="M0,-28.867513459481287L-25,14.433756729740644L25,14.433756729740644Z" transform=""></path></g><g transform="translate(250,0)"><path fill="#fff" fill-opacity="0.33" d="M0,-28.867513459481287L-25,14.433756729740644L25,14.433756729740644Z" transform=""></path></g><g transform="translate(300,0)"><path fill="#fff" fill-opacity="0.33" d="M0,-28.867513459481287L-25,14.433756729740644L25,14.433756729740644Z" transform=""></path></g><g transform="translate(350,0)"><path fill="#fff" fill-opacity="0.33" d="M0,-28.867513459481287L-25,14.433756729740644L25,14.433756729740644Z" transform=""></path></g><g transform="translate(400,0)"><path fill="#fff" fill-opacity="0.33" d="M0,-28.867513459481287L-25,14.433756729740644L25,14.433756729740644Z" transform=""></path></g><g transform="translate(450,0)"><path fill="#fff" fill-opacity="0.33" d="M0,-28.867513459481287L-25,14.433756729740644L25,14.433756729740644Z" transform=""></path></g><g transform="translate(500,0)"><path fill="#fff" fill-opacity="0.33" d="M0,-28.867513459481287L-25,14.433756729740644L25,14.433756729740644Z" transform=""></path></g></g><g transform="translate(10,346.41016151377545)"><g transform="translate(0,0)"><path fill="#fff" fill-opacity="0.33" d="M0,-28.867513459481287L-25,14.433756729740644L25,14.433756729740644Z" transform=""></path></g><g transform="translate(50,0)"><path fill="#fff" fill-opacity="0.33" d="M0,-28.867513459481287L-25,14.433756729740644L25,14.433756729740644Z" transform=""></path></g><g transform="translate(100,0)"><path fill="#fff" fill-opacity="0.33" d="M0,-28.867513459481287L-25,14.433756729740644L25,14.433756729740644Z" transform=""></path></g><g transform="translate(150,0)"><path fill="#fff" fill-opacity="0.33" d="M0,-28.867513459481287L-25,14.433756729740644L25,14.433756729740644Z" transform=""></path></g><g transform="translate(200,0)"><path fill="#fff" fill-opacity="0.33" d="M0,-28.867513459481287L-25,14.433756729740644L25,14.433756729740644Z" transform=""></path></g><g transform="translate(250,0)"><path fill="#fff" fill-opacity="0.33" d="M0,-28.867513459481287L-25,14.433756729740644L25,14.433756729740644Z" transform=""></path></g><g transform="translate(300,0)"><path fill="#fff" fill-opacity="0.33" d="M0,-28.867513459481287L-25,14.433756729740644L25,14.433756729740644Z" transform=""></path></g><g transform="translate(350,0)"><path fill="#fff" fill-opacity="0.33" d="M0,-28.867513459481287L-25,14.433756729740644L25,14.433756729740644Z" transform=""></path></g><g transform="translate(400,0)"><path fill="#fff" fill-opacity="0.33" d="M0,-28.867513459481287L-25,14.433756729740644L25,14.433756729740644Z" transform=""></path></g><g transform="translate(450,0)"><path fill="#fff" fill-opacity="0.33" d="M0,-28.867513459481287L-25,14.433756729740644L25,14.433756729740644Z" transform=""></path></g><g transform="translate(500,0)"><path fill="#fff" fill-opacity="0.33" d="M0,-28.867513459481287L-25,14.433756729740644L25,14.433756729740644Z" transform=""></path></g></g><g transform="translate(22.5,368.0607966083864)"><g transform="translate(0,0)"><path fill="#fff" fill-opacity="0.33" d="M0,-28.867513459481287L-25,14.433756729740644L25,14.433756729740644Z" transform=""></path></g><g transform="translate(50,0)"><path fill="#fff" fill-opacity="0.33" d="M0,-28.867513459481287L-25,14.433756729740644L25,14.433756729740644Z" transform=""></path></g><g transform="translate(100,0)"><path fill="#fff" fill-opacity="0.33" d="M0,-28.867513459481287L-25,14.433756729740644L25,14.433756729740644Z" transform=""></path></g><g transform="translate(150,0)"><path fill="#fff" fill-opacity="0.33" d="M0,-28.867513459481287L-25,14.433756729740644L25,14.433756729740644Z" transform=""></path></g><g transform="translate(200,0)"><path fill="#fff" fill-opacity="0.33" d="M0,-28.867513459481287L-25,14.433756729740644L25,14.433756729740644Z" transform=""></path></g><g transform="translate(250,0)"><path fill="#fff" fill-opacity="0.33" d="M0,-28.867513459481287L-25,14.433756729740644L25,14.433756729740644Z" transform=""></path></g><g transform="translate(300,0)"><path fill="#fff" fill-opacity="0.33" d="M0,-28.867513459481287L-25,14.433756729740644L25,14.433756729740644Z" transform=""></path></g><g transform="translate(350,0)"><path fill="#fff" fill-opacity="0.33" d="M0,-28.867513459481287L-25,14.433756729740644L25,14.433756729740644Z" transform=""></path></g><g transform="translate(400,0)"><path fill="#fff" fill-opacity="0.33" d="M0,-28.867513459481287L-25,14.433756729740644L25,14.433756729740644Z" transform=""></path></g><g transform="translate(450,0)"><path fill="#fff" fill-opacity="0.33" d="M0,-28.867513459481287L-25,14.433756729740644L25,14.433756729740644Z" transform=""></path></g><g transform="translate(500,0)"><path fill="#fff" fill-opacity="0.33" d="M0,-28.867513459481287L-25,14.433756729740644L25,14.433756729740644Z" transform=""></path></g></g><g transform="translate(10,389.7114317029974)"><g transform="translate(0,0)"><path fill="#fff" fill-opacity="0.33" d="M0,-28.867513459481287L-25,14.433756729740644L25,14.433756729740644Z" transform=""></path></g><g transform="translate(50,0)"><path fill="#fff" fill-opacity="0.33" d="M0,-28.867513459481287L-25,14.433756729740644L25,14.433756729740644Z" transform=""></path></g><g transform="translate(100,0)"><path fill="#fff" fill-opacity="0.33" d="M0,-28.867513459481287L-25,14.433756729740644L25,14.433756729740644Z" transform=""></path></g><g transform="translate(150,0)"><path fill="#fff" fill-opacity="0.33" d="M0,-28.867513459481287L-25,14.433756729740644L25,14.433756729740644Z" transform=""></path></g><g transform="translate(200,0)"><path fill="#fff" fill-opacity="0.33" d="M0,-28.867513459481287L-25,14.433756729740644L25,14.433756729740644Z" transform=""></path></g><g transform="translate(250,0)"><path fill="#fff" fill-opacity="0.33" d="M0,-28.867513459481287L-25,14.433756729740644L25,14.433756729740644Z" transform=""></path></g><g transform="translate(300,0)"><path fill="#fff" fill-opacity="0.33" d="M0,-28.867513459481287L-25,14.433756729740644L25,14.433756729740644Z" transform=""></path></g><g transform="translate(350,0)"><path fill="#fff" fill-opacity="0.33" d="M0,-28.867513459481287L-25,14.433756729740644L25,14.433756729740644Z" transform=""></path></g><g transform="translate(400,0)"><path fill="#fff" fill-opacity="0.33" d="M0,-28.867513459481287L-25,14.433756729740644L25,14.433756729740644Z" transform=""></path></g><g transform="translate(450,0)"><path fill="#fff" fill-opacity="0.33" d="M0,-28.867513459481287L-25,14.433756729740644L25,14.433756729740644Z" transform=""></path></g><g transform="translate(500,0)"><path fill="#fff" fill-opacity="0.33" d="M0,-28.867513459481287L-25,14.433756729740644L25,14.433756729740644Z" transform=""></path></g></g><g transform="translate(22.5,411.36206679760835)"><g transform="translate(0,0)"><path fill="#fff" fill-opacity="0.33" d="M0,-28.867513459481287L-25,14.433756729740644L25,14.433756729740644Z" transform=""></path></g><g transform="translate(50,0)"><path fill="#fff" fill-opacity="0.33" d="M0,-28.867513459481287L-25,14.433756729740644L25,14.433756729740644Z" transform=""></path></g><g transform="translate(100,0)"><path fill="#fff" fill-opacity="0.33" d="M0,-28.867513459481287L-25,14.433756729740644L25,14.433756729740644Z" transform=""></path></g><g transform="translate(150,0)"><path fill="#fff" fill-opacity="0.33" d="M0,-28.867513459481287L-25,14.433756729740644L25,14.433756729740644Z" transform=""></path></g><g transform="translate(200,0)"><path fill="#fff" fill-opacity="0.33" d="M0,-28.867513459481287L-25,14.433756729740644L25,14.433756729740644Z" transform=""></path></g><g transform="translate(250,0)"><path fill="#fff" fill-opacity="0.33" d="M0,-28.867513459481287L-25,14.433756729740644L25,14.433756729740644Z" transform=""></path></g><g transform="translate(300,0)"><path fill="#fff" fill-opacity="0.33" d="M0,-28.867513459481287L-25,14.433756729740644L25,14.433756729740644Z" transform=""></path></g><g transform="translate(350,0)"><path fill="#fff" fill-opacity="0.33" d="M0,-28.867513459481287L-25,14.433756729740644L25,14.433756729740644Z" transform=""></path></g><g transform="translate(400,0)"><path fill="#fff" fill-opacity="0.33" d="M0,-28.867513459481287L-25,14.433756729740644L25,14.433756729740644Z" transform=""></path></g><g transform="translate(450,0)"><path fill="#fff" fill-opacity="0.33" d="M0,-28.867513459481287L-25,14.433756729740644L25,14.433756729740644Z" transform=""></path></g><g transform="translate(500,0)"><path fill="#fff" fill-opacity="0.33" d="M0,-28.867513459481287L-25,14.433756729740644L25,14.433756729740644Z" transform=""></path></g></g><g transform="translate(10,433.0127018922193)"><g transform="translate(0,0)"><path fill="#fff" fill-opacity="0.33" d="M0,-28.867513459481287L-25,14.433756729740644L25,14.433756729740644Z" transform=""></path></g><g transform="translate(50,0)"><path fill="#fff" fill-opacity="0.33" d="M0,-28.867513459481287L-25,14.433756729740644L25,14.433756729740644Z" transform=""></path></g><g transform="translate(100,0)"><path fill="#fff" fill-opacity="0.33" d="M0,-28.867513459481287L-25,14.433756729740644L25,14.433756729740644Z" transform=""></path></g><g transform="translate(150,0)"><path fill="#fff" fill-opacity="0.33" d="M0,-28.867513459481287L-25,14.433756729740644L25,14.433756729740644Z" transform=""></path></g><g transform="translate(200,0)"><path fill="#fff" fill-opacity="0.33" d="M0,-28.867513459481287L-25,14.433756729740644L25,14.433756729740644Z" transform=""></path></g><g transform="translate(250,0)"><path fill="#fff" fill-opacity="0.33" d="M0,-28.867513459481287L-25,14.433756729740644L25,14.433756729740644Z" transform=""></path></g><g transform="translate(300,0)"><path fill="#fff" fill-opacity="0.33" d="M0,-28.867513459481287L-25,14.433756729740644L25,14.433756729740644Z" transform=""></path></g><g transform="translate(350,0)"><path fill="#fff" fill-opacity="0.33" d="M0,-28.867513459481287L-25,14.433756729740644L25,14.433756729740644Z" transform=""></path></g><g transform="translate(400,0)"><path fill="#fff" fill-opacity="0.33" d="M0,-28.867513459481287L-25,14.433756729740644L25,14.433756729740644Z" transform=""></path></g><g transform="translate(450,0)"><path fill="#fff" fill-opacity="0.33" d="M0,-28.867513459481287L-25,14.433756729740644L25,14.433756729740644Z" transform=""></path></g><g transform="translate(500,0)"><path fill="#fff" fill-opacity="0.33" d="M0,-28.867513459481287L-25,14.433756729740644L25,14.433756729740644Z" transform=""></path></g></g><g transform="translate(22.5,454.6633369868303)"><g transform="translate(0,0)"><path fill="#fff" fill-opacity="0.33" d="M0,-28.867513459481287L-25,14.433756729740644L25,14.433756729740644Z" transform=""></path></g><g transform="translate(50,0)"><path fill="#fff" fill-opacity="0.33" d="M0,-28.867513459481287L-25,14.433756729740644L25,14.433756729740644Z" transform=""></path></g><g transform="translate(100,0)"><path fill="#fff" fill-opacity="0.33" d="M0,-28.867513459481287L-25,14.433756729740644L25,14.433756729740644Z" transform=""></path></g><g transform="translate(150,0)"><path fill="#fff" fill-opacity="0.33" d="M0,-28.867513459481287L-25,14.433756729740644L25,14.433756729740644Z" transform=""></path></g><g transform="translate(200,0)"><path fill="#fff" fill-opacity="0.33" d="M0,-28.867513459481287L-25,14.433756729740644L25,14.433756729740644Z" transform=""></path></g><g transform="translate(250,0)"><path fill="#fff" fill-opacity="0.33" d="M0,-28.867513459481287L-25,14.433756729740644L25,14.433756729740644Z" transform=""></path></g><g transform="translate(300,0)"><path fill="#fff" fill-opacity="0.33" d="M0,-28.867513459481287L-25,14.433756729740644L25,14.433756729740644Z" transform=""></path></g><g transform="translate(350,0)"><path fill="#fff" fill-opacity="0.33" d="M0,-28.867513459481287L-25,14.433756729740644L25,14.433756729740644Z" transform=""></path></g><g transform="translate(400,0)"><path fill="#fff" fill-opacity="0.33" d="M0,-28.867513459481287L-25,14.433756729740644L25,14.433756729740644Z" transform=""></path></g><g transform="translate(450,0)"><path fill="#fff" fill-opacity="0.33" d="M0,-28.867513459481287L-25,14.433756729740644L25,14.433756729740644Z" transform=""></path></g><g transform="translate(500,0)"><path fill="#fff" fill-opacity="0.33" d="M0,-28.867513459481287L-25,14.433756729740644L25,14.433756729740644Z" transform=""></path></g></g><g transform="translate(10,476.31397208144125)"><g transform="translate(0,0)"><path fill="#fff" fill-opacity="0.33" d="M0,-28.867513459481287L-25,14.433756729740644L25,14.433756729740644Z" transform=""></path></g><g transform="translate(50,0)"><path fill="#fff" fill-opacity="0.33" d="M0,-28.867513459481287L-25,14.433756729740644L25,14.433756729740644Z" transform=""></path></g><g transform="translate(100,0)"><path fill="#fff" fill-opacity="0.33" d="M0,-28.867513459481287L-25,14.433756729740644L25,14.433756729740644Z" transform=""></path></g><g transform="translate(150,0)"><path fill="#fff" fill-opacity="0.33" d="M0,-28.867513459481287L-25,14.433756729740644L25,14.433756729740644Z" transform=""></path></g><g transform="translate(200,0)"><path fill="#fff" fill-opacity="0.33" d="M0,-28.867513459481287L-25,14.433756729740644L25,14.433756729740644Z" transform=""></path></g><g transform="translate(250,0)"><path fill="#fff" fill-opacity="0.33" d="M0,-28.867513459481287L-25,14.433756729740644L25,14.433756729740644Z" transform=""></path></g><g transform="translate(300,0)"><path fill="#fff" fill-opacity="0.33" d="M0,-28.867513459481287L-25,14.433756729740644L25,14.433756729740644Z" transform=""></path></g><g transform="translate(350,0)"><path fill="#fff" fill-opacity="0.33" d="M0,-28.867513459481287L-25,14.433756729740644L25,14.433756729740644Z" transform=""></path></g><g transform="translate(400,0)"><path fill="#fff" fill-opacity="0.33" d="M0,-28.867513459481287L-25,14.433756729740644L25,14.433756729740644Z" transform=""></path></g><g transform="translate(450,0)"><path fill="#fff" fill-opacity="0.33" d="M0,-28.867513459481287L-25,14.433756729740644L25,14.433756729740644Z" transform=""></path></g><g transform="translate(500,0)"><path fill="#fff" fill-opacity="0.33" d="M0,-28.867513459481287L-25,14.433756729740644L25,14.433756729740644Z" transform=""></path></g></g><g transform="translate(22.5,497.9646071760522)"><g transform="translate(0,0)"><path fill="#fff" fill-opacity="0.33" d="M0,-28.867513459481287L-25,14.433756729740644L25,14.433756729740644Z" transform=""></path></g><g transform="translate(50,0)"><path fill="#fff" fill-opacity="0.33" d="M0,-28.867513459481287L-25,14.433756729740644L25,14.433756729740644Z" transform=""></path></g><g transform="translate(100,0)"><path fill="#fff" fill-opacity="0.33" d="M0,-28.867513459481287L-25,14.433756729740644L25,14.433756729740644Z" transform=""></path></g><g transform="translate(150,0)"><path fill="#fff" fill-opacity="0.33" d="M0,-28.867513459481287L-25,14.433756729740644L25,14.433756729740644Z" transform=""></path></g><g transform="translate(200,0)"><path fill="#fff" fill-opacity="0.33" d="M0,-28.867513459481287L-25,14.433756729740644L25,14.433756729740644Z" transform=""></path></g><g transform="translate(250,0)"><path fill="#fff" fill-opacity="0.33" d="M0,-28.867513459481287L-25,14.433756729740644L25,14.433756729740644Z" transform=""></path></g><g transform="translate(300,0)"><path fill="#fff" fill-opacity="0.33" d="M0,-28.867513459481287L-25,14.433756729740644L25,14.433756729740644Z" transform=""></path></g><g transform="translate(350,0)"><path fill="#fff" fill-opacity="0.33" d="M0,-28.867513459481287L-25,14.433756729740644L25,14.433756729740644Z" transform=""></path></g><g transform="translate(400,0)"><path fill="#fff" fill-opacity="0.33" d="M0,-28.867513459481287L-25,14.433756729740644L25,14.433756729740644Z" transform=""></path></g><g transform="translate(450,0)"><path fill="#fff" fill-opacity="0.33" d="M0,-28.867513459481287L-25,14.433756729740644L25,14.433756729740644Z" transform=""></path></g><g transform="translate(500,0)"><path fill="#fff" fill-opacity="0.33" d="M0,-28.867513459481287L-25,14.433756729740644L25,14.433756729740644Z"></path></g></g><g transform="translate(10,519.6152422706632)"><g transform="translate(0,0)"><path fill="#fff" fill-opacity="0.33" d="M0,-28.867513459481287L-25,14.433756729740644L25,14.433756729740644Z" transform=""></path></g><g transform="translate(50,0)"><path fill="#fff" fill-opacity="0.33" d="M0,-28.867513459481287L-25,14.433756729740644L25,14.433756729740644Z" transform=""></path></g><g transform="translate(100,0)"><path fill="#fff" fill-opacity="0.33" d="M0,-28.867513459481287L-25,14.433756729740644L25,14.433756729740644Z" transform=""></path></g><g transform="translate(150,0)"><path fill="#fff" fill-opacity="0.33" d="M0,-28.867513459481287L-25,14.433756729740644L25,14.433756729740644Z" transform=""></path></g><g transform="translate(200,0)"><path fill="#fff" fill-opacity="0.33" d="M0,-28.867513459481287L-25,14.433756729740644L25,14.433756729740644Z" transform=""></path></g><g transform="translate(250,0)"><path fill="#fff" fill-opacity="0.33" d="M0,-28.867513459481287L-25,14.433756729740644L25,14.433756729740644Z" transform=""></path></g><g transform="translate(300,0)"><path fill="#fff" fill-opacity="0.33" d="M0,-28.867513459481287L-25,14.433756729740644L25,14.433756729740644Z" transform=""></path></g><g transform="translate(350,0)"><path fill="#fff" fill-opacity="0.33" d="M0,-28.867513459481287L-25,14.433756729740644L25,14.433756729740644Z" transform=""></path></g><g transform="translate(400,0)"><path fill="#fff" fill-opacity="0.33" d="M0,-28.867513459481287L-25,14.433756729740644L25,14.433756729740644Z" transform=""></path></g><g transform="translate(450,0)"><path fill="#fff" fill-opacity="0.33" d="M0,-28.867513459481287L-25,14.433756729740644L25,14.433756729740644Z"></path></g><g transform="translate(500,0)"><path fill="#fff" fill-opacity="0.33" d="M0,-28.867513459481287L-25,14.433756729740644L25,14.433756729740644Z"></path></g></g></svg>