<svg width="500" height="500" style="background: rgb(70, 140, 230);" version="1.1" xmlns="http://www.w3.org/2000/svg"><g transform="translate(250,250)"><circle fill="none" stroke="#222" stroke-opacity="0.8" r="125" cx="0" cy="0"></circle><circle fill="none" stroke="#222" stroke-opacity="0.8" r="125" cx="2.020915727506778" cy="0.12714524054375645"></circle><circle fill="none" stroke="#222" stroke-opacity="0.8" r="125" cx="4.017361576649832" cy="0.5075107909714505"></circle><circle fill="none" stroke="#222" stroke-opacity="0.8" r="125" cx="5.965046200853444" cy="1.1378934195178962"></circle><circle fill="none" stroke="#222" stroke-opacity="0.8" r="125" cx="7.840034146551654" cy="2.0129786326273"></circle><circle fill="none" stroke="#222" stroke-opacity="0.8" r="125" cx="9.618920880706673" cy="3.1253768506475716"></circle><circle fill="none" stroke="#222" stroke-opacity="0.8" r="125" cx="11.27900433629944" cy="4.4656737280919"></circle><circle fill="none" stroke="#222" stroke-opacity="0.8" r="125" cx="12.798451849569414" cy="6.022494295222242"></circle><circle fill="none" stroke="#222" stroke-opacity="0.8" r="125" cx="14.156461392033625" cy="7.782580508857825"></circle><circle fill="none" stroke="#222" stroke-opacity="0.8" r="125" cx="15.333416036535905" cy="9.730881714058592"></circle><circle fill="none" stroke="#222" stroke-opacity="0.8" r="125" cx="16.311030639536032" cy="11.850657435221406"></circle><circle fill="none" stroke="#222" stroke-opacity="0.8" r="125" cx="17.07248977128074" cy="14.1235918356826"></circle><circle fill="none" stroke="#222" stroke-opacity="0.8" r="125" cx="17.602575981086424" cy="16.529919109641824"></circle><circle fill="none" stroke="#222" stroke-opacity="0.8" r="125" cx="17.887787546366024" cy="19.048558999588607"></circle><circle fill="none" stroke="#222" stroke-opacity="0.8" r="125" cx="17.916444920856733" cy="21.65726156686672"></circle><circle fill="none" stroke="#222" stroke-opacity="0.8" r="125" cx="17.67878516933682" cy="24.332760282969108"></circle><circle fill="none" stroke="#222" stroke-opacity="0.8" r="125" cx="17.167043752505034" cy="27.05093245499801"></circle><circle fill="none" stroke="#222" stroke-opacity="0.8" r="125" cx="16.37552310615399" cy="29.78696595078919"></circle><circle fill="none" stroke="#222" stroke-opacity="0.8" r="125" cx="15.300647542798993" cy="32.51553114779981"></circle><circle fill="none" stroke="#222" stroke-opacity="0.8" r="125" cx="13.941004090989095" cy="35.21095699524386"></circle><circle fill="none" stroke="#222" stroke-opacity="0.8" r="125" cx="12.297368977092534" cy="37.847410051367376"></circle><circle fill="none" stroke="#222" stroke-opacity="0.8" r="125" cx="10.372719545837949" cy="40.399075337343646"></circle><circle fill="none" stroke="#222" stroke-opacity="0.8" r="125" cx="8.172231508742376" cy="42.84033783618504"></circle><circle fill="none" stroke="#222" stroke-opacity="0.8" r="125" cx="5.703261503175254" cy="45.145963459388376"></circle><circle fill="none" stroke="#222" stroke-opacity="0.8" r="125" cx="2.9753150386087674" cy="47.29127830579388"></circle><circle fill="none" stroke="#222" stroke-opacity="0.8" r="125" cx="0" cy="49.25234504634755"></circle><circle fill="none" stroke="#222" stroke-opacity="0.8" r="125" cx="-3.2090340293527406" cy="51.00613528503687"></circle><circle fill="none" stroke="#222" stroke-opacity="0.8" r="125" cx="-6.636170272313953" cy="52.530696770149405"></circle><circle fill="none" stroke="#222" stroke-opacity="0.8" r="125" cx="-10.2639126479385" cy="53.80531436100308"></circle><circle fill="none" stroke="#222" stroke-opacity="0.8" r="125" cx="-14.072986519220407" cy="54.810663693257894"></circle><circle fill="none" stroke="#222" stroke-opacity="0.8" r="125" cx="-18.042451688045734" cy="55.52895653057828"></circle><circle fill="none" stroke="#222" stroke-opacity="0.8" r="125" cx="-22.14982694788805" cy="55.94407684151581"></circle><circle fill="none" stroke="#222" stroke-opacity="0.8" r="125" cx="-26.371225430110943" cy="56.04170669769982"></circle><circle fill="none" stroke="#222" stroke-opacity="0.8" r="125" cx="-30.681499909807737" cy="55.80944115239488"></circle><circle fill="none" stroke="#222" stroke-opacity="0.8" r="125" cx="-35.05439717236074" cy="55.23689132683853"></circle><circle fill="none" stroke="#222" stroke-opacity="0.8" r="125" cx="-39.462720482741645" cy="54.31577500505307"></circle><circle fill="none" stroke="#222" stroke-opacity="0.8" r="125" cx="-43.87849914639039" cy="53.03999411561128"></circle><circle fill="none" stroke="#222" stroke-opacity="0.8" r="125" cx="-48.27316410362234" cy="51.405698560607064"></circle><circle fill="none" stroke="#222" stroke-opacity="0.8" r="125" cx="-52.61772845923756" cy="49.411335937356036"></circle><circle fill="none" stroke="#222" stroke-opacity="0.8" r="125" cx="-56.88297181558756" cy="47.05768678657862"></circle><circle fill="none" stroke="#222" stroke-opacity="0.8" r="125" cx="-61.03962725101016" cy="44.347885091453854"></circle><circle fill="none" stroke="#222" stroke-opacity="0.8" r="125" cx="-65.0585697664521" cy="41.28742384441282"></circle><circle fill="none" stroke="#222" stroke-opacity="0.8" r="125" cx="-68.91100501136498" cy="37.88414559227717"></circle><circle fill="none" stroke="#222" stroke-opacity="0.8" r="125" cx="-72.56865709569182" cy="34.14821796477259"></circle><circle fill="none" stroke="#222" stroke-opacity="0.8" r="125" cx="-76.00395429795876" cy="30.09209428594382"></circle><circle fill="none" stroke="#222" stroke-opacity="0.8" r="125" cx="-79.19021149016224" cy="25.73045946200312"></circle><circle fill="none" stroke="#222" stroke-opacity="0.8" r="125" cx="-82.1018081182182" cy="21.080161432043223"></circle><circle fill="none" stroke="#222" stroke-opacity="0.8" r="125" cx="-84.71436060211205" cy="16.160128559275464"></circle><circle fill="none" stroke="#222" stroke-opacity="0.8" r="125" cx="-87.00488805241447" cy="10.991273429434761"></circle><circle fill="none" stroke="#222" stroke-opacity="0.8" r="125" cx="-88.95197023928469" cy="5.596383609161152"></circle><circle fill="none" stroke="#222" stroke-opacity="0.8" r="125" cx="-90.53589679626776" cy="1.1087449618970489e-14"></circle><circle fill="none" stroke="#222" stroke-opacity="0.8" r="125" cx="-91.73880669377168" cy="-5.771716497385538"></circle><circle fill="none" stroke="#222" stroke-opacity="0.8" r="125" cx="-92.54481707581562" cy="-11.691129219596572"></circle><circle fill="none" stroke="#222" stroke-opacity="0.8" r="125" cx="-92.94014061805859" cy="-17.729280018522907"></circle><circle fill="none" stroke="#222" stroke-opacity="0.8" r="125" cx="-92.91319063488919" cy="-23.856052657566888"></circle><circle fill="none" stroke="#222" stroke-opacity="0.8" r="125" cx="-92.45467323803051" cy="-30.040344343813473"></circle><circle fill="none" stroke="#222" stroke-opacity="0.8" r="125" cx="-91.55766592822754" cy="-36.25024436113009"></circle><circle fill="none" stroke="#222" stroke-opacity="0.8" r="125" cx="-90.21768208466487" cy="-42.4532187228057"></circle><circle fill="none" stroke="#222" stroke-opacity="0.8" r="125" cx="-88.43272090326313" cy="-48.61629972263376"></circle><circle fill="none" stroke="#222" stroke-opacity="0.8" r="125" cx="-86.20330242442947" cy="-54.70627923057717"></circle><circle fill="none" stroke="#222" stroke-opacity="0.8" r="125" cx="-83.53248738258631" cy="-60.6899045535201"></circle><circle fill="none" stroke="#222" stroke-opacity="0.8" r="125" cx="-80.42588170335307" cy="-66.53407566328501"></circle><circle fill="none" stroke="#222" stroke-opacity="0.8" r="125" cx="-76.89162556898398" cy="-72.20604258319041"></circle><circle fill="none" stroke="#222" stroke-opacity="0.8" r="125" cx="-72.94036706800856" cy="-77.6736017210175"></circle><circle fill="none" stroke="#222" stroke-opacity="0.8" r="125" cx="-68.58522054038444" cy="-82.90528994037275"></circle><circle fill="none" stroke="#222" stroke-opacity="0.8" r="125" cx="-63.84170982423829" cy="-87.87057517404847"></circle><circle fill="none" stroke="#222" stroke-opacity="0.8" r="125" cx="-58.72769670389325" cy="-92.54004240204787"></circle><circle fill="none" stroke="#222" stroke-opacity="0.8" r="125" cx="-53.263294950724365" cy="-96.88557384330733"></circle><circle fill="none" stroke="#222" stroke-opacity="0.8" r="125" cx="-47.47077043792466" cy="-100.88052224370311"></circle><circle fill="none" stroke="#222" stroke-opacity="0.8" r="125" cx="-41.374427896909836" cy="-104.49987618341991"></circle><circle fill="none" stroke="#222" stroke-opacity="0.8" r="125" cx="-35.0004849663152" cy="-107.72041637397818"></circle><circle fill="none" stroke="#222" stroke-opacity="0.8" r="125" cx="-28.376934263826826" cy="-110.520861968854"></circle><circle fill="none" stroke="#222" stroke-opacity="0.8" r="125" cx="-21.53339428593201" cy="-112.88200597134909"></circle><circle fill="none" stroke="#222" stroke-opacity="0.8" r="125" cx="-14.500950010620718" cy="-114.78683888883963"></circle><circle fill="none" stroke="#222" stroke-opacity="0.8" r="125" cx="-7.311984142669741" cy="-116.22065985329658"></circle><circle fill="none" stroke="#222" stroke-opacity="0.8" r="125" cx="-2.1523995541224633e-14" cy="-117.1711745036582"></circle><circle fill="none" stroke="#222" stroke-opacity="0.8" r="125" cx="7.400562907663799" cy="-117.62857900570948"></circle><circle fill="none" stroke="#222" stroke-opacity="0.8" r="125" cx="14.854519510298111" cy="-117.58562966915109"></circle><circle fill="none" stroke="#222" stroke-opacity="0.8" r="125" cx="22.32613488215678" cy="-117.03769770896066"></circle><circle fill="none" stroke="#222" stroke-opacity="0.8" r="125" cx="29.779323849745012" cy="-115.98280878843663"></circle><circle fill="none" stroke="#222" stroke-opacity="0.8" r="125" cx="37.17785330812282" cy="-114.42166707392619"></circle><circle fill="none" stroke="#222" stroke-opacity="0.8" r="125" cx="44.48554603243144" cy="-112.35766362555846"></circle><circle fill="none" stroke="#222" stroke-opacity="0.8" r="125" cx="51.66648476095635" cy="-109.79686904381067"></circle><circle fill="none" stroke="#222" stroke-opacity="0.8" r="125" cx="58.68521532299728" cy="-106.7480103877673"></circle><circle fill="none" stroke="#222" stroke-opacity="0.8" r="125" cx="65.50694758932671" cy="-103.22243247696015"></circle><circle fill="none" stroke="#222" stroke-opacity="0.8" r="125" cx="72.0977530350632" cy="-99.23404378405672"></circle><circle fill="none" stroke="#222" stroke-opacity="0.8" r="125" cx="78.42475772427811" cy="-94.79924721983441"></circle><circle fill="none" stroke="#222" stroke-opacity="0.8" r="125" cx="84.45632955250626" cy="-89.93685620424566"></circle><circle fill="none" stroke="#222" stroke-opacity="0.8" r="125" cx="90.16225861733606" cy="-84.66799650736048"></circle><circle fill="none" stroke="#222" stroke-opacity="0.8" r="125" cx="95.51392962825273" cy="-79.0159944310427"></circle><circle fill="none" stroke="#222" stroke-opacity="0.8" r="125" cx="100.48448531459658" cy="-73.00625198578459"></circle><circle fill="none" stroke="#222" stroke-opacity="0.8" r="125" cx="105.04897984463705" cy="-66.66610979673304"></circle><circle fill="none" stroke="#222" stroke-opacity="0.8" r="125" cx="109.18452132896589" cy="-60.02469854803988"></circle><circle fill="none" stroke="#222" stroke-opacity="0.8" r="125" cx="112.87040254735369" cy="-53.112779844833014"></circle><circle fill="none" stroke="#222" stroke-opacity="0.8" r="125" cx="116.08821910945703" cy="-45.96257743688087"></circle><circle fill="none" stroke="#222" stroke-opacity="0.8" r="125" cx="118.82197433587521" cy="-38.607599807006785"></circle><circle fill="none" stroke="#222" stroke-opacity="0.8" r="125" cx="121.05817022658456" cy="-31.082455180154636"></circle><circle fill="none" stroke="#222" stroke-opacity="0.8" r="125" cx="122.78588396818445" cy="-23.422660055356342"></circle><circle fill="none" stroke="#222" stroke-opacity="0.8" r="125" cx="123.99682951921363" cy="-15.664442402450351"></circle><circle fill="none" stroke="#222" stroke-opacity="0.8" r="125" cx="124.68540390342135" cy="-7.8445406979706505"></circle></g></svg>