<svg width="500" height="500" style="background: rgb(249, 235, 124);" version="1.1" xmlns="http://www.w3.org/2000/svg"><circle fill="#000" fill-opacity="0.1" cx="426.40601130083553" cy="99.77214775776712" r="12.392528210830106"></circle><circle fill="#000" fill-opacity="0.1" cx="365.98499704385176" cy="95.74659634847194" r="45.48597606853582"></circle><circle fill="#000" fill-opacity="0.1" cx="260.2585552053036" cy="113.88073125668518" r="24.494563223783224"></circle><circle fill="#000" fill-opacity="0.1" cx="330.567760407293" cy="493.8171962797085" r="17.166332602876217"></circle><circle fill="#000" fill-opacity="0.1" cx="411.2653938308358" cy="85.07115761982277" r="19.740906987106428"></circle><circle fill="#000" fill-opacity="0.1" cx="474.8492858489044" cy="323.88434812426567" r="38.88863693270832"></circle><circle fill="#000" fill-opacity="0.1" cx="109.30107473109659" cy="63.52284477946022" r="25.31866261842108"></circle><circle fill="#000" fill-opacity="0.1" cx="211.51695512921185" cy="221.5162522414437" r="24.23027054673433"></circle><circle fill="#000" fill-opacity="0.1" cx="153.23991424814153" cy="219.75845339015677" r="31.572583857028327"></circle><circle fill="#000" fill-opacity="0.1" cx="225.29677734328854" cy="234.77656652640547" r="24.881089846714893"></circle><circle fill="#000" fill-opacity="0.1" cx="265.76443137111755" cy="137.72771668891994" r="23.575975085749224"></circle><circle fill="#000" fill-opacity="0.1" cx="353.95706802785236" cy="353.480695946896" r="6.844704731111882"></circle><circle fill="#000" fill-opacity="0.1" cx="9.673666642047465" cy="475.546741115395" r="9.504252657527104"></circle><circle fill="#000" fill-opacity="0.1" cx="370.4088256089017" cy="60.13702587923035" r="27.83223788207397"></circle><circle fill="#000" fill-opacity="0.1" cx="360.18966907793003" cy="27.270065142442" r="19.075521843270323"></circle><circle fill="#000" fill-opacity="0.1" cx="317.40561762140396" cy="499.99251093968667" r="15.79410003098721"></circle><circle fill="#000" fill-opacity="0.1" cx="148.4754563169554" cy="238.92266136826947" r="48.18752579833381"></circle><circle fill="#000" fill-opacity="0.1" cx="8.987637117970735" cy="43.398855798877776" r="7.421989467693493"></circle><circle fill="#000" fill-opacity="0.1" cx="181.67738401289878" cy="173.639000717088" r="33.32712109106355"></circle><circle fill="#000" fill-opacity="0.1" cx="361.0623151478958" cy="174.9045762784967" r="12.64512559269434"></circle><circle fill="#000" fill-opacity="0.1" cx="309.1770138335414" cy="92.33350293477997" r="25.467213820898905"></circle><circle fill="#000" fill-opacity="0.1" cx="361.79661323166715" cy="232.9286288237262" r="8.108661380304577"></circle><circle fill="#000" fill-opacity="0.1" cx="48.06510009582849" cy="167.38050665098652" r="14.248018861120073"></circle><circle fill="#000" fill-opacity="0.1" cx="17.24964644261468" cy="212.9291077666634" r="13.395972435357113"></circle><circle fill="#000" fill-opacity="0.1" cx="481.74642250238577" cy="363.0040473462065" r="3.888074355228988"></circle><circle fill="#000" fill-opacity="0.1" cx="176.5727077703923" cy="337.4685158440843" r="20.596952022286132"></circle><circle fill="#000" fill-opacity="0.1" cx="9.83674153351191" cy="0.9299121484191732" r="32.090655600688294"></circle><circle fill="#000" fill-opacity="0.1" cx="9.955859694164246" cy="23.152231134008616" r="16.244110665516928"></circle><circle fill="#000" fill-opacity="0.1" cx="431.22020727489144" cy="387.8931553126313" r="37.91362935164943"></circle><circle fill="#000" fill-opacity="0.1" cx="211.98660491034389" cy="362.076988494955" r="16.756816115230322"></circle><circle fill="#000" fill-opacity="0.1" cx="339.16777032685366" cy="471.103235827836" r="5.006913273443641"></circle><circle fill="#000" fill-opacity="0.1" cx="322.2909557749517" cy="355.42980729369447" r="16.005273826420307"></circle><circle fill="#000" fill-opacity="0.1" cx="216.0155320377089" cy="40.53047636989504" r="40.38375035347417"></circle><circle fill="#000" fill-opacity="0.1" cx="88.53876419536037" cy="43.96532562582524" r="14.013040321008754"></circle><circle fill="#000" fill-opacity="0.1" cx="128.72719084043365" cy="159.4294716686035" r="10.732670347481626"></circle><circle fill="#000" fill-opacity="0.1" cx="123.16785326226963" cy="44.46675683490359" r="14.210283227732877"></circle><circle fill="#000" fill-opacity="0.1" cx="430.2838947761993" cy="68.57550844367366" r="12.328826463766882"></circle><circle fill="#000" fill-opacity="0.1" cx="369.77464245366065" cy="205.95015679516385" r="11.507806860288245"></circle><circle fill="#000" fill-opacity="0.1" cx="106.57924660947174" cy="469.6971447276883" r="4.972757706651464"></circle><circle fill="#000" fill-opacity="0.1" cx="215.70731988409534" cy="248.9032546011731" r="30.57367391581647"></circle><circle fill="#000" fill-opacity="0.1" cx="305.33806005492806" cy="298.71151241939515" r="6.985399088589475"></circle><circle fill="#000" fill-opacity="0.1" cx="387.4532651114215" cy="400.3814765157678" r="33.11984505915452"></circle><circle fill="#000" fill-opacity="0.1" cx="83.1459933379665" cy="227.42246890207753" r="7.2971793515607715"></circle><circle fill="#000" fill-opacity="0.1" cx="437.42343184538186" cy="221.63643036270514" r="17.568569059250876"></circle><circle fill="#000" fill-opacity="0.1" cx="486.296135711018" cy="475.09974567685276" r="45.78182830940932"></circle><circle fill="#000" fill-opacity="0.1" cx="7.118874758110152" cy="8.118413629244014" r="30.95802681144111"></circle><circle fill="#000" fill-opacity="0.1" cx="361.359635576627" cy="365.8964359375702" r="5.452348402114002"></circle><circle fill="#000" fill-opacity="0.1" cx="397.9661682562505" cy="45.58172868893766" r="1.671600993041178"></circle><circle fill="#000" fill-opacity="0.1" cx="89.56558804907782" cy="55.18157242018787" r="12.566232811038276"></circle><circle fill="#000" fill-opacity="0.1" cx="50.729446259792894" cy="286.21176140150055" r="38.36796826426871"></circle><circle fill="#000" fill-opacity="0.1" cx="285.54258244901115" cy="205.52353819199806" r="6.312955008625815"></circle><circle fill="#000" fill-opacity="0.1" cx="134.90827142669184" cy="134.55923190109272" r="8.849475310830561"></circle><circle fill="#000" fill-opacity="0.1" cx="456.42170145074783" cy="38.47732981016003" r="33.691505321817324"></circle><circle fill="#000" fill-opacity="0.1" cx="304.1592019889504" cy="104.92123592412099" r="47.7859644216951"></circle><circle fill="#000" fill-opacity="0.1" cx="337.73215737843356" cy="495.87448456928985" r="3.763366204693427"></circle><circle fill="#000" fill-opacity="0.1" cx="289.0296125534714" cy="102.40601498789357" r="33.57567067301376"></circle><circle fill="#000" fill-opacity="0.1" cx="33.35757902591837" cy="171.5714718004982" r="13.313716253002715"></circle><circle fill="#000" fill-opacity="0.1" cx="365.5847561785437" cy="13.190431875057133" r="2.7702793090262454"></circle><circle fill="#000" fill-opacity="0.1" cx="154.57530724695602" cy="190.32698366336425" r="8.32547571121972"></circle><circle fill="#000" fill-opacity="0.1" cx="75.68590795388445" cy="339.85931120812893" r="33.82776101329364"></circle><circle fill="#000" fill-opacity="0.1" cx="23.945750767389004" cy="193.69069045986316" r="13.727522542725499"></circle><circle fill="#000" fill-opacity="0.1" cx="389.16919082403183" cy="160.46081454260275" r="22.933745390269905"></circle><circle fill="#000" fill-opacity="0.1" cx="466.17599456803873" cy="337.58910784032196" r="33.63496280484833"></circle><circle fill="#000" fill-opacity="0.1" cx="16.677134214946776" cy="167.80691546708962" r="13.977407228890982"></circle><circle fill="#000" fill-opacity="0.1" cx="406.1275574332103" cy="14.798156348988414" r="21.320496045984328"></circle><circle fill="#000" fill-opacity="0.1" cx="192.07043877355025" cy="155.65684181860934" r="37.71119140904837"></circle><circle fill="#000" fill-opacity="0.1" cx="10.407099619042128" cy="217.47522471705452" r="40.47130512446165"></circle><circle fill="#000" fill-opacity="0.1" cx="253.2577621866949" cy="406.4160875743255" r="47.80210487311706"></circle><circle fill="#000" fill-opacity="0.1" cx="271.9046417595441" cy="106.61862508038767" r="34.76101186578715"></circle><circle fill="#000" fill-opacity="0.1" cx="494.618620803207" cy="369.65407929698847" r="5.232166889421138"></circle><circle fill="#000" fill-opacity="0.1" cx="354.32642764444705" cy="44.008912015291315" r="19.582083713108297"></circle><circle fill="#000" fill-opacity="0.1" cx="108.37358454032422" cy="82.5924074456811" r="24.89040911111141"></circle><circle fill="#000" fill-opacity="0.1" cx="480.65468390279625" cy="342.2639509839243" r="4.208389066641268"></circle><circle fill="#000" fill-opacity="0.1" cx="96.01005521835759" cy="366.3988119014539" r="24.862836276181042"></circle><circle fill="#000" fill-opacity="0.1" cx="470.8249690458391" cy="21.62957703204494" r="31.754314181121977"></circle><circle fill="#000" fill-opacity="0.1" cx="56.76644432258447" cy="475.8431469842589" r="23.36161056603623"></circle><circle fill="#000" fill-opacity="0.1" cx="449.6966286585666" cy="275.1078210864216" r="39.61505461251363"></circle><circle fill="#000" fill-opacity="0.1" cx="60.19539453787729" cy="173.96050784736872" r="45.30767439864576"></circle><circle fill="#000" fill-opacity="0.1" cx="120.08537618210539" cy="32.7094047376886" r="43.59158407407813"></circle><circle fill="#000" fill-opacity="0.1" cx="456.6791237774305" cy="348.1525218090974" r="19.210519381798804"></circle><circle fill="#000" fill-opacity="0.1" cx="135.72553100735303" cy="53.03056121815543" r="13.004744588915505"></circle><circle fill="#000" fill-opacity="0.1" cx="284.1432513506152" cy="19.427112573757768" r="44.15552545059472"></circle><circle fill="#000" fill-opacity="0.1" cx="123.17203338549938" cy="39.72188290968406" r="16.709962585865288"></circle><circle fill="#000" fill-opacity="0.1" cx="39.09468349093635" cy="450.71023399058583" r="24.428730581964988"></circle><circle fill="#000" fill-opacity="0.1" cx="171.7416836710659" cy="211.6922333497341" r="31.396756954322814"></circle><circle fill="#000" fill-opacity="0.1" cx="226.6515173902735" cy="87.06034031696618" r="12.552709646290168"></circle><circle fill="#000" fill-opacity="0.1" cx="296.43465904829725" cy="213.9177149026804" r="3.393475876597658"></circle><circle fill="#000" fill-opacity="0.1" cx="196.43749456619844" cy="461.1434572888538" r="31.891555026872084"></circle><circle fill="#000" fill-opacity="0.1" cx="475.00889871735126" cy="320.22850062465295" r="14.793681408511475"></circle><circle fill="#000" fill-opacity="0.1" cx="263.68250423809513" cy="172.39604423288256" r="27.352860984858125"></circle><circle fill="#000" fill-opacity="0.1" cx="138.70905442363144" cy="73.63172820707862" r="12.292868560119825"></circle><circle fill="#000" fill-opacity="0.1" cx="362.6257844962826" cy="395.0142130573131" r="37.32567862314657"></circle><circle fill="#000" fill-opacity="0.1" cx="174.69130834098905" cy="411.06061171740294" r="21.768598610069603"></circle><circle fill="#000" fill-opacity="0.1" cx="129.92654553847387" cy="37.87268797401339" r="33.872337511507794"></circle><circle fill="#000" fill-opacity="0.1" cx="360.19873489338494" cy="382.7231495085281" r="35.775080223199055"></circle><circle fill="#000" fill-opacity="0.1" cx="145.41900876284714" cy="54.46337738757427" r="27.107742035294258"></circle><circle fill="#000" fill-opacity="0.1" cx="150.6225227641463" cy="18.830895276134356" r="12.081824857750481"></circle><circle fill="#000" fill-opacity="0.1" cx="4.51513065258041" cy="27.073486906010658" r="43.84778775763698"></circle><circle fill="#000" fill-opacity="0.1" cx="121.41145927133039" cy="421.4037771569565" r="28.309962062863633"></circle><circle fill="#000" fill-opacity="0.1" cx="339.97851253100737" cy="241.11305497336926" r="8.91068135325516"></circle></svg>