<svg width="500" height="500" style="background: rgb(145, 195, 52);" version="1.1" xmlns="http://www.w3.org/2000/svg"><g transform="translate(250,250)"><path fill="none" stroke="#000" stroke-width="4" stroke-opacity="0.6" d="M0,0L62.5,0"></path><path fill="none" stroke="#000" stroke-width="4" stroke-opacity="0.6" d="M17.560720165232954,1.1048268659300888L62.221984420377744,3.914675445669845"></path><path fill="none" stroke="#000" stroke-width="4" stroke-opacity="0.6" d="M34.82681017369491,4.399649282503475L61.3928523315189,7.755720876074487"></path><path fill="none" stroke="#000" stroke-width="4" stroke-opacity="0.6" d="M51.508864194784955,9.82584134984587L60.027260522496675,11.450812355898055"></path><path fill="none" stroke="#000" stroke-width="4" stroke-opacity="0.6" d="M67.3278323962809,17.286849197517412L58.14934798440833,14.930214946233093"></path><path fill="none" stroke="#000" stroke-width="4" stroke-opacity="0.6" d="M82.01996895185461,26.649903396869007L55.792307807256094,18.128019704866457"></path><path fill="none" stroke="#000" stroke-width="4" stroke-opacity="0.6" d="M95.34150863047515,37.748373667834784L52.99779850320674,20.983312832037495"></path><path fill="none" stroke="#000" stroke-width="4" stroke-opacity="0.6" d="M107.07298902791152,50.38472411916648L49.81520519647797,23.44125622672147"></path><path fill="none" stroke="#000" stroke-width="4" stroke-opacity="0.6" d="M117.02314178512661,64.3340166105875L46.30076378273346,25.454060289636242"></path><path fill="none" stroke="#000" stroke-width="4" stroke-opacity="0.6" d="M125.0322837824186,79.34790010433908L42.51656359111788,26.98183172018633"></path><path fill="none" stroke="#000" stroke-width="4" stroke-opacity="0.6" d="M130.97514816615174,95.1590152545126L38.52944623683266,27.99328127155504"></path><path fill="none" stroke="#000" stroke-width="4" stroke-opacity="0.6" d="M134.76310499955304,111.48573611827328L34.40982019322694,28.466278911813834"></path><path fill="none" stroke="#000" stroke-width="4" stroke-opacity="0.6" d="M136.3457321541391,128.0371648941865L30.23041210710118,28.388246545189894"></path><path fill="none" stroke="#000" stroke-width="4" stroke-opacity="0.6" d="M135.71170858188952,144.51829110539018L26.064977002787163,27.7563813285214"></path><path fill="none" stroke="#000" stroke-width="4" stroke-opacity="0.6" d="M132.88901412593893,160.63522372890947L21.986990249679607,26.577705622343377"></path><path fill="none" stroke="#000" stroke-width="4" stroke-opacity="0.6" d="M127.94443232618035,176.10040347870216L18.068344491323636,24.868942690702767"></path><path fill="none" stroke="#000" stroke-width="4" stroke-opacity="0.6" d="M120.98236503763584,190.63770280200083L14.37807464616624,22.656220354165974"></path><path fill="none" stroke="#000" stroke-width="4" stroke-opacity="0.6" d="M112.14297988452456,203.9873231399267L10.981133592227199,19.97460785175256"></path><path fill="none" stroke="#000" stroke-width="4" stroke-opacity="0.6" d="M101.59972340519919,215.91040259889996L7.937240249058811,16.86749412558719"></path><path fill="none" stroke="#000" stroke-width="4" stroke-opacity="0.6" d="M89.55624399266345,226.19325231526508L5.299820486390319,13.38581855444833"></path><path fill="none" stroke="#000" stroke-width="4" stroke-opacity="0.6" d="M76.24277920272534,234.6511463807156L3.1150596425605093,9.58716777922751"></path><path fill="none" stroke="#000" stroke-width="4" stroke-opacity="0.6" d="M61.91207150134023,241.1315981137514L1.4210834564294235,5.534754638187525"></path><path fill="none" stroke="#000" stroke-width="4" stroke-opacity="0.6" d="M46.834884885885955,245.51706457211702L0.2472819390332125,1.296297320705736"></path><path fill="none" stroke="#000" stroke-width="4" stroke-opacity="0.6" d="M31.295201893656152,247.72703134138007L-0.38621182380739844,-3.0571813821767115"></path><path fill="none" stroke="#000" stroke-width="4" stroke-opacity="0.6" d="M15.585186179224433,247.71944062567252L-0.4688786944321971,-7.452613434985574"></path><path fill="none" stroke="#000" stroke-width="4" stroke-opacity="0.6" d="M0,245.4914373132385L0,-11.816181187994603"></path><path fill="none" stroke="#000" stroke-width="4" stroke-opacity="0.6" d="M-15.167431477490226,241.07941978522243L1.0113297650311135,-16.074626302222786"></path><path fill="none" stroke="#000" stroke-width="4" stroke-opacity="0.6" d="M-29.631616194913963,234.55839456658737L2.546364275879269,-20.156548755328068"></path><path fill="none" stroke="#000" stroke-width="4" stroke-opacity="0.6" d="M-43.119559391029384,226.04064626448874L4.577037892537818,-23.993672890394603"></path><path fill="none" stroke="#000" stroke-width="4" stroke-opacity="0.6" d="M-55.37560614814326,215.67374638289087L7.06646345580208,-27.5220580541081"></path><path fill="none" stroke="#000" stroke-width="4" stroke-opacity="0.6" d="M-66.16597641296664,203.63793632731375L9.969586535752136,-30.683232353528446"></path><path fill="none" stroke="#000" stroke-width="4" stroke-opacity="0.6" d="M-75.28291206270312,190.1429310124029L13.233984529517597,-33.42522942416741"></path><path fill="none" stroke="#000" stroke-width="4" stroke-opacity="0.6" d="M-82.54836246762504,175.4241997606932L16.800796436231543,-35.70350982218605"></path><path fill="none" stroke="#000" stroke-width="4" stroke-opacity="0.6" d="M-87.81714318621555,159.7387904512405L20.60576681950658,-37.4817506997307"></path><path fill="none" stroke="#000" stroke-width="4" stroke-opacity="0.6" d="M-90.97951177300332,143.3607709773026L24.580385442636715,-38.732489758439364"></path><path fill="none" stroke="#000" stroke-width="4" stroke-opacity="0.6" d="M-91.96311501678957,126.57636885932028L28.653102364961725,-39.43761206054315"></path><path fill="none" stroke="#000" stroke-width="4" stroke-opacity="0.6" d="M-90.7342730747238,109.67889521270271L32.750596949519036,-39.588671063926895"></path><path fill="none" stroke="#000" stroke-width="4" stroke-opacity="0.6" d="M-87.29857772791033,92.9635430944113L36.79907827598478,-39.1870381875695"></path><path fill="none" stroke="#000" stroke-width="4" stroke-opacity="0.6" d="M-81.70079414835854,76.72215248023673L40.72559389592934,-38.243878254817"></path><path fill="none" stroke="#000" stroke-width="4" stroke-opacity="0.6" d="M-74.02406791939794,61.238034716479056L44.4593237194603,-36.77995125001818"></path><path fill="none" stroke="#000" stroke-width="4" stroke-opacity="0.6" d="M-64.38845137308601,46.78094823495218L47.932836086022995,-34.825243904405745"></path><path fill="none" stroke="#000" stroke-width="4" stroke-opacity="0.6" d="M-52.94877538013034,33.602314637561236L51.08328374279647,-32.418437645101925"></path><path fill="none" stroke="#000" stroke-width="4" stroke-opacity="0.6" d="M-39.89190433631446,21.930759993717807L53.853518519867826,-29.606222343246827"></path><path fill="none" stroke="#000" stroke-width="4" stroke-opacity="0.6" d="M-25.43342302850467,11.96806042617543L56.19310493328989,-26.44246803201819"></path><path fill="none" stroke="#000" stroke-width="4" stroke-opacity="0.6" d="M-9.81381413898863,3.8855638907606913L58.05921473965414,-22.98726928423057"></path><path fill="none" stroke="#000" stroke-width="4" stroke-opacity="0.6" d="M6.705805819511255,-2.1788483898724524L59.41738657714591,-19.305879197599413"></path><path fill="none" stroke="#000" stroke-width="4" stroke-opacity="0.6" d="M23.8483165145282,-6.123206949167822L60.2421372207577,-15.467551893574935"></path><path fill="none" stroke="#000" stroke-width="4" stroke-opacity="0.6" d="M41.325507636533565,-7.88326219353006L60.51741361097573,-11.544314058174363"></path><path fill="none" stroke="#000" stroke-width="4" stroke-opacity="0.6" d="M58.84318942610563,-7.433623545986541L60.23687763915526,-7.609687311688768"></path><path fill="none" stroke="#000" stroke-width="4" stroke-opacity="0.6" d="M76.1064092498589,-4.788209413824965L59.40401863887785,-3.737384066194608"></path><path fill="none" stroke="#000" stroke-width="4" stroke-opacity="0.6" d="M92.82468170862224,-1.1367744930580372e-14L58.032091588239425,-7.106881519227524e-15"></path><path fill="none" stroke="#000" stroke-width="4" stroke-opacity="0.6" d="M108.71713952135462,6.839902657754637L56.14388211905394,3.532273661848413"></path><path fill="none" stroke="#000" stroke-width="4" stroke-opacity="0.6" d="M123.51751383334056,15.603890749774493L53.771302500555585,6.792895223132854"></path><path fill="none" stroke="#000" stroke-width="4" stroke-opacity="0.6" d="M136.978855622388,26.130114198194626L50.95482576286863,9.720152866536665"></path><path fill="none" stroke="#000" stroke-width="4" stroke-opacity="0.6" d="M148.8779144684035,38.22535145804499L47.74276799612519,12.258259344565884"></path><path fill="none" stroke="#000" stroke-width="4" stroke-opacity="0.6" d="M159.0190970284258,51.668436701707144L44.19043155373191,14.358341596839606"></path><path fill="none" stroke="#000" stroke-width="4" stroke-opacity="0.6" d="M167.23793501316035,66.21418260520329L40.35912435516673,15.979307742760778"></path><path fill="none" stroke="#000" stroke-width="4" stroke-opacity="0.6" d="M173.40400116011355,81.59772916523717L36.31507268107652,17.088576073341425"></path><path fill="none" stroke="#000" stroke-width="4" stroke-opacity="0.6" d="M177.42322148826128,97.53924142019994L32.128246742373065,17.662653113416813"></path><path fill="none" stroke="#000" stroke-width="4" stroke-opacity="0.6" d="M179.2395428262077,113.74887276050215L27.871119851986187,17.68755050223623"></path><path fill="none" stroke="#000" stroke-width="4" stroke-opacity="0.6" d="M178.83592604007717,129.93190580333726L23.617383205497678,17.159033298993617"></path><path fill="none" stroke="#000" stroke-width="4" stroke-opacity="0.6" d="M176.2346473461888,145.7939796578546L19.440639064161967,16.082695309557796"></path><path fill="none" stroke="#000" stroke-width="4" stroke-opacity="0.6" d="M171.49690236474743,161.04631087457742L15.413095516855265,14.47386009846245"></path><path fill="none" stroke="#000" stroke-width="4" stroke-opacity="0.6" d="M164.72171993675124,175.41081548491204L11.604285969490402,12.3573094417058"></path><path fill="none" stroke="#000" stroke-width="4" stroke-opacity="0.6" d="M156.04420496775074,188.62504129076632L8.079836071893263,9.766844036268205"></path><path fill="none" stroke="#000" stroke-width="4" stroke-opacity="0.6" d="M145.63314146187287,200.4468229295426L4.900299950825621,6.744684257202164"></path><path fill="none" stroke="#000" stroke-width="4" stroke-opacity="0.6" d="M133.68799825662543,210.65857715637043L2.120086388686892,3.340721589922039"></path><path fill="none" stroke="#000" stroke-width="4" stroke-opacity="0.6" d="M120.43539056216282,219.071162166232L-0.21350600776827547,-0.3883659863844319"></path><path fill="none" stroke="#000" stroke-width="4" stroke-opacity="0.6" d="M106.12506006006488,225.52723251044313L-2.0611275373118274,-4.380118975460746"></path><path fill="none" stroke="#000" stroke-width="4" stroke-opacity="0.6" d="M91.02544485508763,229.904030107636L-3.3920751577598027,-8.56740387743775"></path><path fill="none" stroke="#000" stroke-width="4" stroke-opacity="0.6" d="M75.41891784733653,232.1155618503204L-4.184836888395342,-12.87960359717805"></path><path fill="none" stroke="#000" stroke-width="4" stroke-opacity="0.6" d="M59.59677797292559,232.11412518689352L-4.427473206264657,-17.243869635492697"></path><path fill="none" stroke="#000" stroke-width="4" stroke-opacity="0.6" d="M43.85408314408692,229.89115462270456L-4.117828672246838,-21.586413855489447"></path><path fill="none" stroke="#000" stroke-width="4" stroke-opacity="0.6" d="M28.484416527169163,225.47737412735273L-3.2635700336921447,-25.833816914442945"></path><path fill="none" stroke="#000" stroke-width="4" stroke-opacity="0.6" d="M13.774678979230247,218.94225274522464L-1.8820501278811352,-29.914330156009235"></path><path fill="none" stroke="#000" stroke-width="4" stroke-opacity="0.6" d="M3.8648525360605686e-14,210.39277306405418L-6.201454849153719e-15,-33.75914787359249"></path><path fill="none" stroke="#000" stroke-width="4" stroke-opacity="0.6" d="M-12.581142545897306,199.97153438282817L2.3469453040385218,-37.30362738113969"></path><path fill="none" stroke="#000" stroke-width="4" stroke-opacity="0.6" d="M-23.731507384129703,187.8542242195351L5.1148788598025,-40.48843525328114"></path><path fill="none" stroke="#000" stroke-width="4" stroke-opacity="0.6" d="M-33.23929814850587,174.2465030018234L8.252400690809877,-43.26059940613065"></path><path fill="none" stroke="#000" stroke-width="4" stroke-opacity="0.6" d="M-40.92192042644618,159.38035719090936L11.701529486676275,-45.57444835998344"></path><path fill="none" stroke="#000" stroke-width="4" stroke-opacity="0.6" d="M-46.629220900397,143.50998551646018L15.398731043508201,-47.39242102599472"></path><path fill="none" stroke="#000" stroke-width="4" stroke-opacity="0.6" d="M-50.24615113860575,126.90729128051277L19.276045187027545,-48.68573265519002"></path><path fill="none" stroke="#000" stroke-width="4" stroke-opacity="0.6" d="M-51.69480879257359,109.85706067489723L23.262291192309302,-49.434885139139425"></path><path fill="none" stroke="#000" stroke-width="4" stroke-opacity="0.6" d="M-50.935820000275285,92.65191262522451L27.284330321869163,-49.630012612066"></path><path fill="none" stroke="#000" stroke-width="4" stroke-opacity="0.6" d="M-47.96903847801966,75.58710972649335L31.268363090836026,-49.27105622510762"></path><path fill="none" stroke="#000" stroke-width="4" stroke-opacity="0.6" d="M-42.83354890243172,58.95532229892493L35.141238252057455,-48.367764993101936"></path><path fill="none" stroke="#000" stroke-width="4" stroke-opacity="0.6" d="M-35.606974522531495,43.041438424065966L38.831750286128475,-46.93952269888831"></path><path fill="none" stroke="#000" stroke-width="4" stroke-opacity="0.6" d="M-26.404101281442607,28.117512005717664L42.271902385204505,-45.01500392501047"></path><path fill="none" stroke="#000" stroke-width="4" stroke-opacity="0.6" d="M-15.374842849043144,14.437938452372622L45.39811253142731,-42.63166531314668"></path><path fill="none" stroke="#000" stroke-width="4" stroke-opacity="0.6" d="M-2.7015826558888305,2.234943540942641L48.15234128001806,-39.835081073851285"></path><path fill="none" stroke="#000" stroke-width="4" stroke-opacity="0.6" d="M11.404059932301243,-8.285534532738792L50.483121245668265,-36.678134531428974"></path><path fill="none" stroke="#000" stroke-width="4" stroke-opacity="0.6" d="M26.7049819473838,-16.947496884377887L52.346470034161726,-33.220080041995566"></path><path fill="none" stroke="#000" stroke-width="4" stroke-opacity="0.6" d="M42.942801110749365,-23.608004688823375L53.70667042827187,-29.525491921726406"></path><path fill="none" stroke="#000" stroke-width="4" stroke-opacity="0.6" d="M59.84243752094753,-28.159713598033765L54.536903991241324,-25.663119026180066"></path><path fill="none" stroke="#000" stroke-width="4" stroke-opacity="0.6" d="M77.11699148027505,-30.532776881256115L54.819726850805125,-21.704665294874236"></path><path fill="none" stroke="#000" stroke-width="4" stroke-opacity="0.6" d="M94.47283095156088,-30.69608353504389L54.54737922566423,-17.723517888303977"></path><path fill="none" stroke="#000" stroke-width="4" stroke-opacity="0.6" d="M111.61479841856655,-28.657809405128727L53.72192320491321,-13.793445474048076"></path><path fill="none" stroke="#000" stroke-width="4" stroke-opacity="0.6" d="M128.25144480578672,-24.465271545975227L52.355206336879675,-9.987289748017956"></path><path fill="none" stroke="#000" stroke-width="4" stroke-opacity="0.6" d="M144.10019763353125,-18.204088401005414L50.46865167312205,-6.375673396878668"></path><path fill="none" stroke="#000" stroke-width="4" stroke-opacity="0.6" d="M158.89237175050798,-9.996660697826394L48.092877991169196,-3.0257474160847755"></path></g></svg>