<svg width="500" height="500" style="background: rgb(98, 64, 136);" version="1.1" xmlns="http://www.w3.org/2000/svg"><g transform="rotate(16.888265789867006,250,250)"><g transform="scale(1)"><circle cx="250" cy="132.4517673868704" r="125" fill="none" stroke="#000" stroke-opacity="1" stroke-width="0.5"></circle><circle cx="250" cy="153.17837170090695" r="120" fill="none" stroke="#000" stroke-opacity="1" stroke-width="0.5"></circle><circle cx="250" cy="170.17562553356086" r="115" fill="none" stroke="#000" stroke-opacity="1" stroke-width="0.5"></circle><circle cx="250" cy="180.38520269678105" r="110" fill="none" stroke="#000" stroke-opacity="1" stroke-width="0.5"></circle><circle cx="250" cy="181.97008778121838" r="105" fill="none" stroke="#000" stroke-opacity="1" stroke-width="0.5"></circle><circle cx="250" cy="174.6451114526669" r="100" fill="none" stroke="#000" stroke-opacity="1" stroke-width="0.5"></circle><circle cx="250" cy="159.72826114327432" r="95" fill="none" stroke="#000" stroke-opacity="1" stroke-width="0.5"></circle><circle cx="250" cy="139.90353477374077" r="90" fill="none" stroke="#000" stroke-opacity="1" stroke-width="0.5"></circle><circle cx="250" cy="118.73800738005893" r="85" fill="none" stroke="#000" stroke-opacity="1" stroke-width="0.5"></circle><circle cx="250" cy="100.04000513946416" r="80" fill="none" stroke="#000" stroke-opacity="1" stroke-width="0.5"></circle><circle cx="250" cy="87.1738709322628" r="75" fill="none" stroke="#000" stroke-opacity="1" stroke-width="0.5"></circle><circle cx="250" cy="82.45461608747733" r="70" fill="none" stroke="#000" stroke-opacity="1" stroke-width="0.5"></circle><circle cx="250" cy="86.73137899075489" r="65" fill="none" stroke="#000" stroke-opacity="1" stroke-width="0.5"></circle><circle cx="250" cy="99.23463909977984" r="60" fill="none" stroke="#000" stroke-opacity="1" stroke-width="0.5"></circle><circle cx="250" cy="117.714677242036" r="55" fill="none" stroke="#000" stroke-opacity="1" stroke-width="0.5"></circle><circle cx="250" cy="138.84636894958933" r="50" fill="none" stroke="#000" stroke-opacity="1" stroke-width="0.5"></circle><circle cx="250" cy="158.8274761207251" r="45" fill="none" stroke="#000" stroke-opacity="1" stroke-width="0.5"></circle><circle cx="250" cy="174.06278602699987" r="40" fill="none" stroke="#000" stroke-opacity="1" stroke-width="0.5"></circle><circle cx="250" cy="181.8110001193552" r="35" fill="none" stroke="#000" stroke-opacity="1" stroke-width="0.5"></circle><circle cx="250" cy="180.67797753818044" r="30" fill="none" stroke="#000" stroke-opacity="1" stroke-width="0.5"></circle><circle cx="250" cy="170.8675837234916" r="25" fill="none" stroke="#000" stroke-opacity="1" stroke-width="0.5"></circle><circle cx="250" cy="154.14500878269982" r="20" fill="none" stroke="#000" stroke-opacity="1" stroke-width="0.5"></circle><circle cx="250" cy="133.5191557642976" r="15" fill="none" stroke="#000" stroke-opacity="1" stroke-width="0.5"></circle><circle cx="250" cy="112.70124690795556" r="10" fill="none" stroke="#000" stroke-opacity="1" stroke-width="0.5"></circle><circle cx="250" cy="95.43706117671393" r="5" fill="none" stroke="#000" stroke-opacity="1" stroke-width="0.5"></circle></g><g transform="scale(1,-1)translate(0,-500)"><circle cx="250" cy="145.1629332287209" r="125" fill="none" stroke="#000" stroke-opacity="1" stroke-width="0.5"></circle><circle cx="250" cy="165.88953754275747" r="120" fill="none" stroke="#000" stroke-opacity="1" stroke-width="0.5"></circle><circle cx="250" cy="182.88679137541138" r="115" fill="none" stroke="#000" stroke-opacity="1" stroke-width="0.5"></circle><circle cx="250" cy="193.09636853863157" r="110" fill="none" stroke="#000" stroke-opacity="1" stroke-width="0.5"></circle><circle cx="250" cy="194.6812536230689" r="105" fill="none" stroke="#000" stroke-opacity="1" stroke-width="0.5"></circle><circle cx="250" cy="187.3562772945174" r="100" fill="none" stroke="#000" stroke-opacity="1" stroke-width="0.5"></circle><circle cx="250" cy="172.43942698512484" r="95" fill="none" stroke="#000" stroke-opacity="1" stroke-width="0.5"></circle><circle cx="250" cy="152.6147006155913" r="90" fill="none" stroke="#000" stroke-opacity="1" stroke-width="0.5"></circle><circle cx="250" cy="131.44917322190946" r="85" fill="none" stroke="#000" stroke-opacity="1" stroke-width="0.5"></circle><circle cx="250" cy="112.75117098131469" r="80" fill="none" stroke="#000" stroke-opacity="1" stroke-width="0.5"></circle><circle cx="250" cy="99.88503677411333" r="75" fill="none" stroke="#000" stroke-opacity="1" stroke-width="0.5"></circle><circle cx="250" cy="95.16578192932786" r="70" fill="none" stroke="#000" stroke-opacity="1" stroke-width="0.5"></circle><circle cx="250" cy="99.44254483260542" r="65" fill="none" stroke="#000" stroke-opacity="1" stroke-width="0.5"></circle><circle cx="250" cy="111.94580494163037" r="60" fill="none" stroke="#000" stroke-opacity="1" stroke-width="0.5"></circle><circle cx="250" cy="130.42584308388652" r="55" fill="none" stroke="#000" stroke-opacity="1" stroke-width="0.5"></circle><circle cx="250" cy="151.55753479143985" r="50" fill="none" stroke="#000" stroke-opacity="1" stroke-width="0.5"></circle><circle cx="250" cy="171.5386419625756" r="45" fill="none" stroke="#000" stroke-opacity="1" stroke-width="0.5"></circle><circle cx="250" cy="186.7739518688504" r="40" fill="none" stroke="#000" stroke-opacity="1" stroke-width="0.5"></circle><circle cx="250" cy="194.52216596120573" r="35" fill="none" stroke="#000" stroke-opacity="1" stroke-width="0.5"></circle><circle cx="250" cy="193.38914338003096" r="30" fill="none" stroke="#000" stroke-opacity="1" stroke-width="0.5"></circle><circle cx="250" cy="183.57874956534212" r="25" fill="none" stroke="#000" stroke-opacity="1" stroke-width="0.5"></circle><circle cx="250" cy="166.85617462455033" r="20" fill="none" stroke="#000" stroke-opacity="1" stroke-width="0.5"></circle><circle cx="250" cy="146.23032160614812" r="15" fill="none" stroke="#000" stroke-opacity="1" stroke-width="0.5"></circle><circle cx="250" cy="125.4124127498061" r="10" fill="none" stroke="#000" stroke-opacity="1" stroke-width="0.5"></circle><circle cx="250" cy="108.14822701856446" r="5" fill="none" stroke="#000" stroke-opacity="1" stroke-width="0.5"></circle></g><g transform="rotate(90,250,0)translate(250,-250)"><circle cx="250" cy="156.46132381407017" r="125" fill="none" stroke="#000" stroke-opacity="1" stroke-width="0.5"></circle><circle cx="250" cy="177.18792812810673" r="120" fill="none" stroke="#000" stroke-opacity="1" stroke-width="0.5"></circle><circle cx="250" cy="194.18518196076064" r="115" fill="none" stroke="#000" stroke-opacity="1" stroke-width="0.5"></circle><circle cx="250" cy="204.39475912398083" r="110" fill="none" stroke="#000" stroke-opacity="1" stroke-width="0.5"></circle><circle cx="250" cy="205.97964420841816" r="105" fill="none" stroke="#000" stroke-opacity="1" stroke-width="0.5"></circle><circle cx="250" cy="198.65466787986668" r="100" fill="none" stroke="#000" stroke-opacity="1" stroke-width="0.5"></circle><circle cx="250" cy="183.7378175704741" r="95" fill="none" stroke="#000" stroke-opacity="1" stroke-width="0.5"></circle><circle cx="250" cy="163.91309120094056" r="90" fill="none" stroke="#000" stroke-opacity="1" stroke-width="0.5"></circle><circle cx="250" cy="142.74756380725873" r="85" fill="none" stroke="#000" stroke-opacity="1" stroke-width="0.5"></circle><circle cx="250" cy="124.04956156666395" r="80" fill="none" stroke="#000" stroke-opacity="1" stroke-width="0.5"></circle><circle cx="250" cy="111.1834273594626" r="75" fill="none" stroke="#000" stroke-opacity="1" stroke-width="0.5"></circle><circle cx="250" cy="106.46417251467713" r="70" fill="none" stroke="#000" stroke-opacity="1" stroke-width="0.5"></circle><circle cx="250" cy="110.74093541795469" r="65" fill="none" stroke="#000" stroke-opacity="1" stroke-width="0.5"></circle><circle cx="250" cy="123.24419552697964" r="60" fill="none" stroke="#000" stroke-opacity="1" stroke-width="0.5"></circle><circle cx="250" cy="141.72423366923582" r="55" fill="none" stroke="#000" stroke-opacity="1" stroke-width="0.5"></circle><circle cx="250" cy="162.85592537678912" r="50" fill="none" stroke="#000" stroke-opacity="1" stroke-width="0.5"></circle><circle cx="250" cy="182.83703254792488" r="45" fill="none" stroke="#000" stroke-opacity="1" stroke-width="0.5"></circle><circle cx="250" cy="198.07234245419966" r="40" fill="none" stroke="#000" stroke-opacity="1" stroke-width="0.5"></circle><circle cx="250" cy="205.820556546555" r="35" fill="none" stroke="#000" stroke-opacity="1" stroke-width="0.5"></circle><circle cx="250" cy="204.68753396538023" r="30" fill="none" stroke="#000" stroke-opacity="1" stroke-width="0.5"></circle><circle cx="250" cy="194.8771401506914" r="25" fill="none" stroke="#000" stroke-opacity="1" stroke-width="0.5"></circle><circle cx="250" cy="178.1545652098996" r="20" fill="none" stroke="#000" stroke-opacity="1" stroke-width="0.5"></circle><circle cx="250" cy="157.52871219149742" r="15" fill="none" stroke="#000" stroke-opacity="1" stroke-width="0.5"></circle><circle cx="250" cy="136.71080333515536" r="10" fill="none" stroke="#000" stroke-opacity="1" stroke-width="0.5"></circle><circle cx="250" cy="119.44661760391372" r="5" fill="none" stroke="#000" stroke-opacity="1" stroke-width="0.5"></circle></g><g transform="rotate(-90,250,0)translate(-250,-250)"><circle cx="250" cy="165.5552841552151" r="125" fill="none" stroke="#000" stroke-opacity="1" stroke-width="0.5"></circle><circle cx="250" cy="186.28188846925167" r="120" fill="none" stroke="#000" stroke-opacity="1" stroke-width="0.5"></circle><circle cx="250" cy="203.27914230190558" r="115" fill="none" stroke="#000" stroke-opacity="1" stroke-width="0.5"></circle><circle cx="250" cy="213.48871946512577" r="110" fill="none" stroke="#000" stroke-opacity="1" stroke-width="0.5"></circle><circle cx="250" cy="215.0736045495631" r="105" fill="none" stroke="#000" stroke-opacity="1" stroke-width="0.5"></circle><circle cx="250" cy="207.74862822101161" r="100" fill="none" stroke="#000" stroke-opacity="1" stroke-width="0.5"></circle><circle cx="250" cy="192.83177791161904" r="95" fill="none" stroke="#000" stroke-opacity="1" stroke-width="0.5"></circle><circle cx="250" cy="173.0070515420855" r="90" fill="none" stroke="#000" stroke-opacity="1" stroke-width="0.5"></circle><circle cx="250" cy="151.84152414840366" r="85" fill="none" stroke="#000" stroke-opacity="1" stroke-width="0.5"></circle><circle cx="250" cy="133.1435219078089" r="80" fill="none" stroke="#000" stroke-opacity="1" stroke-width="0.5"></circle><circle cx="250" cy="120.27738770060753" r="75" fill="none" stroke="#000" stroke-opacity="1" stroke-width="0.5"></circle><circle cx="250" cy="115.55813285582207" r="70" fill="none" stroke="#000" stroke-opacity="1" stroke-width="0.5"></circle><circle cx="250" cy="119.83489575909962" r="65" fill="none" stroke="#000" stroke-opacity="1" stroke-width="0.5"></circle><circle cx="250" cy="132.33815586812457" r="60" fill="none" stroke="#000" stroke-opacity="1" stroke-width="0.5"></circle><circle cx="250" cy="150.81819401038075" r="55" fill="none" stroke="#000" stroke-opacity="1" stroke-width="0.5"></circle><circle cx="250" cy="171.94988571793405" r="50" fill="none" stroke="#000" stroke-opacity="1" stroke-width="0.5"></circle><circle cx="250" cy="191.9309928890698" r="45" fill="none" stroke="#000" stroke-opacity="1" stroke-width="0.5"></circle><circle cx="250" cy="207.1663027953446" r="40" fill="none" stroke="#000" stroke-opacity="1" stroke-width="0.5"></circle><circle cx="250" cy="214.91451688769993" r="35" fill="none" stroke="#000" stroke-opacity="1" stroke-width="0.5"></circle><circle cx="250" cy="213.78149430652516" r="30" fill="none" stroke="#000" stroke-opacity="1" stroke-width="0.5"></circle><circle cx="250" cy="203.97110049183632" r="25" fill="none" stroke="#000" stroke-opacity="1" stroke-width="0.5"></circle><circle cx="250" cy="187.24852555104454" r="20" fill="none" stroke="#000" stroke-opacity="1" stroke-width="0.5"></circle><circle cx="250" cy="166.62267253264235" r="15" fill="none" stroke="#000" stroke-opacity="1" stroke-width="0.5"></circle><circle cx="250" cy="145.8047636763003" r="10" fill="none" stroke="#000" stroke-opacity="1" stroke-width="0.5"></circle><circle cx="250" cy="128.54057794505866" r="5" fill="none" stroke="#000" stroke-opacity="1" stroke-width="0.5"></circle></g></g></svg>