<svg width="500" height="500" style="background: rgb(161, 118, 68);" version="1.1" xmlns="http://www.w3.org/2000/svg"><g transform="translate(250,250)"><path fill="#000" d="M89.69187168882289,-491.88958939273675A500,500 0 0,1 137.81867790849967,-480.6308479691594L0,0Z"></path><path fill="#000" d="M14.537707128550219,499.78861038587496A500,500 0 0,1 -34.87823687206345,498.78202512991203L0,0Z"></path><path fill="#000" d="M157.27679604486787,-474.61985780818367A500,500 0 0,1 203.3683215379002,-456.7727288213004L0,0Z"></path><path fill="#000" d="M221.8005064656034,-448.1121905634807A500,500 0 0,1 264.95963211660256,-424.0240480782129L0,0Z"></path><path fill="#000" d="M282.0071223223227,-412.88252924952144A500,500 0 0,1 321.3938048432696,-383.022221559489L0,0Z"></path><path fill="#000" d="M336.72479032138494,-369.61657915063637A500,500 0 0,1 371.5724127386971,-334.5653031794291L0,0Z"></path><path fill="#000" d="M384.8884932956137,-319.1564627712115A500,500 0 0,1 414.51878627752086,-279.5964517353735L0,0Z"></path><path fill="#000" d="M425.5607795520154,-262.48432887904073A500,500 0 0,1 449.3970231495835,-219.18557339453878L0,0Z"></path><path fill="#000" d="M457.95000930264916,-200.70323609673795A500,500 0 0,1 475.52825814757676,-154.5084971874737L0,0Z"></path><path fill="#000" d="M481.4257630326217,-135.01568312035965A500,500 0 0,1 492.403876506104,-86.82408883346517L0,0Z"></path><path fill="#000" d="M495.53111189885317,-66.7002034501068A500,500 0 0,1 499.6954135095479,-17.449748351250484L0,0Z"></path><path fill="#000" d="M499.99151133025896,2.9135198099455066A500,500 0 0,1 497.2609476841366,52.26423163382666L0,0Z"></path><path fill="#000" d="M494.7201447255358,72.47053472097686A500,500 0 0,1 485.1478631379983,120.96094779983376L0,0Z"></path><path fill="#000" d="M479.81961323955414,140.61699310767585A500,500 0 0,1 463.5919272833938,187.30329670795592L0,0Z"></path><path fill="#000" d="M455.57993876858507,206.0265016729929A500,500 0 0,1 433.01270189221935,250L0,0Z"></path><path fill="#000" d="M422.47291900398494,267.4259387349174A500,500 0 0,1 394.00537680336095,307.8307376628292L0,0Z"></path><path fill="#000" d="M381.14294442679505,323.6202340918634A500,500 0 0,1 347.3291852294986,359.66990016932573L0,0Z"></path><path fill="#000" d="M332.394455980011,373.5156297047714A500,500 0 0,1 293.89262614623635,404.5084971874739L0,0Z"></path><path fill="#000" d="M277.1762875406658,416.1409684532077A500,500 0 0,1 234.73578139294503,441.4737964294636L0,0Z"></path><path fill="#000" d="M216.5631979476956,450.66659660403786A500,500 0 0,1 171.0100716628339,469.84631039295436L0,0Z"></path><path fill="#000" d="M151.73495204365992,476.42051207762626A500,500 0 0,1 103.95584540887909,489.073800366903L0,0Z"></path><path fill="#000" d="M83.95335789404427,492.901444203924A500,500 0 0,1 34.878236872061954,498.78202512991214L0,0Z"></path><path fill="#000" d="M20.361197073346887,-499.58524963587524A500,500 0 0,1 69.58655048003281,-495.1340343707852L0,0Z"></path><path fill="#000" d="M-55.160903569804304,496.94795976778306A500,500 0 0,1 -103.95584540888055,489.0738003669027L0,0Z"></path><path fill="#000" d="M-123.78587002477042,484.43478238273735A500,500 0 0,1 -171.0100716628353,469.84631039295385L0,0Z"></path><path fill="#000" d="M-190.00148532404455,462.4926329950093A500,500 0 0,1 -234.73578139294625,441.47379642946294L0,0Z"></path><path fill="#000" d="M-252.51893783497255,431.5485905836059A500,500 0 0,1 -293.8926261462374,404.5084971874731L0,0Z"></path><path fill="#000" d="M-310.12139645697704,392.20494573573876A500,500 0 0,1 -347.32918522949944,359.66990016932476L0,0Z"></path><path fill="#000" d="M-361.68769485480664,345.22747774563913A500,500 0 0,1 -394.0053768033618,307.83073766282814L0,0Z"></path><path fill="#000" d="M-406.2141536859424,291.530549591656A500,500 0 0,1 -433.01270189222004,249.9999999999988L0,0Z"></path><path fill="#000" d="M-442.8341160773325,232.1593109009565A500,500 0 0,1 -463.5919272833943,187.30329670795464L0,0Z"></path><path fill="#000" d="M-470.83481611561854,168.269355300872A500,500 0 0,1 -485.1478631379986,120.96094779983233L0,0Z"></path><path fill="#000" d="M-489.6712520248793,101.10422810341066A500,500 0 0,1 -497.2609476841368,52.264231633825055L0,0Z"></path><path fill="#000" d="M-498.97679400626953,31.971222110271405A500,500 0 0,1 -499.6954135095478,-17.44974835125222L0,0Z"></path><path fill="#000" d="M-498.57032027001827,-37.78406735451815A500,500 0 0,1 -492.4038765061037,-86.82408883346699L0,0Z"></path><path fill="#000" d="M-488.459742365045,-106.8039329269916A500,500 0 0,1 -475.52825814757614,-154.50849718747554L0,0Z"></path><path fill="#000" d="M-468.84185118965775,-173.74498143271424A500,500 0 0,1 -449.39702314958265,-219.18557339454054L0,0Z"></path><path fill="#000" d="M-440.09848668056514,-237.3042815068363A500,500 0 0,1 -414.51878627751967,-279.59645173537524L0,0Z"></path><path fill="#000" d="M-402.78910573284423,-296.2447236710471A500,500 0 0,1 -371.5724127386956,-334.5653031794307L0,0Z"></path><path fill="#000" d="M-357.6398930078505,-349.41909926237963A500,500 0 0,1 -321.3938048432677,-383.0222215594907L0,0Z"></path><path fill="#000" d="M-305.52962657480765,-395.7924295449042A500,500 0 0,1 -264.9596321166003,-424.0240480782143L0,0Z"></path><path fill="#000" d="M-247.47257349528542,-434.46211039355313A500,500 0 0,1 -203.36832153789766,-456.77272882130154L0,0Z"></path><path fill="#000" d="M-184.59874826855744,-464.6754804567174A500,500 0 0,1 -137.8186779084969,-480.6308479691602L0,0Z"></path><path fill="#000" d="M-118.13191838474592,-485.8444708533166A500,500 0 0,1 -69.58655048002987,-495.13403437078557L0,0Z"></path><path fill="#000" d="M-49.365785082640855,-497.5570512646504A500,500 0 0,1 3.016775959142454e-12,-500L0,0Z"></path></g></svg>