<svg width="500" height="500" style="background: rgb(79, 246, 232);" version="1.1" xmlns="http://www.w3.org/2000/svg"><g transform="translate(0,0)"><path fill="none" stroke="#fff" stroke-opacity="0.7" d="M-375,-4.587410609936763L-354.1666666666667,-3.957008747663945C-333.3333333333333,-3.3266068853911284,-291.66666666666663,-2.0658031608454945,-250,-0.6816473080850304C-208.33333333333331,0.7025085446754341,-166.66666666666666,2.210016525650729,-125,3.147878692101136C-83.33333333333333,4.085740858551542,-41.666666666666664,4.453957210477061,0,4.083259539955884C41.666666666666664,3.712561869434708,83.33333333333333,2.6029501764668366,125,1.2645103976913514C166.66666666666666,-0.07392938108413405,208.33333333333331,-1.641197245667234,250,-2.716823772622133C291.66666666666663,-3.7924502995770326,333.3333333333333,-4.376435488903732,375,-4.200322695661588C416.66666666666663,-4.024209902419444,458.3333333333333,-3.087999126608457,500,-1.8220643030903383C541.6666666666666,-0.5561294795722194,583.3333333333333,1.0395293916530315,625,2.2313916068621196C666.6666666666666,3.4232538220712083,708.3333333333333,4.211319381264134,729.1666666666666,4.605352160860597L750,4.99938494045706"></path></g><g transform="translate(0,15.625)"><path fill="none" stroke="#fff" stroke-opacity="0.7" d="M-375,-3.898553582246644L-354.1666666666667,-3.160795421381197C-333.3333333333333,-2.4230372605157493,-291.66666666666663,-0.9475209387848547,-250,0.4470892962618529C-208.33333333333331,1.8416995313085605,-166.66666666666666,3.155403679671081,-125,3.784294973575704C-83.33333333333333,4.413186267480327,-41.666666666666664,4.357264706927053,0,3.642237304354476C41.666666666666664,2.9272099017818993,83.33333333333333,1.5530766571900196,125,0.15152345454765637C166.66666666666666,-1.2500297480947067,208.33333333333331,-2.6790029087875533,250,-3.478500360584065C291.66666666666663,-4.277997812380577,333.3333333333333,-4.448019555280755,375,-3.9104069861211066C416.66666666666663,-3.372794416961459,458.3333333333333,-2.1275475357419857,500,-0.7471034623841695C541.6666666666666,0.6333406109736467,583.3333333333333,2.1489818764698057,625,3.103083539224629C666.6666666666666,4.057185201979452,708.3333333333333,4.44974726199294,729.1666666666666,4.646028291999683L750,4.842309322006427"></path></g><g transform="translate(0,31.25)"><path fill="none" stroke="#fff" stroke-opacity="0.7" d="M-375,-2.932390196431107L-354.1666666666667,-2.1397528991950776C-333.3333333333333,-1.347115601959048,-291.66666666666663,0.2381589925130111,-250,1.544024181871862C-208.33333333333331,2.849889371230713,-166.66666666666666,3.876345155476356,-125,4.151532177462759C-83.33333333333333,4.426719199449161,-41.666666666666664,3.9506374591763227,0,2.9421406348659516C41.666666666666664,1.9336438105555809,83.33333333333333,0.3927319022076772,125,-0.9722414390499043C166.66666666666666,-2.3372147803074856,208.33333333333331,-3.526249554474745,250,-3.9927492176243957C291.66666666666663,-4.459248880774046,333.3333333333333,-4.203213432906088,375,-3.3423417790214383C416.66666666666663,-2.4814701251367897,458.3333333333333,-1.015762265235451,500,0.3809992772149896C541.6666666666666,1.77776081966543,583.3333333333333,3.1055760446649723,625,3.7540513550481482C666.6666666666666,4.402526665431324,708.3333333333333,4.371662061198135,729.1666666666666,4.35622975908154L750,4.340797456964945"></path></g><g transform="translate(0,46.875)"><path fill="none" stroke="#fff" stroke-opacity="0.7" d="M-375,-1.7576442097047973L-354.1666666666667,-0.9665085228479164C-333.3333333333333,-0.1753728359910357,-291.66666666666663,1.4068985377227259,-250,2.531131739551258C-208.33333333333331,3.6553649413797897,-166.66666666666666,4.321559971323092,-125,4.223468510274122C-83.33333333333333,4.125377049225152,-41.666666666666664,3.262999097183911,0,2.032767810173912C41.666666666666664,0.8025365231639129,83.33333333333333,-0.7955480988148438,125,-2.0268502400111377C166.66666666666666,-3.258152381207431,208.33333333333331,-4.122672041621262,250,-4.222991526828732C291.66666666666663,-4.323311012036203,333.3333333333333,-3.659430322037313,375,-2.536533879203222C416.66666666666663,-1.4136374363691309,458.3333333333333,0.1682747593001619,500,1.482001319136414C541.6666666666666,2.7957278789726665,583.3333333333333,3.841268802975878,625,4.137991339261278C666.6666666666666,4.434713875546679,708.3333333333333,3.9826180241142684,729.1666666666666,3.756570098398063L750,3.530522172681858"></path></g><g transform="translate(0,62.5)"><path fill="none" stroke="#fff" stroke-opacity="0.7" d="M-375,-0.45787597962827936L-354.1666666666667,0.27548416050947666C-333.3333333333333,1.0088443006472327,-291.66666666666663,2.4755645809227445,-250,3.3381984410969965C-208.33333333333331,4.200832301271248,-166.66666666666666,4.4593797413442395,-125,3.9949870992907224C-83.33333333333333,3.5305944572372048,-41.666666666666664,2.3432617330571777,0,0.9788030422235003C41.666666666666664,-0.385655648610177,83.33333333333333,-1.927240306097505,125,-2.937288017882506C166.66666666666666,-3.9473357296675062,208.33333333333331,-4.4258464957501795,250,-4.152850020345051C291.66666666666663,-3.8798535449399214,333.3333333333333,-2.85534982804699,375,-1.5503008659514568C416.66666666666663,-0.24525190385592388,458.3333333333333,1.3403423034422108,500,2.47758775501916C541.6666666666666,3.614833206596109,583.3333333333333,4.303729902451872,625,4.227593620006497C666.6666666666666,4.151457337561123,708.3333333333333,3.310288076814611,729.1666666666666,2.889703446441355L750,2.469118816068099"></path></g><g transform="translate(0,78.125)"><path fill="none" stroke="#fff" stroke-opacity="0.7" d="M-375,0.8744612321757288L-354.1666666666667,1.4978814971157042C-333.3333333333333,2.1213017620556793,-291.66666666666663,3.36814229193563,-250,3.9078171679333247C-208.33333333333331,4.447492043931019,-166.66666666666666,4.280001266046457,-125,3.482339958661524C-83.33333333333333,2.6846786512765908,-41.666666666666664,1.2568468143912859,0,-0.14478454897015802C41.666666666666664,-1.546415912331602,83.33333333333333,-2.921846802169185,125,-3.6387948099868366C166.66666666666666,-4.355742817804488,208.33333333333331,-4.414207943602209,250,-3.7873139038636565C291.66666666666663,-3.1604198641251044,333.3333333333333,-1.848166658850279,375,-0.45379406062116145C416.66666666666663,0.9405785376079561,458.3333333333333,2.4170705287913656,500,3.2969419491778957C541.6666666666666,4.1768133695644245,583.3333333333333,4.4600642191540745,625,4.016484735529592C666.6666666666666,3.572905251905109,708.3333333333333,2.402495435066495,729.1666666666666,1.8172905266471873L750,1.23208561822788"></path></g><g transform="translate(0,93.75)"><path fill="none" stroke="#fff" stroke-opacity="0.7" d="M-375,2.144597513685798L-354.1666666666667,2.6137336614918683C-333.3333333333333,3.082869809297939,-291.66666666666663,4.02114210491008,-250,4.199470612467419C-208.33333333333331,4.377799120024758,-166.66666666666666,3.796183839527293,-125,2.721991974291566C-83.33333333333333,1.6478001090558392,-41.666666666666664,0.08103165908184962,0,-1.2580735319388106C41.666666666666664,-2.5971787229594705,83.33333333333333,-3.7086206550268015,125,-4.081472034807992C166.66666666666666,-4.454323414589182,208.33333333333331,-4.088584242084232,250,-3.1523839715473607C291.66666666666663,-2.2161837010104906,333.3333333333333,-0.7095223324416993,375,0.6749913771903858C416.66666666666663,2.0595050868224707,458.3333333333333,3.32187113751785,500,3.8817827666215146C541.6666666666666,4.441694395725179,583.3333333333333,4.299151603237129,625,3.5196809821792368C666.6666666666666,2.7402103611213446,708.3333333333333,1.3238119114936104,729.1666666666666,0.6156126866797433L750,-0.09258653813412385"></path></g><g transform="translate(0,109.375)"><path fill="none" stroke="#fff" stroke-opacity="0.7" d="M-375,3.2621873408202537L-354.1666666666667,3.5436694475274075C-333.3333333333333,3.8251515542345618,-291.66666666666663,4.38811576764887,-250,4.19241329747746C-208.33333333333331,3.996710827306048,-166.66666666666666,3.0423416735489175,-125,1.7680271355387955C-83.33333333333333,0.493712597528673,-41.666666666666664,-1.1005473247344408,0,-2.281875021139354C41.666666666666664,-3.463202717544268,83.33333333333333,-4.231598188090981,125,-4.233831806787804C166.66666666666666,-4.236065425484626,208.33333333333331,-3.4721371923315574,250,-2.2932231545912893C291.66666666666663,-1.1143091168510215,333.3333333333333,0.4795907254764459,375,1.7557642901960397C416.66666666666663,3.0319378549156335,458.3333333333333,3.9903851420273537,500,4.190510143699005C541.6666666666666,4.390635145370657,583.3333333333333,3.83243786160224,625,2.772520296612764C666.6666666666666,1.7126027316232881,708.3333333333333,0.15096488541275344,729.1666666666666,-0.6298540376925139L750,-1.4106729607977813"></path></g><g transform="translate(0,125)"><path fill="none" stroke="#fff" stroke-opacity="0.7" d="M-375,4.147735906517341L-354.1666666666667,4.221541988012319C-333.3333333333333,4.295348069507298,-291.66666666666663,4.442960232497256,-250,3.887147213836933C-208.33333333333331,3.33133419517661,-166.66666666666666,2.0720959948660056,-125,0.6883015099506594C-83.33333333333333,-0.6954929749646869,-41.666666666666664,-2.2038437444847747,0,-3.1433654279192034C41.666666666666664,-4.082887111353632,83.33333333333333,-4.453579708702401,125,-4.085036687732532C166.66666666666666,-3.7164936667626622,208.33333333333331,-2.6087150274741537,250,-1.2709440559564649C291.66666666666663,0.06682691556122422,333.3333333333333,1.6345902193080941,375,2.711648679607162C416.66666666666663,3.7887071399062298,458.3333333333333,4.375060756757495,500,4.201164124548557C541.6666666666666,4.027267492339617,583.3333333333333,3.0931206110704728,625,1.8281486480410174C666.6666666666666,0.5631766850115616,708.3333333333333,-1.032620359778205,729.1666666666666,-1.8305188821730884L750,-2.628417404567972"></path></g><g transform="translate(0,140.625)"><path fill="none" stroke="#fff" stroke-opacity="0.7" d="M-375,4.738253632074072L-354.1666666666667,4.599133819338764C-333.3333333333333,4.4600140066034575,-291.66666666666663,4.181774381132843,-250,3.305386113615062C-208.33333333333331,2.428997846097281,-166.66666666666666,0.9544609365323325,-125,-0.4403833978404569C-83.33333333333333,-1.8352277322132462,-41.666666666666664,-3.1503794913938767,0,-3.781266444253553C41.666666666666664,-4.412153397113229,83.33333333333333,-4.3587755436519515,125,-3.6456705600235773C166.66666666666666,-2.932565576395202,208.33333333333331,-1.5597334625997301,250,-0.15826197577910717C291.66666666666663,1.243209511041516,333.3333333333333,2.67332037088729,375,3.4746519391341804C416.66666666666663,4.275983507381071,458.3333333333333,4.448535784029078,500,3.912986885385909C541.6666666666666,3.377437986742741,583.3333333333333,2.1337879128083967,625,0.7537397348774126C666.6666666666666,-0.6263084430535713,708.3333333333333,-2.1427547249811947,729.1666666666666,-2.9009778659450065L750,-3.6592010069088188"></path></g><g transform="translate(0,156.25)"><path fill="none" stroke="#fff" stroke-opacity="0.7" d="M-375,4.9917366521009185L-354.1666666666667,4.6495866174145C-333.3333333333333,4.307436582728083,-291.66666666666663,3.623136513355248,-250,2.488510998405949C-208.33333333333331,1.3538854834566496,-166.66666666666666,-0.2310654770691134,-125,-1.5377435813055693C-83.33333333333333,-2.8444216855420255,-41.666666666666664,-3.8728269334891747,0,-4.150203804032609C41.666666666666664,-4.427580674576042,83.33333333333333,-3.9539291677157604,125,-2.9469857889775164C166.66666666666666,-1.9400424102392728,208.33333333333331,-0.39980715962306657,250,0.9656773697422241C291.66666666666663,2.3311618991075145,333.3333333333333,3.5218957072218897,375,3.990501208170322C416.66666666666663,4.459106709118755,458.3333333333333,4.205583902901244,500,3.34647663894582C541.6666666666666,2.4873693749903953,583.3333333333333,1.0226776532970567,625,-0.37428311905774403C666.6666666666666,-1.7712438914125448,708.3333333333333,-3.100473714428808,729.1666666666666,-3.7650886259369396L750,-4.4297035374450715"></path></g><g transform="translate(0,171.875)"><path fill="none" stroke="#fff" stroke-opacity="0.7" d="M-375,4.890154573620736L-354.1666666666667,4.369311645700054C-333.3333333333333,3.8484687177793733,-291.66666666666663,2.8067828619380113,-250,1.494626664889423C-208.33333333333331,0.18247046784083454,-166.66666666666666,-1.40015607041498,-125,-2.525723179569935C-83.33333333333333,-3.65129028872489,-41.666666666666664,-4.319797968778985,0,-4.2239347807019145C41.666666666666664,-4.128071592624843,83.33333333333333,-3.2678375364166046,125,-2.038680224129823C166.66666666666666,-0.809522911843042,208.33333333333331,0.788557656522282,250,2.0209275286516775C291.66666666666663,3.253297400781072,333.3333333333333,4.1199565766745385,375,4.22250383157563C416.66666666666663,4.325051086476721,458.3333333333333,3.6634864203854387,500,2.5419295848230576C541.6666666666666,1.4203727492606766,583.3333333333333,-0.16117625577280248,625,-1.47568299950695C666.6666666666666,-2.790189743241098,708.3333333333333,-3.837654225675914,729.1666666666666,-4.361386466893322L750,-4.88511870811073"></path></g><g transform="translate(0,187.5)"><path fill="none" stroke="#fff" stroke-opacity="0.7" d="M-375,4.44073298828949L-354.1666666666667,3.7782450241025214C-333.3333333333333,3.115757059915553,-291.66666666666663,1.790781131541616,-250,0.39442867723074404C-208.33333333333331,-1.001923777080128,-166.66666666666666,-2.469652757327935,-125,-3.3340466356822533C-83.33333333333333,-4.198440514036571,-41.666666666666664,-4.459499290497401,0,-3.997214847492814C41.666666666666664,-3.534930404488227,83.33333333333333,-2.349302742018223,125,-0.9853621626192112C166.66666666666666,0.37857841677980075,208.33333333333331,1.9208319131078204,250,2.9324279503360584C291.66666666666663,3.944023987564296,333.3333333333333,4.424962565692752,375,4.154157329336719C416.66666666666663,3.8833520929806875,458.3333333333333,2.8608030421401662,500,1.5565736176232678C541.6666666666666,0.25234419310636924,583.3333333333333,-1.3335656050869067,625,-2.472116699625989C666.6666666666666,-3.6106677941650718,708.3333333333333,-4.301860185049961,729.1666666666666,-4.647456380492406L750,-4.9930525759348505"></path></g><g transform="translate(0,203.125)"><path fill="none" stroke="#fff" stroke-opacity="0.7" d="M-375,3.6754395119067023L-354.1666666666667,2.91842966130246C-333.3333333333333,2.161419810698218,-291.66666666666663,0.6474001094897338,-250,-0.7338252490512154C-208.33333333333331,-2.1150506075921647,-166.66666666666666,-3.363481623465579,-125,-3.9052174373917543C-83.33333333333333,-4.44695325131793,-41.666666666666664,-4.281993863296867,0,-3.4861707236272497C41.666666666666664,-2.6903475839576325,83.33333333333333,-1.2636606926394625,125,0.1380452761401465C166.66666666666666,1.5397512449197555,208.33333333333331,2.916476291160803,250,3.6353430856527007C291.66666666666663,4.354209880144599,333.3333333333333,4.415218422887348,375,3.79032322745976C416.66666666666663,3.165428032032172,458.3333333333333,1.854629098434247,500,0.46049767391145213C541.6666666666666,-0.9336337506113425,583.3333333333333,-2.411097666059007,625,-3.2927073173372183C666.6666666666666,-4.17431696861543,708.3333333333333,-4.460072355724188,729.1666666666666,-4.602950049278568L750,-4.745827742832947"></path></g><g transform="translate(0,218.75)"><path fill="none" stroke="#fff" stroke-opacity="0.7" d="M-375,2.6487099095210582L-354.1666666666667,1.851024718483183C-333.3333333333333,1.0533395274453075,-291.66666666666663,-0.5420308546304432,-250,-1.809881763390053C-208.33333333333331,-3.0777326721496627,-166.66666666666666,-4.018064107593132,-125,-4.198607877127395C-83.33333333333333,-4.379151646661658,-41.666666666666664,-3.7999077502867142,0,-2.7271532715060807C41.666666666666664,-1.6543987927254464,83.33333333333333,-0.08813373153912174,125,1.2516334750262426C166.66666666666666,2.591400681591607,208.33333333333331,3.7046700335360105,250,4.079674176822941C291.66666666666663,4.454678320109872,333.3333333333333,4.09141725473933,375,3.1568812548300373C416.66666666666663,2.2223452549207448,458.3333333333333,0.7165343204727016,500,-0.668333734149786C541.6666666666666,-2.0532017887722738,583.3333333333333,-3.3171269635692058,625,-3.8790857701312245C666.6666666666666,-4.441044576693242,708.3333333333333,-4.301037015020347,729.1666666666666,-4.2310332341839L750,-4.161029453347452"></path></g><g transform="translate(0,234.375)"><path fill="none" stroke="#fff" stroke-opacity="0.7" d="M-375,1.4335760481597757L-354.1666666666667,0.6519553230268587C-333.3333333333333,-0.12966540210605826,-291.66666666666663,-1.6929068523718922,-250,-2.7572003471464144C-208.33333333333331,-3.8214938419209368,-166.66666666666666,-4.3868393812041475,-125,-4.193348924199823C-83.33333333333333,-3.999858467195497,-41.666666666666664,-3.047532013903636,0,-1.77415183896328C41.666666666666664,-0.5007716640229241,83.33333333333333,1.093662232565927,125,2.276192265095701C166.66666666666666,3.4587222976254752,208.33333333333331,4.229348466096172,250,4.233815697824142C291.66666666666663,4.238282929552113,333.3333333333333,3.4765912245373567,375,2.298888503214521C416.66666666666663,1.1211857818916853,458.3333333333333,-0.4725279557392299,500,-1.7496261793830228C541.6666666666666,-3.0267244030268157,583.3333333333333,-3.9872071126834863,625,-4.189542621470343C666.6666666666666,-4.391878130257199,708.3333333333333,-3.8360664381742398,729.1666666666666,-3.5581605921327606L750,-3.280254746091282"></path></g><g transform="translate(0,250)"><path fill="none" stroke="#fff" stroke-opacity="0.7" d="M-375,0.1164710981307985L-354.1666666666667,-0.5934880294560826C-333.3333333333333,-1.3034471570429635,-291.66666666666663,-2.723365412216726,-250,-3.5083976847126195C-208.33333333333331,-4.293429957208514,-166.66666666666666,-4.44357624702654,-125,-3.889814650954897C-83.33333333333333,-3.336053054883254,-41.666666666666664,-2.0783835729219424,0,-0.6949539659085877C41.666666666666664,0.688475641104767,83.33333333333333,2.1976653731701647,125,3.138844190449661C166.66666666666666,4.0800230077291575,208.33333333333331,4.453190910222753,250,4.08680347363012C291.66666666666663,3.7204160370374857,333.3333333333333,2.614473261358622,375,1.2773744904148931C416.66666666666663,-0.05972428052883583,458.3333333333333,-1.6279790467374307,500,-2.706466708373502C541.6666666666666,-3.784954370009573,583.3333333333333,-4.373674927073122,625,-4.201994896994008C666.6666666666666,-4.030314866914895,708.3333333333333,-3.098234249693121,729.1666666666666,-2.6321939410822335L750,-2.166153632471347"></path></g><g transform="translate(0,265.625)"><path fill="none" stroke="#fff" stroke-opacity="0.7" d="M-375,-1.2089185080836418L-354.1666666666667,-1.7967162371250696C-333.3333333333333,-2.384513966166497,-291.66666666666663,-3.5601094242493527,-250,-4.0100406774998385C-208.33333333333331,-4.459971930750323,-166.66666666666666,-4.184238979168439,-125,-3.30959562479255C-83.33333333333333,-2.4349522704166606,-41.666666666666664,-0.9613985132467663,0,0.43367638236679384C41.666666666666664,1.8287512779803539,83.33333333333333,3.14534731203758,125,3.7782283235792122C166.66666666666666,4.4111093351208455,208.33333333333331,4.360275324146885,250,3.6490945682855345C291.66666666666663,2.9379138124241844,333.3333333333333,1.5663863116754444,375,0.16500009557194284C416.66666666666663,-1.2363861205315587,458.3333333333333,-2.667631051989822,500,-3.4707947040735694C541.6666666666666,-4.273958356157317,583.3333333333333,-4.449040728866549,625,-3.9155568591836967C666.6666666666666,-3.3820729895008443,708.3333333333333,-2.1400228774259076,729.1666666666666,-1.5189978213884392L750,-0.8979727653509708"></path></g><g transform="translate(0,281.25)"><path fill="none" stroke="#fff" stroke-opacity="0.7" d="M-375,-2.4483170456428387L-354.1666666666667,-2.872142985665499C-333.3333333333333,-3.2959689256881592,-291.66666666666663,-4.14362080573348,-250,-4.22644717096685C-208.33333333333331,-4.30927353620022,-166.66666666666666,-3.6272743866216395,-125,-2.4939631586922717C-83.33333333333333,-1.360651930762903,-41.666666666666664,0.2239713755172531,0,1.5314590801836048C41.666666666666664,2.8389467848499566,83.33333333333333,3.869298887902503,125,4.1488649034240765C166.66666666666666,4.42843091894565,208.33333333333331,3.9572108469362495,250,2.951823467927246C291.66666666666663,1.9464360889182426,333.3333333333333,0.40688140290963615,375,-0.9591108509505164C416.66666666666663,-2.325103104810669,458.3333333333333,-3.5175329265223674,500,-3.9882430766306793C541.6666666666666,-4.458953226738991,583.3333333333333,-4.207943705243917,625,-3.350603010381883C666.6666666666666,-2.493262315519849,708.3333333333333,-1.0295904472908566,729.1666666666666,-0.2977545131763605L750,0.43408142093813573"></path></g><g transform="translate(0,296.875)"><path fill="none" stroke="#fff" stroke-opacity="0.7" d="M-375,-3.513565383867767L-354.1666666666667,-3.7432725520414167C-333.3333333333333,-3.9729797202150667,-291.66666666666663,-4.432394056562368,-250,-4.142224046791182C-208.33333333333331,-3.8520540370199976,-166.66666666666666,-2.8122996811303285,-125,-1.5009336589882123C-83.33333333333333,-0.1895676368460968,-41.666666666666664,1.393410051548465,0,2.52030821297831C41.666666666666664,3.6472063744081558,83.33333333333333,4.318025008873284,125,4.224390336929394C166.66666666666666,4.130755664985504,208.33333333333331,3.2726676866325946,250,2.0445874668817683C291.66666666666663,0.8165072471309424,333.3333333333333,-0.7815652140178011,375,-2.0149996911187578C416.66666666666663,-3.248434168219714,458.3333333333333,-4.117230661272885,500,-4.222005425751878C541.6666666666666,-4.326780190230872,583.3333333333333,-3.6675332261356894,625,-2.5473188427243154C666.6666666666666,-1.4271044593129414,708.3333333333333,0.15407734341462453,729.1666666666666,0.9446682447784074L750,1.7352591461421905"></path></g><g transform="translate(0,312.5)"><path fill="none" stroke="#fff" stroke-opacity="0.7" d="M-375,-4.32889179590117L-354.1666666666667,-4.3481409892630465C-333.3333333333333,-4.367390182624922,-291.66666666666663,-4.405888569348674,-250,-3.763362144227023C-208.33333333333331,-3.1208357191053713,-166.66666666666666,-1.7972844821383156,-125,-0.40114188502498216C-83.33333333333333,0.9950007120883513,-41.666666666666664,2.4637346693479625,0,3.3298863733084456C41.666666666666664,4.196038077268929,83.33333333333333,4.459607527930284,125,3.9994324565798838C166.66666666666666,3.5392573852294844,208.33333333333331,2.3553377918673304,250,0.9919187835995336C291.66666666666663,-0.37150022466826305,333.3333333333333,-1.914418647841702,375,-2.9275604445543877C416.66666666666663,-3.940702241267073,458.3333333333333,-4.424067411519005,500,-4.155454101121716C541.6666666666666,-3.886840790724428,583.3333333333333,-2.866248999677919,625,-1.5628424209761755C666.6666666666666,-0.25943584227443206,708.3333333333333,1.326785524082546,729.1666666666666,2.119896207261035L750,2.913006890439524"></path></g><g transform="translate(0,328.125)"><path fill="none" stroke="#fff" stroke-opacity="0.7" d="M-375,-4.836301645210673L-354.1666666666667,-4.643723657567907C-333.3333333333333,-4.451145669925143,-291.66666666666663,-4.0659896946396135,-250,-3.1168101282641265C-208.33333333333331,-2.1676305618886405,-166.66666666666666,-0.6544274044231972,-125,0.727183341892288C-83.33333333333333,2.108794088207773,-41.666666666666664,3.3588124233733003,0,3.9026078010907304C41.666666666666664,4.44640317880816,83.33333333333333,4.283975599077493,125,3.4899926457643353C166.66666666666666,2.696009692451178,208.33333333333331,1.2704713655555295,250,-0.13130565315208953C291.66666666666663,-1.5330826718597088,333.3333333333333,-2.911098382379299,375,-3.6318821401075274C416.66666666666663,-4.352665897835756,458.3333333333333,-4.416217702772623,500,-3.7933229367307324C541.6666666666666,-3.1704281706888424,583.3333333333333,-1.8610868336681952,625,-0.46720011912870896C666.6666666666666,0.9266865954107774,708.3333333333333,2.4051186874691024,729.1666666666666,3.1443347334982654L750,3.883550779527428"></path></g><g transform="translate(0,343.75)"><path fill="none" stroke="#fff" stroke-opacity="0.7" d="M-375,-4.99970257743443L-354.1666666666667,-4.608995591787902C-333.3333333333333,-4.218288606141375,-291.66666666666663,-3.4368746348483183,-250,-2.2485576155905243C-208.33333333333331,-1.0602405963327302,-166.66666666666666,0.5349794708898025,-125,1.803783599542004C-83.33333333333333,3.0725877281942053,-41.666666666666664,4.014975918276075,0,4.197734491829881C41.666666666666664,4.380493065383687,83.33333333333333,3.803622022409429,125,2.7323076511738136C166.66666666666666,1.6609932799381983,208.33333333333331,0.09523558044122615,250,-1.2451902432891386C291.66666666666663,-2.5856160670195036,333.3333333333333,-3.700710014983261,375,-4.077865970561079C416.66666666666663,-4.455021926138896,458.3333333333333,-4.094239889330773,500,-3.1613705305416016C541.6666666666666,-2.2285011717524292,583.3333333333333,-0.7235444909822079,625,0.6616743958506539C666.6666666666666,2.0468932826835156,708.3333333333333,3.312374375579018,729.1666666666666,3.945114922026769L750,4.57785546847452"></path></g><g transform="translate(0,359.375)"><path fill="none" stroke="#fff" stroke-opacity="0.7" d="M-375,-4.807471790301495L-354.1666666666667,-4.24642701921198C-333.3333333333333,-3.6853822481224663,-291.66666666666663,-2.563292705943437,-250,-1.2203639067117285C-208.33333333333331,0.12256489251998026,-166.66666666666666,1.6863329488043688,-125,2.752079692510442C-83.33333333333333,3.817826436216516,-41.666666666666664,4.385551867344274,0,4.194273914304272C41.666666666666664,4.002995961264269,83.33333333333333,3.052714624056506,125,1.7802720421719307C166.66666666666666,0.5078294602873556,208.33333333333331,-1.0867743662740308,250,-2.270503735388118C291.66666666666663,-3.4542331045022054,333.3333333333333,-4.227088016168993,375,-4.233788849596778C416.66666666666663,-4.240489683024563,458.3333333333333,-3.4810364382133447,500,-2.3045480206037983C541.6666666666666,-1.1280596029942522,583.3333333333333,0.4654639874136217,625,1.7434836305646004C666.6666666666666,3.021503273715579,708.3333333333333,3.984018969609663,729.1666666666666,4.465276817556705L750,4.946534665503747"></path></g><g transform="translate(0,375)"><path fill="none" stroke="#fff" stroke-opacity="0.7" d="M-375,-4.273282770240792L-354.1666666666667,-3.5818076508984946C-333.3333333333333,-2.890332531556198,-291.66666666666663,-1.507382292871604,-250,-0.1053650113917236C-208.33333333333331,1.2966522700881569,-166.66666666666666,2.7177365943633243,-125,3.5046187743975503C-83.33333333333333,4.291500954431777,-41.666666666666664,4.444180990225063,0,3.8924722213832643C41.666666666666664,3.3407634525414664,83.33333333333333,2.084665879064584,125,0.7016046590845646C166.66666666666666,-0.6814565608954544,208.33333333333331,-2.1914814273786103,250,-3.1343149911608257C291.66666666666663,-4.077148554943041,333.3333333333333,-4.452790816024317,375,-4.088559893167111C416.66666666666663,-3.7243289703099047,458.3333333333333,-2.6202248635142174,500,-1.2838016847555438C541.6666666666666,0.05262149400313021,583.3333333333333,1.6213637447247904,625,2.701277872065465C666.6666666666666,3.7811919994061394,708.3333333333333,4.372278003365828,729.1666666666666,4.667821005345672L750,4.963364007325517"></path></g><g transform="translate(0,390.625)"><path fill="none" stroke="#fff" stroke-opacity="0.7" d="M-375,-3.4351326894287704L-354.1666666666667,-2.6624122446976437C-333.3333333333333,-1.8896917999665173,-291.66666666666663,-0.3442509105042645,-250,1.0171285577775602C-208.33333333333331,2.3785080260593845,-166.66666666666666,3.555826073160781,-125,4.0078723075694125C-83.33333333333333,4.459918541978043,-41.666666666666664,4.1866929636939085,0,3.31379674103207C41.666666666666664,2.4409005183702317,83.33333333333333,0.968333651330689,125,-0.42696826685350225C166.66666666666666,-1.8222701850376934,208.33333333333331,-3.1403071543665333,250,-3.775180619259009C291.66666666666663,-4.410054084151485,333.3333333333333,-4.361764044607596,375,-3.6525093204552053C416.66666666666663,-2.9432545963028147,458.3333333333333,-1.5730351875419222,500,-0.17173779683463064C541.6666666666666,1.2295595938726607,583.3333333333333,2.661934966526351,625,3.4669286651862747C666.6666666666666,4.2719223638461985,708.3333333333333,4.449534388512356,729.1666666666666,4.538340400845435L750,4.627146413178513"></path></g><g transform="translate(0,406.25)"><path fill="none" stroke="#fff" stroke-opacity="0.7" d="M-375,-2.3526396450825224L-354.1666666666667,-1.5536379245406586C-333.3333333333333,-0.7546362039987952,-291.66666666666663,0.8433672370849319,-250,2.0672731877435693C-208.33333333333331,3.2911791384022067,-166.66666666666666,4.140987598635755,-125,4.226043578821105C-83.33333333333333,4.311099559006455,-41.666666666666664,3.631403059143606,0,2.4994089929290078C41.666666666666664,1.3674149267144085,83.33333333333333,-0.21687670585194108,125,-1.5251706944468906C166.66666666666666,-2.83346468304184,208.33333333333331,-3.865761027665389,250,-4.147515479033344C291.66666666666663,-4.429269930401299,333.3333333333333,-3.9604824885136583,375,-2.956653659444145C416.66666666666663,-1.9528248303746316,458.3333333333333,-0.4139546141232451,500,0.952541899331055C541.6666666666666,2.319038412785355,583.3333333333333,3.5131612234425686,625,3.9859748287333185C666.6666666666666,4.458788434024068,708.3333333333333,4.210292833948355,729.1666666666666,4.086045033910498L750,3.96179723387264"></path></g><g transform="translate(0,421.875)"><path fill="none" stroke="#fff" stroke-opacity="0.7" d="M-375,-1.1028019899220929L-354.1666666666667,-0.33435244540875575C-333.3333333333333,0.4340970991045814,-291.66666666666663,1.9709961881312557,-250,2.970371487102749C-208.33333333333331,3.969746786074242,-166.66666666666666,4.431598294990554,-125,4.143613940171536C-83.33333333333333,3.855629585352518,-41.666666666666664,2.81780936679817,0,1.5072368459013488C41.666666666666664,0.1966643250045278,83.33333333333333,-1.386660498234766,125,-2.5148868535116935C166.66666666666666,-3.6431132087886207,208.33333333333331,-4.316241096103182,250,-4.224835177801023C291.66666666666663,-4.133429259498865,333.3333333333333,-3.277489535579986,375,-2.050489523445757C416.66666666666663,-0.8234895113115283,458.3333333333333,0.7745707890380508,500,2.009066742448611C541.6666666666666,3.2435626958591706,583.3333333333333,4.114494302330711,625,4.221496310621709C666.6666666666666,4.328498318912707,708.3333333333333,3.671570729023162,729.1666666666666,3.343106934078389L750,3.0146431391336166"></path></g><g transform="translate(0,437.5)"><path fill="none" stroke="#fff" stroke-opacity="0.7" d="M-375,0.22547860493561422L-354.1666666666667,0.9087157154307578C-333.3333333333333,1.5919528259259015,-291.66666666666663,2.9584270469161886,-250,3.662185554504954C-208.33333333333331,4.365944062093719,-166.66666666666666,4.406986856280962,-125,3.766446659218079C-83.33333333333333,3.125906462155196,-41.666666666666664,1.8037832738421873,0,0.4078540753048052C41.666666666666664,-0.9880751232325765,83.33333333333333,-2.4578103319943314,125,-3.3257176645282716C166.66666666666666,-4.193624997062212,208.33333333333331,-4.459704453368339,250,-4.001639920926865C291.66666666666663,-3.5435753884853924,333.3333333333333,-2.3613668672963195,375,-0.9984728885332994C416.66666666666663,0.3644210902297206,458.3333333333333,1.9080005265666877,500,2.922685512884141C541.6666666666666,3.9373704992015943,583.3333333333333,4.423161035499534,625,4.156740332410717C666.6666666666666,3.8903196293219,708.3333333333333,2.8716876868463257,729.1666666666666,2.3623717156085386L750,1.8530557443707516"></path></g><g transform="translate(0,453.125)"><path fill="none" stroke="#fff" stroke-opacity="0.7" d="M-375,1.5377207769652665L-354.1666666666667,2.0871464048847375C-333.3333333333333,2.636572032804209,-291.66666666666663,3.735423288643151,-250,4.093506257515838C-208.33333333333331,4.451589226388524,-166.66666666666666,4.0689039082949545,-125,3.1213698615408605C-83.33333333333333,2.1738358147867665,-41.666666666666664,0.6614530393721477,0,-0.7205395902001521C41.666666666666664,-2.102532219772452,83.33333333333333,-3.354134703502433,125,-3.8999882656497133C166.66666666666666,-4.445841827796993,208.33333333333331,-4.285946468361574,250,-3.493805715378301C291.66666666666663,-2.701664962395029,333.3333333333333,-1.2772788158639043,375,0.12456569710134846C416.66666666666663,1.5264102100666013,458.3333333333333,2.905713089465982,500,3.628411982130161C541.6666666666666,4.3511108747943394,583.3333333333333,4.417205780723316,625,3.7963130240676777C666.6666666666666,3.1754202674120386,708.3333333333333,1.867539848171785,729.1666666666666,1.2135996385516583L750,0.5596594289315316"></path></g><g transform="translate(0,468.75)"><path fill="none" stroke="#fff" stroke-opacity="0.7" d="M-375,2.740583985880014L-354.1666666666667,3.117117170368754C-333.3333333333333,3.4936503548574946,-291.66666666666663,4.246716723834975,-250,4.233653506504007C-208.33333333333331,4.22059028917304,-166.66666666666666,3.4413974855336225,-125,2.2542682307029365C-83.33333333333333,1.0671389758722498,-41.666666666666664,-0.5279267301497063,0,-1.797680860315831C41.666666666666664,-3.0674349904819556,83.33333333333333,-4.011877544792249,125,-4.196850458790265C166.66666666666666,-4.381823372788281,208.33333333333331,-3.80732664647402,250,-2.7374551002204495C291.66666666666663,-1.667583553966879,333.3333333333333,-0.10233718777399936,375,1.2387438530710497C416.66666666666663,2.579824893916099,458.3333333333333,3.6967406094133177,500,4.076047420608997C541.6666666666666,4.455354231804677,583.3333333333333,4.097052138698816,625,3.165851787294799C666.6666666666666,2.2346514358907825,708.3333333333333,0.730552826188609,729.1666666666666,-0.021496478662477725L750,-0.7735457835135644"></path></g><g transform="translate(0,484.375)"><path fill="none" stroke="#fff" stroke-opacity="0.7" d="M-375,3.7485078799365343L-354.1666666666667,3.925365599060608C-333.3333333333333,4.1022233181846826,-291.66666666666663,4.45593875643283,-250,4.072658547058819C-208.33333333333331,3.6893783376848086,-166.66666666666666,2.569102480688639,-125,1.2268192043230437C-83.33333333333333,-0.11546407204255171,-41.666666666666664,-1.679754767777573,0,-2.746952057100707C41.666666666666664,-3.814149346423841,83.33333333333333,-4.384253229335089,125,-4.195188265444528C166.66666666666666,-4.006123301553967,208.33333333333331,-3.0578894908615997,250,-1.7863877296405728C291.66666666666663,-0.5148859684195461,333.3333333333333,1.0798837433301391,375,2.2648094464458213C416.66666666666663,3.449735149561503,458.3333333333333,4.224816844043182,500,4.233751262173815C541.6666666666666,4.242685680304448,583.3333333333333,3.485472822084036,625,2.310201692403497C666.6666666666666,1.1349305627229587,708.3333333333333,-0.4583988384177067,729.1666666666666,-1.2550635389880394L750,-2.051728239558372"></path></g></svg>