<svg width="500" height="500" style="background: rgb(75, 155, 252);" version="1.1" xmlns="http://www.w3.org/2000/svg"><g transform="translate(-20,-15)"><path fill="#fff" fill-opacity="0.8" fill-rule="evenodd" d="M0,-62.5m0,-76.68164704939288l66.40825434880628,38.34082352469644l1.4210854715202004e-14,76.68164704939286l-66.40825434880627,38.34082352469646l-66.40825434880628,-38.3408235246964l-5.684341886080802e-14,-76.68164704939286l66.40825434880622,-38.34082352469649zM108.25317547305484,-62.5m0,-76.68164704939288l66.40825434880628,38.34082352469644l1.4210854715202004e-14,76.68164704939286l-66.40825434880627,38.34082352469646l-66.40825434880628,-38.3408235246964l-5.684341886080802e-14,-76.68164704939286l66.40825434880622,-38.34082352469649zM216.50635094610968,-62.5m0,-76.68164704939288l66.40825434880628,38.34082352469644l1.4210854715202004e-14,76.68164704939286l-66.40825434880627,38.34082352469646l-66.40825434880628,-38.3408235246964l-5.684341886080802e-14,-76.68164704939286l66.40825434880622,-38.34082352469649zM324.7595264191645,-62.5m0,-76.68164704939288l66.40825434880628,38.34082352469644l1.4210854715202004e-14,76.68164704939286l-66.40825434880627,38.34082352469646l-66.40825434880628,-38.3408235246964l-5.684341886080802e-14,-76.68164704939286l66.40825434880622,-38.34082352469649zM433.01270189221935,-62.5m0,-76.68164704939288l66.40825434880628,38.34082352469644l1.4210854715202004e-14,76.68164704939286l-66.40825434880627,38.34082352469646l-66.40825434880628,-38.3408235246964l-5.684341886080802e-14,-76.68164704939286l66.40825434880622,-38.34082352469649zM541.2658773652742,-62.5m0,-76.68164704939288l66.40825434880628,38.34082352469644l1.4210854715202004e-14,76.68164704939286l-66.40825434880627,38.34082352469646l-66.40825434880628,-38.3408235246964l-5.684341886080802e-14,-76.68164704939286l66.40825434880622,-38.34082352469649zM-54.12658773652742,31.25m0,-76.68164704939288l66.40825434880628,38.34082352469644l1.4210854715202004e-14,76.68164704939286l-66.40825434880627,38.34082352469646l-66.40825434880628,-38.3408235246964l-5.684341886080802e-14,-76.68164704939286l66.40825434880622,-38.34082352469649zM54.12658773652742,31.25m0,-76.68164704939288l66.40825434880628,38.34082352469644l1.4210854715202004e-14,76.68164704939286l-66.40825434880627,38.34082352469646l-66.40825434880628,-38.3408235246964l-5.684341886080802e-14,-76.68164704939286l66.40825434880622,-38.34082352469649zM162.37976320958225,31.25m0,-76.68164704939288l66.40825434880628,38.34082352469644l1.4210854715202004e-14,76.68164704939286l-66.40825434880627,38.34082352469646l-66.40825434880628,-38.3408235246964l-5.684341886080802e-14,-76.68164704939286l66.40825434880622,-38.34082352469649zM270.6329386826371,31.25m0,-76.68164704939288l66.40825434880628,38.34082352469644l1.4210854715202004e-14,76.68164704939286l-66.40825434880627,38.34082352469646l-66.40825434880628,-38.3408235246964l-5.684341886080802e-14,-76.68164704939286l66.40825434880622,-38.34082352469649zM378.8861141556919,31.25m0,-76.68164704939288l66.40825434880628,38.34082352469644l1.4210854715202004e-14,76.68164704939286l-66.40825434880627,38.34082352469646l-66.40825434880628,-38.3408235246964l-5.684341886080802e-14,-76.68164704939286l66.40825434880622,-38.34082352469649zM487.1392896287468,31.25m0,-76.68164704939288l66.40825434880628,38.34082352469644l1.4210854715202004e-14,76.68164704939286l-66.40825434880627,38.34082352469646l-66.40825434880628,-38.3408235246964l-5.684341886080802e-14,-76.68164704939286l66.40825434880622,-38.34082352469649zM595.3924651018016,31.25m0,-76.68164704939288l66.40825434880628,38.34082352469644l1.4210854715202004e-14,76.68164704939286l-66.40825434880627,38.34082352469646l-66.40825434880628,-38.3408235246964l-5.684341886080802e-14,-76.68164704939286l66.40825434880622,-38.34082352469649zM0,125m0,-76.68164704939288l66.40825434880628,38.34082352469644l1.4210854715202004e-14,76.68164704939286l-66.40825434880627,38.34082352469646l-66.40825434880628,-38.3408235246964l-5.684341886080802e-14,-76.68164704939286l66.40825434880622,-38.34082352469649zM108.25317547305484,125m0,-76.68164704939288l66.40825434880628,38.34082352469644l1.4210854715202004e-14,76.68164704939286l-66.40825434880627,38.34082352469646l-66.40825434880628,-38.3408235246964l-5.684341886080802e-14,-76.68164704939286l66.40825434880622,-38.34082352469649zM216.50635094610968,125m0,-76.68164704939288l66.40825434880628,38.34082352469644l1.4210854715202004e-14,76.68164704939286l-66.40825434880627,38.34082352469646l-66.40825434880628,-38.3408235246964l-5.684341886080802e-14,-76.68164704939286l66.40825434880622,-38.34082352469649zM324.7595264191645,125m0,-76.68164704939288l66.40825434880628,38.34082352469644l1.4210854715202004e-14,76.68164704939286l-66.40825434880627,38.34082352469646l-66.40825434880628,-38.3408235246964l-5.684341886080802e-14,-76.68164704939286l66.40825434880622,-38.34082352469649zM433.01270189221935,125m0,-76.68164704939288l66.40825434880628,38.34082352469644l1.4210854715202004e-14,76.68164704939286l-66.40825434880627,38.34082352469646l-66.40825434880628,-38.3408235246964l-5.684341886080802e-14,-76.68164704939286l66.40825434880622,-38.34082352469649zM541.2658773652742,125m0,-76.68164704939288l66.40825434880628,38.34082352469644l1.4210854715202004e-14,76.68164704939286l-66.40825434880627,38.34082352469646l-66.40825434880628,-38.3408235246964l-5.684341886080802e-14,-76.68164704939286l66.40825434880622,-38.34082352469649zM-54.12658773652742,218.75m0,-76.68164704939288l66.40825434880628,38.34082352469644l1.4210854715202004e-14,76.68164704939286l-66.40825434880627,38.34082352469646l-66.40825434880628,-38.3408235246964l-5.684341886080802e-14,-76.68164704939286l66.40825434880622,-38.34082352469649zM54.12658773652742,218.75m0,-76.68164704939288l66.40825434880628,38.34082352469644l1.4210854715202004e-14,76.68164704939286l-66.40825434880627,38.34082352469646l-66.40825434880628,-38.3408235246964l-5.684341886080802e-14,-76.68164704939286l66.40825434880622,-38.34082352469649zM162.37976320958225,218.75m0,-76.68164704939288l66.40825434880628,38.34082352469644l1.4210854715202004e-14,76.68164704939286l-66.40825434880627,38.34082352469646l-66.40825434880628,-38.3408235246964l-5.684341886080802e-14,-76.68164704939286l66.40825434880622,-38.34082352469649zM270.6329386826371,218.75m0,-76.68164704939288l66.40825434880628,38.34082352469644l1.4210854715202004e-14,76.68164704939286l-66.40825434880627,38.34082352469646l-66.40825434880628,-38.3408235246964l-5.684341886080802e-14,-76.68164704939286l66.40825434880622,-38.34082352469649zM378.8861141556919,218.75m0,-76.68164704939288l66.40825434880628,38.34082352469644l1.4210854715202004e-14,76.68164704939286l-66.40825434880627,38.34082352469646l-66.40825434880628,-38.3408235246964l-5.684341886080802e-14,-76.68164704939286l66.40825434880622,-38.34082352469649zM487.1392896287468,218.75m0,-76.68164704939288l66.40825434880628,38.34082352469644l1.4210854715202004e-14,76.68164704939286l-66.40825434880627,38.34082352469646l-66.40825434880628,-38.3408235246964l-5.684341886080802e-14,-76.68164704939286l66.40825434880622,-38.34082352469649zM595.3924651018016,218.75m0,-76.68164704939288l66.40825434880628,38.34082352469644l1.4210854715202004e-14,76.68164704939286l-66.40825434880627,38.34082352469646l-66.40825434880628,-38.3408235246964l-5.684341886080802e-14,-76.68164704939286l66.40825434880622,-38.34082352469649zM0,312.5m0,-76.68164704939288l66.40825434880628,38.34082352469644l1.4210854715202004e-14,76.68164704939286l-66.40825434880627,38.34082352469646l-66.40825434880628,-38.3408235246964l-5.684341886080802e-14,-76.68164704939286l66.40825434880622,-38.34082352469649zM108.25317547305484,312.5m0,-76.68164704939288l66.40825434880628,38.34082352469644l1.4210854715202004e-14,76.68164704939286l-66.40825434880627,38.34082352469646l-66.40825434880628,-38.3408235246964l-5.684341886080802e-14,-76.68164704939286l66.40825434880622,-38.34082352469649zM216.50635094610968,312.5m0,-76.68164704939288l66.40825434880628,38.34082352469644l1.4210854715202004e-14,76.68164704939286l-66.40825434880627,38.34082352469646l-66.40825434880628,-38.3408235246964l-5.684341886080802e-14,-76.68164704939286l66.40825434880622,-38.34082352469649zM324.7595264191645,312.5m0,-76.68164704939288l66.40825434880628,38.34082352469644l1.4210854715202004e-14,76.68164704939286l-66.40825434880627,38.34082352469646l-66.40825434880628,-38.3408235246964l-5.684341886080802e-14,-76.68164704939286l66.40825434880622,-38.34082352469649zM433.01270189221935,312.5m0,-76.68164704939288l66.40825434880628,38.34082352469644l1.4210854715202004e-14,76.68164704939286l-66.40825434880627,38.34082352469646l-66.40825434880628,-38.3408235246964l-5.684341886080802e-14,-76.68164704939286l66.40825434880622,-38.34082352469649zM541.2658773652742,312.5m0,-76.68164704939288l66.40825434880628,38.34082352469644l1.4210854715202004e-14,76.68164704939286l-66.40825434880627,38.34082352469646l-66.40825434880628,-38.3408235246964l-5.684341886080802e-14,-76.68164704939286l66.40825434880622,-38.34082352469649zM-54.12658773652742,406.25m0,-76.68164704939288l66.40825434880628,38.34082352469644l1.4210854715202004e-14,76.68164704939286l-66.40825434880627,38.34082352469646l-66.40825434880628,-38.3408235246964l-5.684341886080802e-14,-76.68164704939286l66.40825434880622,-38.34082352469649zM54.12658773652742,406.25m0,-76.68164704939288l66.40825434880628,38.34082352469644l1.4210854715202004e-14,76.68164704939286l-66.40825434880627,38.34082352469646l-66.40825434880628,-38.3408235246964l-5.684341886080802e-14,-76.68164704939286l66.40825434880622,-38.34082352469649zM162.37976320958225,406.25m0,-76.68164704939288l66.40825434880628,38.34082352469644l1.4210854715202004e-14,76.68164704939286l-66.40825434880627,38.34082352469646l-66.40825434880628,-38.3408235246964l-5.684341886080802e-14,-76.68164704939286l66.40825434880622,-38.34082352469649zM270.6329386826371,406.25m0,-76.68164704939288l66.40825434880628,38.34082352469644l1.4210854715202004e-14,76.68164704939286l-66.40825434880627,38.34082352469646l-66.40825434880628,-38.3408235246964l-5.684341886080802e-14,-76.68164704939286l66.40825434880622,-38.34082352469649zM378.8861141556919,406.25m0,-76.68164704939288l66.40825434880628,38.34082352469644l1.4210854715202004e-14,76.68164704939286l-66.40825434880627,38.34082352469646l-66.40825434880628,-38.3408235246964l-5.684341886080802e-14,-76.68164704939286l66.40825434880622,-38.34082352469649zM487.1392896287468,406.25m0,-76.68164704939288l66.40825434880628,38.34082352469644l1.4210854715202004e-14,76.68164704939286l-66.40825434880627,38.34082352469646l-66.40825434880628,-38.3408235246964l-5.684341886080802e-14,-76.68164704939286l66.40825434880622,-38.34082352469649zM595.3924651018016,406.25m0,-76.68164704939288l66.40825434880628,38.34082352469644l1.4210854715202004e-14,76.68164704939286l-66.40825434880627,38.34082352469646l-66.40825434880628,-38.3408235246964l-5.684341886080802e-14,-76.68164704939286l66.40825434880622,-38.34082352469649zM0,500m0,-76.68164704939288l66.40825434880628,38.34082352469644l1.4210854715202004e-14,76.68164704939286l-66.40825434880627,38.34082352469646l-66.40825434880628,-38.3408235246964l-5.684341886080802e-14,-76.68164704939286l66.40825434880622,-38.34082352469649zM108.25317547305484,500m0,-76.68164704939288l66.40825434880628,38.34082352469644l1.4210854715202004e-14,76.68164704939286l-66.40825434880627,38.34082352469646l-66.40825434880628,-38.3408235246964l-5.684341886080802e-14,-76.68164704939286l66.40825434880622,-38.34082352469649zM216.50635094610968,500m0,-76.68164704939288l66.40825434880628,38.34082352469644l1.4210854715202004e-14,76.68164704939286l-66.40825434880627,38.34082352469646l-66.40825434880628,-38.3408235246964l-5.684341886080802e-14,-76.68164704939286l66.40825434880622,-38.34082352469649zM324.7595264191645,500m0,-76.68164704939288l66.40825434880628,38.34082352469644l1.4210854715202004e-14,76.68164704939286l-66.40825434880627,38.34082352469646l-66.40825434880628,-38.3408235246964l-5.684341886080802e-14,-76.68164704939286l66.40825434880622,-38.34082352469649zM433.01270189221935,500m0,-76.68164704939288l66.40825434880628,38.34082352469644l1.4210854715202004e-14,76.68164704939286l-66.40825434880627,38.34082352469646l-66.40825434880628,-38.3408235246964l-5.684341886080802e-14,-76.68164704939286l66.40825434880622,-38.34082352469649zM541.2658773652742,500m0,-76.68164704939288l66.40825434880628,38.34082352469644l1.4210854715202004e-14,76.68164704939286l-66.40825434880627,38.34082352469646l-66.40825434880628,-38.3408235246964l-5.684341886080802e-14,-76.68164704939286l66.40825434880622,-38.34082352469649zM-54.12658773652742,593.75m0,-76.68164704939288l66.40825434880628,38.34082352469644l1.4210854715202004e-14,76.68164704939286l-66.40825434880627,38.34082352469646l-66.40825434880628,-38.3408235246964l-5.684341886080802e-14,-76.68164704939286l66.40825434880622,-38.34082352469649zM54.12658773652742,593.75m0,-76.68164704939288l66.40825434880628,38.34082352469644l1.4210854715202004e-14,76.68164704939286l-66.40825434880627,38.34082352469646l-66.40825434880628,-38.3408235246964l-5.684341886080802e-14,-76.68164704939286l66.40825434880622,-38.34082352469649zM162.37976320958225,593.75m0,-76.68164704939288l66.40825434880628,38.34082352469644l1.4210854715202004e-14,76.68164704939286l-66.40825434880627,38.34082352469646l-66.40825434880628,-38.3408235246964l-5.684341886080802e-14,-76.68164704939286l66.40825434880622,-38.34082352469649zM270.6329386826371,593.75m0,-76.68164704939288l66.40825434880628,38.34082352469644l1.4210854715202004e-14,76.68164704939286l-66.40825434880627,38.34082352469646l-66.40825434880628,-38.3408235246964l-5.684341886080802e-14,-76.68164704939286l66.40825434880622,-38.34082352469649zM378.8861141556919,593.75m0,-76.68164704939288l66.40825434880628,38.34082352469644l1.4210854715202004e-14,76.68164704939286l-66.40825434880627,38.34082352469646l-66.40825434880628,-38.3408235246964l-5.684341886080802e-14,-76.68164704939286l66.40825434880622,-38.34082352469649zM487.1392896287468,593.75m0,-76.68164704939288l66.40825434880628,38.34082352469644l1.4210854715202004e-14,76.68164704939286l-66.40825434880627,38.34082352469646l-66.40825434880628,-38.3408235246964l-5.684341886080802e-14,-76.68164704939286l66.40825434880622,-38.34082352469649zM595.3924651018016,593.75m0,-76.68164704939288l66.40825434880628,38.34082352469644l1.4210854715202004e-14,76.68164704939286l-66.40825434880627,38.34082352469646l-66.40825434880628,-38.3408235246964l-5.684341886080802e-14,-76.68164704939286l66.40825434880622,-38.34082352469649z"></path></g></svg>