<svg width="500" height="500" style="background: rgb(143, 211, 80);" version="1.1" xmlns="http://www.w3.org/2000/svg"><g transform="translate(12.5,12.5)"><path fill="#000" transform="rotate(52.16115745101655)" d="M0,10A-10,10,0,0,1,0,-10A-10,10,0,0,0,0,10"></path></g><g transform="translate(37.5,12.5)"><path fill="#000" transform="rotate(56.974934115934616)" d="M0,10A-10,10,0,0,1,0,-10A-10,10,0,0,0,0,10"></path></g><g transform="translate(62.5,12.5)"><path fill="#000" transform="rotate(62.377225675806315)" d="M0,10A-10,10,0,0,1,0,-10A-10,10,0,0,0,0,10"></path></g><g transform="translate(87.5,12.5)"><path fill="#000" transform="rotate(68.36883033287924)" d="M0,10A-10,10,0,0,1,0,-10A-10,10,0,0,0,0,10"></path></g><g transform="translate(112.5,12.5)"><path fill="#000" transform="rotate(74.89996948088277)" d="M0,10A-10,10,0,0,1,0,-10A-10,10,0,0,0,0,10"></path></g><g transform="translate(137.5,12.5)"><path fill="#000" transform="rotate(81.85709706883279)" d="M0,10A-10,10,0,0,1,0,-10A-10,10,0,0,0,0,10"></path></g><g transform="translate(162.5,12.5)"><path fill="#000" transform="rotate(89.06335679082353)" d="M0,10A-10,10,0,0,1,0,-10A-10,10,0,0,0,0,10"></path></g><g transform="translate(187.5,12.5)"><path fill="#000" transform="rotate(96.29921687628537)" d="M0,10A-10,10,0,0,1,0,-10A-10,10,0,0,0,0,10"></path></g><g transform="translate(212.5,12.5)"><path fill="#000" transform="rotate(103.33978857135958)" d="M0,10A-10,10,0,0,1,0,-10A-10,10,0,0,0,0,10"></path></g><g transform="translate(237.5,12.5)"><path fill="#000" transform="rotate(109.99439778228887)" d="M0,10A-10,10,0,0,1,0,-10A-10,10,0,0,0,0,10"></path></g><g transform="translate(262.5,12.5)"><path fill="#000" transform="rotate(116.13236879799143)" d="M0,10A-10,10,0,0,1,0,-10A-10,10,0,0,0,0,10"></path></g><g transform="translate(287.5,12.5)"><path fill="#000" transform="rotate(121.68835374928645)" d="M0,10A-10,10,0,0,1,0,-10A-10,10,0,0,0,0,10"></path></g><g transform="translate(312.5,12.5)"><path fill="#000" transform="rotate(126.65175456742705)" d="M0,10A-10,10,0,0,1,0,-10A-10,10,0,0,0,0,10"></path></g><g transform="translate(337.5,12.5)"><path fill="#000" transform="rotate(131.0494830212622)" d="M0,10A-10,10,0,0,1,0,-10A-10,10,0,0,0,0,10"></path></g><g transform="translate(362.5,12.5)"><path fill="#000" transform="rotate(134.92944792238495)" d="M0,10A-10,10,0,0,1,0,-10A-10,10,0,0,0,0,10"></path></g><g transform="translate(387.5,12.5)"><path fill="#000" transform="rotate(138.34815618153976)" d="M0,10A-10,10,0,0,1,0,-10A-10,10,0,0,0,0,10"></path></g><g transform="translate(412.5,12.5)"><path fill="#000" transform="rotate(141.36282185509384)" d="M0,10A-10,10,0,0,1,0,-10A-10,10,0,0,0,0,10"></path></g><g transform="translate(437.5,12.5)"><path fill="#000" transform="rotate(144.02703944746537)" d="M0,10A-10,10,0,0,1,0,-10A-10,10,0,0,0,0,10"></path></g><g transform="translate(462.5,12.5)"><path fill="#000" transform="rotate(146.38883595608837)" d="M0,10A-10,10,0,0,1,0,-10A-10,10,0,0,0,0,10"></path></g><g transform="translate(487.5,12.5)"><path fill="#000" transform="rotate(148.49013330288204)" d="M0,10A-10,10,0,0,1,0,-10A-10,10,0,0,0,0,10"></path></g><g transform="translate(12.5,37.5)"><path fill="#000" transform="rotate(48.34699047490611)" d="M0,10A-10,10,0,0,1,0,-10A-10,10,0,0,0,0,10"></path></g><g transform="translate(37.5,37.5)"><path fill="#000" transform="rotate(53.33717888623106)" d="M0,10A-10,10,0,0,1,0,-10A-10,10,0,0,0,0,10"></path></g><g transform="translate(62.5,37.5)"><path fill="#000" transform="rotate(59.06832219605593)" d="M0,10A-10,10,0,0,1,0,-10A-10,10,0,0,0,0,10"></path></g><g transform="translate(87.5,37.5)"><path fill="#000" transform="rotate(65.5767482363226)" d="M0,10A-10,10,0,0,1,0,-10A-10,10,0,0,0,0,10"></path></g><g transform="translate(112.5,37.5)"><path fill="#000" transform="rotate(72.82988402033308)" d="M0,10A-10,10,0,0,1,0,-10A-10,10,0,0,0,0,10"></path></g><g transform="translate(137.5,37.5)"><path fill="#000" transform="rotate(80.69471681006007)" d="M0,10A-10,10,0,0,1,0,-10A-10,10,0,0,0,0,10"></path></g><g transform="translate(162.5,37.5)"><path fill="#000" transform="rotate(88.92745217343527)" d="M0,10A-10,10,0,0,1,0,-10A-10,10,0,0,0,0,10"></path></g><g transform="translate(187.5,37.5)"><path fill="#000" transform="rotate(97.204411750428)" d="M0,10A-10,10,0,0,1,0,-10A-10,10,0,0,0,0,10"></path></g><g transform="translate(212.5,37.5)"><path fill="#000" transform="rotate(105.19161760694034)" d="M0,10A-10,10,0,0,1,0,-10A-10,10,0,0,0,0,10"></path></g><g transform="translate(237.5,37.5)"><path fill="#000" transform="rotate(112.61984111634082)" d="M0,10A-10,10,0,0,1,0,-10A-10,10,0,0,0,0,10"></path></g><g transform="translate(262.5,37.5)"><path fill="#000" transform="rotate(119.32707980973888)" d="M0,10A-10,10,0,0,1,0,-10A-10,10,0,0,0,0,10"></path></g><g transform="translate(287.5,37.5)"><path fill="#000" transform="rotate(125.25743598414469)" d="M0,10A-10,10,0,0,1,0,-10A-10,10,0,0,0,0,10"></path></g><g transform="translate(312.5,37.5)"><path fill="#000" transform="rotate(130.43279103152446)" d="M0,10A-10,10,0,0,1,0,-10A-10,10,0,0,0,0,10"></path></g><g transform="translate(337.5,37.5)"><path fill="#000" transform="rotate(134.91919432193566)" d="M0,10A-10,10,0,0,1,0,-10A-10,10,0,0,0,0,10"></path></g><g transform="translate(362.5,37.5)"><path fill="#000" transform="rotate(138.80054211841397)" d="M0,10A-10,10,0,0,1,0,-10A-10,10,0,0,0,0,10"></path></g><g transform="translate(387.5,37.5)"><path fill="#000" transform="rotate(142.16229467641006)" d="M0,10A-10,10,0,0,1,0,-10A-10,10,0,0,0,0,10"></path></g><g transform="translate(412.5,37.5)"><path fill="#000" transform="rotate(145.083202606459)" d="M0,10A-10,10,0,0,1,0,-10A-10,10,0,0,0,0,10"></path></g><g transform="translate(437.5,37.5)"><path fill="#000" transform="rotate(147.63209236448512)" d="M0,10A-10,10,0,0,1,0,-10A-10,10,0,0,0,0,10"></path></g><g transform="translate(462.5,37.5)"><path fill="#000" transform="rotate(149.867388785134)" d="M0,10A-10,10,0,0,1,0,-10A-10,10,0,0,0,0,10"></path></g><g transform="translate(487.5,37.5)"><path fill="#000" transform="rotate(151.8379130089709)" d="M0,10A-10,10,0,0,1,0,-10A-10,10,0,0,0,0,10"></path></g><g transform="translate(12.5,62.5)"><path fill="#000" transform="rotate(43.86279630094299)" d="M0,10A-10,10,0,0,1,0,-10A-10,10,0,0,0,0,10"></path></g><g transform="translate(37.5,62.5)"><path fill="#000" transform="rotate(48.95268407812128)" d="M0,10A-10,10,0,0,1,0,-10A-10,10,0,0,0,0,10"></path></g><g transform="translate(62.5,62.5)"><path fill="#000" transform="rotate(54.970692598371485)" d="M0,10A-10,10,0,0,1,0,-10A-10,10,0,0,0,0,10"></path></g><g transform="translate(87.5,62.5)"><path fill="#000" transform="rotate(62.02264433442144)" d="M0,10A-10,10,0,0,1,0,-10A-10,10,0,0,0,0,10"></path></g><g transform="translate(112.5,62.5)"><path fill="#000" transform="rotate(70.12836753974585)" d="M0,10A-10,10,0,0,1,0,-10A-10,10,0,0,0,0,10"></path></g><g transform="translate(137.5,62.5)"><path fill="#000" transform="rotate(79.14984733829961)" d="M0,10A-10,10,0,0,1,0,-10A-10,10,0,0,0,0,10"></path></g><g transform="translate(162.5,62.5)"><path fill="#000" transform="rotate(88.74542235769732)" d="M0,10A-10,10,0,0,1,0,-10A-10,10,0,0,0,0,10"></path></g><g transform="translate(187.5,62.5)"><path fill="#000" transform="rotate(98.41123457127333)" d="M0,10A-10,10,0,0,1,0,-10A-10,10,0,0,0,0,10"></path></g><g transform="translate(212.5,62.5)"><path fill="#000" transform="rotate(107.62167167960257)" d="M0,10A-10,10,0,0,1,0,-10A-10,10,0,0,0,0,10"></path></g><g transform="translate(237.5,62.5)"><path fill="#000" transform="rotate(115.98472274947665)" d="M0,10A-10,10,0,0,1,0,-10A-10,10,0,0,0,0,10"></path></g><g transform="translate(262.5,62.5)"><path fill="#000" transform="rotate(123.31172052782732)" d="M0,10A-10,10,0,0,1,0,-10A-10,10,0,0,0,0,10"></path></g><g transform="translate(287.5,62.5)"><path fill="#000" transform="rotate(129.58862552354037)" d="M0,10A-10,10,0,0,1,0,-10A-10,10,0,0,0,0,10"></path></g><g transform="translate(312.5,62.5)"><path fill="#000" transform="rotate(134.90545352805512)" d="M0,10A-10,10,0,0,1,0,-10A-10,10,0,0,0,0,10"></path></g><g transform="translate(337.5,62.5)"><path fill="#000" transform="rotate(139.3939971626104)" d="M0,10A-10,10,0,0,1,0,-10A-10,10,0,0,0,0,10"></path></g><g transform="translate(362.5,62.5)"><path fill="#000" transform="rotate(143.18997700516042)" d="M0,10A-10,10,0,0,1,0,-10A-10,10,0,0,0,0,10"></path></g><g transform="translate(387.5,62.5)"><path fill="#000" transform="rotate(146.4155523218992)" d="M0,10A-10,10,0,0,1,0,-10A-10,10,0,0,0,0,10"></path></g><g transform="translate(412.5,62.5)"><path fill="#000" transform="rotate(149.1738357350652)" d="M0,10A-10,10,0,0,1,0,-10A-10,10,0,0,0,0,10"></path></g><g transform="translate(437.5,62.5)"><path fill="#000" transform="rotate(151.54912693616413)" d="M0,10A-10,10,0,0,1,0,-10A-10,10,0,0,0,0,10"></path></g><g transform="translate(462.5,62.5)"><path fill="#000" transform="rotate(153.60932338930286)" d="M0,10A-10,10,0,0,1,0,-10A-10,10,0,0,0,0,10"></path></g><g transform="translate(487.5,62.5)"><path fill="#000" transform="rotate(155.40881753878577)" d="M0,10A-10,10,0,0,1,0,-10A-10,10,0,0,0,0,10"></path></g><g transform="translate(12.5,87.5)"><path fill="#000" transform="rotate(38.58681759302465)" d="M0,10A-10,10,0,0,1,0,-10A-10,10,0,0,0,0,10"></path></g><g transform="translate(37.5,87.5)"><path fill="#000" transform="rotate(43.635874764835194)" d="M0,10A-10,10,0,0,1,0,-10A-10,10,0,0,0,0,10"></path></g><g transform="translate(62.5,87.5)"><path fill="#000" transform="rotate(49.8254028046444)" d="M0,10A-10,10,0,0,1,0,-10A-10,10,0,0,0,0,10"></path></g><g transform="translate(87.5,87.5)"><path fill="#000" transform="rotate(57.387915122864186)" d="M0,10A-10,10,0,0,1,0,-10A-10,10,0,0,0,0,10"></path></g><g transform="translate(112.5,87.5)"><path fill="#000" transform="rotate(66.4744848948187)" d="M0,10A-10,10,0,0,1,0,-10A-10,10,0,0,0,0,10"></path></g><g transform="translate(137.5,87.5)"><path fill="#000" transform="rotate(77.00044120459015)" d="M0,10A-10,10,0,0,1,0,-10A-10,10,0,0,0,0,10"></path></g><g transform="translate(162.5,87.5)"><path fill="#000" transform="rotate(88.48899276122631)" d="M0,10A-10,10,0,0,1,0,-10A-10,10,0,0,0,0,10"></path></g><g transform="translate(187.5,87.5)"><path fill="#000" transform="rotate(100.09870141631492)" d="M0,10A-10,10,0,0,1,0,-10A-10,10,0,0,0,0,10"></path></g><g transform="translate(212.5,87.5)"><path fill="#000" transform="rotate(110.93613395764285)" d="M0,10A-10,10,0,0,1,0,-10A-10,10,0,0,0,0,10"></path></g><g transform="translate(237.5,87.5)"><path fill="#000" transform="rotate(120.41581343279772)" d="M0,10A-10,10,0,0,1,0,-10A-10,10,0,0,0,0,10"></path></g><g transform="translate(262.5,87.5)"><path fill="#000" transform="rotate(128.36335792018338)" d="M0,10A-10,10,0,0,1,0,-10A-10,10,0,0,0,0,10"></path></g><g transform="translate(287.5,87.5)"><path fill="#000" transform="rotate(134.88608209244688)" d="M0,10A-10,10,0,0,1,0,-10A-10,10,0,0,0,0,10"></path></g><g transform="translate(312.5,87.5)"><path fill="#000" transform="rotate(140.20647943178153)" d="M0,10A-10,10,0,0,1,0,-10A-10,10,0,0,0,0,10"></path></g><g transform="translate(337.5,87.5)"><path fill="#000" transform="rotate(144.55878523404655)" d="M0,10A-10,10,0,0,1,0,-10A-10,10,0,0,0,0,10"></path></g><g transform="translate(362.5,87.5)"><path fill="#000" transform="rotate(148.14649764595566)" d="M0,10A-10,10,0,0,1,0,-10A-10,10,0,0,0,0,10"></path></g><g transform="translate(387.5,87.5)"><path fill="#000" transform="rotate(151.13291485274647)" d="M0,10A-10,10,0,0,1,0,-10A-10,10,0,0,0,0,10"></path></g><g transform="translate(412.5,87.5)"><path fill="#000" transform="rotate(153.64471845484042)" d="M0,10A-10,10,0,0,1,0,-10A-10,10,0,0,0,0,10"></path></g><g transform="translate(437.5,87.5)"><path fill="#000" transform="rotate(155.77901325540057)" d="M0,10A-10,10,0,0,1,0,-10A-10,10,0,0,0,0,10"></path></g><g transform="translate(462.5,87.5)"><path fill="#000" transform="rotate(157.61017067452272)" d="M0,10A-10,10,0,0,1,0,-10A-10,10,0,0,0,0,10"></path></g><g transform="translate(487.5,87.5)"><path fill="#000" transform="rotate(159.1954337301113)" d="M0,10A-10,10,0,0,1,0,-10A-10,10,0,0,0,0,10"></path></g><g transform="translate(12.5,112.5)"><path fill="#000" transform="rotate(32.40550703770853)" d="M0,10A-10,10,0,0,1,0,-10A-10,10,0,0,0,0,10"></path></g><g transform="translate(37.5,112.5)"><path fill="#000" transform="rotate(37.180753747040114)" d="M0,10A-10,10,0,0,1,0,-10A-10,10,0,0,0,0,10"></path></g><g transform="translate(62.5,112.5)"><path fill="#000" transform="rotate(43.29584939861451)" d="M0,10A-10,10,0,0,1,0,-10A-10,10,0,0,0,0,10"></path></g><g transform="translate(87.5,112.5)"><path fill="#000" transform="rotate(51.190773544847104)" d="M0,10A-10,10,0,0,1,0,-10A-10,10,0,0,0,0,10"></path></g><g transform="translate(112.5,112.5)"><path fill="#000" transform="rotate(61.31060929091841)" d="M0,10A-10,10,0,0,1,0,-10A-10,10,0,0,0,0,10"></path></g><g transform="translate(137.5,112.5)"><path fill="#000" transform="rotate(73.81722275517912)" d="M0,10A-10,10,0,0,1,0,-10A-10,10,0,0,0,0,10"></path></g><g transform="translate(162.5,112.5)"><path fill="#000" transform="rotate(88.10085513276991)" d="M0,10A-10,10,0,0,1,0,-10A-10,10,0,0,0,0,10"></path></g><g transform="translate(187.5,112.5)"><path fill="#000" transform="rotate(102.61950626782738)" d="M0,10A-10,10,0,0,1,0,-10A-10,10,0,0,0,0,10"></path></g><g transform="translate(212.5,112.5)"><path fill="#000" transform="rotate(115.68413031752608)" d="M0,10A-10,10,0,0,1,0,-10A-10,10,0,0,0,0,10"></path></g><g transform="translate(237.5,112.5)"><path fill="#000" transform="rotate(126.42617039867974)" d="M0,10A-10,10,0,0,1,0,-10A-10,10,0,0,0,0,10"></path></g><g transform="translate(262.5,112.5)"><path fill="#000" transform="rotate(134.8567272433633)" d="M0,10A-10,10,0,0,1,0,-10A-10,10,0,0,0,0,10"></path></g><g transform="translate(287.5,112.5)"><path fill="#000" transform="rotate(141.3860661552072)" d="M0,10A-10,10,0,0,1,0,-10A-10,10,0,0,0,0,10"></path></g><g transform="translate(312.5,112.5)"><path fill="#000" transform="rotate(146.46962265570633)" d="M0,10A-10,10,0,0,1,0,-10A-10,10,0,0,0,0,10"></path></g><g transform="translate(337.5,112.5)"><path fill="#000" transform="rotate(150.48115854976552)" d="M0,10A-10,10,0,0,1,0,-10A-10,10,0,0,0,0,10"></path></g><g transform="translate(362.5,112.5)"><path fill="#000" transform="rotate(153.6981421050964)" d="M0,10A-10,10,0,0,1,0,-10A-10,10,0,0,0,0,10"></path></g><g transform="translate(387.5,112.5)"><path fill="#000" transform="rotate(156.31997826898137)" d="M0,10A-10,10,0,0,1,0,-10A-10,10,0,0,0,0,10"></path></g><g transform="translate(412.5,112.5)"><path fill="#000" transform="rotate(158.48935945563065)" d="M0,10A-10,10,0,0,1,0,-10A-10,10,0,0,0,0,10"></path></g><g transform="translate(437.5,112.5)"><path fill="#000" transform="rotate(160.30921972860835)" d="M0,10A-10,10,0,0,1,0,-10A-10,10,0,0,0,0,10"></path></g><g transform="translate(462.5,112.5)"><path fill="#000" transform="rotate(161.85480368581818)" d="M0,10A-10,10,0,0,1,0,-10A-10,10,0,0,0,0,10"></path></g><g transform="translate(487.5,112.5)"><path fill="#000" transform="rotate(163.18195303237)" d="M0,10A-10,10,0,0,1,0,-10A-10,10,0,0,0,0,10"></path></g><g transform="translate(12.5,137.5)"><path fill="#000" transform="rotate(25.248348242258032)" d="M0,10A-10,10,0,0,1,0,-10A-10,10,0,0,0,0,10"></path></g><g transform="translate(37.5,137.5)"><path fill="#000" transform="rotate(29.403095553118362)" d="M0,10A-10,10,0,0,1,0,-10A-10,10,0,0,0,0,10"></path></g><g transform="translate(62.5,137.5)"><path fill="#000" transform="rotate(34.993026670532856)" d="M0,10A-10,10,0,0,1,0,-10A-10,10,0,0,0,0,10"></path></g><g transform="translate(87.5,137.5)"><path fill="#000" transform="rotate(42.73014922731085)" d="M0,10A-10,10,0,0,1,0,-10A-10,10,0,0,0,0,10"></path></g><g transform="translate(112.5,137.5)"><path fill="#000" transform="rotate(53.62559809420317)" d="M0,10A-10,10,0,0,1,0,-10A-10,10,0,0,0,0,10"></path></g><g transform="translate(137.5,137.5)"><path fill="#000" transform="rotate(68.66426985310083)" d="M0,10A10,10,0,0,0,0,-10A-9.397761742283137,10,0,0,1,0,10"></path></g><g transform="translate(162.5,137.5)"><path fill="#000" transform="rotate(87.44456359790591)" d="M0,10A10,10,0,0,0,0,-10A-8.589217605913968,10,0,0,1,0,10"></path></g><g transform="translate(187.5,137.5)"><path fill="#000" transform="rotate(106.76973577374208)" d="M0,10A10,10,0,0,0,0,-10A-9.111703629474633,10,0,0,1,0,10"></path></g><g transform="translate(212.5,137.5)"><path fill="#000" transform="rotate(122.91552491161426)" d="M0,10A10,10,0,0,0,0,-10A-9.990850132224404,10,0,0,1,0,10"></path></g><g transform="translate(237.5,137.5)"><path fill="#000" transform="rotate(134.8069922443449)" d="M0,10A-10,10,0,0,1,0,-10A-10,10,0,0,0,0,10"></path></g><g transform="translate(262.5,137.5)"><path fill="#000" transform="rotate(143.2519455009353)" d="M0,10A-10,10,0,0,1,0,-10A-10,10,0,0,0,0,10"></path></g><g transform="translate(287.5,137.5)"><path fill="#000" transform="rotate(149.3154832259262)" d="M0,10A-10,10,0,0,1,0,-10A-10,10,0,0,0,0,10"></path></g><g transform="translate(312.5,137.5)"><path fill="#000" transform="rotate(153.78807517169517)" d="M0,10A-10,10,0,0,1,0,-10A-10,10,0,0,0,0,10"></path></g><g transform="translate(337.5,137.5)"><path fill="#000" transform="rotate(157.18507997176891)" d="M0,10A-10,10,0,0,1,0,-10A-10,10,0,0,0,0,10"></path></g><g transform="translate(362.5,137.5)"><path fill="#000" transform="rotate(159.83563037182174)" d="M0,10A-10,10,0,0,1,0,-10A-10,10,0,0,0,0,10"></path></g><g transform="translate(387.5,137.5)"><path fill="#000" transform="rotate(161.95301090733736)" d="M0,10A-10,10,0,0,1,0,-10A-10,10,0,0,0,0,10"></path></g><g transform="translate(412.5,137.5)"><path fill="#000" transform="rotate(163.67901083454336)" d="M0,10A-10,10,0,0,1,0,-10A-10,10,0,0,0,0,10"></path></g><g transform="translate(437.5,137.5)"><path fill="#000" transform="rotate(165.11054045738945)" d="M0,10A-10,10,0,0,1,0,-10A-10,10,0,0,0,0,10"></path></g><g transform="translate(462.5,137.5)"><path fill="#000" transform="rotate(166.31562649774156)" d="M0,10A-10,10,0,0,1,0,-10A-10,10,0,0,0,0,10"></path></g><g transform="translate(487.5,137.5)"><path fill="#000" transform="rotate(167.34320598857065)" d="M0,10A-10,10,0,0,1,0,-10A-10,10,0,0,0,0,10"></path></g><g transform="translate(12.5,162.5)"><path fill="#000" transform="rotate(17.14167871369284)" d="M0,10A-10,10,0,0,1,0,-10A-10,10,0,0,0,0,10"></path></g><g transform="translate(37.5,162.5)"><path fill="#000" transform="rotate(20.232496555317)" d="M0,10A-10,10,0,0,1,0,-10A-10,10,0,0,0,0,10"></path></g><g transform="translate(62.5,162.5)"><path fill="#000" transform="rotate(24.600049069657018)" d="M0,10A-10,10,0,0,1,0,-10A-10,10,0,0,0,0,10"></path></g><g transform="translate(87.5,162.5)"><path fill="#000" transform="rotate(31.138577677293313)" d="M0,10A-10,10,0,0,1,0,-10A-10,10,0,0,0,0,10"></path></g><g transform="translate(112.5,162.5)"><path fill="#000" transform="rotate(41.602910722258315)" d="M0,10A10,10,0,0,0,0,-10A-8.369257575069001,10,0,0,1,0,10"></path></g><g transform="translate(137.5,162.5)"><path fill="#000" transform="rotate(59.153272067157374)" d="M0,10A10,10,0,0,0,0,-10A-3.9943213485766007,10,0,0,1,0,10"></path></g><g transform="translate(162.5,162.5)"><path fill="#000" transform="rotate(86.09623177293332)" d="M0,10A10,10,0,0,0,0,-10A-1.341222192723147,10,0,0,1,0,10"></path></g><g transform="translate(187.5,162.5)"><path fill="#000" transform="rotate(114.73774914864828)" d="M0,10A10,10,0,0,0,0,-10A-2.9788485707483336,10,0,0,1,0,10"></path></g><g transform="translate(212.5,162.5)"><path fill="#000" transform="rotate(134.70436848170544)" d="M0,10A10,10,0,0,0,0,-10A-7.331762640763695,10,0,0,1,0,10"></path></g><g transform="translate(237.5,162.5)"><path fill="#000" transform="rotate(146.63712060454506)" d="M0,10A10,10,0,0,0,0,-10A-9.988549910373884,10,0,0,1,0,10"></path></g><g transform="translate(262.5,162.5)"><path fill="#000" transform="rotate(153.97136746832234)" d="M0,10A-10,10,0,0,1,0,-10A-10,10,0,0,0,0,10"></path></g><g transform="translate(287.5,162.5)"><path fill="#000" transform="rotate(158.7890434518377)" d="M0,10A-10,10,0,0,1,0,-10A-10,10,0,0,0,0,10"></path></g><g transform="translate(312.5,162.5)"><path fill="#000" transform="rotate(162.15191829447832)" d="M0,10A-10,10,0,0,1,0,-10A-10,10,0,0,0,0,10"></path></g><g transform="translate(337.5,162.5)"><path fill="#000" transform="rotate(164.6169029555871)" d="M0,10A-10,10,0,0,1,0,-10A-10,10,0,0,0,0,10"></path></g><g transform="translate(362.5,162.5)"><path fill="#000" transform="rotate(166.49485078782078)" d="M0,10A-10,10,0,0,1,0,-10A-10,10,0,0,0,0,10"></path></g><g transform="translate(387.5,162.5)"><path fill="#000" transform="rotate(167.97022505335303)" d="M0,10A-10,10,0,0,1,0,-10A-10,10,0,0,0,0,10"></path></g><g transform="translate(412.5,162.5)"><path fill="#000" transform="rotate(169.15848186970575)" d="M0,10A-10,10,0,0,1,0,-10A-10,10,0,0,0,0,10"></path></g><g transform="translate(437.5,162.5)"><path fill="#000" transform="rotate(170.13521940463568)" d="M0,10A-10,10,0,0,1,0,-10A-10,10,0,0,0,0,10"></path></g><g transform="translate(462.5,162.5)"><path fill="#000" transform="rotate(170.95185632181344)" d="M0,10A-10,10,0,0,1,0,-10A-10,10,0,0,0,0,10"></path></g><g transform="translate(487.5,162.5)"><path fill="#000" transform="rotate(171.64451088698397)" d="M0,10A-10,10,0,0,1,0,-10A-10,10,0,0,0,0,10"></path></g><g transform="translate(12.5,187.5)"><path fill="#000" transform="rotate(8.265979617331595)" d="M0,10A-10,10,0,0,1,0,-10A-10,10,0,0,0,0,10"></path></g><g transform="translate(37.5,187.5)"><path fill="#000" transform="rotate(9.848544784324048)" d="M0,10A-10,10,0,0,1,0,-10A-10,10,0,0,0,0,10"></path></g><g transform="translate(62.5,187.5)"><path fill="#000" transform="rotate(12.169329300412926)" d="M0,10A-10,10,0,0,1,0,-10A-10,10,0,0,0,0,10"></path></g><g transform="translate(87.5,187.5)"><path fill="#000" transform="rotate(15.88456890337568)" d="M0,10A10,10,0,0,0,0,-10A-9.772548510174285,10,0,0,1,0,10"></path></g><g transform="translate(112.5,187.5)"><path fill="#000" transform="rotate(22.696062211475265)" d="M0,10A10,10,0,0,0,0,-10A-4.8479728635468,10,0,0,1,0,10"></path></g><g transform="translate(137.5,187.5)"><path fill="#000" transform="rotate(38.26177364222568)" d="M0,10A10,10,0,0,0,0,-10A2.7319626956954144,10,0,0,0,0,10"></path></g><g transform="translate(162.5,187.5)"><path fill="#000" transform="rotate(81.75649311468469)" d="M0,10A10,10,0,0,0,0,-10A6.896912687276022,10,0,0,0,0,10"></path></g><g transform="translate(187.5,187.5)"><path fill="#000" transform="rotate(134.36871207382256)" d="M0,10A10,10,0,0,0,0,-10A4.347629671657255,10,0,0,0,0,10"></path></g><g transform="translate(212.5,187.5)"><path fill="#000" transform="rotate(154.55024383542641)" d="M0,10A10,10,0,0,0,0,-10A-2.8984535328857004,10,0,0,1,0,10"></path></g><g transform="translate(237.5,187.5)"><path fill="#000" transform="rotate(162.7693163710079)" d="M0,10A10,10,0,0,0,0,-10A-9.063308431604087,10,0,0,1,0,10"></path></g><g transform="translate(262.5,187.5)"><path fill="#000" transform="rotate(167.0461379753526)" d="M0,10A-10,10,0,0,1,0,-10A-10,10,0,0,0,0,10"></path></g><g transform="translate(287.5,187.5)"><path fill="#000" transform="rotate(169.64083114928826)" d="M0,10A-10,10,0,0,1,0,-10A-10,10,0,0,0,0,10"></path></g><g transform="translate(312.5,187.5)"><path fill="#000" transform="rotate(171.37612252665946)" d="M0,10A-10,10,0,0,1,0,-10A-10,10,0,0,0,0,10"></path></g><g transform="translate(337.5,187.5)"><path fill="#000" transform="rotate(172.61622945400407)" d="M0,10A-10,10,0,0,1,0,-10A-10,10,0,0,0,0,10"></path></g><g transform="translate(362.5,187.5)"><path fill="#000" transform="rotate(173.54584481393078)" d="M0,10A-10,10,0,0,1,0,-10A-10,10,0,0,0,0,10"></path></g><g transform="translate(387.5,187.5)"><path fill="#000" transform="rotate(174.26825309847266)" d="M0,10A-10,10,0,0,1,0,-10A-10,10,0,0,0,0,10"></path></g><g transform="translate(412.5,187.5)"><path fill="#000" transform="rotate(174.8456159614928)" d="M0,10A-10,10,0,0,1,0,-10A-10,10,0,0,0,0,10"></path></g><g transform="translate(437.5,187.5)"><path fill="#000" transform="rotate(175.3175424208205)" d="M0,10A-10,10,0,0,1,0,-10A-10,10,0,0,0,0,10"></path></g><g transform="translate(462.5,187.5)"><path fill="#000" transform="rotate(175.71044796150832)" d="M0,10A-10,10,0,0,1,0,-10A-10,10,0,0,0,0,10"></path></g><g transform="translate(487.5,187.5)"><path fill="#000" transform="rotate(176.0426173133808)" d="M0,10A-10,10,0,0,1,0,-10A-10,10,0,0,0,0,10"></path></g><g transform="translate(12.5,212.5)"><path fill="#000" transform="rotate(358.97561007751295)" d="M0,10A-10,10,0,0,1,0,-10A-10,10,0,0,0,0,10"></path></g><g transform="translate(37.5,212.5)"><path fill="#000" transform="rotate(358.7759408108776)" d="M0,10A-10,10,0,0,1,0,-10A-10,10,0,0,0,0,10"></path></g><g transform="translate(62.5,212.5)"><path fill="#000" transform="rotate(358.4796122490068)" d="M0,10A-10,10,0,0,1,0,-10A-10,10,0,0,0,0,10"></path></g><g transform="translate(87.5,212.5)"><path fill="#000" transform="rotate(357.99405905846095)" d="M0,10A10,10,0,0,0,0,-10A-9.480440643898008,10,0,0,1,0,10"></path></g><g transform="translate(112.5,212.5)"><path fill="#000" transform="rotate(357.0532561601018)" d="M0,10A10,10,0,0,0,0,-10A-3.408685206531541,10,0,0,1,0,10"></path></g><g transform="translate(137.5,212.5)"><path fill="#000" transform="rotate(354.4556742751346)" d="M0,10A10,10,0,0,0,0,-10A5.226193795014193,10,0,0,0,0,10"></path></g><g transform="translate(162.5,212.5)"><path fill="#000" transform="rotate(319.6504409962476)" d="M0,10A10,10,0,0,0,0,-10A9.884186108857014,10,0,0,0,0,10"></path></g><g transform="translate(187.5,212.5)"><path fill="#000" transform="rotate(187.17144672402657)" d="M0,10A10,10,0,0,0,0,-10A7.03787936672663,10,0,0,0,0,10"></path></g><g transform="translate(212.5,212.5)"><path fill="#000" transform="rotate(183.3522119617156)" d="M0,10A10,10,0,0,0,0,-10A-1.1572994977045596,10,0,0,1,0,10"></path></g><g transform="translate(237.5,212.5)"><path fill="#000" transform="rotate(182.1860354502862)" d="M0,10A10,10,0,0,0,0,-10A-8.494728981871477,10,0,0,1,0,10"></path></g><g transform="translate(262.5,212.5)"><path fill="#000" transform="rotate(181.62166833037466)" d="M0,10A-10,10,0,0,1,0,-10A-10,10,0,0,0,0,10"></path></g><g transform="translate(287.5,212.5)"><path fill="#000" transform="rotate(181.28887204506947)" d="M0,10A-10,10,0,0,1,0,-10A-10,10,0,0,0,0,10"></path></g><g transform="translate(312.5,212.5)"><path fill="#000" transform="rotate(181.0693963125)" d="M0,10A-10,10,0,0,1,0,-10A-10,10,0,0,0,0,10"></path></g><g transform="translate(337.5,212.5)"><path fill="#000" transform="rotate(180.91378584169271)" d="M0,10A-10,10,0,0,1,0,-10A-10,10,0,0,0,0,10"></path></g><g transform="translate(362.5,212.5)"><path fill="#000" transform="rotate(180.79770666868274)" d="M0,10A-10,10,0,0,1,0,-10A-10,10,0,0,0,0,10"></path></g><g transform="translate(387.5,212.5)"><path fill="#000" transform="rotate(180.70779342766582)" d="M0,10A-10,10,0,0,1,0,-10A-10,10,0,0,0,0,10"></path></g><g transform="translate(412.5,212.5)"><path fill="#000" transform="rotate(180.6360953228155)" d="M0,10A-10,10,0,0,1,0,-10A-10,10,0,0,0,0,10"></path></g><g transform="translate(437.5,212.5)"><path fill="#000" transform="rotate(180.57758644167848)" d="M0,10A-10,10,0,0,1,0,-10A-10,10,0,0,0,0,10"></path></g><g transform="translate(462.5,212.5)"><path fill="#000" transform="rotate(180.52893408574886)" d="M0,10A-10,10,0,0,1,0,-10A-10,10,0,0,0,0,10"></path></g><g transform="translate(487.5,212.5)"><path fill="#000" transform="rotate(180.4878411290314)" d="M0,10A-10,10,0,0,1,0,-10A-10,10,0,0,0,0,10"></path></g><g transform="translate(12.5,237.5)"><path fill="#000" transform="rotate(349.73833940839177)" d="M0,10A-10,10,0,0,1,0,-10A-10,10,0,0,0,0,10"></path></g><g transform="translate(37.5,237.5)"><path fill="#000" transform="rotate(347.7929259346048)" d="M0,10A-10,10,0,0,1,0,-10A-10,10,0,0,0,0,10"></path></g><g transform="translate(62.5,237.5)"><path fill="#000" transform="rotate(344.95819347312784)" d="M0,10A-10,10,0,0,1,0,-10A-10,10,0,0,0,0,10"></path></g><g transform="translate(87.5,237.5)"><path fill="#000" transform="rotate(340.47470418917175)" d="M0,10A10,10,0,0,0,0,-10A-9.882161044480045,10,0,0,1,0,10"></path></g><g transform="translate(112.5,237.5)"><path fill="#000" transform="rotate(332.47238158634013)" d="M0,10A10,10,0,0,0,0,-10A-5.562967580010687,10,0,0,1,0,10"></path></g><g transform="translate(137.5,237.5)"><path fill="#000" transform="rotate(315.4967286686765)" d="M0,10A10,10,0,0,0,0,-10A1.455922826176733,10,0,0,0,0,10"></path></g><g transform="translate(162.5,237.5)"><path fill="#000" transform="rotate(276.63137760004446)" d="M0,10A10,10,0,0,0,0,-10A5.357851974634917,10,0,0,0,0,10"></path></g><g transform="translate(187.5,237.5)"><path fill="#000" transform="rotate(231.86903404107284)" d="M0,10A10,10,0,0,0,0,-10A2.9670712312863916,10,0,0,0,0,10"></path></g><g transform="translate(212.5,237.5)"><path fill="#000" transform="rotate(210.66995556178398)" d="M0,10A10,10,0,0,0,0,-10A-3.7736943165403005,10,0,0,1,0,10"></path></g><g transform="translate(237.5,237.5)"><path fill="#000" transform="rotate(201.13065634102009)" d="M0,10A10,10,0,0,0,0,-10A-9.31809637614576,10,0,0,1,0,10"></path></g><g transform="translate(262.5,237.5)"><path fill="#000" transform="rotate(195.99453652651349)" d="M0,10A-10,10,0,0,1,0,-10A-10,10,0,0,0,0,10"></path></g><g transform="translate(287.5,237.5)"><path fill="#000" transform="rotate(192.83274488829122)" d="M0,10A-10,10,0,0,1,0,-10A-10,10,0,0,0,0,10"></path></g><g transform="translate(312.5,237.5)"><path fill="#000" transform="rotate(190.7024024015872)" d="M0,10A-10,10,0,0,1,0,-10A-10,10,0,0,0,0,10"></path></g><g transform="translate(337.5,237.5)"><path fill="#000" transform="rotate(189.1734496467213)" d="M0,10A-10,10,0,0,1,0,-10A-10,10,0,0,0,0,10"></path></g><g transform="translate(362.5,237.5)"><path fill="#000" transform="rotate(188.0242334051024)" d="M0,10A-10,10,0,0,1,0,-10A-10,10,0,0,0,0,10"></path></g><g transform="translate(387.5,237.5)"><path fill="#000" transform="rotate(187.12957553727952)" d="M0,10A-10,10,0,0,1,0,-10A-10,10,0,0,0,0,10"></path></g><g transform="translate(412.5,237.5)"><path fill="#000" transform="rotate(186.41365333621582)" d="M0,10A-10,10,0,0,1,0,-10A-10,10,0,0,0,0,10"></path></g><g transform="translate(437.5,237.5)"><path fill="#000" transform="rotate(185.8279392949051)" d="M0,10A-10,10,0,0,1,0,-10A-10,10,0,0,0,0,10"></path></g><g transform="translate(462.5,237.5)"><path fill="#000" transform="rotate(185.3399673136812)" d="M0,10A-10,10,0,0,1,0,-10A-10,10,0,0,0,0,10"></path></g><g transform="translate(487.5,237.5)"><path fill="#000" transform="rotate(184.92721140942157)" d="M0,10A-10,10,0,0,1,0,-10A-10,10,0,0,0,0,10"></path></g><g transform="translate(12.5,262.5)"><path fill="#000" transform="rotate(341.0066194745258)" d="M0,10A-10,10,0,0,1,0,-10A-10,10,0,0,0,0,10"></path></g><g transform="translate(37.5,262.5)"><path fill="#000" transform="rotate(337.642307392279)" d="M0,10A-10,10,0,0,1,0,-10A-10,10,0,0,0,0,10"></path></g><g transform="translate(62.5,262.5)"><path fill="#000" transform="rotate(332.93656655849344)" d="M0,10A-10,10,0,0,1,0,-10A-10,10,0,0,0,0,10"></path></g><g transform="translate(87.5,262.5)"><path fill="#000" transform="rotate(326.01189761846354)" d="M0,10A-10,10,0,0,1,0,-10A-10,10,0,0,0,0,10"></path></g><g transform="translate(112.5,262.5)"><path fill="#000" transform="rotate(315.2623495951767)" d="M0,10A10,10,0,0,0,0,-10A-9.029800994604924,10,0,0,1,0,10"></path></g><g transform="translate(137.5,262.5)"><path fill="#000" transform="rotate(298.15455799061345)" d="M0,10A10,10,0,0,0,0,-10A-5.5022591535659355,10,0,0,1,0,10"></path></g><g transform="translate(162.5,262.5)"><path fill="#000" transform="rotate(273.4992377707819)" d="M0,10A10,10,0,0,0,0,-10A-3.2535091565326333,10,0,0,1,0,10"></path></g><g transform="translate(187.5,262.5)"><path fill="#000" transform="rotate(247.565441554384)" d="M0,10A10,10,0,0,0,0,-10A-4.6470239228866,10,0,0,1,0,10"></path></g><g transform="translate(212.5,262.5)"><path fill="#000" transform="rotate(228.43013677022773)" d="M0,10A10,10,0,0,0,0,-10A-8.231766275430383,10,0,0,1,0,10"></path></g><g transform="translate(237.5,262.5)"><path fill="#000" transform="rotate(216.308201210517)" d="M0,10A-10,10,0,0,1,0,-10A-10,10,0,0,0,0,10"></path></g><g transform="translate(262.5,262.5)"><path fill="#000" transform="rotate(208.58920781211572)" d="M0,10A-10,10,0,0,1,0,-10A-10,10,0,0,0,0,10"></path></g><g transform="translate(287.5,262.5)"><path fill="#000" transform="rotate(203.41705827469508)" d="M0,10A-10,10,0,0,1,0,-10A-10,10,0,0,0,0,10"></path></g><g transform="translate(312.5,262.5)"><path fill="#000" transform="rotate(199.76458702593087)" d="M0,10A-10,10,0,0,1,0,-10A-10,10,0,0,0,0,10"></path></g><g transform="translate(337.5,262.5)"><path fill="#000" transform="rotate(197.06797165502627)" d="M0,10A-10,10,0,0,1,0,-10A-10,10,0,0,0,0,10"></path></g><g transform="translate(362.5,262.5)"><path fill="#000" transform="rotate(195.00382933706842)" d="M0,10A-10,10,0,0,1,0,-10A-10,10,0,0,0,0,10"></path></g><g transform="translate(387.5,262.5)"><path fill="#000" transform="rotate(193.37690476553524)" d="M0,10A-10,10,0,0,1,0,-10A-10,10,0,0,0,0,10"></path></g><g transform="translate(412.5,262.5)"><path fill="#000" transform="rotate(192.06355145456772)" d="M0,10A-10,10,0,0,1,0,-10A-10,10,0,0,0,0,10"></path></g><g transform="translate(437.5,262.5)"><path fill="#000" transform="rotate(190.98214036852607)" d="M0,10A-10,10,0,0,1,0,-10A-10,10,0,0,0,0,10"></path></g><g transform="translate(462.5,262.5)"><path fill="#000" transform="rotate(190.0768172425747)" d="M0,10A-10,10,0,0,1,0,-10A-10,10,0,0,0,0,10"></path></g><g transform="translate(487.5,262.5)"><path fill="#000" transform="rotate(189.30817115559614)" d="M0,10A-10,10,0,0,1,0,-10A-10,10,0,0,0,0,10"></path></g><g transform="translate(12.5,287.5)"><path fill="#000" transform="rotate(333.0987156010314)" d="M0,10A-10,10,0,0,1,0,-10A-10,10,0,0,0,0,10"></path></g><g transform="translate(37.5,287.5)"><path fill="#000" transform="rotate(328.77255324410714)" d="M0,10A-10,10,0,0,1,0,-10A-10,10,0,0,0,0,10"></path></g><g transform="translate(62.5,287.5)"><path fill="#000" transform="rotate(323.01622444259067)" d="M0,10A-10,10,0,0,1,0,-10A-10,10,0,0,0,0,10"></path></g><g transform="translate(87.5,287.5)"><path fill="#000" transform="rotate(315.17824487853716)" d="M0,10A-10,10,0,0,1,0,-10A-10,10,0,0,0,0,10"></path></g><g transform="translate(112.5,287.5)"><path fill="#000" transform="rotate(304.39771649990917)" d="M0,10A-10,10,0,0,1,0,-10A-10,10,0,0,0,0,10"></path></g><g transform="translate(137.5,287.5)"><path fill="#000" transform="rotate(289.9544483446997)" d="M0,10A10,10,0,0,0,0,-10A-9.865477225196285,10,0,0,1,0,10"></path></g><g transform="translate(162.5,287.5)"><path fill="#000" transform="rotate(272.3755271184573)" d="M0,10A10,10,0,0,0,0,-10A-9.42570177706903,10,0,0,1,0,10"></path></g><g transform="translate(187.5,287.5)"><path fill="#000" transform="rotate(254.35238424476742)" d="M0,10A10,10,0,0,0,0,-10A-9.7245677280147,10,0,0,1,0,10"></path></g><g transform="translate(212.5,287.5)"><path fill="#000" transform="rotate(238.9652383596886)" d="M0,10A-10,10,0,0,1,0,-10A-10,10,0,0,0,0,10"></path></g><g transform="translate(237.5,287.5)"><path fill="#000" transform="rotate(227.28456734297353)" d="M0,10A-10,10,0,0,1,0,-10A-10,10,0,0,0,0,10"></path></g><g transform="translate(262.5,287.5)"><path fill="#000" transform="rotate(218.77507167484538)" d="M0,10A-10,10,0,0,1,0,-10A-10,10,0,0,0,0,10"></path></g><g transform="translate(287.5,287.5)"><path fill="#000" transform="rotate(212.5537056653311)" d="M0,10A-10,10,0,0,1,0,-10A-10,10,0,0,0,0,10"></path></g><g transform="translate(312.5,287.5)"><path fill="#000" transform="rotate(207.90805950440918)" d="M0,10A-10,10,0,0,1,0,-10A-10,10,0,0,0,0,10"></path></g><g transform="translate(337.5,287.5)"><path fill="#000" transform="rotate(204.3499663316606)" d="M0,10A-10,10,0,0,1,0,-10A-10,10,0,0,0,0,10"></path></g><g transform="translate(362.5,287.5)"><path fill="#000" transform="rotate(201.55746377560945)" d="M0,10A-10,10,0,0,1,0,-10A-10,10,0,0,0,0,10"></path></g><g transform="translate(387.5,287.5)"><path fill="#000" transform="rotate(199.31732633398525)" d="M0,10A-10,10,0,0,1,0,-10A-10,10,0,0,0,0,10"></path></g><g transform="translate(412.5,287.5)"><path fill="#000" transform="rotate(197.48562560508216)" d="M0,10A-10,10,0,0,1,0,-10A-10,10,0,0,0,0,10"></path></g><g transform="translate(437.5,287.5)"><path fill="#000" transform="rotate(195.9628969056527)" d="M0,10A-10,10,0,0,1,0,-10A-10,10,0,0,0,0,10"></path></g><g transform="translate(462.5,287.5)"><path fill="#000" transform="rotate(194.67874405638582)" d="M0,10A-10,10,0,0,1,0,-10A-10,10,0,0,0,0,10"></path></g><g transform="translate(487.5,287.5)"><path fill="#000" transform="rotate(193.58220693043387)" d="M0,10A-10,10,0,0,1,0,-10A-10,10,0,0,0,0,10"></path></g><g transform="translate(12.5,312.5)"><path fill="#000" transform="rotate(326.1575188820833)" d="M0,10A-10,10,0,0,1,0,-10A-10,10,0,0,0,0,10"></path></g><g transform="translate(37.5,312.5)"><path fill="#000" transform="rotate(321.2966792594724)" d="M0,10A-10,10,0,0,1,0,-10A-10,10,0,0,0,0,10"></path></g><g transform="translate(62.5,312.5)"><path fill="#000" transform="rotate(315.134974350041)" d="M0,10A-10,10,0,0,1,0,-10A-10,10,0,0,0,0,10"></path></g><g transform="translate(87.5,312.5)"><path fill="#000" transform="rotate(307.28526325447774)" d="M0,10A-10,10,0,0,1,0,-10A-10,10,0,0,0,0,10"></path></g><g transform="translate(112.5,312.5)"><path fill="#000" transform="rotate(297.3867000216284)" d="M0,10A-10,10,0,0,1,0,-10A-10,10,0,0,0,0,10"></path></g><g transform="translate(137.5,312.5)"><path fill="#000" transform="rotate(285.36150260500165)" d="M0,10A-10,10,0,0,1,0,-10A-10,10,0,0,0,0,10"></path></g><g transform="translate(162.5,312.5)"><path fill="#000" transform="rotate(271.7979228946161)" d="M0,10A-10,10,0,0,1,0,-10A-10,10,0,0,0,0,10"></path></g><g transform="translate(187.5,312.5)"><path fill="#000" transform="rotate(258.03362893948184)" d="M0,10A-10,10,0,0,1,0,-10A-10,10,0,0,0,0,10"></path></g><g transform="translate(212.5,312.5)"><path fill="#000" transform="rotate(245.5213484567324)" d="M0,10A-10,10,0,0,1,0,-10A-10,10,0,0,0,0,10"></path></g><g transform="translate(237.5,312.5)"><path fill="#000" transform="rotate(235.0614840303513)" d="M0,10A-10,10,0,0,1,0,-10A-10,10,0,0,0,0,10"></path></g><g transform="translate(262.5,312.5)"><path fill="#000" transform="rotate(226.7124343562337)" d="M0,10A-10,10,0,0,1,0,-10A-10,10,0,0,0,0,10"></path></g><g transform="translate(287.5,312.5)"><path fill="#000" transform="rotate(220.15383983283357)" d="M0,10A-10,10,0,0,1,0,-10A-10,10,0,0,0,0,10"></path></g><g transform="translate(312.5,312.5)"><path fill="#000" transform="rotate(214.99131234473103)" d="M0,10A-10,10,0,0,1,0,-10A-10,10,0,0,0,0,10"></path></g><g transform="translate(337.5,312.5)"><path fill="#000" transform="rotate(210.8839314575061)" d="M0,10A-10,10,0,0,1,0,-10A-10,10,0,0,0,0,10"></path></g><g transform="translate(362.5,312.5)"><path fill="#000" transform="rotate(207.5698784046306)" d="M0,10A-10,10,0,0,1,0,-10A-10,10,0,0,0,0,10"></path></g><g transform="translate(387.5,312.5)"><path fill="#000" transform="rotate(204.85646887028062)" d="M0,10A-10,10,0,0,1,0,-10A-10,10,0,0,0,0,10"></path></g><g transform="translate(412.5,312.5)"><path fill="#000" transform="rotate(202.60341945935522)" d="M0,10A-10,10,0,0,1,0,-10A-10,10,0,0,0,0,10"></path></g><g transform="translate(437.5,312.5)"><path fill="#000" transform="rotate(200.70822428866413)" d="M0,10A-10,10,0,0,1,0,-10A-10,10,0,0,0,0,10"></path></g><g transform="translate(462.5,312.5)"><path fill="#000" transform="rotate(199.09521437875313)" d="M0,10A-10,10,0,0,1,0,-10A-10,10,0,0,0,0,10"></path></g><g transform="translate(487.5,312.5)"><path fill="#000" transform="rotate(197.70780447413946)" d="M0,10A-10,10,0,0,1,0,-10A-10,10,0,0,0,0,10"></path></g><g transform="translate(12.5,337.5)"><path fill="#000" transform="rotate(320.18288960978066)" d="M0,10A-10,10,0,0,1,0,-10A-10,10,0,0,0,0,10"></path></g><g transform="translate(37.5,337.5)"><path fill="#000" transform="rotate(315.10860861763854)" d="M0,10A-10,10,0,0,1,0,-10A-10,10,0,0,0,0,10"></path></g><g transform="translate(62.5,337.5)"><path fill="#000" transform="rotate(308.9412620929835)" d="M0,10A-10,10,0,0,1,0,-10A-10,10,0,0,0,0,10"></path></g><g transform="translate(87.5,337.5)"><path fill="#000" transform="rotate(301.4823722232984)" d="M0,10A-10,10,0,0,1,0,-10A-10,10,0,0,0,0,10"></path></g><g transform="translate(112.5,337.5)"><path fill="#000" transform="rotate(292.61989708564965)" d="M0,10A-10,10,0,0,1,0,-10A-10,10,0,0,0,0,10"></path></g><g transform="translate(137.5,337.5)"><path fill="#000" transform="rotate(282.4597076121151)" d="M0,10A-10,10,0,0,1,0,-10A-10,10,0,0,0,0,10"></path></g><g transform="translate(162.5,337.5)"><path fill="#000" transform="rotate(271.44621838820166)" d="M0,10A-10,10,0,0,1,0,-10A-10,10,0,0,0,0,10"></path></g><g transform="translate(187.5,337.5)"><path fill="#000" transform="rotate(260.3261342664151)" d="M0,10A-10,10,0,0,1,0,-10A-10,10,0,0,0,0,10"></path></g><g transform="translate(212.5,337.5)"><path fill="#000" transform="rotate(249.8885801272387)" d="M0,10A-10,10,0,0,1,0,-10A-10,10,0,0,0,0,10"></path></g><g transform="translate(237.5,337.5)"><path fill="#000" transform="rotate(240.6690470718658)" d="M0,10A-10,10,0,0,1,0,-10A-10,10,0,0,0,0,10"></path></g><g transform="translate(262.5,337.5)"><path fill="#000" transform="rotate(232.85262205736922)" d="M0,10A-10,10,0,0,1,0,-10A-10,10,0,0,0,0,10"></path></g><g transform="translate(287.5,337.5)"><path fill="#000" transform="rotate(226.3694285237263)" d="M0,10A-10,10,0,0,1,0,-10A-10,10,0,0,0,0,10"></path></g><g transform="translate(312.5,337.5)"><path fill="#000" transform="rotate(221.0333877976587)" d="M0,10A-10,10,0,0,1,0,-10A-10,10,0,0,0,0,10"></path></g><g transform="translate(337.5,337.5)"><path fill="#000" transform="rotate(216.63619082516885)" d="M0,10A-10,10,0,0,1,0,-10A-10,10,0,0,0,0,10"></path></g><g transform="translate(362.5,337.5)"><path fill="#000" transform="rotate(212.99029518653882)" d="M0,10A-10,10,0,0,1,0,-10A-10,10,0,0,0,0,10"></path></g><g transform="translate(387.5,337.5)"><path fill="#000" transform="rotate(209.94143780224678)" d="M0,10A-10,10,0,0,1,0,-10A-10,10,0,0,0,0,10"></path></g><g transform="translate(412.5,337.5)"><path fill="#000" transform="rotate(207.36774262085433)" d="M0,10A-10,10,0,0,1,0,-10A-10,10,0,0,0,0,10"></path></g><g transform="translate(437.5,337.5)"><path fill="#000" transform="rotate(205.1744825577787)" d="M0,10A-10,10,0,0,1,0,-10A-10,10,0,0,0,0,10"></path></g><g transform="translate(462.5,337.5)"><path fill="#000" transform="rotate(203.28832071119484)" d="M0,10A-10,10,0,0,1,0,-10A-10,10,0,0,0,0,10"></path></g><g transform="translate(487.5,337.5)"><path fill="#000" transform="rotate(201.65232748254527)" d="M0,10A-10,10,0,0,1,0,-10A-10,10,0,0,0,0,10"></path></g><g transform="translate(12.5,362.5)"><path fill="#000" transform="rotate(315.0908601023823)" d="M0,10A-10,10,0,0,1,0,-10A-10,10,0,0,0,0,10"></path></g><g transform="translate(37.5,362.5)"><path fill="#000" transform="rotate(310.0134454352059)" d="M0,10A-10,10,0,0,1,0,-10A-10,10,0,0,0,0,10"></path></g><g transform="translate(62.5,362.5)"><path fill="#000" transform="rotate(304.051714580897)" d="M0,10A-10,10,0,0,1,0,-10A-10,10,0,0,0,0,10"></path></g><g transform="translate(87.5,362.5)"><path fill="#000" transform="rotate(297.1190510047819)" d="M0,10A-10,10,0,0,1,0,-10A-10,10,0,0,0,0,10"></path></g><g transform="translate(112.5,362.5)"><path fill="#000" transform="rotate(289.2118337518025)" d="M0,10A-10,10,0,0,1,0,-10A-10,10,0,0,0,0,10"></path></g><g transform="translate(137.5,362.5)"><path fill="#000" transform="rotate(280.4696609162575)" d="M0,10A-10,10,0,0,1,0,-10A-10,10,0,0,0,0,10"></path></g><g transform="translate(162.5,362.5)"><path fill="#000" transform="rotate(271.20958282896333)" d="M0,10A-10,10,0,0,1,0,-10A-10,10,0,0,0,0,10"></path></g><g transform="translate(187.5,362.5)"><path fill="#000" transform="rotate(261.8864305278362)" d="M0,10A-10,10,0,0,1,0,-10A-10,10,0,0,0,0,10"></path></g><g transform="translate(212.5,362.5)"><path fill="#000" transform="rotate(252.97332877141127)" d="M0,10A-10,10,0,0,1,0,-10A-10,10,0,0,0,0,10"></path></g><g transform="translate(237.5,362.5)"><path fill="#000" transform="rotate(244.83037924284872)" d="M0,10A-10,10,0,0,1,0,-10A-10,10,0,0,0,0,10"></path></g><g transform="translate(262.5,362.5)"><path fill="#000" transform="rotate(237.64190355868922)" d="M0,10A-10,10,0,0,1,0,-10A-10,10,0,0,0,0,10"></path></g><g transform="translate(287.5,362.5)"><path fill="#000" transform="rotate(231.43566299118436)" d="M0,10A-10,10,0,0,1,0,-10A-10,10,0,0,0,0,10"></path></g><g transform="translate(312.5,362.5)"><path fill="#000" transform="rotate(226.14088717444903)" d="M0,10A-10,10,0,0,1,0,-10A-10,10,0,0,0,0,10"></path></g><g transform="translate(337.5,362.5)"><path fill="#000" transform="rotate(221.64302380238047)" d="M0,10A-10,10,0,0,1,0,-10A-10,10,0,0,0,0,10"></path></g><g transform="translate(362.5,362.5)"><path fill="#000" transform="rotate(217.8191673568424)" d="M0,10A-10,10,0,0,1,0,-10A-10,10,0,0,0,0,10"></path></g><g transform="translate(387.5,362.5)"><path fill="#000" transform="rotate(214.55577256927913)" d="M0,10A-10,10,0,0,1,0,-10A-10,10,0,0,0,0,10"></path></g><g transform="translate(412.5,362.5)"><path fill="#000" transform="rotate(211.75516974279674)" d="M0,10A-10,10,0,0,1,0,-10A-10,10,0,0,0,0,10"></path></g><g transform="translate(437.5,362.5)"><path fill="#000" transform="rotate(209.33634689451304)" d="M0,10A-10,10,0,0,1,0,-10A-10,10,0,0,0,0,10"></path></g><g transform="translate(462.5,362.5)"><path fill="#000" transform="rotate(207.23330903160684)" d="M0,10A-10,10,0,0,1,0,-10A-10,10,0,0,0,0,10"></path></g><g transform="translate(487.5,362.5)"><path fill="#000" transform="rotate(205.39270468303275)" d="M0,10A-10,10,0,0,1,0,-10A-10,10,0,0,0,0,10"></path></g><g transform="translate(12.5,387.5)"><path fill="#000" transform="rotate(310.763796793321)" d="M0,10A-10,10,0,0,1,0,-10A-10,10,0,0,0,0,10"></path></g><g transform="translate(37.5,387.5)"><path fill="#000" transform="rotate(305.8074243223779)" d="M0,10A-10,10,0,0,1,0,-10A-10,10,0,0,0,0,10"></path></g><g transform="translate(62.5,387.5)"><path fill="#000" transform="rotate(300.1465072886458)" d="M0,10A-10,10,0,0,1,0,-10A-10,10,0,0,0,0,10"></path></g><g transform="translate(87.5,387.5)"><path fill="#000" transform="rotate(293.7547576537889)" d="M0,10A-10,10,0,0,1,0,-10A-10,10,0,0,0,0,10"></path></g><g transform="translate(112.5,387.5)"><path fill="#000" transform="rotate(286.67057096632317)" d="M0,10A-10,10,0,0,1,0,-10A-10,10,0,0,0,0,10"></path></g><g transform="translate(137.5,387.5)"><path fill="#000" transform="rotate(279.02320051620717)" d="M0,10A-10,10,0,0,1,0,-10A-10,10,0,0,0,0,10"></path></g><g transform="translate(162.5,387.5)"><path fill="#000" transform="rotate(271.0394892815511)" d="M0,10A-10,10,0,0,1,0,-10A-10,10,0,0,0,0,10"></path></g><g transform="translate(187.5,387.5)"><path fill="#000" transform="rotate(263.01546714430924)" d="M0,10A-10,10,0,0,1,0,-10A-10,10,0,0,0,0,10"></path></g><g transform="translate(212.5,387.5)"><path fill="#000" transform="rotate(255.25602446938996)" d="M0,10A-10,10,0,0,1,0,-10A-10,10,0,0,0,0,10"></path></g><g transform="translate(237.5,387.5)"><path fill="#000" transform="rotate(248.0101266858406)" d="M0,10A-10,10,0,0,1,0,-10A-10,10,0,0,0,0,10"></path></g><g transform="translate(262.5,387.5)"><path fill="#000" transform="rotate(241.43278213015105)" d="M0,10A-10,10,0,0,1,0,-10A-10,10,0,0,0,0,10"></path></g><g transform="translate(287.5,387.5)"><path fill="#000" transform="rotate(235.58375830351108)" d="M0,10A-10,10,0,0,1,0,-10A-10,10,0,0,0,0,10"></path></g><g transform="translate(312.5,387.5)"><path fill="#000" transform="rotate(230.4505898833936)" d="M0,10A-10,10,0,0,1,0,-10A-10,10,0,0,0,0,10"></path></g><g transform="translate(337.5,387.5)"><path fill="#000" transform="rotate(225.97771136066424)" d="M0,10A-10,10,0,0,1,0,-10A-10,10,0,0,0,0,10"></path></g><g transform="translate(362.5,387.5)"><path fill="#000" transform="rotate(222.09037124174296)" d="M0,10A-10,10,0,0,1,0,-10A-10,10,0,0,0,0,10"></path></g><g transform="translate(387.5,387.5)"><path fill="#000" transform="rotate(218.7101509767229)" d="M0,10A-10,10,0,0,1,0,-10A-10,10,0,0,0,0,10"></path></g><g transform="translate(412.5,387.5)"><path fill="#000" transform="rotate(215.76333567959705)" d="M0,10A-10,10,0,0,1,0,-10A-10,10,0,0,0,0,10"></path></g><g transform="translate(437.5,387.5)"><path fill="#000" transform="rotate(213.1845307919698)" d="M0,10A-10,10,0,0,1,0,-10A-10,10,0,0,0,0,10"></path></g><g transform="translate(462.5,387.5)"><path fill="#000" transform="rotate(210.9175695824582)" d="M0,10A-10,10,0,0,1,0,-10A-10,10,0,0,0,0,10"></path></g><g transform="translate(487.5,387.5)"><path fill="#000" transform="rotate(208.91507196667425)" d="M0,10A-10,10,0,0,1,0,-10A-10,10,0,0,0,0,10"></path></g><g transform="translate(12.5,412.5)"><path fill="#000" transform="rotate(307.08095581351535)" d="M0,10A-10,10,0,0,1,0,-10A-10,10,0,0,0,0,10"></path></g><g transform="translate(37.5,412.5)"><path fill="#000" transform="rotate(302.3117538875648)" d="M0,10A-10,10,0,0,1,0,-10A-10,10,0,0,0,0,10"></path></g><g transform="translate(62.5,412.5)"><path fill="#000" transform="rotate(296.9829265755742)" d="M0,10A-10,10,0,0,1,0,-10A-10,10,0,0,0,0,10"></path></g><g transform="translate(87.5,412.5)"><path fill="#000" transform="rotate(291.0985788705151)" d="M0,10A-10,10,0,0,1,0,-10A-10,10,0,0,0,0,10"></path></g><g transform="translate(112.5,412.5)"><path fill="#000" transform="rotate(284.70983813421606)" d="M0,10A-10,10,0,0,1,0,-10A-10,10,0,0,0,0,10"></path></g><g transform="translate(137.5,412.5)"><path fill="#000" transform="rotate(277.9256535848666)" d="M0,10A-10,10,0,0,1,0,-10A-10,10,0,0,0,0,10"></path></g><g transform="translate(162.5,412.5)"><path fill="#000" transform="rotate(270.91133219892856)" d="M0,10A-10,10,0,0,1,0,-10A-10,10,0,0,0,0,10"></path></g><g transform="translate(187.5,412.5)"><path fill="#000" transform="rotate(263.86972251176365)" d="M0,10A-10,10,0,0,1,0,-10A-10,10,0,0,0,0,10"></path></g><g transform="translate(212.5,412.5)"><path fill="#000" transform="rotate(257.0083635288233)" d="M0,10A-10,10,0,0,1,0,-10A-10,10,0,0,0,0,10"></path></g><g transform="translate(237.5,412.5)"><path fill="#000" transform="rotate(250.5047532709526)" d="M0,10A-10,10,0,0,1,0,-10A-10,10,0,0,0,0,10"></path></g><g transform="translate(262.5,412.5)"><path fill="#000" transform="rotate(244.48317796327927)" d="M0,10A-10,10,0,0,1,0,-10A-10,10,0,0,0,0,10"></path></g><g transform="translate(287.5,412.5)"><path fill="#000" transform="rotate(239.00900433185396)" d="M0,10A-10,10,0,0,1,0,-10A-10,10,0,0,0,0,10"></path></g><g transform="translate(312.5,412.5)"><path fill="#000" transform="rotate(234.0970587793457)" d="M0,10A-10,10,0,0,1,0,-10A-10,10,0,0,0,0,10"></path></g><g transform="translate(337.5,412.5)"><path fill="#000" transform="rotate(229.7264516379832)" d="M0,10A-10,10,0,0,1,0,-10A-10,10,0,0,0,0,10"></path></g><g transform="translate(362.5,412.5)"><path fill="#000" transform="rotate(225.8553684947228)" d="M0,10A-10,10,0,0,1,0,-10A-10,10,0,0,0,0,10"></path></g><g transform="translate(387.5,412.5)"><path fill="#000" transform="rotate(222.43258265550145)" d="M0,10A-10,10,0,0,1,0,-10A-10,10,0,0,0,0,10"></path></g><g transform="translate(412.5,412.5)"><path fill="#000" transform="rotate(219.4050637748835)" d="M0,10A-10,10,0,0,1,0,-10A-10,10,0,0,0,0,10"></path></g><g transform="translate(437.5,412.5)"><path fill="#000" transform="rotate(216.72234917920366)" d="M0,10A-10,10,0,0,1,0,-10A-10,10,0,0,0,0,10"></path></g><g transform="translate(462.5,412.5)"><path fill="#000" transform="rotate(214.3386672422157)" d="M0,10A-10,10,0,0,1,0,-10A-10,10,0,0,0,0,10"></path></g><g transform="translate(487.5,412.5)"><path fill="#000" transform="rotate(212.21367436912058)" d="M0,10A-10,10,0,0,1,0,-10A-10,10,0,0,0,0,10"></path></g><g transform="translate(12.5,437.5)"><path fill="#000" transform="rotate(303.9329541734993)" d="M0,10A-10,10,0,0,1,0,-10A-10,10,0,0,0,0,10"></path></g><g transform="translate(37.5,437.5)"><path fill="#000" transform="rotate(299.3809425965087)" d="M0,10A-10,10,0,0,1,0,-10A-10,10,0,0,0,0,10"></path></g><g transform="translate(62.5,437.5)"><path fill="#000" transform="rotate(294.38281445048756)" d="M0,10A-10,10,0,0,1,0,-10A-10,10,0,0,0,0,10"></path></g><g transform="translate(87.5,437.5)"><path fill="#000" transform="rotate(288.9567818153939)" d="M0,10A-10,10,0,0,1,0,-10A-10,10,0,0,0,0,10"></path></g><g transform="translate(112.5,437.5)"><path fill="#000" transform="rotate(283.1544714131067)" d="M0,10A-10,10,0,0,1,0,-10A-10,10,0,0,0,0,10"></path></g><g transform="translate(137.5,437.5)"><path fill="#000" transform="rotate(277.06494413543214)" d="M0,10A-10,10,0,0,1,0,-10A-10,10,0,0,0,0,10"></path></g><g transform="translate(162.5,437.5)"><path fill="#000" transform="rotate(270.81130544853283)" d="M0,10A-10,10,0,0,1,0,-10A-10,10,0,0,0,0,10"></path></g><g transform="translate(187.5,437.5)"><path fill="#000" transform="rotate(264.53835275604297)" d="M0,10A-10,10,0,0,1,0,-10A-10,10,0,0,0,0,10"></path></g><g transform="translate(212.5,437.5)"><path fill="#000" transform="rotate(258.3935464425871)" d="M0,10A-10,10,0,0,1,0,-10A-10,10,0,0,0,0,10"></path></g><g transform="translate(237.5,437.5)"><path fill="#000" transform="rotate(252.50711305727253)" d="M0,10A-10,10,0,0,1,0,-10A-10,10,0,0,0,0,10"></path></g><g transform="translate(262.5,437.5)"><path fill="#000" transform="rotate(246.97757965068382)" d="M0,10A-10,10,0,0,1,0,-10A-10,10,0,0,0,0,10"></path></g><g transform="translate(287.5,437.5)"><path fill="#000" transform="rotate(241.86608919100166)" d="M0,10A-10,10,0,0,1,0,-10A-10,10,0,0,0,0,10"></path></g><g transform="translate(312.5,437.5)"><path fill="#000" transform="rotate(237.19880630281295)" d="M0,10A-10,10,0,0,1,0,-10A-10,10,0,0,0,0,10"></path></g><g transform="translate(337.5,437.5)"><path fill="#000" transform="rotate(232.97421353032306)" d="M0,10A-10,10,0,0,1,0,-10A-10,10,0,0,0,0,10"></path></g><g transform="translate(362.5,437.5)"><path fill="#000" transform="rotate(229.1718588281269)" d="M0,10A-10,10,0,0,1,0,-10A-10,10,0,0,0,0,10"></path></g><g transform="translate(387.5,437.5)"><path fill="#000" transform="rotate(225.7602368299419)" d="M0,10A-10,10,0,0,1,0,-10A-10,10,0,0,0,0,10"></path></g><g transform="translate(412.5,437.5)"><path fill="#000" transform="rotate(222.7028065938267)" d="M0,10A-10,10,0,0,1,0,-10A-10,10,0,0,0,0,10"></path></g><g transform="translate(437.5,437.5)"><path fill="#000" transform="rotate(219.96205989777673)" d="M0,10A-10,10,0,0,1,0,-10A-10,10,0,0,0,0,10"></path></g><g transform="translate(462.5,437.5)"><path fill="#000" transform="rotate(217.50198444279363)" d="M0,10A-10,10,0,0,1,0,-10A-10,10,0,0,0,0,10"></path></g><g transform="translate(487.5,437.5)"><path fill="#000" transform="rotate(215.28937158067467)" d="M0,10A-10,10,0,0,1,0,-10A-10,10,0,0,0,0,10"></path></g><g transform="translate(12.5,462.5)"><path fill="#000" transform="rotate(301.22658668480744)" d="M0,10A-10,10,0,0,1,0,-10A-10,10,0,0,0,0,10"></path></g><g transform="translate(37.5,462.5)"><path fill="#000" transform="rotate(296.9005016021339)" d="M0,10A-10,10,0,0,1,0,-10A-10,10,0,0,0,0,10"></path></g><g transform="translate(62.5,462.5)"><path fill="#000" transform="rotate(292.2162831101001)" d="M0,10A-10,10,0,0,1,0,-10A-10,10,0,0,0,0,10"></path></g><g transform="translate(87.5,462.5)"><path fill="#000" transform="rotate(287.19771677330573)" d="M0,10A-10,10,0,0,1,0,-10A-10,10,0,0,0,0,10"></path></g><g transform="translate(112.5,462.5)"><path fill="#000" transform="rotate(281.8922661315911)" d="M0,10A-10,10,0,0,1,0,-10A-10,10,0,0,0,0,10"></path></g><g transform="translate(137.5,462.5)"><path fill="#000" transform="rotate(276.372167589357)" d="M0,10A-10,10,0,0,1,0,-10A-10,10,0,0,0,0,10"></path></g><g transform="translate(162.5,462.5)"><path fill="#000" transform="rotate(270.73106357830335)" d="M0,10A-10,10,0,0,1,0,-10A-10,10,0,0,0,0,10"></path></g><g transform="translate(187.5,462.5)"><path fill="#000" transform="rotate(265.07579597384915)" d="M0,10A-10,10,0,0,1,0,-10A-10,10,0,0,0,0,10"></path></g><g transform="translate(212.5,462.5)"><path fill="#000" transform="rotate(259.5148062631878)" d="M0,10A-10,10,0,0,1,0,-10A-10,10,0,0,0,0,10"></path></g><g transform="translate(237.5,462.5)"><path fill="#000" transform="rotate(254.14610444707964)" d="M0,10A-10,10,0,0,1,0,-10A-10,10,0,0,0,0,10"></path></g><g transform="translate(262.5,462.5)"><path fill="#000" transform="rotate(249.0479728203718)" d="M0,10A-10,10,0,0,1,0,-10A-10,10,0,0,0,0,10"></path></g><g transform="translate(287.5,462.5)"><path fill="#000" transform="rotate(244.2743192880789)" d="M0,10A-10,10,0,0,1,0,-10A-10,10,0,0,0,0,10"></path></g><g transform="translate(312.5,462.5)"><path fill="#000" transform="rotate(239.85473909130164)" d="M0,10A-10,10,0,0,1,0,-10A-10,10,0,0,0,0,10"></path></g><g transform="translate(337.5,462.5)"><path fill="#000" transform="rotate(235.7979514149754)" d="M0,10A-10,10,0,0,1,0,-10A-10,10,0,0,0,0,10"></path></g><g transform="translate(362.5,462.5)"><path fill="#000" transform="rotate(232.0968332948346)" d="M0,10A-10,10,0,0,1,0,-10A-10,10,0,0,0,0,10"></path></g><g transform="translate(387.5,462.5)"><path fill="#000" transform="rotate(228.73358296914085)" d="M0,10A-10,10,0,0,1,0,-10A-10,10,0,0,0,0,10"></path></g><g transform="translate(412.5,462.5)"><path fill="#000" transform="rotate(225.68414693686327)" d="M0,10A-10,10,0,0,1,0,-10A-10,10,0,0,0,0,10"></path></g><g transform="translate(437.5,462.5)"><path fill="#000" transform="rotate(222.92158714433464)" d="M0,10A-10,10,0,0,1,0,-10A-10,10,0,0,0,0,10"></path></g><g transform="translate(462.5,462.5)"><path fill="#000" transform="rotate(220.4184103346029)" d="M0,10A-10,10,0,0,1,0,-10A-10,10,0,0,0,0,10"></path></g><g transform="translate(487.5,462.5)"><path fill="#000" transform="rotate(218.1480417447342)" d="M0,10A-10,10,0,0,1,0,-10A-10,10,0,0,0,0,10"></path></g><g transform="translate(12.5,487.5)"><path fill="#000" transform="rotate(298.88488149388365)" d="M0,10A-10,10,0,0,1,0,-10A-10,10,0,0,0,0,10"></path></g><g transform="translate(37.5,487.5)"><path fill="#000" transform="rotate(294.7815008517577)" d="M0,10A-10,10,0,0,1,0,-10A-10,10,0,0,0,0,10"></path></g><g transform="translate(62.5,487.5)"><path fill="#000" transform="rotate(290.3881277412212)" d="M0,10A-10,10,0,0,1,0,-10A-10,10,0,0,0,0,10"></path></g><g transform="translate(87.5,487.5)"><path fill="#000" transform="rotate(285.72979478234583)" d="M0,10A-10,10,0,0,1,0,-10A-10,10,0,0,0,0,10"></path></g><g transform="translate(112.5,487.5)"><path fill="#000" transform="rotate(280.84842096047777)" d="M0,10A-10,10,0,0,1,0,-10A-10,10,0,0,0,0,10"></path></g><g transform="translate(137.5,487.5)"><path fill="#000" transform="rotate(275.80269934984585)" d="M0,10A-10,10,0,0,1,0,-10A-10,10,0,0,0,0,10"></path></g><g transform="translate(162.5,487.5)"><path fill="#000" transform="rotate(270.665265065695)" d="M0,10A-10,10,0,0,1,0,-10A-10,10,0,0,0,0,10"></path></g><g transform="translate(187.5,487.5)"><path fill="#000" transform="rotate(265.51713954959257)" d="M0,10A-10,10,0,0,1,0,-10A-10,10,0,0,0,0,10"></path></g><g transform="translate(212.5,487.5)"><path fill="#000" transform="rotate(260.4403506970185)" d="M0,10A-10,10,0,0,1,0,-10A-10,10,0,0,0,0,10"></path></g><g transform="translate(237.5,487.5)"><path fill="#000" transform="rotate(255.51032509619228)" d="M0,10A-10,10,0,0,1,0,-10A-10,10,0,0,0,0,10"></path></g><g transform="translate(262.5,487.5)"><path fill="#000" transform="rotate(250.78974012114782)" d="M0,10A-10,10,0,0,1,0,-10A-10,10,0,0,0,0,10"></path></g><g transform="translate(287.5,487.5)"><path fill="#000" transform="rotate(246.32495438307103)" d="M0,10A-10,10,0,0,1,0,-10A-10,10,0,0,0,0,10"></path></g><g transform="translate(312.5,487.5)"><path fill="#000" transform="rotate(242.14523873547952)" d="M0,10A-10,10,0,0,1,0,-10A-10,10,0,0,0,0,10"></path></g><g transform="translate(337.5,487.5)"><path fill="#000" transform="rotate(238.26426319470988)" d="M0,10A-10,10,0,0,1,0,-10A-10,10,0,0,0,0,10"></path></g><g transform="translate(362.5,487.5)"><path fill="#000" transform="rotate(234.68292913581536)" d="M0,10A-10,10,0,0,1,0,-10A-10,10,0,0,0,0,10"></path></g><g transform="translate(387.5,487.5)"><path fill="#000" transform="rotate(231.39266360957748)" d="M0,10A-10,10,0,0,1,0,-10A-10,10,0,0,0,0,10"></path></g><g transform="translate(412.5,487.5)"><path fill="#000" transform="rotate(228.37854240665743)" d="M0,10A-10,10,0,0,1,0,-10A-10,10,0,0,0,0,10"></path></g><g transform="translate(437.5,487.5)"><path fill="#000" transform="rotate(225.62190197853536)" d="M0,10A-10,10,0,0,1,0,-10A-10,10,0,0,0,0,10"></path></g><g transform="translate(462.5,487.5)"><path fill="#000" transform="rotate(223.10233278279526)" d="M0,10A-10,10,0,0,1,0,-10A-10,10,0,0,0,0,10"></path></g><g transform="translate(487.5,487.5)"><path fill="#000" transform="rotate(220.79908867854186)" d="M0,10A-10,10,0,0,1,0,-10A-10,10,0,0,0,0,10"></path></g></svg>