<svg width="500" height="500" style="background: rgb(76, 211, 70);" version="1.1" xmlns="http://www.w3.org/2000/svg"><g transform="translate(250,250)rotate(17.484)"><path d="M0,-149.8320240907796A149.8320240907796,149.8320240907796 0 0,1 103.08135237883542,-108.7376210650677L72.76120447914515,-76.75374932814378A105.76072481400428,105.76072481400428 0 0,0 0,-105.76072481400428Z" fill="#000" fill-opacity="0.5176638882954363"></path><path d="M73.64684409864213,-77.68798566791504A107.0480301679013,107.0480301679013 0 0,1 81.5285640711032,-69.37127650066645L39.121715407410946,-33.28800608264122A51.367304439462416,51.367304439462416 0 0,0 35.339649462834615,-37.27880284049343Z" fill="#000" fill-opacity="0.4527885310427058"></path><path d="M80.57130181019525,-68.55675823039269A105.79113277798899,105.79113277798899 0 0,1 103.48294820900405,21.97824388850648L39.29435515610866,8.345538429368062A40.17081476408543,40.17081476408543 0 0,0 30.594386838742572,-26.03224640271826Z" fill="#000" fill-opacity="0.3719805056625041"></path><path d="M87.3861139670171,18.55951495851191A89.33525905123763,89.33525905123763 0 0,1 73.13756651164738,51.29995004389464L61.83322603987425,43.370890750011995A75.52735932725082,75.52735932725082 0 0,0 73.87947938913551,15.690906033048508Z" fill="#000" fill-opacity="0.7495988967757422"></path><path d="M107.96183866125277,75.72629490054564A131.87202260708216,131.87202260708216 0 0,1 50.6808746867196,121.74431932321036L33.924302283305714,81.4921035898801A88.27129336830208,88.27129336830208 0 0,0 72.26651221877094,50.688977545883446Z" fill="#000" fill-opacity="0.5942541117493082"></path><path d="M45.57299898147118,109.47430909219156A118.58129105123568,118.58129105123568 0 0,1 -6.043069251973471,118.427209294966L-2.242504289134431,43.94679486875887A44.003972601613626,44.003972601613626 0 0,0 16.91154633902197,40.62449021399131Z" fill="#000" fill-opacity="0.6988366912354029"></path><path d="M-7.731391488676581,151.51359016311335A151.71071952392526,151.71071952392526 0 0,1 -128.89018259682737,80.02164237644445L-64.03742466134445,39.75772081096226A75.37551407015278,75.37551407015278 0 0,0 -3.8412421334848283,75.27757289001634Z" fill="#000" fill-opacity="0.41441581163514823"></path><path d="M-132.8868095192922,82.50295355048434A156.41496568030206,156.41496568030206 0 0,1 -146.8839175865042,-53.76575344223415L-74.42243708218275,-27.24177342542824A79.25158270100238,79.25158270100238 0 0,0 -67.33044967075556,41.80219979555693Z" fill="#000" fill-opacity="0.47298587167793527"></path><path d="M-143.84897881876478,-52.654836929522965A153.1830948873801,153.1830948873801 0 0,1 -33.36791864722215,-149.5046573335707L-11.650761052150841,-52.20112938995464A53.48549469417954,53.48549469417954 0 0,0 -50.22638953097716,-18.38499217741622Z" fill="#000" fill-opacity="0.43022821316403315"></path><path d="M-27.913792063965513,-125.06749256747929A128.14467403878646,128.14467403878646 0 0,1 -2.3539794700584917e-14,-128.14467403878646L-1.4575045770015963e-14,-79.34285379526611A79.34285379526611,79.34285379526611 0 0,0 -17.283277195994255,-77.43756696683711Z" fill="#000" fill-opacity="0.4170279930924884"></path></g></svg>