<svg width="500" height="500" style="background: rgb(34, 34, 34);" version="1.1" xmlns="http://www.w3.org/2000/svg"><g transform="translate(0,-50)"><rect x="-50" y="0" rx="30.49044932592593" ry="30.49044932592593" width="100" height="100" fill="#fff" fill-opacity="0.23901910134814813"></rect><rect x="0" y="0" rx="37.798424140740735" ry="37.798424140740735" width="100" height="100" fill="#fff" fill-opacity="0.22440315171851852"></rect><rect x="50" y="0" rx="43.0068434" ry="43.0068434" width="100" height="100" fill="#fff" fill-opacity="0.2139863132"></rect><rect x="100" y="0" rx="46.47126265925926" ry="46.47126265925926" width="100" height="100" fill="#fff" fill-opacity="0.2070574746814815"></rect><rect x="150" y="0" rx="48.54723747407407" ry="48.54723747407407" width="100" height="100" fill="#fff" fill-opacity="0.20290552505185186"></rect><rect x="200" y="0" rx="49.5903234" ry="49.5903234" width="100" height="100" fill="#fff" fill-opacity="0.20081935320000002"></rect><rect x="250" y="0" rx="49.95607599259259" ry="49.95607599259259" width="100" height="100" fill="#fff" fill-opacity="0.20008784801481483"></rect><rect x="300" y="0" rx="50" ry="50" width="100" height="100" fill="#fff" fill-opacity="0.2"></rect><rect x="350" y="0" rx="50" ry="50" width="100" height="100" fill="#fff" fill-opacity="0.2"></rect><rect x="400" y="0" rx="50" ry="50" width="100" height="100" fill="#fff" fill-opacity="0.2"></rect><rect x="450" y="0" rx="50" ry="50" width="100" height="100" fill="#fff" fill-opacity="0.2"></rect></g><g transform="translate(0,0)"><rect x="-50" y="0" rx="36.114693800000005" ry="36.114693800000005" width="100" height="100" fill="#fff" fill-opacity="0.22777061240000002"></rect><rect x="0" y="0" rx="41.83479305925926" ry="41.83479305925926" width="100" height="100" fill="#fff" fill-opacity="0.2163304138814815"></rect><rect x="50" y="0" rx="45.71844787407407" ry="45.71844787407407" width="100" height="100" fill="#fff" fill-opacity="0.20856310425185187"></rect><rect x="100" y="0" rx="48.1212138" ry="48.1212138" width="100" height="100" fill="#fff" fill-opacity="0.20375757240000003"></rect><rect x="150" y="0" rx="49.398646392592596" ry="49.398646392592596" width="100" height="100" fill="#fff" fill-opacity="0.2012027072148148"></rect><rect x="200" y="0" rx="49.9063012074074" ry="49.9063012074074" width="100" height="100" fill="#fff" fill-opacity="0.2001873975851852"></rect><rect x="250" y="0" rx="49.9997338" ry="49.9997338" width="100" height="100" fill="#fff" fill-opacity="0.20000053240000001"></rect><rect x="300" y="0" rx="50" ry="50" width="100" height="100" fill="#fff" fill-opacity="0.2"></rect><rect x="350" y="0" rx="50" ry="50" width="100" height="100" fill="#fff" fill-opacity="0.2"></rect><rect x="400" y="0" rx="50" ry="50" width="100" height="100" fill="#fff" fill-opacity="0.2"></rect><rect x="450" y="0" rx="50" ry="50" width="100" height="100" fill="#fff" fill-opacity="0.2"></rect></g><g transform="translate(0,50)"><rect x="-50" y="0" rx="41.83479305925926" ry="41.83479305925926" width="100" height="100" fill="#fff" fill-opacity="0.2163304138814815"></rect><rect x="0" y="0" rx="45.71844787407407" ry="45.71844787407407" width="100" height="100" fill="#fff" fill-opacity="0.20856310425185187"></rect><rect x="50" y="0" rx="48.1212138" ry="48.1212138" width="100" height="100" fill="#fff" fill-opacity="0.20375757240000003"></rect><rect x="100" y="0" rx="49.398646392592596" ry="49.398646392592596" width="100" height="100" fill="#fff" fill-opacity="0.2012027072148148"></rect><rect x="150" y="0" rx="49.9063012074074" ry="49.9063012074074" width="100" height="100" fill="#fff" fill-opacity="0.2001873975851852"></rect><rect x="200" y="0" rx="49.9997338" ry="49.9997338" width="100" height="100" fill="#fff" fill-opacity="0.20000053240000001"></rect><rect x="250" y="0" rx="50" ry="50" width="100" height="100" fill="#fff" fill-opacity="0.2"></rect><rect x="300" y="0" rx="50" ry="50" width="100" height="100" fill="#fff" fill-opacity="0.2"></rect><rect x="350" y="0" rx="50" ry="50" width="100" height="100" fill="#fff" fill-opacity="0.2"></rect><rect x="400" y="0" rx="50" ry="50" width="100" height="100" fill="#fff" fill-opacity="0.2"></rect><rect x="450" y="0" rx="50" ry="50" width="100" height="100" fill="#fff" fill-opacity="0.2"></rect></g><g transform="translate(0,100)"><rect x="-50" y="0" rx="45.71844787407407" ry="45.71844787407407" width="100" height="100" fill="#fff" fill-opacity="0.20856310425185187"></rect><rect x="0" y="0" rx="48.1212138" ry="48.1212138" width="100" height="100" fill="#fff" fill-opacity="0.20375757240000003"></rect><rect x="50" y="0" rx="49.398646392592596" ry="49.398646392592596" width="100" height="100" fill="#fff" fill-opacity="0.2012027072148148"></rect><rect x="100" y="0" rx="49.9063012074074" ry="49.9063012074074" width="100" height="100" fill="#fff" fill-opacity="0.2001873975851852"></rect><rect x="150" y="0" rx="49.9997338" ry="49.9997338" width="100" height="100" fill="#fff" fill-opacity="0.20000053240000001"></rect><rect x="200" y="0" rx="50" ry="50" width="100" height="100" fill="#fff" fill-opacity="0.2"></rect><rect x="250" y="0" rx="50" ry="50" width="100" height="100" fill="#fff" fill-opacity="0.2"></rect><rect x="300" y="0" rx="50" ry="50" width="100" height="100" fill="#fff" fill-opacity="0.2"></rect><rect x="350" y="0" rx="50" ry="50" width="100" height="100" fill="#fff" fill-opacity="0.2"></rect><rect x="400" y="0" rx="50" ry="50" width="100" height="100" fill="#fff" fill-opacity="0.2"></rect><rect x="450" y="0" rx="50" ry="50" width="100" height="100" fill="#fff" fill-opacity="0.2"></rect></g><g transform="translate(0,150)"><rect x="-50" y="0" rx="48.1212138" ry="48.1212138" width="100" height="100" fill="#fff" fill-opacity="0.20375757240000003"></rect><rect x="0" y="0" rx="49.398646392592596" ry="49.398646392592596" width="100" height="100" fill="#fff" fill-opacity="0.2012027072148148"></rect><rect x="50" y="0" rx="49.9063012074074" ry="49.9063012074074" width="100" height="100" fill="#fff" fill-opacity="0.2001873975851852"></rect><rect x="100" y="0" rx="49.9997338" ry="49.9997338" width="100" height="100" fill="#fff" fill-opacity="0.20000053240000001"></rect><rect x="150" y="0" rx="50" ry="50" width="100" height="100" fill="#fff" fill-opacity="0.2"></rect><rect x="200" y="0" rx="50" ry="50" width="100" height="100" fill="#fff" fill-opacity="0.2"></rect><rect x="250" y="0" rx="50" ry="50" width="100" height="100" fill="#fff" fill-opacity="0.2"></rect><rect x="300" y="0" rx="50" ry="50" width="100" height="100" fill="#fff" fill-opacity="0.2"></rect><rect x="350" y="0" rx="50" ry="50" width="100" height="100" fill="#fff" fill-opacity="0.2"></rect><rect x="400" y="0" rx="50" ry="50" width="100" height="100" fill="#fff" fill-opacity="0.2"></rect><rect x="450" y="0" rx="50" ry="50" width="100" height="100" fill="#fff" fill-opacity="0.2"></rect></g><g transform="translate(0,200)"><rect x="-50" y="0" rx="49.398646392592596" ry="49.398646392592596" width="100" height="100" fill="#fff" fill-opacity="0.2012027072148148"></rect><rect x="0" y="0" rx="49.9063012074074" ry="49.9063012074074" width="100" height="100" fill="#fff" fill-opacity="0.2001873975851852"></rect><rect x="50" y="0" rx="49.9997338" ry="49.9997338" width="100" height="100" fill="#fff" fill-opacity="0.20000053240000001"></rect><rect x="100" y="0" rx="50" ry="50" width="100" height="100" fill="#fff" fill-opacity="0.2"></rect><rect x="150" y="0" rx="50" ry="50" width="100" height="100" fill="#fff" fill-opacity="0.2"></rect><rect x="200" y="0" rx="50" ry="50" width="100" height="100" fill="#fff" fill-opacity="0.2"></rect><rect x="250" y="0" rx="50" ry="50" width="100" height="100" fill="#fff" fill-opacity="0.2"></rect><rect x="300" y="0" rx="50" ry="50" width="100" height="100" fill="#fff" fill-opacity="0.2"></rect><rect x="350" y="0" rx="50" ry="50" width="100" height="100" fill="#fff" fill-opacity="0.2"></rect><rect x="400" y="0" rx="50" ry="50" width="100" height="100" fill="#fff" fill-opacity="0.2"></rect><rect x="450" y="0" rx="50" ry="50" width="100" height="100" fill="#fff" fill-opacity="0.2"></rect></g><g transform="translate(0,250)"><rect x="-50" y="0" rx="49.9063012074074" ry="49.9063012074074" width="100" height="100" fill="#fff" fill-opacity="0.2001873975851852"></rect><rect x="0" y="0" rx="49.9997338" ry="49.9997338" width="100" height="100" fill="#fff" fill-opacity="0.20000053240000001"></rect><rect x="50" y="0" rx="50" ry="50" width="100" height="100" fill="#fff" fill-opacity="0.2"></rect><rect x="100" y="0" rx="50" ry="50" width="100" height="100" fill="#fff" fill-opacity="0.2"></rect><rect x="150" y="0" rx="50" ry="50" width="100" height="100" fill="#fff" fill-opacity="0.2"></rect><rect x="200" y="0" rx="50" ry="50" width="100" height="100" fill="#fff" fill-opacity="0.2"></rect><rect x="250" y="0" rx="50" ry="50" width="100" height="100" fill="#fff" fill-opacity="0.2"></rect><rect x="300" y="0" rx="50" ry="50" width="100" height="100" fill="#fff" fill-opacity="0.2"></rect><rect x="350" y="0" rx="50" ry="50" width="100" height="100" fill="#fff" fill-opacity="0.2"></rect><rect x="400" y="0" rx="50" ry="50" width="100" height="100" fill="#fff" fill-opacity="0.2"></rect><rect x="450" y="0" rx="50" ry="50" width="100" height="100" fill="#fff" fill-opacity="0.2"></rect></g><g transform="translate(0,300)"><rect x="-50" y="0" rx="49.9997338" ry="49.9997338" width="100" height="100" fill="#fff" fill-opacity="0.20000053240000001"></rect><rect x="0" y="0" rx="50" ry="50" width="100" height="100" fill="#fff" fill-opacity="0.2"></rect><rect x="50" y="0" rx="50" ry="50" width="100" height="100" fill="#fff" fill-opacity="0.2"></rect><rect x="100" y="0" rx="50" ry="50" width="100" height="100" fill="#fff" fill-opacity="0.2"></rect><rect x="150" y="0" rx="50" ry="50" width="100" height="100" fill="#fff" fill-opacity="0.2"></rect><rect x="200" y="0" rx="50" ry="50" width="100" height="100" fill="#fff" fill-opacity="0.2"></rect><rect x="250" y="0" rx="50" ry="50" width="100" height="100" fill="#fff" fill-opacity="0.2"></rect><rect x="300" y="0" rx="50" ry="50" width="100" height="100" fill="#fff" fill-opacity="0.2"></rect><rect x="350" y="0" rx="50" ry="50" width="100" height="100" fill="#fff" fill-opacity="0.2"></rect><rect x="400" y="0" rx="50" ry="50" width="100" height="100" fill="#fff" fill-opacity="0.2"></rect><rect x="450" y="0" rx="50" ry="50" width="100" height="100" fill="#fff" fill-opacity="0.2"></rect></g><g transform="translate(0,350)"><rect x="-50" y="0" rx="50" ry="50" width="100" height="100" fill="#fff" fill-opacity="0.2"></rect><rect x="0" y="0" rx="50" ry="50" width="100" height="100" fill="#fff" fill-opacity="0.2"></rect><rect x="50" y="0" rx="50" ry="50" width="100" height="100" fill="#fff" fill-opacity="0.2"></rect><rect x="100" y="0" rx="50" ry="50" width="100" height="100" fill="#fff" fill-opacity="0.2"></rect><rect x="150" y="0" rx="50" ry="50" width="100" height="100" fill="#fff" fill-opacity="0.2"></rect><rect x="200" y="0" rx="50" ry="50" width="100" height="100" fill="#fff" fill-opacity="0.2"></rect><rect x="250" y="0" rx="50" ry="50" width="100" height="100" fill="#fff" fill-opacity="0.2"></rect><rect x="300" y="0" rx="50" ry="50" width="100" height="100" fill="#fff" fill-opacity="0.2"></rect><rect x="350" y="0" rx="50" ry="50" width="100" height="100" fill="#fff" fill-opacity="0.2"></rect><rect x="400" y="0" rx="50" ry="50" width="100" height="100" fill="#fff" fill-opacity="0.2"></rect><rect x="450" y="0" rx="50" ry="50" width="100" height="100" fill="#fff" fill-opacity="0.2"></rect></g><g transform="translate(0,400)"><rect x="-50" y="0" rx="50" ry="50" width="100" height="100" fill="#fff" fill-opacity="0.2"></rect><rect x="0" y="0" rx="50" ry="50" width="100" height="100" fill="#fff" fill-opacity="0.2"></rect><rect x="50" y="0" rx="50" ry="50" width="100" height="100" fill="#fff" fill-opacity="0.2"></rect><rect x="100" y="0" rx="50" ry="50" width="100" height="100" fill="#fff" fill-opacity="0.2"></rect><rect x="150" y="0" rx="50" ry="50" width="100" height="100" fill="#fff" fill-opacity="0.2"></rect><rect x="200" y="0" rx="50" ry="50" width="100" height="100" fill="#fff" fill-opacity="0.2"></rect><rect x="250" y="0" rx="50" ry="50" width="100" height="100" fill="#fff" fill-opacity="0.2"></rect><rect x="300" y="0" rx="50" ry="50" width="100" height="100" fill="#fff" fill-opacity="0.2"></rect><rect x="350" y="0" rx="50" ry="50" width="100" height="100" fill="#fff" fill-opacity="0.2"></rect><rect x="400" y="0" rx="50" ry="50" width="100" height="100" fill="#fff" fill-opacity="0.2"></rect><rect x="450" y="0" rx="50" ry="50" width="100" height="100" fill="#fff" fill-opacity="0.2"></rect></g><g transform="translate(0,450)"><rect x="-50" y="0" rx="50" ry="50" width="100" height="100" fill="#fff" fill-opacity="0.2"></rect><rect x="0" y="0" rx="50" ry="50" width="100" height="100" fill="#fff" fill-opacity="0.2"></rect><rect x="50" y="0" rx="50" ry="50" width="100" height="100" fill="#fff" fill-opacity="0.2"></rect><rect x="100" y="0" rx="50" ry="50" width="100" height="100" fill="#fff" fill-opacity="0.2"></rect><rect x="150" y="0" rx="50" ry="50" width="100" height="100" fill="#fff" fill-opacity="0.2"></rect><rect x="200" y="0" rx="50" ry="50" width="100" height="100" fill="#fff" fill-opacity="0.2"></rect><rect x="250" y="0" rx="50" ry="50" width="100" height="100" fill="#fff" fill-opacity="0.2"></rect><rect x="300" y="0" rx="50" ry="50" width="100" height="100" fill="#fff" fill-opacity="0.2"></rect><rect x="350" y="0" rx="50" ry="50" width="100" height="100" fill="#fff" fill-opacity="0.2"></rect><rect x="400" y="0" rx="50" ry="50" width="100" height="100" fill="#fff" fill-opacity="0.2"></rect><rect x="450" y="0" rx="50" ry="50" width="100" height="100" fill="#fff" fill-opacity="0.2"></rect></g></svg>