<svg width="500" height="500" style="background: rgb(247, 194, 57);" version="1.1" xmlns="http://www.w3.org/2000/svg"><g transform="translate(136.36363636363637,136.36363636363637)rotate(29.376)"><rect fill="#000" fill-opacity="0.1" x="-80" y="-80" width="160" height="160"></rect></g><g transform="translate(136.36363636363637,181.8181818181818)rotate(29.376)"><rect fill="#000" fill-opacity="0.1" x="-80" y="-80" width="160" height="160"></rect></g><g transform="translate(136.36363636363637,227.27272727272728)rotate(29.376)"><rect fill="#000" fill-opacity="0.1" x="-80" y="-80" width="160" height="160"></rect></g><g transform="translate(136.36363636363637,272.72727272727275)rotate(29.376)"><rect fill="#000" fill-opacity="0.1" x="-80" y="-80" width="160" height="160"></rect></g><g transform="translate(136.36363636363637,318.1818181818182)rotate(29.376)"><rect fill="#000" fill-opacity="0.1" x="-80" y="-80" width="160" height="160"></rect></g><g transform="translate(136.36363636363637,363.6363636363636)rotate(29.376)"><rect fill="#000" fill-opacity="0.1" x="-80" y="-80" width="160" height="160"></rect></g><g transform="translate(181.8181818181818,136.36363636363637)rotate(29.376)"><rect fill="#000" fill-opacity="0.1" x="-80" y="-80" width="160" height="160"></rect></g><g transform="translate(181.8181818181818,181.8181818181818)rotate(29.376)"><rect fill="#000" fill-opacity="0.1" x="-80" y="-80" width="160" height="160"></rect></g><g transform="translate(181.8181818181818,227.27272727272728)rotate(29.376)"><rect fill="#000" fill-opacity="0.1" x="-80" y="-80" width="160" height="160"></rect></g><g transform="translate(181.8181818181818,272.72727272727275)rotate(29.376)"><rect fill="#000" fill-opacity="0.1" x="-80" y="-80" width="160" height="160"></rect></g><g transform="translate(181.8181818181818,318.1818181818182)rotate(29.376)"><rect fill="#000" fill-opacity="0.1" x="-80" y="-80" width="160" height="160"></rect></g><g transform="translate(181.8181818181818,363.6363636363636)rotate(29.376)"><rect fill="#000" fill-opacity="0.1" x="-80" y="-80" width="160" height="160"></rect></g><g transform="translate(227.27272727272728,136.36363636363637)rotate(29.376)"><rect fill="#000" fill-opacity="0.1" x="-80" y="-80" width="160" height="160"></rect></g><g transform="translate(227.27272727272728,181.8181818181818)rotate(29.376)"><rect fill="#000" fill-opacity="0.1" x="-80" y="-80" width="160" height="160"></rect></g><g transform="translate(227.27272727272728,227.27272727272728)rotate(29.376)"><rect fill="#000" fill-opacity="0.1" x="-80" y="-80" width="160" height="160"></rect></g><g transform="translate(227.27272727272728,272.72727272727275)rotate(29.376)"><rect fill="#000" fill-opacity="0.1" x="-80" y="-80" width="160" height="160"></rect></g><g transform="translate(227.27272727272728,318.1818181818182)rotate(29.376)"><rect fill="#000" fill-opacity="0.1" x="-80" y="-80" width="160" height="160"></rect></g><g transform="translate(227.27272727272728,363.6363636363636)rotate(29.376)"><rect fill="#000" fill-opacity="0.1" x="-80" y="-80" width="160" height="160"></rect></g><g transform="translate(272.72727272727275,136.36363636363637)rotate(29.376)"><rect fill="#000" fill-opacity="0.1" x="-80" y="-80" width="160" height="160"></rect></g><g transform="translate(272.72727272727275,181.8181818181818)rotate(29.376)"><rect fill="#000" fill-opacity="0.1" x="-80" y="-80" width="160" height="160"></rect></g><g transform="translate(272.72727272727275,227.27272727272728)rotate(29.376)"><rect fill="#000" fill-opacity="0.1" x="-80" y="-80" width="160" height="160"></rect></g><g transform="translate(272.72727272727275,272.72727272727275)rotate(29.376)"><rect fill="#000" fill-opacity="0.1" x="-80" y="-80" width="160" height="160"></rect></g><g transform="translate(272.72727272727275,318.1818181818182)rotate(29.376)"><rect fill="#000" fill-opacity="0.1" x="-80" y="-80" width="160" height="160"></rect></g><g transform="translate(272.72727272727275,363.6363636363636)rotate(29.376)"><rect fill="#000" fill-opacity="0.1" x="-80" y="-80" width="160" height="160"></rect></g><g transform="translate(318.1818181818182,136.36363636363637)rotate(29.376)"><rect fill="#000" fill-opacity="0.1" x="-80" y="-80" width="160" height="160"></rect></g><g transform="translate(318.1818181818182,181.8181818181818)rotate(29.376)"><rect fill="#000" fill-opacity="0.1" x="-80" y="-80" width="160" height="160"></rect></g><g transform="translate(318.1818181818182,227.27272727272728)rotate(29.376)"><rect fill="#000" fill-opacity="0.1" x="-80" y="-80" width="160" height="160"></rect></g><g transform="translate(318.1818181818182,272.72727272727275)rotate(29.376)"><rect fill="#000" fill-opacity="0.1" x="-80" y="-80" width="160" height="160"></rect></g><g transform="translate(318.1818181818182,318.1818181818182)rotate(29.376)"><rect fill="#000" fill-opacity="0.1" x="-80" y="-80" width="160" height="160"></rect></g><g transform="translate(318.1818181818182,363.6363636363636)rotate(29.376)"><rect fill="#000" fill-opacity="0.1" x="-80" y="-80" width="160" height="160"></rect></g><g transform="translate(363.6363636363636,136.36363636363637)rotate(29.376)"><rect fill="#000" fill-opacity="0.1" x="-80" y="-80" width="160" height="160"></rect></g><g transform="translate(363.6363636363636,181.8181818181818)rotate(29.376)"><rect fill="#000" fill-opacity="0.1" x="-80" y="-80" width="160" height="160"></rect></g><g transform="translate(363.6363636363636,227.27272727272728)rotate(29.376)"><rect fill="#000" fill-opacity="0.1" x="-80" y="-80" width="160" height="160"></rect></g><g transform="translate(363.6363636363636,272.72727272727275)rotate(29.376)"><rect fill="#000" fill-opacity="0.1" x="-80" y="-80" width="160" height="160"></rect></g><g transform="translate(363.6363636363636,318.1818181818182)rotate(29.376)"><rect fill="#000" fill-opacity="0.1" x="-80" y="-80" width="160" height="160"></rect></g><g transform="translate(363.6363636363636,363.6363636363636)rotate(29.376)"><rect fill="#000" fill-opacity="0.1" x="-80" y="-80" width="160" height="160"></rect></g></svg>