<svg width="500" height="500" style="background: rgb(202, 177, 115);" version="1.1" xmlns="http://www.w3.org/2000/svg"><g transform="translate(0,-25)"><path fill="#111" fill-opacity="0.2" d="M0,-25l21.65063509461097,12.5l3.552713678800501e-15,24.999999999999993l-21.650635094610962,12.500000000000007l-21.65063509461097,-12.499999999999986l-2.1316282072803006e-14,-25l21.65063509461095,-12.500000000000016Z" transform="scale(1.9276237912628753)"></path></g><g transform="translate(43.30127018922194,-25)"><path fill="#111" fill-opacity="0.2" d="M0,-25l21.65063509461097,12.5l3.552713678800501e-15,24.999999999999993l-21.650635094610962,12.500000000000007l-21.65063509461097,-12.499999999999986l-2.1316282072803006e-14,-25l21.65063509461095,-12.500000000000016Z" transform="scale(1.9952912387025465)"></path></g><g transform="translate(86.60254037844388,-25)"><path fill="#111" fill-opacity="0.2" d="M0,-25l21.65063509461097,12.5l3.552713678800501e-15,24.999999999999993l-21.650635094610962,12.500000000000007l-21.65063509461097,-12.499999999999986l-2.1316282072803006e-14,-25l21.65063509461095,-12.500000000000016Z" transform="scale(1.9822616292594155)"></path></g><g transform="translate(129.9038105676658,-25)"><path fill="#111" fill-opacity="0.2" d="M0,-25l21.65063509461097,12.5l3.552713678800501e-15,24.999999999999993l-21.650635094610962,12.500000000000007l-21.65063509461097,-12.499999999999986l-2.1316282072803006e-14,-25l21.65063509461095,-12.500000000000016Z" transform="scale(1.8895913885238074)"></path></g><g transform="translate(173.20508075688775,-25)"><path fill="#111" fill-opacity="0.2" d="M0,-25l21.65063509461097,12.5l3.552713678800501e-15,24.999999999999993l-21.650635094610962,12.500000000000007l-21.65063509461097,-12.499999999999986l-2.1316282072803006e-14,-25l21.65063509461095,-12.500000000000016Z" transform="scale(1.7247941119110055)"></path></g><g transform="translate(216.5063509461097,-25)"><path fill="#111" fill-opacity="0.2" d="M0,-25l21.65063509461097,12.5l3.552713678800501e-15,24.999999999999993l-21.650635094610962,12.500000000000007l-21.65063509461097,-12.499999999999986l-2.1316282072803006e-14,-25l21.65063509461095,-12.500000000000016Z" transform="scale(1.5012313710774494)"></path></g><g transform="translate(259.80762113533166,-25)"><path fill="#111" fill-opacity="0.2" d="M0,-25l21.65063509461097,12.5l3.552713678800501e-15,24.999999999999993l-21.650635094610962,12.500000000000007l-21.65063509461097,-12.499999999999986l-2.1316282072803006e-14,-25l21.65063509461095,-12.500000000000016Z" transform="scale(1.237029373219981)"></path></g><g transform="translate(303.1088913245536,-25)"><path fill="#111" fill-opacity="0.2" d="M0,-25l21.65063509461097,12.5l3.552713678800501e-15,24.999999999999993l-21.650635094610962,12.500000000000007l-21.65063509461097,-12.499999999999986l-2.1316282072803006e-14,-25l21.65063509461095,-12.500000000000016Z" transform="scale(0.9536093092630238)"></path></g><g transform="translate(346.41016151377556,-25)"><path fill="#111" fill-opacity="0.2" d="M0,-25l21.65063509461097,12.5l3.552713678800501e-15,24.999999999999993l-21.650635094610962,12.500000000000007l-21.65063509461097,-12.499999999999986l-2.1316282072803006e-14,-25l21.65063509461095,-12.500000000000016Z" transform="scale(0.673950548594654)"></path></g><g transform="translate(389.7114317029975,-25)"><path fill="#111" fill-opacity="0.2" d="M0,-25l21.65063509461097,12.5l3.552713678800501e-15,24.999999999999993l-21.650635094610962,12.500000000000007l-21.65063509461097,-12.499999999999986l-2.1316282072803006e-14,-25l21.65063509461095,-12.500000000000016Z" transform="scale(0.42072749850378444)"></path></g><g transform="translate(433.01270189221947,-25)"><path fill="#111" fill-opacity="0.2" d="M0,-25l21.65063509461097,12.5l3.552713678800501e-15,24.999999999999993l-21.650635094610962,12.500000000000007l-21.65063509461097,-12.499999999999986l-2.1316282072803006e-14,-25l21.65063509461095,-12.500000000000016Z" transform="scale(0.2144711895899224)"></path></g><g transform="translate(476.3139720814414,-25)"><path fill="#111" fill-opacity="0.2" d="M0,-25l21.65063509461097,12.5l3.552713678800501e-15,24.999999999999993l-21.650635094610962,12.500000000000007l-21.65063509461097,-12.499999999999986l-2.1316282072803006e-14,-25l21.65063509461095,-12.500000000000016Z" transform="scale(0.07190464366380167)"></path></g><g transform="translate(519.6152422706633,-25)"><path fill="#111" fill-opacity="0.2" d="M0,-25l21.65063509461097,12.5l3.552713678800501e-15,24.999999999999993l-21.650635094610962,12.500000000000007l-21.65063509461097,-12.499999999999986l-2.1316282072803006e-14,-25l21.65063509461095,-12.500000000000016Z" transform="scale(0.004586990574876326)"></path></g><g transform="translate(-21.65063509461097,12.5)"><path fill="#111" fill-opacity="0.2" d="M0,-25l21.65063509461097,12.5l3.552713678800501e-15,24.999999999999993l-21.650635094610962,12.500000000000007l-21.65063509461097,-12.499999999999986l-2.1316282072803006e-14,-25l21.65063509461095,-12.500000000000016Z" transform="scale(0.017976267397415868)"></path></g><g transform="translate(21.65063509461097,12.5)"><path fill="#111" fill-opacity="0.2" d="M0,-25l21.65063509461097,12.5l3.552713678800501e-15,24.999999999999993l-21.650635094610962,12.500000000000007l-21.65063509461097,-12.499999999999986l-2.1316282072803006e-14,-25l21.65063509461095,-12.500000000000016Z" transform="scale(0.11098688712798266)"></path></g><g transform="translate(64.9519052838329,12.5)"><path fill="#111" fill-opacity="0.2" d="M0,-25l21.65063509461097,12.5l3.552713678800501e-15,24.999999999999993l-21.650635094610962,12.500000000000007l-21.65063509461097,-12.499999999999986l-2.1316282072803006e-14,-25l21.65063509461095,-12.500000000000016Z" transform="scale(0.2760776568179858)"></path></g><g transform="translate(108.25317547305484,12.5)"><path fill="#111" fill-opacity="0.2" d="M0,-25l21.65063509461097,12.5l3.552713678800501e-15,24.999999999999993l-21.650635094610962,12.500000000000007l-21.65063509461097,-12.499999999999986l-2.1316282072803006e-14,-25l21.65063509461095,-12.500000000000016Z" transform="scale(0.4998632087333833)"></path></g><g transform="translate(151.55444566227678,12.5)"><path fill="#111" fill-opacity="0.2" d="M0,-25l21.65063509461097,12.5l3.552713678800501e-15,24.999999999999993l-21.650635094610962,12.500000000000007l-21.65063509461097,-12.499999999999986l-2.1316282072803006e-14,-25l21.65063509461095,-12.500000000000016Z" transform="scale(0.7641992704137793)"></path></g><g transform="translate(194.8557158514987,12.5)"><path fill="#111" fill-opacity="0.2" d="M0,-25l21.65063509461097,12.5l3.552713678800501e-15,24.999999999999993l-21.650635094610962,12.500000000000007l-21.65063509461097,-12.499999999999986l-2.1316282072803006e-14,-25l21.65063509461095,-12.500000000000016Z" transform="scale(1.0476537811957987)"></path></g><g transform="translate(238.15698604072065,12.5)"><path fill="#111" fill-opacity="0.2" d="M0,-25l21.65063509461097,12.5l3.552713678800501e-15,24.999999999999993l-21.650635094610962,12.500000000000007l-21.65063509461097,-12.499999999999986l-2.1316282072803006e-14,-25l21.65063509461095,-12.500000000000016Z" transform="scale(1.3272445787828224)"></path></g><g transform="translate(281.4582562299426,12.5)"><path fill="#111" fill-opacity="0.2" d="M0,-25l21.65063509461097,12.5l3.552713678800501e-15,24.999999999999993l-21.650635094610962,12.500000000000007l-21.65063509461097,-12.499999999999986l-2.1316282072803006e-14,-25l21.65063509461095,-12.500000000000016Z" transform="scale(1.5803027662535833)"></path></g><g transform="translate(324.75952641916456,12.5)"><path fill="#111" fill-opacity="0.2" d="M0,-25l21.65063509461097,12.5l3.552713678800501e-15,24.999999999999993l-21.650635094610962,12.500000000000007l-21.65063509461097,-12.499999999999986l-2.1316282072803006e-14,-25l21.65063509461095,-12.500000000000016Z" transform="scale(1.7863106798782113)"></path></g><g transform="translate(368.0607966083865,12.5)"><path fill="#111" fill-opacity="0.2" d="M0,-25l21.65063509461097,12.5l3.552713678800501e-15,24.999999999999993l-21.650635094610962,12.500000000000007l-21.65063509461097,-12.499999999999986l-2.1316282072803006e-14,-25l21.65063509461095,-12.500000000000016Z" transform="scale(1.9285654374473264)"></path></g><g transform="translate(411.36206679760846,12.5)"><path fill="#111" fill-opacity="0.2" d="M0,-25l21.65063509461097,12.5l3.552713678800501e-15,24.999999999999993l-21.650635094610962,12.500000000000007l-21.65063509461097,-12.499999999999986l-2.1316282072803006e-14,-25l21.65063509461095,-12.500000000000016Z" transform="scale(1.995533188549096)"></path></g><g transform="translate(454.6633369868304,12.5)"><path fill="#111" fill-opacity="0.2" d="M0,-25l21.65063509461097,12.5l3.552713678800501e-15,24.999999999999993l-21.650635094610962,12.500000000000007l-21.65063509461097,-12.499999999999986l-2.1316282072803006e-14,-25l21.65063509461095,-12.500000000000016Z" transform="scale(1.981784265755706)"></path></g><g transform="translate(497.96460717605237,12.5)"><path fill="#111" fill-opacity="0.2" d="M0,-25l21.65063509461097,12.5l3.552713678800501e-15,24.999999999999993l-21.650635094610962,12.500000000000007l-21.65063509461097,-12.499999999999986l-2.1316282072803006e-14,-25l21.65063509461095,-12.500000000000016Z" transform="scale(1.8884334157479152)"></path></g><g transform="translate(541.2658773652743,12.5)"><path fill="#111" fill-opacity="0.2" d="M0,-25l21.65063509461097,12.5l3.552713678800501e-15,24.999999999999993l-21.650635094610962,12.500000000000007l-21.65063509461097,-12.499999999999986l-2.1316282072803006e-14,-25l21.65063509461095,-12.500000000000016Z" transform="scale(1.723049416949776)"></path></g><g transform="translate(0,50)"><path fill="#111" fill-opacity="0.2" d="M0,-25l21.65063509461097,12.5l3.552713678800501e-15,24.999999999999993l-21.650635094610962,12.500000000000007l-21.65063509461097,-12.499999999999986l-2.1316282072803006e-14,-25l21.65063509461095,-12.500000000000016Z" transform="scale(1.4990414117706152)"></path></g><g transform="translate(43.30127018922194,50)"><path fill="#111" fill-opacity="0.2" d="M0,-25l21.65063509461097,12.5l3.552713678800501e-15,24.999999999999993l-21.650635094610962,12.500000000000007l-21.65063509461097,-12.499999999999986l-2.1316282072803006e-14,-25l21.65063509461095,-12.500000000000016Z" transform="scale(1.2345717089229151)"></path></g><g transform="translate(86.60254037844388,50)"><path fill="#111" fill-opacity="0.2" d="M0,-25l21.65063509461097,12.5l3.552713678800501e-15,24.999999999999993l-21.650635094610962,12.500000000000007l-21.65063509461097,-12.499999999999986l-2.1316282072803006e-14,-25l21.65063509461095,-12.500000000000016Z" transform="scale(0.9510832045405762)"></path></g><g transform="translate(129.9038105676658,50)"><path fill="#111" fill-opacity="0.2" d="M0,-25l21.65063509461097,12.5l3.552713678800501e-15,24.999999999999993l-21.650635094610962,12.500000000000007l-21.65063509461097,-12.499999999999986l-2.1316282072803006e-14,-25l21.65063509461095,-12.500000000000016Z" transform="scale(0.6715608170818235)"></path></g><g transform="translate(173.20508075688775,50)"><path fill="#111" fill-opacity="0.2" d="M0,-25l21.65063509461097,12.5l3.552713678800501e-15,24.999999999999993l-21.650635094610962,12.500000000000007l-21.65063509461097,-12.499999999999986l-2.1316282072803006e-14,-25l21.65063509461095,-12.500000000000016Z" transform="scale(0.41866789685422745)"></path></g><g transform="translate(216.5063509461097,50)"><path fill="#111" fill-opacity="0.2" d="M0,-25l21.65063509461097,12.5l3.552713678800501e-15,24.999999999999993l-21.650635094610962,12.500000000000007l-21.65063509461097,-12.499999999999986l-2.1316282072803006e-14,-25l21.65063509461095,-12.500000000000016Z" transform="scale(0.21290870791166694)"></path></g><g transform="translate(259.80762113533166,50)"><path fill="#111" fill-opacity="0.2" d="M0,-25l21.65063509461097,12.5l3.552713678800501e-15,24.999999999999993l-21.650635094610962,12.500000000000007l-21.65063509461097,-12.499999999999986l-2.1316282072803006e-14,-25l21.65063509461095,-12.500000000000016Z" transform="scale(0.07096596615536732)"></path></g><g transform="translate(303.1088913245536,50)"><path fill="#111" fill-opacity="0.2" d="M0,-25l21.65063509461097,12.5l3.552713678800501e-15,24.999999999999993l-21.650635094610962,12.500000000000007l-21.65063509461097,-12.499999999999986l-2.1316282072803006e-14,-25l21.65063509461095,-12.500000000000016Z" transform="scale(0.004348224117692756)"></path></g><g transform="translate(346.41016151377556,50)"><path fill="#111" fill-opacity="0.2" d="M0,-25l21.65063509461097,12.5l3.552713678800501e-15,24.999999999999993l-21.650635094610962,12.500000000000007l-21.65063509461097,-12.499999999999986l-2.1316282072803006e-14,-25l21.65063509461095,-12.500000000000016Z" transform="scale(0.01845677089833253)"></path></g><g transform="translate(389.7114317029975,50)"><path fill="#111" fill-opacity="0.2" d="M0,-25l21.65063509461097,12.5l3.552713678800501e-15,24.999999999999993l-21.650635094610962,12.500000000000007l-21.65063509461097,-12.499999999999986l-2.1316282072803006e-14,-25l21.65063509461095,-12.500000000000016Z" transform="scale(0.11214770192159795)"></path></g><g transform="translate(433.01270189221947,50)"><path fill="#111" fill-opacity="0.2" d="M0,-25l21.65063509461097,12.5l3.552713678800501e-15,24.999999999999993l-21.650635094610962,12.500000000000007l-21.65063509461097,-12.499999999999986l-2.1316282072803006e-14,-25l21.65063509461095,-12.500000000000016Z" transform="scale(0.27782466538995876)"></path></g><g transform="translate(476.3139720814414,50)"><path fill="#111" fill-opacity="0.2" d="M0,-25l21.65063509461097,12.5l3.552713678800501e-15,24.999999999999993l-21.650635094610962,12.500000000000007l-21.65063509461097,-12.499999999999986l-2.1316282072803006e-14,-25l21.65063509461095,-12.500000000000016Z" transform="scale(0.5020547656591154)"></path></g><g transform="translate(519.6152422706633,50)"><path fill="#111" fill-opacity="0.2" d="M0,-25l21.65063509461097,12.5l3.552713678800501e-15,24.999999999999993l-21.650635094610962,12.500000000000007l-21.65063509461097,-12.499999999999986l-2.1316282072803006e-14,-25l21.65063509461095,-12.500000000000016Z" transform="scale(0.7666576868048096)"></path></g><g transform="translate(-21.65063509461097,87.5)"><path fill="#111" fill-opacity="0.2" d="M0,-25l21.65063509461097,12.5l3.552713678800501e-15,24.999999999999993l-21.650635094610962,12.500000000000007l-21.65063509461097,-12.499999999999986l-2.1316282072803006e-14,-25l21.65063509461095,-12.500000000000016Z" transform="scale(1.0501797315083738)"></path></g><g transform="translate(21.65063509461097,87.5)"><path fill="#111" fill-opacity="0.2" d="M0,-25l21.65063509461097,12.5l3.552713678800501e-15,24.999999999999993l-21.650635094610962,12.500000000000007l-21.65063509461097,-12.499999999999986l-2.1316282072803006e-14,-25l21.65063509461095,-12.500000000000016Z" transform="scale(1.3296332619013174)"></path></g><g transform="translate(64.9519052838329,87.5)"><path fill="#111" fill-opacity="0.2" d="M0,-25l21.65063509461097,12.5l3.552713678800501e-15,24.999999999999993l-21.650635094610962,12.500000000000007l-21.65063509461097,-12.499999999999986l-2.1316282072803006e-14,-25l21.65063509461095,-12.500000000000016Z" transform="scale(1.5823605105269367)"></path></g><g transform="translate(108.25317547305484,87.5)"><path fill="#111" fill-opacity="0.2" d="M0,-25l21.65063509461097,12.5l3.552713678800501e-15,24.999999999999993l-21.650635094610962,12.500000000000007l-21.65063509461097,-12.499999999999986l-2.1316282072803006e-14,-25l21.65063509461095,-12.500000000000016Z" transform="scale(1.7878706457922984)"></path></g><g transform="translate(151.55444566227678,87.5)"><path fill="#111" fill-opacity="0.2" d="M0,-25l21.65063509461097,12.5l3.552713678800501e-15,24.999999999999993l-21.650635094610962,12.500000000000007l-21.65063509461097,-12.499999999999986l-2.1316282072803006e-14,-25l21.65063509461095,-12.500000000000016Z" transform="scale(1.9295011447788628)"></path></g><g transform="translate(194.8557158514987,87.5)"><path fill="#111" fill-opacity="0.2" d="M0,-25l21.65063509461097,12.5l3.552713678800501e-15,24.999999999999993l-21.650635094610962,12.500000000000007l-21.65063509461097,-12.499999999999986l-2.1316282072803006e-14,-25l21.65063509461095,-12.500000000000016Z" transform="scale(1.995768771235141)"></path></g><g transform="translate(238.15698604072065,87.5)"><path fill="#111" fill-opacity="0.2" d="M0,-25l21.65063509461097,12.5l3.552713678800501e-15,24.999999999999993l-21.650635094610962,12.500000000000007l-21.65063509461097,-12.499999999999986l-2.1316282072803006e-14,-25l21.65063509461095,-12.500000000000016Z" transform="scale(1.9813006230258758)"></path></g><g transform="translate(281.4582562299426,87.5)"><path fill="#111" fill-opacity="0.2" d="M0,-25l21.65063509461097,12.5l3.552713678800501e-15,24.999999999999993l-21.650635094610962,12.500000000000007l-21.65063509461097,-12.499999999999986l-2.1316282072803006e-14,-25l21.65063509461095,-12.500000000000016Z" transform="scale(1.887269760792643)"></path></g><g transform="translate(324.75952641916456,87.5)"><path fill="#111" fill-opacity="0.2" d="M0,-25l21.65063509461097,12.5l3.552713678800501e-15,24.999999999999993l-21.650635094610962,12.500000000000007l-21.65063509461097,-12.499999999999986l-2.1316282072803006e-14,-25l21.65063509461095,-12.500000000000016Z" transform="scale(1.721300097560409)"></path></g><g transform="translate(368.0607966083865,87.5)"><path fill="#111" fill-opacity="0.2" d="M0,-25l21.65063509461097,12.5l3.552713678800501e-15,24.999999999999993l-21.650635094610962,12.500000000000007l-21.65063509461097,-12.499999999999986l-2.1316282072803006e-14,-25l21.65063509461095,-12.500000000000016Z" transform="scale(1.4968482607301408)"></path></g><g transform="translate(411.36206679760846,87.5)"><path fill="#111" fill-opacity="0.2" d="M0,-25l21.65063509461097,12.5l3.552713678800501e-15,24.999999999999993l-21.650635094610962,12.500000000000007l-21.65063509461097,-12.499999999999986l-2.1316282072803006e-14,-25l21.65063509461095,-12.500000000000016Z" transform="scale(1.2321125443687628)"></path></g><g transform="translate(454.6633369868304,87.5)"><path fill="#111" fill-opacity="0.2" d="M0,-25l21.65063509461097,12.5l3.552713678800501e-15,24.999999999999993l-21.650635094610962,12.500000000000007l-21.65063509461097,-12.499999999999986l-2.1316282072803006e-14,-25l21.65063509461095,-12.500000000000016Z" transform="scale(0.9485574126766995)"></path></g><g transform="translate(497.96460717605237,87.5)"><path fill="#111" fill-opacity="0.2" d="M0,-25l21.65063509461097,12.5l3.552713678800501e-15,24.999999999999993l-21.650635094610962,12.500000000000007l-21.65063509461097,-12.499999999999986l-2.1316282072803006e-14,-25l21.65063509461095,-12.500000000000016Z" transform="scale(0.669173186177008)"></path></g><g transform="translate(541.2658773652743,87.5)"><path fill="#111" fill-opacity="0.2" d="M0,-25l21.65063509461097,12.5l3.552713678800501e-15,24.999999999999993l-21.650635094610962,12.500000000000007l-21.65063509461097,-12.499999999999986l-2.1316282072803006e-14,-25l21.65063509461095,-12.500000000000016Z" transform="scale(0.41661201324727604)"></path></g><g transform="translate(0,125)"><path fill="#111" fill-opacity="0.2" d="M0,-25l21.65063509461097,12.5l3.552713678800501e-15,24.999999999999993l-21.650635094610962,12.500000000000007l-21.65063509461097,-12.499999999999986l-2.1316282072803006e-14,-25l21.65063509461095,-12.500000000000016Z" transform="scale(0.21135126025602935)"></path></g><g transform="translate(43.30127018922194,125)"><path fill="#111" fill-opacity="0.2" d="M0,-25l21.65063509461097,12.5l3.552713678800501e-15,24.999999999999993l-21.650635094610962,12.500000000000007l-21.65063509461097,-12.499999999999986l-2.1316282072803006e-14,-25l21.65063509461095,-12.500000000000016Z" transform="scale(0.0700332304968646)"></path></g><g transform="translate(86.60254037844388,125)"><path fill="#111" fill-opacity="0.2" d="M0,-25l21.65063509461097,12.5l3.552713678800501e-15,24.999999999999993l-21.650635094610962,12.500000000000007l-21.65063509461097,-12.499999999999986l-2.1316282072803006e-14,-25l21.65063509461095,-12.500000000000016Z" transform="scale(0.004115825579466659)"></path></g><g transform="translate(129.9038105676658,125)"><path fill="#111" fill-opacity="0.2" d="M0,-25l21.65063509461097,12.5l3.552713678800501e-15,24.999999999999993l-21.650635094610962,12.500000000000007l-21.65063509461097,-12.499999999999986l-2.1316282072803006e-14,-25l21.65063509461095,-12.500000000000016Z" transform="scale(0.018943552083763415)"></path></g><g transform="translate(173.20508075688775,125)"><path fill="#111" fill-opacity="0.2" d="M0,-25l21.65063509461097,12.5l3.552713678800501e-15,24.999999999999993l-21.650635094610962,12.500000000000007l-21.65063509461097,-12.499999999999986l-2.1316282072803006e-14,-25l21.65063509461095,-12.500000000000016Z" transform="scale(0.11331419517792096)"></path></g><g transform="translate(216.5063509461097,125)"><path fill="#111" fill-opacity="0.2" d="M0,-25l21.65063509461097,12.5l3.552713678800501e-15,24.999999999999993l-21.650635094610962,12.500000000000007l-21.65063509461097,-12.499999999999986l-2.1316282072803006e-14,-25l21.65063509461095,-12.500000000000016Z" transform="scale(0.2795762927996759)"></path></g><g transform="translate(259.80762113533166,125)"><path fill="#111" fill-opacity="0.2" d="M0,-25l21.65063509461097,12.5l3.552713678800501e-15,24.999999999999993l-21.650635094610962,12.500000000000007l-21.65063509461097,-12.499999999999986l-2.1316282072803006e-14,-25l21.65063509461095,-12.500000000000016Z" transform="scale(0.5042495073076293)"></path></g><g transform="translate(303.1088913245536,125)"><path fill="#111" fill-opacity="0.2" d="M0,-25l21.65063509461097,12.5l3.552713678800501e-15,24.999999999999993l-21.650635094610962,12.500000000000007l-21.65063509461097,-12.499999999999986l-2.1316282072803006e-14,-25l21.65063509461095,-12.500000000000016Z" transform="scale(0.7691175955900407)"></path></g><g transform="translate(346.41016151377556,125)"><path fill="#111" fill-opacity="0.2" d="M0,-25l21.65063509461097,12.5l3.552713678800501e-15,24.999999999999993l-21.650635094610962,12.500000000000007l-21.65063509461097,-12.499999999999986l-2.1316282072803006e-14,-25l21.65063509461095,-12.500000000000016Z" transform="scale(1.0527053608849821)"></path></g><g transform="translate(389.7114317029975,125)"><path fill="#111" fill-opacity="0.2" d="M0,-25l21.65063509461097,12.5l3.552713678800501e-15,24.999999999999993l-21.650635094610962,12.500000000000007l-21.65063509461097,-12.499999999999986l-2.1316282072803006e-14,-25l21.65063509461095,-12.500000000000016Z" transform="scale(1.3320198367747924)"></path></g><g transform="translate(433.01270189221947,125)"><path fill="#111" fill-opacity="0.2" d="M0,-25l21.65063509461097,12.5l3.552713678800501e-15,24.999999999999993l-21.650635094610962,12.500000000000007l-21.65063509461097,-12.499999999999986l-2.1316282072803006e-14,-25l21.65063509461095,-12.500000000000016Z" transform="scale(1.5844145301802701)"></path></g><g transform="translate(476.3139720814414,125)"><path fill="#111" fill-opacity="0.2" d="M0,-25l21.65063509461097,12.5l3.552713678800501e-15,24.999999999999993l-21.650635094610962,12.500000000000007l-21.65063509461097,-12.499999999999986l-2.1316282072803006e-14,-25l21.65063509461095,-12.500000000000016Z" transform="scale(1.7894255726992303)"></path></g><g transform="translate(519.6152422706633,125)"><path fill="#111" fill-opacity="0.2" d="M0,-25l21.65063509461097,12.5l3.552713678800501e-15,24.999999999999993l-21.650635094610962,12.500000000000007l-21.65063509461097,-12.499999999999986l-2.1316282072803006e-14,-25l21.65063509461095,-12.500000000000016Z" transform="scale(1.9304309072729522)"></path></g><g transform="translate(-21.65063509461097,162.5)"><path fill="#111" fill-opacity="0.2" d="M0,-25l21.65063509461097,12.5l3.552713678800501e-15,24.999999999999993l-21.650635094610962,12.500000000000007l-21.65063509461097,-12.499999999999986l-2.1316282072803006e-14,-25l21.65063509461095,-12.500000000000016Z" transform="scale(1.995997985253958)"></path></g><g transform="translate(21.65063509461097,162.5)"><path fill="#111" fill-opacity="0.2" d="M0,-25l21.65063509461097,12.5l3.552713678800501e-15,24.999999999999993l-21.650635094610962,12.500000000000007l-21.65063509461097,-12.499999999999986l-2.1316282072803006e-14,-25l21.65063509461095,-12.500000000000016Z" transform="scale(1.9808107041631735)"></path></g><g transform="translate(64.9519052838329,162.5)"><path fill="#111" fill-opacity="0.2" d="M0,-25l21.65063509461097,12.5l3.552713678800501e-15,24.999999999999993l-21.650635094610962,12.500000000000007l-21.65063509461097,-12.499999999999986l-2.1316282072803006e-14,-25l21.65063509461095,-12.500000000000016Z" transform="scale(1.8861004311004144)"></path></g><g transform="translate(108.25317547305484,162.5)"><path fill="#111" fill-opacity="0.2" d="M0,-25l21.65063509461097,12.5l3.552713678800501e-15,24.999999999999993l-21.650635094610962,12.500000000000007l-21.65063509461097,-12.499999999999986l-2.1316282072803006e-14,-25l21.65063509461095,-12.500000000000016Z" transform="scale(1.7195461649310757)"></path></g><g transform="translate(151.55444566227678,162.5)"><path fill="#111" fill-opacity="0.2" d="M0,-25l21.65063509461097,12.5l3.552713678800501e-15,24.999999999999993l-21.650635094610962,12.500000000000007l-21.65063509461097,-12.499999999999986l-2.1316282072803006e-14,-25l21.65063509461095,-12.500000000000016Z" transform="scale(1.4946519319828298)"></path></g><g transform="translate(194.8557158514987,162.5)"><path fill="#111" fill-opacity="0.2" d="M0,-25l21.65063509461097,12.5l3.552713678800501e-15,24.999999999999993l-21.650635094610962,12.500000000000007l-21.65063509461097,-12.499999999999986l-2.1316282072803006e-14,-25l21.65063509461095,-12.500000000000016Z" transform="scale(1.229651895285677)"></path></g><g transform="translate(238.15698604072065,162.5)"><path fill="#111" fill-opacity="0.2" d="M0,-25l21.65063509461097,12.5l3.552713678800501e-15,24.999999999999993l-21.650635094610962,12.500000000000007l-21.65063509461097,-12.499999999999986l-2.1316282072803006e-14,-25l21.65063509461095,-12.500000000000016Z" transform="scale(0.9460319498256715)"></path></g><g transform="translate(281.4582562299426,162.5)"><path fill="#111" fill-opacity="0.2" d="M0,-25l21.65063509461097,12.5l3.552713678800501e-15,24.999999999999993l-21.650635094610962,12.500000000000007l-21.65063509461097,-12.499999999999986l-2.1316282072803006e-14,-25l21.65063509461095,-12.500000000000016Z" transform="scale(0.6667876711508463)"></path></g><g transform="translate(324.75952641916456,162.5)"><path fill="#111" fill-opacity="0.2" d="M0,-25l21.65063509461097,12.5l3.552713678800501e-15,24.999999999999993l-21.650635094610962,12.500000000000007l-21.65063509461097,-12.499999999999986l-2.1316282072803006e-14,-25l21.65063509461095,-12.500000000000016Z" transform="scale(0.41455986083179996)"></path></g><g transform="translate(368.0607966083865,162.5)"><path fill="#111" fill-opacity="0.2" d="M0,-25l21.65063509461097,12.5l3.552713678800501e-15,24.999999999999993l-21.650635094610962,12.500000000000007l-21.65063509461097,-12.499999999999986l-2.1316282072803006e-14,-25l21.65063509461095,-12.500000000000016Z" transform="scale(0.2097988565840243)"></path></g><g transform="translate(411.36206679760846,162.5)"><path fill="#111" fill-opacity="0.2" d="M0,-25l21.65063509461097,12.5l3.552713678800501e-15,24.999999999999993l-21.650635094610962,12.500000000000007l-21.65063509461097,-12.499999999999986l-2.1316282072803006e-14,-25l21.65063509461095,-12.500000000000016Z" transform="scale(0.06910644265381727)"></path></g><g transform="translate(454.6633369868304,162.5)"><path fill="#111" fill-opacity="0.2" d="M0,-25l21.65063509461097,12.5l3.552713678800501e-15,24.999999999999993l-21.650635094610962,12.500000000000007l-21.65063509461097,-12.499999999999986l-2.1316282072803006e-14,-25l21.65063509461095,-12.500000000000016Z" transform="scale(0.0038897964465558488)"></path></g><g transform="translate(497.96460717605237,162.5)"><path fill="#111" fill-opacity="0.2" d="M0,-25l21.65063509461097,12.5l3.552713678800501e-15,24.999999999999993l-21.650635094610962,12.500000000000007l-21.65063509461097,-12.499999999999986l-2.1316282072803006e-14,-25l21.65063509461095,-12.500000000000016Z" transform="scale(0.019436607840389475)"></path></g><g transform="translate(541.2658773652743,162.5)"><path fill="#111" fill-opacity="0.2" d="M0,-25l21.65063509461097,12.5l3.552713678800501e-15,24.999999999999993l-21.650635094610962,12.500000000000007l-21.65063509461097,-12.499999999999986l-2.1316282072803006e-14,-25l21.65063509461095,-12.500000000000016Z" transform="scale(0.1144863594363772)"></path></g><g transform="translate(0,200)"><path fill="#111" fill-opacity="0.2" d="M0,-25l21.65063509461097,12.5l3.552713678800501e-15,24.999999999999993l-21.650635094610962,12.500000000000007l-21.65063509461097,-12.499999999999986l-2.1316282072803006e-14,-25l21.65063509461095,-12.500000000000016Z" transform="scale(0.2813325278442038)"></path></g><g transform="translate(43.30127018922194,200)"><path fill="#111" fill-opacity="0.2" d="M0,-25l21.65063509461097,12.5l3.552713678800501e-15,24.999999999999993l-21.650635094610962,12.500000000000007l-21.65063509461097,-12.499999999999986l-2.1316282072803006e-14,-25l21.65063509461095,-12.500000000000016Z" transform="scale(0.5064474196419578)"></path></g><g transform="translate(86.60254037844388,200)"><path fill="#111" fill-opacity="0.2" d="M0,-25l21.65063509461097,12.5l3.552713678800501e-15,24.999999999999993l-21.650635094610962,12.500000000000007l-21.65063509461097,-12.499999999999986l-2.1316282072803006e-14,-25l21.65063509461095,-12.500000000000016Z" transform="scale(0.7715789810365713)"></path></g><g transform="translate(129.9038105676658,200)"><path fill="#111" fill-opacity="0.2" d="M0,-25l21.65063509461097,12.5l3.552713678800501e-15,24.999999999999993l-21.650635094610962,12.500000000000007l-21.65063509461097,-12.499999999999986l-2.1316282072803006e-14,-25l21.65063509461095,-12.500000000000016Z" transform="scale(1.0552306531723843)"></path></g><g transform="translate(173.20508075688775,200)"><path fill="#111" fill-opacity="0.2" d="M0,-25l21.65063509461097,12.5l3.552713678800501e-15,24.999999999999993l-21.650635094610962,12.500000000000007l-21.65063509461097,-12.499999999999986l-2.1316282072803006e-14,-25l21.65063509461095,-12.500000000000016Z" transform="scale(1.3344042881393618)"></path></g><g transform="translate(216.5063509461097,200)"><path fill="#111" fill-opacity="0.2" d="M0,-25l21.65063509461097,12.5l3.552713678800501e-15,24.999999999999993l-21.650635094610962,12.500000000000007l-21.65063509461097,-12.499999999999986l-2.1316282072803006e-14,-25l21.65063509461095,-12.500000000000016Z" transform="scale(1.5864648120766374)"></path></g><g transform="translate(259.80762113533166,200)"><path fill="#111" fill-opacity="0.2" d="M0,-25l21.65063509461097,12.5l3.552713678800501e-15,24.999999999999993l-21.650635094610962,12.500000000000007l-21.65063509461097,-12.499999999999986l-2.1316282072803006e-14,-25l21.65063509461095,-12.500000000000016Z" transform="scale(1.7909754506541178)"></path></g><g transform="translate(303.1088913245536,200)"><path fill="#111" fill-opacity="0.2" d="M0,-25l21.65063509461097,12.5l3.552713678800501e-15,24.999999999999993l-21.650635094610962,12.500000000000007l-21.65063509461097,-12.499999999999986l-2.1316282072803006e-14,-25l21.65063509461095,-12.500000000000016Z" transform="scale(1.9313547189830862)"></path></g><g transform="translate(346.41016151377556,200)"><path fill="#111" fill-opacity="0.2" d="M0,-25l21.65063509461097,12.5l3.552713678800501e-15,24.999999999999993l-21.650635094610962,12.500000000000007l-21.65063509461097,-12.499999999999986l-2.1316282072803006e-14,-25l21.65063509461095,-12.500000000000016Z" transform="scale(1.9962208291395573)"></path></g><g transform="translate(389.7114317029975,200)"><path fill="#111" fill-opacity="0.2" d="M0,-25l21.65063509461097,12.5l3.552713678800501e-15,24.999999999999993l-21.650635094610962,12.500000000000007l-21.65063509461097,-12.499999999999986l-2.1316282072803006e-14,-25l21.65063509461095,-12.500000000000016Z" transform="scale(1.9803145123009864)"></path></g><g transform="translate(433.01270189221947,200)"><path fill="#111" fill-opacity="0.2" d="M0,-25l21.65063509461097,12.5l3.552713678800501e-15,24.999999999999993l-21.650635094610962,12.500000000000007l-21.65063509461097,-12.499999999999986l-2.1316282072803006e-14,-25l21.65063509461095,-12.500000000000016Z" transform="scale(1.8849254341499435)"></path></g><g transform="translate(476.3139720814414,200)"><path fill="#111" fill-opacity="0.2" d="M0,-25l21.65063509461097,12.5l3.552713678800501e-15,24.999999999999993l-21.650635094610962,12.500000000000007l-21.65063509461097,-12.499999999999986l-2.1316282072803006e-14,-25l21.65063509461095,-12.500000000000016Z" transform="scale(1.717787630279454)"></path></g><g transform="translate(519.6152422706633,200)"><path fill="#111" fill-opacity="0.2" d="M0,-25l21.65063509461097,12.5l3.552713678800501e-15,24.999999999999993l-21.650635094610962,12.500000000000007l-21.65063509461097,-12.499999999999986l-2.1316282072803006e-14,-25l21.65063509461095,-12.500000000000016Z" transform="scale(1.4924524395757977)"></path></g><g transform="translate(-21.65063509461097,237.5)"><path fill="#111" fill-opacity="0.2" d="M0,-25l21.65063509461097,12.5l3.552713678800501e-15,24.999999999999993l-21.650635094610962,12.500000000000007l-21.65063509461097,-12.499999999999986l-2.1316282072803006e-14,-25l21.65063509461095,-12.500000000000016Z" transform="scale(1.2271897774112994)"></path></g><g transform="translate(21.65063509461097,237.5)"><path fill="#111" fill-opacity="0.2" d="M0,-25l21.65063509461097,12.5l3.552713678800501e-15,24.999999999999993l-21.650635094610962,12.500000000000007l-21.65063509461097,-12.499999999999986l-2.1316282072803006e-14,-25l21.65063509461095,-12.500000000000016Z" transform="scale(0.9435068321396681)"></path></g><g transform="translate(64.9519052838329,237.5)"><path fill="#111" fill-opacity="0.2" d="M0,-25l21.65063509461097,12.5l3.552713678800501e-15,24.999999999999993l-21.650635094610962,12.500000000000007l-21.65063509461097,-12.499999999999986l-2.1316282072803006e-14,-25l21.65063509461095,-12.500000000000016Z" transform="scale(0.6644042872604461)"></path></g><g transform="translate(108.25317547305484,237.5)"><path fill="#111" fill-opacity="0.2" d="M0,-25l21.65063509461097,12.5l3.552713678800501e-15,24.999999999999993l-21.650635094610962,12.500000000000007l-21.65063509461097,-12.499999999999986l-2.1316282072803006e-14,-25l21.65063509461095,-12.500000000000016Z" transform="scale(0.41251145273280865)"></path></g><g transform="translate(151.55444566227678,237.5)"><path fill="#111" fill-opacity="0.2" d="M0,-25l21.65063509461097,12.5l3.552713678800501e-15,24.999999999999993l-21.650635094610962,12.500000000000007l-21.65063509461097,-12.499999999999986l-2.1316282072803006e-14,-25l21.65063509461095,-12.500000000000016Z" transform="scale(0.2082515068244042)"></path></g><g transform="translate(194.8557158514987,237.5)"><path fill="#111" fill-opacity="0.2" d="M0,-25l21.65063509461097,12.5l3.552713678800501e-15,24.999999999999993l-21.650635094610962,12.500000000000007l-21.65063509461097,-12.499999999999986l-2.1316282072803006e-14,-25l21.65063509461095,-12.500000000000016Z" transform="scale(0.06818560855370903)"></path></g><g transform="translate(238.15698604072065,237.5)"><path fill="#111" fill-opacity="0.2" d="M0,-25l21.65063509461097,12.5l3.552713678800501e-15,24.999999999999993l-21.650635094610962,12.500000000000007l-21.65063509461097,-12.499999999999986l-2.1316282072803006e-14,-25l21.65063509461095,-12.500000000000016Z" transform="scale(0.0036701381645813935)"></path></g><g transform="translate(281.4582562299426,237.5)"><path fill="#111" fill-opacity="0.2" d="M0,-25l21.65063509461097,12.5l3.552713678800501e-15,24.999999999999993l-21.650635094610962,12.500000000000007l-21.65063509461097,-12.499999999999986l-2.1316282072803006e-14,-25l21.65063509461095,-12.500000000000016Z" transform="scale(0.01993593501475799)"></path></g><g transform="translate(324.75952641916456,237.5)"><path fill="#111" fill-opacity="0.2" d="M0,-25l21.65063509461097,12.5l3.552713678800501e-15,24.999999999999993l-21.650635094610962,12.500000000000007l-21.65063509461097,-12.499999999999986l-2.1316282072803006e-14,-25l21.65063509461095,-12.500000000000016Z" transform="scale(0.11566418720012239)"></path></g><g transform="translate(368.0607966083865,237.5)"><path fill="#111" fill-opacity="0.2" d="M0,-25l21.65063509461097,12.5l3.552713678800501e-15,24.999999999999993l-21.650635094610962,12.500000000000007l-21.65063509461097,-12.499999999999986l-2.1316282072803006e-14,-25l21.65063509461095,-12.500000000000016Z" transform="scale(0.28309335929113943)"></path></g><g transform="translate(411.36206679760846,237.5)"><path fill="#111" fill-opacity="0.2" d="M0,-25l21.65063509461097,12.5l3.552713678800501e-15,24.999999999999993l-21.650635094610962,12.500000000000007l-21.65063509461097,-12.499999999999986l-2.1316282072803006e-14,-25l21.65063509461095,-12.500000000000016Z" transform="scale(0.5086484886048503)"></path></g><g transform="translate(454.6633369868304,237.5)"><path fill="#111" fill-opacity="0.2" d="M0,-25l21.65063509461097,12.5l3.552713678800501e-15,24.999999999999993l-21.650635094610962,12.500000000000007l-21.65063509461097,-12.499999999999986l-2.1316282072803006e-14,-25l21.65063509461095,-12.500000000000016Z" transform="scale(0.7740418274020381)"></path></g><g transform="translate(497.96460717605237,237.5)"><path fill="#111" fill-opacity="0.2" d="M0,-25l21.65063509461097,12.5l3.552713678800501e-15,24.999999999999993l-21.650635094610962,12.500000000000007l-21.65063509461097,-12.499999999999986l-2.1316282072803006e-14,-25l21.65063509461095,-12.500000000000016Z" transform="scale(1.0577555922194952)"></path></g><g transform="translate(541.2658773652743,237.5)"><path fill="#111" fill-opacity="0.2" d="M0,-25l21.65063509461097,12.5l3.552713678800501e-15,24.999999999999993l-21.650635094610962,12.500000000000007l-21.65063509461097,-12.499999999999986l-2.1316282072803006e-14,-25l21.65063509461095,-12.500000000000016Z" transform="scale(1.3367866007447247)"></path></g><g transform="translate(0,275)"><path fill="#111" fill-opacity="0.2" d="M0,-25l21.65063509461097,12.5l3.552713678800501e-15,24.999999999999993l-21.650635094610962,12.500000000000007l-21.65063509461097,-12.499999999999986l-2.1316282072803006e-14,-25l21.65063509461095,-12.500000000000016Z" transform="scale(1.5885113431029838)"></path></g><g transform="translate(43.30127018922194,275)"><path fill="#111" fill-opacity="0.2" d="M0,-25l21.65063509461097,12.5l3.552713678800501e-15,24.999999999999993l-21.650635094610962,12.500000000000007l-21.65063509461097,-12.499999999999986l-2.1316282072803006e-14,-25l21.65063509461095,-12.500000000000016Z" transform="scale(1.7925202697443616)"></path></g><g transform="translate(86.60254037844388,275)"><path fill="#111" fill-opacity="0.2" d="M0,-25l21.65063509461097,12.5l3.552713678800501e-15,24.999999999999993l-21.650635094610962,12.500000000000007l-21.65063509461097,-12.499999999999986l-2.1316282072803006e-14,-25l21.65063509461095,-12.500000000000016Z" transform="scale(1.932272574000816)"></path></g><g transform="translate(129.9038105676658,275)"><path fill="#111" fill-opacity="0.2" d="M0,-25l21.65063509461097,12.5l3.552713678800501e-15,24.999999999999993l-21.650635094610962,12.500000000000007l-21.65063509461097,-12.499999999999986l-2.1316282072803006e-14,-25l21.65063509461095,-12.500000000000016Z" transform="scale(1.99643730146669)"></path></g><g transform="translate(173.20508075688775,275)"><path fill="#111" fill-opacity="0.2" d="M0,-25l21.65063509461097,12.5l3.552713678800501e-15,24.999999999999993l-21.650635094610962,12.500000000000007l-21.65063509461097,-12.499999999999986l-2.1316282072803006e-14,-25l21.65063509461095,-12.500000000000016Z" transform="scale(1.979812050612824)"></path></g><g transform="translate(216.5063509461097,275)"><path fill="#111" fill-opacity="0.2" d="M0,-25l21.65063509461097,12.5l3.552713678800501e-15,24.999999999999993l-21.650635094610962,12.500000000000007l-21.65063509461097,-12.499999999999986l-2.1316282072803006e-14,-25l21.65063509461095,-12.500000000000016Z" transform="scale(1.883744777456191)"></path></g><g transform="translate(259.80762113533166,275)"><path fill="#111" fill-opacity="0.2" d="M0,-25l21.65063509461097,12.5l3.552713678800501e-15,24.999999999999993l-21.650635094610962,12.500000000000007l-21.65063509461097,-12.499999999999986l-2.1316282072803006e-14,-25l21.65063509461095,-12.500000000000016Z" transform="scale(1.716024504852653)"></path></g><g transform="translate(303.1088913245536,275)"><path fill="#111" fill-opacity="0.2" d="M0,-25l21.65063509461097,12.5l3.552713678800501e-15,24.999999999999993l-21.650635094610962,12.500000000000007l-21.65063509461097,-12.499999999999986l-2.1316282072803006e-14,-25l21.65063509461095,-12.500000000000016Z" transform="scale(1.4902497975764093)"></path></g><g transform="translate(346.41016151377556,275)"><path fill="#111" fill-opacity="0.2" d="M0,-25l21.65063509461097,12.5l3.552713678800501e-15,24.999999999999993l-21.650635094610962,12.500000000000007l-21.65063509461097,-12.499999999999986l-2.1316282072803006e-14,-25l21.65063509461095,-12.500000000000016Z" transform="scale(1.2247262064926625)"></path></g><g transform="translate(389.7114317029975,275)"><path fill="#111" fill-opacity="0.2" d="M0,-25l21.65063509461097,12.5l3.552713678800501e-15,24.999999999999993l-21.650635094610962,12.500000000000007l-21.65063509461097,-12.499999999999986l-2.1316282072803006e-14,-25l21.65063509461095,-12.500000000000016Z" transform="scale(0.9409820757686508)"></path></g><g transform="translate(433.01270189221947,275)"><path fill="#111" fill-opacity="0.2" d="M0,-25l21.65063509461097,12.5l3.552713678800501e-15,24.999999999999993l-21.650635094610962,12.500000000000007l-21.65063509461097,-12.499999999999986l-2.1316282072803006e-14,-25l21.65063509461095,-12.500000000000016Z" transform="scale(0.6620230497492783)"></path></g><g transform="translate(476.3139720814414,275)"><path fill="#111" fill-opacity="0.2" d="M0,-25l21.65063509461097,12.5l3.552713678800501e-15,24.999999999999993l-21.650635094610962,12.500000000000007l-21.65063509461097,-12.499999999999986l-2.1316282072803006e-14,-25l21.65063509461095,-12.500000000000016Z" transform="scale(0.4104668020513679)"></path></g><g transform="translate(519.6152422706633,275)"><path fill="#111" fill-opacity="0.2" d="M0,-25l21.65063509461097,12.5l3.552713678800501e-15,24.999999999999993l-21.650635094610962,12.500000000000007l-21.65063509461097,-12.499999999999986l-2.1316282072803006e-14,-25l21.65063509461095,-12.500000000000016Z" transform="scale(0.20670922087359667)"></path></g><g transform="translate(-21.65063509461097,312.5)"><path fill="#111" fill-opacity="0.2" d="M0,-25l21.65063509461097,12.5l3.552713678800501e-15,24.999999999999993l-21.650635094610962,12.500000000000007l-21.65063509461097,-12.499999999999986l-2.1316282072803006e-14,-25l21.65063509461095,-12.500000000000016Z" transform="scale(0.0672707340859442)"></path></g><g transform="translate(21.65063509461097,312.5)"><path fill="#111" fill-opacity="0.2" d="M0,-25l21.65063509461097,12.5l3.552713678800501e-15,24.999999999999993l-21.650635094610962,12.500000000000007l-21.65063509461097,-12.499999999999986l-2.1316282072803006e-14,-25l21.65063509461095,-12.500000000000016Z" transform="scale(0.003456852138418065)"></path></g><g transform="translate(64.9519052838329,312.5)"><path fill="#111" fill-opacity="0.2" d="M0,-25l21.65063509461097,12.5l3.552713678800501e-15,24.999999999999993l-21.650635094610962,12.500000000000007l-21.65063509461097,-12.499999999999986l-2.1316282072803006e-14,-25l21.65063509461095,-12.500000000000016Z" transform="scale(0.020441530413309983)"></path></g><g transform="translate(108.25317547305484,312.5)"><path fill="#111" fill-opacity="0.2" d="M0,-25l21.65063509461097,12.5l3.552713678800501e-15,24.999999999999993l-21.650635094610962,12.500000000000007l-21.65063509461097,-12.499999999999986l-2.1316282072803006e-14,-25l21.65063509461095,-12.500000000000016Z" transform="scale(0.11684767093609227)"></path></g><g transform="translate(151.55444566227678,312.5)"><path fill="#111" fill-opacity="0.2" d="M0,-25l21.65063509461097,12.5l3.552713678800501e-15,24.999999999999993l-21.650635094610962,12.500000000000007l-21.65063509461097,-12.499999999999986l-2.1316282072803006e-14,-25l21.65063509461095,-12.500000000000016Z" transform="scale(0.2848587758786869)"></path></g><g transform="translate(194.8557158514987,312.5)"><path fill="#111" fill-opacity="0.2" d="M0,-25l21.65063509461097,12.5l3.552713678800501e-15,24.999999999999993l-21.650635094610962,12.500000000000007l-21.65063509461097,-12.499999999999986l-2.1316282072803006e-14,-25l21.65063509461095,-12.500000000000016Z" transform="scale(0.5108527001188632)"></path></g><g transform="translate(238.15698604072065,312.5)"><path fill="#111" fill-opacity="0.2" d="M0,-25l21.65063509461097,12.5l3.552713678800501e-15,24.999999999999993l-21.650635094610962,12.500000000000007l-21.65063509461097,-12.499999999999986l-2.1316282072803006e-14,-25l21.65063509461095,-12.500000000000016Z" transform="scale(0.7765061189347504)"></path></g><g transform="translate(281.4582562299426,312.5)"><path fill="#111" fill-opacity="0.2" d="M0,-25l21.65063509461097,12.5l3.552713678800501e-15,24.999999999999993l-21.650635094610962,12.500000000000007l-21.65063509461097,-12.499999999999986l-2.1316282072803006e-14,-25l21.65063509461095,-12.500000000000016Z" transform="scale(1.0602801618774924)"></path></g><g transform="translate(324.75952641916456,312.5)"><path fill="#111" fill-opacity="0.2" d="M0,-25l21.65063509461097,12.5l3.552713678800501e-15,24.999999999999993l-21.650635094610962,12.500000000000007l-21.65063509461097,-12.499999999999986l-2.1316282072803006e-14,-25l21.65063509461095,-12.500000000000016Z" transform="scale(1.339166759354248)"></path></g><g transform="translate(368.0607966083865,312.5)"><path fill="#111" fill-opacity="0.2" d="M0,-25l21.65063509461097,12.5l3.552713678800501e-15,24.999999999999993l-21.650635094610962,12.500000000000007l-21.65063509461097,-12.499999999999986l-2.1316282072803006e-14,-25l21.65063509461095,-12.500000000000016Z" transform="scale(1.5905541101702598)"></path></g><g transform="translate(411.36206679760846,312.5)"><path fill="#111" fill-opacity="0.2" d="M0,-25l21.65063509461097,12.5l3.552713678800501e-15,24.999999999999993l-21.650635094610962,12.500000000000007l-21.65063509461097,-12.499999999999986l-2.1316282072803006e-14,-25l21.65063509461095,-12.500000000000016Z" transform="scale(1.7940600200897214)"></path></g><g transform="translate(454.6633369868304,312.5)"><path fill="#111" fill-opacity="0.2" d="M0,-25l21.65063509461097,12.5l3.552713678800501e-15,24.999999999999993l-21.650635094610962,12.500000000000007l-21.65063509461097,-12.499999999999986l-2.1316282072803006e-14,-25l21.65063509461095,-12.500000000000016Z" transform="scale(1.9331844664557916)"></path></g><g transform="translate(497.96460717605237,312.5)"><path fill="#111" fill-opacity="0.2" d="M0,-25l21.65063509461097,12.5l3.552713678800501e-15,24.999999999999993l-21.650635094610962,12.500000000000007l-21.65063509461097,-12.499999999999986l-2.1316282072803006e-14,-25l21.65063509461095,-12.500000000000016Z" transform="scale(1.9966474008508561)"></path></g><g transform="translate(541.2658773652743,312.5)"><path fill="#111" fill-opacity="0.2" d="M0,-25l21.65063509461097,12.5l3.552713678800501e-15,24.999999999999993l-21.650635094610962,12.500000000000007l-21.65063509461097,-12.499999999999986l-2.1316282072803006e-14,-25l21.65063509461095,-12.500000000000016Z" transform="scale(1.979303322312296)"></path></g><g transform="translate(0,350)"><path fill="#111" fill-opacity="0.2" d="M0,-25l21.65063509461097,12.5l3.552713678800501e-15,24.999999999999993l-21.650635094610962,12.500000000000007l-21.65063509461097,-12.499999999999986l-2.1316282072803006e-14,-25l21.65063509461095,-12.500000000000016Z" transform="scale(1.8825584685703205)"></path></g><g transform="translate(43.30127018922194,350)"><path fill="#111" fill-opacity="0.2" d="M0,-25l21.65063509461097,12.5l3.552713678800501e-15,24.999999999999993l-21.650635094610962,12.500000000000007l-21.65063509461097,-12.499999999999986l-2.1316282072803006e-14,-25l21.65063509461095,-12.500000000000016Z" transform="scale(1.7142567999271494)"></path></g><g transform="translate(86.60254037844388,350)"><path fill="#111" fill-opacity="0.2" d="M0,-25l21.65063509461097,12.5l3.552713678800501e-15,24.999999999999993l-21.650635094610962,12.500000000000007l-21.65063509461097,-12.499999999999986l-2.1316282072803006e-14,-25l21.65063509461095,-12.500000000000016Z" transform="scale(1.4880440200721572)"></path></g><g transform="translate(129.9038105676658,350)"><path fill="#111" fill-opacity="0.2" d="M0,-25l21.65063509461097,12.5l3.552713678800501e-15,24.999999999999993l-21.650635094610962,12.500000000000007l-21.65063509461097,-12.499999999999986l-2.1316282072803006e-14,-25l21.65063509461095,-12.500000000000016Z" transform="scale(1.222261198286112)"></path></g><g transform="translate(173.20508075688775,350)"><path fill="#111" fill-opacity="0.2" d="M0,-25l21.65063509461097,12.5l3.552713678800501e-15,24.999999999999993l-21.650635094610962,12.500000000000007l-21.65063509461097,-12.499999999999986l-2.1316282072803006e-14,-25l21.65063509461095,-12.500000000000016Z" transform="scale(0.9384576968602912)"></path></g><g transform="translate(216.5063509461097,350)"><path fill="#111" fill-opacity="0.2" d="M0,-25l21.65063509461097,12.5l3.552713678800501e-15,24.999999999999993l-21.650635094610962,12.500000000000007l-21.65063509461097,-12.499999999999986l-2.1316282072803006e-14,-25l21.65063509461095,-12.500000000000016Z" transform="scale(0.6596439738471062)"></path></g><g transform="translate(259.80762113533166,350)"><path fill="#111" fill-opacity="0.2" d="M0,-25l21.65063509461097,12.5l3.552713678800501e-15,24.999999999999993l-21.650635094610962,12.500000000000007l-21.65063509461097,-12.499999999999986l-2.1316282072803006e-14,-25l21.65063509461095,-12.500000000000016Z" transform="scale(0.40842592186451243)"></path></g><g transform="translate(303.1088913245536,350)"><path fill="#111" fill-opacity="0.2" d="M0,-25l21.65063509461097,12.5l3.552713678800501e-15,24.999999999999993l-21.650635094610962,12.500000000000007l-21.65063509461097,-12.499999999999986l-2.1316282072803006e-14,-25l21.65063509461095,-12.500000000000016Z" transform="scale(0.2051720085956492)"></path></g><g transform="translate(346.41016151377556,350)"><path fill="#111" fill-opacity="0.2" d="M0,-25l21.65063509461097,12.5l3.552713678800501e-15,24.999999999999993l-21.650635094610962,12.500000000000007l-21.65063509461097,-12.499999999999986l-2.1316282072803006e-14,-25l21.65063509461095,-12.500000000000016Z" transform="scale(0.06636182510181443)"></path></g><g transform="translate(389.7114317029975,350)"><path fill="#111" fill-opacity="0.2" d="M0,-25l21.65063509461097,12.5l3.552713678800501e-15,24.999999999999993l-21.650635094610962,12.500000000000007l-21.65063509461097,-12.499999999999986l-2.1316282072803006e-14,-25l21.65063509461095,-12.500000000000016Z" transform="scale(0.0032499397321846812)"></path></g><g transform="translate(433.01270189221947,350)"><path fill="#111" fill-opacity="0.2" d="M0,-25l21.65063509461097,12.5l3.552713678800501e-15,24.999999999999993l-21.650635094610962,12.500000000000007l-21.65063509461097,-12.499999999999986l-2.1316282072803006e-14,-25l21.65063509461095,-12.500000000000016Z" transform="scale(0.02095339080239189)"></path></g><g transform="translate(476.3139720814414,350)"><path fill="#111" fill-opacity="0.2" d="M0,-25l21.65063509461097,12.5l3.552713678800501e-15,24.999999999999993l-21.650635094610962,12.500000000000007l-21.65063509461097,-12.499999999999986l-2.1316282072803006e-14,-25l21.65063509461095,-12.500000000000016Z" transform="scale(0.11803680307503894)"></path></g><g transform="translate(519.6152422706633,350)"><path fill="#111" fill-opacity="0.2" d="M0,-25l21.65063509461097,12.5l3.552713678800501e-15,24.999999999999993l-21.650635094610962,12.500000000000007l-21.65063509461097,-12.499999999999986l-2.1316282072803006e-14,-25l21.65063509461095,-12.500000000000016Z" transform="scale(0.28662876631571044)"></path></g><g transform="translate(-21.65063509461097,387.5)"><path fill="#111" fill-opacity="0.2" d="M0,-25l21.65063509461097,12.5l3.552713678800501e-15,24.999999999999993l-21.650635094610962,12.500000000000007l-21.65063509461097,-12.499999999999986l-2.1316282072803006e-14,-25l21.65063509461095,-12.500000000000016Z" transform="scale(0.513060040086454)"></path></g><g transform="translate(21.65063509461097,387.5)"><path fill="#111" fill-opacity="0.2" d="M0,-25l21.65063509461097,12.5l3.552713678800501e-15,24.999999999999993l-21.650635094610962,12.500000000000007l-21.65063509461097,-12.499999999999986l-2.1316282072803006e-14,-25l21.65063509461095,-12.500000000000016Z" transform="scale(0.77897183987376)"></path></g><g transform="translate(64.9519052838329,387.5)"><path fill="#111" fill-opacity="0.2" d="M0,-25l21.65063509461097,12.5l3.552713678800501e-15,24.999999999999993l-21.650635094610962,12.500000000000007l-21.65063509461097,-12.499999999999986l-2.1316282072803006e-14,-25l21.65063509461095,-12.500000000000016Z" transform="scale(1.0628043459999053)"></path></g><g transform="translate(108.25317547305484,387.5)"><path fill="#111" fill-opacity="0.2" d="M0,-25l21.65063509461097,12.5l3.552713678800501e-15,24.999999999999993l-21.650635094610962,12.500000000000007l-21.65063509461097,-12.499999999999986l-2.1316282072803006e-14,-25l21.65063509461095,-12.500000000000016Z" transform="scale(1.3415447487450929)"></path></g><g transform="translate(151.55444566227678,387.5)"><path fill="#111" fill-opacity="0.2" d="M0,-25l21.65063509461097,12.5l3.552713678800501e-15,24.999999999999993l-21.650635094610962,12.500000000000007l-21.65063509461097,-12.499999999999986l-2.1316282072803006e-14,-25l21.65063509461095,-12.500000000000016Z" transform="scale(1.5925931002134694)"></path></g><g transform="translate(194.8557158514987,387.5)"><path fill="#111" fill-opacity="0.2" d="M0,-25l21.65063509461097,12.5l3.552713678800501e-15,24.999999999999993l-21.650635094610962,12.500000000000007l-21.65063509461097,-12.499999999999986l-2.1316282072803006e-14,-25l21.65063509461095,-12.500000000000016Z" transform="scale(1.7955946918423633)"></path></g><g transform="translate(238.15698604072065,387.5)"><path fill="#111" fill-opacity="0.2" d="M0,-25l21.65063509461097,12.5l3.552713678800501e-15,24.999999999999993l-21.650635094610962,12.500000000000007l-21.65063509461097,-12.499999999999986l-2.1316282072803006e-14,-25l21.65063509461095,-12.500000000000016Z" transform="scale(1.9340903905157916)"></path></g><g transform="translate(281.4582562299426,387.5)"><path fill="#111" fill-opacity="0.2" d="M0,-25l21.65063509461097,12.5l3.552713678800501e-15,24.999999999999993l-21.650635094610962,12.500000000000007l-21.65063509461097,-12.499999999999986l-2.1316282072803006e-14,-25l21.65063509461095,-12.500000000000016Z" transform="scale(1.9968511259483177)"></path></g><g transform="translate(324.75952641916456,387.5)"><path fill="#111" fill-opacity="0.2" d="M0,-25l21.65063509461097,12.5l3.552713678800501e-15,24.999999999999993l-21.650635094610962,12.500000000000007l-21.65063509461097,-12.499999999999986l-2.1316282072803006e-14,-25l21.65063509461095,-12.500000000000016Z" transform="scale(1.9787883306530902)"></path></g><g transform="translate(368.0607966083865,387.5)"><path fill="#111" fill-opacity="0.2" d="M0,-25l21.65063509461097,12.5l3.552713678800501e-15,24.999999999999993l-21.650635094610962,12.500000000000007l-21.65063509461097,-12.499999999999986l-2.1316282072803006e-14,-25l21.65063509461095,-12.500000000000016Z" transform="scale(1.8813665150796401)"></path></g><g transform="translate(411.36206679760846,387.5)"><path fill="#111" fill-opacity="0.2" d="M0,-25l21.65063509461097,12.5l3.552713678800501e-15,24.999999999999993l-21.650635094610962,12.500000000000007l-21.65063509461097,-12.499999999999986l-2.1316282072803006e-14,-25l21.65063509461095,-12.500000000000016Z" transform="scale(1.712484526808698)"></path></g><g transform="translate(454.6633369868304,387.5)"><path fill="#111" fill-opacity="0.2" d="M0,-25l21.65063509461097,12.5l3.552713678800501e-15,24.999999999999993l-21.650635094610962,12.500000000000007l-21.65063509461097,-12.499999999999986l-2.1316282072803006e-14,-25l21.65063509461095,-12.500000000000016Z" transform="scale(1.4858351211706091)"></path></g><g transform="translate(497.96460717605237,387.5)"><path fill="#111" fill-opacity="0.2" d="M0,-25l21.65063509461097,12.5l3.552713678800501e-15,24.999999999999993l-21.650635094610962,12.500000000000007l-21.65063509461097,-12.499999999999986l-2.1316282072803006e-14,-25l21.65063509461095,-12.500000000000016Z" transform="scale(1.219794768557166)"></path></g><g transform="translate(541.2658773652743,387.5)"><path fill="#111" fill-opacity="0.2" d="M0,-25l21.65063509461097,12.5l3.552713678800501e-15,24.999999999999993l-21.650635094610962,12.500000000000007l-21.65063509461097,-12.499999999999986l-2.1316282072803006e-14,-25l21.65063509461095,-12.500000000000016Z" transform="scale(0.9359337115598259)"></path></g><g transform="translate(0,425)"><path fill="#111" fill-opacity="0.2" d="M0,-25l21.65063509461097,12.5l3.552713678800501e-15,24.999999999999993l-21.650635094610962,12.500000000000007l-21.65063509461097,-12.499999999999986l-2.1316282072803006e-14,-25l21.65063509461095,-12.500000000000016Z" transform="scale(0.6572670747698477)"></path></g><g transform="translate(43.30127018922194,425)"><path fill="#111" fill-opacity="0.2" d="M0,-25l21.65063509461097,12.5l3.552713678800501e-15,24.999999999999993l-21.650635094610962,12.500000000000007l-21.65063509461097,-12.499999999999986l-2.1316282072803006e-14,-25l21.65063509461095,-12.500000000000016Z" transform="scale(0.40638882522515585)"></path></g><g transform="translate(86.60254037844388,425)"><path fill="#111" fill-opacity="0.2" d="M0,-25l21.65063509461097,12.5l3.552713678800501e-15,24.999999999999993l-21.650635094610962,12.500000000000007l-21.65063509461097,-12.499999999999986l-2.1316282072803006e-14,-25l21.65063509461095,-12.500000000000016Z" transform="scale(0.20363987982215237)"></path></g><g transform="translate(129.9038105676658,425)"><path fill="#111" fill-opacity="0.2" d="M0,-25l21.65063509461097,12.5l3.552713678800501e-15,24.999999999999993l-21.650635094610962,12.500000000000007l-21.65063509461097,-12.499999999999986l-2.1316282072803006e-14,-25l21.65063509461095,-12.500000000000016Z" transform="scale(0.06545888741445183)"></path></g><g transform="translate(173.20508075688775,425)"><path fill="#111" fill-opacity="0.2" d="M0,-25l21.65063509461097,12.5l3.552713678800501e-15,24.999999999999993l-21.650635094610962,12.500000000000007l-21.65063509461097,-12.499999999999986l-2.1316282072803006e-14,-25l21.65063509461095,-12.500000000000016Z" transform="scale(0.0030494022692381106)"></path></g><g transform="translate(216.5063509461097,425)"><path fill="#111" fill-opacity="0.2" d="M0,-25l21.65063509461097,12.5l3.552713678800501e-15,24.999999999999993l-21.650635094610962,12.500000000000007l-21.65063509461097,-12.499999999999986l-2.1316282072803006e-14,-25l21.65063509461095,-12.500000000000016Z" transform="scale(0.02147151290828475)"></path></g><g transform="translate(259.80762113533166,425)"><path fill="#111" fill-opacity="0.2" d="M0,-25l21.65063509461097,12.5l3.552713678800501e-15,24.999999999999993l-21.650635094610962,12.500000000000007l-21.65063509461097,-12.499999999999986l-2.1316282072803006e-14,-25l21.65063509461095,-12.500000000000016Z" transform="scale(0.1192315760115984)"></path></g><g transform="translate(303.1088913245536,425)"><path fill="#111" fill-opacity="0.2" d="M0,-25l21.65063509461097,12.5l3.552713678800501e-15,24.999999999999993l-21.650635094610962,12.500000000000007l-21.65063509461097,-12.499999999999986l-2.1316282072803006e-14,-25l21.65063509461095,-12.500000000000016Z" transform="scale(0.2884033192818354)"></path></g><g transform="translate(346.41016151377556,425)"><path fill="#111" fill-opacity="0.2" d="M0,-25l21.65063509461097,12.5l3.552713678800501e-15,24.999999999999993l-21.650635094610962,12.500000000000007l-21.65063509461097,-12.499999999999986l-2.1316282072803006e-14,-25l21.65063509461095,-12.500000000000016Z" transform="scale(0.5152704943900772)"></path></g><g transform="translate(389.7114317029975,425)"><path fill="#111" fill-opacity="0.2" d="M0,-25l21.65063509461097,12.5l3.552713678800501e-15,24.999999999999993l-21.650635094610962,12.500000000000007l-21.65063509461097,-12.499999999999986l-2.1316282072803006e-14,-25l21.65063509461095,-12.500000000000016Z" transform="scale(0.7814389744489876)"></path></g><g transform="translate(433.01270189221947,425)"><path fill="#111" fill-opacity="0.2" d="M0,-25l21.65063509461097,12.5l3.552713678800501e-15,24.999999999999993l-21.650635094610962,12.500000000000007l-21.65063509461097,-12.499999999999986l-2.1316282072803006e-14,-25l21.65063509461095,-12.500000000000016Z" transform="scale(1.0653281284427472)"></path></g><g transform="translate(476.3139720814414,425)"><path fill="#111" fill-opacity="0.2" d="M0,-25l21.65063509461097,12.5l3.552713678800501e-15,24.999999999999993l-21.650635094610962,12.500000000000007l-21.65063509461097,-12.499999999999986l-2.1316282072803006e-14,-25l21.65063509461095,-12.500000000000016Z" transform="scale(1.3439205537082697)"></path></g><g transform="translate(519.6152422706633,425)"><path fill="#111" fill-opacity="0.2" d="M0,-25l21.65063509461097,12.5l3.552713678800501e-15,24.999999999999993l-21.650635094610962,12.500000000000007l-21.65063509461097,-12.499999999999986l-2.1316282072803006e-14,-25l21.65063509461095,-12.500000000000016Z" transform="scale(1.5946283001917907)"></path></g><g transform="translate(-21.65063509461097,462.5)"><path fill="#111" fill-opacity="0.2" d="M0,-25l21.65063509461097,12.5l3.552713678800501e-15,24.999999999999993l-21.650635094610962,12.500000000000007l-21.65063509461097,-12.499999999999986l-2.1316282072803006e-14,-25l21.65063509461095,-12.500000000000016Z" transform="scale(1.7971242751869458)"></path></g><g transform="translate(21.65063509461097,462.5)"><path fill="#111" fill-opacity="0.2" d="M0,-25l21.65063509461097,12.5l3.552713678800501e-15,24.999999999999993l-21.650635094610962,12.500000000000007l-21.65063509461097,-12.499999999999986l-2.1316282072803006e-14,-25l21.65063509461095,-12.500000000000016Z" transform="scale(1.9349903403867739)"></path></g><g transform="translate(64.9519052838329,462.5)"><path fill="#111" fill-opacity="0.2" d="M0,-25l21.65063509461097,12.5l3.552713678800501e-15,24.999999999999993l-21.650635094610962,12.500000000000007l-21.65063509461097,-12.499999999999986l-2.1316282072803006e-14,-25l21.65063509461095,-12.500000000000016Z" transform="scale(1.9970484754561038)"></path></g><g transform="translate(108.25317547305484,462.5)"><path fill="#111" fill-opacity="0.2" d="M0,-25l21.65063509461097,12.5l3.552713678800501e-15,24.999999999999993l-21.650635094610962,12.500000000000007l-21.65063509461097,-12.499999999999986l-2.1316282072803006e-14,-25l21.65063509461095,-12.500000000000016Z" transform="scale(1.9782670789289538)"></path></g><g transform="translate(151.55444566227678,462.5)"><path fill="#111" fill-opacity="0.2" d="M0,-25l21.65063509461097,12.5l3.552713678800501e-15,24.999999999999993l-21.650635094610962,12.500000000000007l-21.65063509461097,-12.499999999999986l-2.1316282072803006e-14,-25l21.65063509461095,-12.500000000000016Z" transform="scale(1.8801689246075584)"></path></g><g transform="translate(194.8557158514987,462.5)"><path fill="#111" fill-opacity="0.2" d="M0,-25l21.65063509461097,12.5l3.552713678800501e-15,24.999999999999993l-21.650635094610962,12.500000000000007l-21.65063509461097,-12.499999999999986l-2.1316282072803006e-14,-25l21.65063509461095,-12.500000000000016Z" transform="scale(1.7107076968322867)"></path></g><g transform="translate(238.15698604072065,462.5)"><path fill="#111" fill-opacity="0.2" d="M0,-25l21.65063509461097,12.5l3.552713678800501e-15,24.999999999999993l-21.650635094610962,12.500000000000007l-21.65063509461097,-12.499999999999986l-2.1316282072803006e-14,-25l21.65063509461095,-12.500000000000016Z" transform="scale(1.4836231149992776)"></path></g><g transform="translate(281.4582562299426,462.5)"><path fill="#111" fill-opacity="0.2" d="M0,-25l21.65063509461097,12.5l3.552713678800501e-15,24.999999999999993l-21.650635094610962,12.500000000000007l-21.65063509461097,-12.499999999999986l-2.1316282072803006e-14,-25l21.65063509461095,-12.500000000000016Z" transform="scale(1.2173269330804395)"></path></g><g transform="translate(324.75952641916456,462.5)"><path fill="#111" fill-opacity="0.2" d="M0,-25l21.65063509461097,12.5l3.552713678800501e-15,24.999999999999993l-21.650635094610962,12.500000000000007l-21.65063509461097,-12.499999999999986l-2.1316282072803006e-14,-25l21.65063509461095,-12.500000000000016Z" transform="scale(0.9334101360099807)"></path></g><g transform="translate(368.0607966083865,462.5)"><path fill="#111" fill-opacity="0.2" d="M0,-25l21.65063509461097,12.5l3.552713678800501e-15,24.999999999999993l-21.650635094610962,12.500000000000007l-21.65063509461097,-12.499999999999986l-2.1316282072803006e-14,-25l21.65063509461095,-12.500000000000016Z" transform="scale(0.6548923677195053)"></path></g><g transform="translate(411.36206679760846,462.5)"><path fill="#111" fill-opacity="0.2" d="M0,-25l21.65063509461097,12.5l3.552713678800501e-15,24.999999999999993l-21.650635094610962,12.500000000000007l-21.65063509461097,-12.499999999999986l-2.1316282072803006e-14,-25l21.65063509461095,-12.500000000000016Z" transform="scale(0.40435552516201656)"></path></g><g transform="translate(454.6633369868304,462.5)"><path fill="#111" fill-opacity="0.2" d="M0,-25l21.65063509461097,12.5l3.552713678800501e-15,24.999999999999993l-21.650635094610962,12.500000000000007l-21.65063509461097,-12.499999999999986l-2.1316282072803006e-14,-25l21.65063509461095,-12.500000000000016Z" transform="scale(0.20211284435218213)"></path></g><g transform="translate(497.96460717605237,462.5)"><path fill="#111" fill-opacity="0.2" d="M0,-25l21.65063509461097,12.5l3.552713678800501e-15,24.999999999999993l-21.650635094610962,12.500000000000007l-21.65063509461097,-12.499999999999986l-2.1316282072803006e-14,-25l21.65063509461095,-12.500000000000016Z" transform="scale(0.06456192679880612)"></path></g><g transform="translate(541.2658773652743,462.5)"><path fill="#111" fill-opacity="0.2" d="M0,-25l21.65063509461097,12.5l3.552713678800501e-15,24.999999999999993l-21.650635094610962,12.500000000000007l-21.65063509461097,-12.499999999999986l-2.1316282072803006e-14,-25l21.65063509461095,-12.500000000000016Z" transform="scale(0.002855241032160838)"></path></g><g transform="translate(0,500)"><path fill="#111" fill-opacity="0.2" d="M0,-25l21.65063509461097,12.5l3.552713678800501e-15,24.999999999999993l-21.650635094610962,12.500000000000007l-21.65063509461097,-12.499999999999986l-2.1316282072803006e-14,-25l21.65063509461095,-12.500000000000016Z" transform="scale(0.021995893417219747)"></path></g><g transform="translate(43.30127018922194,500)"><path fill="#111" fill-opacity="0.2" d="M0,-25l21.65063509461097,12.5l3.552713678800501e-15,24.999999999999993l-21.650635094610962,12.500000000000007l-21.65063509461097,-12.499999999999986l-2.1316282072803006e-14,-25l21.65063509461095,-12.500000000000016Z" transform="scale(0.12043198210432748)"></path></g><g transform="translate(86.60254037844388,500)"><path fill="#111" fill-opacity="0.2" d="M0,-25l21.65063509461097,12.5l3.552713678800501e-15,24.999999999999993l-21.650635094610962,12.500000000000007l-21.65063509461097,-12.499999999999986l-2.1316282072803006e-14,-25l21.65063509461095,-12.500000000000016Z" transform="scale(0.2901824234275018)"></path></g><g transform="translate(129.9038105676658,500)"><path fill="#111" fill-opacity="0.2" d="M0,-25l21.65063509461097,12.5l3.552713678800501e-15,24.999999999999993l-21.650635094610962,12.500000000000007l-21.65063509461097,-12.499999999999986l-2.1316282072803006e-14,-25l21.65063509461095,-12.500000000000016Z" transform="scale(0.5174840488922668)"></path></g><g transform="translate(173.20508075688775,500)"><path fill="#111" fill-opacity="0.2" d="M0,-25l21.65063509461097,12.5l3.552713678800501e-15,24.999999999999993l-21.650635094610962,12.500000000000007l-21.65063509461097,-12.499999999999986l-2.1316282072803006e-14,-25l21.65063509461095,-12.500000000000016Z" transform="scale(0.7839075068813157)"></path></g><g transform="translate(216.5063509461097,500)"><path fill="#111" fill-opacity="0.2" d="M0,-25l21.65063509461097,12.5l3.552713678800501e-15,24.999999999999993l-21.650635094610962,12.500000000000007l-21.65063509461097,-12.499999999999986l-2.1316282072803006e-14,-25l21.65063509461095,-12.500000000000016Z" transform="scale(1.0678514930645748)"></path></g><g transform="translate(259.80762113533166,500)"><path fill="#111" fill-opacity="0.2" d="M0,-25l21.65063509461097,12.5l3.552713678800501e-15,24.999999999999993l-21.650635094610962,12.500000000000007l-21.65063509461097,-12.499999999999986l-2.1316282072803006e-14,-25l21.65063509461095,-12.500000000000016Z" transform="scale(1.3462941590487807)"></path></g><g transform="translate(303.1088913245536,500)"><path fill="#111" fill-opacity="0.2" d="M0,-25l21.65063509461097,12.5l3.552713678800501e-15,24.999999999999993l-21.650635094610962,12.500000000000007l-21.65063509461097,-12.499999999999986l-2.1316282072803006e-14,-25l21.65063509461095,-12.500000000000016Z" transform="scale(1.5966596970886369)"></path></g><g transform="translate(346.41016151377556,500)"><path fill="#111" fill-opacity="0.2" d="M0,-25l21.65063509461097,12.5l3.552713678800501e-15,24.999999999999993l-21.650635094610962,12.500000000000007l-21.65063509461097,-12.499999999999986l-2.1316282072803006e-14,-25l21.65063509461095,-12.500000000000016Z" transform="scale(1.798648760340669)"></path></g><g transform="translate(389.7114317029975,500)"><path fill="#111" fill-opacity="0.2" d="M0,-25l21.65063509461097,12.5l3.552713678800501e-15,24.999999999999993l-21.650635094610962,12.500000000000007l-21.65063509461097,-12.499999999999986l-2.1316282072803006e-14,-25l21.65063509461095,-12.500000000000016Z" transform="scale(1.9358843103129026)"></path></g><g transform="translate(433.01270189221947,500)"><path fill="#111" fill-opacity="0.2" d="M0,-25l21.65063509461097,12.5l3.552713678800501e-15,24.999999999999993l-21.650635094610962,12.500000000000007l-21.65063509461097,-12.499999999999986l-2.1316282072803006e-14,-25l21.65063509461095,-12.500000000000016Z" transform="scale(1.9972394481120208)"></path></g><g transform="translate(476.3139720814414,500)"><path fill="#111" fill-opacity="0.2" d="M0,-25l21.65063509461097,12.5l3.552713678800501e-15,24.999999999999993l-21.650635094610962,12.500000000000007l-21.65063509461097,-12.499999999999986l-2.1316282072803006e-14,-25l21.65063509461095,-12.500000000000016Z" transform="scale(1.9777395704736698)"></path></g><g transform="translate(519.6152422706633,500)"><path fill="#111" fill-opacity="0.2" d="M0,-25l21.65063509461097,12.5l3.552713678800501e-15,24.999999999999993l-21.650635094610962,12.500000000000007l-21.65063509461097,-12.499999999999986l-2.1316282072803006e-14,-25l21.65063509461095,-12.500000000000016Z" transform="scale(1.8789657048135462)"></path></g><g transform="translate(-21.65063509461097,537.5)"><path fill="#111" fill-opacity="0.2" d="M0,-25l21.65063509461097,12.5l3.552713678800501e-15,24.999999999999993l-21.650635094610962,12.500000000000007l-21.65063509461097,-12.499999999999986l-2.1316282072803006e-14,-25l21.65063509461095,-12.500000000000016Z" transform="scale(1.7089263213620343)"></path></g><g transform="translate(21.65063509461097,537.5)"><path fill="#111" fill-opacity="0.2" d="M0,-25l21.65063509461097,12.5l3.552713678800501e-15,24.999999999999993l-21.650635094610962,12.500000000000007l-21.65063509461097,-12.499999999999986l-2.1316282072803006e-14,-25l21.65063509461095,-12.500000000000016Z" transform="scale(1.481408015705555)"></path></g><g transform="translate(64.9519052838329,537.5)"><path fill="#111" fill-opacity="0.2" d="M0,-25l21.65063509461097,12.5l3.552713678800501e-15,24.999999999999993l-21.650635094610962,12.500000000000007l-21.65063509461097,-12.499999999999986l-2.1316282072803006e-14,-25l21.65063509461095,-12.500000000000016Z" transform="scale(1.2148577076395406)"></path></g><g transform="translate(108.25317547305484,537.5)"><path fill="#111" fill-opacity="0.2" d="M0,-25l21.65063509461097,12.5l3.552713678800501e-15,24.999999999999993l-21.650635094610962,12.500000000000007l-21.65063509461097,-12.499999999999986l-2.1316282072803006e-14,-25l21.65063509461095,-12.500000000000016Z" transform="scale(0.930886986350861)"></path></g><g transform="translate(151.55444566227678,537.5)"><path fill="#111" fill-opacity="0.2" d="M0,-25l21.65063509461097,12.5l3.552713678800501e-15,24.999999999999993l-21.650635094610962,12.500000000000007l-21.65063509461097,-12.499999999999986l-2.1316282072803006e-14,-25l21.65063509461095,-12.500000000000016Z" transform="scale(0.652519867884062)"></path></g><g transform="translate(194.8557158514987,537.5)"><path fill="#111" fill-opacity="0.2" d="M0,-25l21.65063509461097,12.5l3.552713678800501e-15,24.999999999999993l-21.650635094610962,12.500000000000007l-21.65063509461097,-12.499999999999986l-2.1316282072803006e-14,-25l21.65063509461095,-12.500000000000016Z" transform="scale(0.4023260346795249)"></path></g><g transform="translate(238.15698604072065,537.5)"><path fill="#111" fill-opacity="0.2" d="M0,-25l21.65063509461097,12.5l3.552713678800501e-15,24.999999999999993l-21.650635094610962,12.500000000000007l-21.65063509461097,-12.499999999999986l-2.1316282072803006e-14,-25l21.65063509461095,-12.500000000000016Z" transform="scale(0.2005909119522522)"></path></g><g transform="translate(281.4582562299426,537.5)"><path fill="#111" fill-opacity="0.2" d="M0,-25l21.65063509461097,12.5l3.552713678800501e-15,24.999999999999993l-21.650635094610962,12.500000000000007l-21.65063509461097,-12.499999999999986l-2.1316282072803006e-14,-25l21.65063509461095,-12.500000000000016Z" transform="scale(0.06367094899159231)"></path></g><g transform="translate(324.75952641916456,537.5)"><path fill="#111" fill-opacity="0.2" d="M0,-25l21.65063509461097,12.5l3.552713678800501e-15,24.999999999999993l-21.650635094610962,12.500000000000007l-21.65063509461097,-12.499999999999986l-2.1316282072803006e-14,-25l21.65063509461095,-12.500000000000016Z" transform="scale(0.0026674572627554127)"></path></g><g transform="translate(368.0607966083865,537.5)"><path fill="#111" fill-opacity="0.2" d="M0,-25l21.65063509461097,12.5l3.552713678800501e-15,24.999999999999993l-21.650635094610962,12.500000000000007l-21.65063509461097,-12.499999999999986l-2.1316282072803006e-14,-25l21.65063509461095,-12.500000000000016Z" transform="scale(0.02252652897540086)"></path></g><g transform="translate(411.36206679760846,537.5)"><path fill="#111" fill-opacity="0.2" d="M0,-25l21.65063509461097,12.5l3.552713678800501e-15,24.999999999999993l-21.650635094610962,12.500000000000007l-21.65063509461097,-12.499999999999986l-2.1316282072803006e-14,-25l21.65063509461095,-12.500000000000016Z" transform="scale(0.12163801367575355)"></path></g><g transform="translate(454.6633369868304,537.5)"><path fill="#111" fill-opacity="0.2" d="M0,-25l21.65063509461097,12.5l3.552713678800501e-15,24.999999999999993l-21.650635094610962,12.500000000000007l-21.65063509461097,-12.499999999999986l-2.1316282072803006e-14,-25l21.65063509461095,-12.500000000000016Z" transform="scale(0.2919660673740416)"></path></g><g transform="translate(497.96460717605237,537.5)"><path fill="#111" fill-opacity="0.2" d="M0,-25l21.65063509461097,12.5l3.552713678800501e-15,24.999999999999993l-21.650635094610962,12.500000000000007l-21.65063509461097,-12.499999999999986l-2.1316282072803006e-14,-25l21.65063509461095,-12.500000000000016Z" transform="scale(0.5197006894357339)"></path></g><g transform="translate(541.2658773652743,537.5)"><path fill="#111" fill-opacity="0.2" d="M0,-25l21.65063509461097,12.5l3.552713678800501e-15,24.999999999999993l-21.650635094610962,12.500000000000007l-21.65063509461097,-12.499999999999986l-2.1316282072803006e-14,-25l21.65063509461095,-12.500000000000016Z" transform="scale(0.7863774213826664)"></path></g></svg>