<svg width="500" height="500" style="background: rgb(157, 187, 0);" version="1.1" xmlns="http://www.w3.org/2000/svg"><g transform="translate(250,250)"><circle fill="#d1d1d1" fill-opacity="0.5" r="14" cx="0" cy="0"></circle><circle fill="#d1d1d1" fill-opacity="0.5" r="14.474754045299502" cx="21.831321561911253" cy="14.570353817356397"></circle><circle fill="#d1d1d1" fill-opacity="0.5" r="14.947321788230953" cx="43.401739819197374" cy="29.063274347834682"></circle><circle fill="#d1d1d1" fill-opacity="0.5" r="15.415526994624972" cx="64.45346948893305" cy="43.40173981919737"></circle><circle fill="#d1d1d1" fill-opacity="0.5" r="15.877213520344174" cx="84.73492406851757" cy="57.50954930151837"></circle><circle fill="#d1d1d1" fill-opacity="0.5" r="16.330255240599374" cx="104.00372251347738" cy="71.3117276725349"></circle><circle fill="#d1d1d1" fill-opacity="0.5" r="16.772565841022896" cx="122.02958590202633" cy="84.73492406851756"></circle><circle fill="#d1d1d1" fill-opacity="0.5" r="17.20210842540987" cx="138.5970894687206" cy="97.70780170311382"></circle><circle fill="#d1d1d1" fill-opacity="0.5" r="17.616904895882634" cx="153.50823711801138" cy="110.16141698249531"></circle><circle fill="#d1d1d1" fill-opacity="0.5" r="18.01504506228138" cx="166.58482765001165" cy="122.02958590202635"></circle><circle fill="#d1d1d1" fill-opacity="0.5" r="18.39469543883125" cx="177.6705844200223" cy="133.24923577725508"></circle><circle fill="#d1d1d1" fill-opacity="0.5" r="18.754107687576003" cx="186.6330229805329" cy="143.76074043998128"></circle><circle fill="#d1d1d1" fill-opacity="0.5" r="19.09162666969519" cx="193.36503438574258" cy="153.50823711801135"></circle><circle fill="#d1d1d1" fill-opacity="0.5" r="19.4056980676276" cx="197.78616523673884" cy="162.43992331457227"></circle><circle fill="#d1d1d1" fill-opacity="0.5" r="19.6948755429" cx="199.8435791696799" cy="170.5083321096263"></circle><circle fill="#d1d1d1" fill-opacity="0.5" r="19.957827396698576" cx="199.51268829635382" cy="177.6705844200223"></circle><circle fill="#d1d1d1" fill-opacity="0.5" r="20.19334270251027" cx="196.79744705085466" cy="183.88861687785635"></circle><circle fill="#d1d1d1" fill-opacity="0.5" r="20.400336882592345" cx="191.73030493065397" cy="189.1293841159966"></circle><circle fill="#d1d1d1" fill-opacity="0.5" r="20.577856702589937" cx="184.37181869684437" cy="193.3650343857426"></circle><circle fill="#d1d1d1" fill-opacity="0.5" r="20.72508466130072" cx="174.809928668109" cy="196.57305757329885"></circle><circle fill="#d1d1d1" fill-opacity="0.5" r="20.84134275537126" cx="163.15890775733126" cy="198.73640482845272"></circle><circle fill="#d1d1d1" fill-opacity="0.5" r="20.926095601588123" cx="149.5579958107685" cy="199.8435791696799"></circle><circle fill="#d1d1d1" fill-opacity="0.5" r="20.97895290238519" cx="134.16973557063164" cy="199.88869658417946"></circle><circle fill="#d1d1d1" fill-opacity="0.5" r="20.999671243213278" cx="117.1780301477658" cy="198.87151729810978"></circle><circle fill="#d1d1d1" fill-opacity="0.5" r="20.988155213494927" cx="98.78594521932077" cy="196.79744705085466"></circle><circle fill="#d1d1d1" fill-opacity="0.5" r="20.94445784600216" cx="79.21328221706764" cy="193.67750836653948"></circle><circle fill="#d1d1d1" fill-opacity="0.5" r="20.868780372633832" cx="58.693951508875564" cy="189.52828197547467"></circle><circle fill="#d1d1d1" fill-opacity="0.5" r="20.761471297717335" cx="37.47317696611099" cy="184.3718186968444"></circle><circle fill="#d1d1d1" fill-opacity="0.5" r="20.62302479310211" cx="15.804565324820857" cy="178.23552225092342"></circle><circle fill="#d1d1d1" fill-opacity="0.5" r="20.454078422435884" cx="-6.052924635617761" cy="171.15200362362452"></circle><circle fill="#d1d1d1" fill-opacity="0.5" r="20.255410205103473" cx="-27.83807687542889" cy="163.15890775733126"></circle><circle fill="#d1d1d1" fill-opacity="0.5" r="20.027935033349213" cx="-49.29053985359298" cy="154.29871348907284"></circle><circle fill="#d1d1d1" fill-opacity="0.5" r="19.77270045908255" cx="-70.15393795549265" cy="144.61850779924578"></circle><circle fill="#d1d1d1" fill-opacity="0.5" r="19.49088186976917" cx="-90.17893540477276" cy="134.16973557063156"></circle><circle fill="#d1d1d1" fill-opacity="0.5" r="19.183777075623187" cx="-109.12621604300385" cy="123.00792618759864"></circle><circle fill="#d1d1d1" fill-opacity="0.5" r="18.85280033302709" cx="-126.76934336618682" cy="111.1923984284595"></circle><circle fill="#d1d1d1" fill-opacity="0.5" r="18.499475831702426" cx="-142.89746663816766" cy="98.78594521932071"></circle><circle fill="#d1d1d1" fill-opacity="0.5" r="18.125430675623516" cx="-157.31784074055574" cy="85.8544999247743"></circle><circle fill="#d1d1d1" fill-opacity="0.5" r="17.73238738999808" cx="-169.85812964474368" cy="72.46678594891888"></circle><circle fill="#d1d1d1" fill-opacity="0.5" r="17.322155988820978" cx="-180.3684659775276" cy="58.693951508875486"></circle><circle fill="#d1d1d1" fill-opacity="0.5" r="16.896625639531067" cx="-188.72324206672928" cy="44.60919152178178"></circle><circle fill="#d1d1d1" fill-opacity="0.5" r="16.457755963156398" cx="-194.82261106226815" cy="30.287358614715775"></circle><circle fill="#d1d1d1" fill-opacity="0.5" r="16.00756801001182" cx="-198.59368019296875" cy="15.804565324820938"></circle><circle fill="#d1d1d1" fill-opacity="0.5" r="15.548134952506853" cx="-199.99138189865647" cy="1.2377796037110573"></circle><circle fill="#d1d1d1" fill-opacity="0.5" r="15.08157253792482" cx="-198.99901242675074" cy="-13.335584224172642"></circle><circle fill="#d1d1d1" fill-opacity="0.5" r="14.610029345139225" cx="-195.62843145665263" cy="-27.83807687542889"></circle><circle fill="#d1d1d1" fill-opacity="0.5" r="14.135676890136558" cx="-189.91992036624836" cy="-42.192625707347986"></circle><circle fill="#d1d1d1" fill-opacity="0.5" r="13.660699625910823" cx="-181.94170083436626" cy="-56.32294431593194"></circle><circle fill="#d1d1d1" fill-opacity="0.5" r="13.187284882781425" cx="-171.7891195323008" cy="-70.15393795549257"></circle><circle fill="#d1d1d1" fill-opacity="0.5" r="12.717612795460678" cx="-159.58350864805786" cy="-83.61210262525385"></circle><circle fill="#d1d1d1" fill-opacity="0.5" r="12.253846263258003" cx="-145.47073586104767" cy="-96.62591570203213"></circle><circle fill="#d1d1d1" fill-opacity="0.5" r="11.798120989655253" cx="-129.6194610962821" cy="-109.12621604300399"></circle><circle fill="#d1d1d1" fill-opacity="0.5" r="11.35253564712237" cx="-112.21912089139418" cy="-121.04657153852409"></circle><circle fill="#d1d1d1" fill-opacity="0.5" r="10.919142212465417" cx="-93.47766446504177" cy="-132.32363216165783"></circle><circle fill="#d1d1d1" fill-opacity="0.5" r="10.499936517214163" cx="-73.61906854264902" cy="-142.89746663816757"></circle><circle fill="#d1d1d1" fill-opacity="0.5" r="10.096849056565649" cx="-52.880660639486635" cy="-152.71188094773686"></circle><circle fill="#d1d1d1" fill-opacity="0.5" r="9.711736099209885" cx="-31.510282790186196" cy="-161.7147169637827"></circle><circle fill="#d1d1d1" fill-opacity="0.5" r="9.346371138977984" cx="-9.763329620591467" cy="-169.85812964474368"></circle><circle fill="#d1d1d1" fill-opacity="0.5" r="9.002436727678955" cx="12.100303840433945" cy="-177.09884130373658"></circle><circle fill="#d1d1d1" fill-opacity="0.5" r="8.681516726736046" cx="33.81932813293144" cy="-183.39837160527182"></circle><circle fill="#d1d1d1" fill-opacity="0.5" r="8.385089013304736" cx="55.13418200243997" cy="-188.72324206672928"></circle><circle fill="#d1d1d1" fill-opacity="0.5" r="8.11451867446167" cx="75.7901343830281" cy="-193.04515397778334"></circle><circle fill="#d1d1d1" fill-opacity="0.5" r="7.871051720806219" cx="95.54032865536635" cy="-196.34113879222858"></circle><circle fill="#d1d1d1" fill-opacity="0.5" r="7.655809348424206" cx="114.14873279830428" cy="-198.59368019296878"></circle><circle fill="#d1d1d1" fill-opacity="0.5" r="7.469782775638272" cx="131.39296017707372" cy="-199.79080718144812"></circle><circle fill="#d1d1d1" fill-opacity="0.5" r="7.313828678322219" cx="147.06692725724136" cy="-199.9261576968221"></circle><circle fill="#d1d1d1" fill-opacity="0.5" r="7.188665244800385" cx="160.98331648241492" cy="-198.9990124267507"></circle><circle fill="#d1d1d1" fill-opacity="0.5" r="7.094868868499665" cx="172.97581488216701" cy="-197.01429863014505"></circle><circle fill="#d1d1d1" fill-opacity="0.5" r="7.032871493584949" cx="182.90110165686968" cy="-193.9825639515377"></circle><circle fill="#d1d1d1" fill-opacity="0.5" r="7.0029586258016465" cx="190.64056098605923" cy="-189.91992036624845"></circle><circle fill="#d1d1d1" fill-opacity="0.5" r="7.00526801768565" cx="196.1016995907884" cy="-184.84795855424093"></circle><circle fill="#d1d1d1" fill-opacity="0.5" r="7.0397890341955165" cx="199.21925210886036" cy="-178.793633157725"></circle><circle fill="#d1d1d1" fill-opacity="0.5" r="7.106362701688186" cx="199.95596107274142" cy="-171.7891195323007"></circle><circle fill="#d1d1d1" fill-opacity="0.5" r="7.204682440012681" cx="198.30302216874443" cy="-163.8716427529239"></circle><circle fill="#d1d1d1" fill-opacity="0.5" r="7.3342954743504265" cx="194.28018945624646" cy="-155.08327978344272"></circle><circle fill="#d1d1d1" fill-opacity="0.5" r="7.494604920300518" cx="187.9355392894737" cy="-145.47073586104756"></circle><circle fill="#d1d1d1" fill-opacity="0.5" r="7.684872532607811" cx="179.34489576320223" cy="-135.08509628404448"></circle><circle fill="#d1d1d1" fill-opacity="0.5" r="7.904222104875619" cx="168.61092454879392" cy="-123.98155492204388"></circle><circle fill="#d1d1d1" fill-opacity="0.5" r="8.151643504606861" cx="155.86190595001494" cy="-112.21912089139403"></circle><circle fill="#d1d1d1" fill-opacity="0.5" r="8.425997324991839" cx="141.25020184169404" cy="-99.86030495471006"></circle><circle fill="#d1d1d1" fill-opacity="0.5" r="8.726020132020613" cx="124.95043481263059" cy="-86.97078731110552"></circle><circle fill="#d1d1d1" fill-opacity="0.5" r="9.050330282756237" cx="107.15740127358919" cy="-73.61906854264888"></circle><circle fill="#d1d1d1" fill-opacity="0.5" r="9.397434287975068" cx="88.08374347054982" cy="-59.87610557205243"></circle><circle fill="#d1d1d1" fill-opacity="0.5" r="9.76573368987336" cx="67.95740822468889" cy="-45.81493456628933"></circle><circle fill="#d1d1d1" fill-opacity="0.5" r="10.153532423167412" cx="47.01892276935495" cy="-31.510282790186352"></circle><circle fill="#d1d1d1" fill-opacity="0.5" r="10.559044625688575" cx="25.518520240166755" cy="-17.03817147277844"></circle><circle fill="#d1d1d1" fill-opacity="0.5" r="10.98040286250411" cx="3.713149171124645" cy="-2.4755117969660736"></circle><circle fill="#d1d1d1" fill-opacity="0.5" r="11.41566672569107" cx="-18.136597264133478" cy="12.100303840433945"></circle><circle fill="#d1d1d1" fill-opacity="0.5" r="11.86283177015999" cx="-39.76959556770229" cy="26.611813126023208"></circle><circle fill="#d1d1d1" fill-opacity="0.5" r="12.319838744377757" cx="-60.92731257060442" cy="40.98189549872043"></circle><circle fill="#d1d1d1" fill-opacity="0.5" r="12.784583073481143" cx="-81.35689512930823" cy="55.13418200243997"></circle><circle fill="#d1d1d1" fill-opacity="0.5" r="13.25492455111002" cx="-100.81419194099092" cy="68.99346114440941"></circle><circle fill="#d1d1d1" fill-opacity="0.5" r="13.728697195328019" cx="-119.06667136422885" cy="82.48607860221678"></circle><circle fill="#d1d1d1" fill-opacity="0.5" r="14.203719223243082" cx="-135.89620037461418" cy="95.54032865536635"></circle><circle fill="#d1d1d1" fill-opacity="0.5" r="14.677803098393358" cx="-151.10165144435848" cy="108.0868352611063"></circle><circle fill="#d1d1d1" fill-opacity="0.5" r="15.148765604629018" cx="-164.501306191405" cy="120.05892074931981"></circle><circle fill="#d1d1d1" fill-opacity="0.5" r="15.614437900098476" cx="-175.93502707234148" cy="131.39296017707358"></circle><circle fill="#d1d1d1" fill-opacity="0.5" r="16.072675505039232" cx="-185.2661711655049" cy="142.02871945963042"></circle><circle fill="#d1d1d1" fill-opacity="0.5" r="16.521368177378097" cx="-192.38322317288964" cy="151.90967548094068"></circle><circle fill="#d1d1d1" fill-opacity="0.5" r="16.958449630662578" cx="-197.20112812507205" cy="160.98331648241492"></circle><circle fill="#d1d1d1" fill-opacity="0.5" r="17.381907049571122" cx="-199.6623078621668" cy="169.20142113356823"></circle><circle fill="#d1d1d1" fill-opacity="0.5" r="17.789790359182017" cx="-199.73734914298072" cy="176.52031480144316"></circle><circle fill="#d1d1d1" fill-opacity="0.5" r="18.18022120531478" cx="-197.42535515885743" cy="182.90110165686983"></circle><circle fill="#d1d1d1" fill-opacity="0.5" r="18.55140160458851" cx="-192.75395625132302" cy="188.3098713840608"></circle><circle fill="#d1d1d1" fill-opacity="0.5" r="18.90162222436256" cx="-185.77897970544404" cy="192.71787939498523"></circle><circle fill="#d1d1d1" fill-opacity="0.5" r="19.229270254429355" cx="-176.58378256515093" cy="196.1016995907884"></circle><circle fill="#d1d1d1" fill-opacity="0.5" r="19.532836834209167" cx="-165.27825544397186" cy="198.4433488584147"></circle><circle fill="#d1d1d1" fill-opacity="0.5" r="19.810924001243745" cx="-151.9975092365036" cy="199.73038264080017"></circle><circle fill="#d1d1d1" fill-opacity="0.5" r="20.062251128990063" cx="-136.90026042555695" cy="199.95596107274145"></circle><circle fill="#d1d1d1" fill-opacity="0.5" r="20.28566082426741" cx="-120.16693428196747" cy="199.1188853309518"></circle><circle fill="#d1d1d1" fill-opacity="0.5" r="20.48012425719921" cx="-101.99750862548713" cy="197.22360400514168"></circle><circle fill="#d1d1d1" fill-opacity="0.5" r="20.644745899104617" cx="-82.60912391568212" cy="194.28018945624646"></circle><circle fill="#d1d1d1" fill-opacity="0.5" r="20.778767646521224" cx="-62.23348823434725" cy="190.30428428746083"></circle><circle fill="#d1d1d1" fill-opacity="0.5" r="20.881572312367325" cx="-41.1141081721401" cy="185.31701821254427"></circle><circle fill="#d1d1d1" fill-opacity="0.5" r="20.95268646816639" cx="-19.503378712764928" cy="179.34489576320223"></circle><circle fill="#d1d1d1" fill-opacity="0.5" r="20.991782624245072" cx="2.340433106883361" cy="172.41965543231512"></circle><circle fill="#d1d1d1" fill-opacity="0.5" r="20.998680737864476" cx="24.156274712720656" cy="164.57810100158656"></circle><circle fill="#d1d1d1" fill-opacity="0.5" r="20.973349042339738" cx="45.683427799079546" cy="155.8619059500152"></circle><circle fill="#d1d1d1" fill-opacity="0.5" r="20.915904193329634" cx="66.66462413950417" cy="146.317391982644"></circle><circle fill="#d1d1d1" fill-opacity="0.5" r="20.82661073162253" cx="86.84912016610392" cy="135.9952828565921"></circle><circle fill="#d1d1d1" fill-opacity="0.5" r="20.70587986489263" cx="105.99569357354986" cy="124.95043481263059"></circle><circle fill="#d1d1d1" fill-opacity="0.5" r="20.554267574036654" cx="123.8755261356947" cy="113.24154504492805"></circle><circle fill="#d1d1d1" fill-opacity="0.5" r="20.372472052811563" cx="140.2749382826433" cy="100.93083975826791"></circle><circle fill="#d1d1d1" fill-opacity="0.5" r="20.16133049256409" cx="154.99794275769514" cy="88.08374347054982"></circle><circle fill="#d1d1d1" fill-opacity="0.5" r="19.921815226858833" cx="167.86858683574127" cy="74.76853131804614"></circle><circle fill="#d1d1d1" fill-opacity="0.5" r="19.655029253759256" cx="178.73305511155812" cy="61.05596621120861"></circle><circle fill="#d1d1d1" fill-opacity="0.5" r="19.3622011563823" cx="187.46150772785103" cy="47.01892276935461"></circle><circle fill="#d1d1d1" fill-opacity="0.5" r="19.04467944511785" cx="193.94963207462004" cy="32.732000032794936"></circle><circle fill="#d1d1d1" fill-opacity="0.5" r="18.70392634756799" cx="198.1198894156934" cy="18.27112501062741"></circle><circle fill="#d1d1d1" fill-opacity="0.5" r="18.34151107480418" cx="199.92244154414678" cy="3.713149171124645"></circle><circle fill="#d1d1d1" fill-opacity="0.5" r="17.959102594951908" cx="199.3357463922796" cy="-10.86455998086923"></circle><circle fill="#d1d1d1" fill-opacity="0.5" r="17.55846194738166" cx="196.36681547808507" cy="-25.38453006898425"></circle><circle fill="#d1d1d1" fill-opacity="0.5" r="17.14143413290001" cx="191.05113011150166" cy="-39.769595567702645"></circle><circle fill="#d1d1d1" fill-opacity="0.5" r="16.70993961728792" cx="183.45221736186198" cy="-53.9433078939979"></circle><circle fill="#d1d1d1" fill-opacity="0.5" r="16.265965487312968" cx="173.66089085409186" cy="-67.83034168882618"></circle><circle fill="#d1d1d1" fill-opacity="0.5" r="15.811556299943803" cx="161.79416546680403" cy="-81.35689512930823"></circle><circle fill="#d1d1d1" fill-opacity="0.5" r="15.348804666906972" cx="147.9938589025984" cy="-94.45108214416742"></circle><circle fill="#d1d1d1" fill-opacity="0.5" r="14.879841617945406" cx="132.42489684301069" cy="-107.0433144480232"></circle><circle fill="#d1d1d1" fill-opacity="0.5" r="14.406826787157335" cx="115.2733419429953" cy="-119.06667136422857"></circle><circle fill="#d1d1d1" fill-opacity="0.5" r="13.931938467608155" cx="96.74417022015732" cy="-130.45725547086903"></circle><circle fill="#d1d1d1" fill-opacity="0.5" r="13.457363580015826" cx="77.0588214128466" cy="-141.15453217984145"></circle><circle fill="#d1d1d1" fill-opacity="0.5" r="12.985287601704531" cx="56.452552582434144" cy="-151.10165144435848"></circle><circle fill="#d1d1d1" fill-opacity="0.5" r="12.517884502205428" cx="35.17162658655842" cy="-160.2457498851735"></circle><circle fill="#d1d1d1" fill-opacity="0.5" r="12.057306731852268" cx="13.470369023514106" cy="-168.5382317298915"></circle><circle fill="#d1d1d1" fill-opacity="0.5" r="11.605675309475725" cx="-8.391871180127373" cy="-175.93502707234163"></circle><circle fill="#d1d1d1" fill-opacity="0.5" r="11.165070054843502" cx="-30.153821215045102" cy="-182.39682607949453"></circle><circle fill="#d1d1d1" fill-opacity="0.5" r="10.737520010827627" cx="-51.55540682677635" cy="-187.88928790125624"></circle><circle fill="#d1d1d1" fill-opacity="0.5" r="10.324994099405611" cx="-72.34086042953646" cy="-192.38322317288942"></circle><circle fill="#d1d1d1" fill-opacity="0.5" r="9.929392054525852" cx="-92.26177775161717" cy="-195.8547491401763"></circle><circle fill="#d1d1d1" fill-opacity="0.5" r="9.55253567359296" cx="-111.08008648274597" cy="-198.28541658290544"></circle><circle fill="#d1d1d1" fill-opacity="0.5" r="9.196160427860287" cx="-128.57089144552953" cy="-199.6623078621668"></circle><circle fill="#d1d1d1" fill-opacity="0.5" r="8.86190747036568" cx="-144.52516228867105" cy="-199.97810557038395"></circle><circle fill="#d1d1d1" fill-opacity="0.5" r="8.551316078214253" cx="-158.7522315817073" cy="-199.23113141924225"></circle><circle fill="#d1d1d1" fill-opacity="0.5" r="8.265816564012866" cx="-171.0820734568421" cy="-197.42535515885743"></circle><circle fill="#d1d1d1" fill-opacity="0.5" r="8.006723689099884" cx="-181.36733556613717" cy="-194.570373480768"></circle><circle fill="#d1d1d1" fill-opacity="0.5" r="7.77523060890297" cx="-189.48510007039505" cy="-190.6813590168878"></circle><circle fill="#d1d1d1" fill-opacity="0.5" r="7.572403378307667" cx="-195.33835261437616" cy="-185.7789797054439"></circle><circle fill="#d1d1d1" fill-opacity="0.5" r="7.399176042339914" cx="-198.8571417328335" cy="-179.8892889524398"></circle><circle fill="#d1d1d1" fill-opacity="0.5" r="7.256346334770681" cx="-199.99941483144025" cy="-173.04358717236207"></circle><circle fill="#d1d1d1" fill-opacity="0.5" r="7.144572004451143" cx="-198.75152075191087" cy="-165.27825544397186"></circle><circle fill="#d1d1d1" fill-opacity="0.5" r="7.064367786296106" cx="-195.1283729152329" cy="-156.63456216520805"></circle><circle fill="#d1d1d1" fill-opacity="0.5" r="7.016103030864694" cx="-189.173271093299" cy="-147.1584437347137"></circle><circle fill="#d1d1d1" fill-opacity="0.5" r="7.000000003454362" cx="-180.95738393892339" cy="-136.9002604255567"></circle><circle fill="#d1d1d1" fill-opacity="0.5" r="7.016132860541106" cx="-170.57889845846407" cy="-125.91452874852149"></circle><circle fill="#d1d1d1" fill-opacity="0.5" r="7.064427308279505" cx="-158.16184659158947" cy="-114.25963172732685"></circle><circle fill="#d1d1d1" fill-opacity="0.5" r="7.144660944635273" cx="-143.85462292158704" cy="-101.99750862548713"></circle><circle fill="#d1d1d1" fill-opacity="0.5" r="7.256464283574756" cx="-127.82821123085843" cy="-89.19332577374244"></circle><circle fill="#d1d1d1" fill-opacity="0.5" r="7.399322456594788" cx="-110.27414109582239" cy="-75.91513024743789"></circle><circle fill="#d1d1d1" fill-opacity="0.5" r="7.572577583757187" cx="-91.40219894167865" cy="-62.23348823434759"></circle><circle fill="#d1d1d1" fill-opacity="0.5" r="7.775431803309045" cx="-71.4379209119318" cy="-48.22111001482789"></circle><circle fill="#d1d1d1" fill-opacity="0.5" r="8.006950945936838" cx="-50.61989751507112" cy="-33.95246354731932"></circle><circle fill="#d1d1d1" fill-opacity="0.5" r="8.26606883673426" cx="-29.196922260210023" cy="-19.503378712764928"></circle><circle fill="#d1d1d1" fill-opacity="0.5" r="8.551592205072314" cx="-7.425018357993128" cy="-4.950644321178803"></circle><circle fill="#d1d1d1" fill-opacity="0.5" r="8.862206179761356" cx="14.435620979730682" cy="9.62839997796021"></circle><circle fill="#d1d1d1" fill-opacity="0.5" r="9.196480344199047" cx="36.12374207538303" cy="24.156274712720656"></circle><circle fill="#d1d1d1" fill-opacity="0.5" r="9.552875323619633" cx="57.38015299462111" cy="38.555772348807"></circle><circle fill="#d1d1d1" fill-opacity="0.5" r="9.92974987410917" cx="77.95082111566145" cy="52.750367604448286"></circle><circle fill="#d1d1d1" fill-opacity="0.5" r="10.325368440741158" cx="97.58990904034881" cy="66.66462413950417"></circle><circle fill="#d1d1d1" fill-opacity="0.5" r="10.737909150026287" cx="116.06271256514233" cy="80.22459545744532"></circle><circle fill="#d1d1d1" fill-opacity="0.5" r="11.165472199870068" cx="133.14846560075227" cy="93.35821788965532"></circle><circle fill="#d1d1d1" fill-opacity="0.5" r="11.606088608401514" cx="148.64297851915222" cy="105.99569357354986"></circle><circle fill="#d1d1d1" fill-opacity="0.5" r="12.057729281383539" cx="162.36107839746276" cy="118.06986138920644"></circle><circle fill="#d1d1d1" fill-opacity="0.5" r="12.518314356448169" cx="174.13882199563423" cy="129.516553883178"></circle><circle fill="#d1d1d1" fill-opacity="0.5" r="12.985722781125665" cx="183.8354550209367" cy="140.2749382826433"></circle><circle fill="#d1d1d1" fill-opacity="0.5" r="13.457802080559118" cx="191.335094264337" cy="150.2878397875947"></circle><circle fill="#d1d1d1" fill-opacity="0.5" r="13.93237826992318" cx="196.548112505763" cy="159.50204542294375"></circle><circle fill="#d1d1d1" fill-opacity="0.5" r="14.407265865898871" cx="199.41220963743572" cy="167.86858683574127"></circle><circle fill="#d1d1d1" fill-opacity="0.5" r="14.88027795110038" cx="199.8931572044123" cy="175.34300053460552"></circle><circle fill="#d1d1d1" fill-opacity="0.5" r="15.349236245106061" cx="197.9852074644314" cy="181.8855641883254"></circle><circle fill="#d1d1d1" fill-opacity="0.5" r="15.811981135714866" cx="193.71116207843656" cy="187.46150772785103"></circle><circle fill="#d1d1d1" fill-opacity="0.5" r="16.266381624233606" cx="187.122099610873" cy="192.04119812977515"></circle><circle fill="#d1d1d1" fill-opacity="0.5" r="16.71034513899501" cx="178.29676509636064" cy="195.60029689929223"></circle><circle fill="#d1d1d1" fill-opacity="0.5" r="17.141827171914873" cx="167.3406289679519" cy="198.11988941569336"></circle><circle fill="#d1d1d1" fill-opacity="0.5" r="17.55884069370994" cx="154.38462659360866" cy="199.58658545300437"></circle><circle fill="#d1d1d1" fill-opacity="0.5" r="17.959465304418927" cx="139.58359348453254" cy="199.99259034155276"></circle><circle fill="#d1d1d1" fill-opacity="0.5" r="18.341856077087012" cx="123.11441487595813" cy="199.3357463922796"></circle><circle fill="#d1d1d1" fill-opacity="0.5" r="18.704252053887522" cx="105.17391179456138" cy="197.61954436365286"></circle><circle fill="#d1d1d1" fill-opacity="0.5" r="19.044984355555314" cx="85.9764888757773" cy="194.85310491023438"></circle><circle fill="#d1d1d1" fill-opacity="0.5" r="19.362483866786626" cx="65.75157204169557" cy="191.05113011150166"></circle><circle fill="#d1d1d1" fill-opacity="0.5" r="19.65528846221329" cx="44.740866661495424" cy="186.23382533850994"></circle></g></svg>