<svg width="500" height="500" style="background: rgb(144, 101, 172);" version="1.1" xmlns="http://www.w3.org/2000/svg"><g transform="translate(0,0)skewX(10.195240774022746)skewY(17.206308888303266)"><rect x="0" y="0" width="50" height="25" fill-opacity="0.9" fill="#d1d1d1"></rect><rect x="0" y="25" width="50" height="25" fill-opacity="0.9" fill="#111"></rect></g><g transform="translate(50,0)skewX(-8.970097586064046)skewY(17.875607662300265)"><rect x="0" y="0" width="50" height="25" fill-opacity="0.9" fill="#d1d1d1"></rect><rect x="0" y="25" width="50" height="25" fill-opacity="0.9" fill="#111"></rect></g><g transform="translate(100,0)skewX(-19.888369593248015)skewY(2.110155189166769)"><rect x="0" y="0" width="50" height="25" fill-opacity="0.9" fill="#d1d1d1"></rect><rect x="0" y="25" width="50" height="25" fill-opacity="0.9" fill="#111"></rect></g><g transform="translate(150,0)skewX(-12.52136631631535)skewY(-15.5953642334074)"><rect x="0" y="0" width="50" height="25" fill-opacity="0.9" fill="#d1d1d1"></rect><rect x="0" y="25" width="50" height="25" fill-opacity="0.9" fill="#111"></rect></g><g transform="translate(200,0)skewX(6.35772340659833)skewY(-18.962577701493824)"><rect x="0" y="0" width="50" height="25" fill-opacity="0.9" fill="#d1d1d1"></rect><rect x="0" y="25" width="50" height="25" fill-opacity="0.9" fill="#111"></rect></g><g transform="translate(250,0)skewX(19.391551549629188)skewY(-4.895684681234366)"><rect x="0" y="0" width="50" height="25" fill-opacity="0.9" fill="#d1d1d1"></rect><rect x="0" y="25" width="50" height="25" fill-opacity="0.9" fill="#111"></rect></g><g transform="translate(300,0)skewX(14.596876626652762)skewY(13.672278257345301)"><rect x="0" y="0" width="50" height="25" fill-opacity="0.9" fill="#d1d1d1"></rect><rect x="0" y="25" width="50" height="25" fill-opacity="0.9" fill="#111"></rect></g><g transform="translate(350,0)skewX(-3.6180993499227014)skewY(19.670011619063366)"><rect x="0" y="0" width="50" height="25" fill-opacity="0.9" fill="#d1d1d1"></rect><rect x="0" y="25" width="50" height="25" fill-opacity="0.9" fill="#111"></rect></g><g transform="translate(400,0)skewX(-18.506611469899273)skewY(7.58322701112077)"><rect x="0" y="0" width="50" height="25" fill-opacity="0.9" fill="#d1d1d1"></rect><rect x="0" y="25" width="50" height="25" fill-opacity="0.9" fill="#111"></rect></g><g transform="translate(450,0)skewX(-16.380230352061986)skewY(-11.47554153900314)"><rect x="0" y="0" width="50" height="25" fill-opacity="0.9" fill="#d1d1d1"></rect><rect x="0" y="25" width="50" height="25" fill-opacity="0.9" fill="#111"></rect></g><g transform="translate(0,50)skewX(-8.970097586064046)skewY(17.875607662300265)"><rect x="0" y="0" width="50" height="25" fill-opacity="0.9" fill="#d1d1d1"></rect><rect x="0" y="25" width="50" height="25" fill-opacity="0.9" fill="#111"></rect></g><g transform="translate(50,50)skewX(-19.888369593248015)skewY(2.110155189166769)"><rect x="0" y="0" width="50" height="25" fill-opacity="0.9" fill="#d1d1d1"></rect><rect x="0" y="25" width="50" height="25" fill-opacity="0.9" fill="#111"></rect></g><g transform="translate(100,50)skewX(-12.52136631631535)skewY(-15.5953642334074)"><rect x="0" y="0" width="50" height="25" fill-opacity="0.9" fill="#d1d1d1"></rect><rect x="0" y="25" width="50" height="25" fill-opacity="0.9" fill="#111"></rect></g><g transform="translate(150,50)skewX(6.35772340659833)skewY(-18.962577701493824)"><rect x="0" y="0" width="50" height="25" fill-opacity="0.9" fill="#d1d1d1"></rect><rect x="0" y="25" width="50" height="25" fill-opacity="0.9" fill="#111"></rect></g><g transform="translate(200,50)skewX(19.391551549629188)skewY(-4.895684681234366)"><rect x="0" y="0" width="50" height="25" fill-opacity="0.9" fill="#d1d1d1"></rect><rect x="0" y="25" width="50" height="25" fill-opacity="0.9" fill="#111"></rect></g><g transform="translate(250,50)skewX(14.596876626652762)skewY(13.672278257345301)"><rect x="0" y="0" width="50" height="25" fill-opacity="0.9" fill="#d1d1d1"></rect><rect x="0" y="25" width="50" height="25" fill-opacity="0.9" fill="#111"></rect></g><g transform="translate(300,50)skewX(-3.6180993499227014)skewY(19.670011619063366)"><rect x="0" y="0" width="50" height="25" fill-opacity="0.9" fill="#d1d1d1"></rect><rect x="0" y="25" width="50" height="25" fill-opacity="0.9" fill="#111"></rect></g><g transform="translate(350,50)skewX(-18.506611469899273)skewY(7.58322701112077)"><rect x="0" y="0" width="50" height="25" fill-opacity="0.9" fill="#d1d1d1"></rect><rect x="0" y="25" width="50" height="25" fill-opacity="0.9" fill="#111"></rect></g><g transform="translate(400,50)skewX(-16.380230352061986)skewY(-11.47554153900314)"><rect x="0" y="0" width="50" height="25" fill-opacity="0.9" fill="#d1d1d1"></rect><rect x="0" y="25" width="50" height="25" fill-opacity="0.9" fill="#111"></rect></g><g transform="translate(450,50)skewX(0.8060590101585203)skewY(-19.98375012033882)"><rect x="0" y="0" width="50" height="25" fill-opacity="0.9" fill="#d1d1d1"></rect><rect x="0" y="25" width="50" height="25" fill-opacity="0.9" fill="#111"></rect></g><g transform="translate(0,100)skewX(-19.888369593248015)skewY(2.110155189166769)"><rect x="0" y="0" width="50" height="25" fill-opacity="0.9" fill="#d1d1d1"></rect><rect x="0" y="25" width="50" height="25" fill-opacity="0.9" fill="#111"></rect></g><g transform="translate(50,100)skewX(-12.52136631631535)skewY(-15.5953642334074)"><rect x="0" y="0" width="50" height="25" fill-opacity="0.9" fill="#d1d1d1"></rect><rect x="0" y="25" width="50" height="25" fill-opacity="0.9" fill="#111"></rect></g><g transform="translate(100,100)skewX(6.35772340659833)skewY(-18.962577701493824)"><rect x="0" y="0" width="50" height="25" fill-opacity="0.9" fill="#d1d1d1"></rect><rect x="0" y="25" width="50" height="25" fill-opacity="0.9" fill="#111"></rect></g><g transform="translate(150,100)skewX(19.391551549629188)skewY(-4.895684681234366)"><rect x="0" y="0" width="50" height="25" fill-opacity="0.9" fill="#d1d1d1"></rect><rect x="0" y="25" width="50" height="25" fill-opacity="0.9" fill="#111"></rect></g><g transform="translate(200,100)skewX(14.596876626652762)skewY(13.672278257345301)"><rect x="0" y="0" width="50" height="25" fill-opacity="0.9" fill="#d1d1d1"></rect><rect x="0" y="25" width="50" height="25" fill-opacity="0.9" fill="#111"></rect></g><g transform="translate(250,100)skewX(-3.6180993499227014)skewY(19.670011619063366)"><rect x="0" y="0" width="50" height="25" fill-opacity="0.9" fill="#d1d1d1"></rect><rect x="0" y="25" width="50" height="25" fill-opacity="0.9" fill="#111"></rect></g><g transform="translate(300,100)skewX(-18.506611469899273)skewY(7.58322701112077)"><rect x="0" y="0" width="50" height="25" fill-opacity="0.9" fill="#d1d1d1"></rect><rect x="0" y="25" width="50" height="25" fill-opacity="0.9" fill="#111"></rect></g><g transform="translate(350,100)skewX(-16.380230352061986)skewY(-11.47554153900314)"><rect x="0" y="0" width="50" height="25" fill-opacity="0.9" fill="#d1d1d1"></rect><rect x="0" y="25" width="50" height="25" fill-opacity="0.9" fill="#111"></rect></g><g transform="translate(400,100)skewX(0.8060590101585203)skewY(-19.98375012033882)"><rect x="0" y="0" width="50" height="25" fill-opacity="0.9" fill="#d1d1d1"></rect><rect x="0" y="25" width="50" height="25" fill-opacity="0.9" fill="#111"></rect></g><g transform="translate(450,100)skewX(17.251261435770875)skewY(-10.118991000820412)"><rect x="0" y="0" width="50" height="25" fill-opacity="0.9" fill="#d1d1d1"></rect><rect x="0" y="25" width="50" height="25" fill-opacity="0.9" fill="#111"></rect></g><g transform="translate(0,150)skewX(-12.52136631631535)skewY(-15.5953642334074)"><rect x="0" y="0" width="50" height="25" fill-opacity="0.9" fill="#d1d1d1"></rect><rect x="0" y="25" width="50" height="25" fill-opacity="0.9" fill="#111"></rect></g><g transform="translate(50,150)skewX(6.35772340659833)skewY(-18.962577701493824)"><rect x="0" y="0" width="50" height="25" fill-opacity="0.9" fill="#d1d1d1"></rect><rect x="0" y="25" width="50" height="25" fill-opacity="0.9" fill="#111"></rect></g><g transform="translate(100,150)skewX(19.391551549629188)skewY(-4.895684681234366)"><rect x="0" y="0" width="50" height="25" fill-opacity="0.9" fill="#d1d1d1"></rect><rect x="0" y="25" width="50" height="25" fill-opacity="0.9" fill="#111"></rect></g><g transform="translate(150,150)skewX(14.596876626652762)skewY(13.672278257345301)"><rect x="0" y="0" width="50" height="25" fill-opacity="0.9" fill="#d1d1d1"></rect><rect x="0" y="25" width="50" height="25" fill-opacity="0.9" fill="#111"></rect></g><g transform="translate(200,150)skewX(-3.6180993499227014)skewY(19.670011619063366)"><rect x="0" y="0" width="50" height="25" fill-opacity="0.9" fill="#d1d1d1"></rect><rect x="0" y="25" width="50" height="25" fill-opacity="0.9" fill="#111"></rect></g><g transform="translate(250,150)skewX(-18.506611469899273)skewY(7.58322701112077)"><rect x="0" y="0" width="50" height="25" fill-opacity="0.9" fill="#d1d1d1"></rect><rect x="0" y="25" width="50" height="25" fill-opacity="0.9" fill="#111"></rect></g><g transform="translate(300,150)skewX(-16.380230352061986)skewY(-11.47554153900314)"><rect x="0" y="0" width="50" height="25" fill-opacity="0.9" fill="#d1d1d1"></rect><rect x="0" y="25" width="50" height="25" fill-opacity="0.9" fill="#111"></rect></g><g transform="translate(350,150)skewX(0.8060590101585203)skewY(-19.98375012033882)"><rect x="0" y="0" width="50" height="25" fill-opacity="0.9" fill="#d1d1d1"></rect><rect x="0" y="25" width="50" height="25" fill-opacity="0.9" fill="#111"></rect></g><g transform="translate(400,150)skewX(17.251261435770875)skewY(-10.118991000820412)"><rect x="0" y="0" width="50" height="25" fill-opacity="0.9" fill="#d1d1d1"></rect><rect x="0" y="25" width="50" height="25" fill-opacity="0.9" fill="#111"></rect></g><g transform="translate(450,150)skewX(17.835733655603715)skewY(9.04912177873438)"><rect x="0" y="0" width="50" height="25" fill-opacity="0.9" fill="#d1d1d1"></rect><rect x="0" y="25" width="50" height="25" fill-opacity="0.9" fill="#111"></rect></g><g transform="translate(0,200)skewX(6.35772340659833)skewY(-18.962577701493824)"><rect x="0" y="0" width="50" height="25" fill-opacity="0.9" fill="#d1d1d1"></rect><rect x="0" y="25" width="50" height="25" fill-opacity="0.9" fill="#111"></rect></g><g transform="translate(50,200)skewX(19.391551549629188)skewY(-4.895684681234366)"><rect x="0" y="0" width="50" height="25" fill-opacity="0.9" fill="#d1d1d1"></rect><rect x="0" y="25" width="50" height="25" fill-opacity="0.9" fill="#111"></rect></g><g transform="translate(100,200)skewX(14.596876626652762)skewY(13.672278257345301)"><rect x="0" y="0" width="50" height="25" fill-opacity="0.9" fill="#d1d1d1"></rect><rect x="0" y="25" width="50" height="25" fill-opacity="0.9" fill="#111"></rect></g><g transform="translate(150,200)skewX(-3.6180993499227014)skewY(19.670011619063366)"><rect x="0" y="0" width="50" height="25" fill-opacity="0.9" fill="#d1d1d1"></rect><rect x="0" y="25" width="50" height="25" fill-opacity="0.9" fill="#111"></rect></g><g transform="translate(200,200)skewX(-18.506611469899273)skewY(7.58322701112077)"><rect x="0" y="0" width="50" height="25" fill-opacity="0.9" fill="#d1d1d1"></rect><rect x="0" y="25" width="50" height="25" fill-opacity="0.9" fill="#111"></rect></g><g transform="translate(250,200)skewX(-16.380230352061986)skewY(-11.47554153900314)"><rect x="0" y="0" width="50" height="25" fill-opacity="0.9" fill="#d1d1d1"></rect><rect x="0" y="25" width="50" height="25" fill-opacity="0.9" fill="#111"></rect></g><g transform="translate(300,200)skewX(0.8060590101585203)skewY(-19.98375012033882)"><rect x="0" y="0" width="50" height="25" fill-opacity="0.9" fill="#d1d1d1"></rect><rect x="0" y="25" width="50" height="25" fill-opacity="0.9" fill="#111"></rect></g><g transform="translate(350,200)skewX(17.251261435770875)skewY(-10.118991000820412)"><rect x="0" y="0" width="50" height="25" fill-opacity="0.9" fill="#d1d1d1"></rect><rect x="0" y="25" width="50" height="25" fill-opacity="0.9" fill="#111"></rect></g><g transform="translate(400,200)skewX(17.835733655603715)skewY(9.04912177873438)"><rect x="0" y="0" width="50" height="25" fill-opacity="0.9" fill="#d1d1d1"></rect><rect x="0" y="25" width="50" height="25" fill-opacity="0.9" fill="#111"></rect></g><g transform="translate(450,200)skewX(2.0221146061744686)skewY(19.89751372708399)"><rect x="0" y="0" width="50" height="25" fill-opacity="0.9" fill="#d1d1d1"></rect><rect x="0" y="25" width="50" height="25" fill-opacity="0.9" fill="#111"></rect></g><g transform="translate(0,250)skewX(19.391551549629188)skewY(-4.895684681234366)"><rect x="0" y="0" width="50" height="25" fill-opacity="0.9" fill="#d1d1d1"></rect><rect x="0" y="25" width="50" height="25" fill-opacity="0.9" fill="#111"></rect></g><g transform="translate(50,250)skewX(14.596876626652762)skewY(13.672278257345301)"><rect x="0" y="0" width="50" height="25" fill-opacity="0.9" fill="#d1d1d1"></rect><rect x="0" y="25" width="50" height="25" fill-opacity="0.9" fill="#111"></rect></g><g transform="translate(100,250)skewX(-3.6180993499227014)skewY(19.670011619063366)"><rect x="0" y="0" width="50" height="25" fill-opacity="0.9" fill="#d1d1d1"></rect><rect x="0" y="25" width="50" height="25" fill-opacity="0.9" fill="#111"></rect></g><g transform="translate(150,250)skewX(-18.506611469899273)skewY(7.58322701112077)"><rect x="0" y="0" width="50" height="25" fill-opacity="0.9" fill="#d1d1d1"></rect><rect x="0" y="25" width="50" height="25" fill-opacity="0.9" fill="#111"></rect></g><g transform="translate(200,250)skewX(-16.380230352061986)skewY(-11.47554153900314)"><rect x="0" y="0" width="50" height="25" fill-opacity="0.9" fill="#d1d1d1"></rect><rect x="0" y="25" width="50" height="25" fill-opacity="0.9" fill="#111"></rect></g><g transform="translate(250,250)skewX(0.8060590101585203)skewY(-19.98375012033882)"><rect x="0" y="0" width="50" height="25" fill-opacity="0.9" fill="#d1d1d1"></rect><rect x="0" y="25" width="50" height="25" fill-opacity="0.9" fill="#111"></rect></g><g transform="translate(300,250)skewX(17.251261435770875)skewY(-10.118991000820412)"><rect x="0" y="0" width="50" height="25" fill-opacity="0.9" fill="#d1d1d1"></rect><rect x="0" y="25" width="50" height="25" fill-opacity="0.9" fill="#111"></rect></g><g transform="translate(350,250)skewX(17.835733655603715)skewY(9.04912177873438)"><rect x="0" y="0" width="50" height="25" fill-opacity="0.9" fill="#d1d1d1"></rect><rect x="0" y="25" width="50" height="25" fill-opacity="0.9" fill="#111"></rect></g><g transform="translate(400,250)skewX(2.0221146061744686)skewY(19.89751372708399)"><rect x="0" y="0" width="50" height="25" fill-opacity="0.9" fill="#d1d1d1"></rect><rect x="0" y="25" width="50" height="25" fill-opacity="0.9" fill="#111"></rect></g><g transform="translate(450,250)skewX(-15.65062728671229)skewY(12.4522233168385)"><rect x="0" y="0" width="50" height="25" fill-opacity="0.9" fill="#d1d1d1"></rect><rect x="0" y="25" width="50" height="25" fill-opacity="0.9" fill="#111"></rect></g><g transform="translate(0,300)skewX(14.596876626652762)skewY(13.672278257345301)"><rect x="0" y="0" width="50" height="25" fill-opacity="0.9" fill="#d1d1d1"></rect><rect x="0" y="25" width="50" height="25" fill-opacity="0.9" fill="#111"></rect></g><g transform="translate(50,300)skewX(-3.6180993499227014)skewY(19.670011619063366)"><rect x="0" y="0" width="50" height="25" fill-opacity="0.9" fill="#d1d1d1"></rect><rect x="0" y="25" width="50" height="25" fill-opacity="0.9" fill="#111"></rect></g><g transform="translate(100,300)skewX(-18.506611469899273)skewY(7.58322701112077)"><rect x="0" y="0" width="50" height="25" fill-opacity="0.9" fill="#d1d1d1"></rect><rect x="0" y="25" width="50" height="25" fill-opacity="0.9" fill="#111"></rect></g><g transform="translate(150,300)skewX(-16.380230352061986)skewY(-11.47554153900314)"><rect x="0" y="0" width="50" height="25" fill-opacity="0.9" fill="#d1d1d1"></rect><rect x="0" y="25" width="50" height="25" fill-opacity="0.9" fill="#111"></rect></g><g transform="translate(200,300)skewX(0.8060590101585203)skewY(-19.98375012033882)"><rect x="0" y="0" width="50" height="25" fill-opacity="0.9" fill="#d1d1d1"></rect><rect x="0" y="25" width="50" height="25" fill-opacity="0.9" fill="#111"></rect></g><g transform="translate(250,300)skewX(17.251261435770875)skewY(-10.118991000820412)"><rect x="0" y="0" width="50" height="25" fill-opacity="0.9" fill="#d1d1d1"></rect><rect x="0" y="25" width="50" height="25" fill-opacity="0.9" fill="#111"></rect></g><g transform="translate(300,300)skewX(17.835733655603715)skewY(9.04912177873438)"><rect x="0" y="0" width="50" height="25" fill-opacity="0.9" fill="#d1d1d1"></rect><rect x="0" y="25" width="50" height="25" fill-opacity="0.9" fill="#111"></rect></g><g transform="translate(350,300)skewX(2.0221146061744686)skewY(19.89751372708399)"><rect x="0" y="0" width="50" height="25" fill-opacity="0.9" fill="#d1d1d1"></rect><rect x="0" y="25" width="50" height="25" fill-opacity="0.9" fill="#111"></rect></g><g transform="translate(400,300)skewX(-15.65062728671229)skewY(12.4522233168385)"><rect x="0" y="0" width="50" height="25" fill-opacity="0.9" fill="#d1d1d1"></rect><rect x="0" y="25" width="50" height="25" fill-opacity="0.9" fill="#111"></rect></g><g transform="translate(450,300)skewX(-18.934254628761416)skewY(-6.441583784538265)"><rect x="0" y="0" width="50" height="25" fill-opacity="0.9" fill="#d1d1d1"></rect><rect x="0" y="25" width="50" height="25" fill-opacity="0.9" fill="#111"></rect></g><g transform="translate(0,350)skewX(-3.6180993499227014)skewY(19.670011619063366)"><rect x="0" y="0" width="50" height="25" fill-opacity="0.9" fill="#d1d1d1"></rect><rect x="0" y="25" width="50" height="25" fill-opacity="0.9" fill="#111"></rect></g><g transform="translate(50,350)skewX(-18.506611469899273)skewY(7.58322701112077)"><rect x="0" y="0" width="50" height="25" fill-opacity="0.9" fill="#d1d1d1"></rect><rect x="0" y="25" width="50" height="25" fill-opacity="0.9" fill="#111"></rect></g><g transform="translate(100,350)skewX(-16.380230352061986)skewY(-11.47554153900314)"><rect x="0" y="0" width="50" height="25" fill-opacity="0.9" fill="#d1d1d1"></rect><rect x="0" y="25" width="50" height="25" fill-opacity="0.9" fill="#111"></rect></g><g transform="translate(150,350)skewX(0.8060590101585203)skewY(-19.98375012033882)"><rect x="0" y="0" width="50" height="25" fill-opacity="0.9" fill="#d1d1d1"></rect><rect x="0" y="25" width="50" height="25" fill-opacity="0.9" fill="#111"></rect></g><g transform="translate(200,350)skewX(17.251261435770875)skewY(-10.118991000820412)"><rect x="0" y="0" width="50" height="25" fill-opacity="0.9" fill="#d1d1d1"></rect><rect x="0" y="25" width="50" height="25" fill-opacity="0.9" fill="#111"></rect></g><g transform="translate(250,350)skewX(17.835733655603715)skewY(9.04912177873438)"><rect x="0" y="0" width="50" height="25" fill-opacity="0.9" fill="#d1d1d1"></rect><rect x="0" y="25" width="50" height="25" fill-opacity="0.9" fill="#111"></rect></g><g transform="translate(300,350)skewX(2.0221146061744686)skewY(19.89751372708399)"><rect x="0" y="0" width="50" height="25" fill-opacity="0.9" fill="#d1d1d1"></rect><rect x="0" y="25" width="50" height="25" fill-opacity="0.9" fill="#111"></rect></g><g transform="translate(350,350)skewX(-15.65062728671229)skewY(12.4522233168385)"><rect x="0" y="0" width="50" height="25" fill-opacity="0.9" fill="#d1d1d1"></rect><rect x="0" y="25" width="50" height="25" fill-opacity="0.9" fill="#111"></rect></g><g transform="translate(400,350)skewX(-18.934254628761416)skewY(-6.441583784538265)"><rect x="0" y="0" width="50" height="25" fill-opacity="0.9" fill="#d1d1d1"></rect><rect x="0" y="25" width="50" height="25" fill-opacity="0.9" fill="#111"></rect></g><g transform="translate(450,350)skewX(-4.809815584916294)skewY(-19.41302846129618)"><rect x="0" y="0" width="50" height="25" fill-opacity="0.9" fill="#d1d1d1"></rect><rect x="0" y="25" width="50" height="25" fill-opacity="0.9" fill="#111"></rect></g><g transform="translate(0,400)skewX(-18.506611469899273)skewY(7.58322701112077)"><rect x="0" y="0" width="50" height="25" fill-opacity="0.9" fill="#d1d1d1"></rect><rect x="0" y="25" width="50" height="25" fill-opacity="0.9" fill="#111"></rect></g><g transform="translate(50,400)skewX(-16.380230352061986)skewY(-11.47554153900314)"><rect x="0" y="0" width="50" height="25" fill-opacity="0.9" fill="#d1d1d1"></rect><rect x="0" y="25" width="50" height="25" fill-opacity="0.9" fill="#111"></rect></g><g transform="translate(100,400)skewX(0.8060590101585203)skewY(-19.98375012033882)"><rect x="0" y="0" width="50" height="25" fill-opacity="0.9" fill="#d1d1d1"></rect><rect x="0" y="25" width="50" height="25" fill-opacity="0.9" fill="#111"></rect></g><g transform="translate(150,400)skewX(17.251261435770875)skewY(-10.118991000820412)"><rect x="0" y="0" width="50" height="25" fill-opacity="0.9" fill="#d1d1d1"></rect><rect x="0" y="25" width="50" height="25" fill-opacity="0.9" fill="#111"></rect></g><g transform="translate(200,400)skewX(17.835733655603715)skewY(9.04912177873438)"><rect x="0" y="0" width="50" height="25" fill-opacity="0.9" fill="#d1d1d1"></rect><rect x="0" y="25" width="50" height="25" fill-opacity="0.9" fill="#111"></rect></g><g transform="translate(250,400)skewX(2.0221146061744686)skewY(19.89751372708399)"><rect x="0" y="0" width="50" height="25" fill-opacity="0.9" fill="#d1d1d1"></rect><rect x="0" y="25" width="50" height="25" fill-opacity="0.9" fill="#111"></rect></g><g transform="translate(300,400)skewX(-15.65062728671229)skewY(12.4522233168385)"><rect x="0" y="0" width="50" height="25" fill-opacity="0.9" fill="#d1d1d1"></rect><rect x="0" y="25" width="50" height="25" fill-opacity="0.9" fill="#111"></rect></g><g transform="translate(350,400)skewX(-18.934254628761416)skewY(-6.441583784538265)"><rect x="0" y="0" width="50" height="25" fill-opacity="0.9" fill="#d1d1d1"></rect><rect x="0" y="25" width="50" height="25" fill-opacity="0.9" fill="#111"></rect></g><g transform="translate(400,400)skewX(-4.809815584916294)skewY(-19.41302846129618)"><rect x="0" y="0" width="50" height="25" fill-opacity="0.9" fill="#d1d1d1"></rect><rect x="0" y="25" width="50" height="25" fill-opacity="0.9" fill="#111"></rect></g><g transform="translate(450,400)skewX(13.736745726099823)skewY(-14.536224298506031)"><rect x="0" y="0" width="50" height="25" fill-opacity="0.9" fill="#d1d1d1"></rect><rect x="0" y="25" width="50" height="25" fill-opacity="0.9" fill="#111"></rect></g><g transform="translate(0,450)skewX(-16.380230352061986)skewY(-11.47554153900314)"><rect x="0" y="0" width="50" height="25" fill-opacity="0.9" fill="#d1d1d1"></rect><rect x="0" y="25" width="50" height="25" fill-opacity="0.9" fill="#111"></rect></g><g transform="translate(50,450)skewX(0.8060590101585203)skewY(-19.98375012033882)"><rect x="0" y="0" width="50" height="25" fill-opacity="0.9" fill="#d1d1d1"></rect><rect x="0" y="25" width="50" height="25" fill-opacity="0.9" fill="#111"></rect></g><g transform="translate(100,450)skewX(17.251261435770875)skewY(-10.118991000820412)"><rect x="0" y="0" width="50" height="25" fill-opacity="0.9" fill="#d1d1d1"></rect><rect x="0" y="25" width="50" height="25" fill-opacity="0.9" fill="#111"></rect></g><g transform="translate(150,450)skewX(17.835733655603715)skewY(9.04912177873438)"><rect x="0" y="0" width="50" height="25" fill-opacity="0.9" fill="#d1d1d1"></rect><rect x="0" y="25" width="50" height="25" fill-opacity="0.9" fill="#111"></rect></g><g transform="translate(200,450)skewX(2.0221146061744686)skewY(19.89751372708399)"><rect x="0" y="0" width="50" height="25" fill-opacity="0.9" fill="#d1d1d1"></rect><rect x="0" y="25" width="50" height="25" fill-opacity="0.9" fill="#111"></rect></g><g transform="translate(250,450)skewX(-15.65062728671229)skewY(12.4522233168385)"><rect x="0" y="0" width="50" height="25" fill-opacity="0.9" fill="#d1d1d1"></rect><rect x="0" y="25" width="50" height="25" fill-opacity="0.9" fill="#111"></rect></g><g transform="translate(300,450)skewX(-18.934254628761416)skewY(-6.441583784538265)"><rect x="0" y="0" width="50" height="25" fill-opacity="0.9" fill="#d1d1d1"></rect><rect x="0" y="25" width="50" height="25" fill-opacity="0.9" fill="#111"></rect></g><g transform="translate(350,450)skewX(-4.809815584916294)skewY(-19.41302846129618)"><rect x="0" y="0" width="50" height="25" fill-opacity="0.9" fill="#d1d1d1"></rect><rect x="0" y="25" width="50" height="25" fill-opacity="0.9" fill="#111"></rect></g><g transform="translate(400,450)skewX(13.736745726099823)skewY(-14.536224298506031)"><rect x="0" y="0" width="50" height="25" fill-opacity="0.9" fill="#d1d1d1"></rect><rect x="0" y="25" width="50" height="25" fill-opacity="0.9" fill="#111"></rect></g><g transform="translate(450,450)skewX(19.653806366788388)skewY(3.7051174470975927)"><rect x="0" y="0" width="50" height="25" fill-opacity="0.9" fill="#d1d1d1"></rect><rect x="0" y="25" width="50" height="25" fill-opacity="0.9" fill="#111"></rect></g></svg>