<svg xmlns="http://www.w3.org/2000/svg" version="1.1" style="background: none repeat scroll 0% 0% rgb(75, 200, 72);" height="500" width="500"><g transform="translate(-20,-15)"><path d="M0,-62.5m137.7275748796324,-200.8844782560905l81.99024289579799,95.77720430014966l23.117031060142864,123.94061347528073l-41.95037057948278,118.89423536029248l-95.77720430014959,81.99024289579799l-123.94061347528073,23.117031060142892l-118.89423536029247,-41.950370579482694l-81.99024289579802,-95.77720430014956l-23.11703106014295,-123.94061347528083l41.95037057948275,-118.89423536029254l95.77720430014949,-81.99024289579796l123.9406134752806,-23.117031060142978l118.89423536029261,41.95037057948264zM108.25317547305482,-62.5m137.7275748796324,-200.8844782560905l81.99024289579799,95.77720430014966l23.117031060142864,123.94061347528073l-41.95037057948278,118.89423536029248l-95.77720430014959,81.99024289579799l-123.94061347528073,23.117031060142892l-118.89423536029247,-41.950370579482694l-81.99024289579802,-95.77720430014956l-23.11703106014295,-123.94061347528083l41.95037057948275,-118.89423536029254l95.77720430014949,-81.99024289579796l123.9406134752806,-23.117031060142978l118.89423536029261,41.95037057948264zM216.50635094610965,-62.5m137.7275748796324,-200.8844782560905l81.99024289579799,95.77720430014966l23.117031060142864,123.94061347528073l-41.95037057948278,118.89423536029248l-95.77720430014959,81.99024289579799l-123.94061347528073,23.117031060142892l-118.89423536029247,-41.950370579482694l-81.99024289579802,-95.77720430014956l-23.11703106014295,-123.94061347528083l41.95037057948275,-118.89423536029254l95.77720430014949,-81.99024289579796l123.9406134752806,-23.117031060142978l118.89423536029261,41.95037057948264zM324.75952641916444,-62.5m137.7275748796324,-200.8844782560905l81.99024289579799,95.77720430014966l23.117031060142864,123.94061347528073l-41.95037057948278,118.89423536029248l-95.77720430014959,81.99024289579799l-123.94061347528073,23.117031060142892l-118.89423536029247,-41.950370579482694l-81.99024289579802,-95.77720430014956l-23.11703106014295,-123.94061347528083l41.95037057948275,-118.89423536029254l95.77720430014949,-81.99024289579796l123.9406134752806,-23.117031060142978l118.89423536029261,41.95037057948264zM433.0127018922193,-62.5m137.7275748796324,-200.8844782560905l81.99024289579799,95.77720430014966l23.117031060142864,123.94061347528073l-41.95037057948278,118.89423536029248l-95.77720430014959,81.99024289579799l-123.94061347528073,23.117031060142892l-118.89423536029247,-41.950370579482694l-81.99024289579802,-95.77720430014956l-23.11703106014295,-123.94061347528083l41.95037057948275,-118.89423536029254l95.77720430014949,-81.99024289579796l123.9406134752806,-23.117031060142978l118.89423536029261,41.95037057948264zM541.2658773652742,-62.5m137.7275748796324,-200.8844782560905l81.99024289579799,95.77720430014966l23.117031060142864,123.94061347528073l-41.95037057948278,118.89423536029248l-95.77720430014959,81.99024289579799l-123.94061347528073,23.117031060142892l-118.89423536029247,-41.950370579482694l-81.99024289579802,-95.77720430014956l-23.11703106014295,-123.94061347528083l41.95037057948275,-118.89423536029254l95.77720430014949,-81.99024289579796l123.9406134752806,-23.117031060142978l118.89423536029261,41.95037057948264zM-54.12658773652741,31.25m137.7275748796324,-200.8844782560905l81.99024289579799,95.77720430014966l23.117031060142864,123.94061347528073l-41.95037057948278,118.89423536029248l-95.77720430014959,81.99024289579799l-123.94061347528073,23.117031060142892l-118.89423536029247,-41.950370579482694l-81.99024289579802,-95.77720430014956l-23.11703106014295,-123.94061347528083l41.95037057948275,-118.89423536029254l95.77720430014949,-81.99024289579796l123.9406134752806,-23.117031060142978l118.89423536029261,41.95037057948264zM54.12658773652741,31.25m137.7275748796324,-200.8844782560905l81.99024289579799,95.77720430014966l23.117031060142864,123.94061347528073l-41.95037057948278,118.89423536029248l-95.77720430014959,81.99024289579799l-123.94061347528073,23.117031060142892l-118.89423536029247,-41.950370579482694l-81.99024289579802,-95.77720430014956l-23.11703106014295,-123.94061347528083l41.95037057948275,-118.89423536029254l95.77720430014949,-81.99024289579796l123.9406134752806,-23.117031060142978l118.89423536029261,41.95037057948264zM162.37976320958222,31.25m137.7275748796324,-200.8844782560905l81.99024289579799,95.77720430014966l23.117031060142864,123.94061347528073l-41.95037057948278,118.89423536029248l-95.77720430014959,81.99024289579799l-123.94061347528073,23.117031060142892l-118.89423536029247,-41.950370579482694l-81.99024289579802,-95.77720430014956l-23.11703106014295,-123.94061347528083l41.95037057948275,-118.89423536029254l95.77720430014949,-81.99024289579796l123.9406134752806,-23.117031060142978l118.89423536029261,41.95037057948264zM270.632938682637,31.25m137.7275748796324,-200.8844782560905l81.99024289579799,95.77720430014966l23.117031060142864,123.94061347528073l-41.95037057948278,118.89423536029248l-95.77720430014959,81.99024289579799l-123.94061347528073,23.117031060142892l-118.89423536029247,-41.950370579482694l-81.99024289579802,-95.77720430014956l-23.11703106014295,-123.94061347528083l41.95037057948275,-118.89423536029254l95.77720430014949,-81.99024289579796l123.9406134752806,-23.117031060142978l118.89423536029261,41.95037057948264zM378.88611415569187,31.25m137.7275748796324,-200.8844782560905l81.99024289579799,95.77720430014966l23.117031060142864,123.94061347528073l-41.95037057948278,118.89423536029248l-95.77720430014959,81.99024289579799l-123.94061347528073,23.117031060142892l-118.89423536029247,-41.950370579482694l-81.99024289579802,-95.77720430014956l-23.11703106014295,-123.94061347528083l41.95037057948275,-118.89423536029254l95.77720430014949,-81.99024289579796l123.9406134752806,-23.117031060142978l118.89423536029261,41.95037057948264zM487.1392896287467,31.25m137.7275748796324,-200.8844782560905l81.99024289579799,95.77720430014966l23.117031060142864,123.94061347528073l-41.95037057948278,118.89423536029248l-95.77720430014959,81.99024289579799l-123.94061347528073,23.117031060142892l-118.89423536029247,-41.950370579482694l-81.99024289579802,-95.77720430014956l-23.11703106014295,-123.94061347528083l41.95037057948275,-118.89423536029254l95.77720430014949,-81.99024289579796l123.9406134752806,-23.117031060142978l118.89423536029261,41.95037057948264zM595.3924651018016,31.25m137.7275748796324,-200.8844782560905l81.99024289579799,95.77720430014966l23.117031060142864,123.94061347528073l-41.95037057948278,118.89423536029248l-95.77720430014959,81.99024289579799l-123.94061347528073,23.117031060142892l-118.89423536029247,-41.950370579482694l-81.99024289579802,-95.77720430014956l-23.11703106014295,-123.94061347528083l41.95037057948275,-118.89423536029254l95.77720430014949,-81.99024289579796l123.9406134752806,-23.117031060142978l118.89423536029261,41.95037057948264zM0,125m137.7275748796324,-200.8844782560905l81.99024289579799,95.77720430014966l23.117031060142864,123.94061347528073l-41.95037057948278,118.89423536029248l-95.77720430014959,81.99024289579799l-123.94061347528073,23.117031060142892l-118.89423536029247,-41.950370579482694l-81.99024289579802,-95.77720430014956l-23.11703106014295,-123.94061347528083l41.95037057948275,-118.89423536029254l95.77720430014949,-81.99024289579796l123.9406134752806,-23.117031060142978l118.89423536029261,41.95037057948264zM108.25317547305482,125m137.7275748796324,-200.8844782560905l81.99024289579799,95.77720430014966l23.117031060142864,123.94061347528073l-41.95037057948278,118.89423536029248l-95.77720430014959,81.99024289579799l-123.94061347528073,23.117031060142892l-118.89423536029247,-41.950370579482694l-81.99024289579802,-95.77720430014956l-23.11703106014295,-123.94061347528083l41.95037057948275,-118.89423536029254l95.77720430014949,-81.99024289579796l123.9406134752806,-23.117031060142978l118.89423536029261,41.95037057948264zM216.50635094610965,125m137.7275748796324,-200.8844782560905l81.99024289579799,95.77720430014966l23.117031060142864,123.94061347528073l-41.95037057948278,118.89423536029248l-95.77720430014959,81.99024289579799l-123.94061347528073,23.117031060142892l-118.89423536029247,-41.950370579482694l-81.99024289579802,-95.77720430014956l-23.11703106014295,-123.94061347528083l41.95037057948275,-118.89423536029254l95.77720430014949,-81.99024289579796l123.9406134752806,-23.117031060142978l118.89423536029261,41.95037057948264zM324.75952641916444,125m137.7275748796324,-200.8844782560905l81.99024289579799,95.77720430014966l23.117031060142864,123.94061347528073l-41.95037057948278,118.89423536029248l-95.77720430014959,81.99024289579799l-123.94061347528073,23.117031060142892l-118.89423536029247,-41.950370579482694l-81.99024289579802,-95.77720430014956l-23.11703106014295,-123.94061347528083l41.95037057948275,-118.89423536029254l95.77720430014949,-81.99024289579796l123.9406134752806,-23.117031060142978l118.89423536029261,41.95037057948264zM433.0127018922193,125m137.7275748796324,-200.8844782560905l81.99024289579799,95.77720430014966l23.117031060142864,123.94061347528073l-41.95037057948278,118.89423536029248l-95.77720430014959,81.99024289579799l-123.94061347528073,23.117031060142892l-118.89423536029247,-41.950370579482694l-81.99024289579802,-95.77720430014956l-23.11703106014295,-123.94061347528083l41.95037057948275,-118.89423536029254l95.77720430014949,-81.99024289579796l123.9406134752806,-23.117031060142978l118.89423536029261,41.95037057948264zM541.2658773652742,125m137.7275748796324,-200.8844782560905l81.99024289579799,95.77720430014966l23.117031060142864,123.94061347528073l-41.95037057948278,118.89423536029248l-95.77720430014959,81.99024289579799l-123.94061347528073,23.117031060142892l-118.89423536029247,-41.950370579482694l-81.99024289579802,-95.77720430014956l-23.11703106014295,-123.94061347528083l41.95037057948275,-118.89423536029254l95.77720430014949,-81.99024289579796l123.9406134752806,-23.117031060142978l118.89423536029261,41.95037057948264zM-54.12658773652741,218.75m137.7275748796324,-200.8844782560905l81.99024289579799,95.77720430014966l23.117031060142864,123.94061347528073l-41.95037057948278,118.89423536029248l-95.77720430014959,81.99024289579799l-123.94061347528073,23.117031060142892l-118.89423536029247,-41.950370579482694l-81.99024289579802,-95.77720430014956l-23.11703106014295,-123.94061347528083l41.95037057948275,-118.89423536029254l95.77720430014949,-81.99024289579796l123.9406134752806,-23.117031060142978l118.89423536029261,41.95037057948264zM54.12658773652741,218.75m137.7275748796324,-200.8844782560905l81.99024289579799,95.77720430014966l23.117031060142864,123.94061347528073l-41.95037057948278,118.89423536029248l-95.77720430014959,81.99024289579799l-123.94061347528073,23.117031060142892l-118.89423536029247,-41.950370579482694l-81.99024289579802,-95.77720430014956l-23.11703106014295,-123.94061347528083l41.95037057948275,-118.89423536029254l95.77720430014949,-81.99024289579796l123.9406134752806,-23.117031060142978l118.89423536029261,41.95037057948264zM162.37976320958222,218.75m137.7275748796324,-200.8844782560905l81.99024289579799,95.77720430014966l23.117031060142864,123.94061347528073l-41.95037057948278,118.89423536029248l-95.77720430014959,81.99024289579799l-123.94061347528073,23.117031060142892l-118.89423536029247,-41.950370579482694l-81.99024289579802,-95.77720430014956l-23.11703106014295,-123.94061347528083l41.95037057948275,-118.89423536029254l95.77720430014949,-81.99024289579796l123.9406134752806,-23.117031060142978l118.89423536029261,41.95037057948264zM270.632938682637,218.75m137.7275748796324,-200.8844782560905l81.99024289579799,95.77720430014966l23.117031060142864,123.94061347528073l-41.95037057948278,118.89423536029248l-95.77720430014959,81.99024289579799l-123.94061347528073,23.117031060142892l-118.89423536029247,-41.950370579482694l-81.99024289579802,-95.77720430014956l-23.11703106014295,-123.94061347528083l41.95037057948275,-118.89423536029254l95.77720430014949,-81.99024289579796l123.9406134752806,-23.117031060142978l118.89423536029261,41.95037057948264zM378.88611415569187,218.75m137.7275748796324,-200.8844782560905l81.99024289579799,95.77720430014966l23.117031060142864,123.94061347528073l-41.95037057948278,118.89423536029248l-95.77720430014959,81.99024289579799l-123.94061347528073,23.117031060142892l-118.89423536029247,-41.950370579482694l-81.99024289579802,-95.77720430014956l-23.11703106014295,-123.94061347528083l41.95037057948275,-118.89423536029254l95.77720430014949,-81.99024289579796l123.9406134752806,-23.117031060142978l118.89423536029261,41.95037057948264zM487.1392896287467,218.75m137.7275748796324,-200.8844782560905l81.99024289579799,95.77720430014966l23.117031060142864,123.94061347528073l-41.95037057948278,118.89423536029248l-95.77720430014959,81.99024289579799l-123.94061347528073,23.117031060142892l-118.89423536029247,-41.950370579482694l-81.99024289579802,-95.77720430014956l-23.11703106014295,-123.94061347528083l41.95037057948275,-118.89423536029254l95.77720430014949,-81.99024289579796l123.9406134752806,-23.117031060142978l118.89423536029261,41.95037057948264zM595.3924651018016,218.75m137.7275748796324,-200.8844782560905l81.99024289579799,95.77720430014966l23.117031060142864,123.94061347528073l-41.95037057948278,118.89423536029248l-95.77720430014959,81.99024289579799l-123.94061347528073,23.117031060142892l-118.89423536029247,-41.950370579482694l-81.99024289579802,-95.77720430014956l-23.11703106014295,-123.94061347528083l41.95037057948275,-118.89423536029254l95.77720430014949,-81.99024289579796l123.9406134752806,-23.117031060142978l118.89423536029261,41.95037057948264zM0,312.5m137.7275748796324,-200.8844782560905l81.99024289579799,95.77720430014966l23.117031060142864,123.94061347528073l-41.95037057948278,118.89423536029248l-95.77720430014959,81.99024289579799l-123.94061347528073,23.117031060142892l-118.89423536029247,-41.950370579482694l-81.99024289579802,-95.77720430014956l-23.11703106014295,-123.94061347528083l41.95037057948275,-118.89423536029254l95.77720430014949,-81.99024289579796l123.9406134752806,-23.117031060142978l118.89423536029261,41.95037057948264zM108.25317547305482,312.5m137.7275748796324,-200.8844782560905l81.99024289579799,95.77720430014966l23.117031060142864,123.94061347528073l-41.95037057948278,118.89423536029248l-95.77720430014959,81.99024289579799l-123.94061347528073,23.117031060142892l-118.89423536029247,-41.950370579482694l-81.99024289579802,-95.77720430014956l-23.11703106014295,-123.94061347528083l41.95037057948275,-118.89423536029254l95.77720430014949,-81.99024289579796l123.9406134752806,-23.117031060142978l118.89423536029261,41.95037057948264zM216.50635094610965,312.5m137.7275748796324,-200.8844782560905l81.99024289579799,95.77720430014966l23.117031060142864,123.94061347528073l-41.95037057948278,118.89423536029248l-95.77720430014959,81.99024289579799l-123.94061347528073,23.117031060142892l-118.89423536029247,-41.950370579482694l-81.99024289579802,-95.77720430014956l-23.11703106014295,-123.94061347528083l41.95037057948275,-118.89423536029254l95.77720430014949,-81.99024289579796l123.9406134752806,-23.117031060142978l118.89423536029261,41.95037057948264zM324.75952641916444,312.5m137.7275748796324,-200.8844782560905l81.99024289579799,95.77720430014966l23.117031060142864,123.94061347528073l-41.95037057948278,118.89423536029248l-95.77720430014959,81.99024289579799l-123.94061347528073,23.117031060142892l-118.89423536029247,-41.950370579482694l-81.99024289579802,-95.77720430014956l-23.11703106014295,-123.94061347528083l41.95037057948275,-118.89423536029254l95.77720430014949,-81.99024289579796l123.9406134752806,-23.117031060142978l118.89423536029261,41.95037057948264zM433.0127018922193,312.5m137.7275748796324,-200.8844782560905l81.99024289579799,95.77720430014966l23.117031060142864,123.94061347528073l-41.95037057948278,118.89423536029248l-95.77720430014959,81.99024289579799l-123.94061347528073,23.117031060142892l-118.89423536029247,-41.950370579482694l-81.99024289579802,-95.77720430014956l-23.11703106014295,-123.94061347528083l41.95037057948275,-118.89423536029254l95.77720430014949,-81.99024289579796l123.9406134752806,-23.117031060142978l118.89423536029261,41.95037057948264zM541.2658773652742,312.5m137.7275748796324,-200.8844782560905l81.99024289579799,95.77720430014966l23.117031060142864,123.94061347528073l-41.95037057948278,118.89423536029248l-95.77720430014959,81.99024289579799l-123.94061347528073,23.117031060142892l-118.89423536029247,-41.950370579482694l-81.99024289579802,-95.77720430014956l-23.11703106014295,-123.94061347528083l41.95037057948275,-118.89423536029254l95.77720430014949,-81.99024289579796l123.9406134752806,-23.117031060142978l118.89423536029261,41.95037057948264zM-54.12658773652741,406.25m137.7275748796324,-200.8844782560905l81.99024289579799,95.77720430014966l23.117031060142864,123.94061347528073l-41.95037057948278,118.89423536029248l-95.77720430014959,81.99024289579799l-123.94061347528073,23.117031060142892l-118.89423536029247,-41.950370579482694l-81.99024289579802,-95.77720430014956l-23.11703106014295,-123.94061347528083l41.95037057948275,-118.89423536029254l95.77720430014949,-81.99024289579796l123.9406134752806,-23.117031060142978l118.89423536029261,41.95037057948264zM54.12658773652741,406.25m137.7275748796324,-200.8844782560905l81.99024289579799,95.77720430014966l23.117031060142864,123.94061347528073l-41.95037057948278,118.89423536029248l-95.77720430014959,81.99024289579799l-123.94061347528073,23.117031060142892l-118.89423536029247,-41.950370579482694l-81.99024289579802,-95.77720430014956l-23.11703106014295,-123.94061347528083l41.95037057948275,-118.89423536029254l95.77720430014949,-81.99024289579796l123.9406134752806,-23.117031060142978l118.89423536029261,41.95037057948264zM162.37976320958222,406.25m137.7275748796324,-200.8844782560905l81.99024289579799,95.77720430014966l23.117031060142864,123.94061347528073l-41.95037057948278,118.89423536029248l-95.77720430014959,81.99024289579799l-123.94061347528073,23.117031060142892l-118.89423536029247,-41.950370579482694l-81.99024289579802,-95.77720430014956l-23.11703106014295,-123.94061347528083l41.95037057948275,-118.89423536029254l95.77720430014949,-81.99024289579796l123.9406134752806,-23.117031060142978l118.89423536029261,41.95037057948264zM270.632938682637,406.25m137.7275748796324,-200.8844782560905l81.99024289579799,95.77720430014966l23.117031060142864,123.94061347528073l-41.95037057948278,118.89423536029248l-95.77720430014959,81.99024289579799l-123.94061347528073,23.117031060142892l-118.89423536029247,-41.950370579482694l-81.99024289579802,-95.77720430014956l-23.11703106014295,-123.94061347528083l41.95037057948275,-118.89423536029254l95.77720430014949,-81.99024289579796l123.9406134752806,-23.117031060142978l118.89423536029261,41.95037057948264zM378.88611415569187,406.25m137.7275748796324,-200.8844782560905l81.99024289579799,95.77720430014966l23.117031060142864,123.94061347528073l-41.95037057948278,118.89423536029248l-95.77720430014959,81.99024289579799l-123.94061347528073,23.117031060142892l-118.89423536029247,-41.950370579482694l-81.99024289579802,-95.77720430014956l-23.11703106014295,-123.94061347528083l41.95037057948275,-118.89423536029254l95.77720430014949,-81.99024289579796l123.9406134752806,-23.117031060142978l118.89423536029261,41.95037057948264zM487.1392896287467,406.25m137.7275748796324,-200.8844782560905l81.99024289579799,95.77720430014966l23.117031060142864,123.94061347528073l-41.95037057948278,118.89423536029248l-95.77720430014959,81.99024289579799l-123.94061347528073,23.117031060142892l-118.89423536029247,-41.950370579482694l-81.99024289579802,-95.77720430014956l-23.11703106014295,-123.94061347528083l41.95037057948275,-118.89423536029254l95.77720430014949,-81.99024289579796l123.9406134752806,-23.117031060142978l118.89423536029261,41.95037057948264zM595.3924651018016,406.25m137.7275748796324,-200.8844782560905l81.99024289579799,95.77720430014966l23.117031060142864,123.94061347528073l-41.95037057948278,118.89423536029248l-95.77720430014959,81.99024289579799l-123.94061347528073,23.117031060142892l-118.89423536029247,-41.950370579482694l-81.99024289579802,-95.77720430014956l-23.11703106014295,-123.94061347528083l41.95037057948275,-118.89423536029254l95.77720430014949,-81.99024289579796l123.9406134752806,-23.117031060142978l118.89423536029261,41.95037057948264zM0,500m137.7275748796324,-200.8844782560905l81.99024289579799,95.77720430014966l23.117031060142864,123.94061347528073l-41.95037057948278,118.89423536029248l-95.77720430014959,81.99024289579799l-123.94061347528073,23.117031060142892l-118.89423536029247,-41.950370579482694l-81.99024289579802,-95.77720430014956l-23.11703106014295,-123.94061347528083l41.95037057948275,-118.89423536029254l95.77720430014949,-81.99024289579796l123.9406134752806,-23.117031060142978l118.89423536029261,41.95037057948264zM108.25317547305482,500m137.7275748796324,-200.8844782560905l81.99024289579799,95.77720430014966l23.117031060142864,123.94061347528073l-41.95037057948278,118.89423536029248l-95.77720430014959,81.99024289579799l-123.94061347528073,23.117031060142892l-118.89423536029247,-41.950370579482694l-81.99024289579802,-95.77720430014956l-23.11703106014295,-123.94061347528083l41.95037057948275,-118.89423536029254l95.77720430014949,-81.99024289579796l123.9406134752806,-23.117031060142978l118.89423536029261,41.95037057948264zM216.50635094610965,500m137.7275748796324,-200.8844782560905l81.99024289579799,95.77720430014966l23.117031060142864,123.94061347528073l-41.95037057948278,118.89423536029248l-95.77720430014959,81.99024289579799l-123.94061347528073,23.117031060142892l-118.89423536029247,-41.950370579482694l-81.99024289579802,-95.77720430014956l-23.11703106014295,-123.94061347528083l41.95037057948275,-118.89423536029254l95.77720430014949,-81.99024289579796l123.9406134752806,-23.117031060142978l118.89423536029261,41.95037057948264zM324.75952641916444,500m137.7275748796324,-200.8844782560905l81.99024289579799,95.77720430014966l23.117031060142864,123.94061347528073l-41.95037057948278,118.89423536029248l-95.77720430014959,81.99024289579799l-123.94061347528073,23.117031060142892l-118.89423536029247,-41.950370579482694l-81.99024289579802,-95.77720430014956l-23.11703106014295,-123.94061347528083l41.95037057948275,-118.89423536029254l95.77720430014949,-81.99024289579796l123.9406134752806,-23.117031060142978l118.89423536029261,41.95037057948264zM433.0127018922193,500m137.7275748796324,-200.8844782560905l81.99024289579799,95.77720430014966l23.117031060142864,123.94061347528073l-41.95037057948278,118.89423536029248l-95.77720430014959,81.99024289579799l-123.94061347528073,23.117031060142892l-118.89423536029247,-41.950370579482694l-81.99024289579802,-95.77720430014956l-23.11703106014295,-123.94061347528083l41.95037057948275,-118.89423536029254l95.77720430014949,-81.99024289579796l123.9406134752806,-23.117031060142978l118.89423536029261,41.95037057948264zM541.2658773652742,500m137.7275748796324,-200.8844782560905l81.99024289579799,95.77720430014966l23.117031060142864,123.94061347528073l-41.95037057948278,118.89423536029248l-95.77720430014959,81.99024289579799l-123.94061347528073,23.117031060142892l-118.89423536029247,-41.950370579482694l-81.99024289579802,-95.77720430014956l-23.11703106014295,-123.94061347528083l41.95037057948275,-118.89423536029254l95.77720430014949,-81.99024289579796l123.9406134752806,-23.117031060142978l118.89423536029261,41.95037057948264zM-54.12658773652741,593.75m137.7275748796324,-200.8844782560905l81.99024289579799,95.77720430014966l23.117031060142864,123.94061347528073l-41.95037057948278,118.89423536029248l-95.77720430014959,81.99024289579799l-123.94061347528073,23.117031060142892l-118.89423536029247,-41.950370579482694l-81.99024289579802,-95.77720430014956l-23.11703106014295,-123.94061347528083l41.95037057948275,-118.89423536029254l95.77720430014949,-81.99024289579796l123.9406134752806,-23.117031060142978l118.89423536029261,41.95037057948264zM54.12658773652741,593.75m137.7275748796324,-200.8844782560905l81.99024289579799,95.77720430014966l23.117031060142864,123.94061347528073l-41.95037057948278,118.89423536029248l-95.77720430014959,81.99024289579799l-123.94061347528073,23.117031060142892l-118.89423536029247,-41.950370579482694l-81.99024289579802,-95.77720430014956l-23.11703106014295,-123.94061347528083l41.95037057948275,-118.89423536029254l95.77720430014949,-81.99024289579796l123.9406134752806,-23.117031060142978l118.89423536029261,41.95037057948264zM162.37976320958222,593.75m137.7275748796324,-200.8844782560905l81.99024289579799,95.77720430014966l23.117031060142864,123.94061347528073l-41.95037057948278,118.89423536029248l-95.77720430014959,81.99024289579799l-123.94061347528073,23.117031060142892l-118.89423536029247,-41.950370579482694l-81.99024289579802,-95.77720430014956l-23.11703106014295,-123.94061347528083l41.95037057948275,-118.89423536029254l95.77720430014949,-81.99024289579796l123.9406134752806,-23.117031060142978l118.89423536029261,41.95037057948264zM270.632938682637,593.75m137.7275748796324,-200.8844782560905l81.99024289579799,95.77720430014966l23.117031060142864,123.94061347528073l-41.95037057948278,118.89423536029248l-95.77720430014959,81.99024289579799l-123.94061347528073,23.117031060142892l-118.89423536029247,-41.950370579482694l-81.99024289579802,-95.77720430014956l-23.11703106014295,-123.94061347528083l41.95037057948275,-118.89423536029254l95.77720430014949,-81.99024289579796l123.9406134752806,-23.117031060142978l118.89423536029261,41.95037057948264zM378.88611415569187,593.75m137.7275748796324,-200.8844782560905l81.99024289579799,95.77720430014966l23.117031060142864,123.94061347528073l-41.95037057948278,118.89423536029248l-95.77720430014959,81.99024289579799l-123.94061347528073,23.117031060142892l-118.89423536029247,-41.950370579482694l-81.99024289579802,-95.77720430014956l-23.11703106014295,-123.94061347528083l41.95037057948275,-118.89423536029254l95.77720430014949,-81.99024289579796l123.9406134752806,-23.117031060142978l118.89423536029261,41.95037057948264zM487.1392896287467,593.75m137.7275748796324,-200.8844782560905l81.99024289579799,95.77720430014966l23.117031060142864,123.94061347528073l-41.95037057948278,118.89423536029248l-95.77720430014959,81.99024289579799l-123.94061347528073,23.117031060142892l-118.89423536029247,-41.950370579482694l-81.99024289579802,-95.77720430014956l-23.11703106014295,-123.94061347528083l41.95037057948275,-118.89423536029254l95.77720430014949,-81.99024289579796l123.9406134752806,-23.117031060142978l118.89423536029261,41.95037057948264zM595.3924651018016,593.75m137.7275748796324,-200.8844782560905l81.99024289579799,95.77720430014966l23.117031060142864,123.94061347528073l-41.95037057948278,118.89423536029248l-95.77720430014959,81.99024289579799l-123.94061347528073,23.117031060142892l-118.89423536029247,-41.950370579482694l-81.99024289579802,-95.77720430014956l-23.11703106014295,-123.94061347528083l41.95037057948275,-118.89423536029254l95.77720430014949,-81.99024289579796l123.9406134752806,-23.117031060142978l118.89423536029261,41.95037057948264z" fill-rule="evenodd" fill-opacity="0.8" fill="#fff"/></g></svg>