<svg xmlns="http://www.w3.org/2000/svg" version="1.1" style="background: none repeat scroll 0% 0% rgb(205, 20, 114);" height="500" width="500"><circle r="102.45307523924595" cy="250" cx="500" fill-opacity="0.04" fill="#fff"/><circle r="102.45307523924595" cy="300.9908033497528" cx="494.7446382941756" fill-opacity="0.04" fill="#fff"/><circle r="102.45307523924595" cy="349.83780577731756" cx="479.19950378997464" fill-opacity="0.04" fill="#fff"/><circle r="102.45307523924595" cy="394.48733795467706" cx="454.01815892407944" fill-opacity="0.04" fill="#fff"/><circle r="102.45307523924595" cy="433.06220434912836" cx="420.259300300565" fill-opacity="0.04" fill="#fff"/><circle r="102.45307523924595" cy="463.94060595541805" cx="379.34224802217005" fill-opacity="0.04" fill="#fff"/><circle r="102.45307523924595" cy="485.8243254188359" cx="332.9872733661675" fill-opacity="0.04" fill="#fff"/><circle r="102.45307523924595" cy="497.7933078493894" cx="283.14327360201025" fill-opacity="0.04" fill="#fff"/><circle r="102.45307523924595" cy="500" cx="250.00000000000003" fill-opacity="0.04" fill="#fff"/><circle r="102.45307523924595" cy="494.7446382941756" cx="199.0091966502472" fill-opacity="0.04" fill="#fff"/><circle r="102.45307523924595" cy="479.19950378997464" cx="150.16219422268244" fill-opacity="0.04" fill="#fff"/><circle r="102.45307523924595" cy="454.01815892407944" cx="105.51266204532297" fill-opacity="0.04" fill="#fff"/><circle r="102.45307523924595" cy="420.259300300565" cx="66.93779565087158" fill-opacity="0.04" fill="#fff"/><circle r="102.45307523924595" cy="379.34224802217" cx="36.05939404458192" fill-opacity="0.04" fill="#fff"/><circle r="102.45307523924595" cy="332.98727336616747" cx="14.175674581164145" fill-opacity="0.04" fill="#fff"/><circle r="102.45307523924595" cy="283.14327360201037" cx="2.2066921506105643" fill-opacity="0.04" fill="#fff"/><circle r="102.45307523924595" cy="250.00000000000003" cx="0" fill-opacity="0.04" fill="#fff"/><circle r="102.45307523924595" cy="199.00919665024713" cx="5.255361705824441" fill-opacity="0.04" fill="#fff"/><circle r="102.45307523924595" cy="150.16219422268244" cx="20.8004962100253" fill-opacity="0.04" fill="#fff"/><circle r="102.45307523924595" cy="105.51266204532297" cx="45.98184107592053" fill-opacity="0.04" fill="#fff"/><circle r="102.45307523924595" cy="66.9377956508716" cx="79.74069969943505" fill-opacity="0.04" fill="#fff"/><circle r="102.45307523924595" cy="36.05939404458195" cx="120.65775197783003" fill-opacity="0.04" fill="#fff"/><circle r="102.45307523924595" cy="14.175674581164174" cx="167.01272663383241" fill-opacity="0.04" fill="#fff"/><circle r="102.45307523924595" cy="2.2066921506105643" cx="216.85672639798975" fill-opacity="0.04" fill="#fff"/><circle r="102.45307523924595" cy="0" cx="249.99999999999994" fill-opacity="0.04" fill="#fff"/><circle r="102.45307523924595" cy="5.255361705824413" cx="300.99080334975287" fill-opacity="0.04" fill="#fff"/><circle r="102.45307523924595" cy="20.800496210025358" cx="349.8378057773176" fill-opacity="0.04" fill="#fff"/><circle r="102.45307523924595" cy="45.98184107592053" cx="394.487337954677" fill-opacity="0.04" fill="#fff"/><circle r="102.45307523924595" cy="79.74069969943503" cx="433.06220434912836" fill-opacity="0.04" fill="#fff"/><circle r="102.45307523924595" cy="120.65775197783" cx="463.94060595541805" fill-opacity="0.04" fill="#fff"/><circle r="102.45307523924595" cy="167.01272663383241" cx="485.82432541883577" fill-opacity="0.04" fill="#fff"/><circle r="102.45307523924595" cy="216.85672639798972" cx="497.7933078493894" fill-opacity="0.04" fill="#fff"/></svg>