<svg width="496.79999999999995" height="496.79999999999995" style="background: rgb(150, 36, 188);" version="1.1" xmlns="http://www.w3.org/2000/svg"><g transform="translate(248.39999999999998,23.657142857142855)scale(0.008330389152647055,1)"><path fill="none" stroke="#000" stroke-width="3" d="M-150,0L150,0"></path><ellipse cx="-150" cy="0" rx="10" ry="7" fill="#bbb"></ellipse><ellipse cx="150" cy="0" rx="10" ry="7" fill="#bbb"></ellipse></g><g transform="translate(248.39999999999998,47.31428571428571)scale(0.1120943149150429,1)"><path fill="none" stroke="#000" stroke-width="3" d="M-150,0L150,0"></path><ellipse cx="-150" cy="0" rx="10" ry="7" fill="#bbb"></ellipse><ellipse cx="150" cy="0" rx="10" ry="7" fill="#bbb"></ellipse></g><g transform="translate(248.39999999999998,70.97142857142856)scale(0.3108310810699594,1)"><path fill="none" stroke="#000" stroke-width="3" d="M-150,0L150,0"></path><ellipse cx="-150" cy="0" rx="10" ry="7" fill="#bbb"></ellipse><ellipse cx="150" cy="0" rx="10" ry="7" fill="#bbb"></ellipse></g><g transform="translate(248.39999999999998,94.62857142857142)scale(0.5558829960756426,1)"><path fill="none" stroke="#000" stroke-width="3" d="M-150,0L150,0"></path><ellipse cx="-150" cy="0" rx="10" ry="7" fill="#bbb"></ellipse><ellipse cx="150" cy="0" rx="10" ry="7" fill="#bbb"></ellipse></g><g transform="translate(248.39999999999998,118.28571428571429)scale(0.7872528046543849,1)"><path fill="none" stroke="#000" stroke-width="3" d="M-150,0L150,0"></path><ellipse cx="-150" cy="0" rx="10" ry="7" fill="#bbb"></ellipse><ellipse cx="150" cy="0" rx="10" ry="7" fill="#bbb"></ellipse></g><g transform="translate(248.39999999999998,141.94285714285712)scale(0.9482931083619371,1)"><path fill="none" stroke="#000" stroke-width="3" d="M-150,0L150,0"></path><ellipse cx="-150" cy="0" rx="10" ry="7" fill="#bbb"></ellipse><ellipse cx="150" cy="0" rx="10" ry="7" fill="#bbb"></ellipse></g><g transform="translate(248.39999999999998,165.59999999999997)scale(0.9995756243737497,1)"><path fill="none" stroke="#000" stroke-width="3" d="M-150,0L150,0"></path><ellipse cx="-150" cy="0" rx="10" ry="7" fill="#bbb"></ellipse><ellipse cx="150" cy="0" rx="10" ry="7" fill="#bbb"></ellipse></g><g transform="translate(248.39999999999998,189.25714285714284)scale(0.9285446042298584,1)"><path fill="none" stroke="#000" stroke-width="3" d="M-150,0L150,0"></path><ellipse cx="-150" cy="0" rx="10" ry="7" fill="#bbb"></ellipse><ellipse cx="150" cy="0" rx="10" ry="7" fill="#bbb"></ellipse></g><g transform="translate(248.39999999999998,212.9142857142857)scale(0.7525909189549203,1)"><path fill="none" stroke="#000" stroke-width="3" d="M-150,0L150,0"></path><ellipse cx="-150" cy="0" rx="10" ry="7" fill="#bbb"></ellipse><ellipse cx="150" cy="0" rx="10" ry="7" fill="#bbb"></ellipse></g><g transform="translate(248.39999999999998,236.57142857142858)scale(0.5147941673035464,1)"><path fill="none" stroke="#000" stroke-width="3" d="M-150,0L150,0"></path><ellipse cx="-150" cy="0" rx="10" ry="7" fill="#bbb"></ellipse><ellipse cx="150" cy="0" rx="10" ry="7" fill="#bbb"></ellipse></g><g transform="translate(248.39999999999998,260.2285714285714)scale(0.27337528753164175,1)"><path fill="none" stroke="#000" stroke-width="3" d="M-150,0L150,0"></path><ellipse cx="-150" cy="0" rx="10" ry="7" fill="#bbb"></ellipse><ellipse cx="150" cy="0" rx="10" ry="7" fill="#bbb"></ellipse></g><g transform="translate(248.39999999999998,283.88571428571424)scale(0.08744204118515175,1)"><path fill="none" stroke="#000" stroke-width="3" d="M-150,0L150,0"></path><ellipse cx="-150" cy="0" rx="10" ry="7" fill="#bbb"></ellipse><ellipse cx="150" cy="0" rx="10" ry="7" fill="#bbb"></ellipse></g><g transform="translate(248.39999999999998,307.54285714285714)scale(0.0025173716183634065,1)"><path fill="none" stroke="#000" stroke-width="3" d="M-150,0L150,0"></path><ellipse cx="-150" cy="0" rx="10" ry="7" fill="#bbb"></ellipse><ellipse cx="150" cy="0" rx="10" ry="7" fill="#bbb"></ellipse></g><g transform="translate(248.39999999999998,331.19999999999993)scale(0.03939379979262253,1)"><path fill="none" stroke="#000" stroke-width="3" d="M-150,0L150,0"></path><ellipse cx="-150" cy="0" rx="10" ry="7" fill="#bbb"></ellipse><ellipse cx="150" cy="0" rx="10" ry="7" fill="#bbb"></ellipse></g><g transform="translate(248.39999999999998,354.85714285714283)scale(0.18904268998047602,1)"><path fill="none" stroke="#000" stroke-width="3" d="M-150,0L150,0"></path><ellipse cx="-150" cy="0" rx="10" ry="7" fill="#bbb"></ellipse><ellipse cx="150" cy="0" rx="10" ry="7" fill="#bbb"></ellipse></g><g transform="translate(248.39999999999998,378.5142857142857)scale(0.4148247746764321,1)"><path fill="none" stroke="#000" stroke-width="3" d="M-150,0L150,0"></path><ellipse cx="-150" cy="0" rx="10" ry="7" fill="#bbb"></ellipse><ellipse cx="150" cy="0" rx="10" ry="7" fill="#bbb"></ellipse></g><g transform="translate(248.39999999999998,402.1714285714285)scale(0.661460725121431,1)"><path fill="none" stroke="#000" stroke-width="3" d="M-150,0L150,0"></path><ellipse cx="-150" cy="0" rx="10" ry="7" fill="#bbb"></ellipse><ellipse cx="150" cy="0" rx="10" ry="7" fill="#bbb"></ellipse></g><g transform="translate(248.39999999999998,425.8285714285714)scale(0.8685654589170531,1)"><path fill="none" stroke="#000" stroke-width="3" d="M-150,0L150,0"></path><ellipse cx="-150" cy="0" rx="10" ry="7" fill="#bbb"></ellipse><ellipse cx="150" cy="0" rx="10" ry="7" fill="#bbb"></ellipse></g><g transform="translate(248.39999999999998,449.4857142857142)scale(0.9854325142000255,1)"><path fill="none" stroke="#000" stroke-width="3" d="M-150,0L150,0"></path><ellipse cx="-150" cy="0" rx="10" ry="7" fill="#bbb"></ellipse><ellipse cx="150" cy="0" rx="10" ry="7" fill="#bbb"></ellipse></g><g transform="translate(248.39999999999998,473.14285714285717)scale(0.9834487599560333,1)"><path fill="none" stroke="#000" stroke-width="3" d="M-150,0L150,0"></path><ellipse cx="-150" cy="0" rx="10" ry="7" fill="#bbb"></ellipse><ellipse cx="150" cy="0" rx="10" ry="7" fill="#bbb"></ellipse></g></svg>