<svg width="373" height="373" style="background: rgb(127, 220, 114);" version="1.1" xmlns="http://www.w3.org/2000/svg"><g transform="translate(186.5,186.5)"><circle cx="-0.737277336810124" cy="0.6755902076156604" fill="#b08564" fill-opacity="0.3" r="0.11161709063710283"></circle><circle cx="-0.8616291604415256" cy="0.5075383629607043" fill="#b08564" fill-opacity="0.3" r="0.11161709063710283"></circle><circle cx="-0.9483236552061993" cy="0.31730465640509214" fill="#b08564" fill-opacity="0.3" r="0.11161709063710283"></circle><circle cx="-0.9935718556765875" cy="0.11320321376790672" fill="#b08564" fill-opacity="0.3" r="0.11161709063710283"></circle><circle cx="-0.9953961983671787" cy="-0.09584575252022368" fill="#b08564" fill-opacity="0.3" r="0.11161709063710283"></circle><circle cx="-0.953716950748227" cy="-0.30070579950427273" fill="#b08564" fill-opacity="0.3" r="0.11161709063710283"></circle><circle cx="-0.8703556959398998" cy="-0.492423560103467" fill="#b08564" fill-opacity="0.3" r="0.11161709063710283"></circle><circle cx="-0.7489557207890021" cy="-0.6626200482157375" fill="#b08564" fill-opacity="0.3" r="0.11161709063710283"></circle><circle cx="-0.594822786751341" cy="-0.8038568606172176" fill="#b08564" fill-opacity="0.3" r="0.11161709063710283"></circle><circle cx="-0.4146932426562392" cy="-0.9099612708765431" fill="#b08564" fill-opacity="0.3" r="0.11161709063710283"></circle><circle cx="-0.21643961393810288" cy="-0.9762960071199334" fill="#b08564" fill-opacity="0.3" r="0.11161709063710283"></circle><circle cx="-0.008726535498373537" cy="-0.9999619230641713" fill="#b08564" fill-opacity="0.3" r="0.11161709063710283"></circle><circle cx="0.19936793441719694" cy="-0.9799247046208296" fill="#b08564" fill-opacity="0.3" r="0.11161709063710283"></circle><circle cx="0.3987490689252455" cy="-0.9170600743851243" fill="#b08564" fill-opacity="0.3" r="0.11161709063710283"></circle><circle cx="0.5807029557109392" cy="-0.8141155183563196" fill="#b08564" fill-opacity="0.3" r="0.11161709063710283"></circle><circle cx="0.7372773368101239" cy="-0.6755902076156605" fill="#b08564" fill-opacity="0.3" r="0.11161709063710283"></circle><circle cx="0.8616291604415254" cy="-0.5075383629607048" fill="#b08564" fill-opacity="0.3" r="0.11161709063710283"></circle><circle cx="0.9483236552061989" cy="-0.3173046564050934" fill="#b08564" fill-opacity="0.3" r="0.11161709063710283"></circle><circle cx="0.9935718556765873" cy="-0.11320321376790791" fill="#b08564" fill-opacity="0.3" r="0.11161709063710283"></circle><circle cx="0.9953961983671789" cy="0.0958457525202231" fill="#b08564" fill-opacity="0.3" r="0.11161709063710283"></circle><circle cx="0.9537169507482274" cy="0.30070579950427173" fill="#b08564" fill-opacity="0.3" r="0.11161709063710283"></circle><circle cx="0.8703556959399003" cy="0.4924235601034661" fill="#b08564" fill-opacity="0.3" r="0.11161709063710283"></circle><circle cx="0.7489557207890029" cy="0.6626200482157368" fill="#b08564" fill-opacity="0.3" r="0.11161709063710283"></circle><circle cx="0.5948227867513417" cy="0.8038568606172171" fill="#b08564" fill-opacity="0.3" r="0.11161709063710283"></circle><circle cx="0.4146932426562392" cy="0.9099612708765431" fill="#b08564" fill-opacity="0.3" r="0.11161709063710283"></circle><circle cx="0.21643961393810288" cy="0.9762960071199334" fill="#b08564" fill-opacity="0.3" r="0.11161709063710283"></circle><circle cx="0.008726535498373537" cy="0.9999619230641713" fill="#b08564" fill-opacity="0.3" r="0.11161709063710283"></circle><circle cx="-0.19936793441719858" cy="0.9799247046208294" fill="#b08564" fill-opacity="0.3" r="0.11161709063710283"></circle><circle cx="-0.3987490689252469" cy="0.9170600743851237" fill="#b08564" fill-opacity="0.3" r="0.11161709063710283"></circle><circle cx="-0.58070295571094" cy="0.8141155183563191" fill="#b08564" fill-opacity="0.3" r="0.11161709063710283"></circle><circle cx="0.3486229709906315" cy="-3.984778792366982" fill="#b08564" fill-opacity="0.3" r="0.4464683625484113"></circle><circle cx="1.1694868188909473" cy="-3.8252190238521417" fill="#b08564" fill-opacity="0.3" r="0.4464683625484113"></circle><circle cx="1.9392384809853462" cy="-3.498478828557584" fill="#b08564" fill-opacity="0.3" r="0.4464683625484113"></circle><circle cx="2.624236115962028" cy="-3.018838320891089" fill="#b08564" fill-opacity="0.3" r="0.4464683625484113"></circle><circle cx="3.1945420401891713" cy="-2.407260092608193" fill="#b08564" fill-opacity="0.3" r="0.4464683625484113"></circle><circle cx="3.625231148146599" cy="-1.6904730469628" fill="#b08564" fill-opacity="0.3" r="0.4464683625484113"></circle><circle cx="3.8974802591409405" cy="-0.8998042173754616" fill="#b08564" fill-opacity="0.3" r="0.4464683625484113"></circle><circle cx="3.999390780625565" cy="-0.06980962574913405" fill="#b08564" fill-opacity="0.3" r="0.4464683625484113"></circle><circle cx="3.926508733790656" cy="0.7632359815061803" fill="#b08564" fill-opacity="0.3" r="0.4464683625484113"></circle><circle cx="3.6820194138097624" cy="1.5629245139570938" fill="#b08564" fill-opacity="0.3" r="0.4464683625484113"></circle><circle cx="3.276608177155967" cy="2.294305745404184" fill="#b08564" fill-opacity="0.3" r="0.4464683625484113"></circle><circle cx="2.727993440249993" cy="2.9254148064766827" fill="#b08564" fill-opacity="0.3" r="0.4464683625484113"></circle><circle cx="2.060152299640218" cy="3.4286692028084484" fill="#b08564" fill-opacity="0.3" r="0.4464683625484113"></circle><circle cx="1.3022726178286306" cy="3.7820743023972656" fill="#b08564" fill-opacity="0.3" r="0.4464683625484113"></circle><circle cx="0.4874773736205923" cy="3.970184606565288" fill="#b08564" fill-opacity="0.3" r="0.4464683625484113"></circle><circle cx="-0.34862297099063105" cy="3.9847787923669826" fill="#b08564" fill-opacity="0.3" r="0.4464683625484113"></circle><circle cx="-1.169486818890943" cy="3.8252190238521426" fill="#b08564" fill-opacity="0.3" r="0.4464683625484113"></circle><circle cx="-1.9392384809853427" cy="3.498478828557586" fill="#b08564" fill-opacity="0.3" r="0.4464683625484113"></circle><circle cx="-2.624236115962028" cy="3.0188383208910894" fill="#b08564" fill-opacity="0.3" r="0.4464683625484113"></circle><circle cx="-3.194542040189169" cy="2.407260092608196" fill="#b08564" fill-opacity="0.3" r="0.4464683625484113"></circle><circle cx="-3.625231148146597" cy="1.6904730469628035" fill="#b08564" fill-opacity="0.3" r="0.4464683625484113"></circle><circle cx="-3.8974802591409405" cy="0.8998042173754616" fill="#b08564" fill-opacity="0.3" r="0.4464683625484113"></circle><circle cx="-3.999390780625565" cy="0.06980962574913802" fill="#b08564" fill-opacity="0.3" r="0.4464683625484113"></circle><circle cx="-3.9265087337906572" cy="-0.7632359815061729" fill="#b08564" fill-opacity="0.3" r="0.4464683625484113"></circle><circle cx="-3.6820194138097624" cy="-1.5629245139570933" fill="#b08564" fill-opacity="0.3" r="0.4464683625484113"></circle><circle cx="-3.2766081771559654" cy="-2.294305745404187" fill="#b08564" fill-opacity="0.3" r="0.4464683625484113"></circle><circle cx="-2.727993440249993" cy="-2.9254148064766823" fill="#b08564" fill-opacity="0.3" r="0.4464683625484113"></circle><circle cx="-2.060152299640219" cy="-3.4286692028084484" fill="#b08564" fill-opacity="0.3" r="0.4464683625484113"></circle><circle cx="-1.3022726178286244" cy="-3.782074302397268" fill="#b08564" fill-opacity="0.3" r="0.4464683625484113"></circle><circle cx="-0.48747737362058285" cy="-3.970184606565289" fill="#b08564" fill-opacity="0.3" r="0.4464683625484113"></circle><circle cx="5.478852861078489" cy="7.140180062621114" fill="#b08564" fill-opacity="0.3" r="1.0045538157339255"></circle><circle cx="3.8745998712746563" cy="8.123267559148745" fill="#b08564" fill-opacity="0.3" r="1.0045538157339255"></circle><circle cx="2.1010082747031538" cy="8.751329283579087" fill="#b08564" fill-opacity="0.3" r="1.0045538157339255"></circle><circle cx="0.23559253477086192" cy="8.996915924780016" fill="#b08564" fill-opacity="0.3" r="1.0045538157339255"></circle><circle cx="-1.640119729429318" cy="8.849294168075593" fill="#b08564" fill-opacity="0.3" r="1.0045538157339255"></circle><circle cx="-3.4441508912858083" cy="8.31491579260158" fill="#b08564" fill-opacity="0.3" r="1.0045538157339255"></circle><circle cx="-5.0976561323234915" cy="7.417135697598143" fill="#b08564" fill-opacity="0.3" r="1.0045538157339255"></circle><circle cx="-6.528369339110582" cy="6.195191181243793" fill="#b08564" fill-opacity="0.3" r="1.0045538157339255"></circle><circle cx="-7.6737614791868305" cy="4.702487082443538" fill="#b08564" fill-opacity="0.3" r="1.0045538157339255"></circle><circle cx="-8.483773419829605" cy="3.0042617331039416" fill="#b08564" fill-opacity="0.3" r="1.0045538157339255"></circle><circle cx="-8.923003752364293" cy="1.1747357299804735" fill="#b08564" fill-opacity="0.3" r="1.0045538157339255"></circle><circle cx="-8.972256003598151" cy="-0.7061318615506054" fill="#b08564" fill-opacity="0.3" r="1.0045538157339255"></circle><circle cx="-8.62937761381374" cy="-2.556138102335299" fill="#b08564" fill-opacity="0.3" r="1.0045538157339255"></circle><circle cx="-7.909354013957693" cy="-4.294428842336467" fill="#b08564" fill-opacity="0.3" r="1.0045538157339255"></circle><circle cx="-6.843653690400277" cy="-5.845032434971654" fill="#b08564" fill-opacity="0.3" r="1.0045538157339255"></circle><circle cx="-5.478852861078489" cy="-7.140180062621114" fill="#b08564" fill-opacity="0.3" r="1.0045538157339255"></circle><circle cx="-3.874599871274666" cy="-8.12326755914874" fill="#b08564" fill-opacity="0.3" r="1.0045538157339255"></circle><circle cx="-2.1010082747031644" cy="-8.751329283579086" fill="#b08564" fill-opacity="0.3" r="1.0045538157339255"></circle><circle cx="-0.2355925347708798" cy="-8.996915924780014" fill="#b08564" fill-opacity="0.3" r="1.0045538157339255"></circle><circle cx="1.6401197294293168" cy="-8.849294168075593" fill="#b08564" fill-opacity="0.3" r="1.0045538157339255"></circle><circle cx="3.4441508912857937" cy="-8.314915792601587" fill="#b08564" fill-opacity="0.3" r="1.0045538157339255"></circle><circle cx="5.097656132323477" cy="-7.4171356975981535" fill="#b08564" fill-opacity="0.3" r="1.0045538157339255"></circle><circle cx="6.528369339110582" cy="-6.195191181243793" fill="#b08564" fill-opacity="0.3" r="1.0045538157339255"></circle><circle cx="7.67376147918683" cy="-4.70248708244354" fill="#b08564" fill-opacity="0.3" r="1.0045538157339255"></circle><circle cx="8.483773419829603" cy="-3.0042617331039434" fill="#b08564" fill-opacity="0.3" r="1.0045538157339255"></circle><circle cx="8.923003752364291" cy="-1.1747357299804748" fill="#b08564" fill-opacity="0.3" r="1.0045538157339255"></circle><circle cx="8.972256003598151" cy="0.7061318615506041" fill="#b08564" fill-opacity="0.3" r="1.0045538157339255"></circle><circle cx="8.629377613813734" cy="2.556138102335314" fill="#b08564" fill-opacity="0.3" r="1.0045538157339255"></circle><circle cx="7.909354013957686" cy="4.29442884233648" fill="#b08564" fill-opacity="0.3" r="1.0045538157339255"></circle><circle cx="6.843653690400278" cy="5.845032434971653" fill="#b08564" fill-opacity="0.3" r="1.0045538157339255"></circle><circle cx="-15.75692404819533" cy="-2.7783708426708764" fill="#b08564" fill-opacity="0.3" r="1.7858734501936453"></circle><circle cx="-14.834941673068606" cy="-5.993705494654575" fill="#b08564" fill-opacity="0.3" r="1.7858734501936453"></circle><circle cx="-13.264601160880668" cy="-8.94708645553195" fill="#b08564" fill-opacity="0.3" r="1.7858734501936453"></circle><circle cx="-11.114533927343963" cy="-11.509436805418412" fill="#b08564" fill-opacity="0.3" r="1.7858734501936453"></circle><circle cx="-8.478708227731294" cy="-13.568769538502805" fill="#b08564" fill-opacity="0.3" r="1.7858734501936453"></circle><circle cx="-5.472322293210699" cy="-15.035081932574533" fill="#b08564" fill-opacity="0.3" r="1.7858734501936453"></circle><circle cx="-2.2267696153610568" cy="-15.844289099865124" fill="#b08564" fill-opacity="0.3" r="1.7858734501936453"></circle><circle cx="1.1161035799059855" cy="-15.961024804157189" fill="#b08564" fill-opacity="0.3" r="1.7858734501936453"></circle><circle cx="4.410197693071986" cy="-15.380187135013102" fill="#b08564" fill-opacity="0.3" r="1.7858734501936453"></circle><circle cx="7.511545004574244" cy="-14.127161485742834" fill="#b08564" fill-opacity="0.3" r="1.7858734501936453"></circle><circle cx="10.284601754984633" cy="-12.256711089903643" fill="#b08564" fill-opacity="0.3" r="1.7858734501936453"></circle><circle cx="12.608172057707552" cy="-9.850583605210533" fill="#b08564" fill-opacity="0.3" r="1.7858734501936453"></circle><circle cx="14.380704740786669" cy="-7.0139383486252465" fill="#b08564" fill-opacity="0.3" r="1.7858734501936453"></circle><circle cx="15.524731620415938" cy="-3.8707503295947023" fill="#b08564" fill-opacity="0.3" r="1.7858734501936453"></circle><circle cx="15.99025323230553" cy="-0.558391947240044" fill="#b08564" fill-opacity="0.3" r="1.7858734501936453"></circle><circle cx="15.75692404819533" cy="2.778370842670874" fill="#b08564" fill-opacity="0.3" r="1.7858734501936453"></circle><circle cx="14.834941673068606" cy="5.993705494654574" fill="#b08564" fill-opacity="0.3" r="1.7858734501936453"></circle><circle cx="13.264601160880684" cy="8.947086455531927" fill="#b08564" fill-opacity="0.3" r="1.7858734501936453"></circle><circle cx="11.114533927343967" cy="11.50943680541841" fill="#b08564" fill-opacity="0.3" r="1.7858734501936453"></circle><circle cx="8.478708227731294" cy="13.568769538502805" fill="#b08564" fill-opacity="0.3" r="1.7858734501936453"></circle><circle cx="5.472322293210726" cy="15.035081932574524" fill="#b08564" fill-opacity="0.3" r="1.7858734501936453"></circle><circle cx="2.2267696153610568" cy="15.844289099865124" fill="#b08564" fill-opacity="0.3" r="1.7858734501936453"></circle><circle cx="-1.1161035799059833" cy="15.961024804157189" fill="#b08564" fill-opacity="0.3" r="1.7858734501936453"></circle><circle cx="-4.410197693071956" cy="15.380187135013111" fill="#b08564" fill-opacity="0.3" r="1.7858734501936453"></circle><circle cx="-7.511545004574241" cy="14.127161485742835" fill="#b08564" fill-opacity="0.3" r="1.7858734501936453"></circle><circle cx="-10.284601754984633" cy="12.256711089903643" fill="#b08564" fill-opacity="0.3" r="1.7858734501936453"></circle><circle cx="-12.60817205770755" cy="9.850583605210534" fill="#b08564" fill-opacity="0.3" r="1.7858734501936453"></circle><circle cx="-14.380704740786669" cy="7.0139383486252465" fill="#b08564" fill-opacity="0.3" r="1.7858734501936453"></circle><circle cx="-15.524731620415947" cy="3.870750329594675" fill="#b08564" fill-opacity="0.3" r="1.7858734501936453"></circle><circle cx="-15.990253232305532" cy="0.558391947239987" fill="#b08564" fill-opacity="0.3" r="1.7858734501936453"></circle><circle cx="21.08478614532213" cy="-13.432490208670615" fill="#b08564" fill-opacity="0.3" r="2.790427265927571"></circle><circle cx="23.41680473120993" cy="-8.755184531486714" fill="#b08564" fill-opacity="0.3" r="2.790427265927571"></circle><circle cx="24.725396584047918" cy="-3.6952352782402706" fill="#b08564" fill-opacity="0.3" r="2.790427265927571"></circle><circle cx="24.953369960546674" cy="1.5262134883714034" fill="#b08564" fill-opacity="0.3" r="2.790427265927571"></circle><circle cx="24.09076133021558" cy="6.680959401956388" fill="#b08564" fill-opacity="0.3" r="2.790427265927571"></circle><circle cx="22.175270829455542" cy="11.543715330875843" fill="#b08564" fill-opacity="0.3" r="2.790427265927571"></circle><circle cx="19.29061458469301" cy="15.901955506944088" fill="#b08564" fill-opacity="0.3" r="2.790427265927571"></circle><circle cx="15.562865915940513" cy="19.565203921310328" fill="#b08564" fill-opacity="0.3" r="2.790427265927571"></circle><circle cx="11.154945327745224" cy="22.373359040050627" fill="#b08564" fill-opacity="0.3" r="2.790427265927571"></circle><circle cx="6.259500101361056" cy="24.203691009452687" fill="#b08564" fill-opacity="0.3" r="2.790427265927571"></circle><circle cx="1.0904846841334297" cy="24.976205539546445" fill="#b08564" fill-opacity="0.3" r="2.790427265927571"></circle><circle cx="-4.126190146516937" cy="24.657140038430786" fill="#b08564" fill-opacity="0.3" r="2.790427265927571"></circle><circle cx="-9.162530668107413" cy="23.26043919955062" fill="#b08564" fill-opacity="0.3" r="2.790427265927571"></circle><circle cx="-13.798424632801423" cy="20.847145551679223" fill="#b08564" fill-opacity="0.3" r="2.790427265927571"></circle><circle cx="-17.831261228854533" cy="17.52273160749628" fill="#b08564" fill-opacity="0.3" r="2.790427265927571"></circle><circle cx="-21.08478614532213" cy="13.432490208670615" fill="#b08564" fill-opacity="0.3" r="2.790427265927571"></circle><circle cx="-23.41680473120993" cy="8.755184531486714" fill="#b08564" fill-opacity="0.3" r="2.790427265927571"></circle><circle cx="-24.725396584047914" cy="3.6952352782403093" fill="#b08564" fill-opacity="0.3" r="2.790427265927571"></circle><circle cx="-24.953369960546677" cy="-1.5262134883713563" fill="#b08564" fill-opacity="0.3" r="2.790427265927571"></circle><circle cx="-24.09076133021558" cy="-6.680959401956386" fill="#b08564" fill-opacity="0.3" r="2.790427265927571"></circle><circle cx="-22.17527082945555" cy="-11.543715330875841" fill="#b08564" fill-opacity="0.3" r="2.790427265927571"></circle><circle cx="-19.290614584693042" cy="-15.901955506944049" fill="#b08564" fill-opacity="0.3" r="2.790427265927571"></circle><circle cx="-15.562865915940518" cy="-19.565203921310324" fill="#b08564" fill-opacity="0.3" r="2.790427265927571"></circle><circle cx="-11.15494532774523" cy="-22.373359040050623" fill="#b08564" fill-opacity="0.3" r="2.790427265927571"></circle><circle cx="-6.259500101361103" cy="-24.203691009452672" fill="#b08564" fill-opacity="0.3" r="2.790427265927571"></circle><circle cx="-1.0904846841334395" cy="-24.976205539546445" fill="#b08564" fill-opacity="0.3" r="2.790427265927571"></circle><circle cx="4.126190146516934" cy="-24.657140038430786" fill="#b08564" fill-opacity="0.3" r="2.790427265927571"></circle><circle cx="9.162530668107452" cy="-23.260439199550607" fill="#b08564" fill-opacity="0.3" r="2.790427265927571"></circle><circle cx="13.798424632801495" cy="-20.847145551679176" fill="#b08564" fill-opacity="0.3" r="2.790427265927571"></circle><circle cx="17.831261228854533" cy="-17.52273160749628" fill="#b08564" fill-opacity="0.3" r="2.790427265927571"></circle><circle cx="-9.317485623690718" cy="34.77332974640647" fill="#b08564" fill-opacity="0.3" r="4.018215262935702"></circle><circle cx="-16.343657990623633" cy="32.07623487078127" fill="#b08564" fill-opacity="0.3" r="4.018215262935702"></circle><circle cx="-22.655534077794144" cy="27.97725461245096" fill="#b08564" fill-opacity="0.3" r="4.018215262935702"></circle><circle cx="-27.97725461245093" cy="22.655534077794172" fill="#b08564" fill-opacity="0.3" r="4.018215262935702"></circle><circle cx="-32.07623487078122" cy="16.343657990623726" fill="#b08564" fill-opacity="0.3" r="4.018215262935702"></circle><circle cx="-34.77332974640646" cy="9.317485623690757" fill="#b08564" fill-opacity="0.3" r="4.018215262935702"></circle><circle cx="-35.950663251164656" cy="1.8840944247460065" fill="#b08564" fill-opacity="0.3" r="4.018215262935702"></circle><circle cx="-35.55678026142497" cy="-5.631640741448258" fill="#b08564" fill-opacity="0.3" r="4.018215262935702"></circle><circle cx="-33.608895353899285" cy="-12.90124618363074" fill="#b08564" fill-opacity="0.3" r="4.018215262935702"></circle><circle cx="-30.192140446035285" cy="-19.607005260540948" fill="#b08564" fill-opacity="0.3" r="4.018215262935702"></circle><circle cx="-25.455844122715703" cy="-25.455844122715714" fill="#b08564" fill-opacity="0.3" r="4.018215262935702"></circle><circle cx="-19.60700526054104" cy="-30.19214044603522" fill="#b08564" fill-opacity="0.3" r="4.018215262935702"></circle><circle cx="-12.901246183630844" cy="-33.60889535389925" fill="#b08564" fill-opacity="0.3" r="4.018215262935702"></circle><circle cx="-5.631640741448304" cy="-35.55678026142496" fill="#b08564" fill-opacity="0.3" r="4.018215262935702"></circle><circle cx="1.8840944247459008" cy="-35.95066325116466" fill="#b08564" fill-opacity="0.3" r="4.018215262935702"></circle><circle cx="9.317485623690715" cy="-34.77332974640647" fill="#b08564" fill-opacity="0.3" r="4.018215262935702"></circle><circle cx="16.34365799062369" cy="-32.076234870781235" fill="#b08564" fill-opacity="0.3" r="4.018215262935702"></circle><circle cx="22.65553407779409" cy="-27.977254612451" fill="#b08564" fill-opacity="0.3" r="4.018215262935702"></circle><circle cx="27.977254612450928" cy="-22.65553407779418" fill="#b08564" fill-opacity="0.3" r="4.018215262935702"></circle><circle cx="32.076234870781185" cy="-16.34365799062379" fill="#b08564" fill-opacity="0.3" r="4.018215262935702"></circle><circle cx="34.77332974640644" cy="-9.317485623690825" fill="#b08564" fill-opacity="0.3" r="4.018215262935702"></circle><circle cx="35.950663251164656" cy="-1.8840944247460139" fill="#b08564" fill-opacity="0.3" r="4.018215262935702"></circle><circle cx="35.55678026142496" cy="5.631640741448319" fill="#b08564" fill-opacity="0.3" r="4.018215262935702"></circle><circle cx="33.60889535389929" cy="12.901246183630736" fill="#b08564" fill-opacity="0.3" r="4.018215262935702"></circle><circle cx="30.192140446035285" cy="19.607005260540944" fill="#b08564" fill-opacity="0.3" r="4.018215262935702"></circle><circle cx="25.455844122715703" cy="25.455844122715714" fill="#b08564" fill-opacity="0.3" r="4.018215262935702"></circle><circle cx="19.60700526054104" cy="30.19214044603522" fill="#b08564" fill-opacity="0.3" r="4.018215262935702"></circle><circle cx="12.901246183630844" cy="33.60889535389925" fill="#b08564" fill-opacity="0.3" r="4.018215262935702"></circle><circle cx="5.631640741448304" cy="35.55678026142496" fill="#b08564" fill-opacity="0.3" r="4.018215262935702"></circle><circle cx="-1.8840944247460238" cy="35.950663251164656" fill="#b08564" fill-opacity="0.3" r="4.018215262935702"></circle><circle cx="-22.62568204851663" cy="-43.46353082573289" fill="#b08564" fill-opacity="0.3" r="5.469237441218039"></circle><circle cx="-13.094680427834493" cy="-47.217892207222555" fill="#b08564" fill-opacity="0.3" r="5.469237441218039"></circle><circle cx="-2.9913784372080063" cy="-48.90860512267148" fill="#b08564" fill-opacity="0.3" r="5.469237441218039"></circle><circle cx="7.242661145350958" cy="-48.46177730473392" fill="#b08564" fill-opacity="0.3" r="5.469237441218039"></circle><circle cx="17.160161681713994" cy="-45.896937273171446" fill="#b08564" fill-opacity="0.3" r="5.469237441218039"></circle><circle cx="26.327680808994355" cy="-41.326180844831406" fill="#b08564" fill-opacity="0.3" r="5.469237441218039"></circle><circle cx="34.34455395069272" cy="-34.94927200855487" fill="#b08564" fill-opacity="0.3" r="5.469237441218039"></circle><circle cx="40.8604052812913" cy="-27.044912280290767" fill="#b08564" fill-opacity="0.3" r="5.469237441218039"></circle><circle cx="45.5904608311192" cy="-17.958560109490588" fill="#b08564" fill-opacity="0.3" r="5.469237441218039"></circle><circle cx="48.327994475324346" cy="-8.087332687173166" fill="#b08564" fill-opacity="0.3" r="5.469237441218039"></circle><circle cx="48.95336285751103" cy="2.137349980901556" fill="#b08564" fill-opacity="0.3" r="5.469237441218039"></circle><circle cx="47.43923437852728" cy="12.268620198667605" fill="#b08564" fill-opacity="0.3" r="5.469237441218039"></circle><circle cx="43.85178371849921" cy="21.86369284238066" fill="#b08564" fill-opacity="0.3" r="5.469237441218039"></circle><circle cx="38.34779968576823" cy="30.503217195243426" fill="#b08564" fill-opacity="0.3" r="5.469237441218039"></circle><circle cx="31.16783279361045" cy="37.809604585998265" fill="#b08564" fill-opacity="0.3" r="5.469237441218039"></circle><circle cx="22.62568204851663" cy="43.46353082573289" fill="#b08564" fill-opacity="0.3" r="5.469237441218039"></circle><circle cx="13.094680427834659" cy="47.217892207222505" fill="#b08564" fill-opacity="0.3" r="5.469237441218039"></circle><circle cx="2.9913784372080063" cy="48.90860512267148" fill="#b08564" fill-opacity="0.3" r="5.469237441218039"></circle><circle cx="-7.242661145350951" cy="48.46177730473392" fill="#b08564" fill-opacity="0.3" r="5.469237441218039"></circle><circle cx="-17.160161681713824" cy="45.89693727317151" fill="#b08564" fill-opacity="0.3" r="5.469237441218039"></circle><circle cx="-26.327680808994348" cy="41.326180844831406" fill="#b08564" fill-opacity="0.3" r="5.469237441218039"></circle><circle cx="-34.34455395069272" cy="34.94927200855487" fill="#b08564" fill-opacity="0.3" r="5.469237441218039"></circle><circle cx="-40.86040528129119" cy="27.044912280290927" fill="#b08564" fill-opacity="0.3" r="5.469237441218039"></circle><circle cx="-45.5904608311192" cy="17.958560109490595" fill="#b08564" fill-opacity="0.3" r="5.469237441218039"></circle><circle cx="-48.327994475324346" cy="8.087332687173177" fill="#b08564" fill-opacity="0.3" r="5.469237441218039"></circle><circle cx="-48.95336285751103" cy="-2.1373499809015497" fill="#b08564" fill-opacity="0.3" r="5.469237441218039"></circle><circle cx="-47.439234378527246" cy="-12.268620198667772" fill="#b08564" fill-opacity="0.3" r="5.469237441218039"></circle><circle cx="-43.85178371849922" cy="-21.863692842380658" fill="#b08564" fill-opacity="0.3" r="5.469237441218039"></circle><circle cx="-38.34779968576823" cy="-30.503217195243423" fill="#b08564" fill-opacity="0.3" r="5.469237441218039"></circle><circle cx="-31.167832793610323" cy="-37.80960458599837" fill="#b08564" fill-opacity="0.3" r="5.469237441218039"></circle><circle cx="60.14032773029816" cy="21.88928917284273" fill="#b08564" fill-opacity="0.3" r="7.143493800774581"></circle><circle cx="54.27507815401126" cy="33.914832910925114" fill="#b08564" fill-opacity="0.3" r="7.143493800774581"></circle><circle cx="46.037747221673776" cy="44.45813570937572" fill="#b08564" fill-opacity="0.3" r="7.143493800774581"></circle><circle cx="35.788345822127866" cy="53.05840464352263" fill="#b08564" fill-opacity="0.3" r="7.143493800774581"></circle><circle cx="23.974821978618362" cy="59.3397666922744" fill="#b08564" fill-opacity="0.3" r="7.143493800774581"></circle><circle cx="11.113483370683678" cy="63.027696192781285" fill="#b08564" fill-opacity="0.3" r="7.143493800774581"></circle><circle cx="-2.2335677889599856" cy="63.96101292922213" fill="#b08564" fill-opacity="0.3" r="7.143493800774581"></circle><circle cx="-15.483001318378735" cy="62.098926481663774" fill="#b08564" fill-opacity="0.3" r="7.143493800774581"></circle><circle cx="-28.055753394500815" cy="57.522818963146754" fill="#b08564" fill-opacity="0.3" r="7.143493800774581"></circle><circle cx="-39.402334420842074" cy="50.43268823083026" fill="#b08564" fill-opacity="0.3" r="7.143493800774581"></circle><circle cx="-49.02684435961459" cy="41.13840701993851" fill="#b08564" fill-opacity="0.3" r="7.143493800774581"></circle><circle cx="-56.50864594297125" cy="30.046180018297147" fill="#b08564" fill-opacity="0.3" r="7.143493800774581"></circle><circle cx="-61.52074854005239" cy="17.64079077228802" fill="#b08564" fill-opacity="0.3" r="7.143493800774581"></circle><circle cx="-63.84409921662875" cy="4.464414319624032" fill="#b08564" fill-opacity="0.3" r="7.143493800774581"></circle><circle cx="-63.377156399460524" cy="-8.907078461444035" fill="#b08564" fill-opacity="0.3" r="7.143493800774581"></circle><circle cx="-60.14032773029816" cy="-21.889289172842723" fill="#b08564" fill-opacity="0.3" r="7.143493800774581"></circle><circle cx="-54.27507815401138" cy="-33.914832910924915" fill="#b08564" fill-opacity="0.3" r="7.143493800774581"></circle><circle cx="-46.03774722167378" cy="-44.45813570937572" fill="#b08564" fill-opacity="0.3" r="7.143493800774581"></circle><circle cx="-35.788345822127866" cy="-53.05840464352263" fill="#b08564" fill-opacity="0.3" r="7.143493800774581"></circle><circle cx="-23.974821978618586" cy="-59.33976669227431" fill="#b08564" fill-opacity="0.3" r="7.143493800774581"></circle><circle cx="-11.113483370683692" cy="-63.027696192781285" fill="#b08564" fill-opacity="0.3" r="7.143493800774581"></circle><circle cx="2.233567788959978" cy="-63.961012929222136" fill="#b08564" fill-opacity="0.3" r="7.143493800774581"></circle><circle cx="15.483001318378506" cy="-62.09892648166383" fill="#b08564" fill-opacity="0.3" r="7.143493800774581"></circle><circle cx="28.055753394500808" cy="-57.522818963146754" fill="#b08564" fill-opacity="0.3" r="7.143493800774581"></circle><circle cx="39.40233442084207" cy="-50.43268823083026" fill="#b08564" fill-opacity="0.3" r="7.143493800774581"></circle><circle cx="49.02684435961459" cy="-41.13840701993852" fill="#b08564" fill-opacity="0.3" r="7.143493800774581"></circle><circle cx="56.508645942971356" cy="-30.046180018296955" fill="#b08564" fill-opacity="0.3" r="7.143493800774581"></circle><circle cx="61.52074854005239" cy="-17.64079077228802" fill="#b08564" fill-opacity="0.3" r="7.143493800774581"></circle><circle cx="63.84409921662875" cy="-4.464414319624032" fill="#b08564" fill-opacity="0.3" r="7.143493800774581"></circle><circle cx="63.377156399460496" cy="8.90707846144425" fill="#b08564" fill-opacity="0.3" r="7.143493800774581"></circle><circle cx="-74.83424213341412" cy="30.997358021572506" fill="#b08564" fill-opacity="0.3" r="9.040984341605329"></circle><circle cx="-79.6436475126803" cy="14.761077564864102" fill="#b08564" fill-opacity="0.3" r="9.040984341605329"></circle><circle cx="-80.97224332302015" cy="-2.1203328129373804" fill="#b08564" fill-opacity="0.3" r="9.040984341605329"></circle><circle cx="-78.76196355221185" cy="-18.909074472328093" fill="#b08564" fill-opacity="0.3" r="9.040984341605329"></circle><circle cx="-73.10940803233878" cy="-34.871398841471766" fill="#b08564" fill-opacity="0.3" r="9.040984341605329"></circle><circle cx="-64.26162056359027" cy="-49.309675749706095" fill="#b08564" fill-opacity="0.3" r="9.040984341605329"></circle><circle cx="-52.60529191474507" cy="-61.59288321360234" fill="#b08564" fill-opacity="0.3" r="9.040984341605329"></circle><circle cx="-38.64985958102842" cy="-71.18418612561912" fill="#b08564" fill-opacity="0.3" r="9.040984341605329"></circle><circle cx="-23.005242921018077" cy="-77.66439852432353" fill="#b08564" fill-opacity="0.3" r="9.040984341605329"></circle><circle cx="-6.355186753955697" cy="-80.75030403238334" fill="#b08564" fill-opacity="0.3" r="9.040984341605329"></circle><circle cx="10.572621569824022" cy="-80.30703377127865" fill="#b08564" fill-opacity="0.3" r="9.040984341605329"></circle><circle cx="27.038355597935116" cy="-76.35396077846657" fill="#b08564" fill-opacity="0.3" r="9.040984341605329"></circle><circle cx="42.32238374199164" cy="-69.0638533126816" fill="#b08564" fill-opacity="0.3" r="9.040984341605329"></circle><circle cx="55.75672063119396" cy="-58.75532405199541" fill="#b08564" fill-opacity="0.3" r="9.040984341605329"></circle><circle cx="66.75422127838307" cy="-45.878905190911745" fill="#b08564" fill-opacity="0.3" r="9.040984341605329"></circle><circle cx="74.83424213341412" cy="-30.997358021572506" fill="#b08564" fill-opacity="0.3" r="9.040984341605329"></circle><circle cx="79.64364751268025" cy="-14.761077564864388" fill="#b08564" fill-opacity="0.3" r="9.040984341605329"></circle><circle cx="80.97224332302015" cy="2.12033281293737" fill="#b08564" fill-opacity="0.3" r="9.040984341605329"></circle><circle cx="78.76196355221185" cy="18.909074472328086" fill="#b08564" fill-opacity="0.3" r="9.040984341605329"></circle><circle cx="73.1094080323389" cy="34.871398841471496" fill="#b08564" fill-opacity="0.3" r="9.040984341605329"></circle><circle cx="64.26162056359027" cy="49.309675749706095" fill="#b08564" fill-opacity="0.3" r="9.040984341605329"></circle><circle cx="52.605291914745074" cy="61.592883213602335" fill="#b08564" fill-opacity="0.3" r="9.040984341605329"></circle><circle cx="38.64985958102868" cy="71.18418612561898" fill="#b08564" fill-opacity="0.3" r="9.040984341605329"></circle><circle cx="23.005242921018077" cy="77.66439852432353" fill="#b08564" fill-opacity="0.3" r="9.040984341605329"></circle><circle cx="6.355186753955697" cy="80.75030403238334" fill="#b08564" fill-opacity="0.3" r="9.040984341605329"></circle><circle cx="-10.572621569824014" cy="80.30703377127865" fill="#b08564" fill-opacity="0.3" r="9.040984341605329"></circle><circle cx="-27.03835559793538" cy="76.35396077846649" fill="#b08564" fill-opacity="0.3" r="9.040984341605329"></circle><circle cx="-42.322383741991636" cy="69.0638533126816" fill="#b08564" fill-opacity="0.3" r="9.040984341605329"></circle><circle cx="-55.75672063119396" cy="58.755324051995416" fill="#b08564" fill-opacity="0.3" r="9.040984341605329"></circle><circle cx="-66.75422127838324" cy="45.87890519091151" fill="#b08564" fill-opacity="0.3" r="9.040984341605329"></circle><circle cx="42.26182617406982" cy="-90.63077870366504" fill="#b08564" fill-opacity="0.3" r="11.161709063710283"></circle><circle cx="60.1815023152048" cy="-79.86355100472929" fill="#b08564" fill-opacity="0.3" r="11.161709063710283"></circle><circle cx="75.47095802227703" cy="-65.60590289905092" fill="#b08564" fill-opacity="0.3" r="11.161709063710283"></circle><circle cx="87.4619707139395" cy="-48.480962024633826" fill="#b08564" fill-opacity="0.3" r="11.161709063710283"></circle><circle cx="95.63047559630353" cy="-29.237170472273693" fill="#b08564" fill-opacity="0.3" r="11.161709063710283"></circle><circle cx="99.61946980917453" cy="-8.715574274766075" fill="#b08564" fill-opacity="0.3" r="11.161709063710283"></circle><circle cx="99.25461516413222" cy="12.1869343405146" fill="#b08564" fill-opacity="0.3" r="11.161709063710283"></circle><circle cx="94.55185755993169" cy="32.55681544571564" fill="#b08564" fill-opacity="0.3" r="11.161709063710283"></circle><circle cx="85.71673007021138" cy="51.50380749100518" fill="#b08564" fill-opacity="0.3" r="11.161709063710283"></circle><circle cx="73.13537016191715" cy="68.19983600624975" fill="#b08564" fill-opacity="0.3" r="11.161709063710283"></circle><circle cx="57.35764363510464" cy="81.91520442889916" fill="#b08564" fill-opacity="0.3" r="11.161709063710283"></circle><circle cx="39.07311284892761" cy="92.05048534524393" fill="#b08564" fill-opacity="0.3" r="11.161709063710283"></circle><circle cx="19.08089953765462" cy="98.16271834476636" fill="#b08564" fill-opacity="0.3" r="11.161709063710283"></circle><circle cx="-1.745240643728316" cy="99.98476951563913" fill="#b08564" fill-opacity="0.3" r="11.161709063710283"></circle><circle cx="-22.495105434386236" cy="97.43700647852359" fill="#b08564" fill-opacity="0.3" r="11.161709063710283"></circle><circle cx="-42.2618261740698" cy="90.63077870366506" fill="#b08564" fill-opacity="0.3" r="11.161709063710283"></circle><circle cx="-60.1815023152048" cy="79.8635510047293" fill="#b08564" fill-opacity="0.3" r="11.161709063710283"></circle><circle cx="-75.47095802227702" cy="65.60590289905093" fill="#b08564" fill-opacity="0.3" r="11.161709063710283"></circle><circle cx="-87.4619707139395" cy="48.48096202463385" fill="#b08564" fill-opacity="0.3" r="11.161709063710283"></circle><circle cx="-95.63047559630343" cy="29.237170472274055" fill="#b08564" fill-opacity="0.3" r="11.161709063710283"></circle><circle cx="-99.61946980917453" cy="8.715574274766094" fill="#b08564" fill-opacity="0.3" r="11.161709063710283"></circle><circle cx="-99.25461516413222" cy="-12.18693434051459" fill="#b08564" fill-opacity="0.3" r="11.161709063710283"></circle><circle cx="-94.55185755993169" cy="-32.55681544571563" fill="#b08564" fill-opacity="0.3" r="11.161709063710283"></circle><circle cx="-85.71673007021138" cy="-51.50380749100518" fill="#b08564" fill-opacity="0.3" r="11.161709063710283"></circle><circle cx="-73.13537016191715" cy="-68.19983600624973" fill="#b08564" fill-opacity="0.3" r="11.161709063710283"></circle><circle cx="-57.35764363510464" cy="-81.91520442889916" fill="#b08564" fill-opacity="0.3" r="11.161709063710283"></circle><circle cx="-39.073112848927636" cy="-92.05048534524393" fill="#b08564" fill-opacity="0.3" r="11.161709063710283"></circle><circle cx="-19.080899537654638" cy="-98.16271834476636" fill="#b08564" fill-opacity="0.3" r="11.161709063710283"></circle><circle cx="1.7452406437283043" cy="-99.98476951563913" fill="#b08564" fill-opacity="0.3" r="11.161709063710283"></circle><circle cx="22.495105434386566" cy="-97.4370064785235" fill="#b08564" fill-opacity="0.3" r="11.161709063710283"></circle><circle cx="36.38540174001701" cy="115.39975104053548" fill="#b08564" fill-opacity="0.3" r="13.505667967089442"></circle><circle cx="11.597336054946911" cy="120.44294000242864" fill="#b08564" fill-opacity="0.3" r="13.505667967089442"></circle><circle cx="-13.697588865916593" cy="120.2221945368671" fill="#b08564" fill-opacity="0.3" r="13.505667967089442"></circle><circle cx="-38.39386342501617" cy="114.74716227995012" fill="#b08564" fill-opacity="0.3" r="13.505667967089442"></circle><circle cx="-61.41214191824534" cy="104.25712841342452" fill="#b08564" fill-opacity="0.3" r="13.505667967089442"></circle><circle cx="-81.74641512149479" cy="89.21055775402509" fill="#b08564" fill-opacity="0.3" r="13.505667967089442"></circle><circle cx="-98.50797772111464" cy="70.2650576410237" fill="#b08564" fill-opacity="0.3" r="13.505667967089442"></circle><circle cx="-110.96426900060008" cy="48.248637339954634" fill="#b08564" fill-opacity="0.3" r="13.505667967089442"></circle><circle cx="-118.57088925912036" cy="24.123520064480978" fill="#b08564" fill-opacity="0.3" r="13.505667967089442"></circle><circle cx="-120.99539269076473" cy="-1.055910795303262" fill="#b08564" fill-opacity="0.3" r="13.505667967089442"></circle><circle cx="-118.1318168615119" cy="-26.1891932865106" fill="#b08564" fill-opacity="0.3" r="13.505667967089442"></circle><circle cx="-110.10531377606178" cy="-50.1778823614048" fill="#b08564" fill-opacity="0.3" r="13.505667967089442"></circle><circle cx="-97.2666801346833" cy="-71.97355719691231" fill="#b08564" fill-opacity="0.3" r="13.505667967089442"></circle><circle cx="-80.17702583410411" cy="-90.62364221546937" fill="#b08564" fill-opacity="0.3" r="13.505667967089442"></circle><circle cx="-59.58325077251963" cy="-105.31303920872782" fill="#b08564" fill-opacity="0.3" r="13.505667967089442"></circle><circle cx="-36.38540174001702" cy="-115.39975104053548" fill="#b08564" fill-opacity="0.3" r="13.505667967089442"></circle><circle cx="-11.597336054947366" cy="-120.4429400024286" fill="#b08564" fill-opacity="0.3" r="13.505667967089442"></circle><circle cx="13.697588865916579" cy="-120.2221945368671" fill="#b08564" fill-opacity="0.3" r="13.505667967089442"></circle><circle cx="38.39386342501616" cy="-114.74716227995012" fill="#b08564" fill-opacity="0.3" r="13.505667967089442"></circle><circle cx="61.412141918244956" cy="-104.25712841342475" fill="#b08564" fill-opacity="0.3" r="13.505667967089442"></circle><circle cx="81.74641512149479" cy="-89.21055775402509" fill="#b08564" fill-opacity="0.3" r="13.505667967089442"></circle><circle cx="98.50797772111464" cy="-70.2650576410237" fill="#b08564" fill-opacity="0.3" r="13.505667967089442"></circle><circle cx="110.9642690005999" cy="-48.24863733995503" fill="#b08564" fill-opacity="0.3" r="13.505667967089442"></circle><circle cx="118.57088925912036" cy="-24.123520064480978" fill="#b08564" fill-opacity="0.3" r="13.505667967089442"></circle><circle cx="120.99539269076473" cy="1.0559107953032472" fill="#b08564" fill-opacity="0.3" r="13.505667967089442"></circle><circle cx="118.1318168615119" cy="26.18919328651059" fill="#b08564" fill-opacity="0.3" r="13.505667967089442"></circle><circle cx="110.1053137760616" cy="50.17788236140518" fill="#b08564" fill-opacity="0.3" r="13.505667967089442"></circle><circle cx="97.26668013468304" cy="71.97355719691262" fill="#b08564" fill-opacity="0.3" r="13.505667967089442"></circle><circle cx="80.17702583410446" cy="90.62364221546908" fill="#b08564" fill-opacity="0.3" r="13.505667967089442"></circle><circle cx="59.58325077251965" cy="105.3130392087278" fill="#b08564" fill-opacity="0.3" r="13.505667967089442"></circle><circle cx="-124.70765814495928" cy="-71.99999999999979" fill="#b08564" fill-opacity="0.3" r="16.07286105174281"></circle><circle cx="-107.01285486874482" cy="-96.35480731567554" fill="#b08564" fill-opacity="0.3" r="16.07286105174281"></circle><circle cx="-84.64107633011646" cy="-116.49844718999218" fill="#b08564" fill-opacity="0.3" r="16.07286105174281"></circle><circle cx="-58.570076602915464" cy="-131.55054590053442" fill="#b08564" fill-opacity="0.3" r="16.07286105174281"></circle><circle cx="-29.939283477757428" cy="-140.853254505668" fill="#b08564" fill-opacity="0.3" r="16.07286105174281"></circle><circle cx="-4.2332706716044654e-13" cy="-144" fill="#b08564" fill-opacity="0.3" r="16.07286105174281"></circle><circle cx="29.939283477757098" cy="-140.85325450566808" fill="#b08564" fill-opacity="0.3" r="16.07286105174281"></circle><circle cx="58.57007660291515" cy="-131.55054590053456" fill="#b08564" fill-opacity="0.3" r="16.07286105174281"></circle><circle cx="84.6410763301158" cy="-116.49844718999267" fill="#b08564" fill-opacity="0.3" r="16.07286105174281"></circle><circle cx="107.0128548687446" cy="-96.35480731567577" fill="#b08564" fill-opacity="0.3" r="16.07286105174281"></circle><circle cx="124.70765814495913" cy="-72.00000000000009" fill="#b08564" fill-opacity="0.3" r="16.07286105174281"></circle><circle cx="136.95213834650198" cy="-44.49844718999283" fill="#b08564" fill-opacity="0.3" r="16.07286105174281"></circle><circle cx="143.21115293303131" cy="-15.052098710542356" fill="#b08564" fill-opacity="0.3" r="16.07286105174281"></circle><circle cx="143.21115293303137" cy="15.05209871054201" fill="#b08564" fill-opacity="0.3" r="16.07286105174281"></circle><circle cx="136.95213834650224" cy="44.49844718999202" fill="#b08564" fill-opacity="0.3" r="16.07286105174281"></circle><circle cx="124.7076581449593" cy="71.99999999999977" fill="#b08564" fill-opacity="0.3" r="16.07286105174281"></circle><circle cx="107.01285486874517" cy="96.35480731567515" fill="#b08564" fill-opacity="0.3" r="16.07286105174281"></circle><circle cx="84.64107633011646" cy="116.49844718999218" fill="#b08564" fill-opacity="0.3" r="16.07286105174281"></circle><circle cx="58.57007660291549" cy="131.55054590053442" fill="#b08564" fill-opacity="0.3" r="16.07286105174281"></circle><circle cx="29.939283477757456" cy="140.853254505668" fill="#b08564" fill-opacity="0.3" r="16.07286105174281"></circle><circle cx="-7.062878886251125e-14" cy="144" fill="#b08564" fill-opacity="0.3" r="16.07286105174281"></circle><circle cx="-29.939283477756582" cy="140.8532545056682" fill="#b08564" fill-opacity="0.3" r="16.07286105174281"></circle><circle cx="-58.57007660291468" cy="131.55054590053476" fill="#b08564" fill-opacity="0.3" r="16.07286105174281"></circle><circle cx="-84.64107633011577" cy="116.4984471899927" fill="#b08564" fill-opacity="0.3" r="16.07286105174281"></circle><circle cx="-107.01285486874458" cy="96.35480731567577" fill="#b08564" fill-opacity="0.3" r="16.07286105174281"></circle><circle cx="-124.70765814495913" cy="72.0000000000001" fill="#b08564" fill-opacity="0.3" r="16.07286105174281"></circle><circle cx="-136.95213834650212" cy="44.498447189992376" fill="#b08564" fill-opacity="0.3" r="16.07286105174281"></circle><circle cx="-143.21115293303137" cy="15.052098710541872" fill="#b08564" fill-opacity="0.3" r="16.07286105174281"></circle><circle cx="-143.21115293303143" cy="-15.052098710541483" fill="#b08564" fill-opacity="0.3" r="16.07286105174281"></circle><circle cx="-136.95213834650224" cy="-44.498447189992" fill="#b08564" fill-opacity="0.3" r="16.07286105174281"></circle><circle cx="164.99402520326862" cy="-36.57829475553998" fill="#b08564" fill-opacity="0.3" r="18.863288317670378"></circle><circle cx="168.99356499784494" cy="-1.4747844992255972" fill="#b08564" fill-opacity="0.3" r="18.863288317670378"></circle><circle cx="165.60727508092037" cy="33.693180916505526" fill="#b08564" fill-opacity="0.3" r="18.863288317670378"></circle><circle cx="154.98315257108618" cy="67.38859264836604" fill="#b08564" fill-opacity="0.3" r="18.863288317670378"></circle><circle cx="137.58552260221853" cy="98.138799515148" fill="#b08564" fill-opacity="0.3" r="18.863288317670378"></circle><circle cx="114.1747450870472" cy="124.59986992091041" fill="#b08564" fill-opacity="0.3" r="18.863288317670378"></circle><circle cx="85.77398334035955" cy="145.6153281146175" fill="#b08564" fill-opacity="0.3" r="18.863288317670378"></circle><circle cx="53.62448693246098" cy="160.26669772984755" fill="#b08564" fill-opacity="0.3" r="18.863288317670378"></circle><circle cx="19.131343126776468" cy="167.91364360934324" fill="#b08564" fill-opacity="0.3" r="18.863288317670378"></circle><circle cx="-16.197932175917828" cy="168.2219575240532" fill="#b08564" fill-opacity="0.3" r="18.863288317670378"></circle><circle cx="-50.81928011622118" cy="161.17816467645065" fill="#b08564" fill-opacity="0.3" r="18.863288317670378"></circle><circle cx="-83.21958165748522" cy="147.09011261384347" fill="#b08564" fill-opacity="0.3" r="18.863288317670378"></circle><circle cx="-111.98278814845915" cy="126.5735168133418" fill="#b08564" fill-opacity="0.3" r="18.863288317670378"></circle><circle cx="-135.85180944430948" cy="100.52505096097701" fill="#b08564" fill-opacity="0.3" r="18.863288317670378"></circle><circle cx="-153.7834547781357" cy="70.0831580089046" fill="#b08564" fill-opacity="0.3" r="18.863288317670378"></circle><circle cx="-164.99402520326845" cy="36.5782947555406" fill="#b08564" fill-opacity="0.3" r="18.863288317670378"></circle><circle cx="-168.99356499784494" cy="1.4747844992262344" fill="#b08564" fill-opacity="0.3" r="18.863288317670378"></circle><circle cx="-165.60727508092037" cy="-33.6931809165055" fill="#b08564" fill-opacity="0.3" r="18.863288317670378"></circle><circle cx="-154.9831525710862" cy="-67.38859264836603" fill="#b08564" fill-opacity="0.3" r="18.863288317670378"></circle><circle cx="-137.5855226022182" cy="-98.13879951514846" fill="#b08564" fill-opacity="0.3" r="18.863288317670378"></circle><circle cx="-114.17474508704674" cy="-124.5998699209108" fill="#b08564" fill-opacity="0.3" r="18.863288317670378"></circle><circle cx="-85.77398334036006" cy="-145.6153281146172" fill="#b08564" fill-opacity="0.3" r="18.863288317670378"></circle><circle cx="-53.62448693246156" cy="-160.26669772984738" fill="#b08564" fill-opacity="0.3" r="18.863288317670378"></circle><circle cx="-19.131343126777068" cy="-167.91364360934318" fill="#b08564" fill-opacity="0.3" r="18.863288317670378"></circle><circle cx="16.197932175917213" cy="-168.22195752405327" fill="#b08564" fill-opacity="0.3" r="18.863288317670378"></circle><circle cx="50.819280116221734" cy="-161.17816467645048" fill="#b08564" fill-opacity="0.3" r="18.863288317670378"></circle><circle cx="83.21958165748573" cy="-147.0901126138432" fill="#b08564" fill-opacity="0.3" r="18.863288317670378"></circle><circle cx="111.9827881484596" cy="-126.57351681334141" fill="#b08564" fill-opacity="0.3" r="18.863288317670378"></circle><circle cx="135.8518094443091" cy="-100.52505096097752" fill="#b08564" fill-opacity="0.3" r="18.863288317670378"></circle><circle cx="153.78345477813545" cy="-70.08315800890516" fill="#b08564" fill-opacity="0.3" r="18.863288317670378"></circle><circle cx="-112.42098152480527" cy="160.5538006806422" fill="#b08564" fill-opacity="0.3" r="21.876949764872155"></circle><circle cx="-143.3453255173578" cy="133.6716785722493" fill="#b08564" fill-opacity="0.3" r="21.876949764872155"></circle><circle cx="-168.00479093761442" cy="100.94746268236995" fill="#b08564" fill-opacity="0.3" r="21.876949764872155"></circle><circle cx="-185.3216408174664" cy="63.811358273601755" fill="#b08564" fill-opacity="0.3" r="21.876949764872155"></circle><circle cx="-194.5390457216991" cy="23.88639130740906" fill="#b08564" fill-opacity="0.3" r="21.876949764872155"></circle><circle cx="-195.25416082598213" cy="-17.082525578541066" fill="#b08564" fill-opacity="0.3" r="21.876949764872155"></circle><circle cx="-187.43573216875487" cy="-57.3048541256567" fill="#b08564" fill-opacity="0.3" r="21.876949764872155"></circle><circle cx="-171.4254625993213" cy="-95.02268556828253" fill="#b08564" fill-opacity="0.3" r="21.876949764872155"></circle><circle cx="-147.9230777236628" cy="-128.58756968214" fill="#b08564" fill-opacity="0.3" r="21.876949764872155"></circle><circle cx="-117.95574453780065" cy="-156.53255996927" fill="#b08564" fill-opacity="0.3" r="21.876949764872155"></circle><circle cx="-82.83317930117724" cy="-177.63632625918333" fill="#b08564" fill-opacity="0.3" r="21.876949764872155"></circle><circle cx="-44.090406651397466" cy="-190.97653269790612" fill="#b08564" fill-opacity="0.3" r="21.876949764872155"></circle><circle cx="-3.4206716617072574" cy="-195.9701482506527" fill="#b08564" fill-opacity="0.3" r="21.876949764872155"></circle><circle cx="37.39856309380329" cy="-192.39892795574204" fill="#b08564" fill-opacity="0.3" r="21.876949764872155"></circle><circle cx="76.58330118389836" cy="-180.418951276678" fill="#b08564" fill-opacity="0.3" r="21.876949764872155"></circle><circle cx="112.42098152480466" cy="-160.55380068064264" fill="#b08564" fill-opacity="0.3" r="21.876949764872155"></circle><circle cx="143.34532551735728" cy="-133.67167857224985" fill="#b08564" fill-opacity="0.3" r="21.876949764872155"></circle><circle cx="168.00479093761408" cy="-100.94746268237054" fill="#b08564" fill-opacity="0.3" r="21.876949764872155"></circle><circle cx="185.32164081746618" cy="-63.81135827360242" fill="#b08564" fill-opacity="0.3" r="21.876949764872155"></circle><circle cx="194.53904572169918" cy="-23.886391307408363" fill="#b08564" fill-opacity="0.3" r="21.876949764872155"></circle><circle cx="195.25416082598218" cy="17.082525578540345" fill="#b08564" fill-opacity="0.3" r="21.876949764872155"></circle><circle cx="187.43573216875507" cy="57.30485412565601" fill="#b08564" fill-opacity="0.3" r="21.876949764872155"></circle><circle cx="171.42546259932166" cy="95.02268556828189" fill="#b08564" fill-opacity="0.3" r="21.876949764872155"></circle><circle cx="147.92307772366328" cy="128.58756968213945" fill="#b08564" fill-opacity="0.3" r="21.876949764872155"></circle><circle cx="117.95574453780124" cy="156.53255996926956" fill="#b08564" fill-opacity="0.3" r="21.876949764872155"></circle><circle cx="82.83317930117663" cy="177.6363262591836" fill="#b08564" fill-opacity="0.3" r="21.876949764872155"></circle><circle cx="44.09040665139686" cy="190.97653269790626" fill="#b08564" fill-opacity="0.3" r="21.876949764872155"></circle><circle cx="3.4206716617066353" cy="195.9701482506527" fill="#b08564" fill-opacity="0.3" r="21.876949764872155"></circle><circle cx="-37.39856309380396" cy="192.3989279557419" fill="#b08564" fill-opacity="0.3" r="21.876949764872155"></circle><circle cx="-76.58330118389767" cy="180.4189512766783" fill="#b08564" fill-opacity="0.3" r="21.876949764872155"></circle><circle cx="-29.368393249511698" cy="-223.0750938091073" fill="#b08564" fill-opacity="0.3" r="25.113845393348136"></circle><circle cx="17.653296538765293" cy="-224.30640008995377" fill="#b08564" fill-opacity="0.3" r="25.113845393348136"></circle><circle cx="63.90345255838303" cy="-215.7344403453433" fill="#b08564" fill-opacity="0.3" r="25.113845393348136"></circle><circle cx="107.36072105841252" cy="-197.73385034894187" fill="#b08564" fill-opacity="0.3" r="25.113845393348136"></circle><circle cx="146.12581087429083" cy="-171.0913422600074" fill="#b08564" fill-opacity="0.3" r="25.113845393348136"></circle><circle cx="178.5045015655277" cy="-136.9713215269624" fill="#b08564" fill-opacity="0.3" r="25.113845393348136"></circle><circle cx="203.0816889787186" cy="-96.86499678186648" fill="#b08564" fill-opacity="0.3" r="25.113845393348136"></circle><circle cx="218.78323208947725" cy="-52.52520686757854" fill="#b08564" fill-opacity="0.3" r="25.113845393348136"></circle><circle cx="224.9228981195004" cy="-5.889813369271014" fill="#b08564" fill-opacity="0.3" r="25.113845393348136"></circle><circle cx="221.23235420188968" cy="41.00299323573387" fill="#b08564" fill-opacity="0.3" r="25.113845393348136"></circle><circle cx="207.87289481503976" cy="86.10377228214462" fill="#b08564" fill-opacity="0.3" r="25.113845393348136"></circle><circle cx="185.42839243995377" cy="127.44140330808709" fill="#b08564" fill-opacity="0.3" r="25.113845393348136"></circle><circle cx="154.8797795310947" cy="163.20923347776466" fill="#b08564" fill-opacity="0.3" r="25.113845393348136"></circle><circle cx="117.56217706108838" cy="191.8440369796708" fill="#b08564" fill-opacity="0.3" r="25.113845393348136"></circle><circle cx="75.10654332759809" cy="212.09433549574027" fill="#b08564" fill-opacity="0.3" r="25.113845393348136"></circle><circle cx="29.36839324951254" cy="223.07509380910722" fill="#b08564" fill-opacity="0.3" r="25.113845393348136"></circle><circle cx="-17.65329653876447" cy="224.30640008995385" fill="#b08564" fill-opacity="0.3" r="25.113845393348136"></circle><circle cx="-63.903452558382234" cy="215.73444034534353" fill="#b08564" fill-opacity="0.3" r="25.113845393348136"></circle><circle cx="-107.3607210584118" cy="197.73385034894224" fill="#b08564" fill-opacity="0.3" r="25.113845393348136"></circle><circle cx="-146.12581087429146" cy="171.09134226000685" fill="#b08564" fill-opacity="0.3" r="25.113845393348136"></circle><circle cx="-178.5045015655272" cy="136.9713215269631" fill="#b08564" fill-opacity="0.3" r="25.113845393348136"></circle><circle cx="-203.08168897871823" cy="96.86499678186725" fill="#b08564" fill-opacity="0.3" r="25.113845393348136"></circle><circle cx="-218.78323208947708" cy="52.525206867579364" fill="#b08564" fill-opacity="0.3" r="25.113845393348136"></circle><circle cx="-224.92289811950036" cy="5.88981336927186" fill="#b08564" fill-opacity="0.3" r="25.113845393348136"></circle><circle cx="-221.23235420188982" cy="-41.002993235733065" fill="#b08564" fill-opacity="0.3" r="25.113845393348136"></circle><circle cx="-207.87289481503947" cy="-86.10377228214533" fill="#b08564" fill-opacity="0.3" r="25.113845393348136"></circle><circle cx="-185.42839243995329" cy="-127.44140330808774" fill="#b08564" fill-opacity="0.3" r="25.113845393348136"></circle><circle cx="-154.87977953109416" cy="-163.2092334777652" fill="#b08564" fill-opacity="0.3" r="25.113845393348136"></circle><circle cx="-117.56217706108768" cy="-191.84403697967124" fill="#b08564" fill-opacity="0.3" r="25.113845393348136"></circle><circle cx="-75.10654332759886" cy="-212.09433549573998" fill="#b08564" fill-opacity="0.3" r="25.113845393348136"></circle><circle cx="196.10737743845874" cy="164.5536280797536" fill="#b08564" fill-opacity="0.3" r="28.573975203098325"></circle><circle cx="157.60933768336872" cy="201.7307529233207" fill="#b08564" fill-opacity="0.3" r="28.573975203098325"></circle><circle cx="112.22301357800382" cy="230.09127585258676" fill="#b08564" fill-opacity="0.3" r="28.573975203098325"></circle><circle cx="61.93200527351464" cy="248.39570592665518" fill="#b08564" fill-opacity="0.3" r="28.573975203098325"></circle><circle cx="8.934271155841467" cy="255.8440517168885" fill="#b08564" fill-opacity="0.3" r="28.573975203098325"></circle><circle cx="-44.453933482733284" cy="252.11078477112542" fill="#b08564" fill-opacity="0.3" r="28.573975203098325"></circle><circle cx="-95.89928791447294" cy="237.3590667690978" fill="#b08564" fill-opacity="0.3" r="28.573975203098325"></circle><circle cx="-143.15338328851095" cy="212.23361857409085" fill="#b08564" fill-opacity="0.3" r="28.573975203098325"></circle><circle cx="-184.15098888669468" cy="177.83254283750333" fill="#b08564" fill-opacity="0.3" r="28.573975203098325"></circle><circle cx="-217.1003126160452" cy="135.6593316437002" fill="#b08564" fill-opacity="0.3" r="28.573975203098325"></circle><circle cx="-240.5613109211921" cy="87.55715669137234" fill="#b08564" fill-opacity="0.3" r="28.573975203098325"></circle><circle cx="-253.5086255978419" cy="35.628313845777654" fill="#b08564" fill-opacity="0.3" r="28.573975203098325"></circle><circle cx="-255.37639686651505" cy="-17.85765727849547" fill="#b08564" fill-opacity="0.3" r="28.573975203098325"></circle><circle cx="-246.08299416020972" cy="-70.56316308915149" fill="#b08564" fill-opacity="0.3" r="28.573975203098325"></circle><circle cx="-226.03458377188528" cy="-120.18472007318805" fill="#b08564" fill-opacity="0.3" r="28.573975203098325"></circle><circle cx="-196.10737743845934" cy="-164.55362807975288" fill="#b08564" fill-opacity="0.3" r="28.573975203098325"></circle><circle cx="-157.6093376833695" cy="-201.7307529233201" fill="#b08564" fill-opacity="0.3" r="28.573975203098325"></circle><circle cx="-112.22301357800464" cy="-230.09127585258636" fill="#b08564" fill-opacity="0.3" r="28.573975203098325"></circle><circle cx="-61.93200527351553" cy="-248.39570592665495" fill="#b08564" fill-opacity="0.3" r="28.573975203098325"></circle><circle cx="-8.934271155840552" cy="-255.8440517168885" fill="#b08564" fill-opacity="0.3" r="28.573975203098325"></circle><circle cx="44.453933482732346" cy="-252.11078477112557" fill="#b08564" fill-opacity="0.3" r="28.573975203098325"></circle><circle cx="95.89928791447207" cy="-237.35906676909815" fill="#b08564" fill-opacity="0.3" r="28.573975203098325"></circle><circle cx="143.15338328851018" cy="-212.23361857409137" fill="#b08564" fill-opacity="0.3" r="28.573975203098325"></circle><circle cx="184.15098888669402" cy="-177.832542837504" fill="#b08564" fill-opacity="0.3" r="28.573975203098325"></circle><circle cx="217.1003126160447" cy="-135.65933164370097" fill="#b08564" fill-opacity="0.3" r="28.573975203098325"></circle><circle cx="240.56131092119242" cy="-87.55715669137149" fill="#b08564" fill-opacity="0.3" r="28.573975203098325"></circle><circle cx="253.508625597842" cy="-35.62831384577675" fill="#b08564" fill-opacity="0.3" r="28.573975203098325"></circle><circle cx="255.37639686651497" cy="17.857657278496344" fill="#b08564" fill-opacity="0.3" r="28.573975203098325"></circle><circle cx="246.0829941602095" cy="70.56316308915234" fill="#b08564" fill-opacity="0.3" r="28.573975203098325"></circle><circle cx="226.0345837718857" cy="120.18472007318721" fill="#b08564" fill-opacity="0.3" r="28.573975203098325"></circle><circle cx="-288.72493603715685" cy="12.606002948583308" fill="#b08564" fill-opacity="0.3" r="32.25733919412272"></circle><circle cx="-285.03653884426" cy="-47.69875809373498" fill="#b08564" fill-opacity="0.3" r="32.25733919412272"></circle><circle cx="-268.8906771468053" cy="-105.91885452332143" fill="#b08564" fill-opacity="0.3" r="32.25733919412272"></circle><circle cx="-240.99300257741172" cy="-159.50978875518467" fill="#b08564" fill-opacity="0.3" r="32.25733919412272"></circle><circle cx="-202.56277738265825" cy="-206.12937980555716" fill="#b08564" fill-opacity="0.3" r="32.25733919412272"></circle><circle cx="-155.2795868122334" cy="-243.74012783992313" fill="#b08564" fill-opacity="0.3" r="32.25733919412272"></circle><circle cx="-101.20993318398723" cy="-270.6982626927865" fill="#b08564" fill-opacity="0.3" r="32.25733919412272"></circle><circle cx="-42.71691981645832" cy="-285.82558451159383" fill="#b08564" fill-opacity="0.3" r="32.25733919412272"></circle><circle cx="17.64302792557309" cy="-288.46095674391955" fill="#b08564" fill-opacity="0.3" r="32.25733919412272"></circle><circle cx="77.23189068661603" cy="-278.4892009772921" fill="#b08564" fill-opacity="0.3" r="32.25733919412272"></circle><circle cx="133.4453492249231" cy="-256.34613078850697" fill="#b08564" fill-opacity="0.3" r="32.25733919412272"></circle><circle cx="183.82660566027255" cy="-222.99950459905207" fill="#b08564" fill-opacity="0.3" r="32.25733919412272"></circle><circle cx="226.17375733034686" cy="-179.90672998827304" fill="#b08564" fill-opacity="0.3" r="32.25733919412272"></circle><circle cx="258.63603050298485" cy="-128.95116798873553" fill="#b08564" fill-opacity="0.3" r="32.25733919412272"></circle><circle cx="279.79466806927303" cy="-72.35982117173407" fill="#b08564" fill-opacity="0.3" r="32.25733919412272"></circle><circle cx="288.7249360371568" cy="-12.60600294858434" fill="#b08564" fill-opacity="0.3" r="32.25733919412272"></circle><circle cx="285.0365388442602" cy="47.698758093733936" fill="#b08564" fill-opacity="0.3" r="32.25733919412272"></circle><circle cx="268.8906771468057" cy="105.91885452332045" fill="#b08564" fill-opacity="0.3" r="32.25733919412272"></circle><circle cx="240.99300257741228" cy="159.5097887551838" fill="#b08564" fill-opacity="0.3" r="32.25733919412272"></circle><circle cx="202.56277738265752" cy="206.12937980555787" fill="#b08564" fill-opacity="0.3" r="32.25733919412272"></circle><circle cx="155.27958681223433" cy="243.74012783992256" fill="#b08564" fill-opacity="0.3" r="32.25733919412272"></circle><circle cx="101.20993318398824" cy="270.6982626927861" fill="#b08564" fill-opacity="0.3" r="32.25733919412272"></circle><circle cx="42.716919816459395" cy="285.82558451159366" fill="#b08564" fill-opacity="0.3" r="32.25733919412272"></circle><circle cx="-17.643027925572028" cy="288.4609567439196" fill="#b08564" fill-opacity="0.3" r="32.25733919412272"></circle><circle cx="-77.23189068661499" cy="278.4892009772924" fill="#b08564" fill-opacity="0.3" r="32.25733919412272"></circle><circle cx="-133.44534922492397" cy="256.3461307885065" fill="#b08564" fill-opacity="0.3" r="32.25733919412272"></circle><circle cx="-183.82660566027334" cy="222.99950459905142" fill="#b08564" fill-opacity="0.3" r="32.25733919412272"></circle><circle cx="-226.17375733034748" cy="179.9067299882722" fill="#b08564" fill-opacity="0.3" r="32.25733919412272"></circle><circle cx="-258.6360305029853" cy="128.95116798873465" fill="#b08564" fill-opacity="0.3" r="32.25733919412272"></circle><circle cx="-279.79466806927275" cy="72.35982117173512" fill="#b08564" fill-opacity="0.3" r="32.25733919412272"></circle><circle cx="229.10259710443998" cy="-229.1025971044428" fill="#b08564" fill-opacity="0.3" r="36.163937366421315"></circle><circle cx="271.7292640143165" cy="-176.46304734487012" fill="#b08564" fill-opacity="0.3" r="36.163937366421315"></circle><circle cx="302.48005818509296" cy="-116.11121565267837" fill="#b08564" fill-opacity="0.3" r="36.163937366421315"></circle><circle cx="320.0110223528245" cy="-50.68476667303557" fill="#b08564" fill-opacity="0.3" r="36.163937366421315"></circle><circle cx="323.5559692604821" cy="16.956849822711042" fill="#b08564" fill-opacity="0.3" r="36.163937366421315"></circle><circle cx="312.95996771765874" cy="83.85737061321444" fill="#b08564" fill-opacity="0.3" r="36.163937366421315"></circle><circle cx="288.68611383703205" cy="147.09292191561136" fill="#b08564" fill-opacity="0.3" r="36.163937366421315"></circle><circle cx="251.79529151205958" cy="203.8998067001461" fill="#b08564" fill-opacity="0.3" r="36.163937366421315"></circle><circle cx="203.89980670014828" cy="251.79529151205782" fill="#b08564" fill-opacity="0.3" r="36.163937366421315"></circle><circle cx="147.09292191561389" cy="288.6861138370308" fill="#b08564" fill-opacity="0.3" r="36.163937366421315"></circle><circle cx="83.85737061321942" cy="312.95996771765743" fill="#b08564" fill-opacity="0.3" r="36.163937366421315"></circle><circle cx="16.95684982271618" cy="323.5559692604818" fill="#b08564" fill-opacity="0.3" r="36.163937366421315"></circle><circle cx="-50.68476667303281" cy="320.01102235282497" fill="#b08564" fill-opacity="0.3" r="36.163937366421315"></circle><circle cx="-116.11121565267578" cy="302.4800581850939" fill="#b08564" fill-opacity="0.3" r="36.163937366421315"></circle><circle cx="-176.4630473448677" cy="271.72926401431806" fill="#b08564" fill-opacity="0.3" r="36.163937366421315"></circle><circle cx="-229.1025971044391" cy="229.10259710444362" fill="#b08564" fill-opacity="0.3" r="36.163937366421315"></circle><circle cx="-271.7292640143159" cy="176.46304734487111" fill="#b08564" fill-opacity="0.3" r="36.163937366421315"></circle><circle cx="-302.4800581850925" cy="116.11121565267952" fill="#b08564" fill-opacity="0.3" r="36.163937366421315"></circle><circle cx="-320.01102235282434" cy="50.68476667303677" fill="#b08564" fill-opacity="0.3" r="36.163937366421315"></circle><circle cx="-323.555969260482" cy="-16.95684982271215" fill="#b08564" fill-opacity="0.3" r="36.163937366421315"></circle><circle cx="-312.9599677176591" cy="-83.85737061321329" fill="#b08564" fill-opacity="0.3" r="36.163937366421315"></circle><circle cx="-288.6861138370326" cy="-147.09292191561033" fill="#b08564" fill-opacity="0.3" r="36.163937366421315"></circle><circle cx="-251.79529151206037" cy="-203.89980670014515" fill="#b08564" fill-opacity="0.3" r="36.163937366421315"></circle><circle cx="-203.89980670014927" cy="-251.79529151205702" fill="#b08564" fill-opacity="0.3" r="36.163937366421315"></circle><circle cx="-147.09292191561494" cy="-288.6861138370303" fill="#b08564" fill-opacity="0.3" r="36.163937366421315"></circle><circle cx="-83.85737061321828" cy="-312.9599677176577" fill="#b08564" fill-opacity="0.3" r="36.163937366421315"></circle><circle cx="-16.95684982271502" cy="-323.55596926048185" fill="#b08564" fill-opacity="0.3" r="36.163937366421315"></circle><circle cx="50.68476667303391" cy="-320.0110223528248" fill="#b08564" fill-opacity="0.3" r="36.163937366421315"></circle><circle cx="116.1112156526768" cy="-302.4800581850935" fill="#b08564" fill-opacity="0.3" r="36.163937366421315"></circle><circle cx="176.46304734486674" cy="-271.72926401431874" fill="#b08564" fill-opacity="0.3" r="36.163937366421315"></circle><circle cx="-15.746598838885959" cy="360.6564079910507" fill="#b08564" fill-opacity="0.3" r="40.293769719994124"></circle><circle cx="-90.38718146365343" cy="349.50129817649685" fill="#b08564" fill-opacity="0.3" r="40.293769719994124"></circle><circle cx="-161.07741053264144" cy="323.0713045383308" fill="#b08564" fill-opacity="0.3" r="40.293769719994124"></circle><circle cx="-224.7277838261794" cy="282.52154462372243" fill="#b08564" fill-opacity="0.3" r="40.293769719994124"></circle><circle cx="-278.55647460296615" cy="229.6242375202737" fill="#b08564" fill-opacity="0.3" r="40.293769719994124"></circle><circle cx="-320.21091077733763" cy="166.69124937784792" fill="#b08564" fill-opacity="0.3" r="40.293769719994124"></circle><circle cx="-347.8705936083128" cy="96.47305376425106" fill="#b08564" fill-opacity="0.3" r="40.293769719994124"></circle><circle cx="-360.32666223029395" cy="22.03852277208326" fill="#b08564" fill-opacity="0.3" r="40.293769719994124"></circle><circle cx="-357.0347266736519" cy="-53.359197417789915" fill="#b08564" fill-opacity="0.3" r="40.293769719994124"></circle><circle cx="-338.1386603186712" cy="-126.42486463466861" fill="#b08564" fill-opacity="0.3" r="40.293769719994124"></circle><circle cx="-304.4643119384524" cy="-193.9651586132024" fill="#b08564" fill-opacity="0.3" r="40.293769719994124"></circle><circle cx="-257.4834121446601" cy="-253.02824441224558" fill="#b08564" fill-opacity="0.3" r="40.293769719994124"></circle><circle cx="-199.24925169765328" cy="-301.0327817662475" fill="#b08564" fill-opacity="0.3" r="40.293769719994124"></circle><circle cx="-132.30694284747128" cy="-335.8807420415109" fill="#b08564" fill-opacity="0.3" r="40.293769719994124"></circle><circle cx="-59.58218571570414" cy="-356.0491021549406" fill="#b08564" fill-opacity="0.3" r="40.293769719994124"></circle><circle cx="15.74659883888463" cy="-360.65640799105074" fill="#b08564" fill-opacity="0.3" r="40.293769719994124"></circle><circle cx="90.38718146365215" cy="-349.50129817649724" fill="#b08564" fill-opacity="0.3" r="40.293769719994124"></circle><circle cx="161.07741053264024" cy="-323.07130453833145" fill="#b08564" fill-opacity="0.3" r="40.293769719994124"></circle><circle cx="224.7277838261803" cy="-282.52154462372164" fill="#b08564" fill-opacity="0.3" r="40.293769719994124"></circle><circle cx="278.55647460296694" cy="-229.6242375202728" fill="#b08564" fill-opacity="0.3" r="40.293769719994124"></circle><circle cx="320.21091077733826" cy="-166.69124937784687" fill="#b08564" fill-opacity="0.3" r="40.293769719994124"></circle><circle cx="347.87059360831245" cy="-96.47305376425237" fill="#b08564" fill-opacity="0.3" r="40.293769719994124"></circle><circle cx="360.3266622302939" cy="-22.03852277208462" fill="#b08564" fill-opacity="0.3" r="40.293769719994124"></circle><circle cx="357.0347266736521" cy="53.359197417788614" fill="#b08564" fill-opacity="0.3" r="40.293769719994124"></circle><circle cx="338.13866031867167" cy="126.42486463466739" fill="#b08564" fill-opacity="0.3" r="40.293769719994124"></circle><circle cx="304.4643119384518" cy="193.9651586132034" fill="#b08564" fill-opacity="0.3" r="40.293769719994124"></circle><circle cx="257.48341214465927" cy="253.02824441224647" fill="#b08564" fill-opacity="0.3" r="40.293769719994124"></circle><circle cx="199.2492516976523" cy="301.03278176624815" fill="#b08564" fill-opacity="0.3" r="40.293769719994124"></circle><circle cx="132.30694284747253" cy="335.8807420415104" fill="#b08564" fill-opacity="0.3" r="40.293769719994124"></circle><circle cx="59.58218571570548" cy="356.0491021549404" fill="#b08564" fill-opacity="0.3" r="40.293769719994124"></circle><circle cx="-257.1150438746166" cy="-306.4177772475905" fill="#b08564" fill-opacity="0.3" r="44.64683625484113"></circle><circle cx="-187.78862511435688" cy="-353.17903714357044" fill="#b08564" fill-opacity="0.3" r="44.64683625484113"></circle><circle cx="-110.25494232679982" cy="-384.5046783753275" fill="#b08564" fill-opacity="0.3" r="44.64683625484113"></circle><circle cx="-27.90258949765266" cy="-399.0256201039295" fill="#b08564" fill-opacity="0.3" r="44.64683625484113"></circle><circle cx="55.66924038402411" cy="-396.1072274966284" fill="#b08564" fill-opacity="0.3" r="44.64683625484113"></circle><circle cx="136.80805733026597" cy="-375.87704831436383" fill="#b08564" fill-opacity="0.3" r="44.64683625484113"></circle><circle cx="211.96770569328098" cy="-339.21923846257096" fill="#b08564" fill-opacity="0.3" r="44.64683625484113"></circle><circle cx="277.8633481835985" cy="-287.7359201354609" fill="#b08564" fill-opacity="0.3" r="44.64683625484113"></circle><circle cx="331.6150290220166" cy="-223.67716138829894" fill="#b08564" fill-opacity="0.3" r="44.64683625484113"></circle><circle cx="370.87354182671504" cy="-149.8426373663646" fill="#b08564" fill-opacity="0.3" r="44.64683625484113"></circle><circle cx="393.92310120488287" cy="-69.45927106677424" fill="#b08564" fill-opacity="0.3" r="44.64683625484113"></circle><circle cx="399.75633080763834" cy="13.959798680998736" fill="#b08564" fill-opacity="0.3" r="44.64683625484113"></circle><circle cx="388.1182905103989" cy="96.76875823986593" fill="#b08564" fill-opacity="0.3" r="44.64683625484113"></circle><circle cx="359.5176185196671" cy="175.34845871563033" fill="#b08564" fill-opacity="0.3" r="44.64683625484113"></circle><circle cx="315.2043014426889" cy="246.2645901302631" fill="#b08564" fill-opacity="0.3" r="44.64683625484113"></circle><circle cx="257.1150438746177" cy="306.4177772475895" fill="#b08564" fill-opacity="0.3" r="44.64683625484113"></circle><circle cx="187.7886251143582" cy="353.17903714356976" fill="#b08564" fill-opacity="0.3" r="44.64683625484113"></circle><circle cx="110.25494232680127" cy="384.5046783753271" fill="#b08564" fill-opacity="0.3" r="44.64683625484113"></circle><circle cx="27.90258949765131" cy="399.0256201039296" fill="#b08564" fill-opacity="0.3" r="44.64683625484113"></circle><circle cx="-55.66924038402544" cy="396.10722749662824" fill="#b08564" fill-opacity="0.3" r="44.64683625484113"></circle><circle cx="-136.80805733026727" cy="375.87704831436344" fill="#b08564" fill-opacity="0.3" r="44.64683625484113"></circle><circle cx="-211.96770569327975" cy="339.2192384625718" fill="#b08564" fill-opacity="0.3" r="44.64683625484113"></circle><circle cx="-277.8633481835974" cy="287.7359201354619" fill="#b08564" fill-opacity="0.3" r="44.64683625484113"></circle><circle cx="-331.61502902201573" cy="223.67716138830014" fill="#b08564" fill-opacity="0.3" r="44.64683625484113"></circle><circle cx="-370.87354182671453" cy="149.84263736636595" fill="#b08564" fill-opacity="0.3" r="44.64683625484113"></circle><circle cx="-393.9231012048831" cy="69.45927106677283" fill="#b08564" fill-opacity="0.3" r="44.64683625484113"></circle><circle cx="-399.7563308076383" cy="-13.959798681000107" fill="#b08564" fill-opacity="0.3" r="44.64683625484113"></circle><circle cx="-388.11829051039854" cy="-96.76875823986728" fill="#b08564" fill-opacity="0.3" r="44.64683625484113"></circle><circle cx="-359.5176185196678" cy="-175.34845871562902" fill="#b08564" fill-opacity="0.3" r="44.64683625484113"></circle><circle cx="-315.2043014426899" cy="-246.26459013026198" fill="#b08564" fill-opacity="0.3" r="44.64683625484113"></circle><circle cx="437.2271838658507" cy="57.56205076904066" fill="#b08564" fill-opacity="0.3" r="49.22313697096235"></circle><circle cx="415.7048975716512" cy="147.2088249220915" fill="#b08564" fill-opacity="0.3" r="49.22313697096235"></circle><circle cx="376.01431248015524" cy="230.4218670397325" fill="#b08564" fill-opacity="0.3" r="49.22313697096235"></circle><circle cx="319.8900976164214" cy="303.5643678809428" fill="#b08564" fill-opacity="0.3" r="49.22313697096235"></circle><circle cx="249.78515048385387" cy="363.43964918230716" fill="#b08564" fill-opacity="0.3" r="49.22313697096235"></circle><circle cx="168.76339367300702" cy="407.4308738374765" fill="#b08564" fill-opacity="0.3" r="49.22313697096235"></circle><circle cx="80.3658667420391" cy="433.6154142357036" fill="#b08564" fill-opacity="0.3" r="49.22313697096235"></circle><circle cx="-11.544034203770451" cy="440.8488803142208" fill="#b08564" fill-opacity="0.3" r="49.22313697096235"></circle><circle cx="-102.9494054604532" cy="428.8151348953756" fill="#b08564" fill-opacity="0.3" r="49.22313697096235"></circle><circle cx="-189.85539369245765" cy="398.0401103982888" fill="#b08564" fill-opacity="0.3" r="49.22313697096235"></circle><circle cx="-268.4637901928433" cy="349.86882306843665" fill="#b08564" fill-opacity="0.3" r="49.22313697096235"></circle><circle cx="-335.339030829612" cy="286.406589313613" fill="#b08564" fill-opacity="0.3" r="49.22313697096235"></circle><circle cx="-387.5583466839257" cy="210.42701327448916" fill="#b08564" fill-opacity="0.3" r="49.22313697096235"></circle><circle cx="-422.8395030768727" cy="125.2507670144314" fill="#b08564" fill-opacity="0.3" r="49.22313697096235"></circle><circle cx="-439.6405441763094" cy="34.600461215980665" fill="#b08564" fill-opacity="0.3" r="49.22313697096235"></circle><circle cx="-437.22718386585086" cy="-57.56205076903906" fill="#b08564" fill-opacity="0.3" r="49.22313697096235"></circle><circle cx="-415.70489757165177" cy="-147.20882492208995" fill="#b08564" fill-opacity="0.3" r="49.22313697096235"></circle><circle cx="-376.0143124801561" cy="-230.42186703973113" fill="#b08564" fill-opacity="0.3" r="49.22313697096235"></circle><circle cx="-319.89009761642035" cy="-303.5643678809439" fill="#b08564" fill-opacity="0.3" r="49.22313697096235"></circle><circle cx="-249.78515048385265" cy="-363.439649182308" fill="#b08564" fill-opacity="0.3" r="49.22313697096235"></circle><circle cx="-168.76339367300554" cy="-407.43087383747707" fill="#b08564" fill-opacity="0.3" r="49.22313697096235"></circle><circle cx="-80.36586674204065" cy="-433.6154142357033" fill="#b08564" fill-opacity="0.3" r="49.22313697096235"></circle><circle cx="11.544034203768831" cy="-440.8488803142208" fill="#b08564" fill-opacity="0.3" r="49.22313697096235"></circle><circle cx="102.94940546045163" cy="-428.815134895376" fill="#b08564" fill-opacity="0.3" r="49.22313697096235"></circle><circle cx="189.8553936924562" cy="-398.0401103982895" fill="#b08564" fill-opacity="0.3" r="49.22313697096235"></circle><circle cx="268.4637901928445" cy="-349.86882306843574" fill="#b08564" fill-opacity="0.3" r="49.22313697096235"></circle><circle cx="335.3390308296129" cy="-286.4065893136119" fill="#b08564" fill-opacity="0.3" r="49.22313697096235"></circle><circle cx="387.55834668392646" cy="-210.42701327448785" fill="#b08564" fill-opacity="0.3" r="49.22313697096235"></circle><circle cx="422.83950307687223" cy="-125.250767014433" fill="#b08564" fill-opacity="0.3" r="49.22313697096235"></circle><circle cx="439.6405441763092" cy="-34.60046121598233" fill="#b08564" fill-opacity="0.3" r="49.22313697096235"></circle><circle cx="-396.46958943587214" cy="277.61099519390615" fill="#b08564" fill-opacity="0.3" r="54.02267186835777"></circle><circle cx="-445.52434907098143" cy="189.1138661888078" fill="#b08564" fill-opacity="0.3" r="54.02267186835777"></circle><circle cx="-475.1075567886696" cy="92.35155376224637" fill="#b08564" fill-opacity="0.3" r="54.02267186835777"></circle><circle cx="-483.92628445569335" cy="-8.446964715647123" fill="#b08564" fill-opacity="0.3" r="54.02267186835777"></circle><circle cx="-471.5951113560541" cy="-108.87631030242972" fill="#b08564" fill-opacity="0.3" r="54.02267186835777"></circle><circle cx="-438.6529689257387" cy="-204.54723868249815" fill="#b08564" fill-opacity="0.3" r="54.02267186835777"></circle><circle cx="-386.5395868628896" cy="-291.27847120559153" fill="#b08564" fill-opacity="0.3" r="54.02267186835777"></circle><circle cx="-317.53257003140493" cy="-365.27943682782217" fill="#b08564" fill-opacity="0.3" r="54.02267186835777"></circle><circle cx="-234.64785619922594" cy="-423.3159382554682" fill="#b08564" fill-opacity="0.3" r="54.02267186835777"></circle><circle cx="-141.50790508580278" cy="-462.85150188610976" fill="#b08564" fill-opacity="0.3" r="54.02267186835777"></circle><circle cx="-42.183379489867505" cy="-482.1582338764048" fill="#b08564" fill-opacity="0.3" r="54.02267186835777"></circle><circle cx="58.98476220809098" cy="-480.3923373943999" fill="#b08564" fill-opacity="0.3" r="54.02267186835777"></circle><circle cx="157.57498675726399" cy="-457.63099059006925" fill="#b08564" fill-opacity="0.3" r="54.02267186835777"></circle><circle cx="249.2784282564669" cy="-414.8689735398219" fill="#b08564" fill-opacity="0.3" r="54.02267186835777"></circle><circle cx="330.08720627025025" cy="-353.97519158367766" fill="#b08564" fill-opacity="0.3" r="54.02267186835777"></circle><circle cx="396.46958943587117" cy="-277.6109951939075" fill="#b08564" fill-opacity="0.3" r="54.02267186835777"></circle><circle cx="445.5243490709807" cy="-189.11386618880948" fill="#b08564" fill-opacity="0.3" r="54.02267186835777"></circle><circle cx="475.1075567886693" cy="-92.35155376224817" fill="#b08564" fill-opacity="0.3" r="54.02267186835777"></circle><circle cx="483.92628445569335" cy="8.446964715645347" fill="#b08564" fill-opacity="0.3" r="54.02267186835777"></circle><circle cx="471.5951113560537" cy="108.87631030243135" fill="#b08564" fill-opacity="0.3" r="54.02267186835777"></circle><circle cx="438.65296892573946" cy="204.54723868249656" fill="#b08564" fill-opacity="0.3" r="54.02267186835777"></circle><circle cx="386.53958686289064" cy="291.27847120559005" fill="#b08564" fill-opacity="0.3" r="54.02267186835777"></circle><circle cx="317.5325700314063" cy="365.27943682782103" fill="#b08564" fill-opacity="0.3" r="54.02267186835777"></circle><circle cx="234.64785619922756" cy="423.3159382554673" fill="#b08564" fill-opacity="0.3" r="54.02267186835777"></circle><circle cx="141.50790508580448" cy="462.85150188610913" fill="#b08564" fill-opacity="0.3" r="54.02267186835777"></circle><circle cx="42.18337948986588" cy="482.15823387640495" fill="#b08564" fill-opacity="0.3" r="54.02267186835777"></circle><circle cx="-58.98476220809262" cy="480.3923373943997" fill="#b08564" fill-opacity="0.3" r="54.02267186835777"></circle><circle cx="-157.57498675726555" cy="457.63099059006873" fill="#b08564" fill-opacity="0.3" r="54.02267186835777"></circle><circle cx="-249.27842825646826" cy="414.8689735398211" fill="#b08564" fill-opacity="0.3" r="54.02267186835777"></circle><circle cx="-330.08720627024894" cy="353.97519158367885" fill="#b08564" fill-opacity="0.3" r="54.02267186835777"></circle></g></svg>