<svg width="500" height="500" style="background: rgb(60, 237, 62);" version="1.1" xmlns="http://www.w3.org/2000/svg"><g><path fill="#111" d="M-6,2,L12,0L-6,-2Z" transform="translate(12.357414448669202,12.357414448669202)rotate(-49.005245481587366)"></path><path fill="#111" d="M-6,2,L12,0L-6,-2Z" transform="translate(12.357414448669202,31.368821292775664)rotate(-48.92206607967801)"></path><path fill="#111" d="M-6,2,L12,0L-6,-2Z" transform="translate(12.357414448669202,50.38022813688213)rotate(-48.72265572145497)"></path><path fill="#111" d="M-6,2,L12,0L-6,-2Z" transform="translate(12.357414448669202,69.3916349809886)rotate(-48.33328267631545)"></path><path fill="#111" d="M-6,2,L12,0L-6,-2Z" transform="translate(12.357414448669202,88.40304182509506)rotate(-47.73835915984645)"></path><path fill="#111" d="M-6,2,L12,0L-6,-2Z" transform="translate(12.357414448669202,107.41444866920152)rotate(-46.93448582162334)"></path><path fill="#111" d="M-6,2,L12,0L-6,-2Z" transform="translate(12.357414448669202,126.425855513308)rotate(-45.93034873680911)"></path><path fill="#111" d="M-6,2,L12,0L-6,-2Z" transform="translate(12.357414448669202,145.43726235741445)rotate(-44.745712366796965)"></path><path fill="#111" d="M-6,2,L12,0L-6,-2Z" transform="translate(12.357414448669202,164.44866920152091)rotate(-43.409432464695506)"></path><path fill="#111" d="M-6,2,L12,0L-6,-2Z" transform="translate(12.357414448669202,183.46007604562737)rotate(-41.95639792203032)"></path><path fill="#111" d="M-6,2,L12,0L-6,-2Z" transform="translate(12.357414448669202,202.47148288973384)rotate(-40.42329474483562)"></path><path fill="#111" d="M-6,2,L12,0L-6,-2Z" transform="translate(12.357414448669202,221.4828897338403)rotate(-38.843556970345105)"></path><path fill="#111" d="M-6,2,L12,0L-6,-2Z" transform="translate(12.357414448669202,240.49429657794678)rotate(-37.246324646095196)"></path><path fill="#111" d="M-6,2,L12,0L-6,-2Z" transform="translate(12.357414448669202,259.5057034220532)rotate(-35.663627017519865)"></path><path fill="#111" d="M-6,2,L12,0L-6,-2Z" transform="translate(12.357414448669202,278.5171102661597)rotate(-34.14676130322889)"></path><path fill="#111" d="M-6,2,L12,0L-6,-2Z" transform="translate(12.357414448669202,297.52851711026614)rotate(-32.76627984119442)"></path><path fill="#111" d="M-6,2,L12,0L-6,-2Z" transform="translate(12.357414448669202,316.5399239543726)rotate(-31.604795227392675)"></path><path fill="#111" d="M-6,2,L12,0L-6,-2Z" transform="translate(12.357414448669202,335.5513307984791)rotate(-30.750655842551392)"></path><path fill="#111" d="M-6,2,L12,0L-6,-2Z" transform="translate(12.357414448669202,354.56273764258555)rotate(-30.292597121068873)"></path><path fill="#111" d="M-6,2,L12,0L-6,-2Z" transform="translate(12.357414448669202,373.57414448669203)rotate(-30.315330882645096)"></path><path fill="#111" d="M-6,2,L12,0L-6,-2Z" transform="translate(12.357414448669202,392.58555133079847)rotate(-30.896029016811976)"></path><path fill="#111" d="M-6,2,L12,0L-6,-2Z" transform="translate(12.357414448669202,411.59695817490496)rotate(-32.10165136538215)"></path><path fill="#111" d="M-6,2,L12,0L-6,-2Z" transform="translate(12.357414448669202,430.6083650190114)rotate(-33.987060787849586)"></path><path fill="#111" d="M-6,2,L12,0L-6,-2Z" transform="translate(12.357414448669202,449.6197718631179)rotate(-36.59386111998017)"></path><path fill="#111" d="M-6,2,L12,0L-6,-2Z" transform="translate(12.357414448669202,468.63117870722436)rotate(-39.94988604621441)"></path><path fill="#111" d="M-6,2,L12,0L-6,-2Z" transform="translate(12.357414448669202,487.6425855513308)rotate(-44.06925880207822)"></path><path fill="#111" d="M-6,2,L12,0L-6,-2Z" transform="translate(31.368821292775664,12.357414448669202)rotate(-55.07597767119308)"></path><path fill="#111" d="M-6,2,L12,0L-6,-2Z" transform="translate(31.368821292775664,31.368821292775664)rotate(-55.50579545241505)"></path><path fill="#111" d="M-6,2,L12,0L-6,-2Z" transform="translate(31.368821292775664,50.38022813688213)rotate(-55.77275514092191)"></path><path fill="#111" d="M-6,2,L12,0L-6,-2Z" transform="translate(31.368821292775664,69.3916349809886)rotate(-55.87938870748744)"></path><path fill="#111" d="M-6,2,L12,0L-6,-2Z" transform="translate(31.368821292775664,88.40304182509506)rotate(-55.79176705134058)"></path><path fill="#111" d="M-6,2,L12,0L-6,-2Z" transform="translate(31.368821292775664,107.41444866920152)rotate(-55.50614399859638)"></path><path fill="#111" d="M-6,2,L12,0L-6,-2Z" transform="translate(31.368821292775664,126.425855513308)rotate(-55.0287974921868)"></path><path fill="#111" d="M-6,2,L12,0L-6,-2Z" transform="translate(31.368821292775664,145.43726235741445)rotate(-54.37502548664815)"></path><path fill="#111" d="M-6,2,L12,0L-6,-2Z" transform="translate(31.368821292775664,164.44866920152091)rotate(-53.567127362260685)"></path><path fill="#111" d="M-6,2,L12,0L-6,-2Z" transform="translate(31.368821292775664,183.46007604562737)rotate(-52.631280500180665)"></path><path fill="#111" d="M-6,2,L12,0L-6,-2Z" transform="translate(31.368821292775664,202.47148288973384)rotate(-51.59333000379827)"></path><path fill="#111" d="M-6,2,L12,0L-6,-2Z" transform="translate(31.368821292775664,221.4828897338403)rotate(-50.47628975151074)"></path><path fill="#111" d="M-6,2,L12,0L-6,-2Z" transform="translate(31.368821292775664,240.49429657794678)rotate(-49.301350050047176)"></path><path fill="#111" d="M-6,2,L12,0L-6,-2Z" transform="translate(31.368821292775664,259.5057034220532)rotate(-48.090889493501855)"></path><path fill="#111" d="M-6,2,L12,0L-6,-2Z" transform="translate(31.368821292775664,278.5171102661597)rotate(-46.88465110889037)"></path><path fill="#111" d="M-6,2,L12,0L-6,-2Z" transform="translate(31.368821292775664,297.52851711026614)rotate(-45.74372134921668)"></path><path fill="#111" d="M-6,2,L12,0L-6,-2Z" transform="translate(31.368821292775664,316.5399239543726)rotate(-44.74349128957663)"></path><path fill="#111" d="M-6,2,L12,0L-6,-2Z" transform="translate(31.368821292775664,335.5513307984791)rotate(-43.967164960742906)"></path><path fill="#111" d="M-6,2,L12,0L-6,-2Z" transform="translate(31.368821292775664,354.56273764258555)rotate(-43.500256463200465)"></path><path fill="#111" d="M-6,2,L12,0L-6,-2Z" transform="translate(31.368821292775664,373.57414448669203)rotate(-43.42603643073194)"></path><path fill="#111" d="M-6,2,L12,0L-6,-2Z" transform="translate(31.368821292775664,392.58555133079847)rotate(-43.821882382300686)"></path><path fill="#111" d="M-6,2,L12,0L-6,-2Z" transform="translate(31.368821292775664,411.59695817490496)rotate(-44.756481055809644)"></path><path fill="#111" d="M-6,2,L12,0L-6,-2Z" transform="translate(31.368821292775664,430.6083650190114)rotate(-46.28782395732966)"></path><path fill="#111" d="M-6,2,L12,0L-6,-2Z" transform="translate(31.368821292775664,449.6197718631179)rotate(-48.461930084594414)"></path><path fill="#111" d="M-6,2,L12,0L-6,-2Z" transform="translate(31.368821292775664,468.63117870722436)rotate(-51.312222093944676)"></path><path fill="#111" d="M-6,2,L12,0L-6,-2Z" transform="translate(31.368821292775664,487.6425855513308)rotate(-54.859474075476456)"></path><path fill="#111" d="M-6,2,L12,0L-6,-2Z" transform="translate(50.38022813688213,12.357414448669202)rotate(-61.55064549792652)"></path><path fill="#111" d="M-6,2,L12,0L-6,-2Z" transform="translate(50.38022813688213,31.368821292775664)rotate(-62.44386437820439)"></path><path fill="#111" d="M-6,2,L12,0L-6,-2Z" transform="translate(50.38022813688213,50.38022813688213)rotate(-63.21546734691255)"></path><path fill="#111" d="M-6,2,L12,0L-6,-2Z" transform="translate(50.38022813688213,69.3916349809886)rotate(-63.812307422221366)"></path><path fill="#111" d="M-6,2,L12,0L-6,-2Z" transform="translate(50.38022813688213,88.40304182509506)rotate(-64.22274744656042)"></path><path fill="#111" d="M-6,2,L12,0L-6,-2Z" transform="translate(50.38022813688213,107.41444866920152)rotate(-64.43806323625758)"></path><path fill="#111" d="M-6,2,L12,0L-6,-2Z" transform="translate(50.38022813688213,126.425855513308)rotate(-64.46292176867824)"></path><path fill="#111" d="M-6,2,L12,0L-6,-2Z" transform="translate(50.38022813688213,145.43726235741445)rotate(-64.30876056468159)"></path><path fill="#111" d="M-6,2,L12,0L-6,-2Z" transform="translate(50.38022813688213,164.44866920152091)rotate(-63.99174870527229)"></path><path fill="#111" d="M-6,2,L12,0L-6,-2Z" transform="translate(50.38022813688213,183.46007604562737)rotate(-63.529634397173055)"></path><path fill="#111" d="M-6,2,L12,0L-6,-2Z" transform="translate(50.38022813688213,202.47148288973384)rotate(-62.938893165166625)"></path><path fill="#111" d="M-6,2,L12,0L-6,-2Z" transform="translate(50.38022813688213,221.4828897338403)rotate(-62.23491153888892)"></path><path fill="#111" d="M-6,2,L12,0L-6,-2Z" transform="translate(50.38022813688213,240.49429657794678)rotate(-61.431830124105765)"></path><path fill="#111" d="M-6,2,L12,0L-6,-2Z" transform="translate(50.38022813688213,259.5057034220532)rotate(-60.54350459778057)"></path><path fill="#111" d="M-6,2,L12,0L-6,-2Z" transform="translate(50.38022813688213,278.5171102661597)rotate(-59.59784267517315)"></path><path fill="#111" d="M-6,2,L12,0L-6,-2Z" transform="translate(50.38022813688213,297.52851711026614)rotate(-58.645779373467256)"></path><path fill="#111" d="M-6,2,L12,0L-6,-2Z" transform="translate(50.38022813688213,316.5399239543726)rotate(-57.75495183367346)"></path><path fill="#111" d="M-6,2,L12,0L-6,-2Z" transform="translate(50.38022813688213,335.5513307984791)rotate(-57.00303630628004)"></path><path fill="#111" d="M-6,2,L12,0L-6,-2Z" transform="translate(50.38022813688213,354.56273764258555)rotate(-56.4720857912739)"></path><path fill="#111" d="M-6,2,L12,0L-6,-2Z" transform="translate(50.38022813688213,373.57414448669203)rotate(-56.24382710409911)"></path><path fill="#111" d="M-6,2,L12,0L-6,-2Z" transform="translate(50.38022813688213,392.58555133079847)rotate(-56.395870108770204)"></path><path fill="#111" d="M-6,2,L12,0L-6,-2Z" transform="translate(50.38022813688213,411.59695817490496)rotate(-56.99877541418786)"></path><path fill="#111" d="M-6,2,L12,0L-6,-2Z" transform="translate(50.38022813688213,430.6083650190114)rotate(-58.11391996971898)"></path><path fill="#111" d="M-6,2,L12,0L-6,-2Z" transform="translate(50.38022813688213,449.6197718631179)rotate(-59.79209272130866)"></path><path fill="#111" d="M-6,2,L12,0L-6,-2Z" transform="translate(50.38022813688213,468.63117870722436)rotate(-62.07274479977423)"></path><path fill="#111" d="M-6,2,L12,0L-6,-2Z" transform="translate(50.38022813688213,487.6425855513308)rotate(-64.98381060850679)"></path><path fill="#111" d="M-6,2,L12,0L-6,-2Z" transform="translate(69.3916349809886,12.357414448669202)rotate(-68.4419341303397)"></path><path fill="#111" d="M-6,2,L12,0L-6,-2Z" transform="translate(69.3916349809886,31.368821292775664)rotate(-69.83178962463523)"></path><path fill="#111" d="M-6,2,L12,0L-6,-2Z" transform="translate(69.3916349809886,50.38022813688213)rotate(-71.09943585626417)"></path><path fill="#111" d="M-6,2,L12,0L-6,-2Z" transform="translate(69.3916349809886,69.3916349809886)rotate(-72.20153741664336)"></path><path fill="#111" d="M-6,2,L12,0L-6,-2Z" transform="translate(69.3916349809886,88.40304182509506)rotate(-73.10838807384242)"></path><path fill="#111" d="M-6,2,L12,0L-6,-2Z" transform="translate(69.3916349809886,107.41444866920152)rotate(-73.81363784016816)"></path><path fill="#111" d="M-6,2,L12,0L-6,-2Z" transform="translate(69.3916349809886,126.425855513308)rotate(-74.32078848177727)"></path><path fill="#111" d="M-6,2,L12,0L-6,-2Z" transform="translate(69.3916349809886,145.43726235741445)rotate(-74.63825864531238)"></path><path fill="#111" d="M-6,2,L12,0L-6,-2Z" transform="translate(69.3916349809886,164.44866920152091)rotate(-74.77673438026997)"></path><path fill="#111" d="M-6,2,L12,0L-6,-2Z" transform="translate(69.3916349809886,183.46007604562737)rotate(-74.74668653758327)"></path><path fill="#111" d="M-6,2,L12,0L-6,-2Z" transform="translate(69.3916349809886,202.47148288973384)rotate(-74.55790533322238)"></path><path fill="#111" d="M-6,2,L12,0L-6,-2Z" transform="translate(69.3916349809886,221.4828897338403)rotate(-74.21945058536718)"></path><path fill="#111" d="M-6,2,L12,0L-6,-2Z" transform="translate(69.3916349809886,240.49429657794678)rotate(-73.73918886466564)"></path><path fill="#111" d="M-6,2,L12,0L-6,-2Z" transform="translate(69.3916349809886,259.5057034220532)rotate(-73.12388492259814)"></path><path fill="#111" d="M-6,2,L12,0L-6,-2Z" transform="translate(69.3916349809886,278.5171102661597)rotate(-72.38998273672577)"></path><path fill="#111" d="M-6,2,L12,0L-6,-2Z" transform="translate(69.3916349809886,297.52851711026614)rotate(-71.57759314793279)"></path><path fill="#111" d="M-6,2,L12,0L-6,-2Z" transform="translate(69.3916349809886,316.5399239543726)rotate(-70.746074294924)"></path><path fill="#111" d="M-6,2,L12,0L-6,-2Z" transform="translate(69.3916349809886,335.5513307984791)rotate(-69.96719563258905)"></path><path fill="#111" d="M-6,2,L12,0L-6,-2Z" transform="translate(69.3916349809886,354.56273764258555)rotate(-69.31931000850712)"></path><path fill="#111" d="M-6,2,L12,0L-6,-2Z" transform="translate(69.3916349809886,373.57414448669203)rotate(-68.88249403132684)"></path><path fill="#111" d="M-6,2,L12,0L-6,-2Z" transform="translate(69.3916349809886,392.58555133079847)rotate(-68.73460762861757)"></path><path fill="#111" d="M-6,2,L12,0L-6,-2Z" transform="translate(69.3916349809886,411.59695817490496)rotate(-68.94821724661762)"></path><path fill="#111" d="M-6,2,L12,0L-6,-2Z" transform="translate(69.3916349809886,430.6083650190114)rotate(-69.58832028432059)"></path><path fill="#111" d="M-6,2,L12,0L-6,-2Z" transform="translate(69.3916349809886,449.6197718631179)rotate(-70.71080107954539)"></path><path fill="#111" d="M-6,2,L12,0L-6,-2Z" transform="translate(69.3916349809886,468.63117870722436)rotate(-72.36154107501946)"></path><path fill="#111" d="M-6,2,L12,0L-6,-2Z" transform="translate(69.3916349809886,487.6425855513308)rotate(-74.57609768807833)"></path><path fill="#111" d="M-6,2,L12,0L-6,-2Z" transform="translate(88.40304182509506,12.357414448669202)rotate(-75.74413717920086)"></path><path fill="#111" d="M-6,2,L12,0L-6,-2Z" transform="translate(88.40304182509506,31.368821292775664)rotate(-77.65274155501585)"></path><path fill="#111" d="M-6,2,L12,0L-6,-2Z" transform="translate(88.40304182509506,50.38022813688213)rotate(-79.44296972945412)"></path><path fill="#111" d="M-6,2,L12,0L-6,-2Z" transform="translate(88.40304182509506,69.3916349809886)rotate(-81.06399926757226)"></path><path fill="#111" d="M-6,2,L12,0L-6,-2Z" transform="translate(88.40304182509506,88.40304182509506)rotate(-82.47936817371985)"></path><path fill="#111" d="M-6,2,L12,0L-6,-2Z" transform="translate(88.40304182509506,107.41444866920152)rotate(-83.67500626602445)"></path><path fill="#111" d="M-6,2,L12,0L-6,-2Z" transform="translate(88.40304182509506,126.425855513308)rotate(-84.65407611491176)"></path><path fill="#111" d="M-6,2,L12,0L-6,-2Z" transform="translate(88.40304182509506,145.43726235741445)rotate(-85.42307637353699)"></path><path fill="#111" d="M-6,2,L12,0L-6,-2Z" transform="translate(88.40304182509506,164.44866920152091)rotate(-85.98841608071584)"></path><path fill="#111" d="M-6,2,L12,0L-6,-2Z" transform="translate(88.40304182509506,183.46007604562737)rotate(-86.35568418651192)"></path><path fill="#111" d="M-6,2,L12,0L-6,-2Z" transform="translate(88.40304182509506,202.47148288973384)rotate(-86.5296695212913)"></path><path fill="#111" d="M-6,2,L12,0L-6,-2Z" transform="translate(88.40304182509506,221.4828897338403)rotate(-86.51416640835603)"></path><path fill="#111" d="M-6,2,L12,0L-6,-2Z" transform="translate(88.40304182509506,240.49429657794678)rotate(-86.31172471528535)"></path><path fill="#111" d="M-6,2,L12,0L-6,-2Z" transform="translate(88.40304182509506,259.5057034220532)rotate(-85.92349939150463)"></path><path fill="#111" d="M-6,2,L12,0L-6,-2Z" transform="translate(88.40304182509506,278.5171102661597)rotate(-85.35580616798929)"></path><path fill="#111" d="M-6,2,L12,0L-6,-2Z" transform="translate(88.40304182509506,297.52851711026614)rotate(-84.63734567502924)"></path><path fill="#111" d="M-6,2,L12,0L-6,-2Z" transform="translate(88.40304182509506,316.5399239543726)rotate(-83.8186764655178)"></path><path fill="#111" d="M-6,2,L12,0L-6,-2Z" transform="translate(88.40304182509506,335.5513307984791)rotate(-82.96528282227662)"></path><path fill="#111" d="M-6,2,L12,0L-6,-2Z" transform="translate(88.40304182509506,354.56273764258555)rotate(-82.1515743914195)"></path><path fill="#111" d="M-6,2,L12,0L-6,-2Z" transform="translate(88.40304182509506,373.57414448669203)rotate(-81.45586176307864)"></path><path fill="#111" d="M-6,2,L12,0L-6,-2Z" transform="translate(88.40304182509506,392.58555133079847)rotate(-80.95625700737754)"></path><path fill="#111" d="M-6,2,L12,0L-6,-2Z" transform="translate(88.40304182509506,411.59695817490496)rotate(-80.7274417283647)"></path><path fill="#111" d="M-6,2,L12,0L-6,-2Z" transform="translate(88.40304182509506,430.6083650190114)rotate(-80.8382383386365)"></path><path fill="#111" d="M-6,2,L12,0L-6,-2Z" transform="translate(88.40304182509506,449.6197718631179)rotate(-81.34991298258387)"></path><path fill="#111" d="M-6,2,L12,0L-6,-2Z" transform="translate(88.40304182509506,468.63117870722436)rotate(-82.31513084657952)"></path><path fill="#111" d="M-6,2,L12,0L-6,-2Z" transform="translate(88.40304182509506,487.6425855513308)rotate(-83.77747648999747)"></path><path fill="#111" d="M-6,2,L12,0L-6,-2Z" transform="translate(107.41444866920152,12.357414448669202)rotate(-83.43192227617263)"></path><path fill="#111" d="M-6,2,L12,0L-6,-2Z" transform="translate(107.41444866920152,31.368821292775664)rotate(-85.87087291925316)"></path><path fill="#111" d="M-6,2,L12,0L-6,-2Z" transform="translate(107.41444866920152,50.38022813688213)rotate(-88.19984039482216)"></path><path fill="#111" d="M-6,2,L12,0L-6,-2Z" transform="translate(107.41444866920152,69.3916349809886)rotate(-90.36031587036479)"></path><path fill="#111" d="M-6,2,L12,0L-6,-2Z" transform="translate(107.41444866920152,88.40304182509506)rotate(-92.30514924454721)"></path><path fill="#111" d="M-6,2,L12,0L-6,-2Z" transform="translate(107.41444866920152,107.41444866920152)rotate(-94.00723703009305)"></path><path fill="#111" d="M-6,2,L12,0L-6,-2Z" transform="translate(107.41444866920152,126.425855513308)rotate(-95.46297893600477)"></path><path fill="#111" d="M-6,2,L12,0L-6,-2Z" transform="translate(107.41444866920152,145.43726235741445)rotate(-96.67685002743963)"></path><path fill="#111" d="M-6,2,L12,0L-6,-2Z" transform="translate(107.41444866920152,164.44866920152091)rotate(-97.6529879331881)"></path><path fill="#111" d="M-6,2,L12,0L-6,-2Z" transform="translate(107.41444866920152,183.46007604562737)rotate(-98.39404934065641)"></path><path fill="#111" d="M-6,2,L12,0L-6,-2Z" transform="translate(107.41444866920152,202.47148288973384)rotate(-98.90123636454786)"></path><path fill="#111" d="M-6,2,L12,0L-6,-2Z" transform="translate(107.41444866920152,221.4828897338403)rotate(-99.17435141412138)"></path><path fill="#111" d="M-6,2,L12,0L-6,-2Z" transform="translate(107.41444866920152,240.49429657794678)rotate(-99.21178501311276)"></path><path fill="#111" d="M-6,2,L12,0L-6,-2Z" transform="translate(107.41444866920152,259.5057034220532)rotate(-99.01048565074706)"></path><path fill="#111" d="M-6,2,L12,0L-6,-2Z" transform="translate(107.41444866920152,278.5171102661597)rotate(-98.56896216012723)"></path><path fill="#111" d="M-6,2,L12,0L-6,-2Z" transform="translate(107.41444866920152,297.52851711026614)rotate(-97.90428094907269)"></path><path fill="#111" d="M-6,2,L12,0L-6,-2Z" transform="translate(107.41444866920152,316.5399239543726)rotate(-97.05768123548036)"></path><path fill="#111" d="M-6,2,L12,0L-6,-2Z" transform="translate(107.41444866920152,335.5513307984791)rotate(-96.08797982618614)"></path><path fill="#111" d="M-6,2,L12,0L-6,-2Z" transform="translate(107.41444866920152,354.56273764258555)rotate(-95.0653906176866)"></path><path fill="#111" d="M-6,2,L12,0L-6,-2Z" transform="translate(107.41444866920152,373.57414448669203)rotate(-94.06632648925968)"></path><path fill="#111" d="M-6,2,L12,0L-6,-2Z" transform="translate(107.41444866920152,392.58555133079847)rotate(-93.16913066056698)"></path><path fill="#111" d="M-6,2,L12,0L-6,-2Z" transform="translate(107.41444866920152,411.59695817490496)rotate(-92.45067814064838)"></path><path fill="#111" d="M-6,2,L12,0L-6,-2Z" transform="translate(107.41444866920152,430.6083650190114)rotate(-91.98378103523626)"></path><path fill="#111" d="M-6,2,L12,0L-6,-2Z" transform="translate(107.41444866920152,449.6197718631179)rotate(-91.83532420452002)"></path><path fill="#111" d="M-6,2,L12,0L-6,-2Z" transform="translate(107.41444866920152,468.63117870722436)rotate(-91.92124177943472)"></path><path fill="#111" d="M-6,2,L12,0L-6,-2Z" transform="translate(107.41444866920152,487.6425855513308)rotate(-92.31347051165775)"></path><path fill="#111" d="M-6,2,L12,0L-6,-2Z" transform="translate(126.425855513308,12.357414448669202)rotate(-91.45988106884298)"></path><path fill="#111" d="M-6,2,L12,0L-6,-2Z" transform="translate(126.425855513308,31.368821292775664)rotate(-94.43120941155101)"></path><path fill="#111" d="M-6,2,L12,0L-6,-2Z" transform="translate(126.425855513308,50.38022813688213)rotate(-97.30566679452477)"></path><path fill="#111" d="M-6,2,L12,0L-6,-2Z" transform="translate(126.425855513308,69.3916349809886)rotate(-100.01685246231204)"></path><path fill="#111" d="M-6,2,L12,0L-6,-2Z" transform="translate(126.425855513308,88.40304182509506)rotate(-102.50679633414497)"></path><path fill="#111" d="M-6,2,L12,0L-6,-2Z" transform="translate(126.425855513308,107.41444866920152)rotate(-104.73433928754474)"></path><path fill="#111" d="M-6,2,L12,0L-6,-2Z" transform="translate(126.425855513308,126.425855513308)rotate(-106.68307348558176)"></path><path fill="#111" d="M-6,2,L12,0L-6,-2Z" transform="translate(126.425855513308,145.43726235741445)rotate(-108.35153639672376)"></path><path fill="#111" d="M-6,2,L12,0L-6,-2Z" transform="translate(126.425855513308,164.44866920152091)rotate(-109.739511435153)"></path><path fill="#111" d="M-6,2,L12,0L-6,-2Z" transform="translate(126.425855513308,183.46007604562737)rotate(-110.84644049902174)"></path><path fill="#111" d="M-6,2,L12,0L-6,-2Z" transform="translate(126.425855513308,202.47148288973384)rotate(-111.67096606997869)"></path><path fill="#111" d="M-6,2,L12,0L-6,-2Z" transform="translate(126.425855513308,221.4828897338403)rotate(-112.21035569929782)"></path><path fill="#111" d="M-6,2,L12,0L-6,-2Z" transform="translate(126.425855513308,240.49429657794678)rotate(-112.46020992928109)"></path><path fill="#111" d="M-6,2,L12,0L-6,-2Z" transform="translate(126.425855513308,259.5057034220532)rotate(-112.41461218953013)"></path><path fill="#111" d="M-6,2,L12,0L-6,-2Z" transform="translate(126.425855513308,278.5171102661597)rotate(-112.06718585053338)"></path><path fill="#111" d="M-6,2,L12,0L-6,-2Z" transform="translate(126.425855513308,297.52851711026614)rotate(-111.42406017522453)"></path><path fill="#111" d="M-6,2,L12,0L-6,-2Z" transform="translate(126.425855513308,316.5399239543726)rotate(-110.51663198329206)"></path><path fill="#111" d="M-6,2,L12,0L-6,-2Z" transform="translate(126.425855513308,335.5513307984791)rotate(-109.3966589980502)"></path><path fill="#111" d="M-6,2,L12,0L-6,-2Z" transform="translate(126.425855513308,354.56273764258555)rotate(-108.12989100730925)"></path><path fill="#111" d="M-6,2,L12,0L-6,-2Z" transform="translate(126.425855513308,373.57414448669203)rotate(-106.79068833930964)"></path><path fill="#111" d="M-6,2,L12,0L-6,-2Z" transform="translate(126.425855513308,392.58555133079847)rotate(-105.41281100853901)"></path><path fill="#111" d="M-6,2,L12,0L-6,-2Z" transform="translate(126.425855513308,411.59695817490496)rotate(-104.0539792647026)"></path><path fill="#111" d="M-6,2,L12,0L-6,-2Z" transform="translate(126.425855513308,430.6083650190114)rotate(-102.78597758427271)"></path><path fill="#111" d="M-6,2,L12,0L-6,-2Z" transform="translate(126.425855513308,449.6197718631179)rotate(-101.6673195196409)"></path><path fill="#111" d="M-6,2,L12,0L-6,-2Z" transform="translate(126.425855513308,468.63117870722436)rotate(-100.75443869619704)"></path><path fill="#111" d="M-6,2,L12,0L-6,-2Z" transform="translate(126.425855513308,487.6425855513308)rotate(-100.1015298478446)"></path><path fill="#111" d="M-6,2,L12,0L-6,-2Z" transform="translate(145.43726235741445,12.357414448669202)rotate(-99.76301732715424)"></path><path fill="#111" d="M-6,2,L12,0L-6,-2Z" transform="translate(145.43726235741445,31.368821292775664)rotate(-103.26048563807655)"></path><path fill="#111" d="M-6,2,L12,0L-6,-2Z" transform="translate(145.43726235741445,50.38022813688213)rotate(-106.67910716825348)"></path><path fill="#111" d="M-6,2,L12,0L-6,-2Z" transform="translate(145.43726235741445,69.3916349809886)rotate(-109.94438534633896)"></path><path fill="#111" d="M-6,2,L12,0L-6,-2Z" transform="translate(145.43726235741445,88.40304182509506)rotate(-112.98739555121699)"></path><path fill="#111" d="M-6,2,L12,0L-6,-2Z" transform="translate(145.43726235741445,107.41444866920152)rotate(-115.75268015603177)"></path><path fill="#111" d="M-6,2,L12,0L-6,-2Z" transform="translate(145.43726235741445,126.425855513308)rotate(-118.207602333521)"></path><path fill="#111" d="M-6,2,L12,0L-6,-2Z" transform="translate(145.43726235741445,145.43726235741445)rotate(-120.34207144379643)"></path><path fill="#111" d="M-6,2,L12,0L-6,-2Z" transform="translate(145.43726235741445,164.44866920152091)rotate(-122.15081909777446)"></path><path fill="#111" d="M-6,2,L12,0L-6,-2Z" transform="translate(145.43726235741445,183.46007604562737)rotate(-123.62863359101256)"></path><path fill="#111" d="M-6,2,L12,0L-6,-2Z" transform="translate(145.43726235741445,202.47148288973384)rotate(-124.76997053077737)"></path><path fill="#111" d="M-6,2,L12,0L-6,-2Z" transform="translate(145.43726235741445,221.4828897338403)rotate(-125.56865945040173)"></path><path fill="#111" d="M-6,2,L12,0L-6,-2Z" transform="translate(145.43726235741445,240.49429657794678)rotate(-126.01770786503765)"></path><path fill="#111" d="M-6,2,L12,0L-6,-2Z" transform="translate(145.43726235741445,259.5057034220532)rotate(-126.10921676164821)"></path><path fill="#111" d="M-6,2,L12,0L-6,-2Z" transform="translate(145.43726235741445,278.5171102661597)rotate(-125.83451699991366)"></path><path fill="#111" d="M-6,2,L12,0L-6,-2Z" transform="translate(145.43726235741445,297.52851711026614)rotate(-125.19115668919561)"></path><path fill="#111" d="M-6,2,L12,0L-6,-2Z" transform="translate(145.43726235741445,316.5399239543726)rotate(-124.19802819460084)"></path><path fill="#111" d="M-6,2,L12,0L-6,-2Z" transform="translate(145.43726235741445,335.5513307984791)rotate(-122.88902743437137)"></path><path fill="#111" d="M-6,2,L12,0L-6,-2Z" transform="translate(145.43726235741445,354.56273764258555)rotate(-121.30837572290515)"></path><path fill="#111" d="M-6,2,L12,0L-6,-2Z" transform="translate(145.43726235741445,373.57414448669203)rotate(-119.50784691918714)"></path><path fill="#111" d="M-6,2,L12,0L-6,-2Z" transform="translate(145.43726235741445,392.58555133079847)rotate(-117.54478515497469)"></path><path fill="#111" d="M-6,2,L12,0L-6,-2Z" transform="translate(145.43726235741445,411.59695817490496)rotate(-115.48041816219029)"></path><path fill="#111" d="M-6,2,L12,0L-6,-2Z" transform="translate(145.43726235741445,430.6083650190114)rotate(-113.37850252631222)"></path><path fill="#111" d="M-6,2,L12,0L-6,-2Z" transform="translate(145.43726235741445,449.6197718631179)rotate(-111.30426484029887)"></path><path fill="#111" d="M-6,2,L12,0L-6,-2Z" transform="translate(145.43726235741445,468.63117870722436)rotate(-109.32359539767627)"></path><path fill="#111" d="M-6,2,L12,0L-6,-2Z" transform="translate(145.43726235741445,487.6425855513308)rotate(-107.5024433127058)"></path><path fill="#111" d="M-6,2,L12,0L-6,-2Z" transform="translate(164.44866920152091,12.357414448669202)rotate(-108.25832956811944)"></path><path fill="#111" d="M-6,2,L12,0L-6,-2Z" transform="translate(164.44866920152091,31.368821292775664)rotate(-112.2690830858461)"></path><path fill="#111" d="M-6,2,L12,0L-6,-2Z" transform="translate(164.44866920152091,50.38022813688213)rotate(-116.22416090604072)"></path><path fill="#111" d="M-6,2,L12,0L-6,-2Z" transform="translate(164.44866920152091,69.3916349809886)rotate(-120.04077102894429)"></path><path fill="#111" d="M-6,2,L12,0L-6,-2Z" transform="translate(164.44866920152091,88.40304182509506)rotate(-123.63858370884708)"></path><path fill="#111" d="M-6,2,L12,0L-6,-2Z" transform="translate(164.44866920152091,107.41444866920152)rotate(-126.94698468897471)"></path><path fill="#111" d="M-6,2,L12,0L-6,-2Z" transform="translate(164.44866920152091,126.425855513308)rotate(-129.9158274374812)"></path><path fill="#111" d="M-6,2,L12,0L-6,-2Z" transform="translate(164.44866920152091,145.43726235741445)rotate(-132.52287083897042)"></path><path fill="#111" d="M-6,2,L12,0L-6,-2Z" transform="translate(164.44866920152091,164.44866920152091)rotate(-134.75736895765726)"></path><path fill="#111" d="M-6,2,L12,0L-6,-2Z" transform="translate(164.44866920152091,183.46007604562737)rotate(-136.60934671510822)"></path><path fill="#111" d="M-6,2,L12,0L-6,-2Z" transform="translate(164.44866920152091,202.47148288973384)rotate(-138.0689682453228)"></path><path fill="#111" d="M-6,2,L12,0L-6,-2Z" transform="translate(164.44866920152091,221.4828897338403)rotate(-139.126304413233)"></path><path fill="#111" d="M-6,2,L12,0L-6,-2Z" transform="translate(164.44866920152091,240.49429657794678)rotate(-139.77119308436866)"></path><path fill="#111" d="M-6,2,L12,0L-6,-2Z" transform="translate(164.44866920152091,259.5057034220532)rotate(-139.99320544895062)"></path><path fill="#111" d="M-6,2,L12,0L-6,-2Z" transform="translate(164.44866920152091,278.5171102661597)rotate(-139.78153946718632)"></path><path fill="#111" d="M-6,2,L12,0L-6,-2Z" transform="translate(164.44866920152091,297.52851711026614)rotate(-139.12337192286938)"></path><path fill="#111" d="M-6,2,L12,0L-6,-2Z" transform="translate(164.44866920152091,316.5399239543726)rotate(-138.01488710345572)"></path><path fill="#111" d="M-6,2,L12,0L-6,-2Z" transform="translate(164.44866920152091,335.5513307984791)rotate(-136.47101096555264)"></path><path fill="#111" d="M-6,2,L12,0L-6,-2Z" transform="translate(164.44866920152091,354.56273764258555)rotate(-134.5227482147467)"></path><path fill="#111" d="M-6,2,L12,0L-6,-2Z" transform="translate(164.44866920152091,373.57414448669203)rotate(-132.2141095672073)"></path><path fill="#111" d="M-6,2,L12,0L-6,-2Z" transform="translate(164.44866920152091,392.58555133079847)rotate(-129.59946284810525)"></path><path fill="#111" d="M-6,2,L12,0L-6,-2Z" transform="translate(164.44866920152091,411.59695817490496)rotate(-126.74128187194793)"></path><path fill="#111" d="M-6,2,L12,0L-6,-2Z" transform="translate(164.44866920152091,430.6083650190114)rotate(-123.70826063583831)"></path><path fill="#111" d="M-6,2,L12,0L-6,-2Z" transform="translate(164.44866920152091,449.6197718631179)rotate(-120.57375352776529)"></path><path fill="#111" d="M-6,2,L12,0L-6,-2Z" transform="translate(164.44866920152091,468.63117870722436)rotate(-117.4144950083089)"></path><path fill="#111" d="M-6,2,L12,0L-6,-2Z" transform="translate(164.44866920152091,487.6425855513308)rotate(-114.30954456561038)"></path><path fill="#111" d="M-6,2,L12,0L-6,-2Z" transform="translate(183.46007604562737,12.357414448669202)rotate(-116.84764814717275)"></path><path fill="#111" d="M-6,2,L12,0L-6,-2Z" transform="translate(183.46007604562737,31.368821292775664)rotate(-121.35423017944873)"></path><path fill="#111" d="M-6,2,L12,0L-6,-2Z" transform="translate(183.46007604562737,50.38022813688213)rotate(-125.83371358450437)"></path><path fill="#111" d="M-6,2,L12,0L-6,-2Z" transform="translate(183.46007604562737,69.3916349809886)rotate(-130.19415598560266)"></path><path fill="#111" d="M-6,2,L12,0L-6,-2Z" transform="translate(183.46007604562737,88.40304182509506)rotate(-134.34235902931167)"></path><path fill="#111" d="M-6,2,L12,0L-6,-2Z" transform="translate(183.46007604562737,107.41444866920152)rotate(-138.19238711373293)"></path><path fill="#111" d="M-6,2,L12,0L-6,-2Z" transform="translate(183.46007604562737,126.425855513308)rotate(-141.6767307943488)"></path><path fill="#111" d="M-6,2,L12,0L-6,-2Z" transform="translate(183.46007604562737,145.43726235741445)rotate(-144.75786312616918)"></path><path fill="#111" d="M-6,2,L12,0L-6,-2Z" transform="translate(183.46007604562737,164.44866920152091)rotate(-147.41842130544202)"></path><path fill="#111" d="M-6,2,L12,0L-6,-2Z" transform="translate(183.46007604562737,183.46007604562737)rotate(-149.643595740689)"></path><path fill="#111" d="M-6,2,L12,0L-6,-2Z" transform="translate(183.46007604562737,202.47148288973384)rotate(-151.41921210508272)"></path><path fill="#111" d="M-6,2,L12,0L-6,-2Z" transform="translate(183.46007604562737,221.4828897338403)rotate(-152.73156182962416)"></path><path fill="#111" d="M-6,2,L12,0L-6,-2Z" transform="translate(183.46007604562737,240.49429657794678)rotate(-153.56732028746038)"></path><path fill="#111" d="M-6,2,L12,0L-6,-2Z" transform="translate(183.46007604562737,259.5057034220532)rotate(-153.91314218702956)"></path><path fill="#111" d="M-6,2,L12,0L-6,-2Z" transform="translate(183.46007604562737,278.5171102661597)rotate(-153.75001734629325)"></path><path fill="#111" d="M-6,2,L12,0L-6,-2Z" transform="translate(183.46007604562737,297.52851711026614)rotate(-153.04907511539935)"></path><path fill="#111" d="M-6,2,L12,0L-6,-2Z" transform="translate(183.46007604562737,316.5399239543726)rotate(-151.7849677813831)"></path><path fill="#111" d="M-6,2,L12,0L-6,-2Z" transform="translate(183.46007604562737,335.5513307984791)rotate(-149.95453241730596)"></path><path fill="#111" d="M-6,2,L12,0L-6,-2Z" transform="translate(183.46007604562737,354.56273764258555)rotate(-147.57670261446532)"></path><path fill="#111" d="M-6,2,L12,0L-6,-2Z" transform="translate(183.46007604562737,373.57414448669203)rotate(-144.68880478180435)"></path><path fill="#111" d="M-6,2,L12,0L-6,-2Z" transform="translate(183.46007604562737,392.58555133079847)rotate(-141.34330844322488)"></path><path fill="#111" d="M-6,2,L12,0L-6,-2Z" transform="translate(183.46007604562737,411.59695817490496)rotate(-137.60500997427621)"></path><path fill="#111" d="M-6,2,L12,0L-6,-2Z" transform="translate(183.46007604562737,430.6083650190114)rotate(-133.54861389852613)"></path><path fill="#111" d="M-6,2,L12,0L-6,-2Z" transform="translate(183.46007604562737,449.6197718631179)rotate(-129.2566691272047)"></path><path fill="#111" d="M-6,2,L12,0L-6,-2Z" transform="translate(183.46007604562737,468.63117870722436)rotate(-124.81781037416481)"></path><path fill="#111" d="M-6,2,L12,0L-6,-2Z" transform="translate(183.46007604562737,487.6425855513308)rotate(-120.325247411855)"></path><path fill="#111" d="M-6,2,L12,0L-6,-2Z" transform="translate(202.47148288973384,12.357414448669202)rotate(-125.42189113474767)"></path><path fill="#111" d="M-6,2,L12,0L-6,-2Z" transform="translate(202.47148288973384,31.368821292775664)rotate(-130.4045046845908)"></path><path fill="#111" d="M-6,2,L12,0L-6,-2Z" transform="translate(202.47148288973384,50.38022813688213)rotate(-135.39297009034752)"></path><path fill="#111" d="M-6,2,L12,0L-6,-2Z" transform="translate(202.47148288973384,69.3916349809886)rotate(-140.28432981894898)"></path><path fill="#111" d="M-6,2,L12,0L-6,-2Z" transform="translate(202.47148288973384,88.40304182509506)rotate(-144.97227281405054)"></path><path fill="#111" d="M-6,2,L12,0L-6,-2Z" transform="translate(202.47148288973384,107.41444866920152)rotate(-149.35588191097122)"></path><path fill="#111" d="M-6,2,L12,0L-6,-2Z" transform="translate(202.47148288973384,126.425855513308)rotate(-153.35077408355372)"></path><path fill="#111" d="M-6,2,L12,0L-6,-2Z" transform="translate(202.47148288973384,145.43726235741445)rotate(-156.90233205311313)"></path><path fill="#111" d="M-6,2,L12,0L-6,-2Z" transform="translate(202.47148288973384,164.44866920152091)rotate(-159.98451248759284)"></path><path fill="#111" d="M-6,2,L12,0L-6,-2Z" transform="translate(202.47148288973384,183.46007604562737)rotate(-162.5776277608737)"></path><path fill="#111" d="M-6,2,L12,0L-6,-2Z" transform="translate(202.47148288973384,202.47148288973384)rotate(-164.66315573505847)"></path><path fill="#111" d="M-6,2,L12,0L-6,-2Z" transform="translate(202.47148288973384,221.4828897338403)rotate(-166.22362259064317)"></path><path fill="#111" d="M-6,2,L12,0L-6,-2Z" transform="translate(202.47148288973384,240.49429657794678)rotate(-167.2419491971195)"></path><path fill="#111" d="M-6,2,L12,0L-6,-2Z" transform="translate(202.47148288973384,259.5057034220532)rotate(-167.69451386727417)"></path><path fill="#111" d="M-6,2,L12,0L-6,-2Z" transform="translate(202.47148288973384,278.5171102661597)rotate(-167.5465244777856)"></path><path fill="#111" d="M-6,2,L12,0L-6,-2Z" transform="translate(202.47148288973384,297.52851711026614)rotate(-166.75610678757772)"></path><path fill="#111" d="M-6,2,L12,0L-6,-2Z" transform="translate(202.47148288973384,316.5399239543726)rotate(-165.2821655877737)"></path><path fill="#111" d="M-6,2,L12,0L-6,-2Z" transform="translate(202.47148288973384,335.5513307984791)rotate(-163.1044536253911)"></path><path fill="#111" d="M-6,2,L12,0L-6,-2Z" transform="translate(202.47148288973384,354.56273764258555)rotate(-160.23046515577198)"></path><path fill="#111" d="M-6,2,L12,0L-6,-2Z" transform="translate(202.47148288973384,373.57414448669203)rotate(-156.69149571374828)"></path><path fill="#111" d="M-6,2,L12,0L-6,-2Z" transform="translate(202.47148288973384,392.58555133079847)rotate(-152.5387905061032)"></path><path fill="#111" d="M-6,2,L12,0L-6,-2Z" transform="translate(202.47148288973384,411.59695817490496)rotate(-147.84016084629528)"></path><path fill="#111" d="M-6,2,L12,0L-6,-2Z" transform="translate(202.47148288973384,430.6083650190114)rotate(-142.67702929496434)"></path><path fill="#111" d="M-6,2,L12,0L-6,-2Z" transform="translate(202.47148288973384,449.6197718631179)rotate(-137.14185752519793)"></path><path fill="#111" d="M-6,2,L12,0L-6,-2Z" transform="translate(202.47148288973384,468.63117870722436)rotate(-131.33590387217694)"></path><path fill="#111" d="M-6,2,L12,0L-6,-2Z" transform="translate(202.47148288973384,487.6425855513308)rotate(-125.36725005264695)"></path><path fill="#111" d="M-6,2,L12,0L-6,-2Z" transform="translate(221.4828897338403,12.357414448669202)rotate(-133.86642023568044)"></path><path fill="#111" d="M-6,2,L12,0L-6,-2Z" transform="translate(221.4828897338403,31.368821292775664)rotate(-139.30288703343717)"></path><path fill="#111" d="M-6,2,L12,0L-6,-2Z" transform="translate(221.4828897338403,50.38022813688213)rotate(-144.78008841495537)"></path><path fill="#111" d="M-6,2,L12,0L-6,-2Z" transform="translate(221.4828897338403,69.3916349809886)rotate(-150.18387144406955)"></path><path fill="#111" d="M-6,2,L12,0L-6,-2Z" transform="translate(221.4828897338403,88.40304182509506)rotate(-155.3950153089151)"></path><path fill="#111" d="M-6,2,L12,0L-6,-2Z" transform="translate(221.4828897338403,107.41444866920152)rotate(-160.2979718407934)"></path><path fill="#111" d="M-6,2,L12,0L-6,-2Z" transform="translate(221.4828897338403,126.425855513308)rotate(-164.7920080535941)"></path><path fill="#111" d="M-6,2,L12,0L-6,-2Z" transform="translate(221.4828897338403,145.43726235741445)rotate(-168.80495781173713)"></path><path fill="#111" d="M-6,2,L12,0L-6,-2Z" transform="translate(221.4828897338403,164.44866920152091)rotate(-172.29956214475658)"></path><path fill="#111" d="M-6,2,L12,0L-6,-2Z" transform="translate(221.4828897338403,183.46007604562737)rotate(-175.25109074369126)"></path><path fill="#111" d="M-6,2,L12,0L-6,-2Z" transform="translate(221.4828897338403,202.47148288973384)rotate(-177.63670277810627)"></path><path fill="#111" d="M-6,2,L12,0L-6,-2Z" transform="translate(221.4828897338403,221.4828897338403)rotate(-179.43450570193866)"></path><path fill="#111" d="M-6,2,L12,0L-6,-2Z" transform="translate(221.4828897338403,240.49429657794678)rotate(-180.61578626853571)"></path><path fill="#111" d="M-6,2,L12,0L-6,-2Z" transform="translate(221.4828897338403,259.5057034220532)rotate(-181.13970841202638)"></path><path fill="#111" d="M-6,2,L12,0L-6,-2Z" transform="translate(221.4828897338403,278.5171102661597)rotate(-180.9576174664774)"></path><path fill="#111" d="M-6,2,L12,0L-6,-2Z" transform="translate(221.4828897338403,297.52851711026614)rotate(-180.0177296702608)"></path><path fill="#111" d="M-6,2,L12,0L-6,-2Z" transform="translate(221.4828897338403,316.5399239543726)rotate(-178.2697504170002)"></path><path fill="#111" d="M-6,2,L12,0L-6,-2Z" transform="translate(221.4828897338403,335.5513307984791)rotate(-175.67879595330768)"></path><path fill="#111" d="M-6,2,L12,0L-6,-2Z" transform="translate(221.4828897338403,354.56273764258555)rotate(-172.24110915537514)"></path><path fill="#111" d="M-6,2,L12,0L-6,-2Z" transform="translate(221.4828897338403,373.57414448669203)rotate(-167.98218392095853)"></path><path fill="#111" d="M-6,2,L12,0L-6,-2Z" transform="translate(221.4828897338403,392.58555133079847)rotate(-162.95231158549248)"></path><path fill="#111" d="M-6,2,L12,0L-6,-2Z" transform="translate(221.4828897338403,411.59695817490496)rotate(-157.2226264150511)"></path><path fill="#111" d="M-6,2,L12,0L-6,-2Z" transform="translate(221.4828897338403,430.6083650190114)rotate(-150.88160989003455)"></path><path fill="#111" d="M-6,2,L12,0L-6,-2Z" transform="translate(221.4828897338403,449.6197718631179)rotate(-144.03200438786078)"></path><path fill="#111" d="M-6,2,L12,0L-6,-2Z" transform="translate(221.4828897338403,468.63117870722436)rotate(-136.78807990576084)"></path><path fill="#111" d="M-6,2,L12,0L-6,-2Z" transform="translate(221.4828897338403,487.6425855513308)rotate(-129.27319008278852)"></path><path fill="#111" d="M-6,2,L12,0L-6,-2Z" transform="translate(240.49429657794678,12.357414448669202)rotate(-142.06272823852976)"></path><path fill="#111" d="M-6,2,L12,0L-6,-2Z" transform="translate(240.49429657794678,31.368821292775664)rotate(-147.9266064785365)"></path><path fill="#111" d="M-6,2,L12,0L-6,-2Z" transform="translate(240.49429657794678,50.38022813688213)rotate(-153.8674261519304)"></path><path fill="#111" d="M-6,2,L12,0L-6,-2Z" transform="translate(240.49429657794678,69.3916349809886)rotate(-159.75995362803326)"></path><path fill="#111" d="M-6,2,L12,0L-6,-2Z" transform="translate(240.49429657794678,88.40304182509506)rotate(-165.47227418147378)"></path><path fill="#111" d="M-6,2,L12,0L-6,-2Z" transform="translate(240.49429657794678,107.41444866920152)rotate(-170.8745704645037)"></path><path fill="#111" d="M-6,2,L12,0L-6,-2Z" transform="translate(240.49429657794678,126.425855513308)rotate(-175.8502975149887)"></path><path fill="#111" d="M-6,2,L12,0L-6,-2Z" transform="translate(240.49429657794678,145.43726235741445)rotate(-180.31006383827065)"></path><path fill="#111" d="M-6,2,L12,0L-6,-2Z" transform="translate(240.49429657794678,164.44866920152091)rotate(-184.20318746465736)"></path><path fill="#111" d="M-6,2,L12,0L-6,-2Z" transform="translate(240.49429657794678,183.46007604562737)rotate(-187.49941121043682)"></path><path fill="#111" d="M-6,2,L12,0L-6,-2Z" transform="translate(240.49429657794678,202.47148288973384)rotate(-190.17104176588103)"></path><path fill="#111" d="M-6,2,L12,0L-6,-2Z" transform="translate(240.49429657794678,221.4828897338403)rotate(-192.18401111931567)"></path><path fill="#111" d="M-6,2,L12,0L-6,-2Z" transform="translate(240.49429657794678,240.49429657794678)rotate(-193.4911473071015)"></path><path fill="#111" d="M-6,2,L12,0L-6,-2Z" transform="translate(240.49429657794678,259.5057034220532)rotate(-194.0364621900233)"></path><path fill="#111" d="M-6,2,L12,0L-6,-2Z" transform="translate(240.49429657794678,278.5171102661597)rotate(-193.76016212728314)"></path><path fill="#111" d="M-6,2,L12,0L-6,-2Z" transform="translate(240.49429657794678,297.52851711026614)rotate(-192.6030191105812)"></path><path fill="#111" d="M-6,2,L12,0L-6,-2Z" transform="translate(240.49429657794678,316.5399239543726)rotate(-190.5101681775419)"></path><path fill="#111" d="M-6,2,L12,0L-6,-2Z" transform="translate(240.49429657794678,335.5513307984791)rotate(-187.43769356546179)"></path><path fill="#111" d="M-6,2,L12,0L-6,-2Z" transform="translate(240.49429657794678,354.56273764258555)rotate(-183.3706958660688)"></path><path fill="#111" d="M-6,2,L12,0L-6,-2Z" transform="translate(240.49429657794678,373.57414448669203)rotate(-178.32867206640435)"></path><path fill="#111" d="M-6,2,L12,0L-6,-2Z" transform="translate(240.49429657794678,392.58555133079847)rotate(-172.36082553925038)"></path><path fill="#111" d="M-6,2,L12,0L-6,-2Z" transform="translate(240.49429657794678,411.59695817490496)rotate(-165.54153545329365)"></path><path fill="#111" d="M-6,2,L12,0L-6,-2Z" transform="translate(240.49429657794678,430.6083650190114)rotate(-157.96631403731172)"></path><path fill="#111" d="M-6,2,L12,0L-6,-2Z" transform="translate(240.49429657794678,449.6197718631179)rotate(-149.74819884986803)"></path><path fill="#111" d="M-6,2,L12,0L-6,-2Z" transform="translate(240.49429657794678,468.63117870722436)rotate(-141.01452033100765)"></path><path fill="#111" d="M-6,2,L12,0L-6,-2Z" transform="translate(240.49429657794678,487.6425855513308)rotate(-131.90397762263427)"></path><path fill="#111" d="M-6,2,L12,0L-6,-2Z" transform="translate(259.5057034220532,12.357414448669202)rotate(-149.88411102968195)"></path><path fill="#111" d="M-6,2,L12,0L-6,-2Z" transform="translate(259.5057034220532,31.368821292775664)rotate(-156.14649932182095)"></path><path fill="#111" d="M-6,2,L12,0L-6,-2Z" transform="translate(259.5057034220532,50.38022813688213)rotate(-162.52256664780091)"></path><path fill="#111" d="M-6,2,L12,0L-6,-2Z" transform="translate(259.5057034220532,69.3916349809886)rotate(-168.87607913986258)"></path><path fill="#111" d="M-6,2,L12,0L-6,-2Z" transform="translate(259.5057034220532,88.40304182509506)rotate(-175.062777323153)"></path><path fill="#111" d="M-6,2,L12,0L-6,-2Z" transform="translate(259.5057034220532,107.41444866920152)rotate(-180.93913746903874)"></path><path fill="#111" d="M-6,2,L12,0L-6,-2Z" transform="translate(259.5057034220532,126.425855513308)rotate(-186.37352081541187)"></path><path fill="#111" d="M-6,2,L12,0L-6,-2Z" transform="translate(259.5057034220532,145.43726235741445)rotate(-191.26004393245842)"></path><path fill="#111" d="M-6,2,L12,0L-6,-2Z" transform="translate(259.5057034220532,164.44866920152091)rotate(-195.53319842431154)"></path><path fill="#111" d="M-6,2,L12,0L-6,-2Z" transform="translate(259.5057034220532,183.46007604562737)rotate(-199.15596840142908)"></path><path fill="#111" d="M-6,2,L12,0L-6,-2Z" transform="translate(259.5057034220532,202.47148288973384)rotate(-202.08881531963817)"></path><path fill="#111" d="M-6,2,L12,0L-6,-2Z" transform="translate(259.5057034220532,221.4828897338403)rotate(-204.2782303894634)"></path><path fill="#111" d="M-6,2,L12,0L-6,-2Z" transform="translate(259.5057034220532,240.49429657794678)rotate(-205.66056539012794)"></path><path fill="#111" d="M-6,2,L12,0L-6,-2Z" transform="translate(259.5057034220532,259.5057034220532)rotate(-206.16740985430786)"></path><path fill="#111" d="M-6,2,L12,0L-6,-2Z" transform="translate(259.5057034220532,278.5171102661597)rotate(-205.7302861486049)"></path><path fill="#111" d="M-6,2,L12,0L-6,-2Z" transform="translate(259.5057034220532,297.52851711026614)rotate(-204.2847213486273)"></path><path fill="#111" d="M-6,2,L12,0L-6,-2Z" transform="translate(259.5057034220532,316.5399239543726)rotate(-201.773751310898)"></path><path fill="#111" d="M-6,2,L12,0L-6,-2Z" transform="translate(259.5057034220532,335.5513307984791)rotate(-198.1512652964467)"></path><path fill="#111" d="M-6,2,L12,0L-6,-2Z" transform="translate(259.5057034220532,354.56273764258555)rotate(-193.39333549763367)"></path><path fill="#111" d="M-6,2,L12,0L-6,-2Z" transform="translate(259.5057034220532,373.57414448669203)rotate(-187.51284709024745)"></path><path fill="#111" d="M-6,2,L12,0L-6,-2Z" transform="translate(259.5057034220532,392.58555133079847)rotate(-180.55737435610996)"></path><path fill="#111" d="M-6,2,L12,0L-6,-2Z" transform="translate(259.5057034220532,411.59695817490496)rotate(-172.60407408753363)"></path><path fill="#111" d="M-6,2,L12,0L-6,-2Z" transform="translate(259.5057034220532,430.6083650190114)rotate(-163.7550881878423)"></path><path fill="#111" d="M-6,2,L12,0L-6,-2Z" transform="translate(259.5057034220532,449.6197718631179)rotate(-154.13340585567394)"></path><path fill="#111" d="M-6,2,L12,0L-6,-2Z" transform="translate(259.5057034220532,468.63117870722436)rotate(-143.87912221885702)"></path><path fill="#111" d="M-6,2,L12,0L-6,-2Z" transform="translate(259.5057034220532,487.6425855513308)rotate(-133.14602308602207)"></path><path fill="#111" d="M-6,2,L12,0L-6,-2Z" transform="translate(278.5171102661597,12.357414448669202)rotate(-157.18786268596662)"></path><path fill="#111" d="M-6,2,L12,0L-6,-2Z" transform="translate(278.5171102661597,31.368821292775664)rotate(-163.81948394646366)"></path><path fill="#111" d="M-6,2,L12,0L-6,-2Z" transform="translate(278.5171102661597,50.38022813688213)rotate(-170.60203254300546)"></path><path fill="#111" d="M-6,2,L12,0L-6,-2Z" transform="translate(278.5171102661597,69.3916349809886)rotate(-177.38806091101623)"></path><path fill="#111" d="M-6,2,L12,0L-6,-2Z" transform="translate(278.5171102661597,88.40304182509506)rotate(-184.02087322182226)"></path><path fill="#111" d="M-6,2,L12,0L-6,-2Z" transform="translate(278.5171102661597,107.41444866920152)rotate(-190.3434021055487)"></path><path fill="#111" d="M-6,2,L12,0L-6,-2Z" transform="translate(278.5171102661597,126.425855513308)rotate(-196.20949351946214)"></path><path fill="#111" d="M-6,2,L12,0L-6,-2Z" transform="translate(278.5171102661597,145.43726235741445)rotate(-201.49789288570665)"></path><path fill="#111" d="M-6,2,L12,0L-6,-2Z" transform="translate(278.5171102661597,164.44866920152091)rotate(-206.12807941748778)"></path><path fill="#111" d="M-6,2,L12,0L-6,-2Z" transform="translate(278.5171102661597,183.46007604562737)rotate(-210.049732695246)"></path><path fill="#111" d="M-6,2,L12,0L-6,-2Z" transform="translate(278.5171102661597,202.47148288973384)rotate(-213.20341518575927)"></path><path fill="#111" d="M-6,2,L12,0L-6,-2Z" transform="translate(278.5171102661597,221.4828897338403)rotate(-215.5178118234657)"></path><path fill="#111" d="M-6,2,L12,0L-6,-2Z" transform="translate(278.5171102661597,240.49429657794678)rotate(-216.9155503920185)"></path><path fill="#111" d="M-6,2,L12,0L-6,-2Z" transform="translate(278.5171102661597,259.5057034220532)rotate(-217.31826680938013)"></path><path fill="#111" d="M-6,2,L12,0L-6,-2Z" transform="translate(278.5171102661597,278.5171102661597)rotate(-216.65100383114887)"></path><path fill="#111" d="M-6,2,L12,0L-6,-2Z" transform="translate(278.5171102661597,297.52851711026614)rotate(-214.84600179139295)"></path><path fill="#111" d="M-6,2,L12,0L-6,-2Z" transform="translate(278.5171102661597,316.5399239543726)rotate(-211.84593443259476)"></path><path fill="#111" d="M-6,2,L12,0L-6,-2Z" transform="translate(278.5171102661597,335.5513307984791)rotate(-207.60663774231512)"></path><path fill="#111" d="M-6,2,L12,0L-6,-2Z" transform="translate(278.5171102661597,354.56273764258555)rotate(-202.1013974363659)"></path><path fill="#111" d="M-6,2,L12,0L-6,-2Z" transform="translate(278.5171102661597,373.57414448669203)rotate(-195.33610938415953)"></path><path fill="#111" d="M-6,2,L12,0L-6,-2Z" transform="translate(278.5171102661597,392.58555133079847)rotate(-187.35576659033228)"></path><path fill="#111" d="M-6,2,L12,0L-6,-2Z" transform="translate(278.5171102661597,411.59695817490496)rotate(-178.2394423170928)"></path><path fill="#111" d="M-6,2,L12,0L-6,-2Z" transform="translate(278.5171102661597,430.6083650190114)rotate(-168.09512887568062)"></path><path fill="#111" d="M-6,2,L12,0L-6,-2Z" transform="translate(278.5171102661597,449.6197718631179)rotate(-157.05505959115283)"></path><path fill="#111" d="M-6,2,L12,0L-6,-2Z" transform="translate(278.5171102661597,468.63117870722436)rotate(-145.27144734949817)"></path><path fill="#111" d="M-6,2,L12,0L-6,-2Z" transform="translate(278.5171102661597,487.6425855513308)rotate(-132.91256603063417)"></path><path fill="#111" d="M-6,2,L12,0L-6,-2Z" transform="translate(297.52851711026614,12.357414448669202)rotate(-163.82129368467977)"></path><path fill="#111" d="M-6,2,L12,0L-6,-2Z" transform="translate(297.52851711026614,31.368821292775664)rotate(-170.791834332473)"></path><path fill="#111" d="M-6,2,L12,0L-6,-2Z" transform="translate(297.52851711026614,50.38022813688213)rotate(-177.9512165646222)"></path><path fill="#111" d="M-6,2,L12,0L-6,-2Z" transform="translate(297.52851711026614,69.3916349809886)rotate(-185.14066211767621)"></path><path fill="#111" d="M-6,2,L12,0L-6,-2Z" transform="translate(297.52851711026614,88.40304182509506)rotate(-192.19101051499118)"></path><path fill="#111" d="M-6,2,L12,0L-6,-2Z" transform="translate(297.52851711026614,107.41444866920152)rotate(-198.9317301007302)"></path><path fill="#111" d="M-6,2,L12,0L-6,-2Z" transform="translate(297.52851711026614,126.425855513308)rotate(-205.20235865081725)"></path><path fill="#111" d="M-6,2,L12,0L-6,-2Z" transform="translate(297.52851711026614,145.43726235741445)rotate(-210.86666769879176)"></path><path fill="#111" d="M-6,2,L12,0L-6,-2Z" transform="translate(297.52851711026614,164.44866920152091)rotate(-215.82517159872108)"></path><path fill="#111" d="M-6,2,L12,0L-6,-2Z" transform="translate(297.52851711026614,183.46007604562737)rotate(-220.0044606930193)"></path><path fill="#111" d="M-6,2,L12,0L-6,-2Z" transform="translate(297.52851711026614,202.47148288973384)rotate(-223.32665955923952)"></path><path fill="#111" d="M-6,2,L12,0L-6,-2Z" transform="translate(297.52851711026614,221.4828897338403)rotate(-225.70601460953046)"></path><path fill="#111" d="M-6,2,L12,0L-6,-2Z" transform="translate(297.52851711026614,240.49429657794678)rotate(-227.0540884272979)"></path><path fill="#111" d="M-6,2,L12,0L-6,-2Z" transform="translate(297.52851711026614,259.5057034220532)rotate(-227.284792358189)"></path><path fill="#111" d="M-6,2,L12,0L-6,-2Z" transform="translate(297.52851711026614,278.5171102661597)rotate(-226.31866032603656)"></path><path fill="#111" d="M-6,2,L12,0L-6,-2Z" transform="translate(297.52851711026614,297.52851711026614)rotate(-224.0863789868165)"></path><path fill="#111" d="M-6,2,L12,0L-6,-2Z" transform="translate(297.52851711026614,316.5399239543726)rotate(-220.53177124664433)"></path><path fill="#111" d="M-6,2,L12,0L-6,-2Z" transform="translate(297.52851711026614,335.5513307984791)rotate(-215.61428154457835)"></path><path fill="#111" d="M-6,2,L12,0L-6,-2Z" transform="translate(297.52851711026614,354.56273764258555)rotate(-209.31108979107694)"></path><path fill="#111" d="M-6,2,L12,0L-6,-2Z" transform="translate(297.52851711026614,373.57414448669203)rotate(-201.62416454668974)"></path><path fill="#111" d="M-6,2,L12,0L-6,-2Z" transform="translate(297.52851711026614,392.58555133079847)rotate(-192.59461053132358)"></path><path fill="#111" d="M-6,2,L12,0L-6,-2Z" transform="translate(297.52851711026614,411.59695817490496)rotate(-182.30215630162027)"></path><path fill="#111" d="M-6,2,L12,0L-6,-2Z" transform="translate(297.52851711026614,430.6083650190114)rotate(-170.8594803652264)"></path><path fill="#111" d="M-6,2,L12,0L-6,-2Z" transform="translate(297.52851711026614,449.6197718631179)rotate(-158.40698131045662)"></path><path fill="#111" d="M-6,2,L12,0L-6,-2Z" transform="translate(297.52851711026614,468.63117870722436)rotate(-145.10798365572992)"></path><path fill="#111" d="M-6,2,L12,0L-6,-2Z" transform="translate(297.52851711026614,487.6425855513308)rotate(-131.14430231163277)"></path><path fill="#111" d="M-6,2,L12,0L-6,-2Z" transform="translate(316.5399239543726,12.357414448669202)rotate(-169.6322086574168)"></path><path fill="#111" d="M-6,2,L12,0L-6,-2Z" transform="translate(316.5399239543726,31.368821292775664)rotate(-176.90962782045034)"></path><path fill="#111" d="M-6,2,L12,0L-6,-2Z" transform="translate(316.5399239543726,50.38022813688213)rotate(-184.4144525279062)"></path><path fill="#111" d="M-6,2,L12,0L-6,-2Z" transform="translate(316.5399239543726,69.3916349809886)rotate(-191.9765545151689)"></path><path fill="#111" d="M-6,2,L12,0L-6,-2Z" transform="translate(316.5399239543726,88.40304182509506)rotate(-199.41439126454006)"></path><path fill="#111" d="M-6,2,L12,0L-6,-2Z" transform="translate(316.5399239543726,107.41444866920152)rotate(-206.54417068691862)"></path><path fill="#111" d="M-6,2,L12,0L-6,-2Z" transform="translate(316.5399239543726,126.425855513308)rotate(-213.19146783252194)"></path><path fill="#111" d="M-6,2,L12,0L-6,-2Z" transform="translate(316.5399239543726,145.43726235741445)rotate(-219.20321501335164)"></path><path fill="#111" d="M-6,2,L12,0L-6,-2Z" transform="translate(316.5399239543726,164.44866920152091)rotate(-224.45311036473612)"></path><path fill="#111" d="M-6,2,L12,0L-6,-2Z" transform="translate(316.5399239543726,183.46007604562737)rotate(-228.84153261851299)"></path><path fill="#111" d="M-6,2,L12,0L-6,-2Z" transform="translate(316.5399239543726,202.47148288973384)rotate(-232.2747843190423)"></path><path fill="#111" d="M-6,2,L12,0L-6,-2Z" transform="translate(316.5399239543726,221.4828897338403)rotate(-234.65538515556347)"></path><path fill="#111" d="M-6,2,L12,0L-6,-2Z" transform="translate(316.5399239543726,240.49429657794678)rotate(-235.88701347874826)"></path><path fill="#111" d="M-6,2,L12,0L-6,-2Z" transform="translate(316.5399239543726,259.5057034220532)rotate(-235.87866679242305)"></path><path fill="#111" d="M-6,2,L12,0L-6,-2Z" transform="translate(316.5399239543726,278.5171102661597)rotate(-234.5483263772332)"></path><path fill="#111" d="M-6,2,L12,0L-6,-2Z" transform="translate(316.5399239543726,297.52851711026614)rotate(-231.8266514469802)"></path><path fill="#111" d="M-6,2,L12,0L-6,-2Z" transform="translate(316.5399239543726,316.5399239543726)rotate(-227.6599218454654)"></path><path fill="#111" d="M-6,2,L12,0L-6,-2Z" transform="translate(316.5399239543726,335.5513307984791)rotate(-222.01229730692845)"></path><path fill="#111" d="M-6,2,L12,0L-6,-2Z" transform="translate(316.5399239543726,354.56273764258555)rotate(-214.86761991682673)"></path><path fill="#111" d="M-6,2,L12,0L-6,-2Z" transform="translate(316.5399239543726,373.57414448669203)rotate(-206.23138617910507)"></path><path fill="#111" d="M-6,2,L12,0L-6,-2Z" transform="translate(316.5399239543726,392.58555133079847)rotate(-196.14090706476188)"></path><path fill="#111" d="M-6,2,L12,0L-6,-2Z" transform="translate(316.5399239543726,411.59695817490496)rotate(-184.67489796292276)"></path><path fill="#111" d="M-6,2,L12,0L-6,-2Z" transform="translate(316.5399239543726,430.6083650190114)rotate(-171.9491661876922)"></path><path fill="#111" d="M-6,2,L12,0L-6,-2Z" transform="translate(316.5399239543726,449.6197718631179)rotate(-158.11081655907998)"></path><path fill="#111" d="M-6,2,L12,0L-6,-2Z" transform="translate(316.5399239543726,468.63117870722436)rotate(-143.33291048211407)"></path><path fill="#111" d="M-6,2,L12,0L-6,-2Z" transform="translate(316.5399239543726,487.6425855513308)rotate(-127.80949836342926)"></path><path fill="#111" d="M-6,2,L12,0L-6,-2Z" transform="translate(335.5513307984791,12.357414448669202)rotate(-174.47773845507726)"></path><path fill="#111" d="M-6,2,L12,0L-6,-2Z" transform="translate(335.5513307984791,31.368821292775664)rotate(-182.0277659722731)"></path><path fill="#111" d="M-6,2,L12,0L-6,-2Z" transform="translate(335.5513307984791,50.38022813688213)rotate(-189.84424814048498)"></path><path fill="#111" d="M-6,2,L12,0L-6,-2Z" transform="translate(335.5513307984791,69.3916349809886)rotate(-197.74578458471993)"></path><path fill="#111" d="M-6,2,L12,0L-6,-2Z" transform="translate(335.5513307984791,88.40304182509506)rotate(-205.53864360923882)"></path><path fill="#111" d="M-6,2,L12,0L-6,-2Z" transform="translate(335.5513307984791,107.41444866920152)rotate(-213.02610025855566)"></path><path fill="#111" d="M-6,2,L12,0L-6,-2Z" transform="translate(335.5513307984791,126.425855513308)rotate(-220.02024991965013)"></path><path fill="#111" d="M-6,2,L12,0L-6,-2Z" transform="translate(335.5513307984791,145.43726235741445)rotate(-226.34186087401858)"></path><path fill="#111" d="M-6,2,L12,0L-6,-2Z" transform="translate(335.5513307984791,164.44866920152091)rotate(-231.83752134228249)"></path><path fill="#111" d="M-6,2,L12,0L-6,-2Z" transform="translate(335.5513307984791,183.46007604562737)rotate(-236.38237512583666)"></path><path fill="#111" d="M-6,2,L12,0L-6,-2Z" transform="translate(335.5513307984791,202.47148288973384)rotate(-239.86892974237938)"></path><path fill="#111" d="M-6,2,L12,0L-6,-2Z" transform="translate(335.5513307984791,221.4828897338403)rotate(-242.18974003378116)"></path><path fill="#111" d="M-6,2,L12,0L-6,-2Z" transform="translate(335.5513307984791,240.49429657794678)rotate(-243.24214877333733)"></path><path fill="#111" d="M-6,2,L12,0L-6,-2Z" transform="translate(335.5513307984791,259.5057034220532)rotate(-242.93226991644582)"></path><path fill="#111" d="M-6,2,L12,0L-6,-2Z" transform="translate(335.5513307984791,278.5171102661597)rotate(-241.17825784806925)"></path><path fill="#111" d="M-6,2,L12,0L-6,-2Z" transform="translate(335.5513307984791,297.52851711026614)rotate(-237.91292177718285)"></path><path fill="#111" d="M-6,2,L12,0L-6,-2Z" transform="translate(335.5513307984791,316.5399239543726)rotate(-233.08624454625195)"></path><path fill="#111" d="M-6,2,L12,0L-6,-2Z" transform="translate(335.5513307984791,335.5513307984791)rotate(-226.66802186373627)"></path><path fill="#111" d="M-6,2,L12,0L-6,-2Z" transform="translate(335.5513307984791,354.56273764258555)rotate(-218.64958102245564)"></path><path fill="#111" d="M-6,2,L12,0L-6,-2Z" transform="translate(335.5513307984791,373.57414448669203)rotate(-209.04495089132263)"></path><path fill="#111" d="M-6,2,L12,0L-6,-2Z" transform="translate(335.5513307984791,392.58555133079847)rotate(-197.89339984588003)"></path><path fill="#111" d="M-6,2,L12,0L-6,-2Z" transform="translate(335.5513307984791,411.59695817490496)rotate(-185.27110606496225)"></path><path fill="#111" d="M-6,2,L12,0L-6,-2Z" transform="translate(335.5513307984791,430.6083650190114)rotate(-171.2950453659471)"></path><path fill="#111" d="M-6,2,L12,0L-6,-2Z" transform="translate(335.5513307984791,449.6197718631179)rotate(-156.11717931995167)"></path><path fill="#111" d="M-6,2,L12,0L-6,-2Z" transform="translate(335.5513307984791,468.63117870722436)rotate(-139.91855200649456)"></path><path fill="#111" d="M-6,2,L12,0L-6,-2Z" transform="translate(335.5513307984791,487.6425855513308)rotate(-122.90377386809453)"></path><path fill="#111" d="M-6,2,L12,0L-6,-2Z" transform="translate(354.56273764258555,12.357414448669202)rotate(-178.23159837794063)"></path><path fill="#111" d="M-6,2,L12,0L-6,-2Z" transform="translate(354.56273764258555,31.368821292775664)rotate(-186.01740307334475)"></path><path fill="#111" d="M-6,2,L12,0L-6,-2Z" transform="translate(354.56273764258555,50.38022813688213)rotate(-194.10890544313708)"></path><path fill="#111" d="M-6,2,L12,0L-6,-2Z" transform="translate(354.56273764258555,69.3916349809886)rotate(-202.31360793467073)"></path><path fill="#111" d="M-6,2,L12,0L-6,-2Z" transform="translate(354.56273764258555,88.40304182509506)rotate(-210.42589254337165)"></path><path fill="#111" d="M-6,2,L12,0L-6,-2Z" transform="translate(354.56273764258555,107.41444866920152)rotate(-218.23655237976038)"></path><path fill="#111" d="M-6,2,L12,0L-6,-2Z" transform="translate(354.56273764258555,126.425855513308)rotate(-225.54482338944555)"></path><path fill="#111" d="M-6,2,L12,0L-6,-2Z" transform="translate(354.56273764258555,145.43726235741445)rotate(-232.12405667842458)"></path><path fill="#111" d="M-6,2,L12,0L-6,-2Z" transform="translate(354.56273764258555,164.44866920152091)rotate(-237.81332927275682)"></path><path fill="#111" d="M-6,2,L12,0L-6,-2Z" transform="translate(354.56273764258555,183.46007604562737)rotate(-242.4589944864937)"></path><path fill="#111" d="M-6,2,L12,0L-6,-2Z" transform="translate(354.56273764258555,202.47148288973384)rotate(-245.94179379588198)"></path><path fill="#111" d="M-6,2,L12,0L-6,-2Z" transform="translate(354.56273764258555,221.4828897338403)rotate(-248.14599121862508)"></path><path fill="#111" d="M-6,2,L12,0L-6,-2Z" transform="translate(354.56273764258555,240.49429657794678)rotate(-248.9639204880007)"></path><path fill="#111" d="M-6,2,L12,0L-6,-2Z" transform="translate(354.56273764258555,259.5057034220532)rotate(-248.2997995765076)"></path><path fill="#111" d="M-6,2,L12,0L-6,-2Z" transform="translate(354.56273764258555,278.5171102661597)rotate(-246.07285412486814)"></path><path fill="#111" d="M-6,2,L12,0L-6,-2Z" transform="translate(354.56273764258555,297.52851711026614)rotate(-242.21978597821504)"></path><path fill="#111" d="M-6,2,L12,0L-6,-2Z" transform="translate(354.56273764258555,316.5399239543726)rotate(-236.69661738880401)"></path><path fill="#111" d="M-6,2,L12,0L-6,-2Z" transform="translate(354.56273764258555,335.5513307984791)rotate(-229.48010659917503)"></path><path fill="#111" d="M-6,2,L12,0L-6,-2Z" transform="translate(354.56273764258555,354.56273764258555)rotate(-220.56965740505998)"></path><path fill="#111" d="M-6,2,L12,0L-6,-2Z" transform="translate(354.56273764258555,373.57414448669203)rotate(-209.98881236777618)"></path><path fill="#111" d="M-6,2,L12,0L-6,-2Z" transform="translate(354.56273764258555,392.58555133079847)rotate(-197.7858738992814)"></path><path fill="#111" d="M-6,2,L12,0L-6,-2Z" transform="translate(354.56273764258555,411.59695817490496)rotate(-184.03749638351937)"></path><path fill="#111" d="M-6,2,L12,0L-6,-2Z" transform="translate(354.56273764258555,430.6083650190114)rotate(-168.85957752853386)"></path><path fill="#111" d="M-6,2,L12,0L-6,-2Z" transform="translate(354.56273764258555,449.6197718631179)rotate(-152.40668396483022)"></path><path fill="#111" d="M-6,2,L12,0L-6,-2Z" transform="translate(354.56273764258555,468.63117870722436)rotate(-134.86569647982148)"></path><path fill="#111" d="M-6,2,L12,0L-6,-2Z" transform="translate(354.56273764258555,487.6425855513308)rotate(-116.44972733219245)"></path><path fill="#111" d="M-6,2,L12,0L-6,-2Z" transform="translate(373.57414448669203,12.357414448669202)rotate(-180.78992696999046)"></path><path fill="#111" d="M-6,2,L12,0L-6,-2Z" transform="translate(373.57414448669203,31.368821292775664)rotate(-188.77193741303762)"></path><path fill="#111" d="M-6,2,L12,0L-6,-2Z" transform="translate(373.57414448669203,50.38022813688213)rotate(-197.09868485340712)"></path><path fill="#111" d="M-6,2,L12,0L-6,-2Z" transform="translate(373.57414448669203,69.3916349809886)rotate(-205.56684673987368)"></path><path fill="#111" d="M-6,2,L12,0L-6,-2Z" transform="translate(373.57414448669203,88.40304182509506)rotate(-213.95933177958477)"></path><path fill="#111" d="M-6,2,L12,0L-6,-2Z" transform="translate(373.57414448669203,107.41444866920152)rotate(-222.055025532868)"></path><path fill="#111" d="M-6,2,L12,0L-6,-2Z" transform="translate(373.57414448669203,126.425855513308)rotate(-229.64106191186318)"></path><path fill="#111" d="M-6,2,L12,0L-6,-2Z" transform="translate(373.57414448669203,145.43726235741445)rotate(-236.4092741852309)"></path><path fill="#111" d="M-6,2,L12,0L-6,-2Z" transform="translate(373.57414448669203,164.44866920152091)rotate(-242.23497957705635)"></path><path fill="#111" d="M-6,2,L12,0L-6,-2Z" transform="translate(373.57414448669203,183.46007604562737)rotate(-246.9240692576004)"></path><path fill="#111" d="M-6,2,L12,0L-6,-2Z" transform="translate(373.57414448669203,202.47148288973384)rotate(-250.34744786126905)"></path><path fill="#111" d="M-6,2,L12,0L-6,-2Z" transform="translate(373.57414448669203,221.4828897338403)rotate(-252.3826806716683)"></path><path fill="#111" d="M-6,2,L12,0L-6,-2Z" transform="translate(373.57414448669203,240.49429657794678)rotate(-252.9183540288776)"></path><path fill="#111" d="M-6,2,L12,0L-6,-2Z" transform="translate(373.57414448669203,259.5057034220532)rotate(-251.85772627687865)"></path><path fill="#111" d="M-6,2,L12,0L-6,-2Z" transform="translate(373.57414448669203,278.5171102661597)rotate(-249.12170896334578)"></path><path fill="#111" d="M-6,2,L12,0L-6,-2Z" transform="translate(373.57414448669203,297.52851711026614)rotate(-244.65121274218674)"></path><path fill="#111" d="M-6,2,L12,0L-6,-2Z" transform="translate(373.57414448669203,316.5399239543726)rotate(-238.4088867525764)"></path><path fill="#111" d="M-6,2,L12,0L-6,-2Z" transform="translate(373.57414448669203,335.5513307984791)rotate(-230.38027415676453)"></path><path fill="#111" d="M-6,2,L12,0L-6,-2Z" transform="translate(373.57414448669203,354.56273764258555)rotate(-220.57443556836276)"></path><path fill="#111" d="M-6,2,L12,0L-6,-2Z" transform="translate(373.57414448669203,373.57414448669203)rotate(-209.02482724832876)"></path><path fill="#111" d="M-6,2,L12,0L-6,-2Z" transform="translate(373.57414448669203,392.58555133079847)rotate(-195.79056545259675)"></path><path fill="#111" d="M-6,2,L12,0L-6,-2Z" transform="translate(373.57414448669203,411.59695817490496)rotate(-180.9566928542797)"></path><path fill="#111" d="M-6,2,L12,0L-6,-2Z" transform="translate(373.57414448669203,430.6083650190114)rotate(-164.63867534482748)"></path><path fill="#111" d="M-6,2,L12,0L-6,-2Z" transform="translate(373.57414448669203,449.6197718631179)rotate(-146.9910400783644)"></path><path fill="#111" d="M-6,2,L12,0L-6,-2Z" transform="translate(373.57414448669203,468.63117870722436)rotate(-128.20395307921387)"></path><path fill="#111" d="M-6,2,L12,0L-6,-2Z" transform="translate(373.57414448669203,487.6425855513308)rotate(-108.49657318672364)"></path><path fill="#111" d="M-6,2,L12,0L-6,-2Z" transform="translate(392.58555133079847,12.357414448669202)rotate(-182.07584147872726)"></path><path fill="#111" d="M-6,2,L12,0L-6,-2Z" transform="translate(392.58555133079847,31.368821292775664)rotate(-190.21170218201857)"></path><path fill="#111" d="M-6,2,L12,0L-6,-2Z" transform="translate(392.58555133079847,50.38022813688213)rotate(-198.73065048037728)"></path><path fill="#111" d="M-6,2,L12,0L-6,-2Z" transform="translate(392.58555133079847,69.3916349809886)rotate(-207.41890880940034)"></path><path fill="#111" d="M-6,2,L12,0L-6,-2Z" transform="translate(392.58555133079847,88.40304182509506)rotate(-216.04843630008148)"></path><path fill="#111" d="M-6,2,L12,0L-6,-2Z" transform="translate(392.58555133079847,107.41444866920152)rotate(-224.38690931823024)"></path><path fill="#111" d="M-6,2,L12,0L-6,-2Z" transform="translate(392.58555133079847,126.425855513308)rotate(-232.09628996166884)"></path><path fill="#111" d="M-6,2,L12,0L-6,-2Z" transform="translate(392.58555133079847,145.43726235741445)rotate(-239.08301366898922)"></path><path fill="#111" d="M-6,2,L12,0L-6,-2Z" transform="translate(392.58555133079847,164.44866920152091)rotate(-244.9844079621409)"></path><path fill="#111" d="M-6,2,L12,0L-6,-2Z" transform="translate(392.58555133079847,183.46007604562737)rotate(-249.65880710997936)"></path><path fill="#111" d="M-6,2,L12,0L-6,-2Z" transform="translate(392.58555133079847,202.47148288973384)rotate(-252.96911370616343)"></path><path fill="#111" d="M-6,2,L12,0L-6,-2Z" transform="translate(392.58555133079847,221.4828897338403)rotate(-254.78770846876583)"></path><path fill="#111" d="M-6,2,L12,0L-6,-2Z" transform="translate(392.58555133079847,240.49429657794678)rotate(-255.0006297173612)"></path><path fill="#111" d="M-6,2,L12,0L-6,-2Z" transform="translate(392.58555133079847,259.5057034220532)rotate(-253.5110651049273)"></path><path fill="#111" d="M-6,2,L12,0L-6,-2Z" transform="translate(392.58555133079847,278.5171102661597)rotate(-250.24219342705402)"></path><path fill="#111" d="M-6,2,L12,0L-6,-2Z" transform="translate(392.58555133079847,297.52851711026614)rotate(-245.1394091613181)"></path><path fill="#111" d="M-6,2,L12,0L-6,-2Z" transform="translate(392.58555133079847,316.5399239543726)rotate(-238.17195680521442)"></path><path fill="#111" d="M-6,2,L12,0L-6,-2Z" transform="translate(392.58555133079847,335.5513307984791)rotate(-229.33399608176077)"></path><path fill="#111" d="M-6,2,L12,0L-6,-2Z" transform="translate(392.58555133079847,354.56273764258555)rotate(-218.64511266780517)"></path><path fill="#111" d="M-6,2,L12,0L-6,-2Z" transform="translate(392.58555133079847,373.57414448669203)rotate(-206.1502879510374)"></path><path fill="#111" d="M-6,2,L12,0L-6,-2Z" transform="translate(392.58555133079847,392.58555133079847)rotate(-191.91982789352593)"></path><path fill="#111" d="M-6,2,L12,0L-6,-2Z" transform="translate(392.58555133079847,411.59695817490496)rotate(-176.05014355500597)"></path><path fill="#111" d="M-6,2,L12,0L-6,-2Z" transform="translate(392.58555133079847,430.6083650190114)rotate(-158.66381777411493)"></path><path fill="#111" d="M-6,2,L12,0L-6,-2Z" transform="translate(392.58555133079847,449.6197718631179)rotate(-139.9143802368965)"></path><path fill="#111" d="M-6,2,L12,0L-6,-2Z" transform="translate(392.58555133079847,468.63117870722436)rotate(-119.99231313782047)"></path><path fill="#111" d="M-6,2,L12,0L-6,-2Z" transform="translate(392.58555133079847,487.6425855513308)rotate(-99.11995394740126)"></path><path fill="#111" d="M-6,2,L12,0L-6,-2Z" transform="translate(411.59695817490496,12.357414448669202)rotate(-182.0428286133974)"></path><path fill="#111" d="M-6,2,L12,0L-6,-2Z" transform="translate(411.59695817490496,31.368821292775664)rotate(-190.28747535683155)"></path><path fill="#111" d="M-6,2,L12,0L-6,-2Z" transform="translate(411.59695817490496,50.38022813688213)rotate(-198.9523169106008)"></path><path fill="#111" d="M-6,2,L12,0L-6,-2Z" transform="translate(411.59695817490496,69.3916349809886)rotate(-207.8135894043757)"></path><path fill="#111" d="M-6,2,L12,0L-6,-2Z" transform="translate(411.59695817490496,88.40304182509506)rotate(-216.6329377319702)"></path><path fill="#111" d="M-6,2,L12,0L-6,-2Z" transform="translate(411.59695817490496,107.41444866920152)rotate(-225.16765234725943)"></path><path fill="#111" d="M-6,2,L12,0L-6,-2Z" transform="translate(411.59695817490496,126.425855513308)rotate(-232.9871386669215)"></path><path fill="#111" d="M-6,2,L12,0L-6,-2Z" transform="translate(411.59695817490496,145.43726235741445)rotate(-240.06290986609258)"></path><path fill="#111" d="M-6,2,L12,0L-6,-2Z" transform="translate(411.59695817490496,164.44866920152091)rotate(-245.9770127305444)"></path><path fill="#111" d="M-6,2,L12,0L-6,-2Z" transform="translate(411.59695817490496,183.46007604562737)rotate(-250.57881417608257)"></path><path fill="#111" d="M-6,2,L12,0L-6,-2Z" transform="translate(411.59695817490496,202.47148288973384)rotate(-253.72495967614407)"></path><path fill="#111" d="M-6,2,L12,0L-6,-2Z" transform="translate(411.59695817490496,221.4828897338403)rotate(-255.28408481232216)"></path><path fill="#111" d="M-6,2,L12,0L-6,-2Z" transform="translate(411.59695817490496,240.49429657794678)rotate(-255.14081880854474)"></path><path fill="#111" d="M-6,2,L12,0L-6,-2Z" transform="translate(411.59695817490496,259.5057034220532)rotate(-253.19912059826314)"></path><path fill="#111" d="M-6,2,L12,0L-6,-2Z" transform="translate(411.59695817490496,278.5171102661597)rotate(-249.38498331133874)"></path><path fill="#111" d="M-6,2,L12,0L-6,-2Z" transform="translate(411.59695817490496,297.52851711026614)rotate(-243.6485379898666)"></path><path fill="#111" d="M-6,2,L12,0L-6,-2Z" transform="translate(411.59695817490496,316.5399239543726)rotate(-235.9655818498876)"></path><path fill="#111" d="M-6,2,L12,0L-6,-2Z" transform="translate(411.59695817490496,335.5513307984791)rotate(-226.3385504988425)"></path><path fill="#111" d="M-6,2,L12,0L-6,-2Z" transform="translate(411.59695817490496,354.56273764258555)rotate(-214.79694719672392)"></path><path fill="#111" d="M-6,2,L12,0L-6,-2Z" transform="translate(411.59695817490496,373.57414448669203)rotate(-201.39723551214328)"></path><path fill="#111" d="M-6,2,L12,0L-6,-2Z" transform="translate(411.59695817490496,392.58555133079847)rotate(-186.22219527953465)"></path><path fill="#111" d="M-6,2,L12,0L-6,-2Z" transform="translate(411.59695817490496,411.59695817490496)rotate(-169.38005147188443)"></path><path fill="#111" d="M-6,2,L12,0L-6,-2Z" transform="translate(411.59695817490496,430.6083650190114)rotate(-151.0045930629323)"></path><path fill="#111" d="M-6,2,L12,0L-6,-2Z" transform="translate(411.59695817490496,449.6197718631179)rotate(-131.25498666843552)"></path><path fill="#111" d="M-6,2,L12,0L-6,-2Z" transform="translate(411.59695817490496,468.63117870722436)rotate(-110.32007831329534)"></path><path fill="#111" d="M-6,2,L12,0L-6,-2Z" transform="translate(411.59695817490496,487.6425855513308)rotate(-88.4220867246476)"></path><path fill="#111" d="M-6,2,L12,0L-6,-2Z" transform="translate(430.6083650190114,12.357414448669202)rotate(-180.677072595879)"></path><path fill="#111" d="M-6,2,L12,0L-6,-2Z" transform="translate(430.6083650190114,31.368821292775664)rotate(-188.98291130342864)"></path><path fill="#111" d="M-6,2,L12,0L-6,-2Z" transform="translate(430.6083650190114,50.38022813688213)rotate(-197.74420102651456)"></path><path fill="#111" d="M-6,2,L12,0L-6,-2Z" transform="translate(430.6083650190114,69.3916349809886)rotate(-206.7277602890678)"></path><path fill="#111" d="M-6,2,L12,0L-6,-2Z" transform="translate(430.6083650190114,88.40304182509506)rotate(-215.68566804388777)"></path><path fill="#111" d="M-6,2,L12,0L-6,-2Z" transform="translate(430.6083650190114,107.41444866920152)rotate(-224.3657784320078)"></path><path fill="#111" d="M-6,2,L12,0L-6,-2Z" transform="translate(430.6083650190114,126.425855513308)rotate(-232.20744679500598)"></path><path fill="#111" d="M-6,2,L12,0L-6,-2Z" transform="translate(430.6083650190114,145.43726235741445)rotate(-239.30305696891548)"></path><path fill="#111" d="M-6,2,L12,0L-6,-2Z" transform="translate(430.6083650190114,164.44866920152091)rotate(-245.16585693051445)"></path><path fill="#111" d="M-6,2,L12,0L-6,-2Z" transform="translate(430.6083650190114,183.46007604562737)rotate(-249.63820202744188)"></path><path fill="#111" d="M-6,2,L12,0L-6,-2Z" transform="translate(430.6083650190114,202.47148288973384)rotate(-252.57213928192908)"></path><path fill="#111" d="M-6,2,L12,0L-6,-2Z" transform="translate(430.6083650190114,221.4828897338403)rotate(-253.83392616124559)"></path><path fill="#111" d="M-6,2,L12,0L-6,-2Z" transform="translate(430.6083650190114,240.49429657794678)rotate(-253.30786228711094)"></path><path fill="#111" d="M-6,2,L12,0L-6,-2Z" transform="translate(430.6083650190114,259.5057034220532)rotate(-250.8994725593526)"></path><path fill="#111" d="M-6,2,L12,0L-6,-2Z" transform="translate(430.6083650190114,278.5171102661597)rotate(-246.53807559860866)"></path><path fill="#111" d="M-6,2,L12,0L-6,-2Z" transform="translate(430.6083650190114,297.52851711026614)rotate(-240.17876642759845)"></path><path fill="#111" d="M-6,2,L12,0L-6,-2Z" transform="translate(430.6083650190114,316.5399239543726)rotate(-231.80383691038384)"></path><path fill="#111" d="M-6,2,L12,0L-6,-2Z" transform="translate(430.6083650190114,335.5513307984791)rotate(-221.4236516541244)"></path><path fill="#111" d="M-6,2,L12,0L-6,-2Z" transform="translate(430.6083650190114,354.56273764258555)rotate(-209.07699084811412)"></path><path fill="#111" d="M-6,2,L12,0L-6,-2Z" transform="translate(430.6083650190114,373.57414448669203)rotate(-194.83086487032807)"></path><path fill="#111" d="M-6,2,L12,0L-6,-2Z" transform="translate(430.6083650190114,392.58555133079847)rotate(-178.7797984323626)"></path><path fill="#111" d="M-6,2,L12,0L-6,-2Z" transform="translate(430.6083650190114,411.59695817490496)rotate(-161.04457464929138)"></path><path fill="#111" d="M-6,2,L12,0L-6,-2Z" transform="translate(430.6083650190114,430.6083650190114)rotate(-141.7706536131311)"></path><path fill="#111" d="M-6,2,L12,0L-6,-2Z" transform="translate(430.6083650190114,449.6197718631179)rotate(-121.12757921720305)"></path><path fill="#111" d="M-6,2,L12,0L-6,-2Z" transform="translate(430.6083650190114,468.63117870722436)rotate(-99.308314884586)"></path><path fill="#111" d="M-6,2,L12,0L-6,-2Z" transform="translate(430.6083650190114,487.6425855513308)rotate(-76.53239995449134)"></path><path fill="#111" d="M-6,2,L12,0L-6,-2Z" transform="translate(449.6197718631179,12.357414448669202)rotate(-177.99880668941523)"></path><path fill="#111" d="M-6,2,L12,0L-6,-2Z" transform="translate(449.6197718631179,31.368821292775664)rotate(-186.31598102228622)"></path><path fill="#111" d="M-6,2,L12,0L-6,-2Z" transform="translate(449.6197718631179,50.38022813688213)rotate(-195.12136660960294)"></path><path fill="#111" d="M-6,2,L12,0L-6,-2Z" transform="translate(449.6197718631179,69.3916349809886)rotate(-204.17303468931567)"></path><path fill="#111" d="M-6,2,L12,0L-6,-2Z" transform="translate(449.6197718631179,88.40304182509506)rotate(-213.21436125197013)"></path><path fill="#111" d="M-6,2,L12,0L-6,-2Z" transform="translate(449.6197718631179,107.41444866920152)rotate(-221.9848418655299)"></path><path fill="#111" d="M-6,2,L12,0L-6,-2Z" transform="translate(449.6197718631179,126.425855513308)rotate(-229.75229159699072)"></path><path fill="#111" d="M-6,2,L12,0L-6,-2Z" transform="translate(449.6197718631179,145.43726235741445)rotate(-236.79675527815957)"></path><path fill="#111" d="M-6,2,L12,0L-6,-2Z" transform="translate(449.6197718631179,164.44866920152091)rotate(-242.54430079054154)"></path><path fill="#111" d="M-6,2,L12,0L-6,-2Z" transform="translate(449.6197718631179,183.46007604562737)rotate(-246.83213065133256)"></path><path fill="#111" d="M-6,2,L12,0L-6,-2Z" transform="translate(449.6197718631179,202.47148288973384)rotate(-249.50926856948146)"></path><path fill="#111" d="M-6,2,L12,0L-6,-2Z" transform="translate(449.6197718631179,221.4828897338403)rotate(-250.44088997667055)"></path><path fill="#111" d="M-6,2,L12,0L-6,-2Z" transform="translate(449.6197718631179,240.49429657794678)rotate(-249.51198514121174)"></path><path fill="#111" d="M-6,2,L12,0L-6,-2Z" transform="translate(449.6197718631179,259.5057034220532)rotate(-246.6303912199771)"></path><path fill="#111" d="M-6,2,L12,0L-6,-2Z" transform="translate(449.6197718631179,278.5171102661597)rotate(-241.72922512517533)"></path><path fill="#111" d="M-6,2,L12,0L-6,-2Z" transform="translate(449.6197718631179,297.52851711026614)rotate(-234.76874418969874)"></path><path fill="#111" d="M-6,2,L12,0L-6,-2Z" transform="translate(449.6197718631179,316.5399239543726)rotate(-225.73765630683835)"></path><path fill="#111" d="M-6,2,L12,0L-6,-2Z" transform="translate(449.6197718631179,335.5513307984791)rotate(-214.6538954974335)"></path><path fill="#111" d="M-6,2,L12,0L-6,-2Z" transform="translate(449.6197718631179,354.56273764258555)rotate(-201.5648727199808)"></path><path fill="#111" d="M-6,2,L12,0L-6,-2Z" transform="translate(449.6197718631179,373.57414448669203)rotate(-186.5472051868561)"></path><path fill="#111" d="M-6,2,L12,0L-6,-2Z" transform="translate(449.6197718631179,392.58555133079847)rotate(-169.70592048263345)"></path><path fill="#111" d="M-6,2,L12,0L-6,-2Z" transform="translate(449.6197718631179,411.59695817490496)rotate(-151.1731243984906)"></path><path fill="#111" d="M-6,2,L12,0L-6,-2Z" transform="translate(449.6197718631179,430.6083650190114)rotate(-131.10611363106256)"></path><path fill="#111" d="M-6,2,L12,0L-6,-2Z" transform="translate(449.6197718631179,449.6197718631179)rotate(-109.68511516736825)"></path><path fill="#111" d="M-6,2,L12,0L-6,-2Z" transform="translate(449.6197718631179,468.63117870722436)rotate(-87.11199035710966)"></path><path fill="#111" d="M-6,2,L12,0L-6,-2Z" transform="translate(449.6197718631179,487.6425855513308)rotate(-63.608813632970836)"></path><path fill="#111" d="M-6,2,L12,0L-6,-2Z" transform="translate(468.63117870722436,12.357414448669202)rotate(-174.06275941096143)"></path><path fill="#111" d="M-6,2,L12,0L-6,-2Z" transform="translate(468.63117870722436,31.368821292775664)rotate(-182.3394929783238)"></path><path fill="#111" d="M-6,2,L12,0L-6,-2Z" transform="translate(468.63117870722436,50.38022813688213)rotate(-191.13403450115337)"></path><path fill="#111" d="M-6,2,L12,0L-6,-2Z" transform="translate(468.63117870722436,69.3916349809886)rotate(-200.19648185294648)"></path><path fill="#111" d="M-6,2,L12,0L-6,-2Z" transform="translate(468.63117870722436,88.40304182509506)rotate(-209.2624878438158)"></path><path fill="#111" d="M-6,2,L12,0L-6,-2Z" transform="translate(468.63117870722436,107.41444866920152)rotate(-217.55669421751364)"></path><path fill="#111" d="M-6,2,L12,0L-6,-2Z" transform="translate(468.63117870722436,126.425855513308)rotate(-225.65599738134145)"></path><path fill="#111" d="M-6,2,L12,0L-6,-2Z" transform="translate(468.63117870722436,145.43726235741445)rotate(-232.57785630520885)"></path><path fill="#111" d="M-6,2,L12,0L-6,-2Z" transform="translate(468.63117870722436,164.44866920152091)rotate(-238.1472390177374)"></path><path fill="#111" d="M-6,2,L12,0L-6,-2Z" transform="translate(468.63117870722436,183.46007604562737)rotate(-242.19795988594493)"></path><path fill="#111" d="M-6,2,L12,0L-6,-2Z" transform="translate(468.63117870722436,202.47148288973384)rotate(-244.57751270435108)"></path><path fill="#111" d="M-6,2,L12,0L-6,-2Z" transform="translate(468.63117870722436,221.4828897338403)rotate(-245.15121657895506)"></path><path fill="#111" d="M-6,2,L12,0L-6,-2Z" transform="translate(468.63117870722436,240.49429657794678)rotate(-243.80571276622854)"></path><path fill="#111" d="M-6,2,L12,0L-6,-2Z" transform="translate(468.63117870722436,259.5057034220532)rotate(-240.45184665598222)"></path><path fill="#111" d="M-6,2,L12,0L-6,-2Z" transform="translate(468.63117870722436,278.5171102661597)rotate(-235.02696470084837)"></path><path fill="#111" d="M-6,2,L12,0L-6,-2Z" transform="translate(468.63117870722436,297.52851711026614)rotate(-227.49665129420745)"></path><path fill="#111" d="M-6,2,L12,0L-6,-2Z" transform="translate(468.63117870722436,316.5399239543726)rotate(-217.85592538264555)"></path><path fill="#111" d="M-6,2,L12,0L-6,-2Z" transform="translate(468.63117870722436,335.5513307984791)rotate(-206.12991096847958)"></path><path fill="#111" d="M-6,2,L12,0L-6,-2Z" transform="translate(468.63117870722436,354.56273764258555)rotate(-192.37398961252265)"></path><path fill="#111" d="M-6,2,L12,0L-6,-2Z" transform="translate(468.63117870722436,373.57414448669203)rotate(-176.67343658707685)"></path><path fill="#111" d="M-6,2,L12,0L-6,-2Z" transform="translate(468.63117870722436,392.58555133079847)rotate(-159.14253545414832)"></path><path fill="#111" d="M-6,2,L12,0L-6,-2Z" transform="translate(468.63117870722436,411.59695817490496)rotate(-139.92315855406852)"></path><path fill="#111" d="M-6,2,L12,0L-6,-2Z" transform="translate(468.63117870722436,430.6083650190114)rotate(-119.18279318507723)"></path><path fill="#111" d="M-6,2,L12,0L-6,-2Z" transform="translate(468.63117870722436,449.6197718631179)rotate(-97.11198520654233)"></path><path fill="#111" d="M-6,2,L12,0L-6,-2Z" transform="translate(468.63117870722436,468.63117870722436)rotate(-73.92139622412395)"></path><path fill="#111" d="M-6,2,L12,0L-6,-2Z" transform="translate(468.63117870722436,487.6425855513308)rotate(-49.839811176921756)"></path><path fill="#111" d="M-6,2,L12,0L-6,-2Z" transform="translate(487.6425855513308,12.357414448669202)rotate(-168.9577524831161)"></path><path fill="#111" d="M-6,2,L12,0L-6,-2Z" transform="translate(487.6425855513308,31.368821292775664)rotate(-177.14075230904163)"></path><path fill="#111" d="M-6,2,L12,0L-6,-2Z" transform="translate(487.6425855513308,50.38022813688213)rotate(-185.86731694365574)"></path><path fill="#111" d="M-6,2,L12,0L-6,-2Z" transform="translate(487.6425855513308,69.3916349809886)rotate(-194.88045075704358)"></path><path fill="#111" d="M-6,2,L12,0L-6,-2Z" transform="translate(487.6425855513308,88.40304182509506)rotate(-203.90918247929412)"></path><path fill="#111" d="M-6,2,L12,0L-6,-2Z" transform="translate(487.6425855513308,107.41444866920152)rotate(-212.04412935819997)"></path><path fill="#111" d="M-6,2,L12,0L-6,-2Z" transform="translate(487.6425855513308,126.425855513308)rotate(-219.9923547195204)"></path><path fill="#111" d="M-6,2,L12,0L-6,-2Z" transform="translate(487.6425855513308,145.43726235741445)rotate(-226.72085812772698)"></path><path fill="#111" d="M-6,2,L12,0L-6,-2Z" transform="translate(487.6425855513308,164.44866920152091)rotate(-232.05109250485648)"></path><path fill="#111" d="M-6,2,L12,0L-6,-2Z" transform="translate(487.6425855513308,183.46007604562737)rotate(-235.81515669260423)"></path><path fill="#111" d="M-6,2,L12,0L-6,-2Z" transform="translate(487.6425855513308,202.47148288973384)rotate(-237.86042707471643)"></path><path fill="#111" d="M-6,2,L12,0L-6,-2Z" transform="translate(487.6425855513308,221.4828897338403)rotate(-238.05352143852895)"></path><path fill="#111" d="M-6,2,L12,0L-6,-2Z" transform="translate(487.6425855513308,240.49429657794678)rotate(-236.28363093127138)"></path><path fill="#111" d="M-6,2,L12,0L-6,-2Z" transform="translate(487.6425855513308,259.5057034220532)rotate(-232.46525208764695)"></path><path fill="#111" d="M-6,2,L12,0L-6,-2Z" transform="translate(487.6425855513308,278.5171102661597)rotate(-226.54034661126863)"></path><path fill="#111" d="M-6,2,L12,0L-6,-2Z" transform="translate(487.6425855513308,297.52851711026614)rotate(-218.4799518837928)"></path><path fill="#111" d="M-6,2,L12,0L-6,-2Z" transform="translate(487.6425855513308,316.5399239543726)rotate(-208.28526005203778)"></path><path fill="#111" d="M-6,2,L12,0L-6,-2Z" transform="translate(487.6425855513308,335.5513307984791)rotate(-195.98817800500083)"></path><path fill="#111" d="M-6,2,L12,0L-6,-2Z" transform="translate(487.6425855513308,354.56273764258555)rotate(-181.65137459950583)"></path><path fill="#111" d="M-6,2,L12,0L-6,-2Z" transform="translate(487.6425855513308,373.57414448669203)rotate(-165.36781512521162)"></path><path fill="#111" d="M-6,2,L12,0L-6,-2Z" transform="translate(487.6425855513308,392.58555133079847)rotate(-147.25977621689447)"></path><path fill="#111" d="M-6,2,L12,0L-6,-2Z" transform="translate(487.6425855513308,411.59695817490496)rotate(-127.47732722429387)"></path><path fill="#111" d="M-6,2,L12,0L-6,-2Z" transform="translate(487.6425855513308,430.6083650190114)rotate(-106.19625643736072)"></path><path fill="#111" d="M-6,2,L12,0L-6,-2Z" transform="translate(487.6425855513308,449.6197718631179)rotate(-83.6154125374907)"></path><path fill="#111" d="M-6,2,L12,0L-6,-2Z" transform="translate(487.6425855513308,468.63117870722436)rotate(-59.9534236490017)"></path><path fill="#111" d="M-6,2,L12,0L-6,-2Z" transform="translate(487.6425855513308,487.6425855513308)rotate(-35.44505541609605)"></path></g></svg>