<svg xmlns="http://www.w3.org/2000/svg" version="1.1" style="background: none repeat scroll 0% 0% rgb(144, 18, 68);" height="625.6" width="625.6"><g transform="translate(312.8,312.8)rotate(73.21)"><circle r="0.12" fill-opacity="0.3" fill="#7fc8eb" cy="0.6755902076156604" cx="-0.737277336810124"/><circle r="0.13750768583368986" fill-opacity="0.3" fill="#7fc8eb" cy="0.4146932426562392" cx="-0.9099612708765431"/><circle r="0.15464069770387565" fill-opacity="0.3" fill="#7fc8eb" cy="0.11320321376790689" cx="-0.9935718556765875"/><circle r="0.17103237987289213" fill-opacity="0.3" fill="#7fc8eb" cy="-0.199367934417197" cx="-0.9799247046208297"/><circle r="0.18633194146037368" fill-opacity="0.3" fill="#7fc8eb" cy="-0.49242356010346694" cx="-0.8703556959398998"/><circle r="0.20021196355817286" fill-opacity="0.3" fill="#7fc8eb" cy="-0.7372773368101239" cx="-0.6755902076156604"/><circle r="0.21237540617240894" fill-opacity="0.3" fill="#7fc8eb" cy="-0.9099612708765431" cx="-0.41469324265623925"/><circle r="0.22256196504028997" fill-opacity="0.3" fill="#7fc8eb" cy="-0.9935718556765875" cx="-0.11320321376790694"/><circle r="0.23055364228238462" fill-opacity="0.3" fill="#7fc8eb" cy="-0.9799247046208297" cx="0.19936793441719694"/><circle r="0.2361794116753653" fill-opacity="0.3" fill="#7fc8eb" cy="-0.8703556959398998" cx="0.4924235601034669"/><circle r="0.23931887870585944" fill-opacity="0.3" fill="#7fc8eb" cy="-0.6755902076156605" cx="0.7372773368101239"/><circle r="0.23990485707827208" fill-opacity="0.3" fill="#7fc8eb" cy="-0.4146932426562393" cx="0.9099612708765431"/><circle r="0.23792480653791712" fill-opacity="0.3" fill="#7fc8eb" cy="-0.11320321376790701" cx="0.9935718556765875"/><circle r="0.2334211012392625" fill-opacity="0.3" fill="#7fc8eb" cy="0.19936793441719688" cx="0.9799247046208297"/><circle r="0.22649012291606382" fill-opacity="0.3" fill="#7fc8eb" cy="0.49242356010346683" cx="0.8703556959398998"/><circle r="0.21728019826003717" fill-opacity="0.3" fill="#7fc8eb" cy="0.7372773368101239" cx="0.6755902076156605"/><circle r="0.2059884246492841" fill-opacity="0.3" fill="#7fc8eb" cy="0.9099612708765431" cx="0.41469324265623936"/><circle r="0.1928564521576019" fill-opacity="0.3" fill="#7fc8eb" cy="0.9935718556765875" cx="0.11320321376790707"/><circle r="0.17816531211196449" fill-opacity="0.3" fill="#7fc8eb" cy="0.9799247046208297" cx="-0.19936793441719683"/><circle r="0.16222940286984636" fill-opacity="0.3" fill="#7fc8eb" cy="0.8703556959398999" cx="-0.4924235601034668"/><circle r="0.5426137765342941" fill-opacity="0.3" fill="#7fc8eb" cy="-3.984778792366982" cx="0.34862297099063155"/><circle r="0.47773814149503113" fill-opacity="0.3" fill="#7fc8eb" cy="-3.682019413809762" cx="1.562924513957094"/><circle r="0.41222300892490255" fill-opacity="0.3" fill="#7fc8eb" cy="-3.018838320891089" cx="2.624236115962028"/><circle r="0.3474704381607458" fill-opacity="0.3" fill="#7fc8eb" cy="-2.060152299640218" cx="3.4286692028084484"/><circle r="0.284866169303551" fill-opacity="0.3" fill="#7fc8eb" cy="-0.8998042173754613" cx="3.8974802591409405"/><circle r="0.22574996762942703" fill-opacity="0.3" fill="#7fc8eb" cy="0.34862297099063133" cx="3.984778792366982"/><circle r="0.17138695188673075" fill-opacity="0.3" fill="#7fc8eb" cy="1.5629245139570938" cx="3.682019413809762"/><circle r="0.12294052006933956" fill-opacity="0.3" fill="#7fc8eb" cy="2.624236115962028" cx="3.018838320891089"/><circle r="0.08144745206918635" fill-opacity="0.3" fill="#7fc8eb" cy="3.4286692028084484" cx="2.060152299640218"/><circle r="0.04779572202478608" fill-opacity="0.3" fill="#7fc8eb" cy="3.8974802591409405" cx="0.8998042173754616"/><circle r="0.022705495193516195" fill-opacity="0.3" fill="#7fc8eb" cy="3.984778792366982" cx="-0.34862297099063105"/><circle r="0.006713716024882222" fill-opacity="0.3" fill="#7fc8eb" cy="3.682019413809762" cx="-1.5629245139570935"/><circle r="0.0001626172583512823" fill-opacity="0.3" fill="#7fc8eb" cy="3.018838320891089" cx="-2.6242361159620278"/><circle r="0.0031923959572862574" fill-opacity="0.3" fill="#7fc8eb" cy="2.0601522996402184" cx="-3.4286692028084484"/><circle r="0.015738213215822906" fill-opacity="0.3" fill="#7fc8eb" cy="0.8998042173754618" cx="-3.8974802591409405"/><circle r="0.03753158174658907" fill-opacity="0.3" fill="#7fc8eb" cy="-0.34862297099063083" cx="-3.984778792366982"/><circle r="0.06810611165413578" fill-opacity="0.3" fill="#7fc8eb" cy="-1.5629245139570933" cx="-3.682019413809762"/><circle r="0.10680749143141688" fill-opacity="0.3" fill="#7fc8eb" cy="-2.6242361159620278" cx="-3.0188383208910894"/><circle r="0.15280749058058293" fill-opacity="0.3" fill="#7fc8eb" cy="-3.428669202808448" cx="-2.0601522996402184"/><circle r="0.20512168419441779" fill-opacity="0.3" fill="#7fc8eb" cy="-3.8974802591409405" cx="-0.899804217375462"/><circle r="0.5674382220512444" fill-opacity="0.3" fill="#7fc8eb" cy="7.1401800626211145" cx="5.478852861078489"/><circle r="0.700255963656077" fill-opacity="0.3" fill="#7fc8eb" cy="8.483773419829603" cx="3.004261733103942"/><circle r="0.8387957644438002" fill-opacity="0.3" fill="#7fc8eb" cy="8.996915924780016" cx="0.23559253477086245"/><circle r="0.9800927976087883" fill-opacity="0.3" fill="#7fc8eb" cy="8.62937761381374" cx="-2.556138102335299"/><circle r="1.1211232300785166" fill-opacity="0.3" fill="#7fc8eb" cy="7.417135697598143" cx="-5.0976561323234915"/><circle r="1.2588689341797983" fill-opacity="0.3" fill="#7fc8eb" cy="5.478852861078489" cx="-7.140180062621114"/><circle r="1.3903820772063842" fill-opacity="0.3" fill="#7fc8eb" cy="3.0042617331039425" cx="-8.483773419829603"/><circle r="1.512848206636182" fill-opacity="0.3" fill="#7fc8eb" cy="0.235592534770863" cx="-8.996915924780016"/><circle r="1.6236464809402569" fill-opacity="0.3" fill="#7fc8eb" cy="-2.5561381023352987" cx="-8.62937761381374"/><circle r="1.7204057570116755" fill-opacity="0.3" fill="#7fc8eb" cy="-5.0976561323234915" cx="-7.417135697598143"/><circle r="1.8010553339128135" fill-opacity="0.3" fill="#7fc8eb" cy="-7.140180062621114" cx="-5.47885286107849"/><circle r="1.8638692669974442" fill-opacity="0.3" fill="#7fc8eb" cy="-8.483773419829603" cx="-3.004261733103943"/><circle r="1.907503304061384" fill-opacity="0.3" fill="#7fc8eb" cy="-8.996915924780016" cx="-0.23559253477086356"/><circle r="1.9310236530680536" fill-opacity="0.3" fill="#7fc8eb" cy="-8.62937761381374" cx="2.5561381023352983"/><circle r="1.933926965804043" fill-opacity="0.3" fill="#7fc8eb" cy="-7.417135697598145" cx="5.0976561323234915"/><circle r="1.916151109803622" fill-opacity="0.3" fill="#7fc8eb" cy="-5.47885286107849" cx="7.140180062621114"/><circle r="1.8780764980171725" fill-opacity="0.3" fill="#7fc8eb" cy="-3.0042617331039434" cx="8.483773419829603"/><circle r="1.820517947767921" fill-opacity="0.3" fill="#7fc8eb" cy="-0.23559253477086411" cx="8.996915924780016"/><circle r="1.744707243219709" fill-opacity="0.3" fill="#7fc8eb" cy="2.556138102335298" cx="8.62937761381374"/><circle r="1.6522667745284314" fill-opacity="0.3" fill="#7fc8eb" cy="5.097656132323491" cx="7.417135697598145"/><circle r="2.6690777274109925" fill-opacity="0.3" fill="#7fc8eb" cy="-2.7783708426708764" cx="-15.75692404819533"/><circle r="2.4627414270369745" fill-opacity="0.3" fill="#7fc8eb" cy="-7.511545004574244" cx="-14.127161485742835"/><circle r="2.239471212906075" fill-opacity="0.3" fill="#7fc8eb" cy="-11.509436805418412" cx="-11.114533927343963"/><circle r="2.0040451885812303" fill-opacity="0.3" fill="#7fc8eb" cy="-14.380704740786667" cx="-7.013938348625247"/><circle r="1.7615015985502491" fill-opacity="0.3" fill="#7fc8eb" cy="-15.844289099865124" cx="-2.2267696153610568"/><circle r="1.5170310070637445" fill-opacity="0.3" fill="#7fc8eb" cy="-15.75692404819533" cx="2.7783708426708755"/><circle r="1.2758652172476475" fill-opacity="0.3" fill="#7fc8eb" cy="-14.127161485742835" cx="7.511545004574243"/><circle r="1.043165307681401" fill-opacity="0.3" fill="#7fc8eb" cy="-11.114533927343965" cx="11.50943680541841"/><circle r="0.8239111825198161" fill-opacity="0.3" fill="#7fc8eb" cy="-7.013938348625248" cx="14.380704740786667"/><circle r="0.6227949988457395" fill-opacity="0.3" fill="#7fc8eb" cy="-2.226769615361058" cx="15.844289099865124"/><circle r="0.44412075196602424" fill-opacity="0.3" fill="#7fc8eb" cy="2.7783708426708746" cx="15.75692404819533"/><circle r="0.29171216757979296" fill-opacity="0.3" fill="#7fc8eb" cy="7.511545004574242" cx="14.127161485742837"/><circle r="0.168830871976581" fill-opacity="0.3" fill="#7fc8eb" cy="11.50943680541841" cx="11.114533927343965"/><circle r="0.07810659146639105" fill-opacity="0.3" fill="#7fc8eb" cy="14.380704740786667" cx="7.013938348625249"/><circle r="0.021480874811734735" fill-opacity="0.3" fill="#7fc8eb" cy="15.844289099865124" cx="2.226769615361059"/><circle r="0.00016554303206435715" fill-opacity="0.3" fill="#7fc8eb" cy="15.756924048195332" cx="-2.7783708426708738"/><circle r="0.014616755777328167" fill-opacity="0.3" fill="#7fc8eb" cy="14.127161485742837" cx="-7.511545004574241"/><circle r="0.06452524926428632" fill-opacity="0.3" fill="#7fc8eb" cy="11.114533927343965" cx="-11.50943680541841"/><circle r="0.14882295468904752" fill-opacity="0.3" fill="#7fc8eb" cy="7.01393834862525" cx="-14.380704740786665"/><circle r="0.2657058554782177" fill-opacity="0.3" fill="#7fc8eb" cy="2.22676961536106" cx="-15.844289099865124"/><circle r="0.6305719571381474" fill-opacity="0.3" fill="#7fc8eb" cy="-13.432490208670611" cx="21.08478614532213"/><circle r="0.8963028914252015" fill-opacity="0.3" fill="#7fc8eb" cy="-6.259500101361053" cx="24.20369100945269"/><circle r="1.1975098651071696" fill-opacity="0.3" fill="#7fc8eb" cy="1.5262134883714034" cx="24.953369960546677"/><circle r="1.527746885736142" fill-opacity="0.3" fill="#7fc8eb" cy="9.162530668107415" cx="23.26043919955062"/><circle r="1.8799467021293916" fill-opacity="0.3" fill="#7fc8eb" cy="15.901955506944084" cx="19.29061458469301"/><circle r="2.2465720473741557" fill-opacity="0.3" fill="#7fc8eb" cy="21.08478614532213" cx="13.432490208670611"/><circle r="2.619776940423659" fill-opacity="0.3" fill="#7fc8eb" cy="24.20369100945269" cx="6.259500101361054"/><circle r="2.9915745943429464" fill-opacity="0.3" fill="#7fc8eb" cy="24.953369960546677" cx="-1.5262134883714018"/><circle r="3.354008337876956" fill-opacity="0.3" fill="#7fc8eb" cy="23.26043919955062" cx="-9.162530668107413"/><circle r="3.699321892526787" fill-opacity="0.3" fill="#7fc8eb" cy="19.29061458469301" cx="-15.901955506944082"/><circle r="4.02012536111234" fill-opacity="0.3" fill="#7fc8eb" cy="13.432490208670615" cx="-21.08478614532213"/><circle r="4.30955337557627" fill-opacity="0.3" fill="#7fc8eb" cy="6.259500101361056" cx="-24.203691009452687"/><circle r="4.5614120195804295" fill-opacity="0.3" fill="#7fc8eb" cy="-1.5262134883714003" cx="-24.953369960546677"/><circle r="4.770311381671753" fill-opacity="0.3" fill="#7fc8eb" cy="-9.162530668107411" cx="-23.26043919955062"/><circle r="4.931780902307889" fill-opacity="0.3" fill="#7fc8eb" cy="-15.901955506944116" cx="-19.290614584692985"/><circle r="5.0423650462538285" fill-opacity="0.3" fill="#7fc8eb" cy="-21.08478614532213" cx="-13.432490208670615"/><circle r="5.099697252908328" fill-opacity="0.3" fill="#7fc8eb" cy="-24.203691009452676" cx="-6.2595001013611"/><circle r="5.102550581983122" fill-opacity="0.3" fill="#7fc8eb" cy="-24.953369960546677" cx="1.5262134883713987"/><circle r="5.050863970689912" fill-opacity="0.3" fill="#7fc8eb" cy="-23.260439199550607" cx="9.162530668107452"/><circle r="4.945743540517128" fill-opacity="0.3" fill="#7fc8eb" cy="-19.290614584693014" cx="15.901955506944079"/><circle r="6.772188018222584" fill-opacity="0.3" fill="#7fc8eb" cy="34.77332974640647" cx="-9.317485623690716"/><circle r="6.483532041661153" fill-opacity="0.3" fill="#7fc8eb" cy="30.192140446035282" cx="-19.607005260540948"/><circle r="6.133409642426257" fill-opacity="0.3" fill="#7fc8eb" cy="22.655534077794172" cx="-27.97725461245093"/><circle r="5.729313629577809" fill-opacity="0.3" fill="#7fc8eb" cy="12.901246183630839" cx="-33.60889535389925"/><circle r="5.279891876753045" fill-opacity="0.3" fill="#7fc8eb" cy="1.8840944247460105" cx="-35.950663251164656"/><circle r="4.794762252984756" fill-opacity="0.3" fill="#7fc8eb" cy="-9.317485623690715" cx="-34.77332974640647"/><circle r="4.284306795092502" fill-opacity="0.3" fill="#7fc8eb" cy="-19.607005260540948" cx="-30.192140446035282"/><circle r="3.7594495264690555" fill-opacity="0.3" fill="#7fc8eb" cy="-27.977254612450974" cx="-22.655534077794126"/><circle r="3.2314226770605843" fill-opacity="0.3" fill="#7fc8eb" cy="-33.60889535389925" cx="-12.901246183630843"/><circle r="2.71152630755949" fill-opacity="0.3" fill="#7fc8eb" cy="-35.950663251164656" cx="-1.8840944247460767"/><circle r="2.2108864819826173" fill-opacity="0.3" fill="#7fc8eb" cy="-34.77332974640647" cx="9.317485623690713"/><circle r="1.7402171638725386" fill-opacity="0.3" fill="#7fc8eb" cy="-30.19214044603525" cx="19.607005260540998"/><circle r="1.3095909316722925" fill-opacity="0.3" fill="#7fc8eb" cy="-22.65553407779418" cx="27.977254612450928"/><circle r="0.9282234200888263" fill-opacity="0.3" fill="#7fc8eb" cy="-12.901246183630903" cx="33.60889535389923"/><circle r="0.604276100516695" fill-opacity="0.3" fill="#7fc8eb" cy="-1.884094424746015" cx="35.950663251164656"/><circle r="0.3446816211278978" fill-opacity="0.3" fill="#7fc8eb" cy="9.317485623690773" cx="34.77332974640645"/><circle r="0.15499544444444632" fill-opacity="0.3" fill="#7fc8eb" cy="19.607005260540944" cx="30.192140446035285"/><circle r="0.03927695743015919" fill-opacity="0.3" fill="#7fc8eb" cy="27.97725461245089" cx="22.655534077794226"/><circle r="0.000002598410020892935" fill-opacity="0.3" fill="#7fc8eb" cy="33.60889535389925" cx="12.901246183630846"/><circle r="0.038012859948151956" fill-opacity="0.3" fill="#7fc8eb" cy="35.95066325116466" cx="1.8840944247459532"/><circle r="0.2043866457136054" fill-opacity="0.3" fill="#7fc8eb" cy="-43.46353082573288" cx="-22.62568204851663"/><circle r="0.457034943925866" fill-opacity="0.3" fill="#7fc8eb" cy="-48.32799447532436" cx="-8.087332687173083"/><circle r="0.8034863546449312" fill-opacity="0.3" fill="#7fc8eb" cy="-48.46177730473392" cx="7.242661145350956"/><circle r="1.2363266299542552" fill-opacity="0.3" fill="#7fc8eb" cy="-43.85178371849925" cx="21.863692842380587"/><circle r="1.7462927534246697" fill-opacity="0.3" fill="#7fc8eb" cy="-34.94927200855488" cx="34.34455395069272"/><circle r="2.3224711736851673" fill-opacity="0.3" fill="#7fc8eb" cy="-22.625682048516556" cx="43.46353082573292"/><circle r="2.9525313603358465" fill-opacity="0.3" fill="#7fc8eb" cy="-8.087332687173172" cx="48.327994475324346"/><circle r="3.6229896839797973" fill-opacity="0.3" fill="#7fc8eb" cy="7.242661145350867" cx="48.46177730473393"/><circle r="4.319497973198482" fill-opacity="0.3" fill="#7fc8eb" cy="21.863692842380658" cx="43.85178371849921"/><circle r="5.02715057319469" fill-opacity="0.3" fill="#7fc8eb" cy="34.344553950692784" cx="34.949272008554814"/><circle r="5.730803334881968" fill-opacity="0.3" fill="#7fc8eb" cy="43.46353082573288" cx="22.625682048516634"/><circle r="6.4153977078809605" fill-opacity="0.3" fill="#7fc8eb" cy="48.32799447532433" cx="8.087332687173259"/><circle r="7.066283001657219" fill-opacity="0.3" fill="#7fc8eb" cy="48.46177730473392" cx="-7.242661145350951"/><circle r="7.669529918237141" fill-opacity="0.3" fill="#7fc8eb" cy="43.85178371849918" cx="-21.863692842380736"/><circle r="8.212228646732333" fill-opacity="0.3" fill="#7fc8eb" cy="34.94927200855488" cx="-34.34455395069271"/><circle r="8.682765140287836" fill-opacity="0.3" fill="#7fc8eb" cy="22.625682048516712" cx="-43.46353082573284"/><circle r="9.071069662978063" fill-opacity="0.3" fill="#7fc8eb" cy="8.087332687173177" cx="-48.327994475324346"/><circle r="9.368832287611893" fill-opacity="0.3" fill="#7fc8eb" cy="-7.2426611453510334" cx="-48.46177730473391"/><circle r="9.56968073267739" fill-opacity="0.3" fill="#7fc8eb" cy="-21.863692842380654" cx="-43.85178371849921"/><circle r="9.669316732618995" fill-opacity="0.3" fill="#7fc8eb" cy="-34.34455395069265" cx="-34.94927200855494"/><circle r="12.457011865881924" fill-opacity="0.3" fill="#7fc8eb" cy="21.88928917284273" cx="60.14032773029816"/><circle r="12.319143972257228" fill-opacity="0.3" fill="#7fc8eb" cy="39.40233442084216" cx="50.43268823083018"/><circle r="12.051138408414728" fill-opacity="0.3" fill="#7fc8eb" cy="53.05840464352263" cx="35.78834582212786"/><circle r="11.658730638641364" fill-opacity="0.3" fill="#7fc8eb" cy="61.52074854005235" cx="17.64079077228813"/><circle r="11.150318401839206" fill-opacity="0.3" fill="#7fc8eb" cy="63.96101292922213" cx="-2.233567788959986"/><circle r="10.536781995362574" fill-opacity="0.3" fill="#7fc8eb" cy="60.140327730298125" cx="-21.889289172842833"/><circle r="9.83125143075908" fill-opacity="0.3" fill="#7fc8eb" cy="50.43268823083025" cx="-39.40233442084207"/><circle r="9.048825444407985" fill-opacity="0.3" fill="#7fc8eb" cy="35.78834582212796" cx="-53.05840464352256"/><circle r="8.206248376380225" fill-opacity="0.3" fill="#7fc8eb" cy="17.640790772288025" cx="-61.52074854005239"/><circle r="7.321551832487924" fill-opacity="0.3" fill="#7fc8eb" cy="-2.233567788960096" cx="-63.96101292922213"/><circle r="6.413668798149416" fill-opacity="0.3" fill="#7fc8eb" cy="-21.889289172842723" cx="-60.14032773029817"/><circle r="5.502028462242417" fill-opacity="0.3" fill="#7fc8eb" cy="-39.402334420841974" cx="-50.43268823083032"/><circle r="4.60614042193406" fill-opacity="0.3" fill="#7fc8eb" cy="-53.05840464352262" cx="-35.788345822127866"/><circle r="3.745177166730198" fill-opacity="0.3" fill="#7fc8eb" cy="-61.520748540052416" cx="-17.640790772287918"/><circle r="2.937563776811187" fill-opacity="0.3" fill="#7fc8eb" cy="-63.96101292922213" cx="2.233567788959978"/><circle r="2.2005836163323456" fill-opacity="0.3" fill="#7fc8eb" cy="-60.1403277302982" cx="21.889289172842613"/><circle r="1.550008460065799" fill-opacity="0.3" fill="#7fc8eb" cy="-50.43268823083026" cx="39.40233442084206"/><circle r="0.9997609688743884" fill-opacity="0.3" fill="#7fc8eb" cy="-35.78834582212777" cx="53.058404643522685"/><circle r="0.5616167372250848" fill-opacity="0.3" fill="#7fc8eb" cy="-17.64079077228803" cx="61.52074854005238"/><circle r="0.24495228908674752" fill-opacity="0.3" fill="#7fc8eb" cy="2.2335677889598604" cx="63.961012929222136"/><circle r="0.07072606726722527" fill-opacity="0.3" fill="#7fc8eb" cy="30.997358021572502" cx="-74.83424213341414"/><circle r="0.0005317752987429533" fill-opacity="0.3" fill="#7fc8eb" cy="6.355186753955545" cx="-80.75030403238335"/><circle r="0.0973069977491931" fill-opacity="0.3" fill="#7fc8eb" cy="-18.909074472328097" cx="-78.76196355221187"/><circle r="0.3589806924197944" fill-opacity="0.3" fill="#7fc8eb" cy="-42.32238374199152" cx="-69.06385331268167"/><circle r="0.7799529004548587" fill-opacity="0.3" fill="#7fc8eb" cy="-61.59288321360234" cx="-52.60529191474507"/><circle r="1.3512145884956912" fill-opacity="0.3" fill="#7fc8eb" cy="-74.8342421334142" cx="-30.99735802157237"/><circle r="2.060540446876015" fill-opacity="0.3" fill="#7fc8eb" cy="-80.75030403238334" cx="-6.355186753955693"/><circle r="2.892750517873284" fill-opacity="0.3" fill="#7fc8eb" cy="-78.7619635522119" cx="18.90907447232795"/><circle r="3.8300350550292594" fill-opacity="0.3" fill="#7fc8eb" cy="-69.0638533126816" cx="42.322383741991636"/><circle r="4.852335661374591" fill-opacity="0.3" fill="#7fc8eb" cy="-52.60529191474497" cx="61.592883213602434"/><circle r="5.937774549992645" fill-opacity="0.3" fill="#7fc8eb" cy="-30.99735802157251" cx="74.83424213341412"/><circle r="7.0631227405143004" fill-opacity="0.3" fill="#7fc8eb" cy="-6.3551867539558415" cx="80.75030403238334"/><circle r="8.204297171884539" fill-opacity="0.3" fill="#7fc8eb" cy="18.909074472328086" cx="78.76196355221187"/><circle r="9.33687609291865" fill-opacity="0.3" fill="#7fc8eb" cy="42.32238374199176" cx="69.06385331268153"/><circle r="10.436621701010575" fill-opacity="0.3" fill="#7fc8eb" cy="61.592883213602335" cx="52.605291914745074"/><circle r="11.479998844242251" fill-opacity="0.3" fill="#7fc8eb" cy="74.83424213341408" cx="30.997358021572644"/><circle r="12.444678686387265" fill-opacity="0.3" fill="#7fc8eb" cy="80.75030403238334" cx="6.355186753955704"/><circle r="13.310016556105149" fill-opacity="0.3" fill="#7fc8eb" cy="78.76196355221184" cx="-18.90907447232822"/><circle r="14.057493754094471" fill-opacity="0.3" fill="#7fc8eb" cy="69.06385331268162" cx="-42.32238374199163"/><circle r="14.671113863292495" fill-opacity="0.3" fill="#7fc8eb" cy="52.605291914745195" cx="-61.592883213602235"/><circle r="18.492704053500336" fill-opacity="0.3" fill="#7fc8eb" cy="-90.63077870366506" cx="42.26182617406982"/><circle r="18.87098891614072" fill-opacity="0.3" fill="#7fc8eb" cy="-73.13537016191727" cx="68.19983600624961"/><circle r="19.049413046222707" fill-opacity="0.3" fill="#7fc8eb" cy="-48.480962024633826" cx="87.46197071393951"/><circle r="19.02415807068218" fill-opacity="0.3" fill="#7fc8eb" cy="-19.08089953765445" cx="98.1627183447664"/><circle r="18.795764459680292" fill-opacity="0.3" fill="#7fc8eb" cy="12.186934340514602" cx="99.25461516413222"/><circle r="18.36911996024916" fill-opacity="0.3" fill="#7fc8eb" cy="42.26182617406965" cx="90.63077870366514"/><circle r="17.753354995856963" fill-opacity="0.3" fill="#7fc8eb" cy="68.19983600624974" cx="73.13537016191715"/><circle r="16.961647270398277" fill-opacity="0.3" fill="#7fc8eb" cy="87.46197071393959" cx="48.480962024633676"/><circle r="16.01093975819033" fill-opacity="0.3" fill="#7fc8eb" cy="98.16271834476636" cx="19.08089953765463"/><circle r="14.921578115141914" fill-opacity="0.3" fill="#7fc8eb" cy="99.25461516413225" cx="-12.18693434051442"/><circle r="13.716875270692611" fill-opacity="0.3" fill="#7fc8eb" cy="90.63077870366506" cx="-42.2618261740698"/><circle r="12.42261251849035" fill-opacity="0.3" fill="#7fc8eb" cy="73.13537016191704" cx="-68.19983600624987"/><circle r="11.066487782737651" fill-opacity="0.3" fill="#7fc8eb" cy="48.48096202463384" cx="-87.46197071393951"/><circle r="9.67752286760535" fill-opacity="0.3" fill="#7fc8eb" cy="19.080899537654812" cx="-98.16271834476633"/><circle r="8.285442374897777" fill-opacity="0.3" fill="#7fc8eb" cy="-12.18693434051459" cx="-99.25461516413222"/><circle r="6.920037581467475" fill-opacity="0.3" fill="#7fc8eb" cy="-42.26182617406996" cx="-90.63077870366499"/><circle r="5.610528889748074" fill-opacity="0.3" fill="#7fc8eb" cy="-68.19983600624974" cx="-73.13537016191715"/><circle r="4.38494049530886" fill-opacity="0.3" fill="#7fc8eb" cy="-87.46197071393942" cx="-48.480962024634"/><circle r="3.269500653884607" fill-opacity="0.3" fill="#7fc8eb" cy="-98.16271834476636" cx="-19.080899537654645"/><circle r="2.288080382490712" fill-opacity="0.3" fill="#7fc8eb" cy="-99.2546151641322" cx="12.18693434051476"/><circle r="1.7518591301631896" fill-opacity="0.3" fill="#7fc8eb" cy="115.39975104053546" cx="36.38540174001703"/><circle r="0.9683972149104485" fill-opacity="0.3" fill="#7fc8eb" cy="120.99539269076473" cx="-1.0559107953034843"/><circle r="0.4086960175381511" fill-opacity="0.3" fill="#7fc8eb" cy="114.74716227995012" cx="-38.39386342501617"/><circle r="0.08473344694808543" fill-opacity="0.3" fill="#7fc8eb" cy="97.26668013468341" cx="-71.97355719691214"/><circle r="0.0034424776922835853" fill-opacity="0.3" fill="#7fc8eb" cy="70.2650576410237" cx="-98.50797772111464"/><circle r="0.1665627805609099" fill-opacity="0.3" fill="#7fc8eb" cy="36.385401740016825" cx="-115.39975104053552"/><circle r="0.5706034926846822" fill-opacity="0.3" fill="#7fc8eb" cy="-1.055910795303262" cx="-120.99539269076473"/><circle r="1.2069179238918428" fill-opacity="0.3" fill="#7fc8eb" cy="-38.39386342501596" cx="-114.74716227995019"/><circle r="2.061888600563096" fill-opacity="0.3" fill="#7fc8eb" cy="-71.97355719691231" cx="-97.2666801346833"/><circle r="3.117218686945813" fill-opacity="0.3" fill="#7fc8eb" cy="-98.50797772111476" cx="-70.26505764102352"/><circle r="4.350323547353301" fill-opacity="0.3" fill="#7fc8eb" cy="-115.39975104053546" cx="-36.38540174001704"/><circle r="5.734814069606295" fill-opacity="0.3" fill="#7fc8eb" cy="-120.99539269076473" cx="1.0559107953030396"/><circle r="7.241061406332629" fill-opacity="0.3" fill="#7fc8eb" cy="-114.74716227995012" cx="38.39386342501616"/><circle r="8.836831048355652" fill-opacity="0.3" fill="#7fc8eb" cy="-97.26668013468317" cx="71.97355719691247"/><circle r="10.487972660656961" fill-opacity="0.3" fill="#7fc8eb" cy="-70.26505764102372" cx="98.50797772111463"/><circle r="12.159150918050614" fill-opacity="0.3" fill="#7fc8eb" cy="-36.38540174001725" cx="115.39975104053539"/><circle r="13.814601700288659" fill-opacity="0.3" fill="#7fc8eb" cy="1.0559107953032472" cx="120.99539269076473"/><circle r="15.41889746361356" fill-opacity="0.3" fill="#7fc8eb" cy="38.39386342501635" cx="114.74716227995005"/><circle r="16.937705409391107" fill-opacity="0.3" fill="#7fc8eb" cy="71.97355719691194" cx="97.26668013468355"/><circle r="18.33852222460494" fill-opacity="0.3" fill="#7fc8eb" cy="98.5079777211145" cx="70.26505764102389"/><circle r="23.113359012652136" fill-opacity="0.3" fill="#7fc8eb" cy="-71.99999999999979" cx="-124.70765814495928"/><circle r="24.385232168915458" fill-opacity="0.3" fill="#7fc8eb" cy="-107.01285486874477" cx="-96.35480731567557"/><circle r="25.423684753865096" fill-opacity="0.3" fill="#7fc8eb" cy="-131.55054590053442" cx="-58.570076602915464"/><circle r="26.206493319490267" fill-opacity="0.3" fill="#7fc8eb" cy="-143.21115293303131" cx="-15.052098710542605"/><circle r="26.716905338316252" fill-opacity="0.3" fill="#7fc8eb" cy="-140.85325450566808" cx="29.939283477757098"/><circle r="26.943997716569825" fill-opacity="0.3" fill="#7fc8eb" cy="-124.70765814495915" cx="72"/><circle r="26.882910554304743" fill-opacity="0.3" fill="#7fc8eb" cy="-96.35480731567577" cx="107.0128548687446"/><circle r="26.534951149893974" fill-opacity="0.3" fill="#7fc8eb" cy="-58.570076602915705" cx="131.5505459005343"/><circle r="25.907566023136194" fill-opacity="0.3" fill="#7fc8eb" cy="-15.05209871054236" cx="143.21115293303134"/><circle r="25.014181555697068" fill-opacity="0.3" fill="#7fc8eb" cy="29.939283477757336" cx="140.85325450566802"/><circle r="23.873916659266474" fill-opacity="0.3" fill="#7fc8eb" cy="71.99999999999977" cx="124.7076581449593"/><circle r="22.51117362048859" fill-opacity="0.3" fill="#7fc8eb" cy="107.01285486874443" cx="96.35480731567597"/><circle r="20.955115878805206" fill-opacity="0.3" fill="#7fc8eb" cy="131.55054590053442" cx="58.57007660291548"/><circle r="19.2390439130492" fill-opacity="0.3" fill="#7fc8eb" cy="143.21115293303134" cx="15.052098710542113"/><circle r="17.399682593153457" fill-opacity="0.3" fill="#7fc8eb" cy="140.85325450566796" cx="-29.93928347775758"/><circle r="15.476395248034548" fill-opacity="0.3" fill="#7fc8eb" cy="124.70765814495942" cx="-71.99999999999955"/><circle r="13.510341269025025" fill-opacity="0.3" fill="#7fc8eb" cy="96.3548073156758" cx="-107.01285486874458"/><circle r="11.543595276595811" fill-opacity="0.3" fill="#7fc8eb" cy="58.57007660291524" cx="-131.55054590053453"/><circle r="9.61824670068008" fill-opacity="0.3" fill="#7fc8eb" cy="15.052098710542886" cx="-143.2111529330313"/><circle r="7.775499044066144" fill-opacity="0.3" fill="#7fc8eb" cy="-29.93928347775682" cx="-140.85325450566813"/><circle r="7.0493155425324945" fill-opacity="0.3" fill="#7fc8eb" cy="-36.578294755539986" cx="164.99402520326862"/><circle r="5.230924243544095" fill-opacity="0.3" fill="#7fc8eb" cy="16.19793217591754" cx="168.22195752405324"/><circle r="3.6364020122570477" fill-opacity="0.3" fill="#7fc8eb" cy="67.38859264836604" cx="154.9831525710862"/><circle r="2.2998724884239543" fill-opacity="0.3" fill="#7fc8eb" cy="111.98278814845894" cx="126.57351681334197"/><circle r="1.2499381280629238" fill-opacity="0.3" fill="#7fc8eb" cy="145.6153281146175" cx="85.77398334035954"/><circle r="0.5090680953999485" fill-opacity="0.3" fill="#7fc8eb" cy="164.99402520326868" cx="36.5782947555397"/><circle r="0.09311741057967018" fill-opacity="0.3" fill="#7fc8eb" cy="168.22195752405324" cx="-16.197932175917828"/><circle r="0.01098764364305366" fill-opacity="0.3" fill="#7fc8eb" cy="154.98315257108635" cx="-67.38859264836576"/><circle r="0.264436416105138" fill-opacity="0.3" fill="#7fc8eb" cy="126.57351681334178" cx="-111.98278814845916"/><circle r="0.8480397869022295" fill-opacity="0.3" fill="#7fc8eb" cy="85.7739833403593" cx="-145.61532811461768"/><circle r="1.7493083276696646" fill-opacity="0.3" fill="#7fc8eb" cy="36.57829475554059" cx="-164.99402520326848"/><circle r="2.9489544032763715" fill-opacity="0.3" fill="#7fc8eb" cy="-16.19793217591692" cx="-168.2219575240533"/><circle r="4.421304937667563" fill-opacity="0.3" fill="#7fc8eb" cy="-67.38859264836603" cx="-154.98315257108624"/><circle r="6.134850831603794" fill-opacity="0.3" fill="#7fc8eb" cy="-111.98278814845938" cx="-126.5735168133416"/><circle r="8.052921274457903" fill-opacity="0.3" fill="#7fc8eb" cy="-145.61532811461782" cx="-85.77398334035905"/><circle r="10.134468519432811" fill-opacity="0.3" fill="#7fc8eb" cy="-164.99402520326854" cx="-36.57829475554031"/><circle r="12.334946327584998" fill-opacity="0.3" fill="#7fc8eb" cy="-168.2219575240533" cx="16.19793217591721"/><circle r="14.607263281475586" fill-opacity="0.3" fill="#7fc8eb" cy="-154.9831525710861" cx="67.38859264836628"/><circle r="16.90279056702035" fill-opacity="0.3" fill="#7fc8eb" cy="-126.5735168133422" cx="111.9827881484587"/><circle r="19.17240265646108" fill-opacity="0.3" fill="#7fc8eb" cy="-85.77398334035982" cx="145.61532811461737"/><circle r="24.598305602682093" fill-opacity="0.3" fill="#7fc8eb" cy="160.5538006806422" cx="-112.42098152480528"/><circle r="26.985507042336" fill-opacity="0.3" fill="#7fc8eb" cy="117.95574453780094" cx="-156.53255996926978"/><circle r="29.18179282305172" fill-opacity="0.3" fill="#7fc8eb" cy="63.81135827360177" cx="-185.32164081746643"/><circle r="31.140161239048986" fill-opacity="0.3" fill="#7fc8eb" cy="3.42067166170762" cx="-195.9701482506527"/><circle r="32.818702145069715" fill-opacity="0.3" fill="#7fc8eb" cy="-57.30485412565668" cx="-187.43573216875487"/><circle r="34.18149385619583" fill-opacity="0.3" fill="#7fc8eb" cy="-112.42098152480557" cx="-160.553800680642"/><circle r="35.19937189137094" fill-opacity="0.3" fill="#7fc8eb" cy="-156.53255996926916" cx="-117.95574453780179"/><circle r="35.850553109097916" fill-opacity="0.3" fill="#7fc8eb" cy="-185.3216408174661" cx="-63.81135827360277"/><circle r="36.12110187847021" fill-opacity="0.3" fill="#7fc8eb" cy="-195.9701482506527" cx="-3.420671661707283"/><circle r="36.00522830922454" fill-opacity="0.3" fill="#7fc8eb" cy="-187.43573216875478" cx="57.304854125657"/><circle r="35.505412158529666" fill-opacity="0.3" fill="#7fc8eb" cy="-160.5538006806418" cx="112.42098152480582"/><circle r="34.63234976283937" fill-opacity="0.3" fill="#7fc8eb" cy="-117.95574453780152" cx="156.53255996926936"/><circle r="33.40472513049644" fill-opacity="0.3" fill="#7fc8eb" cy="-63.81135827360245" cx="185.32164081746618"/><circle r="31.84881009383007" fill-opacity="0.3" fill="#7fc8eb" cy="-3.4206716617069475" cx="195.9701482506527"/><circle r="29.997902077708474" fill-opacity="0.3" fill="#7fc8eb" cy="57.30485412565599" cx="187.43573216875507"/><circle r="27.891611516604105" fill-opacity="0.3" fill="#7fc8eb" cy="112.42098152480496" cx="160.55380068064244"/><circle r="25.575014169833196" fill-opacity="0.3" fill="#7fc8eb" cy="156.53255996926956" cx="117.95574453780124"/><circle r="23.097686475881165" fill-opacity="0.3" fill="#7fc8eb" cy="185.3216408174663" cx="63.811358273602124"/><circle r="20.51264458975607" fill-opacity="0.3" fill="#7fc8eb" cy="195.9701482506527" cx="3.4206716617066113"/><circle r="17.875209808544163" fill-opacity="0.3" fill="#7fc8eb" cy="187.43573216875498" cx="-57.304854125656306"/><circle r="17.376691298522534" fill-opacity="0.3" fill="#7fc8eb" cy="-223.07509380910733" cx="-29.36839324951169"/><circle r="14.44332381628143" fill-opacity="0.3" fill="#7fc8eb" cy="-221.2323542018897" cx="41.002993235733484"/><circle r="11.641598273418328" fill-opacity="0.3" fill="#7fc8eb" cy="-197.73385034894187" cx="107.36072105841252"/><circle r="9.03147311468514" fill-opacity="0.3" fill="#7fc8eb" cy="-154.879779531095" cx="163.2092334777644"/><circle r="6.668806432793725" fill-opacity="0.3" fill="#7fc8eb" cy="-96.8649967818665" cx="203.0816889787186"/><circle r="4.604160574964038" fill-opacity="0.3" fill="#7fc8eb" cy="-29.368393249511303" cx="223.0750938091074"/><circle r="2.8817200812965598" fill-opacity="0.3" fill="#7fc8eb" cy="41.0029932357323" cx="221.23235420188993"/><circle r="1.5383461116722998" fill-opacity="0.3" fill="#7fc8eb" cy="107.36072105841146" cx="197.73385034894247"/><circle r="0.6027875969578821" fill-opacity="0.3" fill="#7fc8eb" cy="163.20923347776466" cx="154.87977953109473"/><circle r="0.09506599630717112" fill-opacity="0.3" fill="#7fc8eb" cy="203.08168897871877" cx="96.86499678186614"/><circle r="0.0260468270866274" fill-opacity="0.3" fill="#7fc8eb" cy="223.07509380910744" cx="29.368393249510923"/><circle r="0.3972071369161216" fill-opacity="0.3" fill="#7fc8eb" cy="221.23235420188988" cx="-41.002993235732674"/><circle r="1.2006038940494321" fill-opacity="0.3" fill="#7fc8eb" cy="197.73385034894227" cx="-107.3607210584118"/><circle r="2.419043972557716" fill-opacity="0.3" fill="#7fc8eb" cy="154.87977953109444" cx="-163.2092334777649"/><circle r="4.026452094540544" fill-opacity="0.3" fill="#7fc8eb" cy="96.86499678186725" cx="-203.08168897871823"/><circle r="5.9884288552020575" fill-opacity="0.3" fill="#7fc8eb" cy="29.368393249512128" cx="-223.07509380910727"/><circle r="8.262986888753149" fill-opacity="0.3" fill="#7fc8eb" cy="-41.00299323573306" cx="-221.23235420188982"/><circle r="10.801449420790512" fill-opacity="0.3" fill="#7fc8eb" cy="-107.36072105841212" cx="-197.7338503489421"/><circle r="13.549491977644722" fill-opacity="0.3" fill="#7fc8eb" cy="-163.20923347776517" cx="-154.87977953109416"/><circle r="16.448304959552996" fill-opacity="0.3" fill="#7fc8eb" cy="-203.0816889787184" cx="-96.86499678186689"/><circle r="21.971421850579986" fill-opacity="0.3" fill="#7fc8eb" cy="164.55362807975362" cx="196.10737743845874"/><circle r="25.376754021010118" fill-opacity="0.3" fill="#7fc8eb" cy="217.100312616045" cx="135.65933164370057"/><circle r="28.737244618290017" fill-opacity="0.3" fill="#7fc8eb" cy="248.39570592665518" cx="61.932005273514626"/><circle r="31.980977322732347" fill-opacity="0.3" fill="#7fc8eb" cy="255.37639686651508" cx="-17.85765727849503"/><circle r="35.038534496822614" fill-opacity="0.3" fill="#7fc8eb" cy="237.3590667690978" cx="-95.89928791447292"/><circle r="37.84448276027635" fill-opacity="0.3" fill="#7fc8eb" cy="196.10737743845849" cx="-164.55362807975396"/><circle r="40.33877329983279" fill-opacity="0.3" fill="#7fc8eb" cy="135.65933164370176" cx="-217.10031261604425"/><circle r="42.4680269463966" fill-opacity="0.3" fill="#7fc8eb" cy="61.93200527351597" cx="-248.39570592665484"/><circle r="44.18667651818" fill-opacity="0.3" fill="#7fc8eb" cy="-17.857657278495466" cx="-255.37639686651505"/><circle r="45.457941983084545" fill-opacity="0.3" fill="#7fc8eb" cy="-95.89928791447333" cx="-237.35906676909764"/><circle r="46.25461757131711" fill-opacity="0.3" fill="#7fc8eb" cy="-164.5536280797543" cx="-196.1073774384582"/><circle r="46.559653993605245" fill-opacity="0.3" fill="#7fc8eb" cy="-217.10031261604448" cx="-135.6593316437014"/><circle r="46.36652330522583" fill-opacity="0.3" fill="#7fc8eb" cy="-248.39570592665495" cx="-61.93200527351554"/><circle r="45.67935860755943" fill-opacity="0.3" fill="#7fc8eb" cy="-255.37639686651502" cx="17.857657278495907"/><circle r="44.51286559748114" fill-opacity="0.3" fill="#7fc8eb" cy="-237.35906676909815" cx="95.89928791447205"/><circle r="42.892007857478994" fill-opacity="0.3" fill="#7fc8eb" cy="-196.10737743845908" cx="164.55362807975322"/><circle r="40.85147262146241" fill-opacity="0.3" fill="#7fc8eb" cy="-135.659331643701" cx="217.1003126160447"/><circle r="38.434928449160495" fill-opacity="0.3" fill="#7fc8eb" cy="-61.93200527351512" cx="248.39570592665504"/><circle r="35.69409069528199" fill-opacity="0.3" fill="#7fc8eb" cy="17.857657278496344" cx="255.376396866515"/><circle r="32.68761477290218" fill-opacity="0.3" fill="#7fc8eb" cy="95.89928791447247" cx="237.35906676909798"/><circle r="33.07882837947986" fill-opacity="0.3" fill="#7fc8eb" cy="12.606002948583317" cx="-288.72493603715685"/><circle r="29.33059568865567" fill-opacity="0.3" fill="#7fc8eb" cy="-77.23189068661556" cx="-278.4892009772922"/><circle r="25.5137330602432" fill-opacity="0.3" fill="#7fc8eb" cy="-159.50978875518464" cx="-240.99300257741172"/><circle r="21.70992342268423" fill-opacity="0.3" fill="#7fc8eb" cy="-226.17375733034652" cx="-179.9067299882734"/><circle r="18.00057036334398" fill-opacity="0.3" fill="#7fc8eb" cy="-270.6982626927865" cx="-101.20993318398725"/><circle r="14.465056047631256" fill-opacity="0.3" fill="#7fc8eb" cy="-288.72493603715685" cx="-12.606002948582823"/><circle r="11.17904239764569" fill-opacity="0.3" fill="#7fc8eb" cy="-278.4892009772926" cx="77.23189068661407"/><circle r="8.21285188604664" fill-opacity="0.3" fill="#7fc8eb" cy="-240.99300257741257" cx="159.50978875518337"/><circle r="5.629962597033578" fill-opacity="0.3" fill="#7fc8eb" cy="-179.90672998827304" cx="226.17375733034686"/><circle r="3.485649760948169" fill-opacity="0.3" fill="#7fc8eb" cy="-101.20993318398678" cx="270.6982626927866"/><circle r="1.8258028343936028" fill-opacity="0.3" fill="#7fc8eb" cy="-12.60600294858233" cx="288.72493603715685"/><circle r="0.6859434409980749" fill-opacity="0.3" fill="#7fc8eb" cy="77.23189068661453" cx="278.4892009772925"/><circle r="0.09046518942100956" fill-opacity="0.3" fill="#7fc8eb" cy="159.5097887551838" cx="240.99300257741228"/><circle r="0.05211163691024653" fill-opacity="0.3" fill="#7fc8eb" cy="226.17375733034714" cx="179.90672998827262"/><circle r="0.571703570271658" fill-opacity="0.3" fill="#7fc8eb" cy="270.6982626927861" cx="101.20993318398824"/><circle r="1.6381214405867546" fill-opacity="0.3" fill="#7fc8eb" cy="288.7249360371568" cx="12.606002948583885"/><circle r="3.228543327584752" fill-opacity="0.3" fill="#7fc8eb" cy="278.4892009772924" cx="-77.231890686615"/><circle r="5.308933341102574" fill-opacity="0.3" fill="#7fc8eb" cy="240.99300257741203" cx="-159.50978875518416"/><circle r="7.834770007577067" fill-opacity="0.3" fill="#7fc8eb" cy="179.90672998827225" cx="-226.17375733034746"/><circle r="10.751999053703019" fill-opacity="0.3" fill="#7fc8eb" cy="101.20993318398777" cx="-270.6982626927863"/><circle r="15.604027217767364" fill-opacity="0.3" fill="#7fc8eb" cy="-229.10259710444282" cx="229.10259710444"/><circle r="19.51187330670425" fill-opacity="0.3" fill="#7fc8eb" cy="-147.09292191561443" cx="288.6861138370306"/><circle r="23.625349469071487" fill-opacity="0.3" fill="#7fc8eb" cy="-50.68476667303563" cx="320.0110223528245"/><circle r="27.856425086078364" fill-opacity="0.3" fill="#7fc8eb" cy="50.684766673032264" cx="320.011022352825"/><circle r="32.11455284688275" fill-opacity="0.3" fill="#7fc8eb" cy="147.09292191561138" cx="288.6861138370321"/><circle r="36.308606510106884" fill-opacity="0.3" fill="#7fc8eb" cy="229.10259710444038" cx="229.10259710444242"/><circle r="40.34883105478038" fill-opacity="0.3" fill="#7fc8eb" cy="288.6861138370298" cx="147.09292191561596"/><circle r="44.14876348642267" fill-opacity="0.3" fill="#7fc8eb" cy="320.0110223528242" cx="50.68476667303736"/><circle r="47.62708319197664" fill-opacity="0.3" fill="#7fc8eb" cy="320.0110223528249" cx="-50.68476667303281"/><circle r="50.70935224499134" fill-opacity="0.3" fill="#7fc8eb" cy="288.6861138370318" cx="-147.09292191561187"/><circle r="53.32960841758305" fill-opacity="0.3" fill="#7fc8eb" cy="229.10259710444203" cx="-229.10259710444078"/><circle r="55.43177680785401" fill-opacity="0.3" fill="#7fc8eb" cy="147.09292191561548" cx="-288.68611383703"/><circle r="56.970869873177634" fill-opacity="0.3" fill="#7fc8eb" cy="50.684766673036805" cx="-320.01102235282434"/><circle r="57.91395018798759" fill-opacity="0.3" fill="#7fc8eb" cy="-50.684766673033366" cx="-320.01102235282485"/><circle r="58.240835322532206" fill-opacity="0.3" fill="#7fc8eb" cy="-147.09292191561033" cx="-288.6861138370326"/><circle r="57.944529757807196" fill-opacity="0.3" fill="#7fc8eb" cy="-229.10259710443955" cx="-229.10259710444325"/><circle r="57.03137459345296" fill-opacity="0.3" fill="#7fc8eb" cy="-288.6861138370303" cx="-147.092921915615"/><circle r="55.520911844786234" fill-opacity="0.3" fill="#7fc8eb" cy="-320.0110223528244" cx="-50.68476667303626"/><circle r="53.445466233083394" fill-opacity="0.3" fill="#7fc8eb" cy="-320.0110223528248" cx="50.68476667303391"/><circle r="50.84945341902971" fill-opacity="0.3" fill="#7fc8eb" cy="-288.6861138370324" cx="147.09292191561082"/><circle r="52.95864201530765" fill-opacity="0.3" fill="#7fc8eb" cy="360.6564079910507" cx="-15.746598838885959"/><circle r="49.123721338853514" fill-opacity="0.3" fill="#7fc8eb" cy="338.13866031867144" cx="-126.42486463466803"/><circle r="44.9281443506942" fill-opacity="0.3" fill="#7fc8eb" cy="282.52154462372243" cx="-224.72778382617938"/><circle r="40.46169867177973" fill-opacity="0.3" fill="#7fc8eb" cy="199.24925169765385" cx="-301.0327817662472"/><circle r="35.81996865981375" fill-opacity="0.3" fill="#7fc8eb" cy="96.47305376425108" cx="-347.8705936083128"/><circle r="31.10228985220651" fill-opacity="0.3" fill="#7fc8eb" cy="-15.746598838886577" cx="-360.6564079910506"/><circle r="26.409623131748322" fill-opacity="0.3" fill="#7fc8eb" cy="-126.42486463466861" cx="-338.1386603186712"/><circle r="21.842394109011565" fill-opacity="0.3" fill="#7fc8eb" cy="-224.7277838261799" cx="-282.5215446237221"/><circle r="17.49834395986806" fill-opacity="0.3" fill="#7fc8eb" cy="-301.0327817662475" cx="-199.2492516976533"/><circle r="13.47043771136369" fill-opacity="0.3" fill="#7fc8eb" cy="-347.87059360831296" cx="-96.47305376425048"/><circle r="9.844874739765704" fill-opacity="0.3" fill="#7fc8eb" cy="-360.6564079910507" cx="15.746598838884633"/><circle r="6.699244057203518" fill-opacity="0.3" fill="#7fc8eb" cy="-338.1386603186719" cx="126.42486463466678"/><circle r="4.100863864765948" fill-opacity="0.3" fill="#7fc8eb" cy="-282.52154462372164" cx="224.72778382618037"/><circle r="2.1053409065217936" fill-opacity="0.3" fill="#7fc8eb" cy="-199.2492516976528" cx="301.03278176624787"/><circle r="0.7553804550656694" fill-opacity="0.3" fill="#7fc8eb" cy="-96.47305376424988" cx="347.87059360831313"/><circle r="0.07987239554432991" fill-opacity="0.3" fill="#7fc8eb" cy="15.746598838885252" cx="360.6564079910507"/><circle r="0.09327296646034146" fill-opacity="0.3" fill="#7fc8eb" cy="126.42486463466736" cx="338.13866031867167"/><circle r="0.795295388334904" fill-opacity="0.3" fill="#7fc8eb" cy="224.72778382618085" cx="282.52154462372124"/><circle r="2.1709160009441817" fill-opacity="0.3" fill="#7fc8eb" cy="301.0327817662468" cx="199.24925169765444"/><circle r="4.190695777788477" fill-opacity="0.3" fill="#7fc8eb" cy="347.8705936083126" cx="96.47305376425176"/><circle r="7.508655757136033" fill-opacity="0.3" fill="#7fc8eb" cy="-306.4177772475905" cx="-257.1150438746166"/><circle r="10.998261273429135" fill-opacity="0.3" fill="#7fc8eb" cy="-370.8735418267148" cx="-149.84263736636524"/><circle r="15.01381062137665" fill-opacity="0.3" fill="#7fc8eb" cy="-399.0256201039295" cx="-27.902589497652684"/><circle r="19.469368869078764" fill-opacity="0.3" fill="#7fc8eb" cy="-388.11829051039905" cx="96.76875823986528"/><circle r="24.269584655758983" fill-opacity="0.3" fill="#7fc8eb" cy="-339.219238462571" cx="211.96770569328098"/><circle r="29.311730762551576" fill-opacity="0.3" fill="#7fc8eb" cy="-257.1150438746161" cx="306.41777724759095"/><circle r="34.487902530648995" fill-opacity="0.3" fill="#7fc8eb" cy="-149.84263736636458" cx="370.87354182671504"/><circle r="39.68732707946826" fill-opacity="0.3" fill="#7fc8eb" cy="-27.902589497652002" cx="399.02562010392955"/><circle r="44.798733906320045" fill-opacity="0.3" fill="#7fc8eb" cy="96.76875823986593" cx="388.1182905103989"/><circle r="49.71273613545786" fill-opacity="0.3" fill="#7fc8eb" cy="211.96770569328157" cx="339.2192384625707"/><circle r="54.3241714564914" fill-opacity="0.3" fill="#7fc8eb" cy="306.4177772475895" cx="257.11504387461775"/><circle r="58.53435265481178" fill-opacity="0.3" fill="#7fc8eb" cy="370.87354182671424" cx="149.84263736636657"/><circle r="62.25317957145856" fill-opacity="0.3" fill="#7fc8eb" cy="399.0256201039296" cx="27.90258949765132"/><circle r="65.40106729534291" fill-opacity="0.3" fill="#7fc8eb" cy="388.1182905103987" cx="-96.7687582398666"/><circle r="67.91064932346866" fill-opacity="0.3" fill="#7fc8eb" cy="339.2192384625703" cx="-211.96770569328214"/><circle r="69.72821924059892" fill-opacity="0.3" fill="#7fc8eb" cy="257.1150438746172" cx="-306.41777724759"/><circle r="70.81488006564418" fill-opacity="0.3" fill="#7fc8eb" cy="149.84263736636595" cx="-370.8735418267145"/><circle r="71.14737666813365" fill-opacity="0.3" fill="#7fc8eb" cy="27.902589497650638" cx="-399.02562010392967"/><circle r="70.71859344060839" fill-opacity="0.3" fill="#7fc8eb" cy="-96.76875823986451" cx="-388.1182905103992"/><circle r="69.53770657647668" fill-opacity="0.3" fill="#7fc8eb" cy="-211.96770569328032" cx="-339.2192384625714"/></g></svg>