<svg xmlns="http://www.w3.org/2000/svg" version="1.1" style="background: none repeat scroll 0% 0% rgb(152, 155, 35);" height="500" width="500"><g transform="translate(250,250)rotate(10.88)"><circle r="0.12" fill-opacity="0.3" fill="#b895e" cy="0.6755902076156604" cx="-0.737277336810124"/><circle r="0.12261099393872302" fill-opacity="0.3" fill="#b895e" cy="0.4146932426562392" cx="-0.9099612708765431"/><circle r="0.12522075162686372" fill-opacity="0.3" fill="#b895e" cy="0.11320321376790689" cx="-0.9935718556765875"/><circle r="0.12782803739917842" fill-opacity="0.3" fill="#b895e" cy="-0.199367934417197" cx="-0.9799247046208297"/><circle r="0.13043161676082338" fill-opacity="0.3" fill="#b895e" cy="-0.49242356010346694" cx="-0.8703556959398998"/><circle r="0.13303025697186227" fill-opacity="0.3" fill="#b895e" cy="-0.7372773368101239" cx="-0.6755902076156604"/><circle r="0.13562272763094238" fill-opacity="0.3" fill="#b895e" cy="-0.9099612708765431" cx="-0.41469324265623925"/><circle r="0.13820780125786375" fill-opacity="0.3" fill="#b895e" cy="-0.9935718556765875" cx="-0.11320321376790694"/><circle r="0.14078425387476526" fill-opacity="0.3" fill="#b895e" cy="-0.9799247046208297" cx="0.19936793441719694"/><circle r="0.14335086558565227" fill-opacity="0.3" fill="#b895e" cy="-0.8703556959398998" cx="0.4924235601034669"/><circle r="0.1459064211539916" fill-opacity="0.3" fill="#b895e" cy="-0.6755902076156605" cx="0.7372773368101239"/><circle r="0.14844971057810055" fill-opacity="0.3" fill="#b895e" cy="-0.4146932426562393" cx="0.9099612708765431"/><circle r="0.1509795296640571" fill-opacity="0.3" fill="#b895e" cy="-0.11320321376790701" cx="0.9935718556765875"/><circle r="0.15349468059586022" fill-opacity="0.3" fill="#b895e" cy="0.19936793441719688" cx="0.9799247046208297"/><circle r="0.1559939725025708" fill-opacity="0.3" fill="#b895e" cy="0.49242356010346683" cx="0.8703556959398998"/><circle r="0.15847622202216363" fill-opacity="0.3" fill="#b895e" cy="0.7372773368101239" cx="0.6755902076156605"/><circle r="0.1609402538618246" fill-opacity="0.3" fill="#b895e" cy="0.9099612708765431" cx="0.41469324265623936"/><circle r="0.16338490135442685" fill-opacity="0.3" fill="#b895e" cy="0.9935718556765875" cx="0.11320321376790707"/><circle r="0.16580900701092322" fill-opacity="0.3" fill="#b895e" cy="0.9799247046208297" cx="-0.19936793441719683"/><circle r="0.16821142306839287" fill-opacity="0.3" fill="#b895e" cy="0.8703556959398999" cx="-0.4924235601034668"/><circle r="0.6366681691475682" fill-opacity="0.3" fill="#b895e" cy="-3.984778792366982" cx="0.34862297099063155"/><circle r="0.6454597105314342" fill-opacity="0.3" fill="#b895e" cy="-3.682019413809762" cx="1.562924513957094"/><circle r="0.6541576906467698" fill-opacity="0.3" fill="#b895e" cy="-3.018838320891089" cx="2.624236115962028"/><circle r="0.6627579911833701" fill-opacity="0.3" fill="#b895e" cy="-2.060152299640218" cx="3.4286692028084484"/><circle r="0.6712565400802516" fill-opacity="0.3" fill="#b895e" cy="-0.8998042173754613" cx="3.8974802591409405"/><circle r="0.6796493134536868" fill-opacity="0.3" fill="#b895e" cy="0.34862297099063133" cx="3.984778792366982"/><circle r="0.6879323375024285" fill-opacity="0.3" fill="#b895e" cy="1.5629245139570938" cx="3.682019413809762"/><circle r="0.6961016903892209" fill-opacity="0.3" fill="#b895e" cy="2.624236115962028" cx="3.018838320891089"/><circle r="0.704153504097707" fill-opacity="0.3" fill="#b895e" cy="3.4286692028084484" cx="2.060152299640218"/><circle r="0.7120839662638524" fill-opacity="0.3" fill="#b895e" cy="3.8974802591409405" cx="0.8998042173754616"/><circle r="0.7198893219810196" fill-opacity="0.3" fill="#b895e" cy="3.984778792366982" cx="-0.34862297099063105"/><circle r="0.7275658755778374" fill-opacity="0.3" fill="#b895e" cy="3.682019413809762" cx="-1.5629245139570935"/><circle r="0.7351099923680224" fill-opacity="0.3" fill="#b895e" cy="3.018838320891089" cx="-2.6242361159620278"/><circle r="0.7425181003713275" fill-opacity="0.3" fill="#b895e" cy="2.0601522996402184" cx="-3.4286692028084484"/><circle r="0.7497866920047986" fill-opacity="0.3" fill="#b895e" cy="0.8998042173754618" cx="-3.8974802591409405"/><circle r="0.7569123257435413" fill-opacity="0.3" fill="#b895e" cy="-0.34862297099063083" cx="-3.984778792366982"/><circle r="0.76389162775021" fill-opacity="0.3" fill="#b895e" cy="-1.5629245139570933" cx="-3.682019413809762"/><circle r="0.7707212934724498" fill-opacity="0.3" fill="#b895e" cy="-2.6242361159620278" cx="-3.0188383208910894"/><circle r="0.777398089207531" fill-opacity="0.3" fill="#b895e" cy="-3.428669202808448" cx="-2.0601522996402184"/><circle r="0.7839188536334403" fill-opacity="0.3" fill="#b895e" cy="-3.8974802591409405" cx="-0.899804217375462"/><circle r="1.7074761955911277" fill-opacity="0.3" fill="#b895e" cy="7.1401800626211145" cx="5.478852861078489"/><circle r="1.7208708370856047" fill-opacity="0.3" fill="#b895e" cy="8.483773419829603" cx="3.004261733103942"/><circle r="1.7339088373564113" fill-opacity="0.3" fill="#b895e" cy="8.996915924780016" cx="0.23559253477086245"/><circle r="1.7465840231852992" fill-opacity="0.3" fill="#b895e" cy="8.62937761381374" cx="-2.556138102335299"/><circle r="1.7588903931390103" fill-opacity="0.3" fill="#b895e" cy="7.417135697598143" cx="-5.0976561323234915"/><circle r="1.7708221204108268" fill-opacity="0.3" fill="#b895e" cy="5.478852861078489" cx="-7.140180062621114"/><circle r="1.7823735555794429" fill-opacity="0.3" fill="#b895e" cy="3.0042617331039425" cx="-8.483773419829603"/><circle r="1.793539229283845" fill-opacity="0.3" fill="#b895e" cy="0.235592534770863" cx="-8.996915924780016"/><circle r="1.804313854812941" fill-opacity="0.3" fill="#b895e" cy="-2.5561381023352987" cx="-8.62937761381374"/><circle r="1.8146923306087044" fill-opacity="0.3" fill="#b895e" cy="-5.0976561323234915" cx="-7.417135697598143"/><circle r="1.8246697426816558" fill-opacity="0.3" fill="#b895e" cy="-7.140180062621114" cx="-5.47885286107849"/><circle r="1.8342413669375326" fill-opacity="0.3" fill="#b895e" cy="-8.483773419829603" cx="-3.004261733103943"/><circle r="1.8434026714140486" fill-opacity="0.3" fill="#b895e" cy="-8.996915924780016" cx="-0.23559253477086356"/><circle r="1.8521493184266824" fill-opacity="0.3" fill="#b895e" cy="-8.62937761381374" cx="2.5561381023352983"/><circle r="1.8604771666224797" fill-opacity="0.3" fill="#b895e" cy="-7.417135697598145" cx="5.0976561323234915"/><circle r="1.8683822729408954" fill-opacity="0.3" fill="#b895e" cy="-5.47885286107849" cx="7.140180062621114"/><circle r="1.8758608944807516" fill-opacity="0.3" fill="#b895e" cy="-3.0042617331039434" cx="8.483773419829603"/><circle r="1.8829094902724217" fill-opacity="0.3" fill="#b895e" cy="-0.23559253477086411" cx="8.996915924780016"/><circle r="1.8895247229544039" fill-opacity="0.3" fill="#b895e" cy="2.556138102335298" cx="8.62937761381374"/><circle r="1.8957034603534921" fill-opacity="0.3" fill="#b895e" cy="5.097656132323491" cx="7.417135697598145"/><circle r="3.2844817993684527" fill-opacity="0.3" fill="#b895e" cy="-2.7783708426708764" cx="-15.75692404819533"/><circle r="3.2936319490344537" fill-opacity="0.3" fill="#b895e" cy="-7.511545004574244" cx="-14.127161485742835"/><circle r="3.3020140331010635" fill-opacity="0.3" fill="#b895e" cy="-11.509436805418412" cx="-11.114533927343963"/><circle r="3.3096240828281953" fill-opacity="0.3" fill="#b895e" cy="-14.380704740786667" cx="-7.013938348625247"/><circle r="3.3164584950177463" fill-opacity="0.3" fill="#b895e" cy="-15.844289099865124" cx="-2.2267696153610568"/><circle r="3.3225140337196346" fill-opacity="0.3" fill="#b895e" cy="-15.75692404819533" cx="2.7783708426708755"/><circle r="3.327787831763955" fill-opacity="0.3" fill="#b895e" cy="-14.127161485742835" cx="7.511545004574243"/><circle r="3.3322773921185207" fill-opacity="0.3" fill="#b895e" cy="-11.114533927343965" cx="11.50943680541841"/><circle r="3.3359805890711574" fill-opacity="0.3" fill="#b895e" cy="-7.013938348625248" cx="14.380704740786667"/><circle r="3.338895669236183" fill-opacity="0.3" fill="#b895e" cy="-2.226769615361058" cx="15.844289099865124"/><circle r="3.341021252384597" fill-opacity="0.3" fill="#b895e" cy="2.7783708426708746" cx="15.75692404819533"/><circle r="3.3423563320975935" fill-opacity="0.3" fill="#b895e" cy="7.511545004574242" cx="14.127161485742837"/><circle r="3.3429002762430753" fill-opacity="0.3" fill="#b895e" cy="11.50943680541841" cx="11.114533927343965"/><circle r="3.342652827274958" fill-opacity="0.3" fill="#b895e" cy="14.380704740786667" cx="7.013938348625249"/><circle r="3.3416141023551105" fill-opacity="0.3" fill="#b895e" cy="15.844289099865124" cx="2.226769615361059"/><circle r="3.339784593297883" fill-opacity="0.3" fill="#b895e" cy="15.756924048195332" cx="-2.7783708426708738"/><circle r="3.3371651663372432" fill-opacity="0.3" fill="#b895e" cy="14.127161485742837" cx="-7.511545004574241"/><circle r="3.3337570617166308" fill-opacity="0.3" fill="#b895e" cy="11.114533927343965" cx="-11.50943680541841"/><circle r="3.329561893101731" fill-opacity="0.3" fill="#b895e" cy="7.01393834862525" cx="-14.380704740786665"/><circle r="3.324581646816435" fill-opacity="0.3" fill="#b895e" cy="2.22676961536106" cx="-15.844289099865124"/><circle r="5.071221157666931" fill-opacity="0.3" fill="#b895e" cy="-13.432490208670611" cx="21.08478614532213"/><circle r="5.061223388986201" fill-opacity="0.3" fill="#b895e" cy="-6.259500101361053" cx="24.20369100945269"/><circle r="5.050038512250192" fill-opacity="0.3" fill="#b895e" cy="1.5262134883714034" cx="24.953369960546677"/><circle r="5.0376718232622295" fill-opacity="0.3" fill="#b895e" cy="9.162530668107415" cx="23.26043919955062"/><circle r="5.024129177388819" fill-opacity="0.3" fill="#b895e" cy="15.901955506944084" cx="19.29061458469301"/><circle r="5.009416986787262" fill-opacity="0.3" fill="#b895e" cy="21.08478614532213" cx="13.432490208670611"/><circle r="4.993542217369633" fill-opacity="0.3" fill="#b895e" cy="24.20369100945269" cx="6.259500101361054"/><circle r="4.97651238550456" fill-opacity="0.3" fill="#b895e" cy="24.953369960546677" cx="-1.5262134883714018"/><circle r="4.958335554458393" fill-opacity="0.3" fill="#b895e" cy="23.26043919955062" cx="-9.162530668107413"/><circle r="4.9390203305774065" fill-opacity="0.3" fill="#b895e" cy="19.29061458469301" cx="-15.901955506944082"/><circle r="4.918575859212888" fill-opacity="0.3" fill="#b895e" cy="13.432490208670615" cx="-21.08478614532213"/><circle r="4.897011820390995" fill-opacity="0.3" fill="#b895e" cy="6.259500101361056" cx="-24.203691009452687"/><circle r="4.8743384242294745" fill-opacity="0.3" fill="#b895e" cy="-1.5262134883714003" cx="-24.953369960546677"/><circle r="4.850566406103385" fill-opacity="0.3" fill="#b895e" cy="-9.162530668107411" cx="-23.26043919955062"/><circle r="4.825707021562124" fill-opacity="0.3" fill="#b895e" cy="-15.901955506944116" cx="-19.290614584692985"/><circle r="4.799772041000159" fill-opacity="0.3" fill="#b895e" cy="-21.08478614532213" cx="-13.432490208670615"/><circle r="4.772773744083999" fill-opacity="0.3" fill="#b895e" cy="-24.203691009452676" cx="-6.2595001013611"/><circle r="4.744724913938025" fill-opacity="0.3" fill="#b895e" cy="-24.953369960546677" cx="1.5262134883713987"/><circle r="4.715638831091961" fill-opacity="0.3" fill="#b895e" cy="-23.260439199550607" cx="9.162530668107452"/><circle r="4.685529267192809" fill-opacity="0.3" fill="#b895e" cy="-19.290614584693014" cx="15.901955506944079"/><circle r="6.581260010561663" fill-opacity="0.3" fill="#b895e" cy="34.77332974640647" cx="-9.317485623690716"/><circle r="6.535852360617281" fill-opacity="0.3" fill="#b895e" cy="30.192140446035282" cx="-19.607005260540948"/><circle r="6.489060016686532" fill-opacity="0.3" fill="#b895e" cy="22.655534077794172" cx="-27.97725461245093"/><circle r="6.4409051339577434" fill-opacity="0.3" fill="#b895e" cy="12.901246183630839" cx="-33.60889535389925"/><circle r="6.391410512752633" fill-opacity="0.3" fill="#b895e" cy="1.8840944247460105" cx="-35.950663251164656"/><circle r="6.340599587730847" fill-opacity="0.3" fill="#b895e" cy="-9.317485623690715" cx="-34.77332974640647"/><circle r="6.288496416794134" fill-opacity="0.3" fill="#b895e" cy="-19.607005260540948" cx="-30.192140446035282"/><circle r="6.235125669695439" fill-opacity="0.3" fill="#b895e" cy="-27.977254612450974" cx="-22.655534077794126"/><circle r="6.180512616358295" fill-opacity="0.3" fill="#b895e" cy="-33.60889535389925" cx="-12.901246183630843"/><circle r="6.1246831149120515" fill-opacity="0.3" fill="#b895e" cy="-35.950663251164656" cx="-1.8840944247460767"/><circle r="6.067663599448584" fill-opacity="0.3" fill="#b895e" cy="-34.77332974640647" cx="9.317485623690713"/><circle r="6.0094810675063215" fill-opacity="0.3" fill="#b895e" cy="-30.19214044603525" cx="19.607005260540998"/><circle r="5.950163067287476" fill-opacity="0.3" fill="#b895e" cy="-22.65553407779418" cx="27.977254612450928"/><circle r="5.889737684614544" fill-opacity="0.3" fill="#b895e" cy="-12.901246183630903" cx="33.60889535389923"/><circle r="5.828233529632274" fill-opacity="0.3" fill="#b895e" cy="-1.884094424746015" cx="35.950663251164656"/><circle r="5.7656797232613535" fill-opacity="0.3" fill="#b895e" cy="9.317485623690773" cx="34.77332974640645"/><circle r="5.702105883410277" fill-opacity="0.3" fill="#b895e" cy="19.607005260540944" cx="30.192140446035285"/><circle r="5.63754211095188" fill-opacity="0.3" fill="#b895e" cy="27.97725461245089" cx="22.655534077794226"/><circle r="5.572018975471226" fill-opacity="0.3" fill="#b895e" cy="33.60889535389925" cx="12.901246183630846"/><circle r="5.505567500791537" fill-opacity="0.3" fill="#b895e" cy="35.95066325116466" cx="1.8840944247459532"/><circle r="7.288792809219819" fill-opacity="0.3" fill="#b895e" cy="-43.46353082573288" cx="-22.62568204851663"/><circle r="7.197367128124424" fill-opacity="0.3" fill="#b895e" cy="-48.32799447532436" cx="-8.087332687173083"/><circle r="7.104825400331058" fill-opacity="0.3" fill="#b895e" cy="-48.46177730473392" cx="7.242661145350956"/><circle r="7.011211442396765" fill-opacity="0.3" fill="#b895e" cy="-43.85178371849925" cx="21.863692842380587"/><circle r="6.916569578556963" fill-opacity="0.3" fill="#b895e" cy="-34.94927200855488" cx="34.34455395069272"/><circle r="6.820944619738843" fill-opacity="0.3" fill="#b895e" cy="-22.625682048516556" cx="43.46353082573292"/><circle r="6.724381842344339" fill-opacity="0.3" fill="#b895e" cy="-8.087332687173172" cx="48.327994475324346"/><circle r="6.6269269668127135" fill-opacity="0.3" fill="#b895e" cy="7.242661145350867" cx="48.46177730473393"/><circle r="6.528626135972884" fill-opacity="0.3" fill="#b895e" cy="21.863692842380658" cx="43.85178371849921"/><circle r="6.4295258931957715" fill-opacity="0.3" fill="#b895e" cy="34.344553950692784" cx="34.949272008554814"/><circle r="6.3296731603569985" fill-opacity="0.3" fill="#b895e" cy="43.46353082573288" cx="22.625682048516634"/><circle r="6.229115215620366" fill-opacity="0.3" fill="#b895e" cy="48.32799447532433" cx="8.087332687173259"/><circle r="6.127899671052641" fill-opacity="0.3" fill="#b895e" cy="48.46177730473392" cx="-7.242661145350951"/><circle r="6.026074450080243" fill-opacity="0.3" fill="#b895e" cy="43.85178371849918" cx="-21.863692842380736"/><circle r="5.923687764798517" fill-opacity="0.3" fill="#b895e" cy="34.94927200855488" cx="-34.34455395069271"/><circle r="5.820788093144325" fill-opacity="0.3" fill="#b895e" cy="22.625682048516712" cx="-43.46353082573284"/><circle r="5.717424155942754" fill-opacity="0.3" fill="#b895e" cy="8.087332687173177" cx="-48.327994475324346"/><circle r="5.613644893838847" fill-opacity="0.3" fill="#b895e" cy="-7.2426611453510334" cx="-48.46177730473391"/><circle r="5.509499444125225" fill-opacity="0.3" fill="#b895e" cy="-21.863692842380654" cx="-43.85178371849921"/><circle r="5.405037117476627" fill-opacity="0.3" fill="#b895e" cy="-34.34455395069265" cx="-34.94927200855494"/><circle r="6.831023118337837" fill-opacity="0.3" fill="#b895e" cy="21.88928917284273" cx="60.14032773029816"/><circle r="6.695766945753973" fill-opacity="0.3" fill="#b895e" cy="39.40233442084216" cx="50.43268823083018"/><circle r="6.560294076764637" fill-opacity="0.3" fill="#b895e" cy="53.05840464352263" cx="35.78834582212786"/><circle r="6.42466865491712" fill-opacity="0.3" fill="#b895e" cy="61.52074854005235" cx="17.64079077228813"/><circle r="6.288954895989266" fill-opacity="0.3" fill="#b895e" cy="63.96101292922213" cx="-2.233567788959986"/><circle r="6.153217057584674" fill-opacity="0.3" fill="#b895e" cy="60.140327730298125" cx="-21.889289172842833"/><circle r="6.0175194087080595" fill-opacity="0.3" fill="#b895e" cy="50.43268823083025" cx="-39.40233442084207"/><circle r="5.881926199335248" fill-opacity="0.3" fill="#b895e" cy="35.78834582212796" cx="-53.05840464352256"/><circle r="5.746501629992162" fill-opacity="0.3" fill="#b895e" cy="17.640790772288025" cx="-61.52074854005239"/><circle r="5.611309821357222" fill-opacity="0.3" fill="#b895e" cy="-2.233567788960096" cx="-63.96101292922213"/><circle r="5.476414783901565" fill-opacity="0.3" fill="#b895e" cy="-21.889289172842723" cx="-60.14032773029817"/><circle r="5.341880387581428" fill-opacity="0.3" fill="#b895e" cy="-39.402334420841974" cx="-50.43268823083032"/><circle r="5.207770331597076" fill-opacity="0.3" fill="#b895e" cy="-53.05840464352262" cx="-35.788345822127866"/><circle r="5.07414811423257" fill-opacity="0.3" fill="#b895e" cy="-61.520748540052416" cx="-17.640790772287918"/><circle r="4.94107700279067" fill-opacity="0.3" fill="#b895e" cy="-63.96101292922213" cx="2.233567788959978"/><circle r="4.8086200036371" fill-opacity="0.3" fill="#b895e" cy="-60.1403277302982" cx="21.889289172842613"/><circle r="4.6768398323683655" fill-opacity="0.3" fill="#b895e" cy="-50.43268823083026" cx="39.40233442084206"/><circle r="4.545798884117232" fill-opacity="0.3" fill="#b895e" cy="-35.78834582212777" cx="53.058404643522685"/><circle r="4.415559204009959" fill-opacity="0.3" fill="#b895e" cy="-17.64079077228803" cx="61.52074854005238"/><circle r="4.28618245778923" fill-opacity="0.3" fill="#b895e" cy="2.2335677889598604" cx="63.961012929222136"/><circle r="5.200511554360839" fill-opacity="0.3" fill="#b895e" cy="30.997358021572502" cx="-74.83424213341414"/><circle r="5.041074444747611" fill-opacity="0.3" fill="#b895e" cy="6.355186753955545" cx="-80.75030403238335"/><circle r="4.882944881981116" fill-opacity="0.3" fill="#b895e" cy="-18.909074472328097" cx="-78.76196355221187"/><circle r="4.7261977370754735" fill-opacity="0.3" fill="#b895e" cy="-42.32238374199152" cx="-69.06385331268167"/><circle r="4.570907226499089" fill-opacity="0.3" fill="#b895e" cy="-61.59288321360234" cx="-52.60529191474507"/><circle r="4.417146877034725" fill-opacity="0.3" fill="#b895e" cy="-74.8342421334142" cx="-30.99735802157237"/><circle r="4.2649894909661175" fill-opacity="0.3" fill="#b895e" cy="-80.75030403238334" cx="-6.355186753955693"/><circle r="4.114507111607631" fill-opacity="0.3" fill="#b895e" cy="-78.7619635522119" cx="18.90907447232795"/><circle r="3.965770989193267" fill-opacity="0.3" fill="#b895e" cy="-69.0638533126816" cx="42.322383741991636"/><circle r="3.8188515471411777" fill-opacity="0.3" fill="#b895e" cy="-52.60529191474497" cx="61.592883213602434"/><circle r="3.673818348709668" fill-opacity="0.3" fill="#b895e" cy="-30.99735802157251" cx="74.83424213341412"/><circle r="3.5307400640604545" fill-opacity="0.3" fill="#b895e" cy="-6.3551867539558415" cx="80.75030403238334"/><circle r="3.3896844377447946" fill-opacity="0.3" fill="#b895e" cy="18.909074472328086" cx="78.76196355221187"/><circle r="3.250718256627867" fill-opacity="0.3" fill="#b895e" cy="42.32238374199176" cx="69.06385331268153"/><circle r="3.1139073182666026" fill-opacity="0.3" fill="#b895e" cy="61.592883213602335" cx="52.605291914745074"/><circle r="2.979316399755924" fill-opacity="0.3" fill="#b895e" cy="74.83424213341408" cx="30.997358021572644"/><circle r="2.847009227058162" fill-opacity="0.3" fill="#b895e" cy="80.75030403238334" cx="6.355186753955704"/><circle r="2.717048444830151" fill-opacity="0.3" fill="#b895e" cy="78.76196355221184" cx="-18.90907447232822"/><circle r="2.5894955867623084" fill-opacity="0.3" fill="#b895e" cy="69.06385331268162" cx="-42.32238374199163"/><circle r="2.4644110464437285" fill-opacity="0.3" fill="#b895e" cy="52.605291914745195" cx="-61.592883213602235"/><circle r="2.8608761495842354" fill-opacity="0.3" fill="#b895e" cy="-90.63077870366506" cx="42.26182617406982"/><circle r="2.7143156096676813" fill-opacity="0.3" fill="#b895e" cy="-73.13537016191727" cx="68.19983600624961"/><circle r="2.5709830706034538" fill-opacity="0.3" fill="#b895e" cy="-48.480962024633826" cx="87.46197071393951"/><circle r="2.4309463973269136" fill-opacity="0.3" fill="#b895e" cy="-19.08089953765445" cx="98.1627183447664"/><circle r="2.2942718942504583" fill-opacity="0.3" fill="#b895e" cy="12.186934340514602" cx="99.25461516413222"/><circle r="2.1610242738697867" fill-opacity="0.3" fill="#b895e" cy="42.26182617406965" cx="90.63077870366514"/><circle r="2.0312666261238763" fill-opacity="0.3" fill="#b895e" cy="68.19983600624974" cx="73.13537016191715"/><circle r="1.9050603885232582" fill-opacity="0.3" fill="#b895e" cy="87.46197071393959" cx="48.480962024633676"/><circle r="1.7824653170606157" fill-opacity="0.3" fill="#b895e" cy="98.16271834476636" cx="19.08089953765463"/><circle r="1.6635394579176213" fill-opacity="0.3" fill="#b895e" cy="99.25461516413225" cx="-12.18693434051442"/><circle r="1.548339119981249" fill-opacity="0.3" fill="#b895e" cy="90.63077870366506" cx="-42.2618261740698"/><circle r="1.4369188481827502" fill-opacity="0.3" fill="#b895e" cy="73.13537016191704" cx="-68.19983600624987"/><circle r="1.3293313976717334" fill-opacity="0.3" fill="#b895e" cy="48.48096202463384" cx="-87.46197071393951"/><circle r="1.2256277088377552" fill-opacity="0.3" fill="#b895e" cy="19.080899537654812" cx="-98.16271834476633"/><circle r="1.12585688319108" fill-opacity="0.3" fill="#b895e" cy="-12.18693434051459" cx="-99.25461516413222"/><circle r="1.0300661601141887" fill-opacity="0.3" fill="#b895e" cy="-42.26182617406996" cx="-90.63077870366499"/><circle r="0.9383008944948912" fill-opacity="0.3" fill="#b895e" cy="-68.19983600624974" cx="-73.13537016191715"/><circle r="0.8506045352517758" fill-opacity="0.3" fill="#b895e" cy="-87.46197071393942" cx="-48.480962024634"/><circle r="0.7670186047620292" fill-opacity="0.3" fill="#b895e" cy="-98.16271834476636" cx="-19.080899537654645"/><circle r="0.6875826792015015" fill-opacity="0.3" fill="#b895e" cy="-99.2546151641322" cx="12.18693434051476"/><circle r="0.7338963681462795" fill-opacity="0.3" fill="#b895e" cy="115.39975104053546" cx="36.38540174001703"/><circle r="0.6487712475719638" fill-opacity="0.3" fill="#b895e" cy="120.99539269076473" cx="-1.0559107953034843"/><circle r="0.5687480846419616" fill-opacity="0.3" fill="#b895e" cy="114.74716227995012" cx="-38.39386342501617"/><circle r="0.4938647686367949" fill-opacity="0.3" fill="#b895e" cy="97.26668013468341" cx="-71.97355719691214"/><circle r="0.42415675522781854" fill-opacity="0.3" fill="#b895e" cy="70.2650576410237" cx="-98.50797772111464"/><circle r="0.3596570496897321" fill-opacity="0.3" fill="#b895e" cy="36.385401740016825" cx="-115.39975104053552"/><circle r="0.3003961912732507" fill-opacity="0.3" fill="#b895e" cy="-1.055910795303262" cx="-120.99539269076473"/><circle r="0.24640223874544337" fill-opacity="0.3" fill="#b895e" cy="-38.39386342501596" cx="-114.74716227995019"/><circle r="0.19770075710446844" fill-opacity="0.3" fill="#b895e" cy="-71.97355719691231" cx="-97.2666801346833"/><circle r="0.15431480547511278" fill-opacity="0.3" fill="#b895e" cy="-98.50797772111476" cx="-70.26505764102352"/><circle r="0.11626492619076229" fill-opacity="0.3" fill="#b895e" cy="-115.39975104053546" cx="-36.38540174001704"/><circle r="0.08356913506705341" fill-opacity="0.3" fill="#b895e" cy="-120.99539269076473" cx="1.0559107953030396"/><circle r="0.05624291287175392" fill-opacity="0.3" fill="#b895e" cy="-114.74716227995012" cx="38.39386342501616"/><circle r="0.034299197994957176" fill-opacity="0.3" fill="#b895e" cy="-97.26668013468317" cx="71.97355719691247"/><circle r="0.01774838032301402" fill-opacity="0.3" fill="#b895e" cy="-70.26505764102372" cx="98.50797772111463"/><circle r="0.006598296319151856" fill-opacity="0.3" fill="#b895e" cy="-36.38540174001725" cx="115.39975104053539"/><circle r="0.0008542253130681557" fill-opacity="0.3" fill="#b895e" cy="1.0559107953032472" cx="120.99539269076473"/><circle r="0.0005188870012839779" fill-opacity="0.3" fill="#b895e" cy="38.39386342501635" cx="114.74716227995005"/><circle r="0.005592440159418131" fill-opacity="0.3" fill="#b895e" cy="71.97355719691194" cx="97.26668013468355"/><circle r="0.016072482567016145" fill-opacity="0.3" fill="#b895e" cy="98.5079777211145" cx="70.26505764102389"/><circle r="0.03769851172030822" fill-opacity="0.3" fill="#b895e" cy="-71.99999999999979" cx="-124.70765814495928"/><circle r="0.0627988523995039" fill-opacity="0.3" fill="#b895e" cy="-107.01285486874477" cx="-96.35480731567557"/><circle r="0.09425101036203996" fill-opacity="0.3" fill="#b895e" cy="-131.55054590053442" cx="-58.570076602915464"/><circle r="0.13204009367422553" fill-opacity="0.3" fill="#b895e" cy="-143.21115293303131" cx="-15.052098710542605"/><circle r="0.17614821000182507" fill-opacity="0.3" fill="#b895e" cy="-140.85325450566808" cx="29.939283477757098"/><circle r="0.2265544750816838" fill-opacity="0.3" fill="#b895e" cy="-124.70765814495915" cx="72"/><circle r="0.2832350226100117" fill-opacity="0.3" fill="#b895e" cy="-96.35480731567577" cx="107.0128548687446"/><circle r="0.34616301554254486" fill-opacity="0.3" fill="#b895e" cy="-58.570076602915705" cx="131.5505459005343"/><circle r="0.4153086588013494" fill-opacity="0.3" fill="#b895e" cy="-15.05209871054236" cx="143.21115293303134"/><circle r="0.4906392133821361" fill-opacity="0.3" fill="#b895e" cy="29.939283477757336" cx="140.85325450566802"/><circle r="0.5721190118555148" fill-opacity="0.3" fill="#b895e" cy="71.99999999999977" cx="124.7076581449593"/><circle r="0.659709475254741" fill-opacity="0.3" fill="#b895e" cy="107.01285486874443" cx="96.35480731567597"/><circle r="0.7533691313420781" fill-opacity="0.3" fill="#b895e" cy="131.55054590053442" cx="58.57007660291548"/><circle r="0.8530536342449889" fill-opacity="0.3" fill="#b895e" cy="143.21115293303134" cx="15.052098710542113"/><circle r="0.9587157854530105" fill-opacity="0.3" fill="#b895e" cy="140.85325450566796" cx="-29.93928347775758"/><circle r="1.070305556165216" fill-opacity="0.3" fill="#b895e" cy="124.70765814495942" cx="-71.99999999999955"/><circle r="1.1877701109778314" fill-opacity="0.3" fill="#b895e" cy="96.3548073156758" cx="-107.01285486874458"/><circle r="1.3110538329006556" fill-opacity="0.3" fill="#b895e" cy="58.57007660291524" cx="-131.55054590053453"/><circle r="1.4400983496905628" fill-opacity="0.3" fill="#b895e" cy="15.052098710542886" cx="-143.2111529330313"/><circle r="1.5748425614894923" fill-opacity="0.3" fill="#b895e" cy="-29.93928347775682" cx="-140.85325450566813"/><circle r="1.9969560643408337" fill-opacity="0.3" fill="#b895e" cy="-36.578294755539986" cx="164.99402520326862"/><circle r="2.1668785003918773" fill-opacity="0.3" fill="#b895e" cy="16.19793217591754" cx="168.22195752405324"/><circle r="2.343204716189312" fill-opacity="0.3" fill="#b895e" cy="67.38859264836604" cx="154.9831525710862"/><circle r="2.5258512249874343" fill-opacity="0.3" fill="#b895e" cy="111.98278814845894" cx="126.57351681334197"/><circle r="2.7147315475150875" fill-opacity="0.3" fill="#b895e" cy="145.6153281146175" cx="85.77398334035954"/><circle r="2.909756252921711" fill-opacity="0.3" fill="#b895e" cy="164.99402520326868" cx="36.5782947555397"/><circle r="3.1108330011210215" fill-opacity="0.3" fill="#b895e" cy="168.22195752405324" cx="-16.197932175917828"/><circle r="3.3178665865120403" fill-opacity="0.3" fill="#b895e" cy="154.98315257108635" cx="-67.38859264836576"/><circle r="3.5307589830569976" fill-opacity="0.3" fill="#b895e" cy="126.57351681334178" cx="-111.98278814845916"/><circle r="3.74940939069453" fill-opacity="0.3" fill="#b895e" cy="85.7739833403593" cx="-145.61532811461768"/><circle r="3.973714283066454" fill-opacity="0.3" fill="#b895e" cy="36.57829475554059" cx="-164.99402520326848"/><circle r="4.20356745653524" fill-opacity="0.3" fill="#b895e" cy="-16.19793217591692" cx="-168.2219575240533"/><circle r="4.438860080469274" fill-opacity="0.3" fill="#b895e" cy="-67.38859264836603" cx="-154.98315257108624"/><circle r="4.679480748771786" fill-opacity="0.3" fill="#b895e" cy="-111.98278814845938" cx="-126.5735168133416"/><circle r="4.9253155326293685" fill-opacity="0.3" fill="#b895e" cy="-145.61532811461782" cx="-85.77398334035905"/><circle r="5.17624803445479" fill-opacity="0.3" fill="#b895e" cy="-164.99402520326854" cx="-36.57829475554031"/><circle r="5.432159442998874" fill-opacity="0.3" fill="#b895e" cy="-168.2219575240533" cx="16.19793217591721"/><circle r="5.692928589605045" fill-opacity="0.3" fill="#b895e" cy="-154.9831525710861" cx="67.38859264836628"/><circle r="5.958432005580212" fill-opacity="0.3" fill="#b895e" cy="-126.5735168133422" cx="111.9827881484587"/><circle r="6.228543980654505" fill-opacity="0.3" fill="#b895e" cy="-85.77398334035982" cx="145.61532811461737"/><circle r="7.486412904907196" fill-opacity="0.3" fill="#b895e" cy="160.5538006806422" cx="-112.42098152480528"/><circle r="7.807532512738457" fill-opacity="0.3" fill="#b895e" cy="117.95574453780094" cx="-156.53255996926978"/><circle r="8.133508550233046" fill-opacity="0.3" fill="#b895e" cy="63.81135827360177" cx="-185.32164081746643"/><circle r="8.464186674609742" fill-opacity="0.3" fill="#b895e" cy="3.42067166170762" cx="-195.9701482506527"/><circle r="8.799410316748384" fill-opacity="0.3" fill="#b895e" cy="-57.30485412565668" cx="-187.43573216875487"/><circle r="9.139020755321924" fill-opacity="0.3" fill="#b895e" cy="-112.42098152480557" cx="-160.553800680642"/><circle r="9.48285719194774" fill-opacity="0.3" fill="#b895e" cy="-156.53255996926916" cx="-117.95574453780179"/><circle r="9.830756827322185" fill-opacity="0.3" fill="#b895e" cy="-185.3216408174661" cx="-63.81135827360277"/><circle r="10.182554938302708" fill-opacity="0.3" fill="#b895e" cy="-195.9701482506527" cx="-3.420671661707283"/><circle r="10.538084955900713" fill-opacity="0.3" fill="#b895e" cy="-187.43573216875478" cx="57.304854125657"/><circle r="10.897178544148543" fill-opacity="0.3" fill="#b895e" cy="-160.5538006806418" cx="112.42098152480582"/><circle r="11.259665679802918" fill-opacity="0.3" fill="#b895e" cy="-117.95574453780152" cx="156.53255996926936"/><circle r="11.625374732847469" fill-opacity="0.3" fill="#b895e" cy="-63.81135827360245" cx="185.32164081746618"/><circle r="11.994132547755799" fill-opacity="0.3" fill="#b895e" cy="-3.4206716617069475" cx="195.9701482506527"/><circle r="12.36576452547712" fill-opacity="0.3" fill="#b895e" cy="57.30485412565599" cx="187.43573216875507"/><circle r="12.740094706105078" fill-opacity="0.3" fill="#b895e" cy="112.42098152480496" cx="160.55380068064244"/><circle r="13.116945852191197" fill-opacity="0.3" fill="#b895e" cy="156.53255996926956" cx="117.95574453780124"/><circle r="13.496139532662935" fill-opacity="0.3" fill="#b895e" cy="185.3216408174663" cx="63.811358273602124"/><circle r="13.877496207307178" fill-opacity="0.3" fill="#b895e" cy="195.9701482506527" cx="3.4206716617066113"/><circle r="14.260835311778605" fill-opacity="0.3" fill="#b895e" cy="187.43573216875498" cx="-57.304854125656306"/><circle r="16.697383540687518" fill-opacity="0.3" fill="#b895e" cy="-223.07509380910733" cx="-29.36839324951169"/><circle r="17.138314006011264" fill-opacity="0.3" fill="#b895e" cy="-221.2323542018897" cx="41.002993235733484"/><circle r="17.580880978556227" fill-opacity="0.3" fill="#b895e" cy="-197.73385034894187" cx="107.36072105841252"/><circle r="18.02487491219153" fill-opacity="0.3" fill="#b895e" cy="-154.879779531095" cx="163.2092334777644"/><circle r="18.470085585150375" fill-opacity="0.3" fill="#b895e" cy="-96.8649967818665" cx="203.0816889787186"/><circle r="18.91630219956547" fill-opacity="0.3" fill="#b895e" cy="-29.368393249511303" cx="223.0750938091074"/><circle r="19.36331348127751" fill-opacity="0.3" fill="#b895e" cy="41.0029932357323" cx="221.23235420188993"/><circle r="19.81090777986897" fill-opacity="0.3" fill="#b895e" cy="107.36072105841146" cx="197.73385034894247"/><circle r="20.25887316887609" fill-opacity="0.3" fill="#b895e" cy="163.20923347776466" cx="154.87977953109473"/><circle r="20.706997546131674" fill-opacity="0.3" fill="#b895e" cy="203.08168897871877" cx="96.86499678186614"/><circle r="21.15506873419088" fill-opacity="0.3" fill="#b895e" cy="223.07509380910744" cx="29.368393249510923"/><circle r="21.6028745807929" fill-opacity="0.3" fill="#b895e" cy="221.23235420188988" cx="-41.002993235732674"/><circle r="22.050203059310434" fill-opacity="0.3" fill="#b895e" cy="197.73385034894227" cx="-107.3607210584118"/><circle r="22.496842369139994" fill-opacity="0.3" fill="#b895e" cy="154.87977953109444" cx="-163.2092334777649"/><circle r="22.94258103598484" fill-opacity="0.3" fill="#b895e" cy="96.86499678186725" cx="-203.08168897871823"/><circle r="23.38720801198379" fill-opacity="0.3" fill="#b895e" cy="29.368393249512128" cx="-223.07509380910727"/><circle r="23.83051277563776" fill-opacity="0.3" fill="#b895e" cy="-41.00299323573306" cx="-221.23235420188982"/><circle r="24.272285431487397" fill-opacity="0.3" fill="#b895e" cy="-107.36072105841212" cx="-197.7338503489421"/><circle r="24.712316809494038" fill-opacity="0.3" fill="#b895e" cy="-163.20923347776517" cx="-154.87977953109416"/><circle r="25.150398564077424" fill-opacity="0.3" fill="#b895e" cy="-203.0816889787184" cx="-96.86499678186689"/><circle r="28.92427337403766" fill-opacity="0.3" fill="#b895e" cy="164.55362807975362" cx="196.10737743845874"/><circle r="29.414396332387245" fill-opacity="0.3" fill="#b895e" cy="217.100312616045" cx="135.65933164370057"/><circle r="29.901615449335047" fill-opacity="0.3" fill="#b895e" cy="248.39570592665518" cx="61.932005273514626"/><circle r="30.385700036901277" fill-opacity="0.3" fill="#b895e" cy="255.37639686651508" cx="-17.85765727849503"/><circle r="30.866420891239667" fill-opacity="0.3" fill="#b895e" cy="237.3590667690978" cx="-95.89928791447292"/><circle r="31.343550401160776" fill-opacity="0.3" fill="#b895e" cy="196.10737743845849" cx="-164.55362807975396"/><circle r="31.816862655900962" fill-opacity="0.3" fill="#b895e" cy="135.65933164370176" cx="-217.10031261604425"/><circle r="32.286133552086504" fill-opacity="0.3" fill="#b895e" cy="61.93200527351597" cx="-248.39570592665484"/><circle r="32.751140899841666" fill-opacity="0.3" fill="#b895e" cy="-17.857657278495466" cx="-255.37639686651505"/><circle r="33.2116645279911" fill-opacity="0.3" fill="#b895e" cy="-95.89928791447333" cx="-237.35906676909764"/><circle r="33.66748638830607" fill-opacity="0.3" fill="#b895e" cy="-164.5536280797543" cx="-196.1073774384582"/><circle r="34.11839065874587" fill-opacity="0.3" fill="#b895e" cy="-217.10031261604448" cx="-135.6593316437014"/><circle r="34.56416384564483" fill-opacity="0.3" fill="#b895e" cy="-248.39570592665495" cx="-61.93200527351554"/><circle r="35.00459488479725" fill-opacity="0.3" fill="#b895e" cy="-255.37639686651502" cx="17.857657278495907"/><circle r="35.439475241391676" fill-opacity="0.3" fill="#b895e" cy="-237.35906676909815" cx="95.89928791447205"/><circle r="35.86859900874791" fill-opacity="0.3" fill="#b895e" cy="-196.10737743845908" cx="164.55362807975322"/><circle r="36.29176300580929" fill-opacity="0.3" fill="#b895e" cy="-135.659331643701" cx="217.1003126160447"/><circle r="36.708766873344814" fill-opacity="0.3" fill="#b895e" cy="-61.93200527351512" cx="248.39570592665504"/><circle r="37.11941316881489" fill-opacity="0.3" fill="#b895e" cy="17.857657278496344" cx="255.376396866515"/><circle r="37.523507459856326" fill-opacity="0.3" fill="#b895e" cy="95.89928791447247" cx="237.35906676909798"/><circle r="42.55035066127942" fill-opacity="0.3" fill="#b895e" cy="12.606002948583317" cx="-288.72493603715685"/><circle r="42.98843372874504" fill-opacity="0.3" fill="#b895e" cy="-77.23189068661556" cx="-278.4892009772922"/><circle r="43.41853168636334" fill-opacity="0.3" fill="#b895e" cy="-159.50978875518464" cx="-240.99300257741172"/><circle r="43.84044089181915" fill-opacity="0.3" fill="#b895e" cy="-226.17375733034652" cx="-179.9067299882734"/><circle r="44.253961579998794" fill-opacity="0.3" fill="#b895e" cy="-270.6982626927865" cx="-101.20993318398725"/><circle r="44.65889795757472" fill-opacity="0.3" fill="#b895e" cy="-288.72493603715685" cx="-12.606002948582823"/><circle r="45.05505829570942" fill-opacity="0.3" fill="#b895e" cy="-278.4892009772926" cx="77.23189068661407"/><circle r="45.44225502083506" fill-opacity="0.3" fill="#b895e" cy="-240.99300257741257" cx="159.50978875518337"/><circle r="45.820304803465575" fill-opacity="0.3" fill="#b895e" cy="-179.90672998827304" cx="226.17375733034686"/><circle r="46.18902864499932" fill-opacity="0.3" fill="#b895e" cy="-101.20993318398678" cx="270.6982626927866"/><circle r="46.54825196247113" fill-opacity="0.3" fill="#b895e" cy="-12.60600294858233" cx="288.72493603715685"/><circle r="46.89780467121374" fill-opacity="0.3" fill="#b895e" cy="77.23189068661453" cx="278.4892009772925"/><circle r="47.23752126538914" fill-opacity="0.3" fill="#b895e" cy="159.5097887551838" cx="240.99300257741228"/><circle r="47.56724089635232" fill-opacity="0.3" fill="#b895e" cy="226.17375733034714" cx="179.90672998827262"/><circle r="47.88680744880943" fill-opacity="0.3" fill="#b895e" cy="270.6982626927861" cx="101.20993318398824"/><circle r="48.19606961473538" fill-opacity="0.3" fill="#b895e" cy="288.7249360371568" cx="12.606002948583885"/><circle r="48.49488096501473" fill-opacity="0.3" fill="#b895e" cy="278.4892009772924" cx="-77.231890686615"/><circle r="48.78310001877303" fill-opacity="0.3" fill="#b895e" cy="240.99300257741203" cx="-159.50978875518416"/><circle r="49.060590310364816" fill-opacity="0.3" fill="#b895e" cy="179.90672998827225" cx="-226.17375733034746"/><circle r="49.327220453987394" fill-opacity="0.3" fill="#b895e" cy="101.20993318398777" cx="-270.6982626927863"/><circle r="55.27088514341271" fill-opacity="0.3" fill="#b895e" cy="-229.10259710444282" cx="229.10259710444"/><circle r="55.543474050408705" fill-opacity="0.3" fill="#b895e" cy="-147.09292191561443" cx="288.6861138370306"/><circle r="55.80355224192542" fill-opacity="0.3" fill="#b895e" cy="-50.68476667303563" cx="320.0110223528245"/><circle r="56.05099657642245" fill-opacity="0.3" fill="#b895e" cy="50.684766673032264" cx="320.011022352825"/><circle r="56.285689894224255" fill-opacity="0.3" fill="#b895e" cy="147.09292191561138" cx="288.6861138370321"/><circle r="56.50752107299293" fill-opacity="0.3" fill="#b895e" cy="229.10259710444038" cx="229.10259710444242"/><circle r="56.71638508034218" fill-opacity="0.3" fill="#b895e" cy="288.6861138370298" cx="147.09292191561596"/><circle r="56.912183023568026" fill-opacity="0.3" fill="#b895e" cy="320.0110223528242" cx="50.68476667303736"/><circle r="57.09482219647237" fill-opacity="0.3" fill="#b895e" cy="320.0110223528249" cx="-50.68476667303281"/><circle r="57.26421612325742" fill-opacity="0.3" fill="#b895e" cy="288.6861138370318" cx="-147.09292191561187"/><circle r="57.42028459947018" fill-opacity="0.3" fill="#b895e" cy="229.10259710444203" cx="-229.10259710444078"/><circle r="57.56295372997758" fill-opacity="0.3" fill="#b895e" cy="147.09292191561548" cx="-288.68611383703"/><circle r="57.69215596395419" fill-opacity="0.3" fill="#b895e" cy="50.684766673036805" cx="-320.01102235282434"/><circle r="57.80783012686623" fill-opacity="0.3" fill="#b895e" cy="-50.684766673033366" cx="-320.01102235282485"/><circle r="57.909921449436304" fill-opacity="0.3" fill="#b895e" cy="-147.09292191561033" cx="-288.6861138370326"/><circle r="57.998381593575594" fill-opacity="0.3" fill="#b895e" cy="-229.10259710443955" cx="-229.10259710444325"/><circle r="58.07316867527083" fill-opacity="0.3" fill="#b895e" cy="-288.6861138370303" cx="-147.092921915615"/><circle r="58.13424728441557" fill-opacity="0.3" fill="#b895e" cy="-320.0110223528244" cx="-50.68476667303626"/><circle r="58.18158850157612" fill-opacity="0.3" fill="#b895e" cy="-320.0110223528248" cx="50.68476667303391"/><circle r="58.21516991168426" fill-opacity="0.3" fill="#b895e" cy="-288.6861138370324" cx="147.09292191561082"/><circle r="64.53539611320305" fill-opacity="0.3" fill="#b895e" cy="360.6564079910507" cx="-15.746598838885959"/><circle r="64.54206809990752" fill-opacity="0.3" fill="#b895e" cy="338.13866031867144" cx="-126.42486463466803"/><circle r="64.53346043961818" fill-opacity="0.3" fill="#b895e" cy="282.52154462372243" cx="-224.72778382617938"/><circle r="64.50957720788067" fill-opacity="0.3" fill="#b895e" cy="199.24925169765385" cx="-301.0327817662472"/><circle r="64.47042971290169" fill-opacity="0.3" fill="#b895e" cy="96.47305376425108" cx="-347.8705936083128"/><circle r="64.41603649019477" fill-opacity="0.3" fill="#b895e" cy="-15.746598838886577" cx="-360.6564079910506"/><circle r="64.3464232938041" fill-opacity="0.3" fill="#b895e" cy="-126.42486463466861" cx="-338.1386603186712"/><circle r="64.26162308411048" fill-opacity="0.3" fill="#b895e" cy="-224.7277838261799" cx="-282.5215446237221"/><circle r="64.16167601222537" fill-opacity="0.3" fill="#b895e" cy="-301.0327817662475" cx="-199.2492516976533"/><circle r="64.04662940098015" fill-opacity="0.3" fill="#b895e" cy="-347.87059360831296" cx="-96.47305376425048"/><circle r="63.91653772251967" fill-opacity="0.3" fill="#b895e" cy="-360.6564079910507" cx="15.746598838884633"/><circle r="63.77146257251097" fill-opacity="0.3" fill="#b895e" cy="-338.1386603186719" cx="126.42486463466678"/><circle r="63.61147264097894" fill-opacity="0.3" fill="#b895e" cy="-282.52154462372164" cx="224.72778382618037"/><circle r="63.43664367978313" fill-opacity="0.3" fill="#b895e" cy="-199.2492516976528" cx="301.03278176624787"/><circle r="63.2470584667507" fill-opacity="0.3" fill="#b895e" cy="-96.47305376424988" cx="347.87059360831313"/><circle r="63.04280676648299" fill-opacity="0.3" fill="#b895e" cy="15.746598838885252" cx="360.6564079910507"/><circle r="62.823985287853844" fill-opacity="0.3" fill="#b895e" cy="126.42486463466736" cx="338.13866031867167"/><circle r="62.590697638219986" fill-opacity="0.3" fill="#b895e" cy="224.72778382618085" cx="282.52154462372124"/><circle r="62.343054274365066" fill-opacity="0.3" fill="#b895e" cy="301.0327817662468" cx="199.24925169765444"/><circle r="62.08117245020083" fill-opacity="0.3" fill="#b895e" cy="347.8705936083126" cx="96.47305376425176"/><circle r="68.13182128650963" fill-opacity="0.3" fill="#b895e" cy="-306.4177772475905" cx="-257.1150438746166"/><circle r="67.81215759658836" fill-opacity="0.3" fill="#b895e" cy="-370.8735418267148" cx="-149.84263736636524"/><circle r="67.4772300334731" fill-opacity="0.3" fill="#b895e" cy="-399.0256201039295" cx="-27.902589497652684"/><circle r="67.12719717830369" fill-opacity="0.3" fill="#b895e" cy="-388.11829051039905" cx="96.76875823986528"/><circle r="66.7622247642573" fill-opacity="0.3" fill="#b895e" cy="-339.219238462571" cx="211.96770569328098"/><circle r="66.38248559807728" fill-opacity="0.3" fill="#b895e" cy="-257.1150438746161" cx="306.41777724759095"/><circle r="65.98815947825273" fill-opacity="0.3" fill="#b895e" cy="-149.84263736636458" cx="370.87354182671504"/><circle r="65.57943310988779" fill-opacity="0.3" fill="#b895e" cy="-27.902589497652002" cx="399.02562010392955"/><circle r="65.15650001630068" fill-opacity="0.3" fill="#b895e" cy="96.76875823986593" cx="388.1182905103989"/><circle r="64.71956044739458" fill-opacity="0.3" fill="#b895e" cy="211.96770569328157" cx="339.2192384625707"/><circle r="64.26882128484327" fill-opacity="0.3" fill="#b895e" cy="306.4177772475895" cx="257.11504387461775"/><circle r="63.80449594413727" fill-opacity="0.3" fill="#b895e" cy="370.87354182671424" cx="149.84263736636657"/><circle r="63.32680427353605" fill-opacity="0.3" fill="#b895e" cy="399.0256201039296" cx="27.90258949765132"/><circle r="62.83597244997447" fill-opacity="0.3" fill="#b895e" cy="388.1182905103987" cx="-96.7687582398666"/><circle r="62.3322328719727" fill-opacity="0.3" fill="#b895e" cy="339.2192384625703" cx="-211.96770569328214"/><circle r="61.815824049600586" fill-opacity="0.3" fill="#b895e" cy="257.1150438746172" cx="-306.41777724759"/><circle r="61.28699049154807" fill-opacity="0.3" fill="#b895e" cy="149.84263736636595" cx="-370.8735418267145"/><circle r="60.74598258935549" fill-opacity="0.3" fill="#b895e" cy="27.902589497650638" cx="-399.02562010392967"/><circle r="60.19305649885839" fill-opacity="0.3" fill="#b895e" cy="-96.76875823986451" cx="-388.1182905103992"/><circle r="59.6284740189033" fill-opacity="0.3" fill="#b895e" cy="-211.96770569328032" cx="-339.2192384625714"/></g></svg>