<svg width="500" height="500" style="background: rgb(176, 104, 242);" version="1.1" xmlns="http://www.w3.org/2000/svg"><circle class="moon" fill="#e964af" cx="320" cy="90" r="45"></circle><rect class="snow" fill="url(#snow)" x="-20" y="225" width="520" height="100" transform="rotate(5,250,250)"></rect><rect class="snow" fill="url(#snow)" x="0" y="225" width="520" height="100" transform="rotate(-5,250,250)"></rect><rect class="snow" fill="url(#snow)" x="0" y="250" width="500" height="500"></rect><g transform="translate(342.30989817241203,331.1683872365393)"><path class="shadow" fill="#a55321" transform="scale(1,-1)skewX(-5.2852503662676185)" d="M-11.612460126169026,0C-11.612460126169026,5 11.612460126169026,5 11.612460126169026,0L18.589510285062715,-500L-2.9191849026829004,-500Z"></path><path class="tree" d="M-11.612460126169026,0C-11.612460126169026,5 11.612460126169026,5 11.612460126169026,0L18.589510285062715,-500L-2.9191849026829004,-500Z" fill="url(#g0)"></path></g><g transform="translate(412.9552993312478,339.57299480447546)"><path class="shadow" fill="#a55321" transform="scale(1,-1)skewX(-20.42821700823046)" d="M-12.957039424218237,0C-12.957039424218237,5 12.957039424218237,5 12.957039424218237,0L18.48792698350735,-500L-3.4621904673986137,-500Z"></path><path class="tree" d="M-12.957039424218237,0C-12.957039424218237,5 12.957039424218237,5 12.957039424218237,0L18.48792698350735,-500L-3.4621904673986137,-500Z" fill="url(#g1)"></path></g><g transform="translate(448.85310766464096,329.6764191763941)"><path class="shadow" fill="#a55321" transform="scale(1,-1)skewX(-28.263043097022077)" d="M-13.687838446348906,0C-13.687838446348906,5 13.687838446348906,5 13.687838446348906,0L14.735738919116557,-500L-7.620917214080691,-500Z"></path><path class="tree" d="M-13.687838446348906,0C-13.687838446348906,5 13.687838446348906,5 13.687838446348906,0L14.735738919116557,-500L-7.620917214080691,-500Z" fill="url(#g2)"></path></g><g transform="translate(-17.585584875754922,337.06606502993964)"><path class="shadow" fill="#a55321" transform="scale(1,-1)skewX(53.80102046516037)" d="M-13.33245314937085,0C-13.33245314937085,5 13.33245314937085,5 13.33245314937085,0L12.965544253122061,-500L-9.7278060792014,-500Z"></path><path class="tree" d="M-13.33245314937085,0C-13.33245314937085,5 13.33245314937085,5 13.33245314937085,0L12.965544253122061,-500L-9.7278060792014,-500Z" fill="url(#g3)"></path></g><g transform="translate(35.656675022933726,334.52900797477923)"><path class="shadow" fill="#a55321" transform="scale(1,-1)skewX(49.30519309549915)" d="M-10.62697296217084,0C-10.62697296217084,5 10.62697296217084,5 10.62697296217084,0L13.524444384500384,-500L-5.7933781140018255,-500Z"></path><path class="tree" d="M-10.62697296217084,0C-10.62697296217084,5 10.62697296217084,5 10.62697296217084,0L13.524444384500384,-500L-5.7933781140018255,-500Z" fill="url(#g4)"></path></g><g transform="translate(110.59976452207187,335.640801503323)"><path class="shadow" fill="#a55321" transform="scale(1,-1)skewX(40.44643727480547)" d="M-12.269489953294396,0C-12.269489953294396,5 12.269489953294396,5 12.269489953294396,0L16.662118044449016,-500L-2.7033162880688906,-500Z"></path><path class="tree" d="M-12.269489953294396,0C-12.269489953294396,5 12.269489953294396,5 12.269489953294396,0L16.662118044449016,-500L-2.7033162880688906,-500Z" fill="url(#g5)"></path></g><g transform="translate(153.52245127493507,329.10130326868966)"><path class="shadow" fill="#a55321" transform="scale(1,-1)skewX(34.84809238063567)" d="M-10.776868880726397,0C-10.776868880726397,5 10.776868880726397,5 10.776868880726397,0L14.761859491933137,-500L0.3337543304078281,-500Z"></path><path class="tree" d="M-10.776868880726397,0C-10.776868880726397,5 10.776868880726397,5 10.776868880726397,0L14.761859491933137,-500L0.3337543304078281,-500Z" fill="url(#g6)"></path></g><g transform="translate(237.31107159694645,329.70397571334615)"><path class="shadow" fill="#a55321" transform="scale(1,-1)skewX(19.032524033521852)" d="M-10.558232293464243,0C-10.558232293464243,5 10.558232293464243,5 10.558232293464243,0L15.837818601634353,-500L-1.915726297069341,-500Z"></path><path class="tree" d="M-10.558232293464243,0C-10.558232293464243,5 10.558232293464243,5 10.558232293464243,0L15.837818601634353,-500L-1.915726297069341,-500Z" fill="url(#g7)"></path></g></svg>